<?xml version="1.0" encoding="utf-8" standalone="no"?>
<!DOCTYPE svg PUBLIC "-//W3C//DTD SVG 1.1//EN"
  "http://www.w3.org/Graphics/SVG/1.1/DTD/svg11.dtd">
<svg xmlns:xlink="http://www.w3.org/1999/xlink" width="460.8pt" height="345.6pt" viewBox="0 0 460.8 345.6" xmlns="http://www.w3.org/2000/svg" version="1.1">
 <metadata>
  <rdf:RDF xmlns:dc="http://purl.org/dc/elements/1.1/" xmlns:cc="http://creativecommons.org/ns#" xmlns:rdf="http://www.w3.org/1999/02/22-rdf-syntax-ns#">
   <cc:Work>
    <dc:type rdf:resource="http://purl.org/dc/dcmitype/StillImage"/>
    <dc:date>2025-10-31T17:25:23.262402</dc:date>
    <dc:format>image/svg+xml</dc:format>
    <dc:creator>
     <cc:Agent>
      <dc:title>Matplotlib v3.10.7, https://matplotlib.org/</dc:title>
     </cc:Agent>
    </dc:creator>
   </cc:Work>
  </rdf:RDF>
 </metadata>
 <defs>
  <style type="text/css">*{stroke-linejoin: round; stroke-linecap: butt}</style>
 </defs>
 <g id="figure_1">
  <g id="patch_1">
   <path d="M 0 345.6 
L 460.8 345.6 
L 460.8 0 
L 0 0 
z
" style="fill: #ffffff"/>
  </g>
  <g id="axes_1">
   <g id="patch_2">
    <path d="M 57.6 307.584 
L 414.72 307.584 
L 414.72 41.472 
L 57.6 41.472 
z
" style="fill: #ffffff"/>
   </g>
   <g id="matplotlib.axis_1">
    <g id="xtick_1">
     <g id="line2d_1">
      <defs>
       <path id="mff5e8cd990" d="M 0 0 
L 0 3.5 
" style="stroke: #000000; stroke-width: 0.8"/>
      </defs>
      <g>
       <use xlink:href="#mff5e8cd990" x="73.832727" y="307.584" style="stroke: #000000; stroke-width: 0.8"/>
      </g>
     </g>
     <g id="text_1">
      <!-- 0 -->
      <g transform="translate(70.651477 322.182437) scale(0.1 -0.1)">
       <defs>
        <path id="DejaVuSans-30" d="M 2034 4250 
Q 1547 4250 1301 3770 
Q 1056 3291 1056 2328 
Q 1056 1369 1301 889 
Q 1547 409 2034 409 
Q 2525 409 2770 889 
Q 3016 1369 3016 2328 
Q 3016 3291 2770 3770 
Q 2525 4250 2034 4250 
z
M 2034 4750 
Q 2819 4750 3233 4129 
Q 3647 3509 3647 2328 
Q 3647 1150 3233 529 
Q 2819 -91 2034 -91 
Q 1250 -91 836 529 
Q 422 1150 422 2328 
Q 422 3509 836 4129 
Q 1250 4750 2034 4750 
z
" transform="scale(0.015625)"/>
       </defs>
       <use xlink:href="#DejaVuSans-30"/>
      </g>
     </g>
    </g>
    <g id="xtick_2">
     <g id="line2d_2">
      <g>
       <use xlink:href="#mff5e8cd990" x="125.777455" y="307.584" style="stroke: #000000; stroke-width: 0.8"/>
      </g>
     </g>
     <g id="text_2">
      <!-- 20 -->
      <g transform="translate(119.414955 322.182437) scale(0.1 -0.1)">
       <defs>
        <path id="DejaVuSans-32" d="M 1228 531 
L 3431 531 
L 3431 0 
L 469 0 
L 469 531 
Q 828 903 1448 1529 
Q 2069 2156 2228 2338 
Q 2531 2678 2651 2914 
Q 2772 3150 2772 3378 
Q 2772 3750 2511 3984 
Q 2250 4219 1831 4219 
Q 1534 4219 1204 4116 
Q 875 4013 500 3803 
L 500 4441 
Q 881 4594 1212 4672 
Q 1544 4750 1819 4750 
Q 2544 4750 2975 4387 
Q 3406 4025 3406 3419 
Q 3406 3131 3298 2873 
Q 3191 2616 2906 2266 
Q 2828 2175 2409 1742 
Q 1991 1309 1228 531 
z
" transform="scale(0.015625)"/>
       </defs>
       <use xlink:href="#DejaVuSans-32"/>
       <use xlink:href="#DejaVuSans-30" transform="translate(63.623047 0)"/>
      </g>
     </g>
    </g>
    <g id="xtick_3">
     <g id="line2d_3">
      <g>
       <use xlink:href="#mff5e8cd990" x="177.722182" y="307.584" style="stroke: #000000; stroke-width: 0.8"/>
      </g>
     </g>
     <g id="text_3">
      <!-- 40 -->
      <g transform="translate(171.359682 322.182437) scale(0.1 -0.1)">
       <defs>
        <path id="DejaVuSans-34" d="M 2419 4116 
L 825 1625 
L 2419 1625 
L 2419 4116 
z
M 2253 4666 
L 3047 4666 
L 3047 1625 
L 3713 1625 
L 3713 1100 
L 3047 1100 
L 3047 0 
L 2419 0 
L 2419 1100 
L 313 1100 
L 313 1709 
L 2253 4666 
z
" transform="scale(0.015625)"/>
       </defs>
       <use xlink:href="#DejaVuSans-34"/>
       <use xlink:href="#DejaVuSans-30" transform="translate(63.623047 0)"/>
      </g>
     </g>
    </g>
    <g id="xtick_4">
     <g id="line2d_4">
      <g>
       <use xlink:href="#mff5e8cd990" x="229.666909" y="307.584" style="stroke: #000000; stroke-width: 0.8"/>
      </g>
     </g>
     <g id="text_4">
      <!-- 60 -->
      <g transform="translate(223.304409 322.182437) scale(0.1 -0.1)">
       <defs>
        <path id="DejaVuSans-36" d="M 2113 2584 
Q 1688 2584 1439 2293 
Q 1191 2003 1191 1497 
Q 1191 994 1439 701 
Q 1688 409 2113 409 
Q 2538 409 2786 701 
Q 3034 994 3034 1497 
Q 3034 2003 2786 2293 
Q 2538 2584 2113 2584 
z
M 3366 4563 
L 3366 3988 
Q 3128 4100 2886 4159 
Q 2644 4219 2406 4219 
Q 1781 4219 1451 3797 
Q 1122 3375 1075 2522 
Q 1259 2794 1537 2939 
Q 1816 3084 2150 3084 
Q 2853 3084 3261 2657 
Q 3669 2231 3669 1497 
Q 3669 778 3244 343 
Q 2819 -91 2113 -91 
Q 1303 -91 875 529 
Q 447 1150 447 2328 
Q 447 3434 972 4092 
Q 1497 4750 2381 4750 
Q 2619 4750 2861 4703 
Q 3103 4656 3366 4563 
z
" transform="scale(0.015625)"/>
       </defs>
       <use xlink:href="#DejaVuSans-36"/>
       <use xlink:href="#DejaVuSans-30" transform="translate(63.623047 0)"/>
      </g>
     </g>
    </g>
    <g id="xtick_5">
     <g id="line2d_5">
      <g>
       <use xlink:href="#mff5e8cd990" x="281.611636" y="307.584" style="stroke: #000000; stroke-width: 0.8"/>
      </g>
     </g>
     <g id="text_5">
      <!-- 80 -->
      <g transform="translate(275.249136 322.182437) scale(0.1 -0.1)">
       <defs>
        <path id="DejaVuSans-38" d="M 2034 2216 
Q 1584 2216 1326 1975 
Q 1069 1734 1069 1313 
Q 1069 891 1326 650 
Q 1584 409 2034 409 
Q 2484 409 2743 651 
Q 3003 894 3003 1313 
Q 3003 1734 2745 1975 
Q 2488 2216 2034 2216 
z
M 1403 2484 
Q 997 2584 770 2862 
Q 544 3141 544 3541 
Q 544 4100 942 4425 
Q 1341 4750 2034 4750 
Q 2731 4750 3128 4425 
Q 3525 4100 3525 3541 
Q 3525 3141 3298 2862 
Q 3072 2584 2669 2484 
Q 3125 2378 3379 2068 
Q 3634 1759 3634 1313 
Q 3634 634 3220 271 
Q 2806 -91 2034 -91 
Q 1263 -91 848 271 
Q 434 634 434 1313 
Q 434 1759 690 2068 
Q 947 2378 1403 2484 
z
M 1172 3481 
Q 1172 3119 1398 2916 
Q 1625 2713 2034 2713 
Q 2441 2713 2670 2916 
Q 2900 3119 2900 3481 
Q 2900 3844 2670 4047 
Q 2441 4250 2034 4250 
Q 1625 4250 1398 4047 
Q 1172 3844 1172 3481 
z
" transform="scale(0.015625)"/>
       </defs>
       <use xlink:href="#DejaVuSans-38"/>
       <use xlink:href="#DejaVuSans-30" transform="translate(63.623047 0)"/>
      </g>
     </g>
    </g>
    <g id="xtick_6">
     <g id="line2d_6">
      <g>
       <use xlink:href="#mff5e8cd990" x="333.556364" y="307.584" style="stroke: #000000; stroke-width: 0.8"/>
      </g>
     </g>
     <g id="text_6">
      <!-- 100 -->
      <g transform="translate(324.012614 322.182437) scale(0.1 -0.1)">
       <defs>
        <path id="DejaVuSans-31" d="M 794 531 
L 1825 531 
L 1825 4091 
L 703 3866 
L 703 4441 
L 1819 4666 
L 2450 4666 
L 2450 531 
L 3481 531 
L 3481 0 
L 794 0 
L 794 531 
z
" transform="scale(0.015625)"/>
       </defs>
       <use xlink:href="#DejaVuSans-31"/>
       <use xlink:href="#DejaVuSans-30" transform="translate(63.623047 0)"/>
       <use xlink:href="#DejaVuSans-30" transform="translate(127.246094 0)"/>
      </g>
     </g>
    </g>
    <g id="xtick_7">
     <g id="line2d_7">
      <g>
       <use xlink:href="#mff5e8cd990" x="385.501091" y="307.584" style="stroke: #000000; stroke-width: 0.8"/>
      </g>
     </g>
     <g id="text_7">
      <!-- 120 -->
      <g transform="translate(375.957341 322.182437) scale(0.1 -0.1)">
       <use xlink:href="#DejaVuSans-31"/>
       <use xlink:href="#DejaVuSans-32" transform="translate(63.623047 0)"/>
       <use xlink:href="#DejaVuSans-30" transform="translate(127.246094 0)"/>
      </g>
     </g>
    </g>
    <g id="text_8">
     <!-- Frequenz in Hz -->
     <g transform="translate(199.294375 335.860562) scale(0.1 -0.1)">
      <defs>
       <path id="DejaVuSans-46" d="M 628 4666 
L 3309 4666 
L 3309 4134 
L 1259 4134 
L 1259 2759 
L 3109 2759 
L 3109 2228 
L 1259 2228 
L 1259 0 
L 628 0 
L 628 4666 
z
" transform="scale(0.015625)"/>
       <path id="DejaVuSans-72" d="M 2631 2963 
Q 2534 3019 2420 3045 
Q 2306 3072 2169 3072 
Q 1681 3072 1420 2755 
Q 1159 2438 1159 1844 
L 1159 0 
L 581 0 
L 581 3500 
L 1159 3500 
L 1159 2956 
Q 1341 3275 1631 3429 
Q 1922 3584 2338 3584 
Q 2397 3584 2469 3576 
Q 2541 3569 2628 3553 
L 2631 2963 
z
" transform="scale(0.015625)"/>
       <path id="DejaVuSans-65" d="M 3597 1894 
L 3597 1613 
L 953 1613 
Q 991 1019 1311 708 
Q 1631 397 2203 397 
Q 2534 397 2845 478 
Q 3156 559 3463 722 
L 3463 178 
Q 3153 47 2828 -22 
Q 2503 -91 2169 -91 
Q 1331 -91 842 396 
Q 353 884 353 1716 
Q 353 2575 817 3079 
Q 1281 3584 2069 3584 
Q 2775 3584 3186 3129 
Q 3597 2675 3597 1894 
z
M 3022 2063 
Q 3016 2534 2758 2815 
Q 2500 3097 2075 3097 
Q 1594 3097 1305 2825 
Q 1016 2553 972 2059 
L 3022 2063 
z
" transform="scale(0.015625)"/>
       <path id="DejaVuSans-71" d="M 947 1747 
Q 947 1113 1208 752 
Q 1469 391 1925 391 
Q 2381 391 2643 752 
Q 2906 1113 2906 1747 
Q 2906 2381 2643 2742 
Q 2381 3103 1925 3103 
Q 1469 3103 1208 2742 
Q 947 2381 947 1747 
z
M 2906 525 
Q 2725 213 2448 61 
Q 2172 -91 1784 -91 
Q 1150 -91 751 415 
Q 353 922 353 1747 
Q 353 2572 751 3078 
Q 1150 3584 1784 3584 
Q 2172 3584 2448 3432 
Q 2725 3281 2906 2969 
L 2906 3500 
L 3481 3500 
L 3481 -1331 
L 2906 -1331 
L 2906 525 
z
" transform="scale(0.015625)"/>
       <path id="DejaVuSans-75" d="M 544 1381 
L 544 3500 
L 1119 3500 
L 1119 1403 
Q 1119 906 1312 657 
Q 1506 409 1894 409 
Q 2359 409 2629 706 
Q 2900 1003 2900 1516 
L 2900 3500 
L 3475 3500 
L 3475 0 
L 2900 0 
L 2900 538 
Q 2691 219 2414 64 
Q 2138 -91 1772 -91 
Q 1169 -91 856 284 
Q 544 659 544 1381 
z
M 1991 3584 
L 1991 3584 
z
" transform="scale(0.015625)"/>
       <path id="DejaVuSans-6e" d="M 3513 2113 
L 3513 0 
L 2938 0 
L 2938 2094 
Q 2938 2591 2744 2837 
Q 2550 3084 2163 3084 
Q 1697 3084 1428 2787 
Q 1159 2491 1159 1978 
L 1159 0 
L 581 0 
L 581 3500 
L 1159 3500 
L 1159 2956 
Q 1366 3272 1645 3428 
Q 1925 3584 2291 3584 
Q 2894 3584 3203 3211 
Q 3513 2838 3513 2113 
z
" transform="scale(0.015625)"/>
       <path id="DejaVuSans-7a" d="M 353 3500 
L 3084 3500 
L 3084 2975 
L 922 459 
L 3084 459 
L 3084 0 
L 275 0 
L 275 525 
L 2438 3041 
L 353 3041 
L 353 3500 
z
" transform="scale(0.015625)"/>
       <path id="DejaVuSans-20" transform="scale(0.015625)"/>
       <path id="DejaVuSans-69" d="M 603 3500 
L 1178 3500 
L 1178 0 
L 603 0 
L 603 3500 
z
M 603 4863 
L 1178 4863 
L 1178 4134 
L 603 4134 
L 603 4863 
z
" transform="scale(0.015625)"/>
       <path id="DejaVuSans-48" d="M 628 4666 
L 1259 4666 
L 1259 2753 
L 3553 2753 
L 3553 4666 
L 4184 4666 
L 4184 0 
L 3553 0 
L 3553 2222 
L 1259 2222 
L 1259 0 
L 628 0 
L 628 4666 
z
" transform="scale(0.015625)"/>
      </defs>
      <use xlink:href="#DejaVuSans-46"/>
      <use xlink:href="#DejaVuSans-72" transform="translate(50.269531 0)"/>
      <use xlink:href="#DejaVuSans-65" transform="translate(89.132812 0)"/>
      <use xlink:href="#DejaVuSans-71" transform="translate(150.65625 0)"/>
      <use xlink:href="#DejaVuSans-75" transform="translate(214.132812 0)"/>
      <use xlink:href="#DejaVuSans-65" transform="translate(277.511719 0)"/>
      <use xlink:href="#DejaVuSans-6e" transform="translate(339.035156 0)"/>
      <use xlink:href="#DejaVuSans-7a" transform="translate(402.414062 0)"/>
      <use xlink:href="#DejaVuSans-20" transform="translate(454.904297 0)"/>
      <use xlink:href="#DejaVuSans-69" transform="translate(486.691406 0)"/>
      <use xlink:href="#DejaVuSans-6e" transform="translate(514.474609 0)"/>
      <use xlink:href="#DejaVuSans-20" transform="translate(577.853516 0)"/>
      <use xlink:href="#DejaVuSans-48" transform="translate(609.640625 0)"/>
      <use xlink:href="#DejaVuSans-7a" transform="translate(684.835938 0)"/>
     </g>
    </g>
   </g>
   <g id="matplotlib.axis_2">
    <g id="ytick_1">
     <g id="line2d_8">
      <defs>
       <path id="m6e7070a430" d="M 0 0 
L -3.5 0 
" style="stroke: #000000; stroke-width: 0.8"/>
      </defs>
      <g>
       <use xlink:href="#m6e7070a430" x="57.6" y="307.584" style="stroke: #000000; stroke-width: 0.8"/>
      </g>
     </g>
     <g id="text_9">
      <!-- $\mathdefault{10^{-1}}$ -->
      <g transform="translate(27.1 311.383219) scale(0.1 -0.1)">
       <defs>
        <path id="DejaVuSans-2212" d="M 678 2272 
L 4684 2272 
L 4684 1741 
L 678 1741 
L 678 2272 
z
" transform="scale(0.015625)"/>
       </defs>
       <use xlink:href="#DejaVuSans-31" transform="translate(0 0.684375)"/>
       <use xlink:href="#DejaVuSans-30" transform="translate(63.623047 0.684375)"/>
       <use xlink:href="#DejaVuSans-2212" transform="translate(128.203125 38.965625) scale(0.7)"/>
       <use xlink:href="#DejaVuSans-31" transform="translate(186.855469 38.965625) scale(0.7)"/>
      </g>
     </g>
    </g>
    <g id="ytick_2">
     <g id="line2d_9">
      <g>
       <use xlink:href="#m6e7070a430" x="57.6" y="241.056" style="stroke: #000000; stroke-width: 0.8"/>
      </g>
     </g>
     <g id="text_10">
      <!-- $\mathdefault{10^{0}}$ -->
      <g transform="translate(33 244.855219) scale(0.1 -0.1)">
       <use xlink:href="#DejaVuSans-31" transform="translate(0 0.765625)"/>
       <use xlink:href="#DejaVuSans-30" transform="translate(63.623047 0.765625)"/>
       <use xlink:href="#DejaVuSans-30" transform="translate(128.203125 39.046875) scale(0.7)"/>
      </g>
     </g>
    </g>
    <g id="ytick_3">
     <g id="line2d_10">
      <g>
       <use xlink:href="#m6e7070a430" x="57.6" y="174.528" style="stroke: #000000; stroke-width: 0.8"/>
      </g>
     </g>
     <g id="text_11">
      <!-- $\mathdefault{10^{1}}$ -->
      <g transform="translate(33 178.327219) scale(0.1 -0.1)">
       <use xlink:href="#DejaVuSans-31" transform="translate(0 0.684375)"/>
       <use xlink:href="#DejaVuSans-30" transform="translate(63.623047 0.684375)"/>
       <use xlink:href="#DejaVuSans-31" transform="translate(128.203125 38.965625) scale(0.7)"/>
      </g>
     </g>
    </g>
    <g id="ytick_4">
     <g id="line2d_11">
      <g>
       <use xlink:href="#m6e7070a430" x="57.6" y="108" style="stroke: #000000; stroke-width: 0.8"/>
      </g>
     </g>
     <g id="text_12">
      <!-- $\mathdefault{10^{2}}$ -->
      <g transform="translate(33 111.799219) scale(0.1 -0.1)">
       <use xlink:href="#DejaVuSans-31" transform="translate(0 0.765625)"/>
       <use xlink:href="#DejaVuSans-30" transform="translate(63.623047 0.765625)"/>
       <use xlink:href="#DejaVuSans-32" transform="translate(128.203125 39.046875) scale(0.7)"/>
      </g>
     </g>
    </g>
    <g id="ytick_5">
     <g id="line2d_12">
      <g>
       <use xlink:href="#m6e7070a430" x="57.6" y="41.472" style="stroke: #000000; stroke-width: 0.8"/>
      </g>
     </g>
     <g id="text_13">
      <!-- $\mathdefault{10^{3}}$ -->
      <g transform="translate(33 45.271219) scale(0.1 -0.1)">
       <defs>
        <path id="DejaVuSans-33" d="M 2597 2516 
Q 3050 2419 3304 2112 
Q 3559 1806 3559 1356 
Q 3559 666 3084 287 
Q 2609 -91 1734 -91 
Q 1441 -91 1130 -33 
Q 819 25 488 141 
L 488 750 
Q 750 597 1062 519 
Q 1375 441 1716 441 
Q 2309 441 2620 675 
Q 2931 909 2931 1356 
Q 2931 1769 2642 2001 
Q 2353 2234 1838 2234 
L 1294 2234 
L 1294 2753 
L 1863 2753 
Q 2328 2753 2575 2939 
Q 2822 3125 2822 3475 
Q 2822 3834 2567 4026 
Q 2313 4219 1838 4219 
Q 1578 4219 1281 4162 
Q 984 4106 628 3988 
L 628 4550 
Q 988 4650 1302 4700 
Q 1616 4750 1894 4750 
Q 2613 4750 3031 4423 
Q 3450 4097 3450 3541 
Q 3450 3153 3228 2886 
Q 3006 2619 2597 2516 
z
" transform="scale(0.015625)"/>
       </defs>
       <use xlink:href="#DejaVuSans-31" transform="translate(0 0.765625)"/>
       <use xlink:href="#DejaVuSans-30" transform="translate(63.623047 0.765625)"/>
       <use xlink:href="#DejaVuSans-33" transform="translate(128.203125 39.046875) scale(0.7)"/>
      </g>
     </g>
    </g>
    <g id="ytick_6">
     <g id="line2d_13">
      <defs>
       <path id="me131d5a9f7" d="M 0 0 
L -2 0 
" style="stroke: #000000; stroke-width: 0.6"/>
      </defs>
      <g>
       <use xlink:href="#me131d5a9f7" x="57.6" y="287.557076" style="stroke: #000000; stroke-width: 0.6"/>
      </g>
     </g>
    </g>
    <g id="ytick_7">
     <g id="line2d_14">
      <g>
       <use xlink:href="#me131d5a9f7" x="57.6" y="275.842077" style="stroke: #000000; stroke-width: 0.6"/>
      </g>
     </g>
    </g>
    <g id="ytick_8">
     <g id="line2d_15">
      <g>
       <use xlink:href="#me131d5a9f7" x="57.6" y="267.530153" style="stroke: #000000; stroke-width: 0.6"/>
      </g>
     </g>
    </g>
    <g id="ytick_9">
     <g id="line2d_16">
      <g>
       <use xlink:href="#me131d5a9f7" x="57.6" y="261.082924" style="stroke: #000000; stroke-width: 0.6"/>
      </g>
     </g>
    </g>
    <g id="ytick_10">
     <g id="line2d_17">
      <g>
       <use xlink:href="#me131d5a9f7" x="57.6" y="255.815154" style="stroke: #000000; stroke-width: 0.6"/>
      </g>
     </g>
    </g>
    <g id="ytick_11">
     <g id="line2d_18">
      <g>
       <use xlink:href="#me131d5a9f7" x="57.6" y="251.361318" style="stroke: #000000; stroke-width: 0.6"/>
      </g>
     </g>
    </g>
    <g id="ytick_12">
     <g id="line2d_19">
      <g>
       <use xlink:href="#me131d5a9f7" x="57.6" y="247.503229" style="stroke: #000000; stroke-width: 0.6"/>
      </g>
     </g>
    </g>
    <g id="ytick_13">
     <g id="line2d_20">
      <g>
       <use xlink:href="#me131d5a9f7" x="57.6" y="244.100154" style="stroke: #000000; stroke-width: 0.6"/>
      </g>
     </g>
    </g>
    <g id="ytick_14">
     <g id="line2d_21">
      <g>
       <use xlink:href="#me131d5a9f7" x="57.6" y="221.029076" style="stroke: #000000; stroke-width: 0.6"/>
      </g>
     </g>
    </g>
    <g id="ytick_15">
     <g id="line2d_22">
      <g>
       <use xlink:href="#me131d5a9f7" x="57.6" y="209.314077" style="stroke: #000000; stroke-width: 0.6"/>
      </g>
     </g>
    </g>
    <g id="ytick_16">
     <g id="line2d_23">
      <g>
       <use xlink:href="#me131d5a9f7" x="57.6" y="201.002153" style="stroke: #000000; stroke-width: 0.6"/>
      </g>
     </g>
    </g>
    <g id="ytick_17">
     <g id="line2d_24">
      <g>
       <use xlink:href="#me131d5a9f7" x="57.6" y="194.554924" style="stroke: #000000; stroke-width: 0.6"/>
      </g>
     </g>
    </g>
    <g id="ytick_18">
     <g id="line2d_25">
      <g>
       <use xlink:href="#me131d5a9f7" x="57.6" y="189.287154" style="stroke: #000000; stroke-width: 0.6"/>
      </g>
     </g>
    </g>
    <g id="ytick_19">
     <g id="line2d_26">
      <g>
       <use xlink:href="#me131d5a9f7" x="57.6" y="184.833318" style="stroke: #000000; stroke-width: 0.6"/>
      </g>
     </g>
    </g>
    <g id="ytick_20">
     <g id="line2d_27">
      <g>
       <use xlink:href="#me131d5a9f7" x="57.6" y="180.975229" style="stroke: #000000; stroke-width: 0.6"/>
      </g>
     </g>
    </g>
    <g id="ytick_21">
     <g id="line2d_28">
      <g>
       <use xlink:href="#me131d5a9f7" x="57.6" y="177.572154" style="stroke: #000000; stroke-width: 0.6"/>
      </g>
     </g>
    </g>
    <g id="ytick_22">
     <g id="line2d_29">
      <g>
       <use xlink:href="#me131d5a9f7" x="57.6" y="154.501076" style="stroke: #000000; stroke-width: 0.6"/>
      </g>
     </g>
    </g>
    <g id="ytick_23">
     <g id="line2d_30">
      <g>
       <use xlink:href="#me131d5a9f7" x="57.6" y="142.786077" style="stroke: #000000; stroke-width: 0.6"/>
      </g>
     </g>
    </g>
    <g id="ytick_24">
     <g id="line2d_31">
      <g>
       <use xlink:href="#me131d5a9f7" x="57.6" y="134.474153" style="stroke: #000000; stroke-width: 0.6"/>
      </g>
     </g>
    </g>
    <g id="ytick_25">
     <g id="line2d_32">
      <g>
       <use xlink:href="#me131d5a9f7" x="57.6" y="128.026924" style="stroke: #000000; stroke-width: 0.6"/>
      </g>
     </g>
    </g>
    <g id="ytick_26">
     <g id="line2d_33">
      <g>
       <use xlink:href="#me131d5a9f7" x="57.6" y="122.759154" style="stroke: #000000; stroke-width: 0.6"/>
      </g>
     </g>
    </g>
    <g id="ytick_27">
     <g id="line2d_34">
      <g>
       <use xlink:href="#me131d5a9f7" x="57.6" y="118.305318" style="stroke: #000000; stroke-width: 0.6"/>
      </g>
     </g>
    </g>
    <g id="ytick_28">
     <g id="line2d_35">
      <g>
       <use xlink:href="#me131d5a9f7" x="57.6" y="114.447229" style="stroke: #000000; stroke-width: 0.6"/>
      </g>
     </g>
    </g>
    <g id="ytick_29">
     <g id="line2d_36">
      <g>
       <use xlink:href="#me131d5a9f7" x="57.6" y="111.044154" style="stroke: #000000; stroke-width: 0.6"/>
      </g>
     </g>
    </g>
    <g id="ytick_30">
     <g id="line2d_37">
      <g>
       <use xlink:href="#me131d5a9f7" x="57.6" y="87.973076" style="stroke: #000000; stroke-width: 0.6"/>
      </g>
     </g>
    </g>
    <g id="ytick_31">
     <g id="line2d_38">
      <g>
       <use xlink:href="#me131d5a9f7" x="57.6" y="76.258077" style="stroke: #000000; stroke-width: 0.6"/>
      </g>
     </g>
    </g>
    <g id="ytick_32">
     <g id="line2d_39">
      <g>
       <use xlink:href="#me131d5a9f7" x="57.6" y="67.946153" style="stroke: #000000; stroke-width: 0.6"/>
      </g>
     </g>
    </g>
    <g id="ytick_33">
     <g id="line2d_40">
      <g>
       <use xlink:href="#me131d5a9f7" x="57.6" y="61.498924" style="stroke: #000000; stroke-width: 0.6"/>
      </g>
     </g>
    </g>
    <g id="ytick_34">
     <g id="line2d_41">
      <g>
       <use xlink:href="#me131d5a9f7" x="57.6" y="56.231154" style="stroke: #000000; stroke-width: 0.6"/>
      </g>
     </g>
    </g>
    <g id="ytick_35">
     <g id="line2d_42">
      <g>
       <use xlink:href="#me131d5a9f7" x="57.6" y="51.777318" style="stroke: #000000; stroke-width: 0.6"/>
      </g>
     </g>
    </g>
    <g id="ytick_36">
     <g id="line2d_43">
      <g>
       <use xlink:href="#me131d5a9f7" x="57.6" y="47.919229" style="stroke: #000000; stroke-width: 0.6"/>
      </g>
     </g>
    </g>
    <g id="ytick_37">
     <g id="line2d_44">
      <g>
       <use xlink:href="#me131d5a9f7" x="57.6" y="44.516154" style="stroke: #000000; stroke-width: 0.6"/>
      </g>
     </g>
    </g>
    <g id="text_14">
     <!-- Leistung/Frequenz (V²/Hz) -->
     <g transform="translate(21.020312 239.182687) rotate(-90) scale(0.1 -0.1)">
      <defs>
       <path id="DejaVuSans-4c" d="M 628 4666 
L 1259 4666 
L 1259 531 
L 3531 531 
L 3531 0 
L 628 0 
L 628 4666 
z
" transform="scale(0.015625)"/>
       <path id="DejaVuSans-73" d="M 2834 3397 
L 2834 2853 
Q 2591 2978 2328 3040 
Q 2066 3103 1784 3103 
Q 1356 3103 1142 2972 
Q 928 2841 928 2578 
Q 928 2378 1081 2264 
Q 1234 2150 1697 2047 
L 1894 2003 
Q 2506 1872 2764 1633 
Q 3022 1394 3022 966 
Q 3022 478 2636 193 
Q 2250 -91 1575 -91 
Q 1294 -91 989 -36 
Q 684 19 347 128 
L 347 722 
Q 666 556 975 473 
Q 1284 391 1588 391 
Q 1994 391 2212 530 
Q 2431 669 2431 922 
Q 2431 1156 2273 1281 
Q 2116 1406 1581 1522 
L 1381 1569 
Q 847 1681 609 1914 
Q 372 2147 372 2553 
Q 372 3047 722 3315 
Q 1072 3584 1716 3584 
Q 2034 3584 2315 3537 
Q 2597 3491 2834 3397 
z
" transform="scale(0.015625)"/>
       <path id="DejaVuSans-74" d="M 1172 4494 
L 1172 3500 
L 2356 3500 
L 2356 3053 
L 1172 3053 
L 1172 1153 
Q 1172 725 1289 603 
Q 1406 481 1766 481 
L 2356 481 
L 2356 0 
L 1766 0 
Q 1100 0 847 248 
Q 594 497 594 1153 
L 594 3053 
L 172 3053 
L 172 3500 
L 594 3500 
L 594 4494 
L 1172 4494 
z
" transform="scale(0.015625)"/>
       <path id="DejaVuSans-67" d="M 2906 1791 
Q 2906 2416 2648 2759 
Q 2391 3103 1925 3103 
Q 1463 3103 1205 2759 
Q 947 2416 947 1791 
Q 947 1169 1205 825 
Q 1463 481 1925 481 
Q 2391 481 2648 825 
Q 2906 1169 2906 1791 
z
M 3481 434 
Q 3481 -459 3084 -895 
Q 2688 -1331 1869 -1331 
Q 1566 -1331 1297 -1286 
Q 1028 -1241 775 -1147 
L 775 -588 
Q 1028 -725 1275 -790 
Q 1522 -856 1778 -856 
Q 2344 -856 2625 -561 
Q 2906 -266 2906 331 
L 2906 616 
Q 2728 306 2450 153 
Q 2172 0 1784 0 
Q 1141 0 747 490 
Q 353 981 353 1791 
Q 353 2603 747 3093 
Q 1141 3584 1784 3584 
Q 2172 3584 2450 3431 
Q 2728 3278 2906 2969 
L 2906 3500 
L 3481 3500 
L 3481 434 
z
" transform="scale(0.015625)"/>
       <path id="DejaVuSans-2f" d="M 1625 4666 
L 2156 4666 
L 531 -594 
L 0 -594 
L 1625 4666 
z
" transform="scale(0.015625)"/>
       <path id="DejaVuSans-28" d="M 1984 4856 
Q 1566 4138 1362 3434 
Q 1159 2731 1159 2009 
Q 1159 1288 1364 580 
Q 1569 -128 1984 -844 
L 1484 -844 
Q 1016 -109 783 600 
Q 550 1309 550 2009 
Q 550 2706 781 3412 
Q 1013 4119 1484 4856 
L 1984 4856 
z
" transform="scale(0.015625)"/>
       <path id="DejaVuSans-56" d="M 1831 0 
L 50 4666 
L 709 4666 
L 2188 738 
L 3669 4666 
L 4325 4666 
L 2547 0 
L 1831 0 
z
" transform="scale(0.015625)"/>
       <path id="DejaVuSans-b2" d="M 838 2444 
L 2163 2444 
L 2163 2088 
L 294 2088 
L 294 2431 
Q 400 2528 597 2703 
Q 1672 3656 1672 3950 
Q 1672 4156 1509 4282 
Q 1347 4409 1081 4409 
Q 919 4409 728 4354 
Q 538 4300 313 4191 
L 313 4575 
Q 553 4663 761 4706 
Q 969 4750 1147 4750 
Q 1600 4750 1872 4544 
Q 2144 4338 2144 4000 
Q 2144 3566 1109 2678 
Q 934 2528 838 2444 
z
" transform="scale(0.015625)"/>
       <path id="DejaVuSans-29" d="M 513 4856 
L 1013 4856 
Q 1481 4119 1714 3412 
Q 1947 2706 1947 2009 
Q 1947 1309 1714 600 
Q 1481 -109 1013 -844 
L 513 -844 
Q 928 -128 1133 580 
Q 1338 1288 1338 2009 
Q 1338 2731 1133 3434 
Q 928 4138 513 4856 
z
" transform="scale(0.015625)"/>
      </defs>
      <use xlink:href="#DejaVuSans-4c"/>
      <use xlink:href="#DejaVuSans-65" transform="translate(53.962891 0)"/>
      <use xlink:href="#DejaVuSans-69" transform="translate(115.486328 0)"/>
      <use xlink:href="#DejaVuSans-73" transform="translate(143.269531 0)"/>
      <use xlink:href="#DejaVuSans-74" transform="translate(195.369141 0)"/>
      <use xlink:href="#DejaVuSans-75" transform="translate(234.578125 0)"/>
      <use xlink:href="#DejaVuSans-6e" transform="translate(297.957031 0)"/>
      <use xlink:href="#DejaVuSans-67" transform="translate(361.335938 0)"/>
      <use xlink:href="#DejaVuSans-2f" transform="translate(424.8125 0)"/>
      <use xlink:href="#DejaVuSans-46" transform="translate(458.503906 0)"/>
      <use xlink:href="#DejaVuSans-72" transform="translate(508.773438 0)"/>
      <use xlink:href="#DejaVuSans-65" transform="translate(547.636719 0)"/>
      <use xlink:href="#DejaVuSans-71" transform="translate(609.160156 0)"/>
      <use xlink:href="#DejaVuSans-75" transform="translate(672.636719 0)"/>
      <use xlink:href="#DejaVuSans-65" transform="translate(736.015625 0)"/>
      <use xlink:href="#DejaVuSans-6e" transform="translate(797.539062 0)"/>
      <use xlink:href="#DejaVuSans-7a" transform="translate(860.917969 0)"/>
      <use xlink:href="#DejaVuSans-20" transform="translate(913.408203 0)"/>
      <use xlink:href="#DejaVuSans-28" transform="translate(945.195312 0)"/>
      <use xlink:href="#DejaVuSans-56" transform="translate(984.208984 0)"/>
      <use xlink:href="#DejaVuSans-b2" transform="translate(1052.617188 0)"/>
      <use xlink:href="#DejaVuSans-2f" transform="translate(1092.705078 0)"/>
      <use xlink:href="#DejaVuSans-48" transform="translate(1126.396484 0)"/>
      <use xlink:href="#DejaVuSans-7a" transform="translate(1201.591797 0)"/>
      <use xlink:href="#DejaVuSans-29" transform="translate(1254.082031 0)"/>
     </g>
    </g>
   </g>
   <g id="line2d_45">
    <path d="M 73.832727 125.452335 
L 74.149773 75.829602 
L 74.783864 97.11868 
L 75.100909 102.28629 
L 76.369091 146.353204 
L 77.320227 178.235445 
L 77.954318 189.313556 
L 78.588409 202.889791 
L 78.905455 202.77478 
L 79.2225 207.452083 
L 79.856591 218.857539 
L 80.490682 227.87484 
L 80.807727 234.61799 
L 81.124773 235.519477 
L 81.441818 234.738108 
L 81.758864 239.624526 
L 82.075909 239.75365 
L 82.392955 242.178293 
L 82.71 248.93744 
L 83.027045 250.590491 
L 83.344091 251.442981 
L 83.661136 254.964207 
L 83.978182 247.737847 
L 84.295227 244.035551 
L 84.612273 260.949074 
L 85.246364 270.256615 
L 85.880455 277.64861 
L 86.1975 276.328084 
L 86.514545 276.911282 
L 86.831591 281.888498 
L 87.148636 282.364817 
L 87.465682 280.165216 
L 88.099773 289.760704 
L 88.733864 287.388145 
L 89.050909 285.290381 
L 89.367955 273.807636 
L 90.002045 293.799443 
L 90.319091 293.834365 
L 90.636136 297.414961 
L 90.953182 298.330797 
L 91.270227 298.785154 
L 91.587273 299.852774 
L 92.221364 299.147646 
L 92.538409 298.039209 
L 92.855455 298.772797 
L 93.1725 298.761046 
L 93.806591 301.18008 
L 94.123636 297.644325 
L 94.440682 277.630966 
L 94.757727 279.383736 
L 95.074773 296.164339 
L 95.391818 301.367211 
L 95.708864 302.224842 
L 96.025909 300.402856 
L 96.342955 301.442107 
L 96.66 299.126506 
L 96.977045 298.381003 
L 97.294091 300.806626 
L 97.611136 299.198026 
L 97.928182 300.006394 
L 98.245227 297.069322 
L 98.562273 296.547088 
L 98.879318 297.728473 
L 99.196364 291.890611 
L 99.513409 263.109478 
L 99.830455 250.967429 
L 100.464545 290.606049 
L 100.781591 292.074414 
L 101.098636 294.16221 
L 101.415682 293.729664 
L 101.732727 292.01228 
L 102.049773 292.749949 
L 102.366818 296.030454 
L 102.683864 294.741236 
L 103.317955 291.455324 
L 103.635 290.897908 
L 103.952045 288.596141 
L 104.269091 287.200115 
L 104.903182 254.052555 
L 105.220227 264.926328 
L 105.537273 279.742978 
L 105.854318 284.061575 
L 106.171364 284.580242 
L 106.488409 285.616731 
L 106.805455 289.704358 
L 107.1225 288.813958 
L 107.439545 284.912611 
L 108.073636 283.233027 
L 108.390682 283.596038 
L 108.707727 285.173999 
L 109.341818 281.136732 
L 109.658864 273.533684 
L 109.975909 257.897155 
L 110.292955 259.436093 
L 110.61 275.484556 
L 111.244091 285.358273 
L 111.561136 287.748576 
L 111.878182 282.607663 
L 112.195227 283.989594 
L 112.512273 287.307346 
L 112.829318 283.477241 
L 113.146364 282.159535 
L 113.463409 287.06875 
L 113.780455 289.998021 
L 114.0975 290.476111 
L 114.414545 288.152001 
L 114.731591 281.182119 
L 115.048636 261.911911 
L 115.365682 254.401116 
L 115.999773 282.385134 
L 116.633864 290.053491 
L 116.950909 287.383047 
L 117.267955 286.25975 
L 117.585 287.256788 
L 118.219091 283.810227 
L 118.536136 287.291681 
L 118.853182 286.979422 
L 119.170227 285.514707 
L 119.487273 284.61436 
L 119.804318 278.432643 
L 120.438409 252.188518 
L 120.755455 261.468853 
L 121.0725 279.098692 
L 121.389545 286.972435 
L 122.023636 290.195168 
L 122.340682 289.736703 
L 122.657727 290.071576 
L 122.974773 285.492745 
L 123.291818 285.356962 
L 123.608864 283.732302 
L 123.925909 285.01578 
L 124.242955 284.307417 
L 124.56 284.299743 
L 125.194091 277.715819 
L 125.511136 263.930681 
L 125.828182 263.157549 
L 126.462273 282.052139 
L 126.779318 287.096139 
L 127.096364 288.274789 
L 127.413409 282.058082 
L 127.730455 281.320671 
L 128.0475 284.856324 
L 128.364545 286.00079 
L 128.681591 281.505577 
L 128.998636 282.450861 
L 129.315682 288.858929 
L 129.632727 288.603115 
L 129.949773 285.704701 
L 130.583864 268.23174 
L 130.900909 268.858831 
L 131.535 279.265071 
L 131.852045 282.39534 
L 132.169091 281.182013 
L 132.486136 281.121359 
L 132.803182 282.301417 
L 133.120227 281.738545 
L 133.437273 283.888666 
L 134.071364 277.946212 
L 134.388409 279.193571 
L 134.705455 279.310477 
L 135.339545 274.959191 
L 135.973636 265.138862 
L 136.290682 266.822642 
L 136.607727 270.817265 
L 136.924773 278.726788 
L 137.241818 280.230713 
L 137.558864 280.324584 
L 137.875909 279.885105 
L 138.192955 278.924268 
L 138.827045 272.843849 
L 139.144091 275.245029 
L 139.461136 279.707605 
L 139.778182 276.439833 
L 140.095227 270.461462 
L 140.412273 274.116306 
L 140.729318 271.552592 
L 141.046364 266.652504 
L 141.363409 266.276331 
L 141.680455 268.465496 
L 141.9975 268.97539 
L 142.314545 272.154721 
L 142.631591 273.444165 
L 142.948636 273.378294 
L 143.265682 266.219572 
L 143.582727 267.135191 
L 143.899773 269.664288 
L 144.216818 275.793221 
L 144.533864 277.005505 
L 145.167955 269.602473 
L 145.485 262.946809 
L 145.802045 262.974439 
L 146.119091 265.810161 
L 146.436136 267.028136 
L 146.753182 269.298928 
L 147.070227 272.930784 
L 147.387273 274.447018 
L 147.704318 272.97316 
L 148.021364 272.745653 
L 148.338409 267.014132 
L 148.655455 264.969342 
L 148.9725 264.58088 
L 149.289545 266.558026 
L 149.606591 265.667978 
L 149.923636 267.61362 
L 150.240682 267.647536 
L 150.557727 267.563935 
L 150.874773 262.73158 
L 151.191818 262.520349 
L 151.508864 265.310817 
L 151.825909 262.315624 
L 152.142955 263.949378 
L 152.46 266.950409 
L 152.777045 267.218373 
L 153.094091 267.862885 
L 153.411136 267.875026 
L 153.728182 266.743927 
L 154.045227 266.131116 
L 154.362273 267.094188 
L 154.679318 264.634784 
L 154.996364 267.559683 
L 155.313409 265.187438 
L 155.630455 264.794798 
L 155.9475 266.000854 
L 156.264545 265.820895 
L 156.581591 263.414839 
L 156.898636 260.007472 
L 157.215682 262.739333 
L 157.532727 264.247652 
L 158.166818 269.145508 
L 159.435 260.946195 
L 159.752045 261.154195 
L 160.069091 257.862377 
L 160.386136 264.066131 
L 160.703182 265.110978 
L 161.020227 264.813995 
L 161.654318 260.628773 
L 161.971364 261.096834 
L 162.288409 262.024085 
L 162.605455 262.375699 
L 162.9225 261.185496 
L 163.873636 267.453321 
L 164.190682 264.82498 
L 164.507727 266.162749 
L 164.824773 266.593532 
L 165.141818 263.61623 
L 165.458864 265.875254 
L 165.775909 265.153228 
L 166.092955 266.115008 
L 166.41 269.020394 
L 166.727045 264.077147 
L 167.044091 266.70453 
L 167.361136 268.009443 
L 167.678182 257.612932 
L 167.995227 257.717226 
L 168.312273 262.691622 
L 168.629318 262.937877 
L 168.946364 261.820231 
L 169.263409 261.912813 
L 169.580455 263.906672 
L 169.8975 261.62848 
L 170.214545 263.701607 
L 170.531591 260.962155 
L 170.848636 261.055711 
L 171.165682 267.504832 
L 172.116818 259.252829 
L 172.433864 257.159296 
L 172.750909 260.569132 
L 173.067955 262.543244 
L 173.385 263.527634 
L 173.702045 259.20691 
L 174.019091 257.933248 
L 174.336136 257.305608 
L 174.653182 257.992977 
L 174.970227 260.678756 
L 175.287273 260.302023 
L 175.604318 254.449829 
L 175.921364 254.682692 
L 176.238409 256.634787 
L 176.555455 259.736599 
L 176.8725 257.799919 
L 177.189545 256.98537 
L 177.506591 251.995302 
L 177.823636 250.203307 
L 178.140682 253.927878 
L 178.457727 261.341443 
L 178.774773 260.361904 
L 179.091818 259.973553 
L 179.408864 256.769587 
L 179.725909 255.335178 
L 180.042955 256.263314 
L 180.36 255.816589 
L 180.677045 256.603448 
L 180.994091 261.824637 
L 181.311136 264.598238 
L 181.628182 257.052508 
L 181.945227 257.582903 
L 182.579318 260.168195 
L 182.896364 259.501341 
L 183.213409 261.025425 
L 183.8475 257.790959 
L 184.164545 260.161279 
L 184.798636 254.999996 
L 185.432727 257.297106 
L 185.749773 256.44468 
L 186.066818 257.15939 
L 186.383864 260.307789 
L 186.700909 259.161618 
L 187.017955 255.57662 
L 187.335 256.063452 
L 187.969091 259.472428 
L 188.286136 256.092028 
L 188.603182 257.79418 
L 188.920227 255.394655 
L 189.237273 255.230164 
L 189.554318 255.7916 
L 189.871364 252.566276 
L 190.188409 253.076825 
L 190.505455 258.047696 
L 190.8225 259.602442 
L 191.139545 258.757814 
L 191.773636 254.034023 
L 192.407727 246.576762 
L 192.724773 251.33314 
L 193.041818 252.417734 
L 193.675909 258.244985 
L 193.992955 256.833502 
L 194.31 258.123179 
L 194.944091 254.95598 
L 195.578182 246.867341 
L 195.895227 253.336417 
L 196.212273 254.622809 
L 196.529318 253.763029 
L 196.846364 254.600769 
L 197.163409 255.756249 
L 197.7975 253.112248 
L 198.431591 260.497228 
L 198.748636 254.555629 
L 199.065682 251.422266 
L 199.382727 253.229695 
L 199.699773 250.81342 
L 200.016818 252.399084 
L 200.333864 257.853017 
L 200.650909 252.724731 
L 200.967955 252.917667 
L 201.602045 256.496277 
L 201.919091 257.589282 
L 202.236136 256.957922 
L 202.553182 258.012807 
L 202.870227 251.710526 
L 203.187273 250.443488 
L 203.504318 250.966673 
L 203.821364 249.708934 
L 204.138409 251.369808 
L 204.455455 251.446122 
L 204.7725 255.4881 
L 205.089545 255.493467 
L 205.406591 254.547817 
L 205.723636 251.607432 
L 206.357727 254.606174 
L 206.674773 253.016276 
L 206.991818 250.694197 
L 207.308864 249.281361 
L 207.625909 254.109986 
L 207.942955 254.329284 
L 208.26 250.692301 
L 208.577045 254.245398 
L 208.894091 254.427296 
L 209.528182 249.25153 
L 209.845227 249.082611 
L 210.162273 251.715835 
L 210.479318 251.214494 
L 210.796364 252.240024 
L 211.113409 252.614189 
L 211.430455 250.37886 
L 211.7475 245.807834 
L 212.381591 254.259942 
L 212.698636 251.468018 
L 213.332727 257.078956 
L 213.649773 255.944929 
L 214.283864 249.057295 
L 214.600909 247.906244 
L 215.552045 255.645959 
L 215.869091 250.449241 
L 216.186136 248.22366 
L 216.820227 256.042978 
L 217.137273 255.591464 
L 217.454318 251.829376 
L 217.771364 251.692517 
L 218.088409 253.510924 
L 218.405455 253.025826 
L 219.039545 247.626839 
L 219.356591 252.168772 
L 219.673636 254.758528 
L 219.990682 254.648734 
L 220.307727 254.025031 
L 220.624773 255.924279 
L 220.941818 256.885084 
L 221.258864 250.280412 
L 221.575909 249.112411 
L 221.892955 246.560951 
L 222.527045 246.727475 
L 222.844091 247.702879 
L 223.478182 252.902367 
L 224.112273 249.810807 
L 224.429318 251.827031 
L 225.063409 257.515191 
L 225.380455 255.67978 
L 225.6975 250.91059 
L 226.014545 250.97477 
L 226.331591 251.28186 
L 226.965682 249.747374 
L 227.599773 240.889806 
L 228.233864 254.677125 
L 229.185 233.839254 
L 229.502045 163.511619 
L 229.819091 156.487814 
L 230.136136 219.698713 
L 230.453182 243.891712 
L 231.087273 250.747244 
L 231.404318 249.227904 
L 231.721364 250.299148 
L 232.038409 247.245659 
L 232.6725 253.230919 
L 233.306591 246.057517 
L 233.623636 249.250406 
L 234.257727 250.333901 
L 234.574773 249.592391 
L 235.208864 245.235092 
L 235.525909 245.302184 
L 235.842955 252.02585 
L 236.16 249.537347 
L 236.794091 248.582776 
L 237.111136 251.702598 
L 237.745227 245.306229 
L 238.062273 249.958132 
L 238.379318 252.020466 
L 239.013409 246.207736 
L 239.330455 248.747836 
L 239.6475 248.444843 
L 239.964545 249.280671 
L 240.598636 242.642796 
L 240.915682 243.974418 
L 241.549773 253.299652 
L 241.866818 247.606923 
L 242.183864 245.726768 
L 242.500909 247.899717 
L 242.817955 248.313698 
L 243.135 250.675991 
L 243.452045 248.72646 
L 243.769091 251.676751 
L 244.086136 249.200996 
L 244.403182 244.86441 
L 244.720227 252.243951 
L 245.037273 249.633312 
L 245.354318 245.062737 
L 245.671364 244.788355 
L 246.305455 249.873008 
L 246.6225 248.474319 
L 246.939545 253.407654 
L 247.256591 249.171565 
L 247.573636 249.592548 
L 247.890682 253.490807 
L 248.207727 252.494013 
L 248.524773 249.160232 
L 248.841818 249.393164 
L 249.158864 245.749583 
L 249.475909 249.014148 
L 249.792955 250.743612 
L 250.11 246.521966 
L 250.427045 244.499667 
L 250.744091 246.073339 
L 251.061136 246.605243 
L 251.378182 246.617988 
L 252.012273 245.806827 
L 252.329318 247.317967 
L 252.646364 250.312557 
L 253.280455 244.165122 
L 253.5975 241.072646 
L 253.914545 242.006144 
L 254.548636 245.875255 
L 254.865682 243.738258 
L 255.499773 250.604591 
L 255.816818 252.826854 
L 256.133864 251.951694 
L 256.450909 250.536265 
L 256.767955 251.722193 
L 257.085 253.700769 
L 257.719091 248.114257 
L 258.036136 248.18811 
L 258.670227 252.335337 
L 258.987273 249.447571 
L 259.304318 249.234143 
L 259.621364 246.971993 
L 259.938409 250.368841 
L 260.5725 243.256569 
L 260.889545 246.655437 
L 261.523636 243.87188 
L 261.840682 243.065864 
L 262.474773 252.259998 
L 263.108864 244.732954 
L 263.425909 242.679525 
L 263.742955 245.340653 
L 264.06 246.934341 
L 264.377045 247.440947 
L 264.694091 251.266693 
L 265.011136 251.086253 
L 265.328182 248.659385 
L 265.645227 247.443746 
L 265.962273 249.880031 
L 266.279318 254.900913 
L 266.596364 251.831222 
L 266.913409 244.89531 
L 267.230455 247.098054 
L 267.5475 244.998323 
L 267.864545 245.440713 
L 268.181591 246.155924 
L 268.498636 247.34566 
L 268.815682 244.912537 
L 269.132727 243.870497 
L 269.449773 245.89095 
L 269.766818 252.63633 
L 270.083864 247.689471 
L 270.400909 245.385157 
L 270.717955 249.101461 
L 271.035 249.263023 
L 271.352045 250.419614 
L 271.669091 243.756509 
L 271.986136 243.926328 
L 272.303182 245.655661 
L 272.620227 244.928867 
L 272.937273 248.275794 
L 273.254318 246.366611 
L 273.571364 247.818562 
L 273.888409 247.687337 
L 274.205455 246.513718 
L 274.5225 251.327839 
L 274.839545 250.215691 
L 275.156591 249.784235 
L 275.473636 252.267011 
L 275.790682 247.67355 
L 276.424773 243.633046 
L 276.741818 244.994943 
L 277.058864 248.913843 
L 277.375909 247.234501 
L 277.692955 248.673734 
L 278.01 255.964573 
L 278.327045 255.206136 
L 278.644091 246.615232 
L 278.961136 244.804169 
L 279.278182 241.930873 
L 280.229318 250.272362 
L 280.546364 251.183921 
L 280.863409 245.623956 
L 281.4975 248.486889 
L 281.814545 248.520141 
L 282.131591 251.727491 
L 282.448636 250.904289 
L 282.765682 245.704437 
L 283.082727 242.914655 
L 283.399773 244.77019 
L 283.716818 245.854859 
L 284.033864 247.82334 
L 284.350909 247.237461 
L 284.985 239.172597 
L 285.302045 244.741111 
L 285.936136 248.872946 
L 286.253182 250.404534 
L 286.570227 250.491407 
L 287.204318 243.634602 
L 287.521364 244.029208 
L 287.838409 239.883419 
L 288.155455 241.402422 
L 288.4725 245.125562 
L 288.789545 245.578327 
L 289.106591 245.526048 
L 289.740682 242.378315 
L 290.057727 242.387512 
L 290.374773 242.195548 
L 290.691818 243.026085 
L 291.008864 244.876342 
L 291.325909 242.214855 
L 291.96 247.418118 
L 292.277045 247.161473 
L 292.594091 245.352292 
L 292.911136 245.640479 
L 293.228182 249.920745 
L 293.545227 247.657818 
L 293.862273 241.30057 
L 294.179318 238.459803 
L 294.813409 248.520332 
L 295.4475 251.907223 
L 295.764545 250.729198 
L 296.081591 242.413281 
L 296.715682 250.32743 
L 297.349773 248.704062 
L 297.666818 245.825428 
L 297.983864 247.498626 
L 298.300909 246.659512 
L 298.617955 244.401171 
L 298.935 245.755981 
L 299.252045 250.122581 
L 299.569091 250.695966 
L 299.886136 244.50655 
L 300.520227 248.157295 
L 300.837273 247.734286 
L 301.154318 249.246132 
L 301.471364 247.649842 
L 301.788409 247.290153 
L 302.739545 243.085562 
L 303.056591 247.069581 
L 303.373636 254.943999 
L 304.007727 243.485004 
L 304.641818 245.927255 
L 304.958864 246.653973 
L 305.275909 248.467782 
L 305.592955 245.775765 
L 305.91 244.474368 
L 306.544091 246.92116 
L 306.861136 246.062796 
L 307.178182 244.231835 
L 307.495227 244.446656 
L 307.812273 243.337661 
L 308.129318 244.457159 
L 308.446364 244.796781 
L 308.763409 247.88855 
L 309.080455 247.694244 
L 309.3975 246.699257 
L 309.714545 244.941843 
L 310.031591 246.322915 
L 310.348636 249.205025 
L 310.665682 246.506554 
L 311.299773 243.364163 
L 311.616818 242.978236 
L 311.933864 246.542163 
L 312.250909 244.552938 
L 312.567955 245.416037 
L 312.885 241.493072 
L 313.202045 243.54659 
L 313.519091 246.924923 
L 313.836136 246.608347 
L 314.153182 244.831774 
L 314.470227 247.069833 
L 314.787273 243.955516 
L 315.104318 244.01524 
L 315.421364 246.769122 
L 315.738409 245.943282 
L 316.055455 248.915088 
L 316.3725 246.249835 
L 316.689545 246.3039 
L 317.006591 244.046549 
L 317.323636 240.426113 
L 317.640682 241.587259 
L 317.957727 249.019079 
L 318.274773 244.800669 
L 318.591818 244.936603 
L 318.908864 248.01427 
L 319.225909 246.83269 
L 319.542955 249.576898 
L 319.86 248.285596 
L 320.177045 244.089388 
L 320.494091 246.810027 
L 320.811136 245.541454 
L 321.128182 242.257484 
L 321.445227 242.504602 
L 321.762273 244.196547 
L 322.079318 245.276526 
L 322.396364 245.914962 
L 322.713409 243.544455 
L 323.030455 244.099473 
L 323.3475 245.141199 
L 323.981591 248.841782 
L 324.298636 246.532856 
L 324.615682 245.742677 
L 324.932727 243.289896 
L 325.249773 244.152955 
L 325.566818 246.743322 
L 325.883864 244.687454 
L 326.200909 243.922895 
L 326.517955 241.335712 
L 326.835 245.35944 
L 327.152045 247.173822 
L 327.469091 244.940923 
L 327.786136 246.650802 
L 328.103182 245.863195 
L 328.420227 245.5902 
L 328.737273 247.134185 
L 329.054318 247.494419 
L 330.005455 253.263435 
L 330.639545 246.364826 
L 330.956591 243.124492 
L 331.590682 243.541297 
L 331.907727 243.264903 
L 332.224773 246.343591 
L 332.541818 241.112881 
L 332.858864 239.238534 
L 333.175909 243.325842 
L 333.492955 241.799137 
L 333.81 237.115974 
L 334.444091 247.204292 
L 334.761136 247.016152 
L 335.078182 248.722276 
L 335.395227 244.632471 
L 335.712273 244.284911 
L 336.029318 248.304336 
L 336.346364 243.185251 
L 336.663409 243.341674 
L 336.980455 247.724075 
L 337.2975 243.008298 
L 337.614545 246.511954 
L 337.931591 254.727915 
L 338.248636 251.472213 
L 338.565682 245.584276 
L 338.882727 247.367533 
L 339.199773 245.79797 
L 339.516818 244.821353 
L 339.833864 246.42545 
L 340.150909 246.543778 
L 340.467955 249.555901 
L 341.102045 246.401046 
L 341.419091 248.487886 
L 341.736136 248.775512 
L 342.053182 247.439879 
L 342.370227 247.725277 
L 342.687273 245.961446 
L 343.004318 249.47705 
L 343.321364 249.817619 
L 343.638409 248.84145 
L 343.955455 251.154235 
L 344.2725 249.642166 
L 344.589545 254.423688 
L 344.906591 253.157181 
L 345.223636 253.979429 
L 345.540682 253.65461 
L 345.857727 253.623374 
L 346.174773 247.858365 
L 346.491818 248.133203 
L 346.808864 253.229972 
L 347.125909 252.974913 
L 347.442955 250.510355 
L 347.76 250.785616 
L 348.394091 255.315463 
L 348.711136 259.647384 
L 349.028182 259.494108 
L 349.345227 254.325928 
L 349.662273 254.4311 
L 349.979318 253.457025 
L 350.296364 257.794606 
L 350.613409 260.30726 
L 350.930455 257.707153 
L 351.2475 256.737115 
L 351.564545 258.352844 
L 351.881591 257.509523 
L 352.198636 255.112903 
L 352.515682 254.115253 
L 352.832727 259.725908 
L 353.149773 261.68214 
L 353.466818 262.081374 
L 353.783864 259.489586 
L 354.100909 260.418041 
L 354.417955 265.050578 
L 354.735 264.9041 
L 355.052045 269.025984 
L 355.686136 262.877495 
L 356.320227 263.197128 
L 356.637273 264.178868 
L 356.954318 262.799756 
L 357.271364 262.27853 
L 357.588409 271.119386 
L 358.2225 271.37017 
L 358.539545 274.75318 
L 358.856591 273.689758 
L 359.173636 274.249877 
L 359.490682 272.589894 
L 359.807727 271.661813 
L 360.124773 267.771773 
L 360.441818 271.011154 
L 360.758864 272.167661 
L 361.075909 269.946882 
L 361.392955 270.39793 
L 361.71 275.709679 
L 362.027045 273.343649 
L 362.661136 282.115535 
L 362.978182 276.761071 
L 363.295227 273.647865 
L 363.612273 274.267998 
L 363.929318 272.54322 
L 364.246364 277.22058 
L 364.563409 278.643674 
L 364.880455 273.642795 
L 365.1975 274.622245 
L 366.148636 284.243151 
L 366.465682 283.05641 
L 366.782727 282.340145 
L 367.099773 286.050522 
L 367.416818 283.746103 
L 367.733864 283.728789 
L 368.050909 286.36255 
L 368.367955 287.669867 
L 368.685 289.912103 
L 369.002045 289.816817 
L 369.636136 284.902891 
L 369.953182 284.397493 
L 370.270227 285.113856 
L 370.587273 284.69023 
L 370.904318 289.72593 
L 371.221364 292.591705 
L 371.538409 293.829134 
L 371.855455 296.331195 
L 372.1725 293.253756 
L 372.489545 295.541233 
L 372.806591 293.505872 
L 373.123636 293.818881 
L 373.440682 293.83797 
L 373.757727 294.336581 
L 374.074773 299.834342 
L 374.391818 297.794749 
L 374.708864 299.668897 
L 375.025909 298.312195 
L 375.342955 301.98808 
L 375.977045 304.568029 
L 376.294091 302.085182 
L 376.611136 306.480288 
L 376.928182 306.048496 
L 377.245227 304.162883 
L 377.879318 309.135667 
L 378.196364 310.209493 
L 378.513409 311.988928 
L 378.830455 310.951395 
L 379.1475 310.944411 
L 379.464545 310.691305 
L 379.781591 310.752481 
L 380.098636 313.410009 
L 380.732727 308.3848 
L 381.049773 307.478253 
L 382.000909 311.376255 
L 382.317955 315.845557 
L 382.635 316.68195 
L 382.952045 316.683606 
L 383.269091 316.091411 
L 383.586136 316.3127 
L 383.903182 318.64759 
L 384.220227 316.26767 
L 384.537273 316.323792 
L 384.854318 318.619371 
L 385.171364 317.604344 
L 385.488409 319.238898 
L 385.805455 318.85035 
L 386.1225 315.441599 
L 386.756591 318.762559 
L 387.073636 319.056858 
L 387.390682 317.269606 
L 387.707727 319.400169 
L 388.024773 322.626737 
L 388.341818 323.151516 
L 388.658864 326.380943 
L 388.975909 324.731982 
L 389.292955 327.791899 
L 389.61 327.754431 
L 389.927045 327.875061 
L 390.244091 326.509721 
L 390.561136 326.804848 
L 390.878182 327.431536 
L 391.195227 327.043596 
L 391.512273 329.311838 
L 391.829318 330.36085 
L 392.146364 330.472667 
L 392.780455 336.594419 
L 393.0975 335.275365 
L 393.414545 334.566859 
L 393.731591 330.598361 
L 394.048636 330.314756 
L 394.365682 331.217565 
L 394.682727 333.092509 
L 394.999773 332.934728 
L 395.316818 328.845417 
L 395.950909 336.433904 
L 396.585 332.345511 
L 396.902045 333.315167 
L 397.219091 331.033968 
L 397.536136 331.161922 
L 397.853182 336.595242 
L 398.170227 336.236564 
L 398.327789 346.6 
L 398.327789 346.6 
" clip-path="url(#pba23f67e1f)" style="fill: none; stroke: #1f77b4; stroke-width: 1.5; stroke-linecap: square"/>
   </g>
   <g id="patch_3">
    <path d="M 57.6 307.584 
L 57.6 41.472 
" style="fill: none; stroke: #000000; stroke-width: 0.8; stroke-linejoin: miter; stroke-linecap: square"/>
   </g>
   <g id="patch_4">
    <path d="M 414.72 307.584 
L 414.72 41.472 
" style="fill: none; stroke: #000000; stroke-width: 0.8; stroke-linejoin: miter; stroke-linecap: square"/>
   </g>
   <g id="patch_5">
    <path d="M 57.6 307.584 
L 414.72 307.584 
" style="fill: none; stroke: #000000; stroke-width: 0.8; stroke-linejoin: miter; stroke-linecap: square"/>
   </g>
   <g id="patch_6">
    <path d="M 57.6 41.472 
L 414.72 41.472 
" style="fill: none; stroke: #000000; stroke-width: 0.8; stroke-linejoin: miter; stroke-linecap: square"/>
   </g>
   <g id="text_15">
    <!-- Power Spektrum des EEG Signals von Kanal T4-A2 -->
    <g transform="translate(85.898438 35.472) scale(0.12 -0.12)">
     <defs>
      <path id="DejaVuSans-50" d="M 1259 4147 
L 1259 2394 
L 2053 2394 
Q 2494 2394 2734 2622 
Q 2975 2850 2975 3272 
Q 2975 3691 2734 3919 
Q 2494 4147 2053 4147 
L 1259 4147 
z
M 628 4666 
L 2053 4666 
Q 2838 4666 3239 4311 
Q 3641 3956 3641 3272 
Q 3641 2581 3239 2228 
Q 2838 1875 2053 1875 
L 1259 1875 
L 1259 0 
L 628 0 
L 628 4666 
z
" transform="scale(0.015625)"/>
      <path id="DejaVuSans-6f" d="M 1959 3097 
Q 1497 3097 1228 2736 
Q 959 2375 959 1747 
Q 959 1119 1226 758 
Q 1494 397 1959 397 
Q 2419 397 2687 759 
Q 2956 1122 2956 1747 
Q 2956 2369 2687 2733 
Q 2419 3097 1959 3097 
z
M 1959 3584 
Q 2709 3584 3137 3096 
Q 3566 2609 3566 1747 
Q 3566 888 3137 398 
Q 2709 -91 1959 -91 
Q 1206 -91 779 398 
Q 353 888 353 1747 
Q 353 2609 779 3096 
Q 1206 3584 1959 3584 
z
" transform="scale(0.015625)"/>
      <path id="DejaVuSans-77" d="M 269 3500 
L 844 3500 
L 1563 769 
L 2278 3500 
L 2956 3500 
L 3675 769 
L 4391 3500 
L 4966 3500 
L 4050 0 
L 3372 0 
L 2619 2869 
L 1863 0 
L 1184 0 
L 269 3500 
z
" transform="scale(0.015625)"/>
      <path id="DejaVuSans-53" d="M 3425 4513 
L 3425 3897 
Q 3066 4069 2747 4153 
Q 2428 4238 2131 4238 
Q 1616 4238 1336 4038 
Q 1056 3838 1056 3469 
Q 1056 3159 1242 3001 
Q 1428 2844 1947 2747 
L 2328 2669 
Q 3034 2534 3370 2195 
Q 3706 1856 3706 1288 
Q 3706 609 3251 259 
Q 2797 -91 1919 -91 
Q 1588 -91 1214 -16 
Q 841 59 441 206 
L 441 856 
Q 825 641 1194 531 
Q 1563 422 1919 422 
Q 2459 422 2753 634 
Q 3047 847 3047 1241 
Q 3047 1584 2836 1778 
Q 2625 1972 2144 2069 
L 1759 2144 
Q 1053 2284 737 2584 
Q 422 2884 422 3419 
Q 422 4038 858 4394 
Q 1294 4750 2059 4750 
Q 2388 4750 2728 4690 
Q 3069 4631 3425 4513 
z
" transform="scale(0.015625)"/>
      <path id="DejaVuSans-70" d="M 1159 525 
L 1159 -1331 
L 581 -1331 
L 581 3500 
L 1159 3500 
L 1159 2969 
Q 1341 3281 1617 3432 
Q 1894 3584 2278 3584 
Q 2916 3584 3314 3078 
Q 3713 2572 3713 1747 
Q 3713 922 3314 415 
Q 2916 -91 2278 -91 
Q 1894 -91 1617 61 
Q 1341 213 1159 525 
z
M 3116 1747 
Q 3116 2381 2855 2742 
Q 2594 3103 2138 3103 
Q 1681 3103 1420 2742 
Q 1159 2381 1159 1747 
Q 1159 1113 1420 752 
Q 1681 391 2138 391 
Q 2594 391 2855 752 
Q 3116 1113 3116 1747 
z
" transform="scale(0.015625)"/>
      <path id="DejaVuSans-6b" d="M 581 4863 
L 1159 4863 
L 1159 1991 
L 2875 3500 
L 3609 3500 
L 1753 1863 
L 3688 0 
L 2938 0 
L 1159 1709 
L 1159 0 
L 581 0 
L 581 4863 
z
" transform="scale(0.015625)"/>
      <path id="DejaVuSans-6d" d="M 3328 2828 
Q 3544 3216 3844 3400 
Q 4144 3584 4550 3584 
Q 5097 3584 5394 3201 
Q 5691 2819 5691 2113 
L 5691 0 
L 5113 0 
L 5113 2094 
Q 5113 2597 4934 2840 
Q 4756 3084 4391 3084 
Q 3944 3084 3684 2787 
Q 3425 2491 3425 1978 
L 3425 0 
L 2847 0 
L 2847 2094 
Q 2847 2600 2669 2842 
Q 2491 3084 2119 3084 
Q 1678 3084 1418 2786 
Q 1159 2488 1159 1978 
L 1159 0 
L 581 0 
L 581 3500 
L 1159 3500 
L 1159 2956 
Q 1356 3278 1631 3431 
Q 1906 3584 2284 3584 
Q 2666 3584 2933 3390 
Q 3200 3197 3328 2828 
z
" transform="scale(0.015625)"/>
      <path id="DejaVuSans-64" d="M 2906 2969 
L 2906 4863 
L 3481 4863 
L 3481 0 
L 2906 0 
L 2906 525 
Q 2725 213 2448 61 
Q 2172 -91 1784 -91 
Q 1150 -91 751 415 
Q 353 922 353 1747 
Q 353 2572 751 3078 
Q 1150 3584 1784 3584 
Q 2172 3584 2448 3432 
Q 2725 3281 2906 2969 
z
M 947 1747 
Q 947 1113 1208 752 
Q 1469 391 1925 391 
Q 2381 391 2643 752 
Q 2906 1113 2906 1747 
Q 2906 2381 2643 2742 
Q 2381 3103 1925 3103 
Q 1469 3103 1208 2742 
Q 947 2381 947 1747 
z
" transform="scale(0.015625)"/>
      <path id="DejaVuSans-45" d="M 628 4666 
L 3578 4666 
L 3578 4134 
L 1259 4134 
L 1259 2753 
L 3481 2753 
L 3481 2222 
L 1259 2222 
L 1259 531 
L 3634 531 
L 3634 0 
L 628 0 
L 628 4666 
z
" transform="scale(0.015625)"/>
      <path id="DejaVuSans-47" d="M 3809 666 
L 3809 1919 
L 2778 1919 
L 2778 2438 
L 4434 2438 
L 4434 434 
Q 4069 175 3628 42 
Q 3188 -91 2688 -91 
Q 1594 -91 976 548 
Q 359 1188 359 2328 
Q 359 3472 976 4111 
Q 1594 4750 2688 4750 
Q 3144 4750 3555 4637 
Q 3966 4525 4313 4306 
L 4313 3634 
Q 3963 3931 3569 4081 
Q 3175 4231 2741 4231 
Q 1884 4231 1454 3753 
Q 1025 3275 1025 2328 
Q 1025 1384 1454 906 
Q 1884 428 2741 428 
Q 3075 428 3337 486 
Q 3600 544 3809 666 
z
" transform="scale(0.015625)"/>
      <path id="DejaVuSans-61" d="M 2194 1759 
Q 1497 1759 1228 1600 
Q 959 1441 959 1056 
Q 959 750 1161 570 
Q 1363 391 1709 391 
Q 2188 391 2477 730 
Q 2766 1069 2766 1631 
L 2766 1759 
L 2194 1759 
z
M 3341 1997 
L 3341 0 
L 2766 0 
L 2766 531 
Q 2569 213 2275 61 
Q 1981 -91 1556 -91 
Q 1019 -91 701 211 
Q 384 513 384 1019 
Q 384 1609 779 1909 
Q 1175 2209 1959 2209 
L 2766 2209 
L 2766 2266 
Q 2766 2663 2505 2880 
Q 2244 3097 1772 3097 
Q 1472 3097 1187 3025 
Q 903 2953 641 2809 
L 641 3341 
Q 956 3463 1253 3523 
Q 1550 3584 1831 3584 
Q 2591 3584 2966 3190 
Q 3341 2797 3341 1997 
z
" transform="scale(0.015625)"/>
      <path id="DejaVuSans-6c" d="M 603 4863 
L 1178 4863 
L 1178 0 
L 603 0 
L 603 4863 
z
" transform="scale(0.015625)"/>
      <path id="DejaVuSans-76" d="M 191 3500 
L 800 3500 
L 1894 563 
L 2988 3500 
L 3597 3500 
L 2284 0 
L 1503 0 
L 191 3500 
z
" transform="scale(0.015625)"/>
      <path id="DejaVuSans-4b" d="M 628 4666 
L 1259 4666 
L 1259 2694 
L 3353 4666 
L 4166 4666 
L 1850 2491 
L 4331 0 
L 3500 0 
L 1259 2247 
L 1259 0 
L 628 0 
L 628 4666 
z
" transform="scale(0.015625)"/>
      <path id="DejaVuSans-54" d="M -19 4666 
L 3928 4666 
L 3928 4134 
L 2272 4134 
L 2272 0 
L 1638 0 
L 1638 4134 
L -19 4134 
L -19 4666 
z
" transform="scale(0.015625)"/>
      <path id="DejaVuSans-2d" d="M 313 2009 
L 1997 2009 
L 1997 1497 
L 313 1497 
L 313 2009 
z
" transform="scale(0.015625)"/>
      <path id="DejaVuSans-41" d="M 2188 4044 
L 1331 1722 
L 3047 1722 
L 2188 4044 
z
M 1831 4666 
L 2547 4666 
L 4325 0 
L 3669 0 
L 3244 1197 
L 1141 1197 
L 716 0 
L 50 0 
L 1831 4666 
z
" transform="scale(0.015625)"/>
     </defs>
     <use xlink:href="#DejaVuSans-50"/>
     <use xlink:href="#DejaVuSans-6f" transform="translate(56.677734 0)"/>
     <use xlink:href="#DejaVuSans-77" transform="translate(117.859375 0)"/>
     <use xlink:href="#DejaVuSans-65" transform="translate(199.646484 0)"/>
     <use xlink:href="#DejaVuSans-72" transform="translate(261.169922 0)"/>
     <use xlink:href="#DejaVuSans-20" transform="translate(302.283203 0)"/>
     <use xlink:href="#DejaVuSans-53" transform="translate(334.070312 0)"/>
     <use xlink:href="#DejaVuSans-70" transform="translate(397.546875 0)"/>
     <use xlink:href="#DejaVuSans-65" transform="translate(461.023438 0)"/>
     <use xlink:href="#DejaVuSans-6b" transform="translate(522.546875 0)"/>
     <use xlink:href="#DejaVuSans-74" transform="translate(580.457031 0)"/>
     <use xlink:href="#DejaVuSans-72" transform="translate(619.666016 0)"/>
     <use xlink:href="#DejaVuSans-75" transform="translate(660.779297 0)"/>
     <use xlink:href="#DejaVuSans-6d" transform="translate(724.158203 0)"/>
     <use xlink:href="#DejaVuSans-20" transform="translate(821.570312 0)"/>
     <use xlink:href="#DejaVuSans-64" transform="translate(853.357422 0)"/>
     <use xlink:href="#DejaVuSans-65" transform="translate(916.833984 0)"/>
     <use xlink:href="#DejaVuSans-73" transform="translate(978.357422 0)"/>
     <use xlink:href="#DejaVuSans-20" transform="translate(1030.457031 0)"/>
     <use xlink:href="#DejaVuSans-45" transform="translate(1062.244141 0)"/>
     <use xlink:href="#DejaVuSans-45" transform="translate(1125.427734 0)"/>
     <use xlink:href="#DejaVuSans-47" transform="translate(1188.611328 0)"/>
     <use xlink:href="#DejaVuSans-20" transform="translate(1266.101562 0)"/>
     <use xlink:href="#DejaVuSans-53" transform="translate(1297.888672 0)"/>
     <use xlink:href="#DejaVuSans-69" transform="translate(1361.365234 0)"/>
     <use xlink:href="#DejaVuSans-67" transform="translate(1389.148438 0)"/>
     <use xlink:href="#DejaVuSans-6e" transform="translate(1452.625 0)"/>
     <use xlink:href="#DejaVuSans-61" transform="translate(1516.003906 0)"/>
     <use xlink:href="#DejaVuSans-6c" transform="translate(1577.283203 0)"/>
     <use xlink:href="#DejaVuSans-73" transform="translate(1605.066406 0)"/>
     <use xlink:href="#DejaVuSans-20" transform="translate(1657.166016 0)"/>
     <use xlink:href="#DejaVuSans-76" transform="translate(1688.953125 0)"/>
     <use xlink:href="#DejaVuSans-6f" transform="translate(1748.132812 0)"/>
     <use xlink:href="#DejaVuSans-6e" transform="translate(1809.314453 0)"/>
     <use xlink:href="#DejaVuSans-20" transform="translate(1872.693359 0)"/>
     <use xlink:href="#DejaVuSans-4b" transform="translate(1904.480469 0)"/>
     <use xlink:href="#DejaVuSans-61" transform="translate(1968.306641 0)"/>
     <use xlink:href="#DejaVuSans-6e" transform="translate(2029.585938 0)"/>
     <use xlink:href="#DejaVuSans-61" transform="translate(2092.964844 0)"/>
     <use xlink:href="#DejaVuSans-6c" transform="translate(2154.244141 0)"/>
     <use xlink:href="#DejaVuSans-20" transform="translate(2182.027344 0)"/>
     <use xlink:href="#DejaVuSans-54" transform="translate(2213.814453 0)"/>
     <use xlink:href="#DejaVuSans-34" transform="translate(2274.898438 0)"/>
     <use xlink:href="#DejaVuSans-2d" transform="translate(2338.521484 0)"/>
     <use xlink:href="#DejaVuSans-41" transform="translate(2372.355469 0)"/>
     <use xlink:href="#DejaVuSans-32" transform="translate(2440.763672 0)"/>
    </g>
   </g>
  </g>
 </g>
 <defs>
  <clipPath id="pba23f67e1f">
   <rect x="57.6" y="41.472" width="357.12" height="266.112"/>
  </clipPath>
 </defs>
</svg>
