<?xml version="1.0" encoding="utf-8" standalone="no"?>
<!DOCTYPE svg PUBLIC "-//W3C//DTD SVG 1.1//EN"
  "http://www.w3.org/Graphics/SVG/1.1/DTD/svg11.dtd">
<svg xmlns:xlink="http://www.w3.org/1999/xlink" width="460.8pt" height="345.6pt" viewBox="0 0 460.8 345.6" xmlns="http://www.w3.org/2000/svg" version="1.1">
 <metadata>
  <rdf:RDF xmlns:dc="http://purl.org/dc/elements/1.1/" xmlns:cc="http://creativecommons.org/ns#" xmlns:rdf="http://www.w3.org/1999/02/22-rdf-syntax-ns#">
   <cc:Work>
    <dc:type rdf:resource="http://purl.org/dc/dcmitype/StillImage"/>
    <dc:date>2025-11-11T11:44:03.292887</dc:date>
    <dc:format>image/svg+xml</dc:format>
    <dc:creator>
     <cc:Agent>
      <dc:title>Matplotlib v3.10.7, https://matplotlib.org/</dc:title>
     </cc:Agent>
    </dc:creator>
   </cc:Work>
  </rdf:RDF>
 </metadata>
 <defs>
  <style type="text/css">*{stroke-linejoin: round; stroke-linecap: butt}</style>
 </defs>
 <g id="figure_1">
  <g id="patch_1">
   <path d="M 0 345.6 
L 460.8 345.6 
L 460.8 0 
L 0 0 
z
" style="fill: #ffffff"/>
  </g>
  <g id="axes_1">
   <g id="patch_2">
    <path d="M 57.6 307.584 
L 414.72 307.584 
L 414.72 41.472 
L 57.6 41.472 
z
" style="fill: #ffffff"/>
   </g>
   <g id="matplotlib.axis_1">
    <g id="xtick_1">
     <g id="line2d_1">
      <defs>
       <path id="m92eb3d65a0" d="M 0 0 
L 0 3.5 
" style="stroke: #000000; stroke-width: 0.8"/>
      </defs>
      <g>
       <use xlink:href="#m92eb3d65a0" x="73.832727" y="307.584" style="stroke: #000000; stroke-width: 0.8"/>
      </g>
     </g>
     <g id="text_1">
      <!-- 0 -->
      <g transform="translate(70.651477 322.182437) scale(0.1 -0.1)">
       <defs>
        <path id="DejaVuSans-30" d="M 2034 4250 
Q 1547 4250 1301 3770 
Q 1056 3291 1056 2328 
Q 1056 1369 1301 889 
Q 1547 409 2034 409 
Q 2525 409 2770 889 
Q 3016 1369 3016 2328 
Q 3016 3291 2770 3770 
Q 2525 4250 2034 4250 
z
M 2034 4750 
Q 2819 4750 3233 4129 
Q 3647 3509 3647 2328 
Q 3647 1150 3233 529 
Q 2819 -91 2034 -91 
Q 1250 -91 836 529 
Q 422 1150 422 2328 
Q 422 3509 836 4129 
Q 1250 4750 2034 4750 
z
" transform="scale(0.015625)"/>
       </defs>
       <use xlink:href="#DejaVuSans-30"/>
      </g>
     </g>
    </g>
    <g id="xtick_2">
     <g id="line2d_2">
      <g>
       <use xlink:href="#m92eb3d65a0" x="125.777455" y="307.584" style="stroke: #000000; stroke-width: 0.8"/>
      </g>
     </g>
     <g id="text_2">
      <!-- 20 -->
      <g transform="translate(119.414955 322.182437) scale(0.1 -0.1)">
       <defs>
        <path id="DejaVuSans-32" d="M 1228 531 
L 3431 531 
L 3431 0 
L 469 0 
L 469 531 
Q 828 903 1448 1529 
Q 2069 2156 2228 2338 
Q 2531 2678 2651 2914 
Q 2772 3150 2772 3378 
Q 2772 3750 2511 3984 
Q 2250 4219 1831 4219 
Q 1534 4219 1204 4116 
Q 875 4013 500 3803 
L 500 4441 
Q 881 4594 1212 4672 
Q 1544 4750 1819 4750 
Q 2544 4750 2975 4387 
Q 3406 4025 3406 3419 
Q 3406 3131 3298 2873 
Q 3191 2616 2906 2266 
Q 2828 2175 2409 1742 
Q 1991 1309 1228 531 
z
" transform="scale(0.015625)"/>
       </defs>
       <use xlink:href="#DejaVuSans-32"/>
       <use xlink:href="#DejaVuSans-30" transform="translate(63.623047 0)"/>
      </g>
     </g>
    </g>
    <g id="xtick_3">
     <g id="line2d_3">
      <g>
       <use xlink:href="#m92eb3d65a0" x="177.722182" y="307.584" style="stroke: #000000; stroke-width: 0.8"/>
      </g>
     </g>
     <g id="text_3">
      <!-- 40 -->
      <g transform="translate(171.359682 322.182437) scale(0.1 -0.1)">
       <defs>
        <path id="DejaVuSans-34" d="M 2419 4116 
L 825 1625 
L 2419 1625 
L 2419 4116 
z
M 2253 4666 
L 3047 4666 
L 3047 1625 
L 3713 1625 
L 3713 1100 
L 3047 1100 
L 3047 0 
L 2419 0 
L 2419 1100 
L 313 1100 
L 313 1709 
L 2253 4666 
z
" transform="scale(0.015625)"/>
       </defs>
       <use xlink:href="#DejaVuSans-34"/>
       <use xlink:href="#DejaVuSans-30" transform="translate(63.623047 0)"/>
      </g>
     </g>
    </g>
    <g id="xtick_4">
     <g id="line2d_4">
      <g>
       <use xlink:href="#m92eb3d65a0" x="229.666909" y="307.584" style="stroke: #000000; stroke-width: 0.8"/>
      </g>
     </g>
     <g id="text_4">
      <!-- 60 -->
      <g transform="translate(223.304409 322.182437) scale(0.1 -0.1)">
       <defs>
        <path id="DejaVuSans-36" d="M 2113 2584 
Q 1688 2584 1439 2293 
Q 1191 2003 1191 1497 
Q 1191 994 1439 701 
Q 1688 409 2113 409 
Q 2538 409 2786 701 
Q 3034 994 3034 1497 
Q 3034 2003 2786 2293 
Q 2538 2584 2113 2584 
z
M 3366 4563 
L 3366 3988 
Q 3128 4100 2886 4159 
Q 2644 4219 2406 4219 
Q 1781 4219 1451 3797 
Q 1122 3375 1075 2522 
Q 1259 2794 1537 2939 
Q 1816 3084 2150 3084 
Q 2853 3084 3261 2657 
Q 3669 2231 3669 1497 
Q 3669 778 3244 343 
Q 2819 -91 2113 -91 
Q 1303 -91 875 529 
Q 447 1150 447 2328 
Q 447 3434 972 4092 
Q 1497 4750 2381 4750 
Q 2619 4750 2861 4703 
Q 3103 4656 3366 4563 
z
" transform="scale(0.015625)"/>
       </defs>
       <use xlink:href="#DejaVuSans-36"/>
       <use xlink:href="#DejaVuSans-30" transform="translate(63.623047 0)"/>
      </g>
     </g>
    </g>
    <g id="xtick_5">
     <g id="line2d_5">
      <g>
       <use xlink:href="#m92eb3d65a0" x="281.611636" y="307.584" style="stroke: #000000; stroke-width: 0.8"/>
      </g>
     </g>
     <g id="text_5">
      <!-- 80 -->
      <g transform="translate(275.249136 322.182437) scale(0.1 -0.1)">
       <defs>
        <path id="DejaVuSans-38" d="M 2034 2216 
Q 1584 2216 1326 1975 
Q 1069 1734 1069 1313 
Q 1069 891 1326 650 
Q 1584 409 2034 409 
Q 2484 409 2743 651 
Q 3003 894 3003 1313 
Q 3003 1734 2745 1975 
Q 2488 2216 2034 2216 
z
M 1403 2484 
Q 997 2584 770 2862 
Q 544 3141 544 3541 
Q 544 4100 942 4425 
Q 1341 4750 2034 4750 
Q 2731 4750 3128 4425 
Q 3525 4100 3525 3541 
Q 3525 3141 3298 2862 
Q 3072 2584 2669 2484 
Q 3125 2378 3379 2068 
Q 3634 1759 3634 1313 
Q 3634 634 3220 271 
Q 2806 -91 2034 -91 
Q 1263 -91 848 271 
Q 434 634 434 1313 
Q 434 1759 690 2068 
Q 947 2378 1403 2484 
z
M 1172 3481 
Q 1172 3119 1398 2916 
Q 1625 2713 2034 2713 
Q 2441 2713 2670 2916 
Q 2900 3119 2900 3481 
Q 2900 3844 2670 4047 
Q 2441 4250 2034 4250 
Q 1625 4250 1398 4047 
Q 1172 3844 1172 3481 
z
" transform="scale(0.015625)"/>
       </defs>
       <use xlink:href="#DejaVuSans-38"/>
       <use xlink:href="#DejaVuSans-30" transform="translate(63.623047 0)"/>
      </g>
     </g>
    </g>
    <g id="xtick_6">
     <g id="line2d_6">
      <g>
       <use xlink:href="#m92eb3d65a0" x="333.556364" y="307.584" style="stroke: #000000; stroke-width: 0.8"/>
      </g>
     </g>
     <g id="text_6">
      <!-- 100 -->
      <g transform="translate(324.012614 322.182437) scale(0.1 -0.1)">
       <defs>
        <path id="DejaVuSans-31" d="M 794 531 
L 1825 531 
L 1825 4091 
L 703 3866 
L 703 4441 
L 1819 4666 
L 2450 4666 
L 2450 531 
L 3481 531 
L 3481 0 
L 794 0 
L 794 531 
z
" transform="scale(0.015625)"/>
       </defs>
       <use xlink:href="#DejaVuSans-31"/>
       <use xlink:href="#DejaVuSans-30" transform="translate(63.623047 0)"/>
       <use xlink:href="#DejaVuSans-30" transform="translate(127.246094 0)"/>
      </g>
     </g>
    </g>
    <g id="xtick_7">
     <g id="line2d_7">
      <g>
       <use xlink:href="#m92eb3d65a0" x="385.501091" y="307.584" style="stroke: #000000; stroke-width: 0.8"/>
      </g>
     </g>
     <g id="text_7">
      <!-- 120 -->
      <g transform="translate(375.957341 322.182437) scale(0.1 -0.1)">
       <use xlink:href="#DejaVuSans-31"/>
       <use xlink:href="#DejaVuSans-32" transform="translate(63.623047 0)"/>
       <use xlink:href="#DejaVuSans-30" transform="translate(127.246094 0)"/>
      </g>
     </g>
    </g>
    <g id="text_8">
     <!-- Frequenz in Hz -->
     <g transform="translate(199.294375 335.860562) scale(0.1 -0.1)">
      <defs>
       <path id="DejaVuSans-46" d="M 628 4666 
L 3309 4666 
L 3309 4134 
L 1259 4134 
L 1259 2759 
L 3109 2759 
L 3109 2228 
L 1259 2228 
L 1259 0 
L 628 0 
L 628 4666 
z
" transform="scale(0.015625)"/>
       <path id="DejaVuSans-72" d="M 2631 2963 
Q 2534 3019 2420 3045 
Q 2306 3072 2169 3072 
Q 1681 3072 1420 2755 
Q 1159 2438 1159 1844 
L 1159 0 
L 581 0 
L 581 3500 
L 1159 3500 
L 1159 2956 
Q 1341 3275 1631 3429 
Q 1922 3584 2338 3584 
Q 2397 3584 2469 3576 
Q 2541 3569 2628 3553 
L 2631 2963 
z
" transform="scale(0.015625)"/>
       <path id="DejaVuSans-65" d="M 3597 1894 
L 3597 1613 
L 953 1613 
Q 991 1019 1311 708 
Q 1631 397 2203 397 
Q 2534 397 2845 478 
Q 3156 559 3463 722 
L 3463 178 
Q 3153 47 2828 -22 
Q 2503 -91 2169 -91 
Q 1331 -91 842 396 
Q 353 884 353 1716 
Q 353 2575 817 3079 
Q 1281 3584 2069 3584 
Q 2775 3584 3186 3129 
Q 3597 2675 3597 1894 
z
M 3022 2063 
Q 3016 2534 2758 2815 
Q 2500 3097 2075 3097 
Q 1594 3097 1305 2825 
Q 1016 2553 972 2059 
L 3022 2063 
z
" transform="scale(0.015625)"/>
       <path id="DejaVuSans-71" d="M 947 1747 
Q 947 1113 1208 752 
Q 1469 391 1925 391 
Q 2381 391 2643 752 
Q 2906 1113 2906 1747 
Q 2906 2381 2643 2742 
Q 2381 3103 1925 3103 
Q 1469 3103 1208 2742 
Q 947 2381 947 1747 
z
M 2906 525 
Q 2725 213 2448 61 
Q 2172 -91 1784 -91 
Q 1150 -91 751 415 
Q 353 922 353 1747 
Q 353 2572 751 3078 
Q 1150 3584 1784 3584 
Q 2172 3584 2448 3432 
Q 2725 3281 2906 2969 
L 2906 3500 
L 3481 3500 
L 3481 -1331 
L 2906 -1331 
L 2906 525 
z
" transform="scale(0.015625)"/>
       <path id="DejaVuSans-75" d="M 544 1381 
L 544 3500 
L 1119 3500 
L 1119 1403 
Q 1119 906 1312 657 
Q 1506 409 1894 409 
Q 2359 409 2629 706 
Q 2900 1003 2900 1516 
L 2900 3500 
L 3475 3500 
L 3475 0 
L 2900 0 
L 2900 538 
Q 2691 219 2414 64 
Q 2138 -91 1772 -91 
Q 1169 -91 856 284 
Q 544 659 544 1381 
z
M 1991 3584 
L 1991 3584 
z
" transform="scale(0.015625)"/>
       <path id="DejaVuSans-6e" d="M 3513 2113 
L 3513 0 
L 2938 0 
L 2938 2094 
Q 2938 2591 2744 2837 
Q 2550 3084 2163 3084 
Q 1697 3084 1428 2787 
Q 1159 2491 1159 1978 
L 1159 0 
L 581 0 
L 581 3500 
L 1159 3500 
L 1159 2956 
Q 1366 3272 1645 3428 
Q 1925 3584 2291 3584 
Q 2894 3584 3203 3211 
Q 3513 2838 3513 2113 
z
" transform="scale(0.015625)"/>
       <path id="DejaVuSans-7a" d="M 353 3500 
L 3084 3500 
L 3084 2975 
L 922 459 
L 3084 459 
L 3084 0 
L 275 0 
L 275 525 
L 2438 3041 
L 353 3041 
L 353 3500 
z
" transform="scale(0.015625)"/>
       <path id="DejaVuSans-20" transform="scale(0.015625)"/>
       <path id="DejaVuSans-69" d="M 603 3500 
L 1178 3500 
L 1178 0 
L 603 0 
L 603 3500 
z
M 603 4863 
L 1178 4863 
L 1178 4134 
L 603 4134 
L 603 4863 
z
" transform="scale(0.015625)"/>
       <path id="DejaVuSans-48" d="M 628 4666 
L 1259 4666 
L 1259 2753 
L 3553 2753 
L 3553 4666 
L 4184 4666 
L 4184 0 
L 3553 0 
L 3553 2222 
L 1259 2222 
L 1259 0 
L 628 0 
L 628 4666 
z
" transform="scale(0.015625)"/>
      </defs>
      <use xlink:href="#DejaVuSans-46"/>
      <use xlink:href="#DejaVuSans-72" transform="translate(50.269531 0)"/>
      <use xlink:href="#DejaVuSans-65" transform="translate(89.132812 0)"/>
      <use xlink:href="#DejaVuSans-71" transform="translate(150.65625 0)"/>
      <use xlink:href="#DejaVuSans-75" transform="translate(214.132812 0)"/>
      <use xlink:href="#DejaVuSans-65" transform="translate(277.511719 0)"/>
      <use xlink:href="#DejaVuSans-6e" transform="translate(339.035156 0)"/>
      <use xlink:href="#DejaVuSans-7a" transform="translate(402.414062 0)"/>
      <use xlink:href="#DejaVuSans-20" transform="translate(454.904297 0)"/>
      <use xlink:href="#DejaVuSans-69" transform="translate(486.691406 0)"/>
      <use xlink:href="#DejaVuSans-6e" transform="translate(514.474609 0)"/>
      <use xlink:href="#DejaVuSans-20" transform="translate(577.853516 0)"/>
      <use xlink:href="#DejaVuSans-48" transform="translate(609.640625 0)"/>
      <use xlink:href="#DejaVuSans-7a" transform="translate(684.835938 0)"/>
     </g>
    </g>
   </g>
   <g id="matplotlib.axis_2">
    <g id="ytick_1">
     <g id="line2d_8">
      <defs>
       <path id="mbccd328687" d="M 0 0 
L -3.5 0 
" style="stroke: #000000; stroke-width: 0.8"/>
      </defs>
      <g>
       <use xlink:href="#mbccd328687" x="57.6" y="273.75493" style="stroke: #000000; stroke-width: 0.8"/>
      </g>
     </g>
     <g id="text_9">
      <!-- $\mathdefault{10^{-2}}$ -->
      <g transform="translate(27.1 277.554148) scale(0.1 -0.1)">
       <defs>
        <path id="DejaVuSans-2212" d="M 678 2272 
L 4684 2272 
L 4684 1741 
L 678 1741 
L 678 2272 
z
" transform="scale(0.015625)"/>
       </defs>
       <use xlink:href="#DejaVuSans-31" transform="translate(0 0.765625)"/>
       <use xlink:href="#DejaVuSans-30" transform="translate(63.623047 0.765625)"/>
       <use xlink:href="#DejaVuSans-2212" transform="translate(128.203125 39.046875) scale(0.7)"/>
       <use xlink:href="#DejaVuSans-32" transform="translate(186.855469 39.046875) scale(0.7)"/>
      </g>
     </g>
    </g>
    <g id="ytick_2">
     <g id="line2d_9">
      <g>
       <use xlink:href="#mbccd328687" x="57.6" y="226.400942" style="stroke: #000000; stroke-width: 0.8"/>
      </g>
     </g>
     <g id="text_10">
      <!-- $\mathdefault{10^{-1}}$ -->
      <g transform="translate(27.1 230.200161) scale(0.1 -0.1)">
       <use xlink:href="#DejaVuSans-31" transform="translate(0 0.684375)"/>
       <use xlink:href="#DejaVuSans-30" transform="translate(63.623047 0.684375)"/>
       <use xlink:href="#DejaVuSans-2212" transform="translate(128.203125 38.965625) scale(0.7)"/>
       <use xlink:href="#DejaVuSans-31" transform="translate(186.855469 38.965625) scale(0.7)"/>
      </g>
     </g>
    </g>
    <g id="ytick_3">
     <g id="line2d_10">
      <g>
       <use xlink:href="#mbccd328687" x="57.6" y="179.046954" style="stroke: #000000; stroke-width: 0.8"/>
      </g>
     </g>
     <g id="text_11">
      <!-- $\mathdefault{10^{0}}$ -->
      <g transform="translate(33 182.846173) scale(0.1 -0.1)">
       <use xlink:href="#DejaVuSans-31" transform="translate(0 0.765625)"/>
       <use xlink:href="#DejaVuSans-30" transform="translate(63.623047 0.765625)"/>
       <use xlink:href="#DejaVuSans-30" transform="translate(128.203125 39.046875) scale(0.7)"/>
      </g>
     </g>
    </g>
    <g id="ytick_4">
     <g id="line2d_11">
      <g>
       <use xlink:href="#mbccd328687" x="57.6" y="131.692966" style="stroke: #000000; stroke-width: 0.8"/>
      </g>
     </g>
     <g id="text_12">
      <!-- $\mathdefault{10^{1}}$ -->
      <g transform="translate(33 135.492185) scale(0.1 -0.1)">
       <use xlink:href="#DejaVuSans-31" transform="translate(0 0.684375)"/>
       <use xlink:href="#DejaVuSans-30" transform="translate(63.623047 0.684375)"/>
       <use xlink:href="#DejaVuSans-31" transform="translate(128.203125 38.965625) scale(0.7)"/>
      </g>
     </g>
    </g>
    <g id="ytick_5">
     <g id="line2d_12">
      <g>
       <use xlink:href="#mbccd328687" x="57.6" y="84.338978" style="stroke: #000000; stroke-width: 0.8"/>
      </g>
     </g>
     <g id="text_13">
      <!-- $\mathdefault{10^{2}}$ -->
      <g transform="translate(33 88.138197) scale(0.1 -0.1)">
       <use xlink:href="#DejaVuSans-31" transform="translate(0 0.765625)"/>
       <use xlink:href="#DejaVuSans-30" transform="translate(63.623047 0.765625)"/>
       <use xlink:href="#DejaVuSans-32" transform="translate(128.203125 39.046875) scale(0.7)"/>
      </g>
     </g>
    </g>
    <g id="ytick_6">
     <g id="line2d_13">
      <defs>
       <path id="m9642194f0c" d="M 0 0 
L -2 0 
" style="stroke: #000000; stroke-width: 0.6"/>
      </defs>
      <g>
       <use xlink:href="#m9642194f0c" x="57.6" y="306.853947" style="stroke: #000000; stroke-width: 0.6"/>
      </g>
     </g>
    </g>
    <g id="ytick_7">
     <g id="line2d_14">
      <g>
       <use xlink:href="#m9642194f0c" x="57.6" y="298.515323" style="stroke: #000000; stroke-width: 0.6"/>
      </g>
     </g>
    </g>
    <g id="ytick_8">
     <g id="line2d_15">
      <g>
       <use xlink:href="#m9642194f0c" x="57.6" y="292.598976" style="stroke: #000000; stroke-width: 0.6"/>
      </g>
     </g>
    </g>
    <g id="ytick_9">
     <g id="line2d_16">
      <g>
       <use xlink:href="#m9642194f0c" x="57.6" y="288.0099" style="stroke: #000000; stroke-width: 0.6"/>
      </g>
     </g>
    </g>
    <g id="ytick_10">
     <g id="line2d_17">
      <g>
       <use xlink:href="#m9642194f0c" x="57.6" y="284.260353" style="stroke: #000000; stroke-width: 0.6"/>
      </g>
     </g>
    </g>
    <g id="ytick_11">
     <g id="line2d_18">
      <g>
       <use xlink:href="#m9642194f0c" x="57.6" y="281.090155" style="stroke: #000000; stroke-width: 0.6"/>
      </g>
     </g>
    </g>
    <g id="ytick_12">
     <g id="line2d_19">
      <g>
       <use xlink:href="#m9642194f0c" x="57.6" y="278.344005" style="stroke: #000000; stroke-width: 0.6"/>
      </g>
     </g>
    </g>
    <g id="ytick_13">
     <g id="line2d_20">
      <g>
       <use xlink:href="#m9642194f0c" x="57.6" y="275.921729" style="stroke: #000000; stroke-width: 0.6"/>
      </g>
     </g>
    </g>
    <g id="ytick_14">
     <g id="line2d_21">
      <g>
       <use xlink:href="#m9642194f0c" x="57.6" y="259.499959" style="stroke: #000000; stroke-width: 0.6"/>
      </g>
     </g>
    </g>
    <g id="ytick_15">
     <g id="line2d_22">
      <g>
       <use xlink:href="#m9642194f0c" x="57.6" y="251.161336" style="stroke: #000000; stroke-width: 0.6"/>
      </g>
     </g>
    </g>
    <g id="ytick_16">
     <g id="line2d_23">
      <g>
       <use xlink:href="#m9642194f0c" x="57.6" y="245.244988" style="stroke: #000000; stroke-width: 0.6"/>
      </g>
     </g>
    </g>
    <g id="ytick_17">
     <g id="line2d_24">
      <g>
       <use xlink:href="#m9642194f0c" x="57.6" y="240.655913" style="stroke: #000000; stroke-width: 0.6"/>
      </g>
     </g>
    </g>
    <g id="ytick_18">
     <g id="line2d_25">
      <g>
       <use xlink:href="#m9642194f0c" x="57.6" y="236.906365" style="stroke: #000000; stroke-width: 0.6"/>
      </g>
     </g>
    </g>
    <g id="ytick_19">
     <g id="line2d_26">
      <g>
       <use xlink:href="#m9642194f0c" x="57.6" y="233.736167" style="stroke: #000000; stroke-width: 0.6"/>
      </g>
     </g>
    </g>
    <g id="ytick_20">
     <g id="line2d_27">
      <g>
       <use xlink:href="#m9642194f0c" x="57.6" y="230.990017" style="stroke: #000000; stroke-width: 0.6"/>
      </g>
     </g>
    </g>
    <g id="ytick_21">
     <g id="line2d_28">
      <g>
       <use xlink:href="#m9642194f0c" x="57.6" y="228.567741" style="stroke: #000000; stroke-width: 0.6"/>
      </g>
     </g>
    </g>
    <g id="ytick_22">
     <g id="line2d_29">
      <g>
       <use xlink:href="#m9642194f0c" x="57.6" y="212.145971" style="stroke: #000000; stroke-width: 0.6"/>
      </g>
     </g>
    </g>
    <g id="ytick_23">
     <g id="line2d_30">
      <g>
       <use xlink:href="#m9642194f0c" x="57.6" y="203.807348" style="stroke: #000000; stroke-width: 0.6"/>
      </g>
     </g>
    </g>
    <g id="ytick_24">
     <g id="line2d_31">
      <g>
       <use xlink:href="#m9642194f0c" x="57.6" y="197.891" style="stroke: #000000; stroke-width: 0.6"/>
      </g>
     </g>
    </g>
    <g id="ytick_25">
     <g id="line2d_32">
      <g>
       <use xlink:href="#m9642194f0c" x="57.6" y="193.301925" style="stroke: #000000; stroke-width: 0.6"/>
      </g>
     </g>
    </g>
    <g id="ytick_26">
     <g id="line2d_33">
      <g>
       <use xlink:href="#m9642194f0c" x="57.6" y="189.552377" style="stroke: #000000; stroke-width: 0.6"/>
      </g>
     </g>
    </g>
    <g id="ytick_27">
     <g id="line2d_34">
      <g>
       <use xlink:href="#m9642194f0c" x="57.6" y="186.382179" style="stroke: #000000; stroke-width: 0.6"/>
      </g>
     </g>
    </g>
    <g id="ytick_28">
     <g id="line2d_35">
      <g>
       <use xlink:href="#m9642194f0c" x="57.6" y="183.63603" style="stroke: #000000; stroke-width: 0.6"/>
      </g>
     </g>
    </g>
    <g id="ytick_29">
     <g id="line2d_36">
      <g>
       <use xlink:href="#m9642194f0c" x="57.6" y="181.213754" style="stroke: #000000; stroke-width: 0.6"/>
      </g>
     </g>
    </g>
    <g id="ytick_30">
     <g id="line2d_37">
      <g>
       <use xlink:href="#m9642194f0c" x="57.6" y="164.791983" style="stroke: #000000; stroke-width: 0.6"/>
      </g>
     </g>
    </g>
    <g id="ytick_31">
     <g id="line2d_38">
      <g>
       <use xlink:href="#m9642194f0c" x="57.6" y="156.45336" style="stroke: #000000; stroke-width: 0.6"/>
      </g>
     </g>
    </g>
    <g id="ytick_32">
     <g id="line2d_39">
      <g>
       <use xlink:href="#m9642194f0c" x="57.6" y="150.537012" style="stroke: #000000; stroke-width: 0.6"/>
      </g>
     </g>
    </g>
    <g id="ytick_33">
     <g id="line2d_40">
      <g>
       <use xlink:href="#m9642194f0c" x="57.6" y="145.947937" style="stroke: #000000; stroke-width: 0.6"/>
      </g>
     </g>
    </g>
    <g id="ytick_34">
     <g id="line2d_41">
      <g>
       <use xlink:href="#m9642194f0c" x="57.6" y="142.198389" style="stroke: #000000; stroke-width: 0.6"/>
      </g>
     </g>
    </g>
    <g id="ytick_35">
     <g id="line2d_42">
      <g>
       <use xlink:href="#m9642194f0c" x="57.6" y="139.028192" style="stroke: #000000; stroke-width: 0.6"/>
      </g>
     </g>
    </g>
    <g id="ytick_36">
     <g id="line2d_43">
      <g>
       <use xlink:href="#m9642194f0c" x="57.6" y="136.282042" style="stroke: #000000; stroke-width: 0.6"/>
      </g>
     </g>
    </g>
    <g id="ytick_37">
     <g id="line2d_44">
      <g>
       <use xlink:href="#m9642194f0c" x="57.6" y="133.859766" style="stroke: #000000; stroke-width: 0.6"/>
      </g>
     </g>
    </g>
    <g id="ytick_38">
     <g id="line2d_45">
      <g>
       <use xlink:href="#m9642194f0c" x="57.6" y="117.437995" style="stroke: #000000; stroke-width: 0.6"/>
      </g>
     </g>
    </g>
    <g id="ytick_39">
     <g id="line2d_46">
      <g>
       <use xlink:href="#m9642194f0c" x="57.6" y="109.099372" style="stroke: #000000; stroke-width: 0.6"/>
      </g>
     </g>
    </g>
    <g id="ytick_40">
     <g id="line2d_47">
      <g>
       <use xlink:href="#m9642194f0c" x="57.6" y="103.183025" style="stroke: #000000; stroke-width: 0.6"/>
      </g>
     </g>
    </g>
    <g id="ytick_41">
     <g id="line2d_48">
      <g>
       <use xlink:href="#m9642194f0c" x="57.6" y="98.593949" style="stroke: #000000; stroke-width: 0.6"/>
      </g>
     </g>
    </g>
    <g id="ytick_42">
     <g id="line2d_49">
      <g>
       <use xlink:href="#m9642194f0c" x="57.6" y="94.844401" style="stroke: #000000; stroke-width: 0.6"/>
      </g>
     </g>
    </g>
    <g id="ytick_43">
     <g id="line2d_50">
      <g>
       <use xlink:href="#m9642194f0c" x="57.6" y="91.674204" style="stroke: #000000; stroke-width: 0.6"/>
      </g>
     </g>
    </g>
    <g id="ytick_44">
     <g id="line2d_51">
      <g>
       <use xlink:href="#m9642194f0c" x="57.6" y="88.928054" style="stroke: #000000; stroke-width: 0.6"/>
      </g>
     </g>
    </g>
    <g id="ytick_45">
     <g id="line2d_52">
      <g>
       <use xlink:href="#m9642194f0c" x="57.6" y="86.505778" style="stroke: #000000; stroke-width: 0.6"/>
      </g>
     </g>
    </g>
    <g id="ytick_46">
     <g id="line2d_53">
      <g>
       <use xlink:href="#m9642194f0c" x="57.6" y="70.084007" style="stroke: #000000; stroke-width: 0.6"/>
      </g>
     </g>
    </g>
    <g id="ytick_47">
     <g id="line2d_54">
      <g>
       <use xlink:href="#m9642194f0c" x="57.6" y="61.745384" style="stroke: #000000; stroke-width: 0.6"/>
      </g>
     </g>
    </g>
    <g id="ytick_48">
     <g id="line2d_55">
      <g>
       <use xlink:href="#m9642194f0c" x="57.6" y="55.829037" style="stroke: #000000; stroke-width: 0.6"/>
      </g>
     </g>
    </g>
    <g id="ytick_49">
     <g id="line2d_56">
      <g>
       <use xlink:href="#m9642194f0c" x="57.6" y="51.239961" style="stroke: #000000; stroke-width: 0.6"/>
      </g>
     </g>
    </g>
    <g id="ytick_50">
     <g id="line2d_57">
      <g>
       <use xlink:href="#m9642194f0c" x="57.6" y="47.490413" style="stroke: #000000; stroke-width: 0.6"/>
      </g>
     </g>
    </g>
    <g id="ytick_51">
     <g id="line2d_58">
      <g>
       <use xlink:href="#m9642194f0c" x="57.6" y="44.320216" style="stroke: #000000; stroke-width: 0.6"/>
      </g>
     </g>
    </g>
    <g id="ytick_52">
     <g id="line2d_59">
      <g>
       <use xlink:href="#m9642194f0c" x="57.6" y="41.574066" style="stroke: #000000; stroke-width: 0.6"/>
      </g>
     </g>
    </g>
    <g id="text_14">
     <!-- Leistung/Frequenz (V²/Hz) -->
     <g transform="translate(21.020312 239.182687) rotate(-90) scale(0.1 -0.1)">
      <defs>
       <path id="DejaVuSans-4c" d="M 628 4666 
L 1259 4666 
L 1259 531 
L 3531 531 
L 3531 0 
L 628 0 
L 628 4666 
z
" transform="scale(0.015625)"/>
       <path id="DejaVuSans-73" d="M 2834 3397 
L 2834 2853 
Q 2591 2978 2328 3040 
Q 2066 3103 1784 3103 
Q 1356 3103 1142 2972 
Q 928 2841 928 2578 
Q 928 2378 1081 2264 
Q 1234 2150 1697 2047 
L 1894 2003 
Q 2506 1872 2764 1633 
Q 3022 1394 3022 966 
Q 3022 478 2636 193 
Q 2250 -91 1575 -91 
Q 1294 -91 989 -36 
Q 684 19 347 128 
L 347 722 
Q 666 556 975 473 
Q 1284 391 1588 391 
Q 1994 391 2212 530 
Q 2431 669 2431 922 
Q 2431 1156 2273 1281 
Q 2116 1406 1581 1522 
L 1381 1569 
Q 847 1681 609 1914 
Q 372 2147 372 2553 
Q 372 3047 722 3315 
Q 1072 3584 1716 3584 
Q 2034 3584 2315 3537 
Q 2597 3491 2834 3397 
z
" transform="scale(0.015625)"/>
       <path id="DejaVuSans-74" d="M 1172 4494 
L 1172 3500 
L 2356 3500 
L 2356 3053 
L 1172 3053 
L 1172 1153 
Q 1172 725 1289 603 
Q 1406 481 1766 481 
L 2356 481 
L 2356 0 
L 1766 0 
Q 1100 0 847 248 
Q 594 497 594 1153 
L 594 3053 
L 172 3053 
L 172 3500 
L 594 3500 
L 594 4494 
L 1172 4494 
z
" transform="scale(0.015625)"/>
       <path id="DejaVuSans-67" d="M 2906 1791 
Q 2906 2416 2648 2759 
Q 2391 3103 1925 3103 
Q 1463 3103 1205 2759 
Q 947 2416 947 1791 
Q 947 1169 1205 825 
Q 1463 481 1925 481 
Q 2391 481 2648 825 
Q 2906 1169 2906 1791 
z
M 3481 434 
Q 3481 -459 3084 -895 
Q 2688 -1331 1869 -1331 
Q 1566 -1331 1297 -1286 
Q 1028 -1241 775 -1147 
L 775 -588 
Q 1028 -725 1275 -790 
Q 1522 -856 1778 -856 
Q 2344 -856 2625 -561 
Q 2906 -266 2906 331 
L 2906 616 
Q 2728 306 2450 153 
Q 2172 0 1784 0 
Q 1141 0 747 490 
Q 353 981 353 1791 
Q 353 2603 747 3093 
Q 1141 3584 1784 3584 
Q 2172 3584 2450 3431 
Q 2728 3278 2906 2969 
L 2906 3500 
L 3481 3500 
L 3481 434 
z
" transform="scale(0.015625)"/>
       <path id="DejaVuSans-2f" d="M 1625 4666 
L 2156 4666 
L 531 -594 
L 0 -594 
L 1625 4666 
z
" transform="scale(0.015625)"/>
       <path id="DejaVuSans-28" d="M 1984 4856 
Q 1566 4138 1362 3434 
Q 1159 2731 1159 2009 
Q 1159 1288 1364 580 
Q 1569 -128 1984 -844 
L 1484 -844 
Q 1016 -109 783 600 
Q 550 1309 550 2009 
Q 550 2706 781 3412 
Q 1013 4119 1484 4856 
L 1984 4856 
z
" transform="scale(0.015625)"/>
       <path id="DejaVuSans-56" d="M 1831 0 
L 50 4666 
L 709 4666 
L 2188 738 
L 3669 4666 
L 4325 4666 
L 2547 0 
L 1831 0 
z
" transform="scale(0.015625)"/>
       <path id="DejaVuSans-b2" d="M 838 2444 
L 2163 2444 
L 2163 2088 
L 294 2088 
L 294 2431 
Q 400 2528 597 2703 
Q 1672 3656 1672 3950 
Q 1672 4156 1509 4282 
Q 1347 4409 1081 4409 
Q 919 4409 728 4354 
Q 538 4300 313 4191 
L 313 4575 
Q 553 4663 761 4706 
Q 969 4750 1147 4750 
Q 1600 4750 1872 4544 
Q 2144 4338 2144 4000 
Q 2144 3566 1109 2678 
Q 934 2528 838 2444 
z
" transform="scale(0.015625)"/>
       <path id="DejaVuSans-29" d="M 513 4856 
L 1013 4856 
Q 1481 4119 1714 3412 
Q 1947 2706 1947 2009 
Q 1947 1309 1714 600 
Q 1481 -109 1013 -844 
L 513 -844 
Q 928 -128 1133 580 
Q 1338 1288 1338 2009 
Q 1338 2731 1133 3434 
Q 928 4138 513 4856 
z
" transform="scale(0.015625)"/>
      </defs>
      <use xlink:href="#DejaVuSans-4c"/>
      <use xlink:href="#DejaVuSans-65" transform="translate(53.962891 0)"/>
      <use xlink:href="#DejaVuSans-69" transform="translate(115.486328 0)"/>
      <use xlink:href="#DejaVuSans-73" transform="translate(143.269531 0)"/>
      <use xlink:href="#DejaVuSans-74" transform="translate(195.369141 0)"/>
      <use xlink:href="#DejaVuSans-75" transform="translate(234.578125 0)"/>
      <use xlink:href="#DejaVuSans-6e" transform="translate(297.957031 0)"/>
      <use xlink:href="#DejaVuSans-67" transform="translate(361.335938 0)"/>
      <use xlink:href="#DejaVuSans-2f" transform="translate(424.8125 0)"/>
      <use xlink:href="#DejaVuSans-46" transform="translate(458.503906 0)"/>
      <use xlink:href="#DejaVuSans-72" transform="translate(508.773438 0)"/>
      <use xlink:href="#DejaVuSans-65" transform="translate(547.636719 0)"/>
      <use xlink:href="#DejaVuSans-71" transform="translate(609.160156 0)"/>
      <use xlink:href="#DejaVuSans-75" transform="translate(672.636719 0)"/>
      <use xlink:href="#DejaVuSans-65" transform="translate(736.015625 0)"/>
      <use xlink:href="#DejaVuSans-6e" transform="translate(797.539062 0)"/>
      <use xlink:href="#DejaVuSans-7a" transform="translate(860.917969 0)"/>
      <use xlink:href="#DejaVuSans-20" transform="translate(913.408203 0)"/>
      <use xlink:href="#DejaVuSans-28" transform="translate(945.195312 0)"/>
      <use xlink:href="#DejaVuSans-56" transform="translate(984.208984 0)"/>
      <use xlink:href="#DejaVuSans-b2" transform="translate(1052.617188 0)"/>
      <use xlink:href="#DejaVuSans-2f" transform="translate(1092.705078 0)"/>
      <use xlink:href="#DejaVuSans-48" transform="translate(1126.396484 0)"/>
      <use xlink:href="#DejaVuSans-7a" transform="translate(1201.591797 0)"/>
      <use xlink:href="#DejaVuSans-29" transform="translate(1254.082031 0)"/>
     </g>
    </g>
   </g>
   <g id="line2d_60">
    <path d="M 73.832727 82.176699 
L 74.149773 53.568 
L 74.466818 61.609268 
L 75.100909 96.90191 
L 76.052045 125.123332 
L 76.369091 128.268655 
L 77.003182 138.409269 
L 77.320227 140.945362 
L 77.637273 141.987181 
L 77.954318 143.895739 
L 78.588409 150.084543 
L 79.2225 155.690739 
L 79.539545 157.055559 
L 80.173636 163.543462 
L 80.490682 163.372296 
L 81.124773 169.260794 
L 81.441818 167.912685 
L 81.758864 170.005591 
L 82.075909 172.946333 
L 82.71 176.992518 
L 83.027045 176.490306 
L 83.344091 173.53647 
L 83.661136 175.423481 
L 83.978182 179.191072 
L 84.295227 179.298912 
L 84.612273 180.104078 
L 84.929318 182.472105 
L 85.246364 181.276191 
L 85.563409 182.782745 
L 85.880455 185.548228 
L 86.1975 183.570715 
L 86.514545 183.63079 
L 87.148636 184.770265 
L 87.465682 184.862974 
L 87.782727 186.792068 
L 88.099773 186.597229 
L 88.416818 186.650927 
L 88.733864 185.961352 
L 89.050909 187.657464 
L 89.367955 187.445315 
L 90.002045 183.178889 
L 90.319091 183.553104 
L 90.636136 185.00058 
L 90.953182 184.099283 
L 91.270227 182.503912 
L 91.587273 180.283651 
L 91.904318 179.738267 
L 92.221364 181.182004 
L 92.538409 180.42869 
L 92.855455 178.253064 
L 93.1725 177.266068 
L 93.489545 175.214645 
L 93.806591 174.081075 
L 94.123636 172.256514 
L 94.440682 169.227143 
L 94.757727 168.107678 
L 95.074773 168.916318 
L 95.391818 171.492316 
L 96.025909 165.874915 
L 96.66 165.543181 
L 96.977045 166.177097 
L 97.294091 167.24422 
L 97.611136 167.406001 
L 97.928182 167.163301 
L 98.245227 165.197369 
L 98.562273 164.244674 
L 98.879318 164.519351 
L 99.196364 164.035902 
L 99.830455 160.292179 
L 100.1475 159.904062 
L 100.464545 159.118011 
L 100.781591 161.618337 
L 101.098636 162.900917 
L 101.732727 167.330275 
L 102.049773 168.771242 
L 102.366818 168.84414 
L 103.000909 172.187453 
L 103.317955 171.965729 
L 103.635 173.372708 
L 103.952045 176.28524 
L 104.269091 176.444129 
L 104.586136 177.013075 
L 104.903182 176.194205 
L 105.220227 176.769747 
L 105.537273 177.921661 
L 105.854318 177.95163 
L 106.488409 180.082839 
L 106.805455 179.739017 
L 107.439545 179.772419 
L 107.756591 179.013552 
L 108.073636 179.197863 
L 108.390682 180.340283 
L 108.707727 180.375043 
L 109.024773 182.008667 
L 109.341818 182.726975 
L 109.975909 180.521811 
L 110.292955 183.776414 
L 110.61 182.368334 
L 110.927045 181.814012 
L 111.244091 179.254984 
L 111.561136 181.649592 
L 111.878182 182.407188 
L 112.195227 181.165912 
L 112.512273 181.19609 
L 112.829318 181.935566 
L 113.146364 179.71029 
L 113.463409 178.891657 
L 114.0975 182.476697 
L 114.414545 182.763062 
L 114.731591 183.817652 
L 115.048636 184.469757 
L 115.365682 184.760302 
L 115.682727 183.910866 
L 115.999773 183.547472 
L 116.316818 182.963749 
L 116.633864 183.278132 
L 116.950909 181.369917 
L 117.267955 182.099798 
L 117.585 184.773649 
L 117.902045 185.151108 
L 118.219091 184.870038 
L 118.536136 185.484635 
L 118.853182 185.766356 
L 119.170227 182.63904 
L 119.487273 183.115323 
L 119.804318 185.735049 
L 120.121364 184.397195 
L 120.438409 184.516238 
L 120.755455 184.303235 
L 121.0725 182.597458 
L 121.389545 183.552638 
L 121.706591 183.894951 
L 122.023636 184.480655 
L 122.340682 183.341744 
L 122.657727 183.602798 
L 122.974773 183.469325 
L 123.291818 182.581139 
L 123.608864 185.365242 
L 124.242955 183.780679 
L 124.56 182.954094 
L 124.877045 182.940245 
L 125.194091 183.493255 
L 125.511136 182.788337 
L 125.828182 182.962196 
L 126.145227 182.365745 
L 126.462273 182.705783 
L 126.779318 184.078317 
L 127.096364 183.596762 
L 127.413409 181.407739 
L 127.730455 184.333539 
L 128.0475 182.61533 
L 128.364545 184.133721 
L 128.681591 183.347507 
L 128.998636 184.166322 
L 129.315682 185.760593 
L 129.632727 184.652835 
L 130.266818 186.583585 
L 130.900909 186.08772 
L 131.217955 186.534152 
L 131.535 187.788914 
L 131.852045 186.662062 
L 132.169091 186.543181 
L 132.486136 188.670101 
L 132.803182 184.627425 
L 133.120227 183.950773 
L 133.437273 183.968961 
L 133.754318 186.854513 
L 134.071364 188.191928 
L 134.388409 187.660285 
L 134.705455 186.598804 
L 135.0225 185.994471 
L 135.339545 186.497669 
L 135.973636 184.263852 
L 136.924773 188.134592 
L 137.241818 187.673826 
L 137.558864 187.770228 
L 137.875909 188.876168 
L 138.192955 188.189424 
L 138.827045 186.12919 
L 139.144091 186.397787 
L 139.461136 185.770351 
L 139.778182 185.995225 
L 140.095227 188.401787 
L 140.412273 186.333895 
L 140.729318 185.923233 
L 141.046364 185.128338 
L 141.363409 182.770083 
L 141.9975 184.900468 
L 142.631591 185.484613 
L 142.948636 185.51645 
L 143.582727 184.112807 
L 143.899773 183.04627 
L 144.216818 182.938738 
L 144.533864 181.40795 
L 144.850909 182.238376 
L 145.167955 182.091064 
L 145.485 180.456853 
L 145.802045 179.941797 
L 146.119091 179.710425 
L 146.436136 181.65681 
L 146.753182 182.728356 
L 147.070227 180.773369 
L 147.387273 180.98549 
L 147.704318 183.615416 
L 148.021364 184.597043 
L 148.338409 183.609893 
L 148.655455 183.345745 
L 148.9725 184.012872 
L 149.289545 184.113054 
L 149.606591 182.454751 
L 149.923636 181.454811 
L 150.240682 181.247084 
L 150.557727 180.587733 
L 150.874773 179.548179 
L 151.508864 181.466538 
L 151.825909 181.269576 
L 152.142955 182.421432 
L 152.777045 181.726741 
L 153.094091 183.448344 
L 153.411136 186.137126 
L 153.728182 182.550257 
L 154.362273 181.739255 
L 154.679318 183.039029 
L 154.996364 182.663524 
L 155.630455 183.037606 
L 155.9475 181.445953 
L 156.264545 183.602464 
L 156.581591 183.556477 
L 156.898636 181.736624 
L 157.215682 180.79 
L 157.532727 183.221664 
L 157.849773 182.43927 
L 158.166818 180.354389 
L 158.483864 180.424663 
L 158.800909 182.74726 
L 159.117955 183.523286 
L 159.435 186.530067 
L 159.752045 186.561037 
L 160.069091 185.882127 
L 160.386136 184.606908 
L 160.703182 184.650889 
L 161.020227 183.705197 
L 161.337273 181.50135 
L 161.654318 180.251785 
L 161.971364 180.599199 
L 162.288409 182.571059 
L 162.605455 182.324787 
L 162.9225 179.483412 
L 163.239545 180.920898 
L 163.556591 183.963764 
L 163.873636 183.514824 
L 164.190682 181.842025 
L 164.507727 182.057841 
L 164.824773 182.004416 
L 165.141818 182.381463 
L 165.458864 181.26534 
L 166.092955 183.96016 
L 166.41 183.270971 
L 166.727045 183.971902 
L 167.044091 182.674332 
L 167.361136 182.257854 
L 167.678182 181.313873 
L 167.995227 182.182863 
L 168.312273 180.45079 
L 168.629318 181.43039 
L 168.946364 183.252769 
L 169.263409 183.360688 
L 169.580455 183.102788 
L 169.8975 181.915873 
L 170.214545 181.91407 
L 170.531591 181.537387 
L 170.848636 180.547008 
L 171.165682 182.47701 
L 171.482727 181.158507 
L 171.799773 180.386633 
L 172.116818 180.546408 
L 172.433864 182.583686 
L 172.750909 182.395651 
L 173.067955 183.270669 
L 173.385 182.183189 
L 173.702045 182.13011 
L 174.019091 180.402539 
L 174.336136 179.327107 
L 174.970227 180.951165 
L 175.287273 181.650377 
L 175.604318 183.126672 
L 175.921364 183.772102 
L 176.238409 183.688507 
L 176.555455 180.46751 
L 176.8725 181.453087 
L 177.189545 180.686481 
L 177.506591 180.792468 
L 177.823636 179.864945 
L 178.140682 178.434049 
L 178.457727 179.027436 
L 179.091818 178.260645 
L 179.408864 180.590955 
L 179.725909 179.245259 
L 180.042955 179.241681 
L 180.36 179.575238 
L 180.677045 180.367339 
L 180.994091 178.809588 
L 181.311136 177.993782 
L 181.628182 178.187742 
L 181.945227 180.439268 
L 182.262273 179.837383 
L 182.579318 179.802966 
L 182.896364 180.563007 
L 183.530455 178.31084 
L 183.8475 180.690155 
L 184.164545 181.060732 
L 184.481591 179.275251 
L 184.798636 179.2801 
L 185.115682 178.992601 
L 185.432727 178.44551 
L 185.749773 179.397362 
L 186.066818 180.708758 
L 186.700909 180.338192 
L 187.017955 180.602671 
L 187.652045 177.63881 
L 187.969091 179.01898 
L 188.286136 179.492311 
L 188.603182 179.431958 
L 188.920227 180.418853 
L 189.554318 179.587576 
L 189.871364 180.458525 
L 190.188409 180.217828 
L 190.505455 180.128373 
L 191.139545 179.149843 
L 191.456591 180.054263 
L 191.773636 179.263163 
L 192.090682 179.727319 
L 192.407727 179.536963 
L 192.724773 179.636315 
L 193.041818 180.596924 
L 193.358864 178.359053 
L 193.675909 178.511048 
L 193.992955 176.89896 
L 194.31 175.99744 
L 194.627045 175.845656 
L 194.944091 176.942497 
L 195.578182 180.214959 
L 195.895227 178.535834 
L 196.212273 175.506996 
L 196.846364 178.132208 
L 197.163409 177.811659 
L 197.480455 176.386291 
L 197.7975 178.471819 
L 198.114545 179.266884 
L 198.431591 175.526266 
L 198.748636 176.680792 
L 199.065682 176.818726 
L 199.382727 177.355925 
L 199.699773 179.374148 
L 200.016818 177.891 
L 200.333864 176.991554 
L 200.650909 177.79155 
L 200.967955 176.927974 
L 201.285 175.717584 
L 201.602045 177.423756 
L 202.236136 179.247898 
L 202.553182 177.940969 
L 202.870227 175.869826 
L 203.187273 177.086427 
L 203.504318 176.709611 
L 203.821364 177.195576 
L 204.138409 176.653989 
L 204.455455 177.858762 
L 204.7725 175.684018 
L 205.089545 177.925363 
L 205.406591 178.549072 
L 205.723636 177.963939 
L 206.040682 178.75695 
L 206.357727 176.72626 
L 206.674773 176.404011 
L 206.991818 174.877818 
L 207.308864 175.405739 
L 207.625909 177.503469 
L 207.942955 177.570604 
L 208.26 176.390779 
L 208.577045 178.79123 
L 208.894091 177.472225 
L 209.528182 178.647663 
L 209.845227 178.412241 
L 210.162273 175.728971 
L 210.479318 174.031902 
L 211.113409 178.306693 
L 211.7475 175.711852 
L 212.064545 176.272661 
L 212.381591 178.936755 
L 212.698636 176.640059 
L 213.015682 173.497322 
L 213.332727 175.326247 
L 213.649773 175.169235 
L 213.966818 175.733201 
L 214.283864 177.080968 
L 214.917955 177.608071 
L 215.235 178.324373 
L 215.552045 176.152531 
L 215.869091 175.674108 
L 216.186136 174.279533 
L 216.503182 174.959346 
L 216.820227 176.532473 
L 217.137273 176.014229 
L 217.454318 174.605638 
L 217.771364 174.143886 
L 218.088409 175.738673 
L 218.405455 175.102628 
L 218.7225 174.21668 
L 219.039545 176.405202 
L 219.356591 175.569846 
L 219.673636 175.458798 
L 219.990682 176.721103 
L 220.307727 176.541281 
L 220.624773 175.518332 
L 220.941818 175.447187 
L 221.258864 176.570386 
L 221.575909 174.307171 
L 221.892955 173.488823 
L 222.21 174.955534 
L 222.527045 176.986821 
L 222.844091 175.523437 
L 223.161136 176.161903 
L 223.478182 173.913345 
L 223.795227 174.135703 
L 224.112273 175.230181 
L 224.429318 172.907369 
L 224.746364 175.012505 
L 225.063409 173.549437 
L 225.380455 176.346619 
L 225.6975 175.207305 
L 226.014545 175.452839 
L 226.331591 176.086967 
L 226.648636 175.492616 
L 226.965682 174.370204 
L 227.282727 175.113498 
L 227.599773 174.383619 
L 227.916818 174.863571 
L 228.550909 177.770174 
L 228.867955 175.522583 
L 229.185 175.906488 
L 229.502045 171.648643 
L 229.819091 170.719208 
L 230.136136 174.195555 
L 230.453182 173.533426 
L 230.770227 175.649023 
L 231.087273 175.616244 
L 231.404318 173.409852 
L 231.721364 173.160564 
L 232.038409 174.620741 
L 232.355455 173.812041 
L 232.6725 171.281477 
L 232.989545 173.772376 
L 233.306591 177.700036 
L 233.623636 176.721623 
L 233.940682 175.26047 
L 234.257727 175.713644 
L 234.574773 175.953257 
L 234.891818 175.81643 
L 235.208864 173.911904 
L 235.525909 173.206447 
L 235.842955 173.634556 
L 236.16 174.812231 
L 236.477045 173.403482 
L 237.111136 174.626258 
L 237.428182 173.072881 
L 237.745227 173.080019 
L 238.062273 172.621428 
L 238.379318 175.402841 
L 238.696364 174.128633 
L 239.6475 172.826852 
L 239.964545 175.293965 
L 240.281591 174.934262 
L 240.598636 174.792856 
L 240.915682 172.813436 
L 241.232727 172.736039 
L 241.549773 173.0701 
L 241.866818 174.584808 
L 242.183864 172.975202 
L 242.500909 172.756903 
L 242.817955 174.001831 
L 243.135 174.247057 
L 243.452045 172.065153 
L 243.769091 174.640098 
L 244.086136 175.497966 
L 244.403182 173.479605 
L 244.720227 173.196454 
L 245.354318 172.304999 
L 245.671364 175.248838 
L 245.988409 171.593881 
L 246.305455 171.293013 
L 246.6225 171.751086 
L 246.939545 172.775095 
L 247.256591 174.450464 
L 247.890682 171.970899 
L 248.207727 172.29698 
L 248.524773 170.936712 
L 248.841818 173.725796 
L 249.158864 171.36022 
L 249.475909 172.389292 
L 249.792955 174.400714 
L 250.11 171.365873 
L 250.427045 170.308095 
L 250.744091 171.032302 
L 251.061136 173.403598 
L 251.378182 172.39338 
L 251.695227 170.337277 
L 252.012273 171.143921 
L 252.329318 169.981446 
L 252.646364 170.913102 
L 252.963409 170.419072 
L 253.280455 173.608318 
L 253.5975 174.724065 
L 253.914545 173.143798 
L 254.231591 172.909175 
L 254.548636 172.835816 
L 254.865682 172.352097 
L 255.182727 171.295655 
L 255.499773 171.069409 
L 255.816818 172.046327 
L 256.133864 171.878252 
L 256.450909 171.848716 
L 256.767955 172.26552 
L 257.085 170.236106 
L 258.036136 172.089271 
L 258.353182 171.44512 
L 258.670227 170.244523 
L 258.987273 171.589138 
L 259.304318 171.783073 
L 259.621364 170.387848 
L 259.938409 172.66619 
L 260.255455 171.226429 
L 260.5725 170.754938 
L 260.889545 172.128682 
L 261.206591 170.561754 
L 261.840682 173.581833 
L 262.157727 174.583278 
L 262.474773 171.198512 
L 262.791818 171.419413 
L 263.108864 172.045285 
L 263.425909 170.855014 
L 263.742955 168.838622 
L 264.06 171.60863 
L 264.377045 172.372158 
L 265.011136 170.868058 
L 265.328182 171.106651 
L 265.645227 170.787049 
L 266.279318 170.671633 
L 266.913409 169.271034 
L 267.230455 171.928609 
L 267.5475 172.263542 
L 268.181591 171.128184 
L 268.498636 172.229914 
L 268.815682 175.166057 
L 269.132727 171.811555 
L 269.449773 169.799188 
L 269.766818 170.965352 
L 270.083864 171.626004 
L 270.400909 168.903071 
L 270.717955 167.290366 
L 271.035 168.867201 
L 271.352045 171.685807 
L 271.669091 170.170853 
L 271.986136 170.814163 
L 272.303182 170.206603 
L 272.620227 170.363388 
L 272.937273 169.888425 
L 273.254318 169.899908 
L 273.571364 171.787642 
L 273.888409 171.862539 
L 274.5225 171.192069 
L 274.839545 171.177546 
L 275.156591 170.773518 
L 275.473636 169.312964 
L 275.790682 171.650525 
L 276.424773 169.150919 
L 276.741818 170.552975 
L 277.058864 169.487226 
L 277.375909 172.0747 
L 277.692955 173.241072 
L 278.327045 171.329363 
L 278.644091 172.119803 
L 278.961136 172.478289 
L 279.278182 172.146877 
L 279.595227 171.308135 
L 280.229318 170.549301 
L 280.546364 169.588221 
L 280.863409 169.787377 
L 281.180455 170.19439 
L 281.4975 169.572004 
L 281.814545 169.514616 
L 282.448636 171.927447 
L 282.765682 169.637552 
L 283.082727 168.678042 
L 283.399773 168.580584 
L 283.716818 169.406792 
L 284.033864 167.725607 
L 284.350909 167.631443 
L 284.667955 172.208272 
L 284.985 172.289708 
L 285.302045 170.574211 
L 285.619091 171.174044 
L 285.936136 172.396192 
L 286.253182 171.655419 
L 286.570227 172.290975 
L 286.887273 170.076799 
L 287.204318 170.892617 
L 287.521364 170.773416 
L 288.155455 173.798974 
L 288.4725 172.256166 
L 288.789545 169.854056 
L 289.106591 169.695928 
L 289.423636 169.311192 
L 289.740682 170.75662 
L 290.057727 171.442049 
L 290.374773 170.148839 
L 290.691818 169.422693 
L 291.008864 170.499267 
L 291.325909 172.22815 
L 291.642955 172.467126 
L 292.277045 171.127485 
L 292.594091 169.078473 
L 292.911136 168.678691 
L 293.862273 171.166347 
L 294.179318 173.86005 
L 294.496364 171.97433 
L 294.813409 167.850802 
L 295.4475 170.301606 
L 295.764545 170.316871 
L 296.081591 170.614568 
L 296.398636 169.170192 
L 296.715682 169.987085 
L 297.032727 171.333154 
L 297.349773 172.00649 
L 297.666818 172.986267 
L 298.617955 167.000647 
L 298.935 167.730716 
L 299.252045 169.647677 
L 299.569091 170.066477 
L 299.886136 171.01296 
L 300.520227 167.657714 
L 301.471364 171.036181 
L 301.788409 168.5416 
L 302.105455 167.094353 
L 302.4225 168.150981 
L 302.739545 168.672081 
L 303.056591 171.298057 
L 303.373636 171.776777 
L 303.690682 170.978541 
L 304.007727 171.092072 
L 304.324773 170.110472 
L 304.641818 167.307201 
L 304.958864 167.601918 
L 305.275909 167.140063 
L 305.592955 168.216654 
L 305.91 167.611523 
L 306.227045 166.597408 
L 306.544091 166.698996 
L 306.861136 167.473909 
L 307.178182 166.551314 
L 307.495227 167.953983 
L 307.812273 168.848226 
L 308.129318 167.959142 
L 308.446364 168.08226 
L 308.763409 166.092183 
L 309.3975 169.494118 
L 309.714545 167.614763 
L 310.031591 167.909592 
L 310.665682 168.107617 
L 310.982727 167.519559 
L 311.299773 168.570316 
L 311.616818 171.409907 
L 311.933864 169.057077 
L 312.250909 168.643982 
L 312.567955 168.715217 
L 313.202045 171.685183 
L 313.836136 166.937011 
L 314.153182 167.941979 
L 314.470227 169.634654 
L 314.787273 169.608936 
L 315.104318 169.887434 
L 315.738409 168.011008 
L 316.3725 173.160264 
L 316.689545 170.739925 
L 317.006591 170.931603 
L 317.323636 170.555104 
L 317.640682 167.555336 
L 317.957727 167.253681 
L 318.274773 169.416868 
L 318.591818 169.305996 
L 319.225909 164.967223 
L 319.542955 166.476807 
L 319.86 170.326512 
L 320.177045 171.289969 
L 320.494091 170.328536 
L 320.811136 166.720444 
L 321.128182 165.665589 
L 321.445227 165.97195 
L 321.762273 170.844444 
L 322.079318 170.238953 
L 322.396364 167.906213 
L 322.713409 168.248442 
L 323.030455 169.055207 
L 323.3475 167.769048 
L 323.664545 167.001505 
L 323.981591 167.84066 
L 324.298636 166.468397 
L 324.615682 166.576007 
L 324.932727 167.057633 
L 325.249773 168.013858 
L 325.566818 167.729941 
L 325.883864 168.734337 
L 326.200909 167.368615 
L 326.517955 164.845854 
L 326.835 165.614131 
L 327.152045 165.556137 
L 327.469091 167.183711 
L 327.786136 165.752795 
L 328.103182 166.32265 
L 328.420227 168.191739 
L 329.054318 166.825128 
L 329.371364 167.002805 
L 329.688409 168.829791 
L 330.005455 169.030882 
L 330.3225 167.975011 
L 330.639545 168.431716 
L 330.956591 167.626909 
L 331.273636 167.205317 
L 331.590682 166.358914 
L 331.907727 169.254114 
L 332.224773 169.687468 
L 332.541818 171.200801 
L 332.858864 168.728291 
L 333.175909 167.538193 
L 333.492955 168.916638 
L 333.81 169.128992 
L 334.127045 167.801909 
L 334.444091 170.841943 
L 334.761136 169.855513 
L 335.078182 167.177782 
L 335.395227 168.343698 
L 335.712273 167.48363 
L 336.029318 168.158903 
L 336.346364 168.498956 
L 336.663409 170.847258 
L 336.980455 171.471205 
L 337.2975 171.12896 
L 337.614545 169.671248 
L 337.931591 166.954943 
L 338.565682 170.406887 
L 338.882727 167.473477 
L 339.199773 167.101602 
L 339.516818 167.864741 
L 339.833864 168.27371 
L 340.150909 169.820781 
L 340.467955 169.354923 
L 340.785 169.587748 
L 341.102045 169.584759 
L 341.419091 169.317475 
L 341.736136 170.417007 
L 342.053182 170.416973 
L 342.687273 172.850906 
L 343.004318 172.280015 
L 343.321364 172.980572 
L 343.638409 173.185445 
L 343.955455 172.259547 
L 344.2725 173.609714 
L 344.589545 172.270387 
L 344.906591 169.75895 
L 345.223636 170.768901 
L 345.540682 170.523922 
L 345.857727 169.720103 
L 346.174773 172.187497 
L 346.491818 173.183078 
L 346.808864 171.074905 
L 347.125909 170.508941 
L 347.76 173.259781 
L 348.077045 174.60424 
L 348.394091 172.13289 
L 348.711136 172.3069 
L 349.028182 176.155042 
L 349.345227 177.68602 
L 349.662273 174.217731 
L 349.979318 173.720121 
L 350.296364 176.816147 
L 350.613409 177.019979 
L 350.930455 176.884657 
L 351.2475 176.114814 
L 352.198636 178.057694 
L 352.515682 178.488505 
L 352.832727 174.903333 
L 353.149773 177.672461 
L 353.466818 178.678925 
L 353.783864 178.809401 
L 354.100909 179.09247 
L 354.417955 177.684163 
L 354.735 179.696603 
L 355.052045 180.961794 
L 355.369091 180.6638 
L 355.686136 180.960257 
L 356.003182 180.245441 
L 356.320227 180.950929 
L 356.637273 182.33979 
L 356.954318 181.048207 
L 357.271364 180.796678 
L 357.905455 182.074381 
L 358.2225 181.687552 
L 358.539545 183.454031 
L 358.856591 184.117041 
L 359.173636 183.396002 
L 359.490682 183.044084 
L 359.807727 184.140297 
L 360.124773 186.784617 
L 360.758864 185.208262 
L 361.075909 184.840304 
L 361.71 187.28977 
L 362.027045 186.670571 
L 362.661136 192.701013 
L 362.978182 193.340418 
L 363.295227 192.550097 
L 363.612273 192.800837 
L 363.929318 191.621885 
L 364.246364 191.93732 
L 364.563409 191.349381 
L 364.880455 192.337227 
L 365.1975 193.952379 
L 365.514545 194.729264 
L 365.831591 194.771323 
L 366.465682 193.44367 
L 366.782727 193.488464 
L 367.099773 196.165023 
L 367.733864 199.31658 
L 368.050909 198.481268 
L 368.367955 200.145841 
L 368.685 198.491962 
L 369.319091 201.326108 
L 369.636136 201.820981 
L 369.953182 201.994882 
L 370.270227 202.687226 
L 370.587273 203.875649 
L 370.904318 203.692191 
L 371.221364 202.062803 
L 371.538409 205.145469 
L 371.855455 206.161989 
L 372.1725 204.826967 
L 372.489545 205.895572 
L 372.806591 205.527911 
L 373.123636 205.744119 
L 373.440682 206.94441 
L 373.757727 205.562052 
L 374.074773 207.871013 
L 374.391818 209.093159 
L 374.708864 207.883286 
L 375.025909 210.797322 
L 375.342955 210.787147 
L 375.66 210.37443 
L 375.977045 212.122782 
L 376.294091 212.1958 
L 376.611136 215.191169 
L 377.245227 213.57103 
L 377.562273 215.033596 
L 377.879318 215.28336 
L 378.196364 216.236274 
L 378.513409 217.849756 
L 378.830455 218.481153 
L 379.1475 217.80184 
L 379.781591 219.092425 
L 380.098636 221.667387 
L 380.415682 221.151762 
L 380.732727 218.889219 
L 381.049773 220.196064 
L 381.366818 218.945642 
L 381.683864 222.128952 
L 382.317955 222.849876 
L 382.635 221.195902 
L 383.269091 222.845412 
L 383.586136 223.048416 
L 383.903182 223.383915 
L 384.220227 222.846287 
L 384.537273 226.631259 
L 384.854318 226.861869 
L 385.171364 226.714541 
L 385.488409 230.569722 
L 385.805455 228.406232 
L 386.1225 225.432787 
L 386.439545 226.594629 
L 386.756591 230.858342 
L 387.073636 231.876379 
L 387.390682 231.496478 
L 387.707727 232.5299 
L 388.024773 232.933844 
L 388.341818 233.101155 
L 388.658864 233.953356 
L 388.975909 230.905051 
L 389.292955 229.182105 
L 389.61 231.381217 
L 389.927045 232.573735 
L 390.244091 232.786199 
L 390.561136 233.928192 
L 391.195227 232.824146 
L 391.829318 234.994654 
L 392.146364 234.466273 
L 392.463409 234.764834 
L 392.780455 235.659906 
L 393.0975 233.750114 
L 393.414545 236.456782 
L 393.731591 235.068484 
L 394.048636 236.96981 
L 394.365682 237.860654 
L 394.682727 239.821648 
L 394.999773 239.529185 
L 395.316818 237.460445 
L 395.633864 237.87562 
L 395.950909 240.228565 
L 396.267955 240.622495 
L 396.585 239.884559 
L 397.219091 235.642468 
L 397.536136 237.074933 
L 398.170227 238.553343 
L 398.487273 253.42843 
L 398.487273 253.42843 
" clip-path="url(#pad0a898cfa)" style="fill: none; stroke: #0000ff; stroke-width: 1.5; stroke-linecap: square"/>
   </g>
   <g id="line2d_61">
    <path d="M 73.832727 229.190364 
L 74.149773 248.974852 
L 74.466818 247.202259 
L 74.783864 170.254646 
L 75.100909 128.428492 
L 75.417955 117.085816 
L 76.052045 125.419105 
L 76.369091 128.359603 
L 77.003182 138.421914 
L 77.320227 140.955777 
L 77.637273 141.991512 
L 77.954318 143.896147 
L 78.588409 150.093271 
L 79.2225 155.695826 
L 79.539545 157.056676 
L 80.173636 163.547875 
L 80.490682 163.375576 
L 81.124773 169.263444 
L 81.441818 167.918675 
L 81.758864 170.007728 
L 82.075909 172.94937 
L 82.71 176.99661 
L 83.027045 176.493899 
L 83.344091 173.539248 
L 83.661136 175.427582 
L 83.978182 179.194462 
L 84.295227 179.302103 
L 84.612273 180.107547 
L 84.929318 182.474888 
L 85.246364 181.279794 
L 85.563409 182.786905 
L 85.880455 185.551146 
L 86.1975 183.574709 
L 86.514545 183.63383 
L 87.148636 184.773855 
L 87.465682 184.866759 
L 87.782727 186.795777 
L 88.099773 186.600666 
L 88.416818 186.654852 
L 88.733864 185.965019 
L 89.050909 187.660976 
L 89.367955 187.448621 
L 90.002045 183.182254 
L 90.319091 183.556515 
L 90.636136 185.004053 
L 90.953182 184.102954 
L 91.270227 182.507506 
L 91.587273 180.287333 
L 91.904318 179.741759 
L 92.221364 181.185525 
L 92.538409 180.432148 
L 92.855455 178.25691 
L 93.1725 177.26958 
L 93.489545 175.218522 
L 93.806591 174.08493 
L 94.123636 172.260465 
L 94.440682 169.231139 
L 94.757727 168.111686 
L 95.074773 168.920002 
L 95.391818 171.495755 
L 96.025909 165.878461 
L 96.66 165.546765 
L 96.977045 166.180962 
L 97.294091 167.248068 
L 97.611136 167.409887 
L 97.928182 167.167044 
L 98.245227 165.201257 
L 98.562273 164.248516 
L 98.879318 164.523228 
L 99.196364 164.039688 
L 99.830455 160.295977 
L 100.1475 159.907904 
L 100.464545 159.12194 
L 100.781591 161.6223 
L 101.098636 162.904569 
L 101.732727 167.333821 
L 102.049773 168.774717 
L 102.366818 168.847493 
L 103.000909 172.190565 
L 103.317955 171.969015 
L 103.635 173.375978 
L 103.952045 176.288575 
L 104.269091 176.447693 
L 104.586136 177.016209 
L 104.903182 176.197479 
L 105.220227 176.772951 
L 105.537273 177.924707 
L 105.854318 177.954769 
L 106.488409 180.085862 
L 106.805455 179.742401 
L 107.439545 179.775948 
L 107.756591 179.01708 
L 108.073636 179.201225 
L 108.390682 180.343684 
L 108.707727 180.378358 
L 109.024773 182.012098 
L 109.341818 182.730056 
L 109.975909 180.525134 
L 110.292955 183.780206 
L 110.61 182.372147 
L 110.927045 181.817398 
L 111.244091 179.25859 
L 111.561136 181.653081 
L 111.878182 182.410694 
L 112.195227 181.169706 
L 112.512273 181.199657 
L 112.829318 181.939165 
L 113.146364 179.713955 
L 113.463409 178.895281 
L 114.0975 182.480214 
L 114.414545 182.766302 
L 114.731591 183.821353 
L 115.048636 184.47342 
L 115.365682 184.763772 
L 115.682727 183.914392 
L 115.999773 183.550759 
L 116.316818 182.967018 
L 116.633864 183.281961 
L 116.950909 181.373687 
L 117.267955 182.103251 
L 117.585 184.777226 
L 117.902045 185.154833 
L 118.219091 184.873554 
L 118.536136 185.48777 
L 118.853182 185.769934 
L 119.170227 182.642514 
L 119.487273 183.118828 
L 119.804318 185.738492 
L 120.121364 184.401035 
L 120.438409 184.519863 
L 120.755455 184.307038 
L 121.0725 182.601254 
L 121.389545 183.5559 
L 121.706591 183.898213 
L 122.023636 184.484464 
L 122.340682 183.34587 
L 122.657727 183.606679 
L 122.974773 183.472991 
L 123.291818 182.584939 
L 123.608864 185.369063 
L 124.242955 183.784183 
L 124.56 182.957187 
L 124.877045 182.943584 
L 125.194091 183.496759 
L 125.511136 182.792131 
L 125.828182 182.965999 
L 126.145227 182.369454 
L 126.462273 182.709335 
L 126.779318 184.081722 
L 127.096364 183.600011 
L 127.413409 181.411264 
L 127.730455 184.337283 
L 128.0475 182.619089 
L 128.364545 184.137082 
L 128.681591 183.350975 
L 128.998636 184.16985 
L 129.315682 185.763928 
L 129.632727 184.655992 
L 130.266818 186.586656 
L 130.900909 186.091103 
L 131.217955 186.537367 
L 131.535 187.791964 
L 131.852045 186.665 
L 132.169091 186.546132 
L 132.486136 188.672936 
L 132.803182 184.630369 
L 133.120227 183.953899 
L 133.437273 183.971657 
L 133.754318 186.857595 
L 134.071364 188.195395 
L 134.388409 187.663576 
L 134.705455 186.601729 
L 135.0225 185.99774 
L 135.339545 186.50091 
L 135.973636 184.26654 
L 136.924773 188.137673 
L 137.241818 187.676449 
L 137.558864 187.773173 
L 137.875909 188.879188 
L 138.192955 188.19277 
L 138.827045 186.1329 
L 139.144091 186.401278 
L 139.461136 185.773562 
L 139.778182 185.998492 
L 140.095227 188.404814 
L 140.412273 186.337049 
L 140.729318 185.926384 
L 141.046364 185.131264 
L 141.363409 182.772966 
L 141.9975 184.903786 
L 142.631591 185.488102 
L 142.948636 185.519618 
L 143.582727 184.116114 
L 143.899773 183.0496 
L 144.216818 182.942021 
L 144.533864 181.411354 
L 144.850909 182.241275 
L 145.167955 182.094182 
L 145.485 180.460147 
L 145.802045 179.944904 
L 146.119091 179.713204 
L 146.436136 181.659988 
L 146.753182 182.731926 
L 147.070227 180.776592 
L 147.387273 180.988416 
L 147.704318 183.618016 
L 148.021364 184.600032 
L 148.338409 183.612949 
L 148.655455 183.34863 
L 148.9725 184.015903 
L 149.289545 184.116286 
L 149.606591 182.457954 
L 149.923636 181.457826 
L 150.240682 181.250152 
L 150.557727 180.591044 
L 150.874773 179.551245 
L 151.508864 181.469815 
L 151.825909 181.272963 
L 152.142955 182.424722 
L 152.777045 181.729509 
L 153.094091 183.451232 
L 153.411136 186.139626 
L 153.728182 182.552768 
L 154.362273 181.742494 
L 154.679318 183.041977 
L 154.996364 182.666692 
L 155.630455 183.040612 
L 155.9475 181.448834 
L 156.264545 183.605448 
L 156.581591 183.559629 
L 156.898636 181.739731 
L 157.215682 180.792578 
L 157.532727 183.224184 
L 157.849773 182.442054 
L 158.166818 180.357264 
L 158.483864 180.427918 
L 158.800909 182.750493 
L 159.117955 183.526321 
L 159.435 186.533574 
L 159.752045 186.564124 
L 160.069091 185.885482 
L 160.386136 184.610471 
L 160.703182 184.654256 
L 161.020227 183.708319 
L 161.337273 181.504668 
L 161.654318 180.254881 
L 161.971364 180.602072 
L 162.288409 182.574047 
L 162.605455 182.327927 
L 162.9225 179.48637 
L 163.239545 180.923857 
L 163.556591 183.967067 
L 163.873636 183.518105 
L 164.190682 181.845428 
L 164.507727 182.061365 
L 164.824773 182.007958 
L 165.141818 182.384921 
L 165.458864 181.268733 
L 166.092955 183.963254 
L 166.41 183.273921 
L 166.727045 183.974767 
L 167.044091 182.67745 
L 167.361136 182.261148 
L 167.678182 181.31686 
L 167.995227 182.185714 
L 168.312273 180.453679 
L 168.629318 181.433217 
L 168.946364 183.255514 
L 169.263409 183.363586 
L 169.580455 183.106077 
L 169.8975 181.91877 
L 170.214545 181.916953 
L 170.531591 181.540647 
L 170.848636 180.550032 
L 171.165682 182.480353 
L 171.482727 181.161958 
L 171.799773 180.389849 
L 172.116818 180.549451 
L 172.433864 182.586706 
L 172.750909 182.398408 
L 173.067955 183.273679 
L 173.385 182.185959 
L 173.702045 182.133056 
L 174.019091 180.405382 
L 174.336136 179.330076 
L 174.970227 180.954038 
L 175.287273 181.65366 
L 175.604318 183.13003 
L 175.921364 183.775674 
L 176.238409 183.691688 
L 176.555455 180.470328 
L 176.8725 181.45623 
L 177.189545 180.6894 
L 177.506591 180.795249 
L 177.823636 179.868047 
L 178.140682 178.437266 
L 178.457727 179.030477 
L 179.091818 178.263318 
L 179.408864 180.593388 
L 179.725909 179.247821 
L 180.042955 179.244462 
L 180.36 179.578213 
L 180.677045 180.370195 
L 180.994091 178.812952 
L 181.311136 177.996897 
L 181.628182 178.190663 
L 181.945227 180.442376 
L 182.262273 179.840247 
L 182.579318 179.805573 
L 182.896364 180.565667 
L 183.530455 178.314142 
L 183.8475 180.693275 
L 184.164545 181.063777 
L 184.481591 179.278321 
L 184.798636 179.283128 
L 185.115682 178.995528 
L 185.432727 178.448804 
L 185.749773 179.400621 
L 186.066818 180.711655 
L 186.700909 180.341261 
L 187.017955 180.605451 
L 187.652045 177.641683 
L 187.969091 179.021758 
L 188.286136 179.494965 
L 188.603182 179.43481 
L 188.920227 180.421879 
L 189.554318 179.59048 
L 189.871364 180.461329 
L 190.188409 180.220705 
L 190.505455 180.131155 
L 191.139545 179.152983 
L 191.456591 180.057446 
L 191.773636 179.266142 
L 192.090682 179.730368 
L 192.407727 179.539969 
L 192.724773 179.639591 
L 193.041818 180.600225 
L 193.358864 178.361892 
L 193.675909 178.513755 
L 193.992955 176.901544 
L 194.31 176.000289 
L 194.627045 175.848568 
L 194.944091 176.945948 
L 195.578182 180.217613 
L 195.895227 178.538739 
L 196.212273 175.51007 
L 196.846364 178.135315 
L 197.163409 177.814315 
L 197.480455 176.389084 
L 197.7975 178.474508 
L 198.114545 179.269716 
L 198.431591 175.528931 
L 198.748636 176.683243 
L 199.065682 176.821725 
L 199.382727 177.358687 
L 199.699773 179.376903 
L 200.016818 177.893913 
L 200.333864 176.994833 
L 200.650909 177.7946 
L 200.967955 176.930835 
L 201.285 175.720441 
L 201.602045 177.426506 
L 202.236136 179.250596 
L 202.553182 177.943393 
L 202.870227 175.87232 
L 203.187273 177.089326 
L 203.504318 176.712366 
L 203.821364 177.198565 
L 204.138409 176.657122 
L 204.455455 177.861779 
L 204.7725 175.68704 
L 205.089545 177.92855 
L 205.406591 178.552304 
L 205.723636 177.967157 
L 206.040682 178.75985 
L 206.357727 176.729005 
L 206.674773 176.406584 
L 206.991818 174.880785 
L 207.308864 175.408504 
L 207.625909 177.506022 
L 207.942955 177.573457 
L 208.26 176.393861 
L 208.577045 178.794387 
L 208.894091 177.474837 
L 209.528182 178.650904 
L 209.845227 178.415489 
L 210.162273 175.732128 
L 210.479318 174.03509 
L 211.113409 178.30946 
L 211.7475 175.714596 
L 212.064545 176.275394 
L 212.381591 178.939495 
L 212.698636 176.643219 
L 213.015682 173.500519 
L 213.332727 175.329309 
L 213.649773 175.172582 
L 213.966818 175.736224 
L 214.283864 177.083591 
L 214.917955 177.610794 
L 215.235 178.327301 
L 215.552045 176.155497 
L 215.869091 175.67693 
L 216.186136 174.282231 
L 216.503182 174.962189 
L 216.820227 176.535625 
L 217.137273 176.017261 
L 217.454318 174.608748 
L 217.771364 174.14691 
L 218.088409 175.741729 
L 218.405455 175.105539 
L 218.7225 174.219663 
L 219.039545 176.408116 
L 219.356591 175.572789 
L 219.673636 175.46124 
L 219.990682 176.723611 
L 220.307727 176.543983 
L 220.624773 175.521096 
L 220.941818 175.449887 
L 221.258864 176.573113 
L 221.575909 174.309888 
L 221.892955 173.491836 
L 222.21 174.958636 
L 222.527045 176.99017 
L 222.844091 175.526526 
L 223.161136 176.164647 
L 223.478182 173.916052 
L 223.795227 174.138394 
L 224.112273 175.232934 
L 224.429318 172.910371 
L 224.746364 175.015726 
L 225.063409 173.552429 
L 225.380455 176.349618 
L 225.6975 175.210529 
L 226.014545 175.455967 
L 226.331591 176.089896 
L 226.648636 175.495516 
L 226.965682 174.373068 
L 227.282727 175.116287 
L 227.599773 174.386139 
L 227.916818 174.866374 
L 228.550909 177.773214 
L 228.867955 175.525565 
L 229.185 175.909281 
L 229.502045 171.651637 
L 229.819091 170.722109 
L 230.136136 174.198452 
L 230.453182 173.536399 
L 230.770227 175.652122 
L 231.087273 175.619109 
L 231.404318 173.412617 
L 231.721364 173.163273 
L 232.038409 174.623717 
L 232.355455 173.814977 
L 232.6725 171.284478 
L 232.989545 173.775305 
L 233.306591 177.702926 
L 233.623636 176.724375 
L 233.940682 175.263277 
L 234.257727 175.716763 
L 234.574773 175.956353 
L 234.891818 175.819669 
L 235.208864 173.914843 
L 235.525909 173.209302 
L 235.842955 173.63779 
L 236.16 174.815081 
L 236.477045 173.406435 
L 237.111136 174.629076 
L 237.428182 173.075645 
L 237.745227 173.083145 
L 238.062273 172.624403 
L 238.379318 175.40569 
L 238.696364 174.131902 
L 239.6475 172.8297 
L 239.964545 175.297023 
L 240.281591 174.937504 
L 240.598636 174.795948 
L 240.915682 172.816289 
L 241.232727 172.739203 
L 241.549773 173.073237 
L 241.866818 174.587901 
L 242.183864 172.978216 
L 242.500909 172.759698 
L 242.817955 174.004506 
L 243.135 174.249853 
L 243.452045 172.068029 
L 243.769091 174.643193 
L 244.086136 175.501075 
L 244.403182 173.482779 
L 244.720227 173.199342 
L 245.354318 172.30792 
L 245.671364 175.251714 
L 245.988409 171.596872 
L 246.305455 171.295945 
L 246.6225 171.753933 
L 246.939545 172.777846 
L 247.256591 174.45349 
L 247.890682 171.973663 
L 248.207727 172.300114 
L 248.524773 170.939601 
L 248.841818 173.728748 
L 249.158864 171.363396 
L 249.475909 172.392387 
L 249.792955 174.403923 
L 250.11 171.369363 
L 250.427045 170.311362 
L 250.744091 171.035027 
L 251.061136 173.406591 
L 251.378182 172.396485 
L 251.695227 170.340281 
L 252.012273 171.146984 
L 252.329318 169.984321 
L 252.646364 170.915809 
L 252.963409 170.42196 
L 253.280455 173.611477 
L 253.5975 174.727153 
L 253.914545 173.146702 
L 254.231591 172.912302 
L 254.548636 172.838726 
L 254.865682 172.355048 
L 255.182727 171.298487 
L 255.499773 171.072235 
L 255.816818 172.049233 
L 256.133864 171.880995 
L 256.450909 171.851832 
L 256.767955 172.268545 
L 257.085 170.238928 
L 258.036136 172.09224 
L 258.353182 171.4482 
L 258.670227 170.247436 
L 258.987273 171.591902 
L 259.304318 171.786104 
L 259.621364 170.391081 
L 259.938409 172.669466 
L 260.255455 171.229592 
L 260.5725 170.757965 
L 260.889545 172.13168 
L 261.206591 170.564709 
L 261.840682 173.584591 
L 262.157727 174.586563 
L 262.474773 171.201897 
L 262.791818 171.422615 
L 263.108864 172.048347 
L 263.425909 170.858035 
L 263.742955 168.841563 
L 264.06 171.611717 
L 264.377045 172.375206 
L 265.011136 170.871108 
L 265.328182 171.109432 
L 265.645227 170.789992 
L 266.279318 170.674387 
L 266.913409 169.274226 
L 267.230455 171.93169 
L 267.5475 172.26649 
L 268.181591 171.130989 
L 268.498636 172.23262 
L 268.815682 175.168959 
L 269.132727 171.814424 
L 269.449773 169.80211 
L 269.766818 170.968193 
L 270.083864 171.628998 
L 270.400909 168.906199 
L 270.717955 167.293455 
L 271.035 168.870335 
L 271.352045 171.689135 
L 271.669091 170.174163 
L 271.986136 170.817094 
L 272.303182 170.209441 
L 272.620227 170.366202 
L 272.937273 169.891067 
L 273.254318 169.902694 
L 273.571364 171.790626 
L 273.888409 171.865609 
L 274.5225 171.195003 
L 274.839545 171.180575 
L 275.156591 170.77657 
L 275.473636 169.315992 
L 275.790682 171.653614 
L 276.424773 169.153763 
L 276.741818 170.555842 
L 277.058864 169.490161 
L 277.375909 172.077794 
L 277.692955 173.244373 
L 278.327045 171.332191 
L 278.644091 172.122565 
L 278.961136 172.481409 
L 279.278182 172.150068 
L 279.595227 171.31111 
L 280.229318 170.552428 
L 280.546364 169.591264 
L 280.863409 169.790447 
L 281.180455 170.19732 
L 281.4975 169.574776 
L 281.814545 169.517576 
L 282.448636 171.930491 
L 282.765682 169.640557 
L 283.082727 168.680942 
L 283.399773 168.583485 
L 283.716818 169.409819 
L 284.033864 167.728683 
L 284.350909 167.634766 
L 284.667955 172.2115 
L 284.985 172.292855 
L 285.302045 170.577214 
L 285.619091 171.177032 
L 285.936136 172.399646 
L 286.253182 171.65848 
L 286.570227 172.294017 
L 286.887273 170.08003 
L 287.204318 170.89548 
L 287.521364 170.776358 
L 288.155455 173.80197 
L 288.4725 172.258985 
L 288.789545 169.856922 
L 289.106591 169.699016 
L 289.423636 169.314296 
L 289.740682 170.75953 
L 290.057727 171.444886 
L 290.374773 170.152025 
L 290.691818 169.425904 
L 291.008864 170.502065 
L 291.325909 172.231037 
L 291.642955 172.47006 
L 292.277045 171.130381 
L 292.594091 169.081429 
L 292.911136 168.681601 
L 293.862273 171.169458 
L 294.179318 173.863339 
L 294.496364 171.97758 
L 294.813409 167.853671 
L 295.4475 170.304745 
L 295.764545 170.32013 
L 296.081591 170.618029 
L 296.398636 169.173458 
L 296.715682 169.990166 
L 297.032727 171.336312 
L 297.349773 172.009589 
L 297.666818 172.989288 
L 298.617955 167.003767 
L 298.935 167.734006 
L 299.252045 169.651144 
L 299.569091 170.069697 
L 299.886136 171.015984 
L 300.520227 167.660958 
L 301.471364 171.03938 
L 301.788409 168.544845 
L 302.105455 167.097369 
L 302.4225 168.154158 
L 302.739545 168.675285 
L 303.056591 171.301341 
L 303.373636 171.780013 
L 303.690682 170.981552 
L 304.007727 171.094995 
L 304.324773 170.11372 
L 304.641818 167.310349 
L 304.958864 167.604941 
L 305.275909 167.143045 
L 305.592955 168.219725 
L 305.91 167.614756 
L 306.227045 166.600725 
L 306.544091 166.702335 
L 306.861136 167.477084 
L 307.178182 166.554542 
L 307.495227 167.957161 
L 307.812273 168.851428 
L 308.129318 167.962347 
L 308.446364 168.085509 
L 308.763409 166.095318 
L 309.3975 169.497002 
L 309.714545 167.61792 
L 310.031591 167.912647 
L 310.665682 168.110832 
L 310.982727 167.522828 
L 311.299773 168.573421 
L 311.616818 171.413098 
L 311.933864 169.060178 
L 312.250909 168.647015 
L 312.567955 168.718452 
L 313.202045 171.688328 
L 313.836136 166.940157 
L 314.153182 167.945187 
L 314.470227 169.637937 
L 314.787273 169.611792 
L 315.104318 169.890521 
L 315.738409 168.01437 
L 316.3725 173.163135 
L 316.689545 170.742925 
L 317.006591 170.934916 
L 317.323636 170.558581 
L 317.640682 167.558413 
L 317.957727 167.256771 
L 318.274773 169.420044 
L 318.591818 169.309125 
L 319.225909 164.970466 
L 319.542955 166.480093 
L 319.86 170.329714 
L 320.177045 171.29323 
L 320.494091 170.331844 
L 320.811136 166.723572 
L 321.128182 165.668789 
L 321.445227 165.975275 
L 321.762273 170.847668 
L 322.079318 170.242157 
L 322.396364 167.909442 
L 322.713409 168.251838 
L 323.030455 169.05856 
L 323.3475 167.772297 
L 323.664545 167.004636 
L 323.981591 167.843764 
L 324.298636 166.471609 
L 324.615682 166.579322 
L 324.932727 167.06107 
L 325.249773 168.017256 
L 325.566818 167.733059 
L 325.883864 168.737404 
L 326.200909 167.37187 
L 326.517955 164.849271 
L 326.835 165.617435 
L 327.152045 165.559198 
L 327.469091 167.18717 
L 327.786136 165.756358 
L 328.103182 166.325763 
L 328.420227 168.194906 
L 329.054318 166.828418 
L 329.371364 167.006237 
L 329.688409 168.833092 
L 330.005455 169.034122 
L 330.3225 167.978352 
L 330.639545 168.434747 
L 330.956591 167.629853 
L 331.273636 167.208354 
L 331.590682 166.362004 
L 331.907727 169.25722 
L 332.224773 169.690556 
L 332.541818 171.20397 
L 332.858864 168.731517 
L 333.175909 167.541438 
L 333.492955 168.919682 
L 333.81 169.132141 
L 334.127045 167.80527 
L 334.444091 170.845444 
L 334.761136 169.858603 
L 335.078182 167.18099 
L 335.395227 168.347079 
L 335.712273 167.486935 
L 336.029318 168.162297 
L 336.346364 168.50257 
L 336.663409 170.850738 
L 336.980455 171.474432 
L 337.2975 171.132116 
L 337.614545 169.674289 
L 337.931591 166.957883 
L 338.565682 170.410217 
L 338.882727 167.476635 
L 339.199773 167.104959 
L 339.516818 167.868165 
L 339.833864 168.277067 
L 340.150909 169.824302 
L 340.467955 169.358391 
L 340.785 169.591216 
L 341.102045 169.587971 
L 341.419091 169.320601 
L 341.736136 170.420224 
L 342.053182 170.420304 
L 342.687273 172.85424 
L 343.004318 172.283183 
L 343.321364 172.983934 
L 343.638409 173.188818 
L 343.955455 172.262944 
L 344.2725 173.613058 
L 344.589545 172.273923 
L 344.906591 169.762447 
L 345.223636 170.772533 
L 345.540682 170.52756 
L 345.857727 169.723523 
L 346.174773 172.190774 
L 346.491818 173.185944 
L 346.808864 171.077923 
L 347.125909 170.512087 
L 347.76 173.263005 
L 348.077045 174.607887 
L 348.394091 172.136422 
L 348.711136 172.310252 
L 349.028182 176.158457 
L 349.345227 177.689361 
L 349.662273 174.221089 
L 349.979318 173.723379 
L 350.296364 176.819266 
L 350.613409 177.023206 
L 350.930455 176.887936 
L 351.2475 176.117858 
L 352.198636 178.06099 
L 352.515682 178.491832 
L 352.832727 174.906785 
L 353.149773 177.67588 
L 353.466818 178.682237 
L 353.783864 178.812616 
L 354.100909 179.095622 
L 354.417955 177.68731 
L 354.735 179.700305 
L 355.052045 180.965378 
L 355.369091 180.667042 
L 355.686136 180.963305 
L 356.003182 180.248836 
L 356.320227 180.954407 
L 356.637273 182.342966 
L 356.954318 181.051277 
L 357.271364 180.800164 
L 357.905455 182.077804 
L 358.2225 181.690794 
L 358.539545 183.457092 
L 358.856591 184.120061 
L 359.173636 183.399211 
L 359.490682 183.047185 
L 359.807727 184.143264 
L 360.124773 186.78785 
L 360.758864 185.211785 
L 361.075909 184.843651 
L 361.71 187.293099 
L 362.027045 186.673592 
L 362.661136 192.704278 
L 362.978182 193.343484 
L 363.295227 192.553242 
L 363.612273 192.804485 
L 363.929318 191.625451 
L 364.246364 191.940499 
L 364.563409 191.352407 
L 364.880455 192.340145 
L 365.1975 193.955765 
L 365.514545 194.732787 
L 365.831591 194.774979 
L 366.465682 193.447512 
L 366.782727 193.49189 
L 367.099773 196.168197 
L 367.733864 199.320009 
L 368.050909 198.484415 
L 368.367955 200.149241 
L 368.685 198.495405 
L 369.319091 201.329614 
L 369.636136 201.824578 
L 369.953182 201.998071 
L 370.270227 202.690322 
L 370.587273 203.878515 
L 370.904318 203.696058 
L 371.221364 202.066785 
L 371.538409 205.148945 
L 371.855455 206.165692 
L 372.1725 204.830841 
L 372.489545 205.898694 
L 372.806591 205.529909 
L 373.123636 205.747417 
L 373.440682 206.948375 
L 373.757727 205.565793 
L 374.074773 207.873856 
L 374.391818 209.096723 
L 374.708864 207.886251 
L 375.025909 210.800385 
L 375.342955 210.790484 
L 375.66 210.377907 
L 375.977045 212.126123 
L 376.294091 212.198985 
L 376.611136 215.194649 
L 377.245227 213.574478 
L 377.562273 215.036536 
L 377.879318 215.286373 
L 378.196364 216.239365 
L 378.513409 217.853206 
L 378.830455 218.484784 
L 379.1475 217.805764 
L 379.781591 219.095405 
L 380.098636 221.670097 
L 380.415682 221.155509 
L 380.732727 218.893912 
L 381.049773 220.19965 
L 381.366818 218.948462 
L 381.683864 222.132138 
L 382.317955 222.85278 
L 382.635 221.198977 
L 383.269091 222.849458 
L 383.586136 223.052074 
L 383.903182 223.387523 
L 384.220227 222.849779 
L 384.537273 226.635002 
L 384.854318 226.866045 
L 385.171364 226.717868 
L 385.488409 230.573351 
L 385.805455 228.409186 
L 386.1225 225.436292 
L 386.439545 226.598131 
L 386.756591 230.861459 
L 387.073636 231.879573 
L 387.390682 231.499831 
L 387.707727 232.533537 
L 388.024773 232.93697 
L 388.341818 233.104667 
L 388.658864 233.955981 
L 388.975909 230.907178 
L 389.292955 229.184877 
L 389.61 231.383879 
L 389.927045 232.576501 
L 390.244091 232.789923 
L 390.561136 233.931268 
L 391.195227 232.826744 
L 391.829318 234.996878 
L 392.146364 234.468724 
L 392.463409 234.767487 
L 392.780455 235.663445 
L 393.0975 233.753696 
L 393.414545 236.459151 
L 393.731591 235.070005 
L 394.048636 236.973337 
L 394.365682 237.863884 
L 394.682727 239.822556 
L 394.999773 239.531712 
L 395.316818 237.462314 
L 395.633864 237.879801 
L 395.950909 240.231811 
L 396.267955 240.623159 
L 396.585 239.891532 
L 397.219091 235.650486 
L 397.853182 238.427331 
L 398.170227 250.421529 
L 398.487273 295.488 
L 398.487273 295.488 
" clip-path="url(#pad0a898cfa)" style="fill: none; stroke: #ffa500; stroke-width: 1.5; stroke-linecap: square"/>
   </g>
   <g id="patch_3">
    <path d="M 57.6 307.584 
L 57.6 41.472 
" style="fill: none; stroke: #000000; stroke-width: 0.8; stroke-linejoin: miter; stroke-linecap: square"/>
   </g>
   <g id="patch_4">
    <path d="M 414.72 307.584 
L 414.72 41.472 
" style="fill: none; stroke: #000000; stroke-width: 0.8; stroke-linejoin: miter; stroke-linecap: square"/>
   </g>
   <g id="patch_5">
    <path d="M 57.6 307.584 
L 414.72 307.584 
" style="fill: none; stroke: #000000; stroke-width: 0.8; stroke-linejoin: miter; stroke-linecap: square"/>
   </g>
   <g id="patch_6">
    <path d="M 57.6 41.472 
L 414.72 41.472 
" style="fill: none; stroke: #000000; stroke-width: 0.8; stroke-linejoin: miter; stroke-linecap: square"/>
   </g>
   <g id="text_15">
    <!-- Power Spektrum des EEG Signals von Kanal F7-T3 -->
    <g transform="translate(86.964375 35.472) scale(0.12 -0.12)">
     <defs>
      <path id="DejaVuSans-50" d="M 1259 4147 
L 1259 2394 
L 2053 2394 
Q 2494 2394 2734 2622 
Q 2975 2850 2975 3272 
Q 2975 3691 2734 3919 
Q 2494 4147 2053 4147 
L 1259 4147 
z
M 628 4666 
L 2053 4666 
Q 2838 4666 3239 4311 
Q 3641 3956 3641 3272 
Q 3641 2581 3239 2228 
Q 2838 1875 2053 1875 
L 1259 1875 
L 1259 0 
L 628 0 
L 628 4666 
z
" transform="scale(0.015625)"/>
      <path id="DejaVuSans-6f" d="M 1959 3097 
Q 1497 3097 1228 2736 
Q 959 2375 959 1747 
Q 959 1119 1226 758 
Q 1494 397 1959 397 
Q 2419 397 2687 759 
Q 2956 1122 2956 1747 
Q 2956 2369 2687 2733 
Q 2419 3097 1959 3097 
z
M 1959 3584 
Q 2709 3584 3137 3096 
Q 3566 2609 3566 1747 
Q 3566 888 3137 398 
Q 2709 -91 1959 -91 
Q 1206 -91 779 398 
Q 353 888 353 1747 
Q 353 2609 779 3096 
Q 1206 3584 1959 3584 
z
" transform="scale(0.015625)"/>
      <path id="DejaVuSans-77" d="M 269 3500 
L 844 3500 
L 1563 769 
L 2278 3500 
L 2956 3500 
L 3675 769 
L 4391 3500 
L 4966 3500 
L 4050 0 
L 3372 0 
L 2619 2869 
L 1863 0 
L 1184 0 
L 269 3500 
z
" transform="scale(0.015625)"/>
      <path id="DejaVuSans-53" d="M 3425 4513 
L 3425 3897 
Q 3066 4069 2747 4153 
Q 2428 4238 2131 4238 
Q 1616 4238 1336 4038 
Q 1056 3838 1056 3469 
Q 1056 3159 1242 3001 
Q 1428 2844 1947 2747 
L 2328 2669 
Q 3034 2534 3370 2195 
Q 3706 1856 3706 1288 
Q 3706 609 3251 259 
Q 2797 -91 1919 -91 
Q 1588 -91 1214 -16 
Q 841 59 441 206 
L 441 856 
Q 825 641 1194 531 
Q 1563 422 1919 422 
Q 2459 422 2753 634 
Q 3047 847 3047 1241 
Q 3047 1584 2836 1778 
Q 2625 1972 2144 2069 
L 1759 2144 
Q 1053 2284 737 2584 
Q 422 2884 422 3419 
Q 422 4038 858 4394 
Q 1294 4750 2059 4750 
Q 2388 4750 2728 4690 
Q 3069 4631 3425 4513 
z
" transform="scale(0.015625)"/>
      <path id="DejaVuSans-70" d="M 1159 525 
L 1159 -1331 
L 581 -1331 
L 581 3500 
L 1159 3500 
L 1159 2969 
Q 1341 3281 1617 3432 
Q 1894 3584 2278 3584 
Q 2916 3584 3314 3078 
Q 3713 2572 3713 1747 
Q 3713 922 3314 415 
Q 2916 -91 2278 -91 
Q 1894 -91 1617 61 
Q 1341 213 1159 525 
z
M 3116 1747 
Q 3116 2381 2855 2742 
Q 2594 3103 2138 3103 
Q 1681 3103 1420 2742 
Q 1159 2381 1159 1747 
Q 1159 1113 1420 752 
Q 1681 391 2138 391 
Q 2594 391 2855 752 
Q 3116 1113 3116 1747 
z
" transform="scale(0.015625)"/>
      <path id="DejaVuSans-6b" d="M 581 4863 
L 1159 4863 
L 1159 1991 
L 2875 3500 
L 3609 3500 
L 1753 1863 
L 3688 0 
L 2938 0 
L 1159 1709 
L 1159 0 
L 581 0 
L 581 4863 
z
" transform="scale(0.015625)"/>
      <path id="DejaVuSans-6d" d="M 3328 2828 
Q 3544 3216 3844 3400 
Q 4144 3584 4550 3584 
Q 5097 3584 5394 3201 
Q 5691 2819 5691 2113 
L 5691 0 
L 5113 0 
L 5113 2094 
Q 5113 2597 4934 2840 
Q 4756 3084 4391 3084 
Q 3944 3084 3684 2787 
Q 3425 2491 3425 1978 
L 3425 0 
L 2847 0 
L 2847 2094 
Q 2847 2600 2669 2842 
Q 2491 3084 2119 3084 
Q 1678 3084 1418 2786 
Q 1159 2488 1159 1978 
L 1159 0 
L 581 0 
L 581 3500 
L 1159 3500 
L 1159 2956 
Q 1356 3278 1631 3431 
Q 1906 3584 2284 3584 
Q 2666 3584 2933 3390 
Q 3200 3197 3328 2828 
z
" transform="scale(0.015625)"/>
      <path id="DejaVuSans-64" d="M 2906 2969 
L 2906 4863 
L 3481 4863 
L 3481 0 
L 2906 0 
L 2906 525 
Q 2725 213 2448 61 
Q 2172 -91 1784 -91 
Q 1150 -91 751 415 
Q 353 922 353 1747 
Q 353 2572 751 3078 
Q 1150 3584 1784 3584 
Q 2172 3584 2448 3432 
Q 2725 3281 2906 2969 
z
M 947 1747 
Q 947 1113 1208 752 
Q 1469 391 1925 391 
Q 2381 391 2643 752 
Q 2906 1113 2906 1747 
Q 2906 2381 2643 2742 
Q 2381 3103 1925 3103 
Q 1469 3103 1208 2742 
Q 947 2381 947 1747 
z
" transform="scale(0.015625)"/>
      <path id="DejaVuSans-45" d="M 628 4666 
L 3578 4666 
L 3578 4134 
L 1259 4134 
L 1259 2753 
L 3481 2753 
L 3481 2222 
L 1259 2222 
L 1259 531 
L 3634 531 
L 3634 0 
L 628 0 
L 628 4666 
z
" transform="scale(0.015625)"/>
      <path id="DejaVuSans-47" d="M 3809 666 
L 3809 1919 
L 2778 1919 
L 2778 2438 
L 4434 2438 
L 4434 434 
Q 4069 175 3628 42 
Q 3188 -91 2688 -91 
Q 1594 -91 976 548 
Q 359 1188 359 2328 
Q 359 3472 976 4111 
Q 1594 4750 2688 4750 
Q 3144 4750 3555 4637 
Q 3966 4525 4313 4306 
L 4313 3634 
Q 3963 3931 3569 4081 
Q 3175 4231 2741 4231 
Q 1884 4231 1454 3753 
Q 1025 3275 1025 2328 
Q 1025 1384 1454 906 
Q 1884 428 2741 428 
Q 3075 428 3337 486 
Q 3600 544 3809 666 
z
" transform="scale(0.015625)"/>
      <path id="DejaVuSans-61" d="M 2194 1759 
Q 1497 1759 1228 1600 
Q 959 1441 959 1056 
Q 959 750 1161 570 
Q 1363 391 1709 391 
Q 2188 391 2477 730 
Q 2766 1069 2766 1631 
L 2766 1759 
L 2194 1759 
z
M 3341 1997 
L 3341 0 
L 2766 0 
L 2766 531 
Q 2569 213 2275 61 
Q 1981 -91 1556 -91 
Q 1019 -91 701 211 
Q 384 513 384 1019 
Q 384 1609 779 1909 
Q 1175 2209 1959 2209 
L 2766 2209 
L 2766 2266 
Q 2766 2663 2505 2880 
Q 2244 3097 1772 3097 
Q 1472 3097 1187 3025 
Q 903 2953 641 2809 
L 641 3341 
Q 956 3463 1253 3523 
Q 1550 3584 1831 3584 
Q 2591 3584 2966 3190 
Q 3341 2797 3341 1997 
z
" transform="scale(0.015625)"/>
      <path id="DejaVuSans-6c" d="M 603 4863 
L 1178 4863 
L 1178 0 
L 603 0 
L 603 4863 
z
" transform="scale(0.015625)"/>
      <path id="DejaVuSans-76" d="M 191 3500 
L 800 3500 
L 1894 563 
L 2988 3500 
L 3597 3500 
L 2284 0 
L 1503 0 
L 191 3500 
z
" transform="scale(0.015625)"/>
      <path id="DejaVuSans-4b" d="M 628 4666 
L 1259 4666 
L 1259 2694 
L 3353 4666 
L 4166 4666 
L 1850 2491 
L 4331 0 
L 3500 0 
L 1259 2247 
L 1259 0 
L 628 0 
L 628 4666 
z
" transform="scale(0.015625)"/>
      <path id="DejaVuSans-37" d="M 525 4666 
L 3525 4666 
L 3525 4397 
L 1831 0 
L 1172 0 
L 2766 4134 
L 525 4134 
L 525 4666 
z
" transform="scale(0.015625)"/>
      <path id="DejaVuSans-2d" d="M 313 2009 
L 1997 2009 
L 1997 1497 
L 313 1497 
L 313 2009 
z
" transform="scale(0.015625)"/>
      <path id="DejaVuSans-54" d="M -19 4666 
L 3928 4666 
L 3928 4134 
L 2272 4134 
L 2272 0 
L 1638 0 
L 1638 4134 
L -19 4134 
L -19 4666 
z
" transform="scale(0.015625)"/>
      <path id="DejaVuSans-33" d="M 2597 2516 
Q 3050 2419 3304 2112 
Q 3559 1806 3559 1356 
Q 3559 666 3084 287 
Q 2609 -91 1734 -91 
Q 1441 -91 1130 -33 
Q 819 25 488 141 
L 488 750 
Q 750 597 1062 519 
Q 1375 441 1716 441 
Q 2309 441 2620 675 
Q 2931 909 2931 1356 
Q 2931 1769 2642 2001 
Q 2353 2234 1838 2234 
L 1294 2234 
L 1294 2753 
L 1863 2753 
Q 2328 2753 2575 2939 
Q 2822 3125 2822 3475 
Q 2822 3834 2567 4026 
Q 2313 4219 1838 4219 
Q 1578 4219 1281 4162 
Q 984 4106 628 3988 
L 628 4550 
Q 988 4650 1302 4700 
Q 1616 4750 1894 4750 
Q 2613 4750 3031 4423 
Q 3450 4097 3450 3541 
Q 3450 3153 3228 2886 
Q 3006 2619 2597 2516 
z
" transform="scale(0.015625)"/>
     </defs>
     <use xlink:href="#DejaVuSans-50"/>
     <use xlink:href="#DejaVuSans-6f" transform="translate(56.677734 0)"/>
     <use xlink:href="#DejaVuSans-77" transform="translate(117.859375 0)"/>
     <use xlink:href="#DejaVuSans-65" transform="translate(199.646484 0)"/>
     <use xlink:href="#DejaVuSans-72" transform="translate(261.169922 0)"/>
     <use xlink:href="#DejaVuSans-20" transform="translate(302.283203 0)"/>
     <use xlink:href="#DejaVuSans-53" transform="translate(334.070312 0)"/>
     <use xlink:href="#DejaVuSans-70" transform="translate(397.546875 0)"/>
     <use xlink:href="#DejaVuSans-65" transform="translate(461.023438 0)"/>
     <use xlink:href="#DejaVuSans-6b" transform="translate(522.546875 0)"/>
     <use xlink:href="#DejaVuSans-74" transform="translate(580.457031 0)"/>
     <use xlink:href="#DejaVuSans-72" transform="translate(619.666016 0)"/>
     <use xlink:href="#DejaVuSans-75" transform="translate(660.779297 0)"/>
     <use xlink:href="#DejaVuSans-6d" transform="translate(724.158203 0)"/>
     <use xlink:href="#DejaVuSans-20" transform="translate(821.570312 0)"/>
     <use xlink:href="#DejaVuSans-64" transform="translate(853.357422 0)"/>
     <use xlink:href="#DejaVuSans-65" transform="translate(916.833984 0)"/>
     <use xlink:href="#DejaVuSans-73" transform="translate(978.357422 0)"/>
     <use xlink:href="#DejaVuSans-20" transform="translate(1030.457031 0)"/>
     <use xlink:href="#DejaVuSans-45" transform="translate(1062.244141 0)"/>
     <use xlink:href="#DejaVuSans-45" transform="translate(1125.427734 0)"/>
     <use xlink:href="#DejaVuSans-47" transform="translate(1188.611328 0)"/>
     <use xlink:href="#DejaVuSans-20" transform="translate(1266.101562 0)"/>
     <use xlink:href="#DejaVuSans-53" transform="translate(1297.888672 0)"/>
     <use xlink:href="#DejaVuSans-69" transform="translate(1361.365234 0)"/>
     <use xlink:href="#DejaVuSans-67" transform="translate(1389.148438 0)"/>
     <use xlink:href="#DejaVuSans-6e" transform="translate(1452.625 0)"/>
     <use xlink:href="#DejaVuSans-61" transform="translate(1516.003906 0)"/>
     <use xlink:href="#DejaVuSans-6c" transform="translate(1577.283203 0)"/>
     <use xlink:href="#DejaVuSans-73" transform="translate(1605.066406 0)"/>
     <use xlink:href="#DejaVuSans-20" transform="translate(1657.166016 0)"/>
     <use xlink:href="#DejaVuSans-76" transform="translate(1688.953125 0)"/>
     <use xlink:href="#DejaVuSans-6f" transform="translate(1748.132812 0)"/>
     <use xlink:href="#DejaVuSans-6e" transform="translate(1809.314453 0)"/>
     <use xlink:href="#DejaVuSans-20" transform="translate(1872.693359 0)"/>
     <use xlink:href="#DejaVuSans-4b" transform="translate(1904.480469 0)"/>
     <use xlink:href="#DejaVuSans-61" transform="translate(1968.306641 0)"/>
     <use xlink:href="#DejaVuSans-6e" transform="translate(2029.585938 0)"/>
     <use xlink:href="#DejaVuSans-61" transform="translate(2092.964844 0)"/>
     <use xlink:href="#DejaVuSans-6c" transform="translate(2154.244141 0)"/>
     <use xlink:href="#DejaVuSans-20" transform="translate(2182.027344 0)"/>
     <use xlink:href="#DejaVuSans-46" transform="translate(2213.814453 0)"/>
     <use xlink:href="#DejaVuSans-37" transform="translate(2271.333984 0)"/>
     <use xlink:href="#DejaVuSans-2d" transform="translate(2334.957031 0)"/>
     <use xlink:href="#DejaVuSans-54" transform="translate(2361.916016 0)"/>
     <use xlink:href="#DejaVuSans-33" transform="translate(2423 0)"/>
    </g>
   </g>
   <g id="legend_1">
    <g id="patch_7">
     <path d="M 266.196563 78.82825 
L 407.72 78.82825 
Q 409.72 78.82825 409.72 76.82825 
L 409.72 48.472 
Q 409.72 46.472 407.72 46.472 
L 266.196563 46.472 
Q 264.196563 46.472 264.196563 48.472 
L 264.196563 76.82825 
Q 264.196563 78.82825 266.196563 78.82825 
z
" style="fill: #ffffff; opacity: 0.8; stroke: #cccccc; stroke-linejoin: miter"/>
    </g>
    <g id="line2d_62">
     <path d="M 268.196563 54.570437 
L 278.196563 54.570437 
L 288.196563 54.570437 
" style="fill: none; stroke: #0000ff; stroke-width: 1.5; stroke-linecap: square"/>
    </g>
    <g id="text_16">
     <!-- Original -->
     <g transform="translate(296.196563 58.070437) scale(0.1 -0.1)">
      <defs>
       <path id="DejaVuSans-4f" d="M 2522 4238 
Q 1834 4238 1429 3725 
Q 1025 3213 1025 2328 
Q 1025 1447 1429 934 
Q 1834 422 2522 422 
Q 3209 422 3611 934 
Q 4013 1447 4013 2328 
Q 4013 3213 3611 3725 
Q 3209 4238 2522 4238 
z
M 2522 4750 
Q 3503 4750 4090 4092 
Q 4678 3434 4678 2328 
Q 4678 1225 4090 567 
Q 3503 -91 2522 -91 
Q 1538 -91 948 565 
Q 359 1222 359 2328 
Q 359 3434 948 4092 
Q 1538 4750 2522 4750 
z
" transform="scale(0.015625)"/>
      </defs>
      <use xlink:href="#DejaVuSans-4f"/>
      <use xlink:href="#DejaVuSans-72" transform="translate(78.710938 0)"/>
      <use xlink:href="#DejaVuSans-69" transform="translate(119.824219 0)"/>
      <use xlink:href="#DejaVuSans-67" transform="translate(147.607422 0)"/>
      <use xlink:href="#DejaVuSans-69" transform="translate(211.083984 0)"/>
      <use xlink:href="#DejaVuSans-6e" transform="translate(238.867188 0)"/>
      <use xlink:href="#DejaVuSans-61" transform="translate(302.246094 0)"/>
      <use xlink:href="#DejaVuSans-6c" transform="translate(363.525391 0)"/>
     </g>
    </g>
    <g id="line2d_63">
     <path d="M 268.196563 69.248562 
L 278.196563 69.248562 
L 288.196563 69.248562 
" style="fill: none; stroke: #ffa500; stroke-width: 1.5; stroke-linecap: square"/>
    </g>
    <g id="text_17">
     <!-- After resampling/filter -->
     <g transform="translate(296.196563 72.748562) scale(0.1 -0.1)">
      <defs>
       <path id="DejaVuSans-41" d="M 2188 4044 
L 1331 1722 
L 3047 1722 
L 2188 4044 
z
M 1831 4666 
L 2547 4666 
L 4325 0 
L 3669 0 
L 3244 1197 
L 1141 1197 
L 716 0 
L 50 0 
L 1831 4666 
z
" transform="scale(0.015625)"/>
       <path id="DejaVuSans-66" d="M 2375 4863 
L 2375 4384 
L 1825 4384 
Q 1516 4384 1395 4259 
Q 1275 4134 1275 3809 
L 1275 3500 
L 2222 3500 
L 2222 3053 
L 1275 3053 
L 1275 0 
L 697 0 
L 697 3053 
L 147 3053 
L 147 3500 
L 697 3500 
L 697 3744 
Q 697 4328 969 4595 
Q 1241 4863 1831 4863 
L 2375 4863 
z
" transform="scale(0.015625)"/>
      </defs>
      <use xlink:href="#DejaVuSans-41"/>
      <use xlink:href="#DejaVuSans-66" transform="translate(64.783203 0)"/>
      <use xlink:href="#DejaVuSans-74" transform="translate(98.238281 0)"/>
      <use xlink:href="#DejaVuSans-65" transform="translate(137.447266 0)"/>
      <use xlink:href="#DejaVuSans-72" transform="translate(198.970703 0)"/>
      <use xlink:href="#DejaVuSans-20" transform="translate(240.083984 0)"/>
      <use xlink:href="#DejaVuSans-72" transform="translate(271.871094 0)"/>
      <use xlink:href="#DejaVuSans-65" transform="translate(310.734375 0)"/>
      <use xlink:href="#DejaVuSans-73" transform="translate(372.257812 0)"/>
      <use xlink:href="#DejaVuSans-61" transform="translate(424.357422 0)"/>
      <use xlink:href="#DejaVuSans-6d" transform="translate(485.636719 0)"/>
      <use xlink:href="#DejaVuSans-70" transform="translate(583.048828 0)"/>
      <use xlink:href="#DejaVuSans-6c" transform="translate(646.525391 0)"/>
      <use xlink:href="#DejaVuSans-69" transform="translate(674.308594 0)"/>
      <use xlink:href="#DejaVuSans-6e" transform="translate(702.091797 0)"/>
      <use xlink:href="#DejaVuSans-67" transform="translate(765.470703 0)"/>
      <use xlink:href="#DejaVuSans-2f" transform="translate(828.947266 0)"/>
      <use xlink:href="#DejaVuSans-66" transform="translate(862.638672 0)"/>
      <use xlink:href="#DejaVuSans-69" transform="translate(897.84375 0)"/>
      <use xlink:href="#DejaVuSans-6c" transform="translate(925.626953 0)"/>
      <use xlink:href="#DejaVuSans-74" transform="translate(953.410156 0)"/>
      <use xlink:href="#DejaVuSans-65" transform="translate(992.619141 0)"/>
      <use xlink:href="#DejaVuSans-72" transform="translate(1054.142578 0)"/>
     </g>
    </g>
   </g>
  </g>
 </g>
 <defs>
  <clipPath id="pad0a898cfa">
   <rect x="57.6" y="41.472" width="357.12" height="266.112"/>
  </clipPath>
 </defs>
</svg>
