<?xml version="1.0" encoding="utf-8" standalone="no"?>
<!DOCTYPE svg PUBLIC "-//W3C//DTD SVG 1.1//EN"
  "http://www.w3.org/Graphics/SVG/1.1/DTD/svg11.dtd">
<svg xmlns:xlink="http://www.w3.org/1999/xlink" width="460.8pt" height="345.6pt" viewBox="0 0 460.8 345.6" xmlns="http://www.w3.org/2000/svg" version="1.1">
 <metadata>
  <rdf:RDF xmlns:dc="http://purl.org/dc/elements/1.1/" xmlns:cc="http://creativecommons.org/ns#" xmlns:rdf="http://www.w3.org/1999/02/22-rdf-syntax-ns#">
   <cc:Work>
    <dc:type rdf:resource="http://purl.org/dc/dcmitype/StillImage"/>
    <dc:date>2025-11-03T14:02:55.796701</dc:date>
    <dc:format>image/svg+xml</dc:format>
    <dc:creator>
     <cc:Agent>
      <dc:title>Matplotlib v3.10.7, https://matplotlib.org/</dc:title>
     </cc:Agent>
    </dc:creator>
   </cc:Work>
  </rdf:RDF>
 </metadata>
 <defs>
  <style type="text/css">*{stroke-linejoin: round; stroke-linecap: butt}</style>
 </defs>
 <g id="figure_1">
  <g id="patch_1">
   <path d="M 0 345.6 
L 460.8 345.6 
L 460.8 0 
L 0 0 
z
" style="fill: #ffffff"/>
  </g>
  <g id="axes_1">
   <g id="patch_2">
    <path d="M 57.6 307.584 
L 414.72 307.584 
L 414.72 41.472 
L 57.6 41.472 
z
" style="fill: #ffffff"/>
   </g>
   <g id="matplotlib.axis_1">
    <g id="xtick_1">
     <g id="line2d_1">
      <defs>
       <path id="m15602861e2" d="M 0 0 
L 0 3.5 
" style="stroke: #000000; stroke-width: 0.8"/>
      </defs>
      <g>
       <use xlink:href="#m15602861e2" x="73.832727" y="307.584" style="stroke: #000000; stroke-width: 0.8"/>
      </g>
     </g>
     <g id="text_1">
      <!-- 0 -->
      <g transform="translate(70.651477 322.182437) scale(0.1 -0.1)">
       <defs>
        <path id="DejaVuSans-30" d="M 2034 4250 
Q 1547 4250 1301 3770 
Q 1056 3291 1056 2328 
Q 1056 1369 1301 889 
Q 1547 409 2034 409 
Q 2525 409 2770 889 
Q 3016 1369 3016 2328 
Q 3016 3291 2770 3770 
Q 2525 4250 2034 4250 
z
M 2034 4750 
Q 2819 4750 3233 4129 
Q 3647 3509 3647 2328 
Q 3647 1150 3233 529 
Q 2819 -91 2034 -91 
Q 1250 -91 836 529 
Q 422 1150 422 2328 
Q 422 3509 836 4129 
Q 1250 4750 2034 4750 
z
" transform="scale(0.015625)"/>
       </defs>
       <use xlink:href="#DejaVuSans-30"/>
      </g>
     </g>
    </g>
    <g id="xtick_2">
     <g id="line2d_2">
      <g>
       <use xlink:href="#m15602861e2" x="125.777455" y="307.584" style="stroke: #000000; stroke-width: 0.8"/>
      </g>
     </g>
     <g id="text_2">
      <!-- 20 -->
      <g transform="translate(119.414955 322.182437) scale(0.1 -0.1)">
       <defs>
        <path id="DejaVuSans-32" d="M 1228 531 
L 3431 531 
L 3431 0 
L 469 0 
L 469 531 
Q 828 903 1448 1529 
Q 2069 2156 2228 2338 
Q 2531 2678 2651 2914 
Q 2772 3150 2772 3378 
Q 2772 3750 2511 3984 
Q 2250 4219 1831 4219 
Q 1534 4219 1204 4116 
Q 875 4013 500 3803 
L 500 4441 
Q 881 4594 1212 4672 
Q 1544 4750 1819 4750 
Q 2544 4750 2975 4387 
Q 3406 4025 3406 3419 
Q 3406 3131 3298 2873 
Q 3191 2616 2906 2266 
Q 2828 2175 2409 1742 
Q 1991 1309 1228 531 
z
" transform="scale(0.015625)"/>
       </defs>
       <use xlink:href="#DejaVuSans-32"/>
       <use xlink:href="#DejaVuSans-30" transform="translate(63.623047 0)"/>
      </g>
     </g>
    </g>
    <g id="xtick_3">
     <g id="line2d_3">
      <g>
       <use xlink:href="#m15602861e2" x="177.722182" y="307.584" style="stroke: #000000; stroke-width: 0.8"/>
      </g>
     </g>
     <g id="text_3">
      <!-- 40 -->
      <g transform="translate(171.359682 322.182437) scale(0.1 -0.1)">
       <defs>
        <path id="DejaVuSans-34" d="M 2419 4116 
L 825 1625 
L 2419 1625 
L 2419 4116 
z
M 2253 4666 
L 3047 4666 
L 3047 1625 
L 3713 1625 
L 3713 1100 
L 3047 1100 
L 3047 0 
L 2419 0 
L 2419 1100 
L 313 1100 
L 313 1709 
L 2253 4666 
z
" transform="scale(0.015625)"/>
       </defs>
       <use xlink:href="#DejaVuSans-34"/>
       <use xlink:href="#DejaVuSans-30" transform="translate(63.623047 0)"/>
      </g>
     </g>
    </g>
    <g id="xtick_4">
     <g id="line2d_4">
      <g>
       <use xlink:href="#m15602861e2" x="229.666909" y="307.584" style="stroke: #000000; stroke-width: 0.8"/>
      </g>
     </g>
     <g id="text_4">
      <!-- 60 -->
      <g transform="translate(223.304409 322.182437) scale(0.1 -0.1)">
       <defs>
        <path id="DejaVuSans-36" d="M 2113 2584 
Q 1688 2584 1439 2293 
Q 1191 2003 1191 1497 
Q 1191 994 1439 701 
Q 1688 409 2113 409 
Q 2538 409 2786 701 
Q 3034 994 3034 1497 
Q 3034 2003 2786 2293 
Q 2538 2584 2113 2584 
z
M 3366 4563 
L 3366 3988 
Q 3128 4100 2886 4159 
Q 2644 4219 2406 4219 
Q 1781 4219 1451 3797 
Q 1122 3375 1075 2522 
Q 1259 2794 1537 2939 
Q 1816 3084 2150 3084 
Q 2853 3084 3261 2657 
Q 3669 2231 3669 1497 
Q 3669 778 3244 343 
Q 2819 -91 2113 -91 
Q 1303 -91 875 529 
Q 447 1150 447 2328 
Q 447 3434 972 4092 
Q 1497 4750 2381 4750 
Q 2619 4750 2861 4703 
Q 3103 4656 3366 4563 
z
" transform="scale(0.015625)"/>
       </defs>
       <use xlink:href="#DejaVuSans-36"/>
       <use xlink:href="#DejaVuSans-30" transform="translate(63.623047 0)"/>
      </g>
     </g>
    </g>
    <g id="xtick_5">
     <g id="line2d_5">
      <g>
       <use xlink:href="#m15602861e2" x="281.611636" y="307.584" style="stroke: #000000; stroke-width: 0.8"/>
      </g>
     </g>
     <g id="text_5">
      <!-- 80 -->
      <g transform="translate(275.249136 322.182437) scale(0.1 -0.1)">
       <defs>
        <path id="DejaVuSans-38" d="M 2034 2216 
Q 1584 2216 1326 1975 
Q 1069 1734 1069 1313 
Q 1069 891 1326 650 
Q 1584 409 2034 409 
Q 2484 409 2743 651 
Q 3003 894 3003 1313 
Q 3003 1734 2745 1975 
Q 2488 2216 2034 2216 
z
M 1403 2484 
Q 997 2584 770 2862 
Q 544 3141 544 3541 
Q 544 4100 942 4425 
Q 1341 4750 2034 4750 
Q 2731 4750 3128 4425 
Q 3525 4100 3525 3541 
Q 3525 3141 3298 2862 
Q 3072 2584 2669 2484 
Q 3125 2378 3379 2068 
Q 3634 1759 3634 1313 
Q 3634 634 3220 271 
Q 2806 -91 2034 -91 
Q 1263 -91 848 271 
Q 434 634 434 1313 
Q 434 1759 690 2068 
Q 947 2378 1403 2484 
z
M 1172 3481 
Q 1172 3119 1398 2916 
Q 1625 2713 2034 2713 
Q 2441 2713 2670 2916 
Q 2900 3119 2900 3481 
Q 2900 3844 2670 4047 
Q 2441 4250 2034 4250 
Q 1625 4250 1398 4047 
Q 1172 3844 1172 3481 
z
" transform="scale(0.015625)"/>
       </defs>
       <use xlink:href="#DejaVuSans-38"/>
       <use xlink:href="#DejaVuSans-30" transform="translate(63.623047 0)"/>
      </g>
     </g>
    </g>
    <g id="xtick_6">
     <g id="line2d_6">
      <g>
       <use xlink:href="#m15602861e2" x="333.556364" y="307.584" style="stroke: #000000; stroke-width: 0.8"/>
      </g>
     </g>
     <g id="text_6">
      <!-- 100 -->
      <g transform="translate(324.012614 322.182437) scale(0.1 -0.1)">
       <defs>
        <path id="DejaVuSans-31" d="M 794 531 
L 1825 531 
L 1825 4091 
L 703 3866 
L 703 4441 
L 1819 4666 
L 2450 4666 
L 2450 531 
L 3481 531 
L 3481 0 
L 794 0 
L 794 531 
z
" transform="scale(0.015625)"/>
       </defs>
       <use xlink:href="#DejaVuSans-31"/>
       <use xlink:href="#DejaVuSans-30" transform="translate(63.623047 0)"/>
       <use xlink:href="#DejaVuSans-30" transform="translate(127.246094 0)"/>
      </g>
     </g>
    </g>
    <g id="xtick_7">
     <g id="line2d_7">
      <g>
       <use xlink:href="#m15602861e2" x="385.501091" y="307.584" style="stroke: #000000; stroke-width: 0.8"/>
      </g>
     </g>
     <g id="text_7">
      <!-- 120 -->
      <g transform="translate(375.957341 322.182437) scale(0.1 -0.1)">
       <use xlink:href="#DejaVuSans-31"/>
       <use xlink:href="#DejaVuSans-32" transform="translate(63.623047 0)"/>
       <use xlink:href="#DejaVuSans-30" transform="translate(127.246094 0)"/>
      </g>
     </g>
    </g>
    <g id="text_8">
     <!-- Frequenz in Hz -->
     <g transform="translate(199.294375 335.860562) scale(0.1 -0.1)">
      <defs>
       <path id="DejaVuSans-46" d="M 628 4666 
L 3309 4666 
L 3309 4134 
L 1259 4134 
L 1259 2759 
L 3109 2759 
L 3109 2228 
L 1259 2228 
L 1259 0 
L 628 0 
L 628 4666 
z
" transform="scale(0.015625)"/>
       <path id="DejaVuSans-72" d="M 2631 2963 
Q 2534 3019 2420 3045 
Q 2306 3072 2169 3072 
Q 1681 3072 1420 2755 
Q 1159 2438 1159 1844 
L 1159 0 
L 581 0 
L 581 3500 
L 1159 3500 
L 1159 2956 
Q 1341 3275 1631 3429 
Q 1922 3584 2338 3584 
Q 2397 3584 2469 3576 
Q 2541 3569 2628 3553 
L 2631 2963 
z
" transform="scale(0.015625)"/>
       <path id="DejaVuSans-65" d="M 3597 1894 
L 3597 1613 
L 953 1613 
Q 991 1019 1311 708 
Q 1631 397 2203 397 
Q 2534 397 2845 478 
Q 3156 559 3463 722 
L 3463 178 
Q 3153 47 2828 -22 
Q 2503 -91 2169 -91 
Q 1331 -91 842 396 
Q 353 884 353 1716 
Q 353 2575 817 3079 
Q 1281 3584 2069 3584 
Q 2775 3584 3186 3129 
Q 3597 2675 3597 1894 
z
M 3022 2063 
Q 3016 2534 2758 2815 
Q 2500 3097 2075 3097 
Q 1594 3097 1305 2825 
Q 1016 2553 972 2059 
L 3022 2063 
z
" transform="scale(0.015625)"/>
       <path id="DejaVuSans-71" d="M 947 1747 
Q 947 1113 1208 752 
Q 1469 391 1925 391 
Q 2381 391 2643 752 
Q 2906 1113 2906 1747 
Q 2906 2381 2643 2742 
Q 2381 3103 1925 3103 
Q 1469 3103 1208 2742 
Q 947 2381 947 1747 
z
M 2906 525 
Q 2725 213 2448 61 
Q 2172 -91 1784 -91 
Q 1150 -91 751 415 
Q 353 922 353 1747 
Q 353 2572 751 3078 
Q 1150 3584 1784 3584 
Q 2172 3584 2448 3432 
Q 2725 3281 2906 2969 
L 2906 3500 
L 3481 3500 
L 3481 -1331 
L 2906 -1331 
L 2906 525 
z
" transform="scale(0.015625)"/>
       <path id="DejaVuSans-75" d="M 544 1381 
L 544 3500 
L 1119 3500 
L 1119 1403 
Q 1119 906 1312 657 
Q 1506 409 1894 409 
Q 2359 409 2629 706 
Q 2900 1003 2900 1516 
L 2900 3500 
L 3475 3500 
L 3475 0 
L 2900 0 
L 2900 538 
Q 2691 219 2414 64 
Q 2138 -91 1772 -91 
Q 1169 -91 856 284 
Q 544 659 544 1381 
z
M 1991 3584 
L 1991 3584 
z
" transform="scale(0.015625)"/>
       <path id="DejaVuSans-6e" d="M 3513 2113 
L 3513 0 
L 2938 0 
L 2938 2094 
Q 2938 2591 2744 2837 
Q 2550 3084 2163 3084 
Q 1697 3084 1428 2787 
Q 1159 2491 1159 1978 
L 1159 0 
L 581 0 
L 581 3500 
L 1159 3500 
L 1159 2956 
Q 1366 3272 1645 3428 
Q 1925 3584 2291 3584 
Q 2894 3584 3203 3211 
Q 3513 2838 3513 2113 
z
" transform="scale(0.015625)"/>
       <path id="DejaVuSans-7a" d="M 353 3500 
L 3084 3500 
L 3084 2975 
L 922 459 
L 3084 459 
L 3084 0 
L 275 0 
L 275 525 
L 2438 3041 
L 353 3041 
L 353 3500 
z
" transform="scale(0.015625)"/>
       <path id="DejaVuSans-20" transform="scale(0.015625)"/>
       <path id="DejaVuSans-69" d="M 603 3500 
L 1178 3500 
L 1178 0 
L 603 0 
L 603 3500 
z
M 603 4863 
L 1178 4863 
L 1178 4134 
L 603 4134 
L 603 4863 
z
" transform="scale(0.015625)"/>
       <path id="DejaVuSans-48" d="M 628 4666 
L 1259 4666 
L 1259 2753 
L 3553 2753 
L 3553 4666 
L 4184 4666 
L 4184 0 
L 3553 0 
L 3553 2222 
L 1259 2222 
L 1259 0 
L 628 0 
L 628 4666 
z
" transform="scale(0.015625)"/>
      </defs>
      <use xlink:href="#DejaVuSans-46"/>
      <use xlink:href="#DejaVuSans-72" transform="translate(50.269531 0)"/>
      <use xlink:href="#DejaVuSans-65" transform="translate(89.132812 0)"/>
      <use xlink:href="#DejaVuSans-71" transform="translate(150.65625 0)"/>
      <use xlink:href="#DejaVuSans-75" transform="translate(214.132812 0)"/>
      <use xlink:href="#DejaVuSans-65" transform="translate(277.511719 0)"/>
      <use xlink:href="#DejaVuSans-6e" transform="translate(339.035156 0)"/>
      <use xlink:href="#DejaVuSans-7a" transform="translate(402.414062 0)"/>
      <use xlink:href="#DejaVuSans-20" transform="translate(454.904297 0)"/>
      <use xlink:href="#DejaVuSans-69" transform="translate(486.691406 0)"/>
      <use xlink:href="#DejaVuSans-6e" transform="translate(514.474609 0)"/>
      <use xlink:href="#DejaVuSans-20" transform="translate(577.853516 0)"/>
      <use xlink:href="#DejaVuSans-48" transform="translate(609.640625 0)"/>
      <use xlink:href="#DejaVuSans-7a" transform="translate(684.835938 0)"/>
     </g>
    </g>
   </g>
   <g id="matplotlib.axis_2">
    <g id="ytick_1">
     <g id="line2d_8">
      <defs>
       <path id="me86b1d040c" d="M 0 0 
L -3.5 0 
" style="stroke: #000000; stroke-width: 0.8"/>
      </defs>
      <g>
       <use xlink:href="#me86b1d040c" x="57.6" y="307.098729" style="stroke: #000000; stroke-width: 0.8"/>
      </g>
     </g>
     <g id="text_9">
      <!-- $\mathdefault{10^{-3}}$ -->
      <g transform="translate(27.1 310.897947) scale(0.1 -0.1)">
       <defs>
        <path id="DejaVuSans-2212" d="M 678 2272 
L 4684 2272 
L 4684 1741 
L 678 1741 
L 678 2272 
z
" transform="scale(0.015625)"/>
        <path id="DejaVuSans-33" d="M 2597 2516 
Q 3050 2419 3304 2112 
Q 3559 1806 3559 1356 
Q 3559 666 3084 287 
Q 2609 -91 1734 -91 
Q 1441 -91 1130 -33 
Q 819 25 488 141 
L 488 750 
Q 750 597 1062 519 
Q 1375 441 1716 441 
Q 2309 441 2620 675 
Q 2931 909 2931 1356 
Q 2931 1769 2642 2001 
Q 2353 2234 1838 2234 
L 1294 2234 
L 1294 2753 
L 1863 2753 
Q 2328 2753 2575 2939 
Q 2822 3125 2822 3475 
Q 2822 3834 2567 4026 
Q 2313 4219 1838 4219 
Q 1578 4219 1281 4162 
Q 984 4106 628 3988 
L 628 4550 
Q 988 4650 1302 4700 
Q 1616 4750 1894 4750 
Q 2613 4750 3031 4423 
Q 3450 4097 3450 3541 
Q 3450 3153 3228 2886 
Q 3006 2619 2597 2516 
z
" transform="scale(0.015625)"/>
       </defs>
       <use xlink:href="#DejaVuSans-31" transform="translate(0 0.765625)"/>
       <use xlink:href="#DejaVuSans-30" transform="translate(63.623047 0.765625)"/>
       <use xlink:href="#DejaVuSans-2212" transform="translate(128.203125 39.046875) scale(0.7)"/>
       <use xlink:href="#DejaVuSans-33" transform="translate(186.855469 39.046875) scale(0.7)"/>
      </g>
     </g>
    </g>
    <g id="ytick_2">
     <g id="line2d_9">
      <g>
       <use xlink:href="#me86b1d040c" x="57.6" y="260.864063" style="stroke: #000000; stroke-width: 0.8"/>
      </g>
     </g>
     <g id="text_10">
      <!-- $\mathdefault{10^{-2}}$ -->
      <g transform="translate(27.1 264.663281) scale(0.1 -0.1)">
       <use xlink:href="#DejaVuSans-31" transform="translate(0 0.765625)"/>
       <use xlink:href="#DejaVuSans-30" transform="translate(63.623047 0.765625)"/>
       <use xlink:href="#DejaVuSans-2212" transform="translate(128.203125 39.046875) scale(0.7)"/>
       <use xlink:href="#DejaVuSans-32" transform="translate(186.855469 39.046875) scale(0.7)"/>
      </g>
     </g>
    </g>
    <g id="ytick_3">
     <g id="line2d_10">
      <g>
       <use xlink:href="#me86b1d040c" x="57.6" y="214.629397" style="stroke: #000000; stroke-width: 0.8"/>
      </g>
     </g>
     <g id="text_11">
      <!-- $\mathdefault{10^{-1}}$ -->
      <g transform="translate(27.1 218.428615) scale(0.1 -0.1)">
       <use xlink:href="#DejaVuSans-31" transform="translate(0 0.684375)"/>
       <use xlink:href="#DejaVuSans-30" transform="translate(63.623047 0.684375)"/>
       <use xlink:href="#DejaVuSans-2212" transform="translate(128.203125 38.965625) scale(0.7)"/>
       <use xlink:href="#DejaVuSans-31" transform="translate(186.855469 38.965625) scale(0.7)"/>
      </g>
     </g>
    </g>
    <g id="ytick_4">
     <g id="line2d_11">
      <g>
       <use xlink:href="#me86b1d040c" x="57.6" y="168.39473" style="stroke: #000000; stroke-width: 0.8"/>
      </g>
     </g>
     <g id="text_12">
      <!-- $\mathdefault{10^{0}}$ -->
      <g transform="translate(33 172.193949) scale(0.1 -0.1)">
       <use xlink:href="#DejaVuSans-31" transform="translate(0 0.765625)"/>
       <use xlink:href="#DejaVuSans-30" transform="translate(63.623047 0.765625)"/>
       <use xlink:href="#DejaVuSans-30" transform="translate(128.203125 39.046875) scale(0.7)"/>
      </g>
     </g>
    </g>
    <g id="ytick_5">
     <g id="line2d_12">
      <g>
       <use xlink:href="#me86b1d040c" x="57.6" y="122.160064" style="stroke: #000000; stroke-width: 0.8"/>
      </g>
     </g>
     <g id="text_13">
      <!-- $\mathdefault{10^{1}}$ -->
      <g transform="translate(33 125.959283) scale(0.1 -0.1)">
       <use xlink:href="#DejaVuSans-31" transform="translate(0 0.684375)"/>
       <use xlink:href="#DejaVuSans-30" transform="translate(63.623047 0.684375)"/>
       <use xlink:href="#DejaVuSans-31" transform="translate(128.203125 38.965625) scale(0.7)"/>
      </g>
     </g>
    </g>
    <g id="ytick_6">
     <g id="line2d_13">
      <g>
       <use xlink:href="#me86b1d040c" x="57.6" y="75.925398" style="stroke: #000000; stroke-width: 0.8"/>
      </g>
     </g>
     <g id="text_14">
      <!-- $\mathdefault{10^{2}}$ -->
      <g transform="translate(33 79.724617) scale(0.1 -0.1)">
       <use xlink:href="#DejaVuSans-31" transform="translate(0 0.765625)"/>
       <use xlink:href="#DejaVuSans-30" transform="translate(63.623047 0.765625)"/>
       <use xlink:href="#DejaVuSans-32" transform="translate(128.203125 39.046875) scale(0.7)"/>
      </g>
     </g>
    </g>
    <g id="ytick_7">
     <g id="line2d_14">
      <defs>
       <path id="ma787c06240" d="M 0 0 
L -2 0 
" style="stroke: #000000; stroke-width: 0.6"/>
      </defs>
      <g>
       <use xlink:href="#ma787c06240" x="57.6" y="293.180707" style="stroke: #000000; stroke-width: 0.6"/>
      </g>
     </g>
    </g>
    <g id="ytick_8">
     <g id="line2d_15">
      <g>
       <use xlink:href="#ma787c06240" x="57.6" y="285.039187" style="stroke: #000000; stroke-width: 0.6"/>
      </g>
     </g>
    </g>
    <g id="ytick_9">
     <g id="line2d_16">
      <g>
       <use xlink:href="#ma787c06240" x="57.6" y="279.262686" style="stroke: #000000; stroke-width: 0.6"/>
      </g>
     </g>
    </g>
    <g id="ytick_10">
     <g id="line2d_17">
      <g>
       <use xlink:href="#ma787c06240" x="57.6" y="274.782084" style="stroke: #000000; stroke-width: 0.6"/>
      </g>
     </g>
    </g>
    <g id="ytick_11">
     <g id="line2d_18">
      <g>
       <use xlink:href="#ma787c06240" x="57.6" y="271.121165" style="stroke: #000000; stroke-width: 0.6"/>
      </g>
     </g>
    </g>
    <g id="ytick_12">
     <g id="line2d_19">
      <g>
       <use xlink:href="#ma787c06240" x="57.6" y="268.025903" style="stroke: #000000; stroke-width: 0.6"/>
      </g>
     </g>
    </g>
    <g id="ytick_13">
     <g id="line2d_20">
      <g>
       <use xlink:href="#ma787c06240" x="57.6" y="265.344665" style="stroke: #000000; stroke-width: 0.6"/>
      </g>
     </g>
    </g>
    <g id="ytick_14">
     <g id="line2d_21">
      <g>
       <use xlink:href="#ma787c06240" x="57.6" y="262.979645" style="stroke: #000000; stroke-width: 0.6"/>
      </g>
     </g>
    </g>
    <g id="ytick_15">
     <g id="line2d_22">
      <g>
       <use xlink:href="#ma787c06240" x="57.6" y="246.946041" style="stroke: #000000; stroke-width: 0.6"/>
      </g>
     </g>
    </g>
    <g id="ytick_16">
     <g id="line2d_23">
      <g>
       <use xlink:href="#ma787c06240" x="57.6" y="238.804521" style="stroke: #000000; stroke-width: 0.6"/>
      </g>
     </g>
    </g>
    <g id="ytick_17">
     <g id="line2d_24">
      <g>
       <use xlink:href="#ma787c06240" x="57.6" y="233.02802" style="stroke: #000000; stroke-width: 0.6"/>
      </g>
     </g>
    </g>
    <g id="ytick_18">
     <g id="line2d_25">
      <g>
       <use xlink:href="#ma787c06240" x="57.6" y="228.547418" style="stroke: #000000; stroke-width: 0.6"/>
      </g>
     </g>
    </g>
    <g id="ytick_19">
     <g id="line2d_26">
      <g>
       <use xlink:href="#ma787c06240" x="57.6" y="224.886499" style="stroke: #000000; stroke-width: 0.6"/>
      </g>
     </g>
    </g>
    <g id="ytick_20">
     <g id="line2d_27">
      <g>
       <use xlink:href="#ma787c06240" x="57.6" y="221.791237" style="stroke: #000000; stroke-width: 0.6"/>
      </g>
     </g>
    </g>
    <g id="ytick_21">
     <g id="line2d_28">
      <g>
       <use xlink:href="#ma787c06240" x="57.6" y="219.109999" style="stroke: #000000; stroke-width: 0.6"/>
      </g>
     </g>
    </g>
    <g id="ytick_22">
     <g id="line2d_29">
      <g>
       <use xlink:href="#ma787c06240" x="57.6" y="216.744979" style="stroke: #000000; stroke-width: 0.6"/>
      </g>
     </g>
    </g>
    <g id="ytick_23">
     <g id="line2d_30">
      <g>
       <use xlink:href="#ma787c06240" x="57.6" y="200.711375" style="stroke: #000000; stroke-width: 0.6"/>
      </g>
     </g>
    </g>
    <g id="ytick_24">
     <g id="line2d_31">
      <g>
       <use xlink:href="#ma787c06240" x="57.6" y="192.569855" style="stroke: #000000; stroke-width: 0.6"/>
      </g>
     </g>
    </g>
    <g id="ytick_25">
     <g id="line2d_32">
      <g>
       <use xlink:href="#ma787c06240" x="57.6" y="186.793354" style="stroke: #000000; stroke-width: 0.6"/>
      </g>
     </g>
    </g>
    <g id="ytick_26">
     <g id="line2d_33">
      <g>
       <use xlink:href="#ma787c06240" x="57.6" y="182.312752" style="stroke: #000000; stroke-width: 0.6"/>
      </g>
     </g>
    </g>
    <g id="ytick_27">
     <g id="line2d_34">
      <g>
       <use xlink:href="#ma787c06240" x="57.6" y="178.651833" style="stroke: #000000; stroke-width: 0.6"/>
      </g>
     </g>
    </g>
    <g id="ytick_28">
     <g id="line2d_35">
      <g>
       <use xlink:href="#ma787c06240" x="57.6" y="175.556571" style="stroke: #000000; stroke-width: 0.6"/>
      </g>
     </g>
    </g>
    <g id="ytick_29">
     <g id="line2d_36">
      <g>
       <use xlink:href="#ma787c06240" x="57.6" y="172.875332" style="stroke: #000000; stroke-width: 0.6"/>
      </g>
     </g>
    </g>
    <g id="ytick_30">
     <g id="line2d_37">
      <g>
       <use xlink:href="#ma787c06240" x="57.6" y="170.510313" style="stroke: #000000; stroke-width: 0.6"/>
      </g>
     </g>
    </g>
    <g id="ytick_31">
     <g id="line2d_38">
      <g>
       <use xlink:href="#ma787c06240" x="57.6" y="154.476709" style="stroke: #000000; stroke-width: 0.6"/>
      </g>
     </g>
    </g>
    <g id="ytick_32">
     <g id="line2d_39">
      <g>
       <use xlink:href="#ma787c06240" x="57.6" y="146.335188" style="stroke: #000000; stroke-width: 0.6"/>
      </g>
     </g>
    </g>
    <g id="ytick_33">
     <g id="line2d_40">
      <g>
       <use xlink:href="#ma787c06240" x="57.6" y="140.558688" style="stroke: #000000; stroke-width: 0.6"/>
      </g>
     </g>
    </g>
    <g id="ytick_34">
     <g id="line2d_41">
      <g>
       <use xlink:href="#ma787c06240" x="57.6" y="136.078086" style="stroke: #000000; stroke-width: 0.6"/>
      </g>
     </g>
    </g>
    <g id="ytick_35">
     <g id="line2d_42">
      <g>
       <use xlink:href="#ma787c06240" x="57.6" y="132.417167" style="stroke: #000000; stroke-width: 0.6"/>
      </g>
     </g>
    </g>
    <g id="ytick_36">
     <g id="line2d_43">
      <g>
       <use xlink:href="#ma787c06240" x="57.6" y="129.321905" style="stroke: #000000; stroke-width: 0.6"/>
      </g>
     </g>
    </g>
    <g id="ytick_37">
     <g id="line2d_44">
      <g>
       <use xlink:href="#ma787c06240" x="57.6" y="126.640666" style="stroke: #000000; stroke-width: 0.6"/>
      </g>
     </g>
    </g>
    <g id="ytick_38">
     <g id="line2d_45">
      <g>
       <use xlink:href="#ma787c06240" x="57.6" y="124.275647" style="stroke: #000000; stroke-width: 0.6"/>
      </g>
     </g>
    </g>
    <g id="ytick_39">
     <g id="line2d_46">
      <g>
       <use xlink:href="#ma787c06240" x="57.6" y="108.242043" style="stroke: #000000; stroke-width: 0.6"/>
      </g>
     </g>
    </g>
    <g id="ytick_40">
     <g id="line2d_47">
      <g>
       <use xlink:href="#ma787c06240" x="57.6" y="100.100522" style="stroke: #000000; stroke-width: 0.6"/>
      </g>
     </g>
    </g>
    <g id="ytick_41">
     <g id="line2d_48">
      <g>
       <use xlink:href="#ma787c06240" x="57.6" y="94.324022" style="stroke: #000000; stroke-width: 0.6"/>
      </g>
     </g>
    </g>
    <g id="ytick_42">
     <g id="line2d_49">
      <g>
       <use xlink:href="#ma787c06240" x="57.6" y="89.84342" style="stroke: #000000; stroke-width: 0.6"/>
      </g>
     </g>
    </g>
    <g id="ytick_43">
     <g id="line2d_50">
      <g>
       <use xlink:href="#ma787c06240" x="57.6" y="86.182501" style="stroke: #000000; stroke-width: 0.6"/>
      </g>
     </g>
    </g>
    <g id="ytick_44">
     <g id="line2d_51">
      <g>
       <use xlink:href="#ma787c06240" x="57.6" y="83.087239" style="stroke: #000000; stroke-width: 0.6"/>
      </g>
     </g>
    </g>
    <g id="ytick_45">
     <g id="line2d_52">
      <g>
       <use xlink:href="#ma787c06240" x="57.6" y="80.406" style="stroke: #000000; stroke-width: 0.6"/>
      </g>
     </g>
    </g>
    <g id="ytick_46">
     <g id="line2d_53">
      <g>
       <use xlink:href="#ma787c06240" x="57.6" y="78.04098" style="stroke: #000000; stroke-width: 0.6"/>
      </g>
     </g>
    </g>
    <g id="ytick_47">
     <g id="line2d_54">
      <g>
       <use xlink:href="#ma787c06240" x="57.6" y="62.007377" style="stroke: #000000; stroke-width: 0.6"/>
      </g>
     </g>
    </g>
    <g id="ytick_48">
     <g id="line2d_55">
      <g>
       <use xlink:href="#ma787c06240" x="57.6" y="53.865856" style="stroke: #000000; stroke-width: 0.6"/>
      </g>
     </g>
    </g>
    <g id="ytick_49">
     <g id="line2d_56">
      <g>
       <use xlink:href="#ma787c06240" x="57.6" y="48.089356" style="stroke: #000000; stroke-width: 0.6"/>
      </g>
     </g>
    </g>
    <g id="ytick_50">
     <g id="line2d_57">
      <g>
       <use xlink:href="#ma787c06240" x="57.6" y="43.608753" style="stroke: #000000; stroke-width: 0.6"/>
      </g>
     </g>
    </g>
    <g id="text_15">
     <!-- Leistung/Frequenz (V²/Hz) -->
     <g transform="translate(21.020312 239.182687) rotate(-90) scale(0.1 -0.1)">
      <defs>
       <path id="DejaVuSans-4c" d="M 628 4666 
L 1259 4666 
L 1259 531 
L 3531 531 
L 3531 0 
L 628 0 
L 628 4666 
z
" transform="scale(0.015625)"/>
       <path id="DejaVuSans-73" d="M 2834 3397 
L 2834 2853 
Q 2591 2978 2328 3040 
Q 2066 3103 1784 3103 
Q 1356 3103 1142 2972 
Q 928 2841 928 2578 
Q 928 2378 1081 2264 
Q 1234 2150 1697 2047 
L 1894 2003 
Q 2506 1872 2764 1633 
Q 3022 1394 3022 966 
Q 3022 478 2636 193 
Q 2250 -91 1575 -91 
Q 1294 -91 989 -36 
Q 684 19 347 128 
L 347 722 
Q 666 556 975 473 
Q 1284 391 1588 391 
Q 1994 391 2212 530 
Q 2431 669 2431 922 
Q 2431 1156 2273 1281 
Q 2116 1406 1581 1522 
L 1381 1569 
Q 847 1681 609 1914 
Q 372 2147 372 2553 
Q 372 3047 722 3315 
Q 1072 3584 1716 3584 
Q 2034 3584 2315 3537 
Q 2597 3491 2834 3397 
z
" transform="scale(0.015625)"/>
       <path id="DejaVuSans-74" d="M 1172 4494 
L 1172 3500 
L 2356 3500 
L 2356 3053 
L 1172 3053 
L 1172 1153 
Q 1172 725 1289 603 
Q 1406 481 1766 481 
L 2356 481 
L 2356 0 
L 1766 0 
Q 1100 0 847 248 
Q 594 497 594 1153 
L 594 3053 
L 172 3053 
L 172 3500 
L 594 3500 
L 594 4494 
L 1172 4494 
z
" transform="scale(0.015625)"/>
       <path id="DejaVuSans-67" d="M 2906 1791 
Q 2906 2416 2648 2759 
Q 2391 3103 1925 3103 
Q 1463 3103 1205 2759 
Q 947 2416 947 1791 
Q 947 1169 1205 825 
Q 1463 481 1925 481 
Q 2391 481 2648 825 
Q 2906 1169 2906 1791 
z
M 3481 434 
Q 3481 -459 3084 -895 
Q 2688 -1331 1869 -1331 
Q 1566 -1331 1297 -1286 
Q 1028 -1241 775 -1147 
L 775 -588 
Q 1028 -725 1275 -790 
Q 1522 -856 1778 -856 
Q 2344 -856 2625 -561 
Q 2906 -266 2906 331 
L 2906 616 
Q 2728 306 2450 153 
Q 2172 0 1784 0 
Q 1141 0 747 490 
Q 353 981 353 1791 
Q 353 2603 747 3093 
Q 1141 3584 1784 3584 
Q 2172 3584 2450 3431 
Q 2728 3278 2906 2969 
L 2906 3500 
L 3481 3500 
L 3481 434 
z
" transform="scale(0.015625)"/>
       <path id="DejaVuSans-2f" d="M 1625 4666 
L 2156 4666 
L 531 -594 
L 0 -594 
L 1625 4666 
z
" transform="scale(0.015625)"/>
       <path id="DejaVuSans-28" d="M 1984 4856 
Q 1566 4138 1362 3434 
Q 1159 2731 1159 2009 
Q 1159 1288 1364 580 
Q 1569 -128 1984 -844 
L 1484 -844 
Q 1016 -109 783 600 
Q 550 1309 550 2009 
Q 550 2706 781 3412 
Q 1013 4119 1484 4856 
L 1984 4856 
z
" transform="scale(0.015625)"/>
       <path id="DejaVuSans-56" d="M 1831 0 
L 50 4666 
L 709 4666 
L 2188 738 
L 3669 4666 
L 4325 4666 
L 2547 0 
L 1831 0 
z
" transform="scale(0.015625)"/>
       <path id="DejaVuSans-b2" d="M 838 2444 
L 2163 2444 
L 2163 2088 
L 294 2088 
L 294 2431 
Q 400 2528 597 2703 
Q 1672 3656 1672 3950 
Q 1672 4156 1509 4282 
Q 1347 4409 1081 4409 
Q 919 4409 728 4354 
Q 538 4300 313 4191 
L 313 4575 
Q 553 4663 761 4706 
Q 969 4750 1147 4750 
Q 1600 4750 1872 4544 
Q 2144 4338 2144 4000 
Q 2144 3566 1109 2678 
Q 934 2528 838 2444 
z
" transform="scale(0.015625)"/>
       <path id="DejaVuSans-29" d="M 513 4856 
L 1013 4856 
Q 1481 4119 1714 3412 
Q 1947 2706 1947 2009 
Q 1947 1309 1714 600 
Q 1481 -109 1013 -844 
L 513 -844 
Q 928 -128 1133 580 
Q 1338 1288 1338 2009 
Q 1338 2731 1133 3434 
Q 928 4138 513 4856 
z
" transform="scale(0.015625)"/>
      </defs>
      <use xlink:href="#DejaVuSans-4c"/>
      <use xlink:href="#DejaVuSans-65" transform="translate(53.962891 0)"/>
      <use xlink:href="#DejaVuSans-69" transform="translate(115.486328 0)"/>
      <use xlink:href="#DejaVuSans-73" transform="translate(143.269531 0)"/>
      <use xlink:href="#DejaVuSans-74" transform="translate(195.369141 0)"/>
      <use xlink:href="#DejaVuSans-75" transform="translate(234.578125 0)"/>
      <use xlink:href="#DejaVuSans-6e" transform="translate(297.957031 0)"/>
      <use xlink:href="#DejaVuSans-67" transform="translate(361.335938 0)"/>
      <use xlink:href="#DejaVuSans-2f" transform="translate(424.8125 0)"/>
      <use xlink:href="#DejaVuSans-46" transform="translate(458.503906 0)"/>
      <use xlink:href="#DejaVuSans-72" transform="translate(508.773438 0)"/>
      <use xlink:href="#DejaVuSans-65" transform="translate(547.636719 0)"/>
      <use xlink:href="#DejaVuSans-71" transform="translate(609.160156 0)"/>
      <use xlink:href="#DejaVuSans-75" transform="translate(672.636719 0)"/>
      <use xlink:href="#DejaVuSans-65" transform="translate(736.015625 0)"/>
      <use xlink:href="#DejaVuSans-6e" transform="translate(797.539062 0)"/>
      <use xlink:href="#DejaVuSans-7a" transform="translate(860.917969 0)"/>
      <use xlink:href="#DejaVuSans-20" transform="translate(913.408203 0)"/>
      <use xlink:href="#DejaVuSans-28" transform="translate(945.195312 0)"/>
      <use xlink:href="#DejaVuSans-56" transform="translate(984.208984 0)"/>
      <use xlink:href="#DejaVuSans-b2" transform="translate(1052.617188 0)"/>
      <use xlink:href="#DejaVuSans-2f" transform="translate(1092.705078 0)"/>
      <use xlink:href="#DejaVuSans-48" transform="translate(1126.396484 0)"/>
      <use xlink:href="#DejaVuSans-7a" transform="translate(1201.591797 0)"/>
      <use xlink:href="#DejaVuSans-29" transform="translate(1254.082031 0)"/>
     </g>
    </g>
   </g>
   <g id="line2d_58">
    <path d="M 73.832727 88.054091 
L 74.149773 53.568 
L 74.783864 68.363177 
L 75.100909 71.954492 
L 76.369091 102.579455 
L 77.320227 124.736558 
L 77.954318 132.43532 
L 78.588409 141.870369 
L 78.905455 141.790482 
L 79.2225 145.041054 
L 79.856591 152.967506 
L 80.490682 159.234289 
L 80.807727 163.920469 
L 81.124773 164.54685 
L 81.441818 164.003761 
L 81.758864 167.399716 
L 82.075909 167.489692 
L 82.392955 169.17475 
L 82.71 173.871956 
L 83.027045 175.020907 
L 83.344091 175.613211 
L 83.661136 178.060231 
L 83.978182 173.038436 
L 84.295227 170.465461 
L 84.612273 182.219679 
L 85.246364 188.688212 
L 85.880455 193.825045 
L 86.1975 192.907326 
L 86.514545 193.312549 
L 86.831591 196.771712 
L 87.148636 197.102964 
L 87.465682 195.574217 
L 88.099773 202.242763 
L 88.733864 200.593914 
L 89.050909 199.13603 
L 89.367955 191.155861 
L 90.002045 205.049482 
L 90.319091 205.073661 
L 90.636136 207.562154 
L 90.953182 208.198372 
L 91.270227 208.514657 
L 91.587273 209.256889 
L 92.221364 208.766401 
L 92.538409 207.996237 
L 92.855455 208.505964 
L 93.1725 208.497683 
L 93.806591 210.178926 
L 94.123636 207.721201 
L 94.440682 193.813098 
L 94.757727 195.031108 
L 95.074773 206.693348 
L 95.391818 210.309426 
L 95.708864 210.905225 
L 96.025909 209.638766 
L 96.342955 210.361177 
L 96.66 208.751671 
L 96.977045 208.233765 
L 97.294091 209.919356 
L 97.611136 208.801334 
L 97.928182 209.362862 
L 98.245227 207.321668 
L 98.562273 206.959012 
L 98.879318 207.780001 
L 99.196364 203.722782 
L 99.513409 183.720801 
L 99.830455 175.282419 
L 100.464545 202.830583 
L 100.781591 203.850873 
L 101.098636 205.30162 
L 101.415682 205.001334 
L 101.732727 203.807259 
L 102.049773 204.320094 
L 102.366818 206.600335 
L 103.000909 204.482089 
L 103.317955 203.420673 
L 103.635 203.033235 
L 103.952045 201.433101 
L 104.269091 200.462739 
L 104.903182 177.426603 
L 105.220227 184.983595 
L 105.537273 195.280549 
L 105.854318 198.281896 
L 106.171364 198.64231 
L 106.488409 199.362676 
L 106.805455 202.20351 
L 107.1225 201.584653 
L 107.439545 198.873569 
L 108.073636 197.706364 
L 108.390682 197.958658 
L 108.707727 199.054952 
L 109.341818 196.249249 
L 109.658864 190.965369 
L 109.975909 180.098592 
L 110.292955 181.168192 
L 110.61 192.321577 
L 111.244091 199.183047 
L 111.561136 200.844112 
L 111.878182 197.271488 
L 112.195227 198.23196 
L 112.512273 200.537914 
L 112.829318 197.876097 
L 113.146364 196.960206 
L 113.463409 200.371924 
L 113.780455 202.407797 
L 114.0975 202.740183 
L 114.414545 201.124464 
L 114.731591 196.280954 
L 115.048636 182.888868 
L 115.365682 177.669074 
L 115.999773 197.117081 
L 116.633864 202.44628 
L 116.950909 200.590157 
L 117.267955 199.809557 
L 117.585 200.50248 
L 118.219091 198.107195 
L 118.536136 200.526647 
L 118.853182 200.309909 
L 119.170227 199.291832 
L 119.487273 198.66633 
L 119.804318 194.370102 
L 120.438409 176.13116 
L 120.755455 182.580664 
L 121.0725 194.833017 
L 121.389545 200.30476 
L 122.023636 202.54467 
L 122.340682 202.225969 
L 122.657727 202.458704 
L 122.974773 199.276894 
L 123.291818 199.182636 
L 123.608864 198.053605 
L 123.925909 198.945141 
L 124.242955 198.45296 
L 124.56 198.448024 
L 125.194091 193.87183 
L 125.511136 184.291512 
L 125.828182 183.754306 
L 126.462273 196.885943 
L 126.779318 200.391249 
L 127.096364 201.210081 
L 127.413409 196.88973 
L 127.730455 196.377312 
L 128.0475 198.834546 
L 128.364545 199.629902 
L 128.681591 196.505546 
L 128.998636 197.162853 
L 129.315682 201.616158 
L 129.632727 201.438125 
L 129.949773 199.423941 
L 130.583864 187.280749 
L 130.900909 187.716639 
L 131.535 194.948528 
L 131.852045 197.12448 
L 132.169091 196.281225 
L 132.486136 196.238994 
L 132.803182 197.058549 
L 133.120227 196.66733 
L 133.437273 198.161792 
L 134.071364 194.032129 
L 134.388409 194.898799 
L 134.705455 194.979956 
L 135.339545 191.956192 
L 135.973636 185.131564 
L 136.290682 186.301568 
L 136.607727 189.077531 
L 136.924773 194.574317 
L 137.241818 195.619365 
L 137.558864 195.685014 
L 137.875909 195.379815 
L 138.192955 194.712064 
L 138.827045 190.485877 
L 139.144091 192.154949 
L 139.461136 195.255978 
L 139.778182 192.984944 
L 140.095227 188.830396 
L 140.412273 191.370556 
L 140.729318 189.588797 
L 141.046364 186.183325 
L 141.363409 185.922007 
L 141.680455 187.443336 
L 141.9975 187.797601 
L 142.314545 190.006838 
L 142.631591 190.902953 
L 142.948636 190.857548 
L 143.265682 185.882391 
L 143.582727 186.518768 
L 143.899773 188.276349 
L 144.216818 192.535905 
L 144.533864 193.378541 
L 145.167955 188.233539 
L 145.485 183.608107 
L 145.802045 183.627226 
L 146.119091 185.598019 
L 146.436136 186.444493 
L 146.753182 188.02267 
L 147.070227 190.546644 
L 147.387273 191.600282 
L 147.704318 190.575849 
L 148.021364 190.417746 
L 148.338409 186.43451 
L 148.655455 185.013418 
L 148.9725 184.743606 
L 149.289545 186.117641 
L 149.606591 185.498824 
L 149.923636 186.851117 
L 150.557727 186.816681 
L 150.874773 183.458344 
L 151.191818 183.311314 
L 151.508864 185.250545 
L 151.825909 183.169399 
L 152.142955 184.304977 
L 152.46 186.39047 
L 152.777045 186.576518 
L 153.094091 187.024393 
L 153.411136 187.032959 
L 153.728182 186.246788 
L 154.045227 185.820812 
L 154.362273 186.490146 
L 154.679318 184.78106 
L 154.996364 186.813855 
L 155.313409 185.165315 
L 155.630455 184.892551 
L 155.9475 185.730654 
L 156.264545 185.605283 
L 156.581591 183.933084 
L 156.898636 181.56517 
L 157.215682 183.463695 
L 157.532727 184.512019 
L 158.166818 187.915753 
L 159.435 182.217778 
L 159.752045 182.362298 
L 160.069091 180.074389 
L 160.386136 184.385827 
L 160.703182 185.112078 
L 161.020227 184.905774 
L 161.654318 181.997076 
L 161.971364 182.322165 
L 162.288409 182.966609 
L 162.605455 183.211058 
L 162.9225 182.383792 
L 163.873636 186.739524 
L 164.190682 184.913105 
L 164.507727 185.842871 
L 164.824773 186.142238 
L 165.141818 184.073182 
L 165.458864 185.64312 
L 165.775909 185.141391 
L 166.092955 185.809653 
L 166.41 187.828857 
L 166.727045 184.393664 
L 167.044091 186.219584 
L 167.361136 187.126429 
L 167.678182 179.901207 
L 167.995227 179.973643 
L 168.312273 183.430415 
L 168.629318 183.601447 
L 168.946364 182.8249 
L 169.263409 182.889351 
L 169.580455 184.275247 
L 169.8975 182.691951 
L 170.214545 184.132642 
L 170.531591 182.22852 
L 170.848636 182.293707 
L 171.165682 186.775496 
L 172.116818 181.040889 
L 172.433864 179.586056 
L 172.750909 181.95567 
L 173.067955 183.327808 
L 173.385 184.011677 
L 173.702045 181.008829 
L 174.019091 180.123622 
L 174.336136 179.687482 
L 174.653182 180.165003 
L 174.970227 182.031539 
L 175.287273 181.769902 
L 175.604318 177.702801 
L 175.921364 177.864684 
L 176.238409 179.221532 
L 176.555455 181.376765 
L 176.8725 180.031032 
L 177.189545 179.465068 
L 177.506591 175.997094 
L 177.823636 174.751577 
L 178.140682 177.339907 
L 178.457727 182.492298 
L 178.774773 181.811603 
L 179.091818 181.541491 
L 179.408864 179.314943 
L 179.725909 178.318523 
L 180.042955 178.963335 
L 180.36 178.652753 
L 180.677045 179.199501 
L 180.994091 182.827993 
L 181.311136 184.755746 
L 181.628182 179.511686 
L 181.945227 179.88019 
L 182.579318 181.677062 
L 182.896364 181.213418 
L 183.213409 182.272786 
L 183.8475 180.024818 
L 184.164545 181.672196 
L 184.798636 178.085337 
L 185.432727 179.68153 
L 185.749773 179.08916 
L 186.066818 179.585978 
L 186.383864 181.774011 
L 186.700909 180.977436 
L 187.017955 178.486053 
L 187.335 178.824479 
L 187.969091 181.193438 
L 188.286136 178.844192 
L 188.603182 180.027136 
L 188.920227 178.359525 
L 189.237273 178.245179 
L 189.554318 178.63549 
L 189.871364 176.393999 
L 190.188409 176.748846 
L 190.505455 180.203314 
L 190.8225 181.28377 
L 191.139545 180.69685 
L 191.773636 177.413891 
L 192.407727 172.231403 
L 192.724773 175.536998 
L 193.041818 176.290567 
L 193.675909 180.340674 
L 193.992955 179.359663 
L 194.31 180.255639 
L 194.944091 178.054653 
L 195.578182 172.433399 
L 195.895227 176.929372 
L 196.212273 177.823179 
L 196.529318 177.225566 
L 197.163409 178.610606 
L 197.7975 176.773372 
L 198.431591 181.905508 
L 198.748636 177.776111 
L 199.065682 175.598487 
L 199.382727 176.854685 
L 199.699773 175.175825 
L 200.016818 176.277862 
L 200.333864 180.068302 
L 200.650909 176.504083 
L 200.967955 176.637843 
L 201.602045 179.124677 
L 201.919091 179.884336 
L 202.236136 179.445812 
L 202.553182 180.178892 
L 202.870227 175.799081 
L 203.187273 174.918583 
L 203.504318 175.282361 
L 203.821364 174.408229 
L 204.138409 175.562358 
L 204.455455 175.615406 
L 204.7725 178.424535 
L 205.089545 178.428275 
L 205.406591 177.771102 
L 205.723636 175.727359 
L 206.357727 177.811493 
L 206.674773 176.70672 
L 206.991818 175.092809 
L 207.308864 174.110806 
L 207.625909 177.466656 
L 207.942955 177.619315 
L 208.26 175.09174 
L 208.577045 177.560863 
L 208.894091 177.687256 
L 209.528182 174.090341 
L 209.845227 173.97283 
L 210.162273 175.802798 
L 210.479318 175.454411 
L 210.796364 176.167206 
L 211.113409 176.427183 
L 211.430455 174.873408 
L 211.7475 171.696693 
L 212.381591 177.570927 
L 212.698636 175.630674 
L 213.332727 179.530117 
L 213.649773 178.742151 
L 214.283864 173.955215 
L 214.600909 173.155242 
L 215.552045 178.534202 
L 215.869091 174.922573 
L 216.186136 173.376013 
L 216.820227 178.809857 
L 217.137273 178.496301 
L 217.454318 175.88175 
L 217.771364 175.786659 
L 218.088409 177.050325 
L 218.405455 176.713334 
L 219.039545 172.961169 
L 219.356591 176.117519 
L 219.673636 177.917379 
L 219.990682 177.840949 
L 220.307727 177.407475 
L 220.624773 178.727432 
L 220.941818 179.395351 
L 221.258864 174.805285 
L 221.575909 173.993388 
L 221.892955 172.220182 
L 222.527045 172.336289 
L 222.844091 173.014096 
L 223.478182 176.627411 
L 224.112273 174.47881 
L 224.429318 175.880037 
L 225.063409 179.833395 
L 225.380455 178.55773 
L 225.6975 175.243294 
L 226.014545 175.287953 
L 226.331591 175.501339 
L 226.965682 174.434786 
L 227.599773 168.279147 
L 228.233864 177.860561 
L 229.185 163.37922 
L 229.502045 114.503941 
L 229.819091 109.622613 
L 230.136136 153.55204 
L 230.453182 170.365473 
L 231.087273 175.129775 
L 231.404318 174.07388 
L 231.721364 174.818316 
L 232.038409 172.696344 
L 232.6725 176.855812 
L 233.306591 171.870693 
L 233.623636 174.08979 
L 234.257727 174.842423 
L 234.574773 174.32701 
L 235.208864 171.299033 
L 235.525909 171.345663 
L 235.842955 176.018262 
L 236.16 174.288889 
L 236.794091 173.625485 
L 237.111136 175.793466 
L 237.745227 171.348213 
L 238.062273 174.581373 
L 238.379318 176.014623 
L 239.013409 171.975018 
L 239.330455 173.740146 
L 239.6475 173.529484 
L 239.964545 174.110409 
L 240.598636 169.497508 
L 240.915682 170.422873 
L 241.549773 176.903624 
L 241.866818 172.947547 
L 242.183864 171.640703 
L 242.500909 173.150746 
L 242.817955 173.438432 
L 243.135 175.080056 
L 243.452045 173.725285 
L 243.769091 175.775693 
L 244.086136 174.054985 
L 244.403182 171.041179 
L 244.720227 176.169674 
L 245.037273 174.355196 
L 245.354318 171.179022 
L 245.671364 170.98869 
L 246.305455 174.52215 
L 246.6225 173.550061 
L 246.939545 176.978696 
L 247.256591 174.03477 
L 247.573636 174.327327 
L 247.890682 177.036391 
L 248.207727 176.343871 
L 248.524773 174.026967 
L 248.841818 174.188544 
L 249.158864 171.656351 
L 249.475909 173.925137 
L 249.792955 175.127189 
L 250.11 172.193421 
L 250.427045 170.787906 
L 250.744091 171.881695 
L 251.061136 172.251347 
L 251.378182 172.259897 
L 252.012273 171.69625 
L 252.329318 172.746257 
L 252.646364 174.827327 
L 253.280455 170.555429 
L 253.5975 168.406132 
L 253.914545 169.054951 
L 254.548636 171.743923 
L 254.865682 170.25876 
L 255.499773 175.030741 
L 255.816818 176.575133 
L 256.133864 175.966835 
L 256.450909 174.983171 
L 256.767955 175.807224 
L 257.085 177.182405 
L 257.719091 173.299863 
L 258.036136 173.351235 
L 258.670227 176.233407 
L 258.987273 174.226434 
L 259.304318 174.078243 
L 259.621364 172.506161 
L 259.938409 174.86678 
L 260.5725 169.923875 
L 260.889545 172.285963 
L 261.523636 170.351607 
L 261.840682 169.791437 
L 262.474773 176.180996 
L 263.108864 170.949792 
L 263.425909 169.522691 
L 263.742955 171.372112 
L 264.06 172.479892 
L 264.377045 172.832069 
L 264.694091 175.490713 
L 265.011136 175.365361 
L 265.328182 173.678932 
L 265.645227 172.834079 
L 265.962273 174.527 
L 266.279318 178.016432 
L 266.596364 175.883092 
L 266.913409 171.062803 
L 267.230455 172.5937 
L 267.5475 171.134484 
L 267.864545 171.441908 
L 268.181591 171.938908 
L 268.498636 172.765698 
L 268.815682 171.074824 
L 269.132727 170.350484 
L 269.449773 171.754763 
L 269.766818 176.442684 
L 270.083864 173.004707 
L 270.400909 171.403147 
L 270.717955 173.985836 
L 271.035 174.09811 
L 271.352045 174.901951 
L 271.669091 170.27136 
L 271.986136 170.389312 
L 272.303182 171.591044 
L 272.620227 171.086135 
L 272.937273 173.412219 
L 273.254318 172.085275 
L 273.571364 173.094324 
L 273.888409 173.003189 
L 274.205455 172.187672 
L 274.5225 175.533173 
L 274.839545 174.760131 
L 275.156591 174.460438 
L 275.473636 176.185939 
L 275.790682 172.993745 
L 276.424773 170.185713 
L 276.741818 171.132078 
L 277.058864 173.855693 
L 277.375909 172.688504 
L 277.692955 173.688846 
L 278.01 178.755507 
L 278.327045 178.228392 
L 278.644091 172.258201 
L 278.961136 170.999658 
L 279.278182 169.002711 
L 280.229318 174.79981 
L 280.546364 175.433242 
L 280.863409 171.569373 
L 281.4975 173.558619 
L 281.814545 173.581747 
L 282.131591 175.810785 
L 282.448636 175.238885 
L 282.765682 171.625148 
L 283.082727 169.686341 
L 283.399773 170.975824 
L 283.716818 171.729735 
L 284.033864 173.097823 
L 284.350909 172.690622 
L 284.985 167.085773 
L 285.302045 170.955561 
L 285.936136 173.827102 
L 286.253182 174.891678 
L 286.570227 174.951913 
L 287.204318 170.186849 
L 287.521364 170.460925 
L 287.838409 167.579679 
L 288.155455 168.635401 
L 288.4725 171.222884 
L 288.789545 171.537518 
L 289.106591 171.501196 
L 289.740682 169.313568 
L 290.057727 169.319891 
L 290.374773 169.186575 
L 290.691818 169.76383 
L 291.008864 171.049614 
L 291.325909 169.200079 
L 291.96 172.816049 
L 292.277045 172.637662 
L 292.594091 171.380373 
L 292.911136 171.580884 
L 293.228182 174.555509 
L 293.545227 172.982819 
L 293.862273 168.564478 
L 294.179318 166.590202 
L 294.813409 173.581971 
L 295.4475 175.935842 
L 295.764545 175.117023 
L 296.081591 169.337852 
L 296.715682 174.838041 
L 297.349773 173.709781 
L 297.666818 171.709255 
L 297.983864 172.872088 
L 298.300909 172.288951 
L 298.617955 170.71952 
L 298.935 171.66116 
L 299.252045 174.69555 
L 299.569091 175.09395 
L 299.886136 170.792564 
L 300.520227 173.329905 
L 300.837273 173.035934 
L 301.154318 174.086545 
L 301.471364 172.977288 
L 301.788409 172.727204 
L 302.739545 169.805142 
L 303.056591 172.573892 
L 303.373636 178.046244 
L 304.007727 170.082722 
L 304.641818 171.78024 
L 304.958864 172.285005 
L 305.275909 173.545505 
L 305.592955 171.674742 
L 305.91 170.770259 
L 306.544091 172.470593 
L 306.861136 171.874211 
L 307.178182 170.601693 
L 307.495227 170.751106 
L 307.812273 169.980385 
L 308.129318 170.758543 
L 308.446364 170.994386 
L 308.763409 173.143018 
L 309.080455 173.008025 
L 309.3975 172.316511 
L 309.714545 171.094998 
L 310.031591 172.054832 
L 310.348636 174.057784 
L 310.665682 172.182503 
L 311.299773 169.998758 
L 311.616818 169.730666 
L 311.933864 172.207409 
L 312.250909 170.824766 
L 312.567955 171.42454 
L 312.885 168.69835 
L 313.202045 170.125585 
L 313.519091 172.473343 
L 313.836136 172.253209 
L 314.153182 171.018729 
L 314.470227 172.573889 
L 314.787273 170.409719 
L 315.104318 170.451206 
L 315.421364 172.364947 
L 315.738409 171.791071 
L 316.055455 173.856515 
L 316.3725 172.004105 
L 316.689545 172.041586 
L 317.006591 170.472774 
L 317.323636 167.956741 
L 317.640682 168.763886 
L 317.957727 173.928887 
L 318.274773 170.997296 
L 318.591818 171.091569 
L 318.908864 173.230392 
L 319.225909 172.409126 
L 319.542955 174.316289 
L 319.86 173.419053 
L 320.177045 170.502924 
L 320.494091 172.393554 
L 320.811136 171.511754 
L 321.128182 169.22951 
L 321.445227 169.40132 
L 322.079318 171.327599 
L 322.396364 171.771239 
L 322.713409 170.123996 
L 323.030455 170.509595 
L 323.3475 171.233621 
L 323.981591 173.805631 
L 324.298636 172.200999 
L 324.615682 171.651747 
L 324.932727 169.94719 
L 325.249773 170.546974 
L 325.566818 172.347058 
L 325.883864 170.918323 
L 326.200909 170.386959 
L 326.517955 168.589071 
L 326.835 171.385608 
L 327.152045 172.646263 
L 327.469091 171.094523 
L 327.786136 172.282774 
L 328.103182 171.735466 
L 328.420227 171.545788 
L 328.737273 172.618791 
L 329.054318 172.869019 
L 330.005455 176.878523 
L 330.639545 172.084135 
L 330.956591 169.832267 
L 331.590682 170.121794 
L 331.907727 169.929879 
L 332.224773 172.069203 
L 332.541818 168.434153 
L 332.858864 167.131696 
L 333.175909 169.972236 
L 333.492955 168.911175 
L 333.81 165.656412 
L 334.444091 172.667419 
L 334.761136 172.536563 
L 335.078182 173.72227 
L 335.395227 170.880091 
L 335.712273 170.638614 
L 336.029318 173.431881 
L 336.346364 169.87436 
L 336.663409 169.983146 
L 336.980455 173.028793 
L 337.2975 169.751385 
L 337.614545 172.186205 
L 337.931591 177.896169 
L 338.248636 175.633402 
L 338.565682 171.54161 
L 338.882727 172.781003 
L 339.199773 171.690214 
L 339.516818 171.011401 
L 339.833864 172.126154 
L 340.150909 172.208358 
L 340.467955 174.301844 
L 341.102045 172.109224 
L 341.419091 173.559492 
L 341.736136 173.759374 
L 342.053182 172.831228 
L 342.370227 173.029658 
L 342.687273 171.803735 
L 343.004318 174.2471 
L 343.321364 174.483764 
L 343.638409 173.805324 
L 343.955455 175.412582 
L 344.2725 174.36198 
L 344.589545 177.684984 
L 344.906591 176.804581 
L 345.223636 177.376018 
L 345.540682 177.150347 
L 345.857727 177.12842 
L 346.174773 173.122087 
L 346.491818 173.313135 
L 346.808864 176.855103 
L 347.125909 176.67795 
L 347.442955 174.965192 
L 347.76 175.156455 
L 348.394091 178.304339 
L 348.711136 181.314703 
L 349.028182 181.208437 
L 349.345227 177.616693 
L 349.662273 177.689785 
L 349.979318 177.013004 
L 350.296364 180.02746 
L 350.613409 181.773617 
L 350.930455 179.966567 
L 351.2475 179.29262 
L 351.564545 180.415649 
L 351.881591 179.829177 
L 352.198636 178.163713 
L 352.515682 177.470302 
L 352.832727 181.369309 
L 353.149773 182.728961 
L 353.466818 183.006433 
L 353.783864 181.205223 
L 354.100909 181.850562 
L 354.417955 185.070115 
L 354.735 184.968293 
L 355.052045 187.832784 
L 355.686136 183.560023 
L 356.320227 183.781951 
L 356.637273 184.464433 
L 356.954318 183.505865 
L 357.271364 183.143512 
L 357.588409 189.287601 
L 358.2225 189.461746 
L 358.539545 191.812726 
L 358.856591 191.073835 
L 359.173636 191.463122 
L 359.490682 190.309628 
L 359.807727 189.664601 
L 360.124773 186.961125 
L 360.441818 189.21245 
L 360.758864 190.016147 
L 361.075909 188.472916 
L 361.392955 188.786369 
L 361.71 192.477771 
L 362.027045 190.833309 
L 362.661136 196.929616 
L 362.978182 193.208566 
L 363.295227 191.045046 
L 363.612273 191.475817 
L 363.929318 190.276992 
L 364.246364 193.527782 
L 364.563409 194.516865 
L 364.880455 191.041554 
L 365.1975 191.722176 
L 366.148636 198.408521 
L 366.465682 197.58336 
L 366.782727 197.085459 
L 367.099773 199.664202 
L 367.416818 198.062835 
L 367.733864 198.050684 
L 368.050909 199.880889 
L 368.367955 200.789322 
L 368.685 202.347896 
L 369.002045 202.281607 
L 369.636136 198.866595 
L 369.953182 198.515417 
L 370.270227 199.013037 
L 370.587273 198.718651 
L 370.904318 202.218403 
L 371.221364 204.210312 
L 371.538409 205.070905 
L 371.855455 206.809339 
L 372.1725 204.670265 
L 372.489545 206.259924 
L 372.806591 204.845433 
L 373.123636 205.063068 
L 373.440682 205.076631 
L 373.757727 205.422638 
L 374.074773 209.243549 
L 374.391818 207.825984 
L 374.708864 209.128258 
L 375.025909 208.185943 
L 375.342955 210.740558 
L 375.977045 212.533722 
L 376.294091 210.80806 
L 376.611136 213.862627 
L 376.928182 213.56212 
L 377.245227 212.25158 
L 377.879318 215.707686 
L 378.196364 216.454134 
L 378.513409 217.690496 
L 378.830455 216.969448 
L 379.1475 216.964677 
L 379.464545 216.789113 
L 379.781591 216.831509 
L 380.098636 218.678175 
L 380.732727 215.185965 
L 381.049773 214.555839 
L 382.000909 217.264939 
L 382.317955 220.371409 
L 382.635 220.952577 
L 382.952045 220.9531 
L 383.269091 220.541304 
L 383.586136 220.695845 
L 383.903182 222.318957 
L 384.220227 220.664393 
L 384.537273 220.703449 
L 384.854318 222.299368 
L 385.171364 221.593138 
L 385.488409 222.729315 
L 385.805455 222.459607 
L 386.1225 220.090629 
L 386.756591 222.398133 
L 387.073636 222.60259 
L 387.390682 221.360678 
L 387.707727 222.841363 
L 388.024773 225.083882 
L 388.341818 225.448662 
L 388.658864 227.692617 
L 388.975909 226.546592 
L 389.292955 228.673167 
L 389.927045 228.730888 
L 390.244091 227.781655 
L 390.561136 227.986978 
L 390.878182 228.422541 
L 391.195227 228.153862 
L 391.512273 229.729378 
L 391.829318 230.457822 
L 392.146364 230.535591 
L 392.780455 234.790041 
L 393.0975 233.873251 
L 393.414545 233.38044 
L 393.731591 230.622524 
L 394.048636 230.426108 
L 394.365682 231.053695 
L 394.682727 232.357014 
L 394.999773 232.246931 
L 395.316818 229.405278 
L 395.950909 234.678334 
L 396.585 231.837845 
L 396.902045 232.511337 
L 397.219091 230.926108 
L 397.536136 231.015435 
L 397.853182 234.791258 
L 398.170227 234.542554 
L 398.487273 249.034983 
L 398.487273 249.034983 
" clip-path="url(#p5e6fd4bf22)" style="fill: none; stroke: #0000ff; stroke-width: 1.5; stroke-linecap: square"/>
   </g>
   <g id="line2d_59">
    <path d="M 73.832727 198.215587 
L 74.149773 217.539095 
L 74.466818 220.199216 
L 74.783864 142.97769 
L 75.100909 102.263692 
L 75.417955 87.35074 
L 75.735 90.407156 
L 76.369091 102.6547 
L 77.320227 124.749469 
L 77.954318 132.440678 
L 78.588409 141.873802 
L 78.905455 141.793135 
L 79.2225 145.047633 
L 79.856591 152.975369 
L 80.490682 159.240761 
L 80.807727 163.925152 
L 81.124773 164.54947 
L 81.441818 164.010316 
L 81.758864 167.403624 
L 82.075909 167.495899 
L 82.392955 169.178932 
L 82.71 173.877311 
L 83.027045 175.026828 
L 83.344091 175.617278 
L 83.661136 178.065634 
L 83.978182 173.043984 
L 84.295227 170.46982 
L 84.612273 182.225902 
L 85.246364 188.694005 
L 85.880455 193.830493 
L 86.1975 192.913368 
L 86.514545 193.315335 
L 86.831591 196.776691 
L 87.148636 197.107655 
L 87.465682 195.580116 
L 88.099773 202.247144 
L 88.733864 200.597944 
L 89.050909 199.141813 
L 89.367955 191.160245 
L 90.002045 205.055481 
L 90.319091 205.078826 
L 90.636136 207.567288 
L 90.953182 208.203801 
L 91.270227 208.520072 
L 91.587273 209.263024 
L 92.221364 208.771715 
L 92.538409 208.001497 
L 92.855455 208.511325 
L 93.1725 208.502424 
L 93.806591 210.184116 
L 94.123636 207.726471 
L 94.440682 193.818334 
L 94.757727 195.036219 
L 95.074773 206.697009 
L 95.391818 210.313734 
L 95.708864 210.909585 
L 96.025909 209.643876 
L 96.342955 210.365518 
L 96.66 208.757048 
L 96.977045 208.238752 
L 97.294091 209.923714 
L 97.611136 208.806534 
L 97.928182 209.3672 
L 98.245227 207.325995 
L 98.562273 206.963422 
L 98.879318 207.784634 
L 99.196364 203.728176 
L 99.513409 183.725549 
L 99.830455 175.286768 
L 100.464545 202.834719 
L 100.781591 203.855053 
L 101.098636 205.305782 
L 101.415682 205.005546 
L 101.732727 203.810841 
L 102.049773 204.323917 
L 102.366818 206.604567 
L 103.000909 204.486477 
L 103.317955 203.424351 
L 103.635 203.037723 
L 103.952045 201.437178 
L 104.269091 200.466241 
L 104.903182 177.430814 
L 105.220227 184.988055 
L 105.537273 195.284456 
L 105.854318 198.285527 
L 106.171364 198.645984 
L 106.488409 199.366579 
L 106.805455 202.207482 
L 107.1225 201.588551 
L 107.439545 198.878226 
L 108.073636 197.709665 
L 108.390682 197.962544 
L 108.707727 199.05944 
L 109.341818 196.252895 
L 109.658864 190.968625 
L 109.975909 180.102545 
L 110.292955 181.172343 
L 110.61 192.325752 
L 111.244091 199.186759 
L 111.561136 200.84768 
L 111.878182 197.27492 
L 112.195227 198.235423 
L 112.512273 200.541633 
L 112.829318 197.879715 
L 113.146364 196.963708 
L 113.463409 200.376268 
L 113.780455 202.411615 
L 114.0975 202.743313 
L 114.414545 201.128057 
L 114.731591 196.285209 
L 115.048636 182.89314 
L 115.365682 177.673206 
L 115.999773 197.121076 
L 116.633864 202.449666 
L 116.950909 200.593328 
L 117.267955 199.813258 
L 117.585 200.505601 
L 118.219091 198.111114 
L 118.536136 200.530609 
L 118.853182 200.313732 
L 119.170227 199.294539 
L 119.487273 198.6696 
L 119.804318 194.374387 
L 120.438409 176.135863 
L 120.755455 182.584932 
L 121.0725 194.836965 
L 121.389545 200.307836 
L 122.023636 202.548425 
L 122.340682 202.229331 
L 122.657727 202.463192 
L 122.974773 199.281374 
L 123.291818 199.186801 
L 123.608864 198.057455 
L 123.925909 198.948549 
L 124.242955 198.456577 
L 124.56 198.451501 
L 125.194091 193.876116 
L 125.511136 184.295927 
L 125.828182 183.758546 
L 126.462273 196.890246 
L 126.779318 200.395403 
L 127.096364 201.213667 
L 127.413409 196.892557 
L 127.730455 196.380057 
L 128.0475 198.837975 
L 128.364545 199.633874 
L 128.681591 196.509361 
L 128.998636 197.166374 
L 129.315682 201.620331 
L 129.632727 201.442173 
L 129.949773 199.427386 
L 130.583864 187.284519 
L 130.900909 187.720185 
L 131.535 194.952293 
L 131.852045 197.128217 
L 132.169091 196.284968 
L 132.486136 196.242459 
L 132.803182 197.061839 
L 133.120227 196.6711 
L 133.437273 198.165067 
L 134.071364 194.035074 
L 134.388409 194.901758 
L 134.705455 194.982748 
L 135.339545 191.960186 
L 135.973636 185.135445 
L 136.290682 186.305283 
L 136.607727 189.080523 
L 136.924773 194.577478 
L 137.241818 195.622854 
L 137.558864 195.688774 
L 137.875909 195.38322 
L 138.192955 194.715594 
L 138.827045 190.488894 
L 139.144091 192.15798 
L 139.461136 195.258722 
L 139.778182 192.987249 
L 140.095227 188.833275 
L 140.412273 191.373765 
L 140.729318 189.591846 
L 141.046364 186.186759 
L 141.363409 185.925415 
L 141.680455 187.446643 
L 141.9975 187.801227 
L 142.314545 190.010135 
L 142.631591 190.906163 
L 142.948636 190.860829 
L 143.265682 185.885344 
L 143.582727 186.522486 
L 143.899773 188.279343 
L 144.216818 192.538635 
L 144.533864 193.381818 
L 145.167955 188.236792 
L 145.485 183.611384 
L 145.802045 183.630054 
L 146.119091 185.600674 
L 146.436136 186.447656 
L 146.753182 188.025963 
L 147.070227 190.549579 
L 147.387273 191.603219 
L 147.704318 190.578933 
L 148.021364 190.420757 
L 148.338409 186.437388 
L 148.655455 185.016986 
L 148.9725 184.747474 
L 149.289545 186.121068 
L 149.606591 185.501456 
L 149.923636 186.853959 
L 150.557727 186.820335 
L 150.874773 183.461901 
L 151.191818 183.314747 
L 151.508864 185.253716 
L 151.825909 183.172457 
L 152.142955 184.308496 
L 152.46 186.393699 
L 152.777045 186.579843 
L 153.094091 187.027449 
L 153.411136 187.035607 
L 153.728182 186.25018 
L 154.045227 185.823915 
L 154.362273 186.49281 
L 154.679318 184.784038 
L 154.996364 186.816892 
L 155.313409 185.168616 
L 155.630455 184.895578 
L 155.9475 185.733819 
L 156.264545 185.608184 
L 156.581591 183.935718 
L 156.898636 181.567725 
L 157.215682 183.466682 
L 157.532727 184.515352 
L 158.166818 187.919217 
L 159.435 182.220734 
L 159.752045 182.365136 
L 160.069091 180.077085 
L 160.386136 184.388667 
L 160.703182 185.115749 
L 161.020227 184.90897 
L 161.654318 182.000425 
L 161.971364 182.32563 
L 162.288409 182.970237 
L 162.605455 183.214752 
L 162.9225 182.387453 
L 163.873636 186.743114 
L 164.190682 184.916102 
L 164.507727 185.845892 
L 164.824773 186.145642 
L 165.141818 184.076484 
L 165.458864 185.646499 
L 165.775909 185.144687 
L 166.092955 185.813075 
L 166.41 187.832212 
L 166.727045 184.396951 
L 167.044091 186.222889 
L 167.361136 187.129889 
L 167.678182 179.904286 
L 167.995227 179.976477 
L 168.312273 183.433481 
L 168.629318 183.604715 
L 168.946364 182.827979 
L 169.263409 182.892223 
L 169.580455 184.278117 
L 169.8975 182.694946 
L 170.214545 184.135493 
L 170.531591 182.231515 
L 170.848636 182.297173 
L 171.165682 186.778918 
L 172.116818 181.044164 
L 172.433864 179.589305 
L 172.750909 181.959087 
L 173.067955 183.331212 
L 173.385 184.014971 
L 173.702045 181.012168 
L 174.019091 180.12679 
L 174.336136 179.690653 
L 174.653182 180.167965 
L 174.970227 182.034314 
L 175.287273 181.772951 
L 175.604318 177.706236 
L 175.921364 177.868168 
L 176.238409 179.225208 
L 176.555455 181.380292 
L 176.8725 180.034264 
L 177.189545 179.4683 
L 177.506591 176.000184 
L 177.823636 174.754446 
L 178.140682 177.342803 
L 178.457727 182.495361 
L 178.774773 181.814877 
L 179.091818 181.544814 
L 179.408864 179.317805 
L 179.725909 178.321573 
L 180.042955 178.966649 
L 180.36 178.6561 
L 180.677045 179.202927 
L 180.994091 182.831312 
L 181.311136 184.759 
L 181.628182 179.51451 
L 181.945227 179.883179 
L 182.579318 181.680073 
L 182.896364 181.216363 
L 183.213409 182.275877 
L 183.8475 180.027689 
L 184.164545 181.675494 
L 184.798636 178.088915 
L 185.432727 179.684814 
L 185.749773 179.092539 
L 186.066818 179.58937 
L 186.383864 181.777491 
L 186.700909 180.980324 
L 187.017955 178.488837 
L 187.335 178.827036 
L 187.969091 181.197048 
L 188.286136 178.847733 
L 188.603182 180.030312 
L 188.920227 178.362744 
L 189.237273 178.248168 
L 189.554318 178.63865 
L 189.871364 176.397099 
L 190.188409 176.751514 
L 190.505455 180.206385 
L 190.8225 181.286984 
L 191.139545 180.699694 
L 191.773636 177.416626 
L 192.407727 172.23447 
L 192.724773 175.540361 
L 193.041818 176.293875 
L 193.675909 180.343432 
L 193.992955 179.362346 
L 194.31 180.25855 
L 194.944091 178.057826 
L 195.578182 172.436609 
L 195.895227 176.932885 
L 196.212273 177.826574 
L 196.529318 177.228844 
L 197.163409 178.613967 
L 197.7975 176.776461 
L 198.431591 181.908437 
L 198.748636 177.778996 
L 199.065682 175.601776 
L 199.382727 176.857859 
L 199.699773 175.178896 
L 200.016818 176.280778 
L 200.333864 180.071486 
L 200.650909 176.507385 
L 200.967955 176.640989 
L 201.602045 179.127835 
L 201.919091 179.887818 
L 202.236136 179.449176 
L 202.553182 180.18201 
L 202.870227 175.802595 
L 203.187273 174.921946 
L 203.504318 175.285545 
L 203.821364 174.411195 
L 204.138409 175.565195 
L 204.455455 175.618442 
L 204.7725 178.427651 
L 205.089545 178.430937 
L 205.406591 177.773873 
L 205.723636 175.730432 
L 206.357727 177.814513 
L 206.674773 176.709497 
L 206.991818 175.095758 
L 207.308864 174.114105 
L 207.625909 177.469997 
L 207.942955 177.622239 
L 208.26 175.094756 
L 208.577045 177.564 
L 208.894091 177.690128 
L 209.528182 174.093599 
L 209.845227 173.97606 
L 210.162273 175.805994 
L 210.479318 175.457923 
L 210.796364 176.170498 
L 211.113409 176.430144 
L 211.430455 174.876337 
L 211.7475 171.699788 
L 212.381591 177.574023 
L 212.698636 175.633535 
L 213.332727 179.533217 
L 213.649773 178.745349 
L 214.283864 173.958174 
L 214.600909 173.157969 
L 215.552045 178.537786 
L 215.869091 174.925671 
L 216.186136 173.379087 
L 216.820227 178.813108 
L 217.137273 178.499488 
L 217.454318 175.884879 
L 217.771364 175.7896 
L 218.088409 177.053204 
L 218.405455 176.716217 
L 219.039545 172.964018 
L 219.356591 176.120274 
L 219.673636 177.920289 
L 219.990682 177.844018 
L 220.307727 177.410786 
L 220.624773 178.73101 
L 220.941818 179.398756 
L 221.258864 174.808106 
L 221.575909 173.996565 
L 221.892955 172.223546 
L 222.527045 172.339037 
L 222.844091 173.016684 
L 223.478182 176.630205 
L 224.112273 174.481939 
L 224.429318 175.882973 
L 225.063409 179.836324 
L 225.380455 178.560722 
L 225.6975 175.246336 
L 226.014545 175.291098 
L 226.331591 175.504751 
L 226.965682 174.438126 
L 227.599773 168.28187 
L 228.233864 177.863905 
L 229.185 163.382969 
L 229.502045 114.509436 
L 229.819091 109.628226 
L 230.136136 153.556959 
L 230.453182 170.368484 
L 231.087273 175.133175 
L 231.404318 174.077125 
L 231.721364 174.82122 
L 232.038409 172.6992 
L 232.6725 176.858629 
L 233.306591 171.873653 
L 233.623636 174.093007 
L 234.257727 174.845516 
L 234.574773 174.330127 
L 235.208864 171.302062 
L 235.525909 171.348747 
L 235.842955 176.021607 
L 236.16 174.292298 
L 236.794091 173.628558 
L 237.111136 175.796691 
L 237.745227 171.351527 
L 238.062273 174.584224 
L 238.379318 176.017814 
L 239.013409 171.977735 
L 239.330455 173.74288 
L 239.6475 173.532242 
L 239.964545 174.113402 
L 240.598636 169.500461 
L 240.915682 170.426026 
L 241.549773 176.906815 
L 241.866818 172.950643 
L 242.183864 171.643479 
L 242.500909 173.153642 
L 242.817955 173.44171 
L 243.135 175.08341 
L 243.452045 173.728479 
L 243.769091 175.778979 
L 244.086136 174.058315 
L 244.403182 171.044151 
L 244.720227 176.172755 
L 245.037273 174.358228 
L 245.354318 171.181788 
L 245.671364 170.991533 
L 246.305455 174.524779 
L 246.6225 173.55278 
L 246.939545 176.981483 
L 247.256591 174.037897 
L 247.573636 174.330424 
L 247.890682 177.039613 
L 248.207727 176.347098 
L 248.524773 174.030097 
L 248.841818 174.191514 
L 249.158864 171.659054 
L 249.475909 173.928232 
L 249.792955 175.130353 
L 250.11 172.196404 
L 250.427045 170.790831 
L 250.744091 171.884791 
L 251.061136 172.254134 
L 251.378182 172.262539 
L 252.012273 171.699369 
L 252.329318 172.749369 
L 252.646364 174.830226 
L 253.280455 170.55836 
L 253.5975 168.409121 
L 253.914545 169.057819 
L 254.548636 171.747345 
L 254.865682 170.26212 
L 255.499773 175.033615 
L 255.816818 176.578419 
L 256.133864 175.970076 
L 256.450909 174.986185 
L 256.767955 175.810374 
L 257.085 177.185765 
L 257.719091 173.302945 
L 258.036136 173.3546 
L 258.670227 176.23668 
L 258.987273 174.229367 
L 259.304318 174.081225 
L 259.621364 172.50936 
L 259.938409 174.870053 
L 260.5725 169.92698 
L 260.889545 172.289044 
L 261.523636 170.354643 
L 261.840682 169.79416 
L 262.474773 176.183925 
L 263.108864 170.952591 
L 263.425909 169.52569 
L 263.742955 171.375036 
L 264.06 172.483026 
L 264.377045 172.835466 
L 264.694091 175.494026 
L 265.011136 175.368664 
L 265.328182 173.682155 
L 265.645227 172.837025 
L 265.962273 174.530192 
L 266.279318 178.019692 
L 266.596364 175.886145 
L 266.913409 171.066011 
L 267.230455 172.596665 
L 267.5475 171.137496 
L 267.864545 171.445363 
L 268.181591 171.942226 
L 268.498636 172.769038 
L 268.815682 171.077911 
L 269.132727 170.353423 
L 269.449773 171.757508 
L 269.766818 176.446003 
L 270.083864 173.008143 
L 270.400909 171.406132 
L 270.717955 173.98866 
L 271.035 174.101533 
L 271.352045 174.905451 
L 271.669091 170.27462 
L 271.986136 170.392738 
L 272.303182 171.594362 
L 272.620227 171.088965 
L 272.937273 173.415239 
L 273.254318 172.08825 
L 273.571364 173.097397 
L 273.888409 173.006355 
L 274.205455 172.190722 
L 274.5225 175.536548 
L 274.839545 174.763186 
L 275.156591 174.463331 
L 275.473636 176.188835 
L 275.790682 172.996558 
L 276.424773 170.188523 
L 276.741818 171.135084 
L 277.058864 173.85904 
L 277.375909 172.691573 
L 277.692955 173.692177 
L 278.01 178.759421 
L 278.327045 178.232109 
L 278.644091 172.261165 
L 278.961136 171.00249 
L 279.278182 169.005892 
L 280.229318 174.803014 
L 280.546364 175.436692 
L 280.863409 171.572664 
L 281.4975 173.56207 
L 281.814545 173.585078 
L 282.131591 175.813965 
L 282.448636 175.242266 
L 282.765682 171.628248 
L 283.082727 169.689492 
L 283.399773 170.978826 
L 283.716818 171.732909 
L 284.033864 173.101502 
L 284.350909 172.694121 
L 284.985 167.088709 
L 285.302045 170.958255 
L 285.936136 173.830309 
L 286.253182 174.894721 
L 286.570227 174.954916 
L 287.204318 170.189962 
L 287.521364 170.464003 
L 287.838409 167.582357 
L 288.155455 168.63817 
L 288.4725 171.225732 
L 288.789545 171.540423 
L 289.106591 171.503977 
L 289.740682 169.316508 
L 290.057727 169.322789 
L 290.374773 169.189603 
L 290.691818 169.766895 
L 291.008864 171.052449 
L 291.325909 169.202918 
L 291.96 172.819253 
L 292.277045 172.641129 
L 292.594091 171.383549 
L 292.911136 171.583952 
L 293.228182 174.558646 
L 293.545227 172.985921 
L 293.862273 168.567344 
L 294.179318 166.593428 
L 294.813409 173.585024 
L 295.4475 175.938952 
L 295.764545 175.119787 
L 296.081591 169.340531 
L 296.715682 174.840937 
L 297.349773 173.712444 
L 297.666818 171.712404 
L 297.983864 172.875471 
L 298.300909 172.292152 
L 298.617955 170.722534 
L 298.935 171.664395 
L 299.252045 174.698839 
L 299.569091 175.096956 
L 299.886136 170.795741 
L 300.520227 173.33272 
L 300.837273 173.038987 
L 301.154318 174.089808 
L 301.471364 172.980596 
L 301.788409 172.730505 
L 302.739545 169.808007 
L 303.056591 172.576726 
L 303.373636 178.049236 
L 304.007727 170.08583 
L 304.641818 171.783209 
L 304.958864 172.288171 
L 305.275909 173.548888 
L 305.592955 171.678053 
L 305.91 170.773679 
L 306.544091 172.473829 
L 306.861136 171.877675 
L 307.178182 170.605032 
L 307.495227 170.753989 
L 307.812273 169.983583 
L 308.129318 170.761658 
L 308.446364 170.997763 
L 308.763409 173.146089 
L 309.080455 173.011419 
L 309.3975 172.319639 
L 309.714545 171.097902 
L 310.031591 172.058295 
L 310.348636 174.061285 
L 310.665682 172.185662 
L 311.299773 170.002226 
L 311.616818 169.734249 
L 311.933864 172.210785 
L 312.250909 170.827783 
L 312.567955 171.427472 
L 312.885 168.700912 
L 313.202045 170.128191 
L 313.519091 172.476019 
L 313.836136 172.255945 
L 314.153182 171.021953 
L 314.470227 172.577083 
L 314.787273 170.412962 
L 315.104318 170.454446 
L 315.421364 172.368393 
L 315.738409 171.794583 
L 316.055455 173.859981 
L 316.3725 172.006977 
L 316.689545 172.044539 
L 317.006591 170.475785 
L 317.323636 167.959609 
L 317.640682 168.766812 
L 317.957727 173.931921 
L 318.274773 171.000274 
L 318.591818 171.094767 
L 318.908864 173.2335 
L 319.225909 172.412361 
L 319.542955 174.319546 
L 319.86 173.422114 
L 320.177045 170.505998 
L 320.494091 172.396603 
L 320.811136 171.51513 
L 321.128182 169.232846 
L 321.445227 169.404795 
L 322.079318 171.330788 
L 322.396364 171.774666 
L 322.713409 170.127157 
L 323.030455 170.512757 
L 323.3475 171.237318 
L 323.981591 173.809081 
L 324.298636 172.204202 
L 324.615682 171.654715 
L 324.932727 169.949886 
L 325.249773 170.549515 
L 325.566818 172.349903 
L 325.883864 170.921644 
L 326.200909 170.389989 
L 326.517955 168.59208 
L 326.835 171.388891 
L 327.152045 172.649671 
L 327.469091 171.098065 
L 327.786136 172.286091 
L 328.103182 171.738352 
L 328.420227 171.548997 
L 328.737273 172.621925 
L 329.054318 172.872185 
L 330.005455 176.881581 
L 330.639545 172.087514 
L 330.956591 169.835463 
L 331.590682 170.124775 
L 331.907727 169.932818 
L 332.224773 172.072043 
L 332.541818 168.437139 
L 332.858864 167.134779 
L 333.175909 169.975476 
L 333.492955 168.91454 
L 333.81 165.659577 
L 334.444091 172.670682 
L 334.761136 172.540178 
L 335.078182 173.725779 
L 335.395227 170.883258 
L 335.712273 170.641673 
L 336.029318 173.435025 
L 336.346364 169.877515 
L 336.663409 169.986285 
L 336.980455 173.032192 
L 337.2975 169.754761 
L 337.614545 172.189652 
L 337.931591 177.899463 
L 338.248636 175.636285 
L 338.565682 171.544842 
L 338.882727 172.784526 
L 339.199773 171.693869 
L 339.516818 171.014862 
L 339.833864 172.129229 
L 340.150909 172.211152 
L 340.467955 174.304961 
L 341.102045 172.112306 
L 341.419091 173.562493 
L 341.736136 173.762517 
L 342.053182 172.834573 
L 342.370227 173.032753 
L 342.687273 171.806448 
L 343.004318 174.249929 
L 343.321364 174.486893 
L 343.638409 173.808639 
L 343.955455 175.4158 
L 344.2725 174.365138 
L 344.589545 177.688123 
L 344.906591 176.807634 
L 345.223636 177.378951 
L 345.540682 177.153271 
L 345.857727 177.131427 
L 346.174773 173.125482 
L 346.491818 173.316467 
L 346.808864 176.858508 
L 347.125909 176.681548 
L 347.442955 174.96873 
L 347.76 175.15958 
L 348.394091 178.307483 
L 348.711136 181.318024 
L 349.028182 181.21162 
L 349.345227 177.619915 
L 349.662273 177.693168 
L 349.979318 177.01624 
L 350.296364 180.030747 
L 350.613409 181.776931 
L 350.930455 179.969566 
L 351.2475 179.295676 
L 351.564545 180.419155 
L 351.881591 179.832179 
L 352.198636 178.167075 
L 352.515682 177.473604 
L 352.832727 181.372683 
L 353.149773 182.732164 
L 353.466818 183.009677 
L 353.783864 181.208234 
L 354.100909 181.853432 
L 354.417955 185.073212 
L 354.735 184.972137 
L 355.052045 187.836496 
L 355.686136 183.563241 
L 356.320227 183.785 
L 356.637273 184.467721 
L 356.954318 183.509428 
L 357.271364 183.147011 
L 357.588409 189.291123 
L 358.2225 189.465334 
L 358.539545 191.8161 
L 358.856591 191.07668 
L 359.173636 191.466665 
L 359.490682 190.313175 
L 359.807727 189.667535 
L 360.124773 186.96409 
L 360.441818 189.2161 
L 360.758864 190.02009 
L 361.075909 188.476233 
L 361.392955 188.789426 
L 361.71 192.481201 
L 362.027045 190.837113 
L 362.661136 196.932814 
L 362.978182 193.211289 
L 363.295227 191.047654 
L 363.612273 191.478946 
L 363.929318 190.280084 
L 364.246364 193.530786 
L 364.563409 194.520587 
L 364.880455 191.045367 
L 365.1975 191.726116 
L 366.148636 198.411758 
L 366.465682 197.58633 
L 366.782727 197.088822 
L 367.099773 199.667926 
L 367.416818 198.066431 
L 367.733864 198.053804 
L 368.050909 199.884541 
L 368.367955 200.793106 
L 368.685 202.35156 
L 369.002045 202.285923 
L 369.636136 198.870454 
L 369.953182 198.519084 
L 370.270227 199.016375 
L 370.587273 198.721634 
L 370.904318 202.221074 
L 371.221364 204.213152 
L 371.538409 205.073841 
L 371.855455 206.812413 
L 372.1725 204.673326 
L 372.489545 206.262683 
L 372.806591 204.848199 
L 373.123636 205.066545 
L 373.440682 205.079509 
L 373.757727 205.426445 
L 374.074773 209.247767 
L 374.391818 207.829307 
L 374.708864 209.130979 
L 375.025909 208.189548 
L 375.342955 210.743175 
L 375.977045 212.536839 
L 376.294091 210.810672 
L 376.611136 213.865479 
L 376.928182 213.565585 
L 377.245227 212.255751 
L 377.879318 215.711267 
L 378.196364 216.457062 
L 378.513409 217.693492 
L 378.830455 216.972667 
L 379.1475 216.967013 
L 379.464545 216.792016 
L 379.781591 216.834771 
L 380.098636 218.681901 
L 380.732727 215.189797 
L 381.049773 214.559022 
L 382.000909 217.269293 
L 382.317955 220.376059 
L 382.635 220.957306 
L 382.952045 220.957453 
L 383.269091 220.544015 
L 383.586136 220.698804 
L 383.903182 222.322169 
L 384.220227 220.667167 
L 384.537273 220.707093 
L 384.854318 222.303385 
L 385.171364 221.597149 
L 385.488409 222.733636 
L 385.805455 222.462308 
L 386.1225 220.093647 
L 386.756591 222.401864 
L 387.073636 222.606029 
L 387.390682 221.364726 
L 387.707727 222.845308 
L 388.024773 225.087312 
L 388.341818 225.451762 
L 388.658864 227.696403 
L 388.975909 226.550371 
L 389.292955 228.677579 
L 389.927045 228.734425 
L 390.244091 227.785555 
L 390.561136 227.990185 
L 390.878182 228.426476 
L 391.195227 228.157484 
L 391.512273 229.732726 
L 391.829318 230.460992 
L 392.146364 230.53856 
L 392.780455 234.795282 
L 393.0975 233.878099 
L 393.414545 233.384558 
L 393.731591 230.625487 
L 394.048636 230.429729 
L 394.365682 231.057604 
L 394.682727 232.360237 
L 394.999773 232.249466 
L 395.316818 229.40765 
L 395.950909 234.681168 
L 396.585 231.841223 
L 396.902045 232.509483 
L 397.219091 230.933351 
L 397.536136 231.059388 
L 397.853182 235.176777 
L 398.170227 248.308359 
L 398.487273 295.488 
L 398.487273 295.488 
" clip-path="url(#p5e6fd4bf22)" style="fill: none; stroke: #ffa500; stroke-width: 1.5; stroke-linecap: square"/>
   </g>
   <g id="patch_3">
    <path d="M 57.6 307.584 
L 57.6 41.472 
" style="fill: none; stroke: #000000; stroke-width: 0.8; stroke-linejoin: miter; stroke-linecap: square"/>
   </g>
   <g id="patch_4">
    <path d="M 414.72 307.584 
L 414.72 41.472 
" style="fill: none; stroke: #000000; stroke-width: 0.8; stroke-linejoin: miter; stroke-linecap: square"/>
   </g>
   <g id="patch_5">
    <path d="M 57.6 307.584 
L 414.72 307.584 
" style="fill: none; stroke: #000000; stroke-width: 0.8; stroke-linejoin: miter; stroke-linecap: square"/>
   </g>
   <g id="patch_6">
    <path d="M 57.6 41.472 
L 414.72 41.472 
" style="fill: none; stroke: #000000; stroke-width: 0.8; stroke-linejoin: miter; stroke-linecap: square"/>
   </g>
   <g id="text_16">
    <!-- Power Spektrum des EEG Signals von Kanal T4-A2 -->
    <g transform="translate(85.898438 35.472) scale(0.12 -0.12)">
     <defs>
      <path id="DejaVuSans-50" d="M 1259 4147 
L 1259 2394 
L 2053 2394 
Q 2494 2394 2734 2622 
Q 2975 2850 2975 3272 
Q 2975 3691 2734 3919 
Q 2494 4147 2053 4147 
L 1259 4147 
z
M 628 4666 
L 2053 4666 
Q 2838 4666 3239 4311 
Q 3641 3956 3641 3272 
Q 3641 2581 3239 2228 
Q 2838 1875 2053 1875 
L 1259 1875 
L 1259 0 
L 628 0 
L 628 4666 
z
" transform="scale(0.015625)"/>
      <path id="DejaVuSans-6f" d="M 1959 3097 
Q 1497 3097 1228 2736 
Q 959 2375 959 1747 
Q 959 1119 1226 758 
Q 1494 397 1959 397 
Q 2419 397 2687 759 
Q 2956 1122 2956 1747 
Q 2956 2369 2687 2733 
Q 2419 3097 1959 3097 
z
M 1959 3584 
Q 2709 3584 3137 3096 
Q 3566 2609 3566 1747 
Q 3566 888 3137 398 
Q 2709 -91 1959 -91 
Q 1206 -91 779 398 
Q 353 888 353 1747 
Q 353 2609 779 3096 
Q 1206 3584 1959 3584 
z
" transform="scale(0.015625)"/>
      <path id="DejaVuSans-77" d="M 269 3500 
L 844 3500 
L 1563 769 
L 2278 3500 
L 2956 3500 
L 3675 769 
L 4391 3500 
L 4966 3500 
L 4050 0 
L 3372 0 
L 2619 2869 
L 1863 0 
L 1184 0 
L 269 3500 
z
" transform="scale(0.015625)"/>
      <path id="DejaVuSans-53" d="M 3425 4513 
L 3425 3897 
Q 3066 4069 2747 4153 
Q 2428 4238 2131 4238 
Q 1616 4238 1336 4038 
Q 1056 3838 1056 3469 
Q 1056 3159 1242 3001 
Q 1428 2844 1947 2747 
L 2328 2669 
Q 3034 2534 3370 2195 
Q 3706 1856 3706 1288 
Q 3706 609 3251 259 
Q 2797 -91 1919 -91 
Q 1588 -91 1214 -16 
Q 841 59 441 206 
L 441 856 
Q 825 641 1194 531 
Q 1563 422 1919 422 
Q 2459 422 2753 634 
Q 3047 847 3047 1241 
Q 3047 1584 2836 1778 
Q 2625 1972 2144 2069 
L 1759 2144 
Q 1053 2284 737 2584 
Q 422 2884 422 3419 
Q 422 4038 858 4394 
Q 1294 4750 2059 4750 
Q 2388 4750 2728 4690 
Q 3069 4631 3425 4513 
z
" transform="scale(0.015625)"/>
      <path id="DejaVuSans-70" d="M 1159 525 
L 1159 -1331 
L 581 -1331 
L 581 3500 
L 1159 3500 
L 1159 2969 
Q 1341 3281 1617 3432 
Q 1894 3584 2278 3584 
Q 2916 3584 3314 3078 
Q 3713 2572 3713 1747 
Q 3713 922 3314 415 
Q 2916 -91 2278 -91 
Q 1894 -91 1617 61 
Q 1341 213 1159 525 
z
M 3116 1747 
Q 3116 2381 2855 2742 
Q 2594 3103 2138 3103 
Q 1681 3103 1420 2742 
Q 1159 2381 1159 1747 
Q 1159 1113 1420 752 
Q 1681 391 2138 391 
Q 2594 391 2855 752 
Q 3116 1113 3116 1747 
z
" transform="scale(0.015625)"/>
      <path id="DejaVuSans-6b" d="M 581 4863 
L 1159 4863 
L 1159 1991 
L 2875 3500 
L 3609 3500 
L 1753 1863 
L 3688 0 
L 2938 0 
L 1159 1709 
L 1159 0 
L 581 0 
L 581 4863 
z
" transform="scale(0.015625)"/>
      <path id="DejaVuSans-6d" d="M 3328 2828 
Q 3544 3216 3844 3400 
Q 4144 3584 4550 3584 
Q 5097 3584 5394 3201 
Q 5691 2819 5691 2113 
L 5691 0 
L 5113 0 
L 5113 2094 
Q 5113 2597 4934 2840 
Q 4756 3084 4391 3084 
Q 3944 3084 3684 2787 
Q 3425 2491 3425 1978 
L 3425 0 
L 2847 0 
L 2847 2094 
Q 2847 2600 2669 2842 
Q 2491 3084 2119 3084 
Q 1678 3084 1418 2786 
Q 1159 2488 1159 1978 
L 1159 0 
L 581 0 
L 581 3500 
L 1159 3500 
L 1159 2956 
Q 1356 3278 1631 3431 
Q 1906 3584 2284 3584 
Q 2666 3584 2933 3390 
Q 3200 3197 3328 2828 
z
" transform="scale(0.015625)"/>
      <path id="DejaVuSans-64" d="M 2906 2969 
L 2906 4863 
L 3481 4863 
L 3481 0 
L 2906 0 
L 2906 525 
Q 2725 213 2448 61 
Q 2172 -91 1784 -91 
Q 1150 -91 751 415 
Q 353 922 353 1747 
Q 353 2572 751 3078 
Q 1150 3584 1784 3584 
Q 2172 3584 2448 3432 
Q 2725 3281 2906 2969 
z
M 947 1747 
Q 947 1113 1208 752 
Q 1469 391 1925 391 
Q 2381 391 2643 752 
Q 2906 1113 2906 1747 
Q 2906 2381 2643 2742 
Q 2381 3103 1925 3103 
Q 1469 3103 1208 2742 
Q 947 2381 947 1747 
z
" transform="scale(0.015625)"/>
      <path id="DejaVuSans-45" d="M 628 4666 
L 3578 4666 
L 3578 4134 
L 1259 4134 
L 1259 2753 
L 3481 2753 
L 3481 2222 
L 1259 2222 
L 1259 531 
L 3634 531 
L 3634 0 
L 628 0 
L 628 4666 
z
" transform="scale(0.015625)"/>
      <path id="DejaVuSans-47" d="M 3809 666 
L 3809 1919 
L 2778 1919 
L 2778 2438 
L 4434 2438 
L 4434 434 
Q 4069 175 3628 42 
Q 3188 -91 2688 -91 
Q 1594 -91 976 548 
Q 359 1188 359 2328 
Q 359 3472 976 4111 
Q 1594 4750 2688 4750 
Q 3144 4750 3555 4637 
Q 3966 4525 4313 4306 
L 4313 3634 
Q 3963 3931 3569 4081 
Q 3175 4231 2741 4231 
Q 1884 4231 1454 3753 
Q 1025 3275 1025 2328 
Q 1025 1384 1454 906 
Q 1884 428 2741 428 
Q 3075 428 3337 486 
Q 3600 544 3809 666 
z
" transform="scale(0.015625)"/>
      <path id="DejaVuSans-61" d="M 2194 1759 
Q 1497 1759 1228 1600 
Q 959 1441 959 1056 
Q 959 750 1161 570 
Q 1363 391 1709 391 
Q 2188 391 2477 730 
Q 2766 1069 2766 1631 
L 2766 1759 
L 2194 1759 
z
M 3341 1997 
L 3341 0 
L 2766 0 
L 2766 531 
Q 2569 213 2275 61 
Q 1981 -91 1556 -91 
Q 1019 -91 701 211 
Q 384 513 384 1019 
Q 384 1609 779 1909 
Q 1175 2209 1959 2209 
L 2766 2209 
L 2766 2266 
Q 2766 2663 2505 2880 
Q 2244 3097 1772 3097 
Q 1472 3097 1187 3025 
Q 903 2953 641 2809 
L 641 3341 
Q 956 3463 1253 3523 
Q 1550 3584 1831 3584 
Q 2591 3584 2966 3190 
Q 3341 2797 3341 1997 
z
" transform="scale(0.015625)"/>
      <path id="DejaVuSans-6c" d="M 603 4863 
L 1178 4863 
L 1178 0 
L 603 0 
L 603 4863 
z
" transform="scale(0.015625)"/>
      <path id="DejaVuSans-76" d="M 191 3500 
L 800 3500 
L 1894 563 
L 2988 3500 
L 3597 3500 
L 2284 0 
L 1503 0 
L 191 3500 
z
" transform="scale(0.015625)"/>
      <path id="DejaVuSans-4b" d="M 628 4666 
L 1259 4666 
L 1259 2694 
L 3353 4666 
L 4166 4666 
L 1850 2491 
L 4331 0 
L 3500 0 
L 1259 2247 
L 1259 0 
L 628 0 
L 628 4666 
z
" transform="scale(0.015625)"/>
      <path id="DejaVuSans-54" d="M -19 4666 
L 3928 4666 
L 3928 4134 
L 2272 4134 
L 2272 0 
L 1638 0 
L 1638 4134 
L -19 4134 
L -19 4666 
z
" transform="scale(0.015625)"/>
      <path id="DejaVuSans-2d" d="M 313 2009 
L 1997 2009 
L 1997 1497 
L 313 1497 
L 313 2009 
z
" transform="scale(0.015625)"/>
      <path id="DejaVuSans-41" d="M 2188 4044 
L 1331 1722 
L 3047 1722 
L 2188 4044 
z
M 1831 4666 
L 2547 4666 
L 4325 0 
L 3669 0 
L 3244 1197 
L 1141 1197 
L 716 0 
L 50 0 
L 1831 4666 
z
" transform="scale(0.015625)"/>
     </defs>
     <use xlink:href="#DejaVuSans-50"/>
     <use xlink:href="#DejaVuSans-6f" transform="translate(56.677734 0)"/>
     <use xlink:href="#DejaVuSans-77" transform="translate(117.859375 0)"/>
     <use xlink:href="#DejaVuSans-65" transform="translate(199.646484 0)"/>
     <use xlink:href="#DejaVuSans-72" transform="translate(261.169922 0)"/>
     <use xlink:href="#DejaVuSans-20" transform="translate(302.283203 0)"/>
     <use xlink:href="#DejaVuSans-53" transform="translate(334.070312 0)"/>
     <use xlink:href="#DejaVuSans-70" transform="translate(397.546875 0)"/>
     <use xlink:href="#DejaVuSans-65" transform="translate(461.023438 0)"/>
     <use xlink:href="#DejaVuSans-6b" transform="translate(522.546875 0)"/>
     <use xlink:href="#DejaVuSans-74" transform="translate(580.457031 0)"/>
     <use xlink:href="#DejaVuSans-72" transform="translate(619.666016 0)"/>
     <use xlink:href="#DejaVuSans-75" transform="translate(660.779297 0)"/>
     <use xlink:href="#DejaVuSans-6d" transform="translate(724.158203 0)"/>
     <use xlink:href="#DejaVuSans-20" transform="translate(821.570312 0)"/>
     <use xlink:href="#DejaVuSans-64" transform="translate(853.357422 0)"/>
     <use xlink:href="#DejaVuSans-65" transform="translate(916.833984 0)"/>
     <use xlink:href="#DejaVuSans-73" transform="translate(978.357422 0)"/>
     <use xlink:href="#DejaVuSans-20" transform="translate(1030.457031 0)"/>
     <use xlink:href="#DejaVuSans-45" transform="translate(1062.244141 0)"/>
     <use xlink:href="#DejaVuSans-45" transform="translate(1125.427734 0)"/>
     <use xlink:href="#DejaVuSans-47" transform="translate(1188.611328 0)"/>
     <use xlink:href="#DejaVuSans-20" transform="translate(1266.101562 0)"/>
     <use xlink:href="#DejaVuSans-53" transform="translate(1297.888672 0)"/>
     <use xlink:href="#DejaVuSans-69" transform="translate(1361.365234 0)"/>
     <use xlink:href="#DejaVuSans-67" transform="translate(1389.148438 0)"/>
     <use xlink:href="#DejaVuSans-6e" transform="translate(1452.625 0)"/>
     <use xlink:href="#DejaVuSans-61" transform="translate(1516.003906 0)"/>
     <use xlink:href="#DejaVuSans-6c" transform="translate(1577.283203 0)"/>
     <use xlink:href="#DejaVuSans-73" transform="translate(1605.066406 0)"/>
     <use xlink:href="#DejaVuSans-20" transform="translate(1657.166016 0)"/>
     <use xlink:href="#DejaVuSans-76" transform="translate(1688.953125 0)"/>
     <use xlink:href="#DejaVuSans-6f" transform="translate(1748.132812 0)"/>
     <use xlink:href="#DejaVuSans-6e" transform="translate(1809.314453 0)"/>
     <use xlink:href="#DejaVuSans-20" transform="translate(1872.693359 0)"/>
     <use xlink:href="#DejaVuSans-4b" transform="translate(1904.480469 0)"/>
     <use xlink:href="#DejaVuSans-61" transform="translate(1968.306641 0)"/>
     <use xlink:href="#DejaVuSans-6e" transform="translate(2029.585938 0)"/>
     <use xlink:href="#DejaVuSans-61" transform="translate(2092.964844 0)"/>
     <use xlink:href="#DejaVuSans-6c" transform="translate(2154.244141 0)"/>
     <use xlink:href="#DejaVuSans-20" transform="translate(2182.027344 0)"/>
     <use xlink:href="#DejaVuSans-54" transform="translate(2213.814453 0)"/>
     <use xlink:href="#DejaVuSans-34" transform="translate(2274.898438 0)"/>
     <use xlink:href="#DejaVuSans-2d" transform="translate(2338.521484 0)"/>
     <use xlink:href="#DejaVuSans-41" transform="translate(2372.355469 0)"/>
     <use xlink:href="#DejaVuSans-32" transform="translate(2440.763672 0)"/>
    </g>
   </g>
   <g id="legend_1">
    <g id="patch_7">
     <path d="M 266.196563 78.82825 
L 407.72 78.82825 
Q 409.72 78.82825 409.72 76.82825 
L 409.72 48.472 
Q 409.72 46.472 407.72 46.472 
L 266.196563 46.472 
Q 264.196563 46.472 264.196563 48.472 
L 264.196563 76.82825 
Q 264.196563 78.82825 266.196563 78.82825 
z
" style="fill: #ffffff; opacity: 0.8; stroke: #cccccc; stroke-linejoin: miter"/>
    </g>
    <g id="line2d_60">
     <path d="M 268.196563 54.570437 
L 278.196563 54.570437 
L 288.196563 54.570437 
" style="fill: none; stroke: #0000ff; stroke-width: 1.5; stroke-linecap: square"/>
    </g>
    <g id="text_17">
     <!-- Original -->
     <g transform="translate(296.196563 58.070437) scale(0.1 -0.1)">
      <defs>
       <path id="DejaVuSans-4f" d="M 2522 4238 
Q 1834 4238 1429 3725 
Q 1025 3213 1025 2328 
Q 1025 1447 1429 934 
Q 1834 422 2522 422 
Q 3209 422 3611 934 
Q 4013 1447 4013 2328 
Q 4013 3213 3611 3725 
Q 3209 4238 2522 4238 
z
M 2522 4750 
Q 3503 4750 4090 4092 
Q 4678 3434 4678 2328 
Q 4678 1225 4090 567 
Q 3503 -91 2522 -91 
Q 1538 -91 948 565 
Q 359 1222 359 2328 
Q 359 3434 948 4092 
Q 1538 4750 2522 4750 
z
" transform="scale(0.015625)"/>
      </defs>
      <use xlink:href="#DejaVuSans-4f"/>
      <use xlink:href="#DejaVuSans-72" transform="translate(78.710938 0)"/>
      <use xlink:href="#DejaVuSans-69" transform="translate(119.824219 0)"/>
      <use xlink:href="#DejaVuSans-67" transform="translate(147.607422 0)"/>
      <use xlink:href="#DejaVuSans-69" transform="translate(211.083984 0)"/>
      <use xlink:href="#DejaVuSans-6e" transform="translate(238.867188 0)"/>
      <use xlink:href="#DejaVuSans-61" transform="translate(302.246094 0)"/>
      <use xlink:href="#DejaVuSans-6c" transform="translate(363.525391 0)"/>
     </g>
    </g>
    <g id="line2d_61">
     <path d="M 268.196563 69.248562 
L 278.196563 69.248562 
L 288.196563 69.248562 
" style="fill: none; stroke: #ffa500; stroke-width: 1.5; stroke-linecap: square"/>
    </g>
    <g id="text_18">
     <!-- After resampling/filter -->
     <g transform="translate(296.196563 72.748562) scale(0.1 -0.1)">
      <defs>
       <path id="DejaVuSans-66" d="M 2375 4863 
L 2375 4384 
L 1825 4384 
Q 1516 4384 1395 4259 
Q 1275 4134 1275 3809 
L 1275 3500 
L 2222 3500 
L 2222 3053 
L 1275 3053 
L 1275 0 
L 697 0 
L 697 3053 
L 147 3053 
L 147 3500 
L 697 3500 
L 697 3744 
Q 697 4328 969 4595 
Q 1241 4863 1831 4863 
L 2375 4863 
z
" transform="scale(0.015625)"/>
      </defs>
      <use xlink:href="#DejaVuSans-41"/>
      <use xlink:href="#DejaVuSans-66" transform="translate(64.783203 0)"/>
      <use xlink:href="#DejaVuSans-74" transform="translate(98.238281 0)"/>
      <use xlink:href="#DejaVuSans-65" transform="translate(137.447266 0)"/>
      <use xlink:href="#DejaVuSans-72" transform="translate(198.970703 0)"/>
      <use xlink:href="#DejaVuSans-20" transform="translate(240.083984 0)"/>
      <use xlink:href="#DejaVuSans-72" transform="translate(271.871094 0)"/>
      <use xlink:href="#DejaVuSans-65" transform="translate(310.734375 0)"/>
      <use xlink:href="#DejaVuSans-73" transform="translate(372.257812 0)"/>
      <use xlink:href="#DejaVuSans-61" transform="translate(424.357422 0)"/>
      <use xlink:href="#DejaVuSans-6d" transform="translate(485.636719 0)"/>
      <use xlink:href="#DejaVuSans-70" transform="translate(583.048828 0)"/>
      <use xlink:href="#DejaVuSans-6c" transform="translate(646.525391 0)"/>
      <use xlink:href="#DejaVuSans-69" transform="translate(674.308594 0)"/>
      <use xlink:href="#DejaVuSans-6e" transform="translate(702.091797 0)"/>
      <use xlink:href="#DejaVuSans-67" transform="translate(765.470703 0)"/>
      <use xlink:href="#DejaVuSans-2f" transform="translate(828.947266 0)"/>
      <use xlink:href="#DejaVuSans-66" transform="translate(862.638672 0)"/>
      <use xlink:href="#DejaVuSans-69" transform="translate(897.84375 0)"/>
      <use xlink:href="#DejaVuSans-6c" transform="translate(925.626953 0)"/>
      <use xlink:href="#DejaVuSans-74" transform="translate(953.410156 0)"/>
      <use xlink:href="#DejaVuSans-65" transform="translate(992.619141 0)"/>
      <use xlink:href="#DejaVuSans-72" transform="translate(1054.142578 0)"/>
     </g>
    </g>
   </g>
  </g>
 </g>
 <defs>
  <clipPath id="p5e6fd4bf22">
   <rect x="57.6" y="41.472" width="357.12" height="266.112"/>
  </clipPath>
 </defs>
</svg>
