<?xml version="1.0" encoding="utf-8" standalone="no"?>
<!DOCTYPE svg PUBLIC "-//W3C//DTD SVG 1.1//EN"
  "http://www.w3.org/Graphics/SVG/1.1/DTD/svg11.dtd">
<svg xmlns:xlink="http://www.w3.org/1999/xlink" width="460.8pt" height="345.6pt" viewBox="0 0 460.8 345.6" xmlns="http://www.w3.org/2000/svg" version="1.1">
 <metadata>
  <rdf:RDF xmlns:dc="http://purl.org/dc/elements/1.1/" xmlns:cc="http://creativecommons.org/ns#" xmlns:rdf="http://www.w3.org/1999/02/22-rdf-syntax-ns#">
   <cc:Work>
    <dc:type rdf:resource="http://purl.org/dc/dcmitype/StillImage"/>
    <dc:date>2025-11-02T14:34:25.598313</dc:date>
    <dc:format>image/svg+xml</dc:format>
    <dc:creator>
     <cc:Agent>
      <dc:title>Matplotlib v3.10.7, https://matplotlib.org/</dc:title>
     </cc:Agent>
    </dc:creator>
   </cc:Work>
  </rdf:RDF>
 </metadata>
 <defs>
  <style type="text/css">*{stroke-linejoin: round; stroke-linecap: butt}</style>
 </defs>
 <g id="figure_1">
  <g id="patch_1">
   <path d="M 0 345.6 
L 460.8 345.6 
L 460.8 0 
L 0 0 
z
" style="fill: #ffffff"/>
  </g>
  <g id="axes_1">
   <g id="patch_2">
    <path d="M 57.6 307.584 
L 414.72 307.584 
L 414.72 41.472 
L 57.6 41.472 
z
" style="fill: #ffffff"/>
   </g>
   <g id="matplotlib.axis_1">
    <g id="xtick_1">
     <g id="line2d_1">
      <defs>
       <path id="md6f30c8b23" d="M 0 0 
L 0 3.5 
" style="stroke: #000000; stroke-width: 0.8"/>
      </defs>
      <g>
       <use xlink:href="#md6f30c8b23" x="73.832727" y="307.584" style="stroke: #000000; stroke-width: 0.8"/>
      </g>
     </g>
     <g id="text_1">
      <!-- 0 -->
      <g transform="translate(70.651477 322.182437) scale(0.1 -0.1)">
       <defs>
        <path id="DejaVuSans-30" d="M 2034 4250 
Q 1547 4250 1301 3770 
Q 1056 3291 1056 2328 
Q 1056 1369 1301 889 
Q 1547 409 2034 409 
Q 2525 409 2770 889 
Q 3016 1369 3016 2328 
Q 3016 3291 2770 3770 
Q 2525 4250 2034 4250 
z
M 2034 4750 
Q 2819 4750 3233 4129 
Q 3647 3509 3647 2328 
Q 3647 1150 3233 529 
Q 2819 -91 2034 -91 
Q 1250 -91 836 529 
Q 422 1150 422 2328 
Q 422 3509 836 4129 
Q 1250 4750 2034 4750 
z
" transform="scale(0.015625)"/>
       </defs>
       <use xlink:href="#DejaVuSans-30"/>
      </g>
     </g>
    </g>
    <g id="xtick_2">
     <g id="line2d_2">
      <g>
       <use xlink:href="#md6f30c8b23" x="124.56" y="307.584" style="stroke: #000000; stroke-width: 0.8"/>
      </g>
     </g>
     <g id="text_2">
      <!-- 20 -->
      <g transform="translate(118.1975 322.182437) scale(0.1 -0.1)">
       <defs>
        <path id="DejaVuSans-32" d="M 1228 531 
L 3431 531 
L 3431 0 
L 469 0 
L 469 531 
Q 828 903 1448 1529 
Q 2069 2156 2228 2338 
Q 2531 2678 2651 2914 
Q 2772 3150 2772 3378 
Q 2772 3750 2511 3984 
Q 2250 4219 1831 4219 
Q 1534 4219 1204 4116 
Q 875 4013 500 3803 
L 500 4441 
Q 881 4594 1212 4672 
Q 1544 4750 1819 4750 
Q 2544 4750 2975 4387 
Q 3406 4025 3406 3419 
Q 3406 3131 3298 2873 
Q 3191 2616 2906 2266 
Q 2828 2175 2409 1742 
Q 1991 1309 1228 531 
z
" transform="scale(0.015625)"/>
       </defs>
       <use xlink:href="#DejaVuSans-32"/>
       <use xlink:href="#DejaVuSans-30" transform="translate(63.623047 0)"/>
      </g>
     </g>
    </g>
    <g id="xtick_3">
     <g id="line2d_3">
      <g>
       <use xlink:href="#md6f30c8b23" x="175.287273" y="307.584" style="stroke: #000000; stroke-width: 0.8"/>
      </g>
     </g>
     <g id="text_3">
      <!-- 40 -->
      <g transform="translate(168.924773 322.182437) scale(0.1 -0.1)">
       <defs>
        <path id="DejaVuSans-34" d="M 2419 4116 
L 825 1625 
L 2419 1625 
L 2419 4116 
z
M 2253 4666 
L 3047 4666 
L 3047 1625 
L 3713 1625 
L 3713 1100 
L 3047 1100 
L 3047 0 
L 2419 0 
L 2419 1100 
L 313 1100 
L 313 1709 
L 2253 4666 
z
" transform="scale(0.015625)"/>
       </defs>
       <use xlink:href="#DejaVuSans-34"/>
       <use xlink:href="#DejaVuSans-30" transform="translate(63.623047 0)"/>
      </g>
     </g>
    </g>
    <g id="xtick_4">
     <g id="line2d_4">
      <g>
       <use xlink:href="#md6f30c8b23" x="226.014545" y="307.584" style="stroke: #000000; stroke-width: 0.8"/>
      </g>
     </g>
     <g id="text_4">
      <!-- 60 -->
      <g transform="translate(219.652045 322.182437) scale(0.1 -0.1)">
       <defs>
        <path id="DejaVuSans-36" d="M 2113 2584 
Q 1688 2584 1439 2293 
Q 1191 2003 1191 1497 
Q 1191 994 1439 701 
Q 1688 409 2113 409 
Q 2538 409 2786 701 
Q 3034 994 3034 1497 
Q 3034 2003 2786 2293 
Q 2538 2584 2113 2584 
z
M 3366 4563 
L 3366 3988 
Q 3128 4100 2886 4159 
Q 2644 4219 2406 4219 
Q 1781 4219 1451 3797 
Q 1122 3375 1075 2522 
Q 1259 2794 1537 2939 
Q 1816 3084 2150 3084 
Q 2853 3084 3261 2657 
Q 3669 2231 3669 1497 
Q 3669 778 3244 343 
Q 2819 -91 2113 -91 
Q 1303 -91 875 529 
Q 447 1150 447 2328 
Q 447 3434 972 4092 
Q 1497 4750 2381 4750 
Q 2619 4750 2861 4703 
Q 3103 4656 3366 4563 
z
" transform="scale(0.015625)"/>
       </defs>
       <use xlink:href="#DejaVuSans-36"/>
       <use xlink:href="#DejaVuSans-30" transform="translate(63.623047 0)"/>
      </g>
     </g>
    </g>
    <g id="xtick_5">
     <g id="line2d_5">
      <g>
       <use xlink:href="#md6f30c8b23" x="276.741818" y="307.584" style="stroke: #000000; stroke-width: 0.8"/>
      </g>
     </g>
     <g id="text_5">
      <!-- 80 -->
      <g transform="translate(270.379318 322.182437) scale(0.1 -0.1)">
       <defs>
        <path id="DejaVuSans-38" d="M 2034 2216 
Q 1584 2216 1326 1975 
Q 1069 1734 1069 1313 
Q 1069 891 1326 650 
Q 1584 409 2034 409 
Q 2484 409 2743 651 
Q 3003 894 3003 1313 
Q 3003 1734 2745 1975 
Q 2488 2216 2034 2216 
z
M 1403 2484 
Q 997 2584 770 2862 
Q 544 3141 544 3541 
Q 544 4100 942 4425 
Q 1341 4750 2034 4750 
Q 2731 4750 3128 4425 
Q 3525 4100 3525 3541 
Q 3525 3141 3298 2862 
Q 3072 2584 2669 2484 
Q 3125 2378 3379 2068 
Q 3634 1759 3634 1313 
Q 3634 634 3220 271 
Q 2806 -91 2034 -91 
Q 1263 -91 848 271 
Q 434 634 434 1313 
Q 434 1759 690 2068 
Q 947 2378 1403 2484 
z
M 1172 3481 
Q 1172 3119 1398 2916 
Q 1625 2713 2034 2713 
Q 2441 2713 2670 2916 
Q 2900 3119 2900 3481 
Q 2900 3844 2670 4047 
Q 2441 4250 2034 4250 
Q 1625 4250 1398 4047 
Q 1172 3844 1172 3481 
z
" transform="scale(0.015625)"/>
       </defs>
       <use xlink:href="#DejaVuSans-38"/>
       <use xlink:href="#DejaVuSans-30" transform="translate(63.623047 0)"/>
      </g>
     </g>
    </g>
    <g id="xtick_6">
     <g id="line2d_6">
      <g>
       <use xlink:href="#md6f30c8b23" x="327.469091" y="307.584" style="stroke: #000000; stroke-width: 0.8"/>
      </g>
     </g>
     <g id="text_6">
      <!-- 100 -->
      <g transform="translate(317.925341 322.182437) scale(0.1 -0.1)">
       <defs>
        <path id="DejaVuSans-31" d="M 794 531 
L 1825 531 
L 1825 4091 
L 703 3866 
L 703 4441 
L 1819 4666 
L 2450 4666 
L 2450 531 
L 3481 531 
L 3481 0 
L 794 0 
L 794 531 
z
" transform="scale(0.015625)"/>
       </defs>
       <use xlink:href="#DejaVuSans-31"/>
       <use xlink:href="#DejaVuSans-30" transform="translate(63.623047 0)"/>
       <use xlink:href="#DejaVuSans-30" transform="translate(127.246094 0)"/>
      </g>
     </g>
    </g>
    <g id="xtick_7">
     <g id="line2d_7">
      <g>
       <use xlink:href="#md6f30c8b23" x="378.196364" y="307.584" style="stroke: #000000; stroke-width: 0.8"/>
      </g>
     </g>
     <g id="text_7">
      <!-- 120 -->
      <g transform="translate(368.652614 322.182437) scale(0.1 -0.1)">
       <use xlink:href="#DejaVuSans-31"/>
       <use xlink:href="#DejaVuSans-32" transform="translate(63.623047 0)"/>
       <use xlink:href="#DejaVuSans-30" transform="translate(127.246094 0)"/>
      </g>
     </g>
    </g>
    <g id="text_8">
     <!-- Frequenz in Hz -->
     <g transform="translate(199.294375 335.860562) scale(0.1 -0.1)">
      <defs>
       <path id="DejaVuSans-46" d="M 628 4666 
L 3309 4666 
L 3309 4134 
L 1259 4134 
L 1259 2759 
L 3109 2759 
L 3109 2228 
L 1259 2228 
L 1259 0 
L 628 0 
L 628 4666 
z
" transform="scale(0.015625)"/>
       <path id="DejaVuSans-72" d="M 2631 2963 
Q 2534 3019 2420 3045 
Q 2306 3072 2169 3072 
Q 1681 3072 1420 2755 
Q 1159 2438 1159 1844 
L 1159 0 
L 581 0 
L 581 3500 
L 1159 3500 
L 1159 2956 
Q 1341 3275 1631 3429 
Q 1922 3584 2338 3584 
Q 2397 3584 2469 3576 
Q 2541 3569 2628 3553 
L 2631 2963 
z
" transform="scale(0.015625)"/>
       <path id="DejaVuSans-65" d="M 3597 1894 
L 3597 1613 
L 953 1613 
Q 991 1019 1311 708 
Q 1631 397 2203 397 
Q 2534 397 2845 478 
Q 3156 559 3463 722 
L 3463 178 
Q 3153 47 2828 -22 
Q 2503 -91 2169 -91 
Q 1331 -91 842 396 
Q 353 884 353 1716 
Q 353 2575 817 3079 
Q 1281 3584 2069 3584 
Q 2775 3584 3186 3129 
Q 3597 2675 3597 1894 
z
M 3022 2063 
Q 3016 2534 2758 2815 
Q 2500 3097 2075 3097 
Q 1594 3097 1305 2825 
Q 1016 2553 972 2059 
L 3022 2063 
z
" transform="scale(0.015625)"/>
       <path id="DejaVuSans-71" d="M 947 1747 
Q 947 1113 1208 752 
Q 1469 391 1925 391 
Q 2381 391 2643 752 
Q 2906 1113 2906 1747 
Q 2906 2381 2643 2742 
Q 2381 3103 1925 3103 
Q 1469 3103 1208 2742 
Q 947 2381 947 1747 
z
M 2906 525 
Q 2725 213 2448 61 
Q 2172 -91 1784 -91 
Q 1150 -91 751 415 
Q 353 922 353 1747 
Q 353 2572 751 3078 
Q 1150 3584 1784 3584 
Q 2172 3584 2448 3432 
Q 2725 3281 2906 2969 
L 2906 3500 
L 3481 3500 
L 3481 -1331 
L 2906 -1331 
L 2906 525 
z
" transform="scale(0.015625)"/>
       <path id="DejaVuSans-75" d="M 544 1381 
L 544 3500 
L 1119 3500 
L 1119 1403 
Q 1119 906 1312 657 
Q 1506 409 1894 409 
Q 2359 409 2629 706 
Q 2900 1003 2900 1516 
L 2900 3500 
L 3475 3500 
L 3475 0 
L 2900 0 
L 2900 538 
Q 2691 219 2414 64 
Q 2138 -91 1772 -91 
Q 1169 -91 856 284 
Q 544 659 544 1381 
z
M 1991 3584 
L 1991 3584 
z
" transform="scale(0.015625)"/>
       <path id="DejaVuSans-6e" d="M 3513 2113 
L 3513 0 
L 2938 0 
L 2938 2094 
Q 2938 2591 2744 2837 
Q 2550 3084 2163 3084 
Q 1697 3084 1428 2787 
Q 1159 2491 1159 1978 
L 1159 0 
L 581 0 
L 581 3500 
L 1159 3500 
L 1159 2956 
Q 1366 3272 1645 3428 
Q 1925 3584 2291 3584 
Q 2894 3584 3203 3211 
Q 3513 2838 3513 2113 
z
" transform="scale(0.015625)"/>
       <path id="DejaVuSans-7a" d="M 353 3500 
L 3084 3500 
L 3084 2975 
L 922 459 
L 3084 459 
L 3084 0 
L 275 0 
L 275 525 
L 2438 3041 
L 353 3041 
L 353 3500 
z
" transform="scale(0.015625)"/>
       <path id="DejaVuSans-20" transform="scale(0.015625)"/>
       <path id="DejaVuSans-69" d="M 603 3500 
L 1178 3500 
L 1178 0 
L 603 0 
L 603 3500 
z
M 603 4863 
L 1178 4863 
L 1178 4134 
L 603 4134 
L 603 4863 
z
" transform="scale(0.015625)"/>
       <path id="DejaVuSans-48" d="M 628 4666 
L 1259 4666 
L 1259 2753 
L 3553 2753 
L 3553 4666 
L 4184 4666 
L 4184 0 
L 3553 0 
L 3553 2222 
L 1259 2222 
L 1259 0 
L 628 0 
L 628 4666 
z
" transform="scale(0.015625)"/>
      </defs>
      <use xlink:href="#DejaVuSans-46"/>
      <use xlink:href="#DejaVuSans-72" transform="translate(50.269531 0)"/>
      <use xlink:href="#DejaVuSans-65" transform="translate(89.132812 0)"/>
      <use xlink:href="#DejaVuSans-71" transform="translate(150.65625 0)"/>
      <use xlink:href="#DejaVuSans-75" transform="translate(214.132812 0)"/>
      <use xlink:href="#DejaVuSans-65" transform="translate(277.511719 0)"/>
      <use xlink:href="#DejaVuSans-6e" transform="translate(339.035156 0)"/>
      <use xlink:href="#DejaVuSans-7a" transform="translate(402.414062 0)"/>
      <use xlink:href="#DejaVuSans-20" transform="translate(454.904297 0)"/>
      <use xlink:href="#DejaVuSans-69" transform="translate(486.691406 0)"/>
      <use xlink:href="#DejaVuSans-6e" transform="translate(514.474609 0)"/>
      <use xlink:href="#DejaVuSans-20" transform="translate(577.853516 0)"/>
      <use xlink:href="#DejaVuSans-48" transform="translate(609.640625 0)"/>
      <use xlink:href="#DejaVuSans-7a" transform="translate(684.835938 0)"/>
     </g>
    </g>
   </g>
   <g id="matplotlib.axis_2">
    <g id="ytick_1">
     <g id="line2d_8">
      <defs>
       <path id="m6b62622506" d="M 0 0 
L -3.5 0 
" style="stroke: #000000; stroke-width: 0.8"/>
      </defs>
      <g>
       <use xlink:href="#m6b62622506" x="57.6" y="307.584" style="stroke: #000000; stroke-width: 0.8"/>
      </g>
     </g>
     <g id="text_9">
      <!-- $\mathdefault{10^{-3}}$ -->
      <g transform="translate(27.1 311.383219) scale(0.1 -0.1)">
       <defs>
        <path id="DejaVuSans-2212" d="M 678 2272 
L 4684 2272 
L 4684 1741 
L 678 1741 
L 678 2272 
z
" transform="scale(0.015625)"/>
        <path id="DejaVuSans-33" d="M 2597 2516 
Q 3050 2419 3304 2112 
Q 3559 1806 3559 1356 
Q 3559 666 3084 287 
Q 2609 -91 1734 -91 
Q 1441 -91 1130 -33 
Q 819 25 488 141 
L 488 750 
Q 750 597 1062 519 
Q 1375 441 1716 441 
Q 2309 441 2620 675 
Q 2931 909 2931 1356 
Q 2931 1769 2642 2001 
Q 2353 2234 1838 2234 
L 1294 2234 
L 1294 2753 
L 1863 2753 
Q 2328 2753 2575 2939 
Q 2822 3125 2822 3475 
Q 2822 3834 2567 4026 
Q 2313 4219 1838 4219 
Q 1578 4219 1281 4162 
Q 984 4106 628 3988 
L 628 4550 
Q 988 4650 1302 4700 
Q 1616 4750 1894 4750 
Q 2613 4750 3031 4423 
Q 3450 4097 3450 3541 
Q 3450 3153 3228 2886 
Q 3006 2619 2597 2516 
z
" transform="scale(0.015625)"/>
       </defs>
       <use xlink:href="#DejaVuSans-31" transform="translate(0 0.765625)"/>
       <use xlink:href="#DejaVuSans-30" transform="translate(63.623047 0.765625)"/>
       <use xlink:href="#DejaVuSans-2212" transform="translate(128.203125 39.046875) scale(0.7)"/>
       <use xlink:href="#DejaVuSans-33" transform="translate(186.855469 39.046875) scale(0.7)"/>
      </g>
     </g>
    </g>
    <g id="ytick_2">
     <g id="line2d_9">
      <g>
       <use xlink:href="#m6b62622506" x="57.6" y="263.232" style="stroke: #000000; stroke-width: 0.8"/>
      </g>
     </g>
     <g id="text_10">
      <!-- $\mathdefault{10^{-2}}$ -->
      <g transform="translate(27.1 267.031219) scale(0.1 -0.1)">
       <use xlink:href="#DejaVuSans-31" transform="translate(0 0.765625)"/>
       <use xlink:href="#DejaVuSans-30" transform="translate(63.623047 0.765625)"/>
       <use xlink:href="#DejaVuSans-2212" transform="translate(128.203125 39.046875) scale(0.7)"/>
       <use xlink:href="#DejaVuSans-32" transform="translate(186.855469 39.046875) scale(0.7)"/>
      </g>
     </g>
    </g>
    <g id="ytick_3">
     <g id="line2d_10">
      <g>
       <use xlink:href="#m6b62622506" x="57.6" y="218.88" style="stroke: #000000; stroke-width: 0.8"/>
      </g>
     </g>
     <g id="text_11">
      <!-- $\mathdefault{10^{-1}}$ -->
      <g transform="translate(27.1 222.679219) scale(0.1 -0.1)">
       <use xlink:href="#DejaVuSans-31" transform="translate(0 0.684375)"/>
       <use xlink:href="#DejaVuSans-30" transform="translate(63.623047 0.684375)"/>
       <use xlink:href="#DejaVuSans-2212" transform="translate(128.203125 38.965625) scale(0.7)"/>
       <use xlink:href="#DejaVuSans-31" transform="translate(186.855469 38.965625) scale(0.7)"/>
      </g>
     </g>
    </g>
    <g id="ytick_4">
     <g id="line2d_11">
      <g>
       <use xlink:href="#m6b62622506" x="57.6" y="174.528" style="stroke: #000000; stroke-width: 0.8"/>
      </g>
     </g>
     <g id="text_12">
      <!-- $\mathdefault{10^{0}}$ -->
      <g transform="translate(33 178.327219) scale(0.1 -0.1)">
       <use xlink:href="#DejaVuSans-31" transform="translate(0 0.765625)"/>
       <use xlink:href="#DejaVuSans-30" transform="translate(63.623047 0.765625)"/>
       <use xlink:href="#DejaVuSans-30" transform="translate(128.203125 39.046875) scale(0.7)"/>
      </g>
     </g>
    </g>
    <g id="ytick_5">
     <g id="line2d_12">
      <g>
       <use xlink:href="#m6b62622506" x="57.6" y="130.176" style="stroke: #000000; stroke-width: 0.8"/>
      </g>
     </g>
     <g id="text_13">
      <!-- $\mathdefault{10^{1}}$ -->
      <g transform="translate(33 133.975219) scale(0.1 -0.1)">
       <use xlink:href="#DejaVuSans-31" transform="translate(0 0.684375)"/>
       <use xlink:href="#DejaVuSans-30" transform="translate(63.623047 0.684375)"/>
       <use xlink:href="#DejaVuSans-31" transform="translate(128.203125 38.965625) scale(0.7)"/>
      </g>
     </g>
    </g>
    <g id="ytick_6">
     <g id="line2d_13">
      <g>
       <use xlink:href="#m6b62622506" x="57.6" y="85.824" style="stroke: #000000; stroke-width: 0.8"/>
      </g>
     </g>
     <g id="text_14">
      <!-- $\mathdefault{10^{2}}$ -->
      <g transform="translate(33 89.623219) scale(0.1 -0.1)">
       <use xlink:href="#DejaVuSans-31" transform="translate(0 0.765625)"/>
       <use xlink:href="#DejaVuSans-30" transform="translate(63.623047 0.765625)"/>
       <use xlink:href="#DejaVuSans-32" transform="translate(128.203125 39.046875) scale(0.7)"/>
      </g>
     </g>
    </g>
    <g id="ytick_7">
     <g id="line2d_14">
      <g>
       <use xlink:href="#m6b62622506" x="57.6" y="41.472" style="stroke: #000000; stroke-width: 0.8"/>
      </g>
     </g>
     <g id="text_15">
      <!-- $\mathdefault{10^{3}}$ -->
      <g transform="translate(33 45.271219) scale(0.1 -0.1)">
       <use xlink:href="#DejaVuSans-31" transform="translate(0 0.765625)"/>
       <use xlink:href="#DejaVuSans-30" transform="translate(63.623047 0.765625)"/>
       <use xlink:href="#DejaVuSans-33" transform="translate(128.203125 39.046875) scale(0.7)"/>
      </g>
     </g>
    </g>
    <g id="ytick_8">
     <g id="line2d_15">
      <defs>
       <path id="mf8d696a67e" d="M 0 0 
L -2 0 
" style="stroke: #000000; stroke-width: 0.6"/>
      </defs>
      <g>
       <use xlink:href="#mf8d696a67e" x="57.6" y="294.232718" style="stroke: #000000; stroke-width: 0.6"/>
      </g>
     </g>
    </g>
    <g id="ytick_9">
     <g id="line2d_16">
      <g>
       <use xlink:href="#mf8d696a67e" x="57.6" y="286.422718" style="stroke: #000000; stroke-width: 0.6"/>
      </g>
     </g>
    </g>
    <g id="ytick_10">
     <g id="line2d_17">
      <g>
       <use xlink:href="#mf8d696a67e" x="57.6" y="280.881435" style="stroke: #000000; stroke-width: 0.6"/>
      </g>
     </g>
    </g>
    <g id="ytick_11">
     <g id="line2d_18">
      <g>
       <use xlink:href="#mf8d696a67e" x="57.6" y="276.583282" style="stroke: #000000; stroke-width: 0.6"/>
      </g>
     </g>
    </g>
    <g id="ytick_12">
     <g id="line2d_19">
      <g>
       <use xlink:href="#mf8d696a67e" x="57.6" y="273.071436" style="stroke: #000000; stroke-width: 0.6"/>
      </g>
     </g>
    </g>
    <g id="ytick_13">
     <g id="line2d_20">
      <g>
       <use xlink:href="#mf8d696a67e" x="57.6" y="270.102212" style="stroke: #000000; stroke-width: 0.6"/>
      </g>
     </g>
    </g>
    <g id="ytick_14">
     <g id="line2d_21">
      <g>
       <use xlink:href="#mf8d696a67e" x="57.6" y="267.530153" style="stroke: #000000; stroke-width: 0.6"/>
      </g>
     </g>
    </g>
    <g id="ytick_15">
     <g id="line2d_22">
      <g>
       <use xlink:href="#mf8d696a67e" x="57.6" y="265.261436" style="stroke: #000000; stroke-width: 0.6"/>
      </g>
     </g>
    </g>
    <g id="ytick_16">
     <g id="line2d_23">
      <g>
       <use xlink:href="#mf8d696a67e" x="57.6" y="249.880718" style="stroke: #000000; stroke-width: 0.6"/>
      </g>
     </g>
    </g>
    <g id="ytick_17">
     <g id="line2d_24">
      <g>
       <use xlink:href="#mf8d696a67e" x="57.6" y="242.070718" style="stroke: #000000; stroke-width: 0.6"/>
      </g>
     </g>
    </g>
    <g id="ytick_18">
     <g id="line2d_25">
      <g>
       <use xlink:href="#mf8d696a67e" x="57.6" y="236.529435" style="stroke: #000000; stroke-width: 0.6"/>
      </g>
     </g>
    </g>
    <g id="ytick_19">
     <g id="line2d_26">
      <g>
       <use xlink:href="#mf8d696a67e" x="57.6" y="232.231282" style="stroke: #000000; stroke-width: 0.6"/>
      </g>
     </g>
    </g>
    <g id="ytick_20">
     <g id="line2d_27">
      <g>
       <use xlink:href="#mf8d696a67e" x="57.6" y="228.719436" style="stroke: #000000; stroke-width: 0.6"/>
      </g>
     </g>
    </g>
    <g id="ytick_21">
     <g id="line2d_28">
      <g>
       <use xlink:href="#mf8d696a67e" x="57.6" y="225.750212" style="stroke: #000000; stroke-width: 0.6"/>
      </g>
     </g>
    </g>
    <g id="ytick_22">
     <g id="line2d_29">
      <g>
       <use xlink:href="#mf8d696a67e" x="57.6" y="223.178153" style="stroke: #000000; stroke-width: 0.6"/>
      </g>
     </g>
    </g>
    <g id="ytick_23">
     <g id="line2d_30">
      <g>
       <use xlink:href="#mf8d696a67e" x="57.6" y="220.909436" style="stroke: #000000; stroke-width: 0.6"/>
      </g>
     </g>
    </g>
    <g id="ytick_24">
     <g id="line2d_31">
      <g>
       <use xlink:href="#mf8d696a67e" x="57.6" y="205.528718" style="stroke: #000000; stroke-width: 0.6"/>
      </g>
     </g>
    </g>
    <g id="ytick_25">
     <g id="line2d_32">
      <g>
       <use xlink:href="#mf8d696a67e" x="57.6" y="197.718718" style="stroke: #000000; stroke-width: 0.6"/>
      </g>
     </g>
    </g>
    <g id="ytick_26">
     <g id="line2d_33">
      <g>
       <use xlink:href="#mf8d696a67e" x="57.6" y="192.177435" style="stroke: #000000; stroke-width: 0.6"/>
      </g>
     </g>
    </g>
    <g id="ytick_27">
     <g id="line2d_34">
      <g>
       <use xlink:href="#mf8d696a67e" x="57.6" y="187.879282" style="stroke: #000000; stroke-width: 0.6"/>
      </g>
     </g>
    </g>
    <g id="ytick_28">
     <g id="line2d_35">
      <g>
       <use xlink:href="#mf8d696a67e" x="57.6" y="184.367436" style="stroke: #000000; stroke-width: 0.6"/>
      </g>
     </g>
    </g>
    <g id="ytick_29">
     <g id="line2d_36">
      <g>
       <use xlink:href="#mf8d696a67e" x="57.6" y="181.398212" style="stroke: #000000; stroke-width: 0.6"/>
      </g>
     </g>
    </g>
    <g id="ytick_30">
     <g id="line2d_37">
      <g>
       <use xlink:href="#mf8d696a67e" x="57.6" y="178.826153" style="stroke: #000000; stroke-width: 0.6"/>
      </g>
     </g>
    </g>
    <g id="ytick_31">
     <g id="line2d_38">
      <g>
       <use xlink:href="#mf8d696a67e" x="57.6" y="176.557436" style="stroke: #000000; stroke-width: 0.6"/>
      </g>
     </g>
    </g>
    <g id="ytick_32">
     <g id="line2d_39">
      <g>
       <use xlink:href="#mf8d696a67e" x="57.6" y="161.176718" style="stroke: #000000; stroke-width: 0.6"/>
      </g>
     </g>
    </g>
    <g id="ytick_33">
     <g id="line2d_40">
      <g>
       <use xlink:href="#mf8d696a67e" x="57.6" y="153.366718" style="stroke: #000000; stroke-width: 0.6"/>
      </g>
     </g>
    </g>
    <g id="ytick_34">
     <g id="line2d_41">
      <g>
       <use xlink:href="#mf8d696a67e" x="57.6" y="147.825435" style="stroke: #000000; stroke-width: 0.6"/>
      </g>
     </g>
    </g>
    <g id="ytick_35">
     <g id="line2d_42">
      <g>
       <use xlink:href="#mf8d696a67e" x="57.6" y="143.527282" style="stroke: #000000; stroke-width: 0.6"/>
      </g>
     </g>
    </g>
    <g id="ytick_36">
     <g id="line2d_43">
      <g>
       <use xlink:href="#mf8d696a67e" x="57.6" y="140.015436" style="stroke: #000000; stroke-width: 0.6"/>
      </g>
     </g>
    </g>
    <g id="ytick_37">
     <g id="line2d_44">
      <g>
       <use xlink:href="#mf8d696a67e" x="57.6" y="137.046212" style="stroke: #000000; stroke-width: 0.6"/>
      </g>
     </g>
    </g>
    <g id="ytick_38">
     <g id="line2d_45">
      <g>
       <use xlink:href="#mf8d696a67e" x="57.6" y="134.474153" style="stroke: #000000; stroke-width: 0.6"/>
      </g>
     </g>
    </g>
    <g id="ytick_39">
     <g id="line2d_46">
      <g>
       <use xlink:href="#mf8d696a67e" x="57.6" y="132.205436" style="stroke: #000000; stroke-width: 0.6"/>
      </g>
     </g>
    </g>
    <g id="ytick_40">
     <g id="line2d_47">
      <g>
       <use xlink:href="#mf8d696a67e" x="57.6" y="116.824718" style="stroke: #000000; stroke-width: 0.6"/>
      </g>
     </g>
    </g>
    <g id="ytick_41">
     <g id="line2d_48">
      <g>
       <use xlink:href="#mf8d696a67e" x="57.6" y="109.014718" style="stroke: #000000; stroke-width: 0.6"/>
      </g>
     </g>
    </g>
    <g id="ytick_42">
     <g id="line2d_49">
      <g>
       <use xlink:href="#mf8d696a67e" x="57.6" y="103.473435" style="stroke: #000000; stroke-width: 0.6"/>
      </g>
     </g>
    </g>
    <g id="ytick_43">
     <g id="line2d_50">
      <g>
       <use xlink:href="#mf8d696a67e" x="57.6" y="99.175282" style="stroke: #000000; stroke-width: 0.6"/>
      </g>
     </g>
    </g>
    <g id="ytick_44">
     <g id="line2d_51">
      <g>
       <use xlink:href="#mf8d696a67e" x="57.6" y="95.663436" style="stroke: #000000; stroke-width: 0.6"/>
      </g>
     </g>
    </g>
    <g id="ytick_45">
     <g id="line2d_52">
      <g>
       <use xlink:href="#mf8d696a67e" x="57.6" y="92.694212" style="stroke: #000000; stroke-width: 0.6"/>
      </g>
     </g>
    </g>
    <g id="ytick_46">
     <g id="line2d_53">
      <g>
       <use xlink:href="#mf8d696a67e" x="57.6" y="90.122153" style="stroke: #000000; stroke-width: 0.6"/>
      </g>
     </g>
    </g>
    <g id="ytick_47">
     <g id="line2d_54">
      <g>
       <use xlink:href="#mf8d696a67e" x="57.6" y="87.853436" style="stroke: #000000; stroke-width: 0.6"/>
      </g>
     </g>
    </g>
    <g id="ytick_48">
     <g id="line2d_55">
      <g>
       <use xlink:href="#mf8d696a67e" x="57.6" y="72.472718" style="stroke: #000000; stroke-width: 0.6"/>
      </g>
     </g>
    </g>
    <g id="ytick_49">
     <g id="line2d_56">
      <g>
       <use xlink:href="#mf8d696a67e" x="57.6" y="64.662718" style="stroke: #000000; stroke-width: 0.6"/>
      </g>
     </g>
    </g>
    <g id="ytick_50">
     <g id="line2d_57">
      <g>
       <use xlink:href="#mf8d696a67e" x="57.6" y="59.121435" style="stroke: #000000; stroke-width: 0.6"/>
      </g>
     </g>
    </g>
    <g id="ytick_51">
     <g id="line2d_58">
      <g>
       <use xlink:href="#mf8d696a67e" x="57.6" y="54.823282" style="stroke: #000000; stroke-width: 0.6"/>
      </g>
     </g>
    </g>
    <g id="ytick_52">
     <g id="line2d_59">
      <g>
       <use xlink:href="#mf8d696a67e" x="57.6" y="51.311436" style="stroke: #000000; stroke-width: 0.6"/>
      </g>
     </g>
    </g>
    <g id="ytick_53">
     <g id="line2d_60">
      <g>
       <use xlink:href="#mf8d696a67e" x="57.6" y="48.342212" style="stroke: #000000; stroke-width: 0.6"/>
      </g>
     </g>
    </g>
    <g id="ytick_54">
     <g id="line2d_61">
      <g>
       <use xlink:href="#mf8d696a67e" x="57.6" y="45.770153" style="stroke: #000000; stroke-width: 0.6"/>
      </g>
     </g>
    </g>
    <g id="ytick_55">
     <g id="line2d_62">
      <g>
       <use xlink:href="#mf8d696a67e" x="57.6" y="43.501436" style="stroke: #000000; stroke-width: 0.6"/>
      </g>
     </g>
    </g>
    <g id="text_16">
     <!-- Leistung/Frequenz (V²/Hz) -->
     <g transform="translate(21.020312 239.182687) rotate(-90) scale(0.1 -0.1)">
      <defs>
       <path id="DejaVuSans-4c" d="M 628 4666 
L 1259 4666 
L 1259 531 
L 3531 531 
L 3531 0 
L 628 0 
L 628 4666 
z
" transform="scale(0.015625)"/>
       <path id="DejaVuSans-73" d="M 2834 3397 
L 2834 2853 
Q 2591 2978 2328 3040 
Q 2066 3103 1784 3103 
Q 1356 3103 1142 2972 
Q 928 2841 928 2578 
Q 928 2378 1081 2264 
Q 1234 2150 1697 2047 
L 1894 2003 
Q 2506 1872 2764 1633 
Q 3022 1394 3022 966 
Q 3022 478 2636 193 
Q 2250 -91 1575 -91 
Q 1294 -91 989 -36 
Q 684 19 347 128 
L 347 722 
Q 666 556 975 473 
Q 1284 391 1588 391 
Q 1994 391 2212 530 
Q 2431 669 2431 922 
Q 2431 1156 2273 1281 
Q 2116 1406 1581 1522 
L 1381 1569 
Q 847 1681 609 1914 
Q 372 2147 372 2553 
Q 372 3047 722 3315 
Q 1072 3584 1716 3584 
Q 2034 3584 2315 3537 
Q 2597 3491 2834 3397 
z
" transform="scale(0.015625)"/>
       <path id="DejaVuSans-74" d="M 1172 4494 
L 1172 3500 
L 2356 3500 
L 2356 3053 
L 1172 3053 
L 1172 1153 
Q 1172 725 1289 603 
Q 1406 481 1766 481 
L 2356 481 
L 2356 0 
L 1766 0 
Q 1100 0 847 248 
Q 594 497 594 1153 
L 594 3053 
L 172 3053 
L 172 3500 
L 594 3500 
L 594 4494 
L 1172 4494 
z
" transform="scale(0.015625)"/>
       <path id="DejaVuSans-67" d="M 2906 1791 
Q 2906 2416 2648 2759 
Q 2391 3103 1925 3103 
Q 1463 3103 1205 2759 
Q 947 2416 947 1791 
Q 947 1169 1205 825 
Q 1463 481 1925 481 
Q 2391 481 2648 825 
Q 2906 1169 2906 1791 
z
M 3481 434 
Q 3481 -459 3084 -895 
Q 2688 -1331 1869 -1331 
Q 1566 -1331 1297 -1286 
Q 1028 -1241 775 -1147 
L 775 -588 
Q 1028 -725 1275 -790 
Q 1522 -856 1778 -856 
Q 2344 -856 2625 -561 
Q 2906 -266 2906 331 
L 2906 616 
Q 2728 306 2450 153 
Q 2172 0 1784 0 
Q 1141 0 747 490 
Q 353 981 353 1791 
Q 353 2603 747 3093 
Q 1141 3584 1784 3584 
Q 2172 3584 2450 3431 
Q 2728 3278 2906 2969 
L 2906 3500 
L 3481 3500 
L 3481 434 
z
" transform="scale(0.015625)"/>
       <path id="DejaVuSans-2f" d="M 1625 4666 
L 2156 4666 
L 531 -594 
L 0 -594 
L 1625 4666 
z
" transform="scale(0.015625)"/>
       <path id="DejaVuSans-28" d="M 1984 4856 
Q 1566 4138 1362 3434 
Q 1159 2731 1159 2009 
Q 1159 1288 1364 580 
Q 1569 -128 1984 -844 
L 1484 -844 
Q 1016 -109 783 600 
Q 550 1309 550 2009 
Q 550 2706 781 3412 
Q 1013 4119 1484 4856 
L 1984 4856 
z
" transform="scale(0.015625)"/>
       <path id="DejaVuSans-56" d="M 1831 0 
L 50 4666 
L 709 4666 
L 2188 738 
L 3669 4666 
L 4325 4666 
L 2547 0 
L 1831 0 
z
" transform="scale(0.015625)"/>
       <path id="DejaVuSans-b2" d="M 838 2444 
L 2163 2444 
L 2163 2088 
L 294 2088 
L 294 2431 
Q 400 2528 597 2703 
Q 1672 3656 1672 3950 
Q 1672 4156 1509 4282 
Q 1347 4409 1081 4409 
Q 919 4409 728 4354 
Q 538 4300 313 4191 
L 313 4575 
Q 553 4663 761 4706 
Q 969 4750 1147 4750 
Q 1600 4750 1872 4544 
Q 2144 4338 2144 4000 
Q 2144 3566 1109 2678 
Q 934 2528 838 2444 
z
" transform="scale(0.015625)"/>
       <path id="DejaVuSans-29" d="M 513 4856 
L 1013 4856 
Q 1481 4119 1714 3412 
Q 1947 2706 1947 2009 
Q 1947 1309 1714 600 
Q 1481 -109 1013 -844 
L 513 -844 
Q 928 -128 1133 580 
Q 1338 1288 1338 2009 
Q 1338 2731 1133 3434 
Q 928 4138 513 4856 
z
" transform="scale(0.015625)"/>
      </defs>
      <use xlink:href="#DejaVuSans-4c"/>
      <use xlink:href="#DejaVuSans-65" transform="translate(53.962891 0)"/>
      <use xlink:href="#DejaVuSans-69" transform="translate(115.486328 0)"/>
      <use xlink:href="#DejaVuSans-73" transform="translate(143.269531 0)"/>
      <use xlink:href="#DejaVuSans-74" transform="translate(195.369141 0)"/>
      <use xlink:href="#DejaVuSans-75" transform="translate(234.578125 0)"/>
      <use xlink:href="#DejaVuSans-6e" transform="translate(297.957031 0)"/>
      <use xlink:href="#DejaVuSans-67" transform="translate(361.335938 0)"/>
      <use xlink:href="#DejaVuSans-2f" transform="translate(424.8125 0)"/>
      <use xlink:href="#DejaVuSans-46" transform="translate(458.503906 0)"/>
      <use xlink:href="#DejaVuSans-72" transform="translate(508.773438 0)"/>
      <use xlink:href="#DejaVuSans-65" transform="translate(547.636719 0)"/>
      <use xlink:href="#DejaVuSans-71" transform="translate(609.160156 0)"/>
      <use xlink:href="#DejaVuSans-75" transform="translate(672.636719 0)"/>
      <use xlink:href="#DejaVuSans-65" transform="translate(736.015625 0)"/>
      <use xlink:href="#DejaVuSans-6e" transform="translate(797.539062 0)"/>
      <use xlink:href="#DejaVuSans-7a" transform="translate(860.917969 0)"/>
      <use xlink:href="#DejaVuSans-20" transform="translate(913.408203 0)"/>
      <use xlink:href="#DejaVuSans-28" transform="translate(945.195312 0)"/>
      <use xlink:href="#DejaVuSans-56" transform="translate(984.208984 0)"/>
      <use xlink:href="#DejaVuSans-b2" transform="translate(1052.617188 0)"/>
      <use xlink:href="#DejaVuSans-2f" transform="translate(1092.705078 0)"/>
      <use xlink:href="#DejaVuSans-48" transform="translate(1126.396484 0)"/>
      <use xlink:href="#DejaVuSans-7a" transform="translate(1201.591797 0)"/>
      <use xlink:href="#DejaVuSans-29" transform="translate(1254.082031 0)"/>
     </g>
    </g>
   </g>
   <g id="line2d_63">
    <path d="M 73.832727 244.191954 
L 74.466818 283.637148 
L 74.783864 210.704565 
L 75.417955 150.565752 
L 75.735 143.017072 
L 76.369091 156.525205 
L 76.686136 150.006811 
L 77.003182 139.241198 
L 77.954318 173.052192 
L 78.271364 171.965336 
L 78.588409 173.687609 
L 78.905455 170.127437 
L 79.2225 170.105059 
L 79.539545 172.365979 
L 80.173636 173.991702 
L 80.807727 183.705859 
L 81.124773 183.148071 
L 81.441818 183.680937 
L 82.075909 188.884882 
L 82.392955 190.012131 
L 82.71 192.577543 
L 83.027045 192.384441 
L 83.344091 189.208989 
L 83.661136 191.206408 
L 83.978182 193.982491 
L 84.295227 192.56807 
L 84.612273 195.511014 
L 84.929318 192.860475 
L 85.246364 192.71275 
L 85.563409 192.039932 
L 85.880455 197.065995 
L 86.1975 198.006507 
L 86.514545 195.51534 
L 86.831591 198.286453 
L 87.148636 198.680852 
L 87.465682 198.834724 
L 88.099773 207.704131 
L 88.416818 207.833859 
L 88.733864 204.204471 
L 89.050909 204.332933 
L 89.367955 200.313565 
L 89.685 198.085447 
L 90.002045 201.078471 
L 90.319091 206.490693 
L 90.636136 206.035537 
L 90.953182 202.833852 
L 91.270227 201.535587 
L 91.587273 206.947252 
L 92.221364 202.332732 
L 92.538409 202.960498 
L 92.855455 203.197799 
L 93.1725 202.505679 
L 93.489545 197.118288 
L 93.806591 197.644437 
L 94.123636 201.096698 
L 94.757727 191.89657 
L 95.074773 193.143224 
L 95.391818 190.170711 
L 95.708864 189.069501 
L 96.025909 188.545212 
L 96.342955 183.918915 
L 96.66 184.149105 
L 96.977045 185.594546 
L 97.294091 183.777732 
L 97.611136 185.350733 
L 97.928182 181.085306 
L 98.562273 185.484707 
L 99.196364 187.415529 
L 99.830455 193.482396 
L 100.1475 195.601203 
L 100.464545 194.906356 
L 101.098636 198.539064 
L 101.415682 198.745671 
L 101.732727 199.377344 
L 102.366818 191.656335 
L 102.683864 195.254117 
L 103.000909 200.873145 
L 103.317955 200.126016 
L 103.635 202.422878 
L 103.952045 200.747111 
L 104.269091 200.833774 
L 104.586136 202.310379 
L 104.903182 202.966004 
L 105.220227 204.021413 
L 105.537273 198.799978 
L 106.171364 204.891279 
L 106.488409 204.025446 
L 106.805455 203.491609 
L 107.1225 208.705095 
L 107.439545 211.685398 
L 107.756591 207.929548 
L 108.073636 210.905907 
L 108.390682 217.482126 
L 108.707727 211.865176 
L 109.024773 215.063934 
L 109.341818 214.961911 
L 109.658864 211.766395 
L 109.975909 211.507966 
L 110.292955 213.771417 
L 110.61 207.350249 
L 110.927045 210.247881 
L 111.244091 207.675349 
L 111.561136 209.149126 
L 111.878182 212.358791 
L 112.512273 204.75553 
L 113.146364 216.307747 
L 113.463409 212.158394 
L 113.780455 210.588982 
L 114.0975 215.949495 
L 114.414545 218.106004 
L 114.731591 212.432876 
L 115.048636 212.419032 
L 115.682727 219.864319 
L 115.999773 215.334904 
L 116.316818 220.044402 
L 116.633864 217.167119 
L 116.950909 218.096011 
L 117.267955 212.104052 
L 117.585 211.051506 
L 117.902045 213.289945 
L 118.219091 217.076175 
L 118.536136 218.663233 
L 118.853182 215.385534 
L 119.170227 214.106666 
L 119.487273 210.176979 
L 119.804318 212.936466 
L 120.121364 212.620641 
L 120.438409 209.646185 
L 120.755455 208.187879 
L 121.389545 213.885589 
L 121.706591 216.465714 
L 122.023636 215.812765 
L 122.340682 220.721434 
L 122.657727 220.142018 
L 122.974773 217.201396 
L 123.291818 217.149211 
L 123.925909 214.876914 
L 124.242955 223.515469 
L 124.877045 217.661523 
L 125.194091 219.769312 
L 125.511136 215.578322 
L 125.828182 216.465358 
L 126.145227 213.073458 
L 126.462273 214.367581 
L 126.779318 216.880176 
L 127.413409 218.699617 
L 128.0475 223.420332 
L 128.681591 218.916589 
L 128.998636 219.840563 
L 129.315682 221.526239 
L 129.632727 219.600788 
L 129.949773 218.803895 
L 130.266818 220.976551 
L 130.583864 220.447023 
L 130.900909 215.971198 
L 131.535 219.506762 
L 131.852045 220.320224 
L 132.169091 220.11329 
L 132.486136 220.584177 
L 132.803182 219.548668 
L 133.120227 218.916856 
L 133.754318 215.442958 
L 134.071364 220.553318 
L 134.388409 221.101514 
L 134.705455 217.654776 
L 135.0225 217.514991 
L 135.339545 220.157052 
L 135.656591 221.519176 
L 135.973636 224.746902 
L 136.290682 221.7002 
L 136.607727 222.677147 
L 136.924773 229.137839 
L 137.241818 224.382486 
L 137.558864 217.637013 
L 137.875909 223.228319 
L 138.192955 222.194217 
L 138.51 218.080622 
L 138.827045 220.138253 
L 139.144091 224.388711 
L 139.461136 224.293209 
L 139.778182 223.228628 
L 140.095227 221.105432 
L 140.412273 227.379512 
L 140.729318 224.830388 
L 141.046364 225.846301 
L 141.363409 227.817646 
L 141.9975 218.011241 
L 142.631591 225.120493 
L 142.948636 220.390588 
L 143.265682 218.118491 
L 143.899773 227.775587 
L 144.216818 227.449076 
L 144.533864 228.550921 
L 144.850909 228.675663 
L 145.167955 228.225406 
L 145.485 231.029646 
L 145.802045 223.806894 
L 146.119091 222.07183 
L 146.436136 222.454132 
L 146.753182 227.646177 
L 147.070227 227.356404 
L 147.387273 222.985922 
L 147.704318 220.260202 
L 148.021364 221.492451 
L 148.338409 226.462397 
L 149.289545 218.35167 
L 149.923636 227.082251 
L 150.240682 225.857159 
L 150.557727 223.971868 
L 150.874773 222.850185 
L 151.191818 224.997546 
L 151.508864 228.831692 
L 151.825909 226.819243 
L 152.142955 227.284271 
L 152.46 226.863407 
L 152.777045 227.92703 
L 153.094091 224.657389 
L 153.411136 222.845648 
L 153.728182 226.452234 
L 154.045227 225.685962 
L 154.362273 225.993966 
L 154.679318 226.097575 
L 154.996364 231.707925 
L 155.313409 229.593876 
L 155.630455 220.664747 
L 155.9475 223.439254 
L 156.264545 224.837915 
L 156.581591 222.763154 
L 156.898636 224.190975 
L 157.215682 229.320635 
L 157.532727 228.848938 
L 157.849773 229.123037 
L 158.166818 228.296962 
L 158.800909 231.502615 
L 159.117955 221.474664 
L 159.435 217.841309 
L 159.752045 220.485348 
L 160.069091 230.385729 
L 160.386136 231.468564 
L 160.703182 229.86747 
L 161.020227 230.081955 
L 161.337273 226.306474 
L 161.654318 226.486307 
L 161.971364 223.047974 
L 162.288409 223.694291 
L 162.605455 227.880687 
L 162.9225 227.41507 
L 163.239545 228.471742 
L 163.556591 236.411084 
L 163.873636 239.687812 
L 164.507727 229.396085 
L 164.824773 235.28389 
L 165.141818 232.257555 
L 165.458864 223.389656 
L 165.775909 221.676108 
L 166.092955 220.933671 
L 166.41 222.02006 
L 166.727045 226.514331 
L 167.044091 225.637029 
L 167.995227 235.53195 
L 168.312273 230.852563 
L 168.629318 229.980248 
L 168.946364 225.927368 
L 169.263409 227.850235 
L 169.580455 223.306619 
L 169.8975 223.806082 
L 170.214545 224.793153 
L 170.531591 221.114787 
L 171.165682 232.67508 
L 171.482727 233.027414 
L 171.799773 229.851812 
L 172.116818 232.02726 
L 172.750909 233.426549 
L 173.067955 239.391273 
L 173.385 241.420013 
L 174.019091 230.418763 
L 174.336136 232.417084 
L 174.653182 225.383435 
L 174.970227 223.033318 
L 175.287273 223.967632 
L 175.604318 231.6645 
L 175.921364 235.718876 
L 176.238409 232.749493 
L 176.555455 234.921369 
L 176.8725 235.698474 
L 177.506591 229.719416 
L 177.823636 229.011524 
L 178.140682 231.578814 
L 178.457727 228.804586 
L 179.091818 236.659619 
L 179.408864 235.547798 
L 179.725909 232.283014 
L 180.042955 232.319102 
L 180.36 231.469244 
L 180.677045 233.973311 
L 181.311136 231.955679 
L 181.628182 231.514946 
L 181.945227 229.357799 
L 182.262273 232.006918 
L 182.579318 236.049014 
L 182.896364 234.729157 
L 183.213409 235.613362 
L 183.530455 237.84348 
L 183.8475 238.865896 
L 184.164545 239.361621 
L 184.481591 232.859886 
L 184.798636 233.022114 
L 185.115682 232.562154 
L 185.432727 235.482404 
L 185.749773 234.415805 
L 186.066818 231.707993 
L 186.383864 230.373008 
L 186.700909 232.981821 
L 187.017955 230.437202 
L 187.335 233.603722 
L 187.652045 235.59249 
L 187.969091 233.707296 
L 188.286136 233.35535 
L 188.920227 237.536836 
L 189.237273 238.171167 
L 189.554318 240.274013 
L 189.871364 231.677671 
L 190.188409 226.421546 
L 190.8225 228.568292 
L 191.139545 228.843267 
L 191.773636 237.38077 
L 192.090682 238.171804 
L 192.407727 232.9995 
L 192.724773 234.611486 
L 193.041818 234.308478 
L 193.358864 232.792088 
L 193.675909 236.302311 
L 193.992955 235.703394 
L 194.31 226.923432 
L 194.627045 229.967792 
L 194.944091 230.107321 
L 195.261136 237.101792 
L 195.578182 240.694808 
L 195.895227 233.195703 
L 196.212273 232.383213 
L 196.529318 238.398518 
L 196.846364 237.508207 
L 197.163409 234.492173 
L 197.480455 234.14418 
L 198.114545 240.964443 
L 198.431591 235.432116 
L 198.748636 232.768972 
L 199.065682 233.63732 
L 199.382727 233.662747 
L 199.699773 232.454045 
L 200.016818 234.415909 
L 200.333864 237.244805 
L 200.650909 235.12085 
L 200.967955 235.195598 
L 201.285 234.3752 
L 201.602045 234.744883 
L 201.919091 235.329235 
L 202.236136 234.082835 
L 202.553182 236.335196 
L 202.870227 234.113403 
L 203.187273 229.749836 
L 203.504318 235.562428 
L 203.821364 237.652724 
L 204.138409 242.724589 
L 204.455455 240.502016 
L 204.7725 236.65216 
L 205.089545 236.929093 
L 205.406591 233.67551 
L 205.723636 233.209552 
L 206.357727 240.489922 
L 206.674773 238.918203 
L 206.991818 240.973833 
L 207.308864 239.587094 
L 207.625909 237.587806 
L 207.942955 233.383406 
L 208.26 235.602134 
L 208.577045 238.776494 
L 208.894091 232.895179 
L 209.211136 236.399195 
L 209.528182 238.383381 
L 209.845227 241.521202 
L 210.162273 240.870106 
L 210.479318 233.10748 
L 210.796364 229.550416 
L 211.430455 237.15155 
L 211.7475 233.742731 
L 212.064545 236.883503 
L 212.698636 234.26953 
L 213.015682 235.492965 
L 213.332727 235.096878 
L 213.966818 240.558432 
L 214.283864 237.249205 
L 214.600909 236.382078 
L 214.917955 239.489184 
L 215.235 234.898861 
L 215.552045 232.743761 
L 216.503182 242.012801 
L 216.820227 239.577271 
L 217.137273 239.342684 
L 217.454318 240.473336 
L 217.771364 242.395559 
L 218.088409 239.473309 
L 218.405455 239.020198 
L 218.7225 237.706524 
L 219.039545 237.649693 
L 219.356591 238.253486 
L 219.673636 238.088045 
L 219.990682 240.49361 
L 220.307727 238.624015 
L 220.624773 241.394144 
L 221.258864 240.779535 
L 221.575909 241.968912 
L 222.21 240.762537 
L 222.527045 243.419733 
L 222.844091 238.97965 
L 223.478182 245.526125 
L 224.112273 240.272265 
L 224.429318 240.49003 
L 225.063409 238.202841 
L 225.380455 238.015315 
L 226.014545 241.272568 
L 226.331591 242.450033 
L 226.648636 241.234134 
L 226.965682 239.476025 
L 227.282727 246.533273 
L 227.599773 246.614286 
L 227.916818 244.335754 
L 228.233864 243.802042 
L 228.550909 238.860579 
L 228.867955 238.098022 
L 229.185 231.601674 
L 229.502045 205.466188 
L 229.819091 210.873739 
L 230.136136 244.993155 
L 230.453182 239.161223 
L 230.770227 242.26644 
L 231.087273 240.998479 
L 231.721364 244.678236 
L 232.038409 239.18127 
L 232.355455 243.217241 
L 232.6725 242.379198 
L 232.989545 241.204624 
L 233.306591 246.951961 
L 233.623636 247.466188 
L 233.940682 242.902312 
L 234.257727 244.540217 
L 234.574773 245.370073 
L 234.891818 240.426199 
L 235.208864 244.762669 
L 235.525909 239.534363 
L 235.842955 237.439729 
L 236.16 238.324656 
L 236.477045 243.460839 
L 236.794091 244.305597 
L 237.111136 243.532947 
L 237.428182 244.636886 
L 237.745227 244.76002 
L 238.062273 244.639352 
L 238.379318 246.620278 
L 238.696364 246.69593 
L 239.013409 248.14572 
L 239.330455 248.515889 
L 239.964545 240.927897 
L 240.281591 246.897006 
L 240.598636 247.291085 
L 240.915682 245.827648 
L 241.232727 246.848255 
L 241.549773 247.117458 
L 241.866818 243.730095 
L 242.183864 245.669769 
L 242.500909 249.212459 
L 242.817955 246.105463 
L 243.135 248.456097 
L 243.452045 240.765489 
L 243.769091 239.893545 
L 244.086136 240.851148 
L 244.403182 245.838192 
L 244.720227 245.475554 
L 245.037273 244.041361 
L 245.354318 246.156655 
L 245.671364 244.819925 
L 246.305455 241.665218 
L 246.6225 241.09948 
L 246.939545 246.055989 
L 247.256591 246.215477 
L 247.573636 245.037403 
L 247.890682 243.218319 
L 248.207727 243.743378 
L 248.524773 248.664486 
L 248.841818 247.527054 
L 249.158864 244.596243 
L 249.475909 240.03067 
L 249.792955 244.289124 
L 250.11 245.627101 
L 250.427045 243.907619 
L 251.061136 242.053533 
L 251.378182 242.849425 
L 252.012273 248.080725 
L 252.329318 245.595591 
L 252.646364 246.40237 
L 252.963409 244.717457 
L 253.280455 244.197194 
L 253.5975 241.413767 
L 253.914545 247.311845 
L 254.231591 248.876786 
L 254.548636 245.431392 
L 254.865682 246.006633 
L 255.182727 247.736068 
L 255.499773 246.797187 
L 255.816818 248.5328 
L 256.133864 245.442885 
L 256.450909 244.218874 
L 256.767955 243.945009 
L 257.402045 245.899586 
L 257.719091 244.887185 
L 258.036136 244.521964 
L 258.353182 243.631773 
L 258.670227 243.658857 
L 258.987273 246.444328 
L 259.304318 250.945141 
L 259.621364 245.352062 
L 259.938409 243.851715 
L 260.255455 244.822498 
L 260.889545 249.654454 
L 261.206591 248.039152 
L 261.523636 249.290781 
L 262.157727 244.22917 
L 262.474773 250.211337 
L 262.791818 250.956211 
L 263.108864 250.134614 
L 263.425909 245.252765 
L 263.742955 243.158154 
L 264.06 243.516836 
L 264.377045 239.953775 
L 264.694091 240.071213 
L 265.011136 246.667317 
L 265.328182 246.118525 
L 265.962273 248.462295 
L 266.279318 249.995127 
L 266.596364 248.902803 
L 266.913409 250.871174 
L 267.230455 253.721751 
L 267.5475 251.242559 
L 267.864545 245.744573 
L 268.181591 245.355212 
L 268.498636 248.219871 
L 268.815682 248.998673 
L 269.132727 248.326003 
L 269.449773 245.492677 
L 269.766818 245.918775 
L 270.083864 250.775334 
L 270.400909 251.81148 
L 270.717955 250.415556 
L 271.035 248.351182 
L 271.352045 248.169591 
L 271.669091 252.971941 
L 271.986136 253.128725 
L 272.303182 247.808159 
L 272.620227 251.904006 
L 272.937273 257.546288 
L 273.254318 256.426223 
L 273.571364 253.725641 
L 273.888409 252.527669 
L 274.205455 254.814211 
L 274.5225 255.217154 
L 275.156591 247.492857 
L 275.473636 252.55881 
L 275.790682 250.628331 
L 276.107727 250.060055 
L 276.424773 250.791778 
L 276.741818 252.02664 
L 277.058864 244.906946 
L 277.692955 251.977226 
L 278.01 247.902513 
L 278.327045 248.660883 
L 278.644091 247.678158 
L 278.961136 248.017858 
L 279.278182 248.740316 
L 279.595227 251.754477 
L 279.912273 253.254065 
L 280.546364 259.783272 
L 280.863409 258.642811 
L 281.180455 253.28902 
L 281.4975 253.534168 
L 281.814545 256.328432 
L 282.131591 257.720092 
L 282.448636 257.833155 
L 282.765682 254.056548 
L 283.082727 254.968934 
L 283.399773 255.057873 
L 283.716818 251.004379 
L 284.033864 250.36793 
L 284.350909 255.789737 
L 284.667955 253.860612 
L 284.985 254.645084 
L 285.302045 251.129117 
L 285.619091 258.127418 
L 285.936136 259.178789 
L 286.253182 255.768006 
L 286.570227 258.116269 
L 287.204318 249.17319 
L 287.521364 247.746066 
L 287.838409 251.274261 
L 288.155455 252.469141 
L 288.4725 248.301032 
L 288.789545 246.174581 
L 289.106591 249.725684 
L 289.423636 250.248583 
L 289.740682 255.139142 
L 290.057727 254.723251 
L 290.374773 253.50138 
L 290.691818 250.002438 
L 291.008864 253.834493 
L 291.325909 255.479073 
L 291.642955 252.988951 
L 292.277045 259.174895 
L 292.594091 261.781859 
L 292.911136 256.228147 
L 293.228182 252.93421 
L 293.545227 255.79132 
L 293.862273 251.556808 
L 294.179318 251.343562 
L 294.496364 260.45302 
L 294.813409 254.676723 
L 295.130455 254.967828 
L 295.4475 259.211818 
L 295.764545 259.205332 
L 296.081591 253.707388 
L 296.398636 250.34409 
L 296.715682 250.08787 
L 297.349773 257.335005 
L 297.666818 258.53066 
L 297.983864 260.85098 
L 298.300909 257.555277 
L 298.617955 259.40435 
L 298.935 259.207413 
L 299.252045 256.375759 
L 299.569091 254.759064 
L 299.886136 252.3809 
L 300.520227 254.270701 
L 301.154318 258.311418 
L 301.471364 260.126138 
L 301.788409 260.162844 
L 302.105455 259.320235 
L 302.4225 254.270528 
L 302.739545 255.443423 
L 303.056591 261.097882 
L 303.373636 260.784906 
L 303.690682 259.809703 
L 304.007727 261.165632 
L 304.641818 259.705895 
L 304.958864 258.361303 
L 305.275909 258.039603 
L 305.592955 257.466035 
L 305.91 255.206446 
L 306.227045 256.487081 
L 306.544091 255.780712 
L 306.861136 262.630496 
L 307.495227 260.496865 
L 307.812273 258.7043 
L 308.129318 256.194423 
L 308.446364 257.740829 
L 308.763409 257.454577 
L 309.080455 259.238883 
L 309.3975 258.405547 
L 309.714545 259.222683 
L 310.031591 256.729396 
L 310.665682 263.345952 
L 310.982727 255.997091 
L 311.299773 253.758639 
L 311.616818 256.834652 
L 311.933864 256.014373 
L 312.250909 255.762716 
L 312.567955 256.030763 
L 312.885 255.660059 
L 313.202045 258.335496 
L 313.519091 259.273658 
L 313.836136 257.023823 
L 314.153182 260.495893 
L 314.470227 266.653576 
L 314.787273 257.05522 
L 315.421364 265.379503 
L 315.738409 258.949259 
L 316.055455 260.147118 
L 316.3725 263.091707 
L 316.689545 261.891691 
L 317.006591 263.10256 
L 317.323636 259.492923 
L 317.640682 260.106943 
L 317.957727 266.763989 
L 318.274773 268.900572 
L 318.591818 267.499345 
L 319.225909 263.549872 
L 319.542955 256.403697 
L 319.86 258.869252 
L 320.177045 264.923172 
L 320.811136 258.340234 
L 321.128182 259.716718 
L 321.445227 265.859006 
L 321.762273 265.723734 
L 322.396364 257.300393 
L 322.713409 260.034235 
L 323.030455 267.269001 
L 323.3475 266.732224 
L 323.664545 266.47175 
L 323.981591 264.059344 
L 324.298636 269.690227 
L 324.932727 262.128646 
L 325.249773 262.188926 
L 325.566818 262.414811 
L 325.883864 261.842951 
L 326.200909 265.197288 
L 326.835 260.676971 
L 327.152045 261.830875 
L 327.786136 267.911826 
L 328.103182 261.79117 
L 328.420227 258.169108 
L 328.737273 260.775682 
L 329.054318 259.041129 
L 329.371364 261.040977 
L 329.688409 259.121115 
L 330.005455 258.096136 
L 330.3225 257.81493 
L 330.639545 264.853457 
L 330.956591 268.728527 
L 331.273636 263.341781 
L 331.590682 263.839237 
L 331.907727 268.162698 
L 332.224773 265.635804 
L 332.541818 259.611551 
L 332.858864 260.191298 
L 333.175909 265.314875 
L 333.492955 266.740996 
L 333.81 264.878793 
L 334.127045 263.852089 
L 334.444091 264.051459 
L 334.761136 265.55779 
L 335.078182 270.575913 
L 335.395227 267.253371 
L 335.712273 265.421151 
L 336.029318 265.735588 
L 336.346364 265.0051 
L 336.663409 268.579951 
L 336.980455 265.705344 
L 337.614545 267.334502 
L 337.931591 264.986528 
L 338.248636 266.203699 
L 338.565682 269.604593 
L 338.882727 270.171446 
L 339.199773 267.940473 
L 339.516818 267.372702 
L 339.833864 269.97077 
L 340.150909 266.002506 
L 340.785 263.334533 
L 341.102045 266.543646 
L 341.419091 268.187519 
L 341.736136 267.194061 
L 342.053182 269.324272 
L 342.370227 261.761856 
L 342.687273 261.175203 
L 343.004318 263.34499 
L 343.321364 267.066842 
L 343.638409 268.764927 
L 343.955455 269.106177 
L 344.2725 262.822319 
L 344.589545 269.045272 
L 345.223636 262.495112 
L 345.540682 263.545025 
L 345.857727 271.238963 
L 346.174773 271.092256 
L 346.491818 271.739906 
L 346.808864 270.823003 
L 347.442955 267.617757 
L 348.077045 269.64428 
L 348.394091 272.849125 
L 348.711136 270.539228 
L 349.028182 265.933072 
L 349.345227 264.129573 
L 349.662273 267.157116 
L 349.979318 266.364376 
L 350.296364 261.386908 
L 350.613409 263.654381 
L 350.930455 271.4101 
L 351.2475 275.075385 
L 351.564545 272.864092 
L 352.198636 266.359644 
L 352.515682 264.718538 
L 352.832727 265.480235 
L 353.149773 268.88869 
L 353.466818 268.5577 
L 353.783864 265.184344 
L 354.100909 267.098409 
L 354.735 279.450089 
L 355.052045 273.644389 
L 355.686136 265.9661 
L 356.003182 268.345663 
L 356.320227 273.770924 
L 356.637273 271.77227 
L 356.954318 268.772474 
L 357.271364 269.679371 
L 357.588409 270.19692 
L 357.905455 267.020696 
L 358.2225 266.428344 
L 358.539545 271.52768 
L 358.856591 274.249631 
L 359.490682 277.031267 
L 359.807727 280.701594 
L 360.124773 281.815335 
L 360.441818 281.622571 
L 360.758864 273.892966 
L 361.075909 269.187916 
L 361.392955 274.499997 
L 361.71 275.715195 
L 362.027045 274.653062 
L 362.344091 272.460719 
L 362.661136 276.369888 
L 362.978182 284.858319 
L 363.295227 277.776606 
L 363.612273 274.839941 
L 364.246364 284.057376 
L 364.563409 282.002098 
L 365.1975 274.373786 
L 365.514545 279.135611 
L 365.831591 278.814607 
L 366.148636 275.875744 
L 366.465682 276.292857 
L 366.782727 277.309905 
L 367.099773 278.790962 
L 367.416818 277.233803 
L 367.733864 270.902751 
L 368.050909 278.417811 
L 368.367955 282.727149 
L 369.002045 275.355894 
L 369.319091 276.694693 
L 369.953182 283.083609 
L 370.270227 277.479632 
L 370.587273 275.318401 
L 370.904318 280.568035 
L 371.221364 280.320269 
L 371.538409 276.560746 
L 371.855455 281.97049 
L 372.1725 282.171634 
L 372.489545 275.087621 
L 372.806591 275.262849 
L 373.123636 275.124106 
L 373.757727 278.599271 
L 374.074773 281.296106 
L 374.391818 282.311607 
L 375.025909 280.924854 
L 375.342955 278.770192 
L 375.66 282.856081 
L 375.977045 284.006916 
L 376.294091 283.983451 
L 376.928182 280.020143 
L 377.245227 284.971451 
L 377.562273 285.337535 
L 377.879318 282.987996 
L 378.196364 282.22063 
L 378.830455 287.373647 
L 379.1475 288.714911 
L 379.464545 287.006828 
L 379.781591 287.100074 
L 380.415682 282.83352 
L 380.732727 283.253965 
L 381.049773 288.411965 
L 381.366818 283.99903 
L 381.683864 282.465228 
L 382.000909 287.535955 
L 382.317955 289.563956 
L 382.635 287.169835 
L 383.269091 281.419524 
L 383.586136 283.429968 
L 383.903182 282.354805 
L 384.537273 287.203962 
L 384.854318 284.983986 
L 385.171364 286.612755 
L 385.488409 282.76109 
L 385.805455 283.747019 
L 386.1225 291.64502 
L 386.756591 286.261697 
L 387.073636 289.778437 
L 387.390682 292.023139 
L 387.707727 285.623453 
L 388.024773 291.392631 
L 388.341818 299.402035 
L 388.658864 297.613583 
L 388.975909 288.153512 
L 389.292955 287.511685 
L 389.61 290.281544 
L 390.244091 300.169545 
L 390.561136 297.843822 
L 390.878182 296.55717 
L 391.195227 296.990721 
L 391.512273 296.534426 
L 392.146364 302.098502 
L 392.463409 300.874695 
L 392.780455 295.455235 
L 393.0975 295.150032 
L 393.414545 295.817269 
L 393.731591 300.044536 
L 394.048636 293.837801 
L 394.365682 293.219349 
L 394.682727 299.491514 
L 394.999773 300.96689 
L 395.316818 299.497893 
L 395.633864 302.585488 
L 395.950909 298.563284 
L 396.267955 299.453657 
L 396.585 303.77951 
L 396.902045 298.38261 
L 397.219091 300.168559 
L 397.853182 317.467152 
L 398.170227 319.413542 
L 398.487273 331.379563 
L 398.487273 331.379563 
" clip-path="url(#p97b7f9b9b0)" style="fill: none; stroke: #1f77b4; stroke-width: 1.5; stroke-linecap: square"/>
   </g>
   <g id="patch_3">
    <path d="M 57.6 307.584 
L 57.6 41.472 
" style="fill: none; stroke: #000000; stroke-width: 0.8; stroke-linejoin: miter; stroke-linecap: square"/>
   </g>
   <g id="patch_4">
    <path d="M 414.72 307.584 
L 414.72 41.472 
" style="fill: none; stroke: #000000; stroke-width: 0.8; stroke-linejoin: miter; stroke-linecap: square"/>
   </g>
   <g id="patch_5">
    <path d="M 57.6 307.584 
L 414.72 307.584 
" style="fill: none; stroke: #000000; stroke-width: 0.8; stroke-linejoin: miter; stroke-linecap: square"/>
   </g>
   <g id="patch_6">
    <path d="M 57.6 41.472 
L 414.72 41.472 
" style="fill: none; stroke: #000000; stroke-width: 0.8; stroke-linejoin: miter; stroke-linecap: square"/>
   </g>
   <g id="text_17">
    <!-- Power Spektrum des EEG Signals von Kanal P4-O2 -->
    <g transform="translate(85.026563 35.472) scale(0.12 -0.12)">
     <defs>
      <path id="DejaVuSans-50" d="M 1259 4147 
L 1259 2394 
L 2053 2394 
Q 2494 2394 2734 2622 
Q 2975 2850 2975 3272 
Q 2975 3691 2734 3919 
Q 2494 4147 2053 4147 
L 1259 4147 
z
M 628 4666 
L 2053 4666 
Q 2838 4666 3239 4311 
Q 3641 3956 3641 3272 
Q 3641 2581 3239 2228 
Q 2838 1875 2053 1875 
L 1259 1875 
L 1259 0 
L 628 0 
L 628 4666 
z
" transform="scale(0.015625)"/>
      <path id="DejaVuSans-6f" d="M 1959 3097 
Q 1497 3097 1228 2736 
Q 959 2375 959 1747 
Q 959 1119 1226 758 
Q 1494 397 1959 397 
Q 2419 397 2687 759 
Q 2956 1122 2956 1747 
Q 2956 2369 2687 2733 
Q 2419 3097 1959 3097 
z
M 1959 3584 
Q 2709 3584 3137 3096 
Q 3566 2609 3566 1747 
Q 3566 888 3137 398 
Q 2709 -91 1959 -91 
Q 1206 -91 779 398 
Q 353 888 353 1747 
Q 353 2609 779 3096 
Q 1206 3584 1959 3584 
z
" transform="scale(0.015625)"/>
      <path id="DejaVuSans-77" d="M 269 3500 
L 844 3500 
L 1563 769 
L 2278 3500 
L 2956 3500 
L 3675 769 
L 4391 3500 
L 4966 3500 
L 4050 0 
L 3372 0 
L 2619 2869 
L 1863 0 
L 1184 0 
L 269 3500 
z
" transform="scale(0.015625)"/>
      <path id="DejaVuSans-53" d="M 3425 4513 
L 3425 3897 
Q 3066 4069 2747 4153 
Q 2428 4238 2131 4238 
Q 1616 4238 1336 4038 
Q 1056 3838 1056 3469 
Q 1056 3159 1242 3001 
Q 1428 2844 1947 2747 
L 2328 2669 
Q 3034 2534 3370 2195 
Q 3706 1856 3706 1288 
Q 3706 609 3251 259 
Q 2797 -91 1919 -91 
Q 1588 -91 1214 -16 
Q 841 59 441 206 
L 441 856 
Q 825 641 1194 531 
Q 1563 422 1919 422 
Q 2459 422 2753 634 
Q 3047 847 3047 1241 
Q 3047 1584 2836 1778 
Q 2625 1972 2144 2069 
L 1759 2144 
Q 1053 2284 737 2584 
Q 422 2884 422 3419 
Q 422 4038 858 4394 
Q 1294 4750 2059 4750 
Q 2388 4750 2728 4690 
Q 3069 4631 3425 4513 
z
" transform="scale(0.015625)"/>
      <path id="DejaVuSans-70" d="M 1159 525 
L 1159 -1331 
L 581 -1331 
L 581 3500 
L 1159 3500 
L 1159 2969 
Q 1341 3281 1617 3432 
Q 1894 3584 2278 3584 
Q 2916 3584 3314 3078 
Q 3713 2572 3713 1747 
Q 3713 922 3314 415 
Q 2916 -91 2278 -91 
Q 1894 -91 1617 61 
Q 1341 213 1159 525 
z
M 3116 1747 
Q 3116 2381 2855 2742 
Q 2594 3103 2138 3103 
Q 1681 3103 1420 2742 
Q 1159 2381 1159 1747 
Q 1159 1113 1420 752 
Q 1681 391 2138 391 
Q 2594 391 2855 752 
Q 3116 1113 3116 1747 
z
" transform="scale(0.015625)"/>
      <path id="DejaVuSans-6b" d="M 581 4863 
L 1159 4863 
L 1159 1991 
L 2875 3500 
L 3609 3500 
L 1753 1863 
L 3688 0 
L 2938 0 
L 1159 1709 
L 1159 0 
L 581 0 
L 581 4863 
z
" transform="scale(0.015625)"/>
      <path id="DejaVuSans-6d" d="M 3328 2828 
Q 3544 3216 3844 3400 
Q 4144 3584 4550 3584 
Q 5097 3584 5394 3201 
Q 5691 2819 5691 2113 
L 5691 0 
L 5113 0 
L 5113 2094 
Q 5113 2597 4934 2840 
Q 4756 3084 4391 3084 
Q 3944 3084 3684 2787 
Q 3425 2491 3425 1978 
L 3425 0 
L 2847 0 
L 2847 2094 
Q 2847 2600 2669 2842 
Q 2491 3084 2119 3084 
Q 1678 3084 1418 2786 
Q 1159 2488 1159 1978 
L 1159 0 
L 581 0 
L 581 3500 
L 1159 3500 
L 1159 2956 
Q 1356 3278 1631 3431 
Q 1906 3584 2284 3584 
Q 2666 3584 2933 3390 
Q 3200 3197 3328 2828 
z
" transform="scale(0.015625)"/>
      <path id="DejaVuSans-64" d="M 2906 2969 
L 2906 4863 
L 3481 4863 
L 3481 0 
L 2906 0 
L 2906 525 
Q 2725 213 2448 61 
Q 2172 -91 1784 -91 
Q 1150 -91 751 415 
Q 353 922 353 1747 
Q 353 2572 751 3078 
Q 1150 3584 1784 3584 
Q 2172 3584 2448 3432 
Q 2725 3281 2906 2969 
z
M 947 1747 
Q 947 1113 1208 752 
Q 1469 391 1925 391 
Q 2381 391 2643 752 
Q 2906 1113 2906 1747 
Q 2906 2381 2643 2742 
Q 2381 3103 1925 3103 
Q 1469 3103 1208 2742 
Q 947 2381 947 1747 
z
" transform="scale(0.015625)"/>
      <path id="DejaVuSans-45" d="M 628 4666 
L 3578 4666 
L 3578 4134 
L 1259 4134 
L 1259 2753 
L 3481 2753 
L 3481 2222 
L 1259 2222 
L 1259 531 
L 3634 531 
L 3634 0 
L 628 0 
L 628 4666 
z
" transform="scale(0.015625)"/>
      <path id="DejaVuSans-47" d="M 3809 666 
L 3809 1919 
L 2778 1919 
L 2778 2438 
L 4434 2438 
L 4434 434 
Q 4069 175 3628 42 
Q 3188 -91 2688 -91 
Q 1594 -91 976 548 
Q 359 1188 359 2328 
Q 359 3472 976 4111 
Q 1594 4750 2688 4750 
Q 3144 4750 3555 4637 
Q 3966 4525 4313 4306 
L 4313 3634 
Q 3963 3931 3569 4081 
Q 3175 4231 2741 4231 
Q 1884 4231 1454 3753 
Q 1025 3275 1025 2328 
Q 1025 1384 1454 906 
Q 1884 428 2741 428 
Q 3075 428 3337 486 
Q 3600 544 3809 666 
z
" transform="scale(0.015625)"/>
      <path id="DejaVuSans-61" d="M 2194 1759 
Q 1497 1759 1228 1600 
Q 959 1441 959 1056 
Q 959 750 1161 570 
Q 1363 391 1709 391 
Q 2188 391 2477 730 
Q 2766 1069 2766 1631 
L 2766 1759 
L 2194 1759 
z
M 3341 1997 
L 3341 0 
L 2766 0 
L 2766 531 
Q 2569 213 2275 61 
Q 1981 -91 1556 -91 
Q 1019 -91 701 211 
Q 384 513 384 1019 
Q 384 1609 779 1909 
Q 1175 2209 1959 2209 
L 2766 2209 
L 2766 2266 
Q 2766 2663 2505 2880 
Q 2244 3097 1772 3097 
Q 1472 3097 1187 3025 
Q 903 2953 641 2809 
L 641 3341 
Q 956 3463 1253 3523 
Q 1550 3584 1831 3584 
Q 2591 3584 2966 3190 
Q 3341 2797 3341 1997 
z
" transform="scale(0.015625)"/>
      <path id="DejaVuSans-6c" d="M 603 4863 
L 1178 4863 
L 1178 0 
L 603 0 
L 603 4863 
z
" transform="scale(0.015625)"/>
      <path id="DejaVuSans-76" d="M 191 3500 
L 800 3500 
L 1894 563 
L 2988 3500 
L 3597 3500 
L 2284 0 
L 1503 0 
L 191 3500 
z
" transform="scale(0.015625)"/>
      <path id="DejaVuSans-4b" d="M 628 4666 
L 1259 4666 
L 1259 2694 
L 3353 4666 
L 4166 4666 
L 1850 2491 
L 4331 0 
L 3500 0 
L 1259 2247 
L 1259 0 
L 628 0 
L 628 4666 
z
" transform="scale(0.015625)"/>
      <path id="DejaVuSans-2d" d="M 313 2009 
L 1997 2009 
L 1997 1497 
L 313 1497 
L 313 2009 
z
" transform="scale(0.015625)"/>
      <path id="DejaVuSans-4f" d="M 2522 4238 
Q 1834 4238 1429 3725 
Q 1025 3213 1025 2328 
Q 1025 1447 1429 934 
Q 1834 422 2522 422 
Q 3209 422 3611 934 
Q 4013 1447 4013 2328 
Q 4013 3213 3611 3725 
Q 3209 4238 2522 4238 
z
M 2522 4750 
Q 3503 4750 4090 4092 
Q 4678 3434 4678 2328 
Q 4678 1225 4090 567 
Q 3503 -91 2522 -91 
Q 1538 -91 948 565 
Q 359 1222 359 2328 
Q 359 3434 948 4092 
Q 1538 4750 2522 4750 
z
" transform="scale(0.015625)"/>
     </defs>
     <use xlink:href="#DejaVuSans-50"/>
     <use xlink:href="#DejaVuSans-6f" transform="translate(56.677734 0)"/>
     <use xlink:href="#DejaVuSans-77" transform="translate(117.859375 0)"/>
     <use xlink:href="#DejaVuSans-65" transform="translate(199.646484 0)"/>
     <use xlink:href="#DejaVuSans-72" transform="translate(261.169922 0)"/>
     <use xlink:href="#DejaVuSans-20" transform="translate(302.283203 0)"/>
     <use xlink:href="#DejaVuSans-53" transform="translate(334.070312 0)"/>
     <use xlink:href="#DejaVuSans-70" transform="translate(397.546875 0)"/>
     <use xlink:href="#DejaVuSans-65" transform="translate(461.023438 0)"/>
     <use xlink:href="#DejaVuSans-6b" transform="translate(522.546875 0)"/>
     <use xlink:href="#DejaVuSans-74" transform="translate(580.457031 0)"/>
     <use xlink:href="#DejaVuSans-72" transform="translate(619.666016 0)"/>
     <use xlink:href="#DejaVuSans-75" transform="translate(660.779297 0)"/>
     <use xlink:href="#DejaVuSans-6d" transform="translate(724.158203 0)"/>
     <use xlink:href="#DejaVuSans-20" transform="translate(821.570312 0)"/>
     <use xlink:href="#DejaVuSans-64" transform="translate(853.357422 0)"/>
     <use xlink:href="#DejaVuSans-65" transform="translate(916.833984 0)"/>
     <use xlink:href="#DejaVuSans-73" transform="translate(978.357422 0)"/>
     <use xlink:href="#DejaVuSans-20" transform="translate(1030.457031 0)"/>
     <use xlink:href="#DejaVuSans-45" transform="translate(1062.244141 0)"/>
     <use xlink:href="#DejaVuSans-45" transform="translate(1125.427734 0)"/>
     <use xlink:href="#DejaVuSans-47" transform="translate(1188.611328 0)"/>
     <use xlink:href="#DejaVuSans-20" transform="translate(1266.101562 0)"/>
     <use xlink:href="#DejaVuSans-53" transform="translate(1297.888672 0)"/>
     <use xlink:href="#DejaVuSans-69" transform="translate(1361.365234 0)"/>
     <use xlink:href="#DejaVuSans-67" transform="translate(1389.148438 0)"/>
     <use xlink:href="#DejaVuSans-6e" transform="translate(1452.625 0)"/>
     <use xlink:href="#DejaVuSans-61" transform="translate(1516.003906 0)"/>
     <use xlink:href="#DejaVuSans-6c" transform="translate(1577.283203 0)"/>
     <use xlink:href="#DejaVuSans-73" transform="translate(1605.066406 0)"/>
     <use xlink:href="#DejaVuSans-20" transform="translate(1657.166016 0)"/>
     <use xlink:href="#DejaVuSans-76" transform="translate(1688.953125 0)"/>
     <use xlink:href="#DejaVuSans-6f" transform="translate(1748.132812 0)"/>
     <use xlink:href="#DejaVuSans-6e" transform="translate(1809.314453 0)"/>
     <use xlink:href="#DejaVuSans-20" transform="translate(1872.693359 0)"/>
     <use xlink:href="#DejaVuSans-4b" transform="translate(1904.480469 0)"/>
     <use xlink:href="#DejaVuSans-61" transform="translate(1968.306641 0)"/>
     <use xlink:href="#DejaVuSans-6e" transform="translate(2029.585938 0)"/>
     <use xlink:href="#DejaVuSans-61" transform="translate(2092.964844 0)"/>
     <use xlink:href="#DejaVuSans-6c" transform="translate(2154.244141 0)"/>
     <use xlink:href="#DejaVuSans-20" transform="translate(2182.027344 0)"/>
     <use xlink:href="#DejaVuSans-50" transform="translate(2213.814453 0)"/>
     <use xlink:href="#DejaVuSans-34" transform="translate(2274.117188 0)"/>
     <use xlink:href="#DejaVuSans-2d" transform="translate(2337.740234 0)"/>
     <use xlink:href="#DejaVuSans-4f" transform="translate(2376.574219 0)"/>
     <use xlink:href="#DejaVuSans-32" transform="translate(2455.285156 0)"/>
    </g>
   </g>
  </g>
 </g>
 <defs>
  <clipPath id="p97b7f9b9b0">
   <rect x="57.6" y="41.472" width="357.12" height="266.112"/>
  </clipPath>
 </defs>
</svg>
