<?xml version="1.0" encoding="utf-8" standalone="no"?>
<!DOCTYPE svg PUBLIC "-//W3C//DTD SVG 1.1//EN"
  "http://www.w3.org/Graphics/SVG/1.1/DTD/svg11.dtd">
<svg xmlns:xlink="http://www.w3.org/1999/xlink" width="460.8pt" height="345.6pt" viewBox="0 0 460.8 345.6" xmlns="http://www.w3.org/2000/svg" version="1.1">
 <metadata>
  <rdf:RDF xmlns:dc="http://purl.org/dc/elements/1.1/" xmlns:cc="http://creativecommons.org/ns#" xmlns:rdf="http://www.w3.org/1999/02/22-rdf-syntax-ns#">
   <cc:Work>
    <dc:type rdf:resource="http://purl.org/dc/dcmitype/StillImage"/>
    <dc:date>2025-11-11T10:05:21.134699</dc:date>
    <dc:format>image/svg+xml</dc:format>
    <dc:creator>
     <cc:Agent>
      <dc:title>Matplotlib v3.10.7, https://matplotlib.org/</dc:title>
     </cc:Agent>
    </dc:creator>
   </cc:Work>
  </rdf:RDF>
 </metadata>
 <defs>
  <style type="text/css">*{stroke-linejoin: round; stroke-linecap: butt}</style>
 </defs>
 <g id="figure_1">
  <g id="patch_1">
   <path d="M 0 345.6 
L 460.8 345.6 
L 460.8 0 
L 0 0 
z
" style="fill: #ffffff"/>
  </g>
  <g id="axes_1">
   <g id="patch_2">
    <path d="M 57.6 307.584 
L 414.72 307.584 
L 414.72 41.472 
L 57.6 41.472 
z
" style="fill: #ffffff"/>
   </g>
   <g id="matplotlib.axis_1">
    <g id="xtick_1">
     <g id="line2d_1">
      <defs>
       <path id="m09c83b5ff6" d="M 0 0 
L 0 3.5 
" style="stroke: #000000; stroke-width: 0.8"/>
      </defs>
      <g>
       <use xlink:href="#m09c83b5ff6" x="73.832727" y="307.584" style="stroke: #000000; stroke-width: 0.8"/>
      </g>
     </g>
     <g id="text_1">
      <!-- 0 -->
      <g transform="translate(70.651477 322.182437) scale(0.1 -0.1)">
       <defs>
        <path id="DejaVuSans-30" d="M 2034 4250 
Q 1547 4250 1301 3770 
Q 1056 3291 1056 2328 
Q 1056 1369 1301 889 
Q 1547 409 2034 409 
Q 2525 409 2770 889 
Q 3016 1369 3016 2328 
Q 3016 3291 2770 3770 
Q 2525 4250 2034 4250 
z
M 2034 4750 
Q 2819 4750 3233 4129 
Q 3647 3509 3647 2328 
Q 3647 1150 3233 529 
Q 2819 -91 2034 -91 
Q 1250 -91 836 529 
Q 422 1150 422 2328 
Q 422 3509 836 4129 
Q 1250 4750 2034 4750 
z
" transform="scale(0.015625)"/>
       </defs>
       <use xlink:href="#DejaVuSans-30"/>
      </g>
     </g>
    </g>
    <g id="xtick_2">
     <g id="line2d_2">
      <g>
       <use xlink:href="#m09c83b5ff6" x="125.777455" y="307.584" style="stroke: #000000; stroke-width: 0.8"/>
      </g>
     </g>
     <g id="text_2">
      <!-- 20 -->
      <g transform="translate(119.414955 322.182437) scale(0.1 -0.1)">
       <defs>
        <path id="DejaVuSans-32" d="M 1228 531 
L 3431 531 
L 3431 0 
L 469 0 
L 469 531 
Q 828 903 1448 1529 
Q 2069 2156 2228 2338 
Q 2531 2678 2651 2914 
Q 2772 3150 2772 3378 
Q 2772 3750 2511 3984 
Q 2250 4219 1831 4219 
Q 1534 4219 1204 4116 
Q 875 4013 500 3803 
L 500 4441 
Q 881 4594 1212 4672 
Q 1544 4750 1819 4750 
Q 2544 4750 2975 4387 
Q 3406 4025 3406 3419 
Q 3406 3131 3298 2873 
Q 3191 2616 2906 2266 
Q 2828 2175 2409 1742 
Q 1991 1309 1228 531 
z
" transform="scale(0.015625)"/>
       </defs>
       <use xlink:href="#DejaVuSans-32"/>
       <use xlink:href="#DejaVuSans-30" transform="translate(63.623047 0)"/>
      </g>
     </g>
    </g>
    <g id="xtick_3">
     <g id="line2d_3">
      <g>
       <use xlink:href="#m09c83b5ff6" x="177.722182" y="307.584" style="stroke: #000000; stroke-width: 0.8"/>
      </g>
     </g>
     <g id="text_3">
      <!-- 40 -->
      <g transform="translate(171.359682 322.182437) scale(0.1 -0.1)">
       <defs>
        <path id="DejaVuSans-34" d="M 2419 4116 
L 825 1625 
L 2419 1625 
L 2419 4116 
z
M 2253 4666 
L 3047 4666 
L 3047 1625 
L 3713 1625 
L 3713 1100 
L 3047 1100 
L 3047 0 
L 2419 0 
L 2419 1100 
L 313 1100 
L 313 1709 
L 2253 4666 
z
" transform="scale(0.015625)"/>
       </defs>
       <use xlink:href="#DejaVuSans-34"/>
       <use xlink:href="#DejaVuSans-30" transform="translate(63.623047 0)"/>
      </g>
     </g>
    </g>
    <g id="xtick_4">
     <g id="line2d_4">
      <g>
       <use xlink:href="#m09c83b5ff6" x="229.666909" y="307.584" style="stroke: #000000; stroke-width: 0.8"/>
      </g>
     </g>
     <g id="text_4">
      <!-- 60 -->
      <g transform="translate(223.304409 322.182437) scale(0.1 -0.1)">
       <defs>
        <path id="DejaVuSans-36" d="M 2113 2584 
Q 1688 2584 1439 2293 
Q 1191 2003 1191 1497 
Q 1191 994 1439 701 
Q 1688 409 2113 409 
Q 2538 409 2786 701 
Q 3034 994 3034 1497 
Q 3034 2003 2786 2293 
Q 2538 2584 2113 2584 
z
M 3366 4563 
L 3366 3988 
Q 3128 4100 2886 4159 
Q 2644 4219 2406 4219 
Q 1781 4219 1451 3797 
Q 1122 3375 1075 2522 
Q 1259 2794 1537 2939 
Q 1816 3084 2150 3084 
Q 2853 3084 3261 2657 
Q 3669 2231 3669 1497 
Q 3669 778 3244 343 
Q 2819 -91 2113 -91 
Q 1303 -91 875 529 
Q 447 1150 447 2328 
Q 447 3434 972 4092 
Q 1497 4750 2381 4750 
Q 2619 4750 2861 4703 
Q 3103 4656 3366 4563 
z
" transform="scale(0.015625)"/>
       </defs>
       <use xlink:href="#DejaVuSans-36"/>
       <use xlink:href="#DejaVuSans-30" transform="translate(63.623047 0)"/>
      </g>
     </g>
    </g>
    <g id="xtick_5">
     <g id="line2d_5">
      <g>
       <use xlink:href="#m09c83b5ff6" x="281.611636" y="307.584" style="stroke: #000000; stroke-width: 0.8"/>
      </g>
     </g>
     <g id="text_5">
      <!-- 80 -->
      <g transform="translate(275.249136 322.182437) scale(0.1 -0.1)">
       <defs>
        <path id="DejaVuSans-38" d="M 2034 2216 
Q 1584 2216 1326 1975 
Q 1069 1734 1069 1313 
Q 1069 891 1326 650 
Q 1584 409 2034 409 
Q 2484 409 2743 651 
Q 3003 894 3003 1313 
Q 3003 1734 2745 1975 
Q 2488 2216 2034 2216 
z
M 1403 2484 
Q 997 2584 770 2862 
Q 544 3141 544 3541 
Q 544 4100 942 4425 
Q 1341 4750 2034 4750 
Q 2731 4750 3128 4425 
Q 3525 4100 3525 3541 
Q 3525 3141 3298 2862 
Q 3072 2584 2669 2484 
Q 3125 2378 3379 2068 
Q 3634 1759 3634 1313 
Q 3634 634 3220 271 
Q 2806 -91 2034 -91 
Q 1263 -91 848 271 
Q 434 634 434 1313 
Q 434 1759 690 2068 
Q 947 2378 1403 2484 
z
M 1172 3481 
Q 1172 3119 1398 2916 
Q 1625 2713 2034 2713 
Q 2441 2713 2670 2916 
Q 2900 3119 2900 3481 
Q 2900 3844 2670 4047 
Q 2441 4250 2034 4250 
Q 1625 4250 1398 4047 
Q 1172 3844 1172 3481 
z
" transform="scale(0.015625)"/>
       </defs>
       <use xlink:href="#DejaVuSans-38"/>
       <use xlink:href="#DejaVuSans-30" transform="translate(63.623047 0)"/>
      </g>
     </g>
    </g>
    <g id="xtick_6">
     <g id="line2d_6">
      <g>
       <use xlink:href="#m09c83b5ff6" x="333.556364" y="307.584" style="stroke: #000000; stroke-width: 0.8"/>
      </g>
     </g>
     <g id="text_6">
      <!-- 100 -->
      <g transform="translate(324.012614 322.182437) scale(0.1 -0.1)">
       <defs>
        <path id="DejaVuSans-31" d="M 794 531 
L 1825 531 
L 1825 4091 
L 703 3866 
L 703 4441 
L 1819 4666 
L 2450 4666 
L 2450 531 
L 3481 531 
L 3481 0 
L 794 0 
L 794 531 
z
" transform="scale(0.015625)"/>
       </defs>
       <use xlink:href="#DejaVuSans-31"/>
       <use xlink:href="#DejaVuSans-30" transform="translate(63.623047 0)"/>
       <use xlink:href="#DejaVuSans-30" transform="translate(127.246094 0)"/>
      </g>
     </g>
    </g>
    <g id="xtick_7">
     <g id="line2d_7">
      <g>
       <use xlink:href="#m09c83b5ff6" x="385.501091" y="307.584" style="stroke: #000000; stroke-width: 0.8"/>
      </g>
     </g>
     <g id="text_7">
      <!-- 120 -->
      <g transform="translate(375.957341 322.182437) scale(0.1 -0.1)">
       <use xlink:href="#DejaVuSans-31"/>
       <use xlink:href="#DejaVuSans-32" transform="translate(63.623047 0)"/>
       <use xlink:href="#DejaVuSans-30" transform="translate(127.246094 0)"/>
      </g>
     </g>
    </g>
    <g id="text_8">
     <!-- Frequenz in Hz -->
     <g transform="translate(199.294375 335.860562) scale(0.1 -0.1)">
      <defs>
       <path id="DejaVuSans-46" d="M 628 4666 
L 3309 4666 
L 3309 4134 
L 1259 4134 
L 1259 2759 
L 3109 2759 
L 3109 2228 
L 1259 2228 
L 1259 0 
L 628 0 
L 628 4666 
z
" transform="scale(0.015625)"/>
       <path id="DejaVuSans-72" d="M 2631 2963 
Q 2534 3019 2420 3045 
Q 2306 3072 2169 3072 
Q 1681 3072 1420 2755 
Q 1159 2438 1159 1844 
L 1159 0 
L 581 0 
L 581 3500 
L 1159 3500 
L 1159 2956 
Q 1341 3275 1631 3429 
Q 1922 3584 2338 3584 
Q 2397 3584 2469 3576 
Q 2541 3569 2628 3553 
L 2631 2963 
z
" transform="scale(0.015625)"/>
       <path id="DejaVuSans-65" d="M 3597 1894 
L 3597 1613 
L 953 1613 
Q 991 1019 1311 708 
Q 1631 397 2203 397 
Q 2534 397 2845 478 
Q 3156 559 3463 722 
L 3463 178 
Q 3153 47 2828 -22 
Q 2503 -91 2169 -91 
Q 1331 -91 842 396 
Q 353 884 353 1716 
Q 353 2575 817 3079 
Q 1281 3584 2069 3584 
Q 2775 3584 3186 3129 
Q 3597 2675 3597 1894 
z
M 3022 2063 
Q 3016 2534 2758 2815 
Q 2500 3097 2075 3097 
Q 1594 3097 1305 2825 
Q 1016 2553 972 2059 
L 3022 2063 
z
" transform="scale(0.015625)"/>
       <path id="DejaVuSans-71" d="M 947 1747 
Q 947 1113 1208 752 
Q 1469 391 1925 391 
Q 2381 391 2643 752 
Q 2906 1113 2906 1747 
Q 2906 2381 2643 2742 
Q 2381 3103 1925 3103 
Q 1469 3103 1208 2742 
Q 947 2381 947 1747 
z
M 2906 525 
Q 2725 213 2448 61 
Q 2172 -91 1784 -91 
Q 1150 -91 751 415 
Q 353 922 353 1747 
Q 353 2572 751 3078 
Q 1150 3584 1784 3584 
Q 2172 3584 2448 3432 
Q 2725 3281 2906 2969 
L 2906 3500 
L 3481 3500 
L 3481 -1331 
L 2906 -1331 
L 2906 525 
z
" transform="scale(0.015625)"/>
       <path id="DejaVuSans-75" d="M 544 1381 
L 544 3500 
L 1119 3500 
L 1119 1403 
Q 1119 906 1312 657 
Q 1506 409 1894 409 
Q 2359 409 2629 706 
Q 2900 1003 2900 1516 
L 2900 3500 
L 3475 3500 
L 3475 0 
L 2900 0 
L 2900 538 
Q 2691 219 2414 64 
Q 2138 -91 1772 -91 
Q 1169 -91 856 284 
Q 544 659 544 1381 
z
M 1991 3584 
L 1991 3584 
z
" transform="scale(0.015625)"/>
       <path id="DejaVuSans-6e" d="M 3513 2113 
L 3513 0 
L 2938 0 
L 2938 2094 
Q 2938 2591 2744 2837 
Q 2550 3084 2163 3084 
Q 1697 3084 1428 2787 
Q 1159 2491 1159 1978 
L 1159 0 
L 581 0 
L 581 3500 
L 1159 3500 
L 1159 2956 
Q 1366 3272 1645 3428 
Q 1925 3584 2291 3584 
Q 2894 3584 3203 3211 
Q 3513 2838 3513 2113 
z
" transform="scale(0.015625)"/>
       <path id="DejaVuSans-7a" d="M 353 3500 
L 3084 3500 
L 3084 2975 
L 922 459 
L 3084 459 
L 3084 0 
L 275 0 
L 275 525 
L 2438 3041 
L 353 3041 
L 353 3500 
z
" transform="scale(0.015625)"/>
       <path id="DejaVuSans-20" transform="scale(0.015625)"/>
       <path id="DejaVuSans-69" d="M 603 3500 
L 1178 3500 
L 1178 0 
L 603 0 
L 603 3500 
z
M 603 4863 
L 1178 4863 
L 1178 4134 
L 603 4134 
L 603 4863 
z
" transform="scale(0.015625)"/>
       <path id="DejaVuSans-48" d="M 628 4666 
L 1259 4666 
L 1259 2753 
L 3553 2753 
L 3553 4666 
L 4184 4666 
L 4184 0 
L 3553 0 
L 3553 2222 
L 1259 2222 
L 1259 0 
L 628 0 
L 628 4666 
z
" transform="scale(0.015625)"/>
      </defs>
      <use xlink:href="#DejaVuSans-46"/>
      <use xlink:href="#DejaVuSans-72" transform="translate(50.269531 0)"/>
      <use xlink:href="#DejaVuSans-65" transform="translate(89.132812 0)"/>
      <use xlink:href="#DejaVuSans-71" transform="translate(150.65625 0)"/>
      <use xlink:href="#DejaVuSans-75" transform="translate(214.132812 0)"/>
      <use xlink:href="#DejaVuSans-65" transform="translate(277.511719 0)"/>
      <use xlink:href="#DejaVuSans-6e" transform="translate(339.035156 0)"/>
      <use xlink:href="#DejaVuSans-7a" transform="translate(402.414062 0)"/>
      <use xlink:href="#DejaVuSans-20" transform="translate(454.904297 0)"/>
      <use xlink:href="#DejaVuSans-69" transform="translate(486.691406 0)"/>
      <use xlink:href="#DejaVuSans-6e" transform="translate(514.474609 0)"/>
      <use xlink:href="#DejaVuSans-20" transform="translate(577.853516 0)"/>
      <use xlink:href="#DejaVuSans-48" transform="translate(609.640625 0)"/>
      <use xlink:href="#DejaVuSans-7a" transform="translate(684.835938 0)"/>
     </g>
    </g>
   </g>
   <g id="matplotlib.axis_2">
    <g id="ytick_1">
     <g id="line2d_8">
      <defs>
       <path id="m3903d3ed36" d="M 0 0 
L -3.5 0 
" style="stroke: #000000; stroke-width: 0.8"/>
      </defs>
      <g>
       <use xlink:href="#m3903d3ed36" x="57.6" y="307.115265" style="stroke: #000000; stroke-width: 0.8"/>
      </g>
     </g>
     <g id="text_9">
      <!-- $\mathdefault{10^{-3}}$ -->
      <g transform="translate(27.1 310.914484) scale(0.1 -0.1)">
       <defs>
        <path id="DejaVuSans-2212" d="M 678 2272 
L 4684 2272 
L 4684 1741 
L 678 1741 
L 678 2272 
z
" transform="scale(0.015625)"/>
        <path id="DejaVuSans-33" d="M 2597 2516 
Q 3050 2419 3304 2112 
Q 3559 1806 3559 1356 
Q 3559 666 3084 287 
Q 2609 -91 1734 -91 
Q 1441 -91 1130 -33 
Q 819 25 488 141 
L 488 750 
Q 750 597 1062 519 
Q 1375 441 1716 441 
Q 2309 441 2620 675 
Q 2931 909 2931 1356 
Q 2931 1769 2642 2001 
Q 2353 2234 1838 2234 
L 1294 2234 
L 1294 2753 
L 1863 2753 
Q 2328 2753 2575 2939 
Q 2822 3125 2822 3475 
Q 2822 3834 2567 4026 
Q 2313 4219 1838 4219 
Q 1578 4219 1281 4162 
Q 984 4106 628 3988 
L 628 4550 
Q 988 4650 1302 4700 
Q 1616 4750 1894 4750 
Q 2613 4750 3031 4423 
Q 3450 4097 3450 3541 
Q 3450 3153 3228 2886 
Q 3006 2619 2597 2516 
z
" transform="scale(0.015625)"/>
       </defs>
       <use xlink:href="#DejaVuSans-31" transform="translate(0 0.765625)"/>
       <use xlink:href="#DejaVuSans-30" transform="translate(63.623047 0.765625)"/>
       <use xlink:href="#DejaVuSans-2212" transform="translate(128.203125 39.046875) scale(0.7)"/>
       <use xlink:href="#DejaVuSans-33" transform="translate(186.855469 39.046875) scale(0.7)"/>
      </g>
     </g>
    </g>
    <g id="ytick_2">
     <g id="line2d_9">
      <g>
       <use xlink:href="#m3903d3ed36" x="57.6" y="260.877583" style="stroke: #000000; stroke-width: 0.8"/>
      </g>
     </g>
     <g id="text_10">
      <!-- $\mathdefault{10^{-2}}$ -->
      <g transform="translate(27.1 264.676802) scale(0.1 -0.1)">
       <use xlink:href="#DejaVuSans-31" transform="translate(0 0.765625)"/>
       <use xlink:href="#DejaVuSans-30" transform="translate(63.623047 0.765625)"/>
       <use xlink:href="#DejaVuSans-2212" transform="translate(128.203125 39.046875) scale(0.7)"/>
       <use xlink:href="#DejaVuSans-32" transform="translate(186.855469 39.046875) scale(0.7)"/>
      </g>
     </g>
    </g>
    <g id="ytick_3">
     <g id="line2d_10">
      <g>
       <use xlink:href="#m3903d3ed36" x="57.6" y="214.639902" style="stroke: #000000; stroke-width: 0.8"/>
      </g>
     </g>
     <g id="text_11">
      <!-- $\mathdefault{10^{-1}}$ -->
      <g transform="translate(27.1 218.43912) scale(0.1 -0.1)">
       <use xlink:href="#DejaVuSans-31" transform="translate(0 0.684375)"/>
       <use xlink:href="#DejaVuSans-30" transform="translate(63.623047 0.684375)"/>
       <use xlink:href="#DejaVuSans-2212" transform="translate(128.203125 38.965625) scale(0.7)"/>
       <use xlink:href="#DejaVuSans-31" transform="translate(186.855469 38.965625) scale(0.7)"/>
      </g>
     </g>
    </g>
    <g id="ytick_4">
     <g id="line2d_11">
      <g>
       <use xlink:href="#m3903d3ed36" x="57.6" y="168.40222" style="stroke: #000000; stroke-width: 0.8"/>
      </g>
     </g>
     <g id="text_12">
      <!-- $\mathdefault{10^{0}}$ -->
      <g transform="translate(33 172.201439) scale(0.1 -0.1)">
       <use xlink:href="#DejaVuSans-31" transform="translate(0 0.765625)"/>
       <use xlink:href="#DejaVuSans-30" transform="translate(63.623047 0.765625)"/>
       <use xlink:href="#DejaVuSans-30" transform="translate(128.203125 39.046875) scale(0.7)"/>
      </g>
     </g>
    </g>
    <g id="ytick_5">
     <g id="line2d_12">
      <g>
       <use xlink:href="#m3903d3ed36" x="57.6" y="122.164538" style="stroke: #000000; stroke-width: 0.8"/>
      </g>
     </g>
     <g id="text_13">
      <!-- $\mathdefault{10^{1}}$ -->
      <g transform="translate(33 125.963757) scale(0.1 -0.1)">
       <use xlink:href="#DejaVuSans-31" transform="translate(0 0.684375)"/>
       <use xlink:href="#DejaVuSans-30" transform="translate(63.623047 0.684375)"/>
       <use xlink:href="#DejaVuSans-31" transform="translate(128.203125 38.965625) scale(0.7)"/>
      </g>
     </g>
    </g>
    <g id="ytick_6">
     <g id="line2d_13">
      <g>
       <use xlink:href="#m3903d3ed36" x="57.6" y="75.926856" style="stroke: #000000; stroke-width: 0.8"/>
      </g>
     </g>
     <g id="text_14">
      <!-- $\mathdefault{10^{2}}$ -->
      <g transform="translate(33 79.726075) scale(0.1 -0.1)">
       <use xlink:href="#DejaVuSans-31" transform="translate(0 0.765625)"/>
       <use xlink:href="#DejaVuSans-30" transform="translate(63.623047 0.765625)"/>
       <use xlink:href="#DejaVuSans-32" transform="translate(128.203125 39.046875) scale(0.7)"/>
      </g>
     </g>
    </g>
    <g id="ytick_7">
     <g id="line2d_14">
      <defs>
       <path id="m7622399bbc" d="M 0 0 
L -2 0 
" style="stroke: #000000; stroke-width: 0.6"/>
      </defs>
      <g>
       <use xlink:href="#m7622399bbc" x="57.6" y="293.196336" style="stroke: #000000; stroke-width: 0.6"/>
      </g>
     </g>
    </g>
    <g id="ytick_8">
     <g id="line2d_15">
      <g>
       <use xlink:href="#m7622399bbc" x="57.6" y="285.054284" style="stroke: #000000; stroke-width: 0.6"/>
      </g>
     </g>
    </g>
    <g id="ytick_9">
     <g id="line2d_16">
      <g>
       <use xlink:href="#m7622399bbc" x="57.6" y="279.277407" style="stroke: #000000; stroke-width: 0.6"/>
      </g>
     </g>
    </g>
    <g id="ytick_10">
     <g id="line2d_17">
      <g>
       <use xlink:href="#m7622399bbc" x="57.6" y="274.796513" style="stroke: #000000; stroke-width: 0.6"/>
      </g>
     </g>
    </g>
    <g id="ytick_11">
     <g id="line2d_18">
      <g>
       <use xlink:href="#m7622399bbc" x="57.6" y="271.135355" style="stroke: #000000; stroke-width: 0.6"/>
      </g>
     </g>
    </g>
    <g id="ytick_12">
     <g id="line2d_19">
      <g>
       <use xlink:href="#m7622399bbc" x="57.6" y="268.039891" style="stroke: #000000; stroke-width: 0.6"/>
      </g>
     </g>
    </g>
    <g id="ytick_13">
     <g id="line2d_20">
      <g>
       <use xlink:href="#m7622399bbc" x="57.6" y="265.358478" style="stroke: #000000; stroke-width: 0.6"/>
      </g>
     </g>
    </g>
    <g id="ytick_14">
     <g id="line2d_21">
      <g>
       <use xlink:href="#m7622399bbc" x="57.6" y="262.993304" style="stroke: #000000; stroke-width: 0.6"/>
      </g>
     </g>
    </g>
    <g id="ytick_15">
     <g id="line2d_22">
      <g>
       <use xlink:href="#m7622399bbc" x="57.6" y="246.958654" style="stroke: #000000; stroke-width: 0.6"/>
      </g>
     </g>
    </g>
    <g id="ytick_16">
     <g id="line2d_23">
      <g>
       <use xlink:href="#m7622399bbc" x="57.6" y="238.816603" style="stroke: #000000; stroke-width: 0.6"/>
      </g>
     </g>
    </g>
    <g id="ytick_17">
     <g id="line2d_24">
      <g>
       <use xlink:href="#m7622399bbc" x="57.6" y="233.039725" style="stroke: #000000; stroke-width: 0.6"/>
      </g>
     </g>
    </g>
    <g id="ytick_18">
     <g id="line2d_25">
      <g>
       <use xlink:href="#m7622399bbc" x="57.6" y="228.558831" style="stroke: #000000; stroke-width: 0.6"/>
      </g>
     </g>
    </g>
    <g id="ytick_19">
     <g id="line2d_26">
      <g>
       <use xlink:href="#m7622399bbc" x="57.6" y="224.897674" style="stroke: #000000; stroke-width: 0.6"/>
      </g>
     </g>
    </g>
    <g id="ytick_20">
     <g id="line2d_27">
      <g>
       <use xlink:href="#m7622399bbc" x="57.6" y="221.802209" style="stroke: #000000; stroke-width: 0.6"/>
      </g>
     </g>
    </g>
    <g id="ytick_21">
     <g id="line2d_28">
      <g>
       <use xlink:href="#m7622399bbc" x="57.6" y="219.120796" style="stroke: #000000; stroke-width: 0.6"/>
      </g>
     </g>
    </g>
    <g id="ytick_22">
     <g id="line2d_29">
      <g>
       <use xlink:href="#m7622399bbc" x="57.6" y="216.755622" style="stroke: #000000; stroke-width: 0.6"/>
      </g>
     </g>
    </g>
    <g id="ytick_23">
     <g id="line2d_30">
      <g>
       <use xlink:href="#m7622399bbc" x="57.6" y="200.720973" style="stroke: #000000; stroke-width: 0.6"/>
      </g>
     </g>
    </g>
    <g id="ytick_24">
     <g id="line2d_31">
      <g>
       <use xlink:href="#m7622399bbc" x="57.6" y="192.578921" style="stroke: #000000; stroke-width: 0.6"/>
      </g>
     </g>
    </g>
    <g id="ytick_25">
     <g id="line2d_32">
      <g>
       <use xlink:href="#m7622399bbc" x="57.6" y="186.802043" style="stroke: #000000; stroke-width: 0.6"/>
      </g>
     </g>
    </g>
    <g id="ytick_26">
     <g id="line2d_33">
      <g>
       <use xlink:href="#m7622399bbc" x="57.6" y="182.321149" style="stroke: #000000; stroke-width: 0.6"/>
      </g>
     </g>
    </g>
    <g id="ytick_27">
     <g id="line2d_34">
      <g>
       <use xlink:href="#m7622399bbc" x="57.6" y="178.659992" style="stroke: #000000; stroke-width: 0.6"/>
      </g>
     </g>
    </g>
    <g id="ytick_28">
     <g id="line2d_35">
      <g>
       <use xlink:href="#m7622399bbc" x="57.6" y="175.564527" style="stroke: #000000; stroke-width: 0.6"/>
      </g>
     </g>
    </g>
    <g id="ytick_29">
     <g id="line2d_36">
      <g>
       <use xlink:href="#m7622399bbc" x="57.6" y="172.883114" style="stroke: #000000; stroke-width: 0.6"/>
      </g>
     </g>
    </g>
    <g id="ytick_30">
     <g id="line2d_37">
      <g>
       <use xlink:href="#m7622399bbc" x="57.6" y="170.51794" style="stroke: #000000; stroke-width: 0.6"/>
      </g>
     </g>
    </g>
    <g id="ytick_31">
     <g id="line2d_38">
      <g>
       <use xlink:href="#m7622399bbc" x="57.6" y="154.483291" style="stroke: #000000; stroke-width: 0.6"/>
      </g>
     </g>
    </g>
    <g id="ytick_32">
     <g id="line2d_39">
      <g>
       <use xlink:href="#m7622399bbc" x="57.6" y="146.341239" style="stroke: #000000; stroke-width: 0.6"/>
      </g>
     </g>
    </g>
    <g id="ytick_33">
     <g id="line2d_40">
      <g>
       <use xlink:href="#m7622399bbc" x="57.6" y="140.564362" style="stroke: #000000; stroke-width: 0.6"/>
      </g>
     </g>
    </g>
    <g id="ytick_34">
     <g id="line2d_41">
      <g>
       <use xlink:href="#m7622399bbc" x="57.6" y="136.083467" style="stroke: #000000; stroke-width: 0.6"/>
      </g>
     </g>
    </g>
    <g id="ytick_35">
     <g id="line2d_42">
      <g>
       <use xlink:href="#m7622399bbc" x="57.6" y="132.42231" style="stroke: #000000; stroke-width: 0.6"/>
      </g>
     </g>
    </g>
    <g id="ytick_36">
     <g id="line2d_43">
      <g>
       <use xlink:href="#m7622399bbc" x="57.6" y="129.326846" style="stroke: #000000; stroke-width: 0.6"/>
      </g>
     </g>
    </g>
    <g id="ytick_37">
     <g id="line2d_44">
      <g>
       <use xlink:href="#m7622399bbc" x="57.6" y="126.645433" style="stroke: #000000; stroke-width: 0.6"/>
      </g>
     </g>
    </g>
    <g id="ytick_38">
     <g id="line2d_45">
      <g>
       <use xlink:href="#m7622399bbc" x="57.6" y="124.280258" style="stroke: #000000; stroke-width: 0.6"/>
      </g>
     </g>
    </g>
    <g id="ytick_39">
     <g id="line2d_46">
      <g>
       <use xlink:href="#m7622399bbc" x="57.6" y="108.245609" style="stroke: #000000; stroke-width: 0.6"/>
      </g>
     </g>
    </g>
    <g id="ytick_40">
     <g id="line2d_47">
      <g>
       <use xlink:href="#m7622399bbc" x="57.6" y="100.103557" style="stroke: #000000; stroke-width: 0.6"/>
      </g>
     </g>
    </g>
    <g id="ytick_41">
     <g id="line2d_48">
      <g>
       <use xlink:href="#m7622399bbc" x="57.6" y="94.32668" style="stroke: #000000; stroke-width: 0.6"/>
      </g>
     </g>
    </g>
    <g id="ytick_42">
     <g id="line2d_49">
      <g>
       <use xlink:href="#m7622399bbc" x="57.6" y="89.845786" style="stroke: #000000; stroke-width: 0.6"/>
      </g>
     </g>
    </g>
    <g id="ytick_43">
     <g id="line2d_50">
      <g>
       <use xlink:href="#m7622399bbc" x="57.6" y="86.184628" style="stroke: #000000; stroke-width: 0.6"/>
      </g>
     </g>
    </g>
    <g id="ytick_44">
     <g id="line2d_51">
      <g>
       <use xlink:href="#m7622399bbc" x="57.6" y="83.089164" style="stroke: #000000; stroke-width: 0.6"/>
      </g>
     </g>
    </g>
    <g id="ytick_45">
     <g id="line2d_52">
      <g>
       <use xlink:href="#m7622399bbc" x="57.6" y="80.407751" style="stroke: #000000; stroke-width: 0.6"/>
      </g>
     </g>
    </g>
    <g id="ytick_46">
     <g id="line2d_53">
      <g>
       <use xlink:href="#m7622399bbc" x="57.6" y="78.042577" style="stroke: #000000; stroke-width: 0.6"/>
      </g>
     </g>
    </g>
    <g id="ytick_47">
     <g id="line2d_54">
      <g>
       <use xlink:href="#m7622399bbc" x="57.6" y="62.007927" style="stroke: #000000; stroke-width: 0.6"/>
      </g>
     </g>
    </g>
    <g id="ytick_48">
     <g id="line2d_55">
      <g>
       <use xlink:href="#m7622399bbc" x="57.6" y="53.865876" style="stroke: #000000; stroke-width: 0.6"/>
      </g>
     </g>
    </g>
    <g id="ytick_49">
     <g id="line2d_56">
      <g>
       <use xlink:href="#m7622399bbc" x="57.6" y="48.088998" style="stroke: #000000; stroke-width: 0.6"/>
      </g>
     </g>
    </g>
    <g id="ytick_50">
     <g id="line2d_57">
      <g>
       <use xlink:href="#m7622399bbc" x="57.6" y="43.608104" style="stroke: #000000; stroke-width: 0.6"/>
      </g>
     </g>
    </g>
    <g id="text_15">
     <!-- Leistung/Frequenz (V²/Hz) -->
     <g transform="translate(21.020312 239.182687) rotate(-90) scale(0.1 -0.1)">
      <defs>
       <path id="DejaVuSans-4c" d="M 628 4666 
L 1259 4666 
L 1259 531 
L 3531 531 
L 3531 0 
L 628 0 
L 628 4666 
z
" transform="scale(0.015625)"/>
       <path id="DejaVuSans-73" d="M 2834 3397 
L 2834 2853 
Q 2591 2978 2328 3040 
Q 2066 3103 1784 3103 
Q 1356 3103 1142 2972 
Q 928 2841 928 2578 
Q 928 2378 1081 2264 
Q 1234 2150 1697 2047 
L 1894 2003 
Q 2506 1872 2764 1633 
Q 3022 1394 3022 966 
Q 3022 478 2636 193 
Q 2250 -91 1575 -91 
Q 1294 -91 989 -36 
Q 684 19 347 128 
L 347 722 
Q 666 556 975 473 
Q 1284 391 1588 391 
Q 1994 391 2212 530 
Q 2431 669 2431 922 
Q 2431 1156 2273 1281 
Q 2116 1406 1581 1522 
L 1381 1569 
Q 847 1681 609 1914 
Q 372 2147 372 2553 
Q 372 3047 722 3315 
Q 1072 3584 1716 3584 
Q 2034 3584 2315 3537 
Q 2597 3491 2834 3397 
z
" transform="scale(0.015625)"/>
       <path id="DejaVuSans-74" d="M 1172 4494 
L 1172 3500 
L 2356 3500 
L 2356 3053 
L 1172 3053 
L 1172 1153 
Q 1172 725 1289 603 
Q 1406 481 1766 481 
L 2356 481 
L 2356 0 
L 1766 0 
Q 1100 0 847 248 
Q 594 497 594 1153 
L 594 3053 
L 172 3053 
L 172 3500 
L 594 3500 
L 594 4494 
L 1172 4494 
z
" transform="scale(0.015625)"/>
       <path id="DejaVuSans-67" d="M 2906 1791 
Q 2906 2416 2648 2759 
Q 2391 3103 1925 3103 
Q 1463 3103 1205 2759 
Q 947 2416 947 1791 
Q 947 1169 1205 825 
Q 1463 481 1925 481 
Q 2391 481 2648 825 
Q 2906 1169 2906 1791 
z
M 3481 434 
Q 3481 -459 3084 -895 
Q 2688 -1331 1869 -1331 
Q 1566 -1331 1297 -1286 
Q 1028 -1241 775 -1147 
L 775 -588 
Q 1028 -725 1275 -790 
Q 1522 -856 1778 -856 
Q 2344 -856 2625 -561 
Q 2906 -266 2906 331 
L 2906 616 
Q 2728 306 2450 153 
Q 2172 0 1784 0 
Q 1141 0 747 490 
Q 353 981 353 1791 
Q 353 2603 747 3093 
Q 1141 3584 1784 3584 
Q 2172 3584 2450 3431 
Q 2728 3278 2906 2969 
L 2906 3500 
L 3481 3500 
L 3481 434 
z
" transform="scale(0.015625)"/>
       <path id="DejaVuSans-2f" d="M 1625 4666 
L 2156 4666 
L 531 -594 
L 0 -594 
L 1625 4666 
z
" transform="scale(0.015625)"/>
       <path id="DejaVuSans-28" d="M 1984 4856 
Q 1566 4138 1362 3434 
Q 1159 2731 1159 2009 
Q 1159 1288 1364 580 
Q 1569 -128 1984 -844 
L 1484 -844 
Q 1016 -109 783 600 
Q 550 1309 550 2009 
Q 550 2706 781 3412 
Q 1013 4119 1484 4856 
L 1984 4856 
z
" transform="scale(0.015625)"/>
       <path id="DejaVuSans-56" d="M 1831 0 
L 50 4666 
L 709 4666 
L 2188 738 
L 3669 4666 
L 4325 4666 
L 2547 0 
L 1831 0 
z
" transform="scale(0.015625)"/>
       <path id="DejaVuSans-b2" d="M 838 2444 
L 2163 2444 
L 2163 2088 
L 294 2088 
L 294 2431 
Q 400 2528 597 2703 
Q 1672 3656 1672 3950 
Q 1672 4156 1509 4282 
Q 1347 4409 1081 4409 
Q 919 4409 728 4354 
Q 538 4300 313 4191 
L 313 4575 
Q 553 4663 761 4706 
Q 969 4750 1147 4750 
Q 1600 4750 1872 4544 
Q 2144 4338 2144 4000 
Q 2144 3566 1109 2678 
Q 934 2528 838 2444 
z
" transform="scale(0.015625)"/>
       <path id="DejaVuSans-29" d="M 513 4856 
L 1013 4856 
Q 1481 4119 1714 3412 
Q 1947 2706 1947 2009 
Q 1947 1309 1714 600 
Q 1481 -109 1013 -844 
L 513 -844 
Q 928 -128 1133 580 
Q 1338 1288 1338 2009 
Q 1338 2731 1133 3434 
Q 928 4138 513 4856 
z
" transform="scale(0.015625)"/>
      </defs>
      <use xlink:href="#DejaVuSans-4c"/>
      <use xlink:href="#DejaVuSans-65" transform="translate(53.962891 0)"/>
      <use xlink:href="#DejaVuSans-69" transform="translate(115.486328 0)"/>
      <use xlink:href="#DejaVuSans-73" transform="translate(143.269531 0)"/>
      <use xlink:href="#DejaVuSans-74" transform="translate(195.369141 0)"/>
      <use xlink:href="#DejaVuSans-75" transform="translate(234.578125 0)"/>
      <use xlink:href="#DejaVuSans-6e" transform="translate(297.957031 0)"/>
      <use xlink:href="#DejaVuSans-67" transform="translate(361.335938 0)"/>
      <use xlink:href="#DejaVuSans-2f" transform="translate(424.8125 0)"/>
      <use xlink:href="#DejaVuSans-46" transform="translate(458.503906 0)"/>
      <use xlink:href="#DejaVuSans-72" transform="translate(508.773438 0)"/>
      <use xlink:href="#DejaVuSans-65" transform="translate(547.636719 0)"/>
      <use xlink:href="#DejaVuSans-71" transform="translate(609.160156 0)"/>
      <use xlink:href="#DejaVuSans-75" transform="translate(672.636719 0)"/>
      <use xlink:href="#DejaVuSans-65" transform="translate(736.015625 0)"/>
      <use xlink:href="#DejaVuSans-6e" transform="translate(797.539062 0)"/>
      <use xlink:href="#DejaVuSans-7a" transform="translate(860.917969 0)"/>
      <use xlink:href="#DejaVuSans-20" transform="translate(913.408203 0)"/>
      <use xlink:href="#DejaVuSans-28" transform="translate(945.195312 0)"/>
      <use xlink:href="#DejaVuSans-56" transform="translate(984.208984 0)"/>
      <use xlink:href="#DejaVuSans-b2" transform="translate(1052.617188 0)"/>
      <use xlink:href="#DejaVuSans-2f" transform="translate(1092.705078 0)"/>
      <use xlink:href="#DejaVuSans-48" transform="translate(1126.396484 0)"/>
      <use xlink:href="#DejaVuSans-7a" transform="translate(1201.591797 0)"/>
      <use xlink:href="#DejaVuSans-29" transform="translate(1254.082031 0)"/>
     </g>
    </g>
   </g>
   <g id="line2d_58">
    <path d="M 73.832727 88.05634 
L 74.149773 53.568 
L 74.783864 68.364142 
L 75.100909 71.955691 
L 76.369091 102.582651 
L 77.320227 124.7412 
L 77.954318 132.440464 
L 78.588409 141.876128 
L 78.905455 141.796236 
L 79.2225 145.04702 
L 79.856591 152.97399 
L 80.490682 159.241181 
L 80.807727 163.927667 
L 81.124773 164.554089 
L 81.441818 164.010964 
L 81.758864 167.40714 
L 82.075909 167.497123 
L 82.392955 169.18229 
L 82.71 173.879803 
L 83.027045 175.028829 
L 83.344091 175.621172 
L 83.661136 178.068351 
L 83.978182 173.046229 
L 84.295227 170.473086 
L 84.612273 182.22807 
L 85.246364 188.697025 
L 85.880455 193.834193 
L 86.1975 192.916415 
L 86.514545 193.321664 
L 86.831591 196.781053 
L 87.148636 197.112326 
L 87.465682 195.583479 
L 88.099773 202.252461 
L 88.733864 200.603503 
L 89.050909 199.145524 
L 89.367955 191.164835 
L 90.002045 205.059362 
L 90.319091 205.083543 
L 90.636136 207.572198 
L 90.953182 208.208458 
L 91.270227 208.524763 
L 91.587273 209.267044 
L 92.221364 208.776523 
L 92.538409 208.00631 
L 92.855455 208.51607 
L 93.1725 208.507788 
L 93.806591 210.189141 
L 94.123636 207.731256 
L 94.440682 193.822246 
L 94.757727 195.040335 
L 95.074773 206.703336 
L 95.391818 210.31965 
L 95.708864 210.915487 
L 96.025909 209.648946 
L 96.342955 210.371404 
L 96.66 208.761792 
L 96.977045 208.243853 
L 97.294091 209.929554 
L 97.611136 208.811459 
L 97.928182 209.373023 
L 98.245227 207.331696 
L 98.562273 206.969017 
L 98.879318 207.790059 
L 99.196364 203.732575 
L 99.513409 183.72929 
L 99.830455 175.290357 
L 100.464545 202.840319 
L 100.781591 203.860675 
L 101.098636 205.311517 
L 101.415682 205.011211 
L 101.732727 203.817058 
L 102.049773 204.329927 
L 102.366818 206.610317 
L 103.000909 204.491933 
L 103.317955 203.430447 
L 103.635 203.042984 
L 103.952045 201.442746 
L 104.269091 200.47232 
L 104.903182 177.434682 
L 105.220227 184.992166 
L 105.537273 195.289792 
L 105.854318 198.291335 
L 106.171364 198.651772 
L 106.488409 199.372186 
L 106.805455 202.213205 
L 107.1225 201.594308 
L 107.439545 198.883047 
L 108.073636 197.715766 
L 108.390682 197.968076 
L 108.707727 199.064441 
L 109.341818 196.258556 
L 109.658864 190.974331 
L 109.975909 180.106845 
L 110.292955 181.176515 
L 110.61 192.330627 
L 111.244091 199.192545 
L 111.561136 200.853718 
L 111.878182 197.280861 
L 112.195227 198.241395 
L 112.512273 200.5475 
L 112.829318 197.88551 
L 113.146364 196.969559 
L 113.463409 200.3815 
L 113.780455 202.417505 
L 114.0975 202.749912 
L 114.414545 201.134088 
L 114.731591 196.290262 
L 115.048636 182.897303 
L 115.365682 177.677169 
L 115.999773 197.126444 
L 116.633864 202.45599 
L 116.950909 200.599747 
L 117.267955 199.819096 
L 117.585 200.512063 
L 118.219091 198.116622 
L 118.536136 200.536233 
L 118.853182 200.31948 
L 119.170227 199.301337 
L 119.487273 198.675794 
L 119.804318 194.379285 
L 120.438409 176.139155 
L 120.755455 182.589079 
L 121.0725 194.842231 
L 121.389545 200.31433 
L 122.023636 202.554387 
L 122.340682 202.235665 
L 122.657727 202.468415 
L 122.974773 199.286398 
L 123.291818 199.192133 
L 123.608864 198.063029 
L 123.925909 198.954624 
L 124.242955 198.46241 
L 124.56 198.457474 
L 125.194091 193.880981 
L 125.511136 184.300039 
L 125.828182 183.762797 
L 126.462273 196.895291 
L 126.779318 200.400826 
L 127.096364 201.219711 
L 127.413409 196.899078 
L 127.730455 196.386627 
L 128.0475 198.844021 
L 128.364545 199.639429 
L 128.681591 196.514869 
L 128.998636 197.172219 
L 129.315682 201.625814 
L 129.632727 201.44777 
L 129.949773 199.433454 
L 130.583864 187.28947 
L 130.900909 187.725389 
L 131.535 194.95775 
L 131.852045 197.133843 
L 132.169091 196.290534 
L 132.486136 196.2483 
L 132.803182 197.067908 
L 133.120227 196.676664 
L 133.437273 198.171223 
L 134.071364 194.041291 
L 134.388409 194.908017 
L 134.705455 194.98918 
L 135.339545 191.965218 
L 135.973636 185.140145 
L 136.290682 186.310226 
L 136.607727 189.08637 
L 136.924773 194.583515 
L 137.241818 195.62863 
L 137.558864 195.694284 
L 137.875909 195.389065 
L 138.192955 194.72127 
L 138.827045 190.494807 
L 139.144091 192.163989 
L 139.461136 195.265219 
L 139.778182 192.994038 
L 140.095227 188.839218 
L 140.412273 191.379544 
L 140.729318 189.597669 
L 141.046364 186.191975 
L 141.363409 185.930639 
L 141.680455 187.452068 
L 141.9975 187.806356 
L 142.314545 190.015737 
L 142.631591 190.911911 
L 142.948636 190.866502 
L 143.265682 185.891021 
L 143.582727 186.52744 
L 143.899773 188.285135 
L 144.216818 192.544969 
L 144.533864 193.38766 
L 145.167955 188.242322 
L 145.485 183.616589 
L 145.802045 183.63571 
L 146.119091 185.60663 
L 146.436136 186.45316 
L 146.753182 188.03144 
L 147.070227 190.555579 
L 147.387273 191.609285 
L 147.704318 190.584785 
L 148.021364 190.426672 
L 148.338409 186.443177 
L 148.655455 185.021992 
L 148.9725 184.752162 
L 149.289545 186.126286 
L 149.606591 185.507429 
L 149.923636 186.859811 
L 150.557727 186.825372 
L 150.874773 183.466816 
L 151.191818 183.319777 
L 151.508864 185.259134 
L 151.825909 183.177852 
L 152.142955 184.313504 
L 152.46 186.399133 
L 152.777045 186.585194 
L 153.094091 187.033098 
L 153.411136 187.041664 
L 153.728182 186.255442 
L 154.045227 185.829438 
L 154.362273 186.498816 
L 154.679318 184.789618 
L 154.996364 186.822546 
L 155.313409 185.173898 
L 155.630455 184.901116 
L 155.9475 185.739275 
L 156.264545 185.613895 
L 156.581591 183.941588 
L 156.898636 181.573518 
L 157.215682 183.472168 
L 157.532727 184.52056 
L 158.166818 187.924516 
L 159.435 182.226169 
L 159.752045 182.370698 
L 160.069091 180.08264 
L 160.386136 184.394359 
L 160.703182 185.120658 
L 161.020227 184.914341 
L 161.654318 182.005453 
L 161.971364 182.330563 
L 162.288409 182.975049 
L 162.605455 183.219514 
L 162.9225 182.392194 
L 163.873636 186.74821 
L 164.190682 184.921672 
L 164.507727 185.851499 
L 164.824773 186.150885 
L 165.141818 184.081694 
L 165.458864 185.651735 
L 165.775909 185.149973 
L 166.092955 185.818279 
L 166.41 187.837614 
L 166.727045 184.402197 
L 167.044091 186.228237 
L 167.361136 187.13514 
L 167.678182 179.909447 
L 167.995227 179.981888 
L 168.312273 183.438885 
L 168.629318 183.609928 
L 168.946364 182.833331 
L 169.263409 182.897786 
L 169.580455 184.283773 
L 169.8975 182.700373 
L 170.214545 184.141158 
L 170.531591 182.236912 
L 170.848636 182.302103 
L 171.165682 186.784185 
L 172.116818 181.049204 
L 172.433864 179.594275 
L 172.750909 181.964044 
L 173.067955 183.336272 
L 173.385 184.020185 
L 173.702045 181.017142 
L 174.019091 180.131876 
L 174.336136 179.695709 
L 174.653182 180.17326 
L 174.970227 182.039918 
L 175.287273 181.778264 
L 175.604318 177.710897 
L 175.921364 177.872791 
L 176.238409 179.229727 
L 176.555455 181.385102 
L 176.8725 180.03928 
L 177.189545 179.473279 
L 177.506591 176.005079 
L 177.823636 174.759481 
L 178.140682 177.34798 
L 178.457727 182.500707 
L 178.774773 181.819968 
L 179.091818 181.549838 
L 179.408864 179.323145 
L 179.725909 178.32666 
L 180.042955 178.971514 
L 180.36 178.660912 
L 180.677045 179.207695 
L 180.994091 182.836424 
L 181.311136 184.764303 
L 181.628182 179.5199 
L 181.945227 179.888429 
L 182.579318 181.685418 
L 182.896364 181.221744 
L 183.213409 182.281181 
L 183.8475 180.033066 
L 184.164545 181.680552 
L 184.798636 178.093458 
L 185.432727 179.689756 
L 185.749773 179.097347 
L 186.066818 179.594198 
L 186.383864 181.782373 
L 186.700909 180.985746 
L 187.017955 178.494201 
L 187.335 178.832649 
L 187.969091 181.201763 
L 188.286136 178.852363 
L 188.603182 180.035385 
L 188.920227 178.367664 
L 189.237273 178.253311 
L 189.554318 178.643648 
L 189.871364 176.40201 
L 190.188409 176.75688 
L 190.505455 180.211574 
L 190.8225 181.292101 
L 191.139545 180.705142 
L 191.773636 177.421969 
L 192.407727 172.239143 
L 192.724773 175.544953 
L 193.041818 176.298571 
L 193.675909 180.348943 
L 193.992955 179.367868 
L 194.31 180.263903 
L 194.944091 178.062773 
L 195.578182 172.441152 
L 195.895227 176.937418 
L 196.212273 177.831283 
L 196.529318 177.233632 
L 197.163409 178.618762 
L 197.7975 176.781408 
L 198.431591 181.913878 
L 198.748636 177.784212 
L 199.065682 175.606447 
L 199.382727 176.862726 
L 199.699773 175.183757 
L 200.016818 176.285866 
L 200.333864 180.076553 
L 200.650909 176.512101 
L 200.967955 176.64587 
L 201.602045 179.132867 
L 201.919091 179.892575 
L 202.236136 179.454022 
L 202.553182 180.18715 
L 202.870227 175.807053 
L 203.187273 174.926498 
L 203.504318 175.290299 
L 203.821364 174.416111 
L 204.138409 175.570315 
L 204.455455 175.623367 
L 204.7725 178.432679 
L 205.089545 178.436419 
L 205.406591 177.779204 
L 205.723636 175.735327 
L 206.357727 177.819597 
L 206.674773 176.714752 
L 206.991818 175.100736 
L 207.308864 174.118669 
L 207.625909 177.474738 
L 207.942955 177.627406 
L 208.26 175.099666 
L 208.577045 177.568951 
L 208.894091 177.695351 
L 209.528182 174.098202 
L 209.845227 173.980684 
L 210.162273 175.810771 
L 210.479318 175.462361 
L 210.796364 176.175202 
L 211.113409 176.435196 
L 211.430455 174.88132 
L 211.7475 171.704398 
L 212.381591 177.579015 
L 212.698636 175.638635 
L 213.332727 179.538333 
L 213.649773 178.750316 
L 214.283864 173.963067 
L 214.600909 173.163042 
L 215.552045 178.542353 
L 215.869091 174.930489 
L 216.186136 173.383828 
L 216.820227 178.818026 
L 217.137273 178.50445 
L 217.454318 175.889728 
L 217.771364 175.794631 
L 218.088409 177.058379 
L 218.405455 176.721366 
L 219.039545 172.968956 
L 219.356591 176.125513 
L 219.673636 177.92549 
L 219.990682 177.849055 
L 220.307727 177.415552 
L 220.624773 178.735595 
L 220.941818 179.403558 
L 221.258864 174.813192 
L 221.575909 174.001243 
L 221.892955 172.227921 
L 222.527045 172.344036 
L 222.844091 173.021887 
L 223.478182 176.635437 
L 224.112273 174.486697 
L 224.429318 175.888015 
L 225.063409 179.841631 
L 225.380455 178.565882 
L 225.6975 175.25123 
L 226.014545 175.295893 
L 226.331591 175.509293 
L 226.965682 174.442669 
L 227.599773 168.286629 
L 228.233864 177.868668 
L 229.185 163.386383 
L 229.502045 114.507915 
L 229.819091 109.626269 
L 230.136136 153.558561 
L 230.453182 170.373091 
L 231.087273 175.137704 
L 231.404318 174.08174 
L 231.721364 174.826225 
L 232.038409 172.704114 
L 232.6725 176.863853 
L 233.306591 171.87841 
L 233.623636 174.097651 
L 234.257727 174.850333 
L 234.574773 174.334887 
L 235.208864 171.306712 
L 235.525909 171.353345 
L 235.842955 176.026249 
L 236.16 174.296763 
L 236.794091 173.633316 
L 237.111136 175.801439 
L 237.745227 171.355895 
L 238.062273 174.589266 
L 238.379318 176.022609 
L 239.013409 171.982741 
L 239.330455 173.747984 
L 239.6475 173.537308 
L 239.964545 174.118271 
L 240.598636 169.505069 
L 240.915682 170.430495 
L 241.549773 176.911669 
L 241.866818 172.955334 
L 242.183864 171.648404 
L 242.500909 173.158546 
L 242.817955 173.44625 
L 243.135 175.087982 
L 243.452045 173.733122 
L 243.769091 175.783664 
L 244.086136 174.062844 
L 244.403182 171.048841 
L 244.720227 176.177671 
L 245.037273 174.363074 
L 245.354318 171.186693 
L 245.671364 170.996349 
L 246.305455 174.530039 
L 246.6225 173.557887 
L 246.939545 176.986745 
L 247.256591 174.042627 
L 247.573636 174.335203 
L 247.890682 177.044444 
L 248.207727 176.351879 
L 248.524773 174.034824 
L 248.841818 174.196411 
L 249.158864 171.664053 
L 249.475909 173.932988 
L 249.792955 175.135118 
L 250.11 172.201158 
L 250.427045 170.795552 
L 250.744091 171.889412 
L 251.061136 172.259088 
L 251.378182 172.267638 
L 252.012273 171.703955 
L 252.329318 172.754031 
L 252.646364 174.835236 
L 253.280455 170.563059 
L 253.5975 168.413623 
L 253.914545 169.062484 
L 254.548636 171.751631 
L 254.865682 170.266371 
L 255.499773 175.038663 
L 255.816818 176.583156 
L 256.133864 175.974818 
L 256.450909 174.99109 
L 256.767955 175.815197 
L 257.085 177.190467 
L 257.719091 173.307673 
L 258.036136 173.359048 
L 258.670227 176.241408 
L 258.987273 174.234304 
L 259.304318 174.086103 
L 259.621364 172.513919 
L 259.938409 174.874692 
L 260.5725 169.931465 
L 260.889545 172.293706 
L 261.523636 170.359224 
L 261.840682 169.799018 
L 262.474773 176.188993 
L 263.108864 170.957448 
L 263.425909 169.530255 
L 263.742955 171.379796 
L 264.06 172.487648 
L 264.377045 172.839848 
L 264.694091 175.498666 
L 265.011136 175.373306 
L 265.328182 173.686766 
L 265.645227 172.841858 
L 265.962273 174.534889 
L 266.279318 178.024549 
L 266.596364 175.89107 
L 266.913409 171.070467 
L 267.230455 172.601463 
L 267.5475 171.142152 
L 267.864545 171.449596 
L 268.181591 171.946629 
L 268.498636 172.773472 
L 268.815682 171.082488 
L 269.132727 170.358101 
L 269.449773 171.762472 
L 269.766818 176.450699 
L 270.083864 173.012497 
L 270.400909 171.410832 
L 270.717955 173.99369 
L 271.035 174.105972 
L 271.352045 174.909865 
L 271.669091 170.278972 
L 271.986136 170.396932 
L 272.303182 171.598742 
L 272.620227 171.0938 
L 272.937273 173.420036 
L 273.254318 172.093006 
L 273.571364 173.102121 
L 273.888409 173.010979 
L 274.205455 172.195409 
L 274.5225 175.541128 
L 274.839545 174.768035 
L 275.156591 174.468323 
L 275.473636 176.193937 
L 275.790682 173.001535 
L 276.424773 170.19332 
L 276.741818 171.139747 
L 277.058864 173.863539 
L 277.375909 172.696274 
L 277.692955 173.69668 
L 278.01 178.763673 
L 278.327045 178.236523 
L 278.644091 172.265943 
L 278.961136 171.007317 
L 279.278182 169.010241 
L 280.229318 174.807717 
L 280.546364 175.441191 
L 280.863409 171.57707 
L 281.4975 173.566446 
L 281.814545 173.589575 
L 282.131591 175.818758 
L 282.448636 175.246821 
L 282.765682 171.632848 
L 283.082727 169.693915 
L 283.399773 170.983482 
L 283.716818 171.737442 
L 284.033864 173.10562 
L 284.350909 172.698392 
L 284.985 167.093177 
L 285.302045 170.963217 
L 285.936136 173.834946 
L 286.253182 174.899592 
L 286.570227 174.95983 
L 287.204318 170.194456 
L 287.521364 170.46855 
L 287.838409 167.587116 
L 288.155455 168.642906 
L 288.4725 171.230558 
L 288.789545 171.545213 
L 289.106591 171.508889 
L 289.740682 169.321117 
L 290.057727 169.327441 
L 290.374773 169.194116 
L 290.691818 169.771409 
L 291.008864 171.057277 
L 291.325909 169.207621 
L 291.96 172.823827 
L 292.277045 172.645428 
L 292.594091 171.388057 
L 292.911136 171.588581 
L 293.228182 174.563401 
L 293.545227 172.990608 
L 293.862273 168.571979 
L 294.179318 166.597574 
L 294.813409 173.589799 
L 295.4475 175.943823 
L 295.764545 175.124951 
L 296.081591 169.345403 
L 296.715682 174.845951 
L 297.349773 173.717618 
L 297.666818 171.71696 
L 297.983864 172.879869 
L 298.300909 172.296694 
L 298.617955 170.727161 
L 298.935 171.668863 
L 299.252045 174.703451 
L 299.569091 175.101877 
L 299.886136 170.80021 
L 300.520227 173.337716 
L 300.837273 173.043726 
L 301.154318 174.094406 
L 301.471364 172.985077 
L 301.788409 172.734976 
L 302.739545 169.812724 
L 303.056591 172.581654 
L 303.373636 178.054363 
L 304.007727 170.090321 
L 304.641818 171.787951 
L 304.958864 172.292748 
L 305.275909 173.553331 
L 305.592955 171.682446 
L 305.91 170.777904 
L 306.544091 172.478349 
L 306.861136 171.881927 
L 307.178182 170.609327 
L 307.495227 170.75875 
L 307.812273 169.987978 
L 308.129318 170.766187 
L 308.446364 171.002045 
L 308.763409 173.150817 
L 309.080455 173.015815 
L 309.3975 172.324256 
L 309.714545 171.102663 
L 310.031591 172.06256 
L 310.348636 174.065643 
L 310.665682 172.19024 
L 311.299773 170.006352 
L 311.616818 169.738242 
L 311.933864 172.215147 
L 312.250909 170.832414 
L 312.567955 171.432227 
L 312.885 168.70586 
L 313.202045 170.133187 
L 313.519091 172.481099 
L 313.836136 172.26095 
L 314.153182 171.02639 
L 314.470227 172.581651 
L 314.787273 170.41734 
L 315.104318 170.458829 
L 315.421364 172.372695 
L 315.738409 171.798782 
L 316.055455 173.864361 
L 316.3725 172.01183 
L 316.689545 172.049313 
L 317.006591 170.480399 
L 317.323636 167.964202 
L 317.640682 168.771399 
L 317.957727 173.936737 
L 318.274773 171.004955 
L 318.591818 171.099234 
L 318.908864 173.238197 
L 319.225909 172.416878 
L 319.542955 174.324164 
L 319.86 173.42687 
L 320.177045 170.510551 
L 320.494091 172.401304 
L 320.811136 171.519447 
L 321.128182 169.237054 
L 321.445227 169.408875 
L 322.079318 171.33528 
L 322.396364 171.778949 
L 322.713409 170.131598 
L 323.030455 170.517223 
L 323.3475 171.241296 
L 323.981591 173.813473 
L 324.298636 172.208737 
L 324.615682 171.659449 
L 324.932727 169.95478 
L 325.249773 170.554604 
L 325.566818 172.354806 
L 325.883864 170.925977 
L 326.200909 170.394579 
L 326.517955 168.596573 
L 326.835 171.393293 
L 327.152045 172.65403 
L 327.469091 171.102189 
L 327.786136 172.290517 
L 328.103182 171.743174 
L 328.420227 171.553483 
L 328.737273 172.626556 
L 329.054318 172.876801 
L 330.005455 176.886566 
L 330.639545 172.091865 
L 330.956591 169.839851 
L 331.590682 170.129396 
L 331.907727 169.937469 
L 332.224773 172.076932 
L 332.541818 168.441645 
L 332.858864 167.139103 
L 333.175909 169.979829 
L 333.492955 168.918698 
L 333.81 165.663723 
L 334.444091 172.675188 
L 334.761136 172.544322 
L 335.078182 173.730107 
L 335.395227 170.887742 
L 335.712273 170.64625 
L 336.029318 173.439699 
L 336.346364 169.881946 
L 336.663409 169.990739 
L 336.980455 173.036584 
L 337.2975 169.758963 
L 337.614545 172.193942 
L 337.931591 177.904278 
L 338.248636 175.641363 
L 338.565682 171.549305 
L 338.882727 172.788779 
L 339.199773 171.697918 
L 339.516818 171.019061 
L 339.833864 172.133887 
L 340.150909 172.216097 
L 340.467955 174.309719 
L 341.102045 172.116956 
L 341.419091 173.567319 
L 341.736136 173.767213 
L 342.053182 172.839007 
L 342.370227 173.03745 
L 342.687273 171.811447 
L 343.004318 174.254972 
L 343.321364 174.49165 
L 343.638409 173.813166 
L 343.955455 175.42053 
L 344.2725 174.369859 
L 344.589545 177.69308 
L 344.906591 176.81262 
L 345.223636 177.384093 
L 345.540682 177.158407 
L 345.857727 177.136479 
L 346.174773 173.129885 
L 346.491818 173.320945 
L 346.808864 176.863145 
L 347.125909 176.68598 
L 347.442955 174.97311 
L 347.76 175.164386 
L 348.394091 178.312475 
L 348.711136 181.323035 
L 349.028182 181.216762 
L 349.345227 177.624784 
L 349.662273 177.697881 
L 349.979318 177.021056 
L 350.296364 180.035708 
L 350.613409 181.781979 
L 350.930455 179.974812 
L 351.2475 179.300821 
L 351.564545 180.423923 
L 351.881591 179.837413 
L 352.198636 178.17184 
L 352.515682 177.478384 
L 352.832727 181.377645 
L 353.149773 182.737385 
L 353.466818 183.014876 
L 353.783864 181.213548 
L 354.100909 181.858929 
L 354.417955 185.078692 
L 354.735 184.976864 
L 355.052045 187.841541 
L 355.686136 183.568501 
L 356.320227 183.790444 
L 356.637273 184.472971 
L 356.954318 183.51434 
L 357.271364 183.151963 
L 357.588409 189.296453 
L 358.2225 189.470609 
L 358.539545 191.821743 
L 358.856591 191.082803 
L 359.173636 191.472116 
L 359.490682 190.318547 
L 359.807727 189.673478 
L 360.124773 186.969826 
L 360.441818 189.221297 
L 360.758864 190.025046 
L 361.075909 188.481715 
L 361.392955 188.795188 
L 361.71 192.486831 
L 362.027045 190.842262 
L 362.661136 196.938966 
L 362.978182 193.217674 
L 363.295227 191.054013 
L 363.612273 191.484812 
L 363.929318 190.285909 
L 364.246364 193.536911 
L 364.563409 194.526059 
L 364.880455 191.05052 
L 365.1975 191.731187 
L 366.148636 198.417968 
L 366.465682 197.592754 
L 366.782727 197.09482 
L 367.099773 199.673732 
L 367.416818 198.07226 
L 367.733864 198.060108 
L 368.050909 199.890433 
L 368.367955 200.798925 
L 368.685 202.3576 
L 369.002045 202.291307 
L 369.636136 198.876072 
L 369.953182 198.524871 
L 370.270227 199.022524 
L 370.587273 198.728118 
L 370.904318 202.228099 
L 371.221364 204.220138 
L 371.538409 205.080786 
L 371.855455 206.819334 
L 372.1725 204.680121 
L 372.489545 206.269883 
L 372.806591 204.8553 
L 373.123636 205.072949 
L 373.440682 205.086513 
L 373.757727 205.432543 
L 374.074773 209.253703 
L 374.391818 207.836045 
L 374.708864 209.138404 
L 375.025909 208.196028 
L 375.342955 210.75081 
L 375.977045 212.544091 
L 376.294091 210.818316 
L 376.611136 213.873083 
L 376.928182 213.572556 
L 377.245227 212.26193 
L 377.879318 215.718261 
L 378.196364 216.464758 
L 378.513409 217.7012 
L 378.830455 216.980106 
L 379.1475 216.975335 
L 379.464545 216.799759 
L 379.781591 216.842158 
L 380.098636 218.688944 
L 380.732727 215.196507 
L 381.049773 214.56634 
L 382.000909 217.275616 
L 382.317955 220.382289 
L 382.635 220.963494 
L 382.952045 220.964018 
L 383.269091 220.552195 
L 383.586136 220.706746 
L 383.903182 222.329964 
L 384.220227 220.675292 
L 384.537273 220.71435 
L 384.854318 222.310374 
L 385.171364 221.604097 
L 385.488409 222.740349 
L 385.805455 222.470623 
L 386.1225 220.10149 
L 386.756591 222.409145 
L 387.073636 222.613615 
L 387.390682 221.371622 
L 387.707727 222.852404 
L 388.024773 225.095069 
L 388.341818 225.459873 
L 388.658864 227.703974 
L 388.975909 226.557875 
L 389.292955 228.684588 
L 389.927045 228.742313 
L 390.244091 227.793018 
L 390.561136 227.998354 
L 390.878182 228.433946 
L 391.195227 228.165249 
L 391.512273 229.740869 
L 391.829318 230.46936 
L 392.146364 230.547133 
L 392.780455 234.801861 
L 393.0975 233.885011 
L 393.414545 233.392168 
L 393.731591 230.634072 
L 394.048636 230.437643 
L 394.365682 231.065271 
L 394.682727 232.368676 
L 394.999773 232.258586 
L 395.316818 229.416747 
L 395.950909 234.690147 
L 396.585 231.849473 
L 396.902045 232.523009 
L 397.219091 230.937676 
L 397.536136 231.027009 
L 397.853182 234.803078 
L 398.170227 234.554358 
L 398.487273 249.047733 
L 398.487273 249.047733 
" clip-path="url(#pa01b4b76af)" style="fill: none; stroke: #0000ff; stroke-width: 1.5; stroke-linecap: square"/>
   </g>
   <g id="line2d_59">
    <path d="M 73.832727 88.058381 
L 74.149773 53.569923 
L 74.783864 68.366245 
L 75.100909 71.957934 
L 76.369091 102.584931 
L 77.320227 124.743646 
L 77.954318 132.442853 
L 78.588409 141.878479 
L 78.905455 141.79853 
L 79.2225 145.049459 
L 79.856591 152.976441 
L 80.490682 159.243509 
L 80.807727 163.929607 
L 81.124773 164.556156 
L 81.441818 164.012917 
L 81.758864 167.409171 
L 82.075909 167.499208 
L 82.392955 169.184113 
L 82.71 173.88144 
L 83.027045 175.030576 
L 83.344091 175.623541 
L 83.661136 178.07087 
L 83.978182 173.048374 
L 84.295227 170.474866 
L 84.612273 182.230131 
L 85.246364 188.698807 
L 85.880455 193.836189 
L 86.1975 192.918 
L 86.514545 193.323312 
L 86.831591 196.783521 
L 87.148636 197.114164 
L 87.465682 195.585381 
L 88.099773 202.254675 
L 88.733864 200.605309 
L 89.050909 199.147099 
L 89.367955 191.166993 
L 90.002045 205.061246 
L 90.319091 205.085498 
L 90.636136 207.573829 
L 90.953182 208.210773 
L 91.270227 208.526907 
L 91.587273 209.269017 
L 92.221364 208.779236 
L 92.538409 208.008423 
L 92.855455 208.517513 
L 93.1725 208.509776 
L 93.806591 210.192012 
L 94.123636 207.734216 
L 94.440682 193.824319 
L 94.757727 195.042689 
L 95.074773 206.706119 
L 95.391818 210.321959 
L 95.708864 210.917483 
L 96.025909 209.650018 
L 96.342955 210.373493 
L 96.66 208.763768 
L 96.977045 208.246308 
L 97.294091 209.931745 
L 97.611136 208.813589 
L 97.928182 209.375758 
L 98.245227 207.334808 
L 98.562273 206.971273 
L 98.879318 207.792271 
L 99.196364 203.734996 
L 99.513409 183.731714 
L 99.830455 175.293029 
L 100.464545 202.843428 
L 100.781591 203.864043 
L 101.098636 205.3147 
L 101.415682 205.01433 
L 101.732727 203.819744 
L 102.049773 204.331499 
L 102.366818 206.612273 
L 103.000909 204.49394 
L 103.317955 203.4325 
L 103.635 203.04469 
L 103.952045 201.444581 
L 104.269091 200.473839 
L 104.903182 177.436598 
L 105.220227 184.994331 
L 105.537273 195.291784 
L 105.854318 198.293597 
L 106.171364 198.654092 
L 106.488409 199.374685 
L 106.805455 202.21613 
L 107.1225 201.596094 
L 107.439545 198.884909 
L 108.073636 197.718447 
L 108.390682 197.970563 
L 108.707727 199.066441 
L 109.341818 196.260157 
L 109.658864 190.976176 
L 109.975909 180.108853 
L 110.292955 181.178849 
L 110.61 192.332844 
L 111.244091 199.194661 
L 111.561136 200.856193 
L 111.878182 197.28287 
L 112.195227 198.243251 
L 112.512273 200.549752 
L 112.829318 197.887171 
L 113.146364 196.970939 
L 113.463409 200.383152 
L 113.780455 202.419594 
L 114.0975 202.752075 
L 114.414545 201.136332 
L 114.731591 196.292316 
L 115.048636 182.899713 
L 115.365682 177.680055 
L 115.999773 197.128904 
L 116.633864 202.458926 
L 116.950909 200.602029 
L 117.267955 199.821875 
L 117.585 200.515279 
L 118.219091 198.118822 
L 118.536136 200.538865 
L 118.853182 200.321808 
L 119.170227 199.303193 
L 119.487273 198.677663 
L 119.804318 194.381605 
L 120.438409 176.141844 
L 120.755455 182.592059 
L 121.0725 194.844055 
L 121.389545 200.316591 
L 122.023636 202.556349 
L 122.340682 202.237343 
L 122.657727 202.469967 
L 122.974773 199.288124 
L 123.291818 199.19396 
L 123.608864 198.065237 
L 123.925909 198.956832 
L 124.242955 198.46427 
L 124.56 198.45946 
L 125.194091 193.883717 
L 125.511136 184.302385 
L 125.828182 183.76526 
L 126.462273 196.897996 
L 126.779318 200.402744 
L 127.096364 201.221477 
L 127.413409 196.900699 
L 127.730455 196.388666 
L 128.0475 198.84628 
L 128.364545 199.641785 
L 128.681591 196.51706 
L 128.998636 197.174311 
L 129.315682 201.628134 
L 129.632727 201.450193 
L 129.949773 199.435519 
L 130.583864 187.291828 
L 130.900909 187.728106 
L 131.535 194.960129 
L 131.852045 197.136564 
L 132.169091 196.292412 
L 132.486136 196.249915 
L 132.803182 197.070291 
L 133.120227 196.679095 
L 133.437273 198.174162 
L 134.071364 194.043231 
L 134.388409 194.909615 
L 134.705455 194.99108 
L 135.339545 191.967168 
L 135.973636 185.141963 
L 136.290682 186.312508 
L 136.607727 189.088656 
L 136.924773 194.58547 
L 137.241818 195.630782 
L 137.558864 195.696137 
L 137.875909 195.390987 
L 138.192955 194.723853 
L 138.827045 190.497295 
L 139.144091 192.166413 
L 139.461136 195.267971 
L 139.778182 192.996104 
L 140.095227 188.841016 
L 140.412273 191.381132 
L 140.729318 189.599426 
L 141.046364 186.193889 
L 141.363409 185.933244 
L 141.680455 187.454554 
L 141.9975 187.808471 
L 142.314545 190.017641 
L 142.631591 190.913937 
L 142.948636 190.868441 
L 143.265682 185.893039 
L 143.582727 186.530329 
L 143.899773 188.287571 
L 144.216818 192.546763 
L 144.533864 193.389162 
L 145.167955 188.243904 
L 145.485 183.618449 
L 145.802045 183.637491 
L 146.119091 185.608203 
L 146.436136 186.454323 
L 146.753182 188.032801 
L 147.070227 190.557558 
L 147.387273 191.61155 
L 147.704318 190.586161 
L 148.021364 190.428382 
L 148.338409 186.445333 
L 148.655455 185.024398 
L 148.9725 184.75434 
L 149.289545 186.128127 
L 149.606591 185.509464 
L 149.923636 186.861472 
L 150.557727 186.826918 
L 150.874773 183.46918 
L 151.191818 183.322234 
L 151.508864 185.260976 
L 151.825909 183.17971 
L 152.142955 184.315785 
L 152.46 186.401787 
L 152.777045 186.587618 
L 153.094091 187.035318 
L 153.411136 187.044246 
L 153.728182 186.258096 
L 154.045227 185.831804 
L 154.362273 186.50062 
L 154.679318 184.79173 
L 154.996364 186.824842 
L 155.313409 185.176168 
L 155.630455 184.903426 
L 155.9475 185.741584 
L 156.264545 185.616043 
L 156.581591 183.943465 
L 156.898636 181.575584 
L 157.215682 183.473922 
L 157.532727 184.522085 
L 158.166818 187.926344 
L 159.435 182.228827 
L 159.752045 182.373316 
L 160.069091 180.084876 
L 160.386136 184.396281 
L 160.703182 185.122631 
L 161.020227 184.916509 
L 161.654318 182.007446 
L 161.971364 182.332779 
L 162.288409 182.976813 
L 162.605455 183.22159 
L 162.9225 182.394513 
L 163.873636 186.749366 
L 164.190682 184.923325 
L 164.507727 185.853913 
L 164.824773 186.153077 
L 165.141818 184.08398 
L 165.458864 185.653727 
L 165.775909 185.151756 
L 166.092955 185.82031 
L 166.41 187.839506 
L 166.727045 184.404206 
L 167.044091 186.230253 
L 167.361136 187.137357 
L 167.678182 179.91139 
L 167.995227 179.984187 
L 168.312273 183.441624 
L 168.629318 183.612369 
L 168.946364 182.835774 
L 169.263409 182.899754 
L 169.580455 184.28579 
L 169.8975 182.702084 
L 170.214545 184.143623 
L 170.531591 182.239038 
L 170.848636 182.304316 
L 171.165682 186.786388 
L 172.116818 181.05103 
L 172.433864 179.596177 
L 172.750909 181.966034 
L 173.067955 183.338648 
L 173.385 184.022627 
L 173.702045 181.019545 
L 174.019091 180.134145 
L 174.336136 179.697725 
L 174.653182 180.175575 
L 174.970227 182.042733 
L 175.287273 181.780743 
L 175.604318 177.713243 
L 175.921364 177.87502 
L 176.238409 179.231642 
L 176.555455 181.387328 
L 176.8725 180.041619 
L 177.189545 179.475473 
L 177.506591 176.006829 
L 177.823636 174.761428 
L 178.140682 177.349918 
L 178.457727 182.50246 
L 178.774773 181.82214 
L 179.091818 181.552198 
L 179.408864 179.325251 
L 179.725909 178.3289 
L 180.042955 178.974162 
L 180.36 178.663461 
L 180.677045 179.209888 
L 180.994091 182.838735 
L 181.311136 184.766629 
L 181.628182 179.522152 
L 181.945227 179.890753 
L 182.579318 181.687637 
L 182.896364 181.223598 
L 183.213409 182.282814 
L 183.8475 180.035332 
L 184.164545 181.683292 
L 184.798636 178.095923 
L 185.432727 179.69153 
L 185.749773 179.09952 
L 186.066818 179.595989 
L 186.383864 181.784544 
L 186.700909 180.987718 
L 187.017955 178.496265 
L 187.335 178.834869 
L 187.969091 181.203493 
L 188.286136 178.854379 
L 188.603182 180.037419 
L 188.920227 178.369894 
L 189.237273 178.255577 
L 189.554318 178.645393 
L 189.871364 176.403845 
L 190.188409 176.759157 
L 190.505455 180.213831 
L 190.8225 181.294309 
L 191.139545 180.707239 
L 191.773636 177.423787 
L 192.407727 172.240965 
L 192.724773 175.54692 
L 193.041818 176.300808 
L 193.675909 180.351234 
L 193.992955 179.369768 
L 194.31 180.265868 
L 194.944091 178.065246 
L 195.578182 172.443319 
L 195.895227 176.939903 
L 196.212273 177.8338 
L 196.529318 177.236074 
L 197.163409 178.620801 
L 197.7975 176.783505 
L 198.431591 181.91561 
L 198.748636 177.786162 
L 199.065682 175.60846 
L 199.382727 176.864765 
L 199.699773 175.1858 
L 200.016818 176.287722 
L 200.333864 180.078541 
L 200.650909 176.514417 
L 200.967955 176.648191 
L 201.602045 179.134856 
L 201.919091 179.894605 
L 202.236136 179.456028 
L 202.553182 180.1893 
L 202.870227 175.809082 
L 203.187273 174.928724 
L 203.504318 175.292645 
L 203.821364 174.417901 
L 204.138409 175.572027 
L 204.455455 175.625192 
L 204.7725 178.434781 
L 205.089545 178.438616 
L 205.406591 177.781078 
L 205.723636 175.736702 
L 206.357727 177.821418 
L 206.674773 176.716757 
L 206.991818 175.102774 
L 207.308864 174.120567 
L 207.625909 177.476221 
L 207.942955 177.62935 
L 208.26 175.101565 
L 208.577045 177.570711 
L 208.894091 177.69717 
L 209.528182 174.100153 
L 209.845227 173.982422 
L 210.162273 175.812609 
L 210.479318 175.464252 
L 210.796364 176.176925 
L 211.113409 176.436749 
L 211.430455 174.883484 
L 211.7475 171.706625 
L 212.381591 177.581071 
L 212.698636 175.640286 
L 213.332727 179.539968 
L 213.649773 178.752374 
L 214.283864 173.965345 
L 214.600909 173.165039 
L 215.552045 178.544426 
L 215.869091 174.93312 
L 216.186136 173.386187 
L 216.820227 178.820161 
L 217.137273 178.506194 
L 217.454318 175.891321 
L 217.771364 175.796349 
L 218.088409 177.060545 
L 218.405455 176.72357 
L 219.039545 172.971598 
L 219.356591 176.127491 
L 219.673636 177.927593 
L 219.990682 177.851627 
L 220.307727 177.417811 
L 220.624773 178.737319 
L 220.941818 179.405388 
L 221.258864 174.815154 
L 221.575909 174.003344 
L 221.892955 172.230133 
L 222.527045 172.346242 
L 222.844091 173.024253 
L 223.478182 176.637458 
L 224.112273 174.489267 
L 224.429318 175.890229 
L 225.063409 179.843897 
L 225.380455 178.567903 
L 225.6975 175.252996 
L 226.014545 175.297681 
L 226.331591 175.511705 
L 226.965682 174.444861 
L 227.599773 168.288658 
L 228.233864 177.870746 
L 229.185 163.388313 
L 229.502045 114.510279 
L 229.819091 109.628723 
L 230.136136 153.560851 
L 230.453182 170.374686 
L 231.087273 175.140011 
L 231.404318 174.084307 
L 231.721364 174.82891 
L 232.038409 172.706702 
L 232.6725 176.865995 
L 233.306591 171.880492 
L 233.623636 174.099172 
L 234.257727 174.852432 
L 234.574773 174.336705 
L 235.208864 171.309029 
L 235.525909 171.355805 
L 235.842955 176.028383 
L 236.16 174.299297 
L 236.794091 173.63531 
L 237.111136 175.803624 
L 237.745227 171.358281 
L 238.062273 174.591475 
L 238.379318 176.024817 
L 239.013409 171.984577 
L 239.330455 173.750029 
L 239.6475 173.539153 
L 239.964545 174.120069 
L 240.598636 169.506862 
L 240.915682 170.432556 
L 241.549773 176.913753 
L 241.866818 172.957111 
L 242.183864 171.650067 
L 242.500909 173.16024 
L 242.817955 173.447783 
L 243.135 175.090247 
L 243.452045 173.735198 
L 243.769091 175.78569 
L 244.086136 174.064884 
L 244.403182 171.050943 
L 244.720227 176.179741 
L 245.037273 174.365318 
L 245.354318 171.188556 
L 245.671364 170.998468 
L 246.305455 174.532332 
L 246.6225 173.559719 
L 246.939545 176.988952 
L 247.256591 174.045111 
L 247.573636 174.33774 
L 247.890682 177.046718 
L 248.207727 176.353849 
L 248.524773 174.036618 
L 248.841818 174.198205 
L 249.158864 171.665851 
L 249.475909 173.935035 
L 249.792955 175.137253 
L 250.11 172.203204 
L 250.427045 170.797212 
L 250.744091 171.891012 
L 251.061136 172.26107 
L 251.378182 172.269709 
L 252.012273 171.705512 
L 252.329318 172.755675 
L 252.646364 174.837295 
L 253.280455 170.565043 
L 253.5975 168.415598 
L 253.914545 169.064485 
L 254.548636 171.754098 
L 254.865682 170.268671 
L 255.499773 175.040586 
L 255.816818 176.584729 
L 256.133864 175.976666 
L 256.450909 174.993398 
L 256.767955 175.817353 
L 257.085 177.192272 
L 257.719091 173.309977 
L 258.036136 173.361525 
L 258.670227 176.243753 
L 258.987273 174.236085 
L 259.304318 174.088479 
L 259.621364 172.516066 
L 259.938409 174.876389 
L 260.5725 169.933708 
L 260.889545 172.295598 
L 261.523636 170.361053 
L 261.840682 169.801262 
L 262.474773 176.190757 
L 263.108864 170.959367 
L 263.425909 169.532092 
L 263.742955 171.381728 
L 264.06 172.489589 
L 264.377045 172.84164 
L 264.694091 175.500408 
L 265.011136 175.375379 
L 265.328182 173.688826 
L 265.645227 172.843829 
L 265.962273 174.537219 
L 266.279318 178.02651 
L 266.596364 175.893282 
L 266.913409 171.073127 
L 267.230455 172.603862 
L 267.5475 171.143982 
L 267.864545 171.451635 
L 268.181591 171.948707 
L 268.498636 172.775319 
L 268.815682 171.08446 
L 269.132727 170.360265 
L 269.449773 171.764172 
L 269.766818 176.452787 
L 270.083864 173.014498 
L 270.400909 171.412823 
L 270.717955 173.995668 
L 271.035 174.107738 
L 271.352045 174.911523 
L 271.669091 170.281271 
L 271.986136 170.399119 
L 272.303182 171.600756 
L 272.620227 171.095777 
L 272.937273 173.421886 
L 273.254318 172.094769 
L 273.571364 173.104015 
L 273.888409 173.012914 
L 274.205455 172.197478 
L 274.5225 175.543308 
L 274.839545 174.770491 
L 275.156591 174.470671 
L 275.473636 176.196168 
L 275.790682 173.003308 
L 276.424773 170.195388 
L 276.741818 171.142037 
L 277.058864 173.865622 
L 277.375909 172.698338 
L 277.692955 173.698788 
L 278.01 178.765627 
L 278.327045 178.238129 
L 278.644091 172.267611 
L 278.961136 171.00871 
L 279.278182 169.012007 
L 280.229318 174.809636 
L 280.546364 175.443496 
L 280.863409 171.579606 
L 281.4975 173.568767 
L 281.814545 173.591441 
L 282.131591 175.82069 
L 282.448636 175.248859 
L 282.765682 171.634943 
L 283.082727 169.696081 
L 283.399773 170.985677 
L 283.716818 171.739958 
L 284.033864 173.107784 
L 284.350909 172.700701 
L 284.985 167.095508 
L 285.302045 170.965232 
L 285.936136 173.836993 
L 286.253182 174.901427 
L 286.570227 174.961937 
L 287.204318 170.196396 
L 287.521364 170.470514 
L 287.838409 167.588958 
L 288.155455 168.64494 
L 288.4725 171.232443 
L 288.789545 171.546852 
L 289.106591 171.510599 
L 289.740682 169.323285 
L 290.057727 169.329477 
L 290.374773 169.195912 
L 290.691818 169.773171 
L 291.008864 171.059303 
L 291.325909 169.209225 
L 291.96 172.82598 
L 292.277045 172.647698 
L 292.594091 171.389927 
L 292.911136 171.590461 
L 293.228182 174.565298 
L 293.545227 172.992565 
L 293.862273 168.573912 
L 294.179318 166.599427 
L 294.813409 173.592015 
L 295.4475 175.946037 
L 295.764545 175.126981 
L 296.081591 169.347244 
L 296.715682 174.847996 
L 297.349773 173.719849 
L 297.666818 171.719268 
L 297.983864 172.882267 
L 298.300909 172.299198 
L 298.617955 170.729326 
L 298.935 171.671029 
L 299.252045 174.705632 
L 299.569091 175.103889 
L 299.886136 170.802589 
L 300.520227 173.339888 
L 300.837273 173.046108 
L 301.154318 174.096415 
L 301.471364 172.987216 
L 301.788409 172.73724 
L 302.739545 169.81502 
L 303.056591 172.583744 
L 303.373636 178.056665 
L 304.007727 170.092578 
L 304.641818 171.789925 
L 304.958864 172.294551 
L 305.275909 173.55534 
L 305.592955 171.684532 
L 305.91 170.780183 
L 306.544091 172.480734 
L 306.861136 171.884005 
L 307.178182 170.611061 
L 307.495227 170.760335 
L 307.812273 169.990076 
L 308.129318 170.768384 
L 308.446364 171.003832 
L 308.763409 173.152537 
L 309.080455 173.017623 
L 309.3975 172.326588 
L 309.714545 171.105017 
L 310.031591 172.0647 
L 310.348636 174.067664 
L 310.665682 172.192264 
L 311.299773 170.008367 
L 311.616818 169.740025 
L 311.933864 172.216723 
L 312.250909 170.834388 
L 312.567955 171.434424 
L 312.885 168.708345 
L 313.202045 170.135102 
L 313.519091 172.48314 
L 313.836136 172.263337 
L 314.153182 171.028545 
L 314.470227 172.583513 
L 314.787273 170.419589 
L 315.104318 170.460919 
L 315.421364 172.374467 
L 315.738409 171.800694 
L 316.055455 173.86663 
L 316.3725 172.013811 
L 316.689545 172.051386 
L 317.006591 170.482383 
L 317.323636 167.966064 
L 317.640682 168.77327 
L 317.957727 173.938472 
L 318.274773 171.006351 
L 318.591818 171.100951 
L 318.908864 173.240277 
L 319.225909 172.419005 
L 319.542955 174.326381 
L 319.86 173.42858 
L 320.177045 170.512051 
L 320.494091 172.402882 
L 320.811136 171.521489 
L 321.128182 169.239027 
L 321.445227 169.411247 
L 322.079318 171.337591 
L 322.396364 171.781163 
L 322.713409 170.133691 
L 323.030455 170.519113 
L 323.3475 171.243321 
L 323.981591 173.815744 
L 324.298636 172.210576 
L 324.615682 171.661525 
L 324.932727 169.956898 
L 325.249773 170.556793 
L 325.566818 172.356939 
L 325.883864 170.927909 
L 326.200909 170.396754 
L 326.517955 168.598829 
L 326.835 171.395313 
L 327.152045 172.65636 
L 327.469091 171.104617 
L 327.786136 172.293124 
L 328.103182 171.745165 
L 328.420227 171.555628 
L 328.737273 172.628621 
L 329.054318 172.878844 
L 330.005455 176.88846 
L 330.639545 172.093796 
L 330.956591 169.841746 
L 331.590682 170.131763 
L 331.907727 169.93937 
L 332.224773 172.079176 
L 332.541818 168.444274 
L 332.858864 167.141528 
L 333.175909 169.981924 
L 333.492955 168.920702 
L 333.81 165.665499 
L 334.444091 172.677298 
L 334.761136 172.546656 
L 335.078182 173.732584 
L 335.395227 170.890169 
L 335.712273 170.64891 
L 336.029318 173.442289 
L 336.346364 169.883938 
L 336.663409 169.99263 
L 336.980455 173.038169 
L 337.2975 169.760603 
L 337.614545 172.195634 
L 337.931591 177.906191 
L 338.248636 175.643497 
L 338.565682 171.551668 
L 338.882727 172.790986 
L 339.199773 171.699963 
L 339.516818 171.021237 
L 339.833864 172.13608 
L 340.150909 172.21801 
L 340.467955 174.311426 
L 341.102045 172.118627 
L 341.419091 173.56942 
L 341.736136 173.769103 
L 342.053182 172.840798 
L 342.370227 173.039433 
L 342.687273 171.813483 
L 343.004318 174.257211 
L 343.321364 174.493817 
L 343.638409 173.815232 
L 343.955455 175.422451 
L 344.2725 174.372134 
L 344.589545 177.695445 
L 344.906591 176.814702 
L 345.223636 177.386282 
L 345.540682 177.160698 
L 345.857727 177.138716 
L 346.174773 173.131985 
L 346.491818 173.323013 
L 346.808864 176.865469 
L 347.125909 176.688231 
L 347.442955 174.975174 
L 347.76 175.166555 
L 348.394091 178.314214 
L 348.711136 181.325531 
L 349.028182 181.219473 
L 349.345227 177.62676 
L 349.662273 177.699662 
L 349.979318 177.023068 
L 350.296364 180.037594 
L 350.613409 181.784256 
L 350.930455 179.977079 
L 351.2475 179.303381 
L 351.564545 180.426387 
L 351.881591 179.839512 
L 352.198636 178.174243 
L 352.515682 177.481046 
L 352.832727 181.379578 
L 353.149773 182.739416 
L 353.466818 183.016906 
L 353.783864 181.215546 
L 354.100909 181.861189 
L 354.417955 185.081184 
L 354.735 184.979212 
L 355.052045 187.843848 
L 355.686136 183.570529 
L 356.320227 183.792382 
L 356.637273 184.474799 
L 356.954318 183.51653 
L 357.271364 183.153995 
L 357.588409 189.298724 
L 358.2225 189.472543 
L 358.539545 191.823999 
L 358.856591 191.084585 
L 359.173636 191.474743 
L 359.490682 190.320717 
L 359.807727 189.675055 
L 360.124773 186.971928 
L 360.441818 189.223651 
L 360.758864 190.026956 
L 361.075909 188.483845 
L 361.392955 188.797269 
L 361.71 192.48917 
L 362.027045 190.844994 
L 362.661136 196.941031 
L 362.978182 193.2195 
L 363.295227 191.05667 
L 363.612273 191.487925 
L 363.929318 190.288809 
L 364.246364 193.53946 
L 364.563409 194.527696 
L 364.880455 191.053027 
L 365.1975 191.733469 
L 366.148636 198.42023 
L 366.465682 197.595199 
L 366.782727 197.096926 
L 367.099773 199.675985 
L 367.416818 198.074882 
L 367.733864 198.062601 
L 368.050909 199.892628 
L 368.367955 200.801236 
L 368.685 202.359738 
L 369.002045 202.293362 
L 369.636136 198.878469 
L 369.953182 198.527353 
L 370.270227 199.024537 
L 370.587273 198.729968 
L 370.904318 202.2308 
L 371.221364 204.222223 
L 371.538409 205.082222 
L 371.855455 206.821146 
L 372.1725 204.68214 
L 372.489545 206.272501 
L 372.806591 204.857483 
L 373.123636 205.07492 
L 373.440682 205.087857 
L 373.757727 205.433745 
L 374.074773 209.255402 
L 374.391818 207.837962 
L 374.708864 209.141017 
L 375.025909 208.198651 
L 375.342955 210.753381 
L 375.977045 212.546424 
L 376.294091 210.820766 
L 376.611136 213.876716 
L 376.928182 213.575868 
L 377.245227 212.264618 
L 377.879318 215.719068 
L 378.196364 216.465025 
L 378.513409 217.703227 
L 378.830455 216.983147 
L 379.1475 216.978492 
L 379.464545 216.801565 
L 379.781591 216.843125 
L 380.098636 218.690734 
L 380.732727 215.199128 
L 381.049773 214.567911 
L 382.000909 217.278673 
L 382.317955 220.38476 
L 382.635 220.965301 
L 382.952045 220.967338 
L 383.269091 220.554286 
L 383.586136 220.707771 
L 383.903182 222.33126 
L 384.220227 220.678279 
L 384.537273 220.716213 
L 384.854318 222.312535 
L 385.171364 221.607333 
L 385.488409 222.743333 
L 385.805455 222.473523 
L 386.1225 220.104299 
L 386.756591 222.411362 
L 387.073636 222.615954 
L 387.390682 221.373462 
L 387.707727 222.853604 
L 388.024773 225.097114 
L 388.341818 225.460817 
L 388.658864 227.705006 
L 388.975909 226.558248 
L 389.292955 228.686289 
L 389.927045 228.743584 
L 390.244091 227.794149 
L 390.561136 228.000232 
L 390.878182 228.43606 
L 391.195227 228.166596 
L 391.512273 229.743145 
L 391.829318 230.470754 
L 392.146364 230.549306 
L 392.780455 234.804139 
L 393.0975 233.885398 
L 393.414545 233.392688 
L 393.731591 230.635886 
L 394.048636 230.439136 
L 394.365682 231.068486 
L 394.682727 232.372251 
L 394.999773 232.260525 
L 395.316818 229.417122 
L 395.950909 234.692874 
L 396.585 231.851819 
L 396.902045 232.520062 
L 397.219091 230.943081 
L 397.536136 231.069605 
L 397.853182 235.189138 
L 398.170227 248.31812 
L 398.487273 295.488 
L 398.487273 295.488 
" clip-path="url(#pa01b4b76af)" style="fill: none; stroke: #ffa500; stroke-width: 1.5; stroke-linecap: square"/>
   </g>
   <g id="patch_3">
    <path d="M 57.6 307.584 
L 57.6 41.472 
" style="fill: none; stroke: #000000; stroke-width: 0.8; stroke-linejoin: miter; stroke-linecap: square"/>
   </g>
   <g id="patch_4">
    <path d="M 414.72 307.584 
L 414.72 41.472 
" style="fill: none; stroke: #000000; stroke-width: 0.8; stroke-linejoin: miter; stroke-linecap: square"/>
   </g>
   <g id="patch_5">
    <path d="M 57.6 307.584 
L 414.72 307.584 
" style="fill: none; stroke: #000000; stroke-width: 0.8; stroke-linejoin: miter; stroke-linecap: square"/>
   </g>
   <g id="patch_6">
    <path d="M 57.6 41.472 
L 414.72 41.472 
" style="fill: none; stroke: #000000; stroke-width: 0.8; stroke-linejoin: miter; stroke-linecap: square"/>
   </g>
   <g id="text_16">
    <!-- Power Spektrum des EEG Signals von Kanal T4-A2 -->
    <g transform="translate(85.898438 35.472) scale(0.12 -0.12)">
     <defs>
      <path id="DejaVuSans-50" d="M 1259 4147 
L 1259 2394 
L 2053 2394 
Q 2494 2394 2734 2622 
Q 2975 2850 2975 3272 
Q 2975 3691 2734 3919 
Q 2494 4147 2053 4147 
L 1259 4147 
z
M 628 4666 
L 2053 4666 
Q 2838 4666 3239 4311 
Q 3641 3956 3641 3272 
Q 3641 2581 3239 2228 
Q 2838 1875 2053 1875 
L 1259 1875 
L 1259 0 
L 628 0 
L 628 4666 
z
" transform="scale(0.015625)"/>
      <path id="DejaVuSans-6f" d="M 1959 3097 
Q 1497 3097 1228 2736 
Q 959 2375 959 1747 
Q 959 1119 1226 758 
Q 1494 397 1959 397 
Q 2419 397 2687 759 
Q 2956 1122 2956 1747 
Q 2956 2369 2687 2733 
Q 2419 3097 1959 3097 
z
M 1959 3584 
Q 2709 3584 3137 3096 
Q 3566 2609 3566 1747 
Q 3566 888 3137 398 
Q 2709 -91 1959 -91 
Q 1206 -91 779 398 
Q 353 888 353 1747 
Q 353 2609 779 3096 
Q 1206 3584 1959 3584 
z
" transform="scale(0.015625)"/>
      <path id="DejaVuSans-77" d="M 269 3500 
L 844 3500 
L 1563 769 
L 2278 3500 
L 2956 3500 
L 3675 769 
L 4391 3500 
L 4966 3500 
L 4050 0 
L 3372 0 
L 2619 2869 
L 1863 0 
L 1184 0 
L 269 3500 
z
" transform="scale(0.015625)"/>
      <path id="DejaVuSans-53" d="M 3425 4513 
L 3425 3897 
Q 3066 4069 2747 4153 
Q 2428 4238 2131 4238 
Q 1616 4238 1336 4038 
Q 1056 3838 1056 3469 
Q 1056 3159 1242 3001 
Q 1428 2844 1947 2747 
L 2328 2669 
Q 3034 2534 3370 2195 
Q 3706 1856 3706 1288 
Q 3706 609 3251 259 
Q 2797 -91 1919 -91 
Q 1588 -91 1214 -16 
Q 841 59 441 206 
L 441 856 
Q 825 641 1194 531 
Q 1563 422 1919 422 
Q 2459 422 2753 634 
Q 3047 847 3047 1241 
Q 3047 1584 2836 1778 
Q 2625 1972 2144 2069 
L 1759 2144 
Q 1053 2284 737 2584 
Q 422 2884 422 3419 
Q 422 4038 858 4394 
Q 1294 4750 2059 4750 
Q 2388 4750 2728 4690 
Q 3069 4631 3425 4513 
z
" transform="scale(0.015625)"/>
      <path id="DejaVuSans-70" d="M 1159 525 
L 1159 -1331 
L 581 -1331 
L 581 3500 
L 1159 3500 
L 1159 2969 
Q 1341 3281 1617 3432 
Q 1894 3584 2278 3584 
Q 2916 3584 3314 3078 
Q 3713 2572 3713 1747 
Q 3713 922 3314 415 
Q 2916 -91 2278 -91 
Q 1894 -91 1617 61 
Q 1341 213 1159 525 
z
M 3116 1747 
Q 3116 2381 2855 2742 
Q 2594 3103 2138 3103 
Q 1681 3103 1420 2742 
Q 1159 2381 1159 1747 
Q 1159 1113 1420 752 
Q 1681 391 2138 391 
Q 2594 391 2855 752 
Q 3116 1113 3116 1747 
z
" transform="scale(0.015625)"/>
      <path id="DejaVuSans-6b" d="M 581 4863 
L 1159 4863 
L 1159 1991 
L 2875 3500 
L 3609 3500 
L 1753 1863 
L 3688 0 
L 2938 0 
L 1159 1709 
L 1159 0 
L 581 0 
L 581 4863 
z
" transform="scale(0.015625)"/>
      <path id="DejaVuSans-6d" d="M 3328 2828 
Q 3544 3216 3844 3400 
Q 4144 3584 4550 3584 
Q 5097 3584 5394 3201 
Q 5691 2819 5691 2113 
L 5691 0 
L 5113 0 
L 5113 2094 
Q 5113 2597 4934 2840 
Q 4756 3084 4391 3084 
Q 3944 3084 3684 2787 
Q 3425 2491 3425 1978 
L 3425 0 
L 2847 0 
L 2847 2094 
Q 2847 2600 2669 2842 
Q 2491 3084 2119 3084 
Q 1678 3084 1418 2786 
Q 1159 2488 1159 1978 
L 1159 0 
L 581 0 
L 581 3500 
L 1159 3500 
L 1159 2956 
Q 1356 3278 1631 3431 
Q 1906 3584 2284 3584 
Q 2666 3584 2933 3390 
Q 3200 3197 3328 2828 
z
" transform="scale(0.015625)"/>
      <path id="DejaVuSans-64" d="M 2906 2969 
L 2906 4863 
L 3481 4863 
L 3481 0 
L 2906 0 
L 2906 525 
Q 2725 213 2448 61 
Q 2172 -91 1784 -91 
Q 1150 -91 751 415 
Q 353 922 353 1747 
Q 353 2572 751 3078 
Q 1150 3584 1784 3584 
Q 2172 3584 2448 3432 
Q 2725 3281 2906 2969 
z
M 947 1747 
Q 947 1113 1208 752 
Q 1469 391 1925 391 
Q 2381 391 2643 752 
Q 2906 1113 2906 1747 
Q 2906 2381 2643 2742 
Q 2381 3103 1925 3103 
Q 1469 3103 1208 2742 
Q 947 2381 947 1747 
z
" transform="scale(0.015625)"/>
      <path id="DejaVuSans-45" d="M 628 4666 
L 3578 4666 
L 3578 4134 
L 1259 4134 
L 1259 2753 
L 3481 2753 
L 3481 2222 
L 1259 2222 
L 1259 531 
L 3634 531 
L 3634 0 
L 628 0 
L 628 4666 
z
" transform="scale(0.015625)"/>
      <path id="DejaVuSans-47" d="M 3809 666 
L 3809 1919 
L 2778 1919 
L 2778 2438 
L 4434 2438 
L 4434 434 
Q 4069 175 3628 42 
Q 3188 -91 2688 -91 
Q 1594 -91 976 548 
Q 359 1188 359 2328 
Q 359 3472 976 4111 
Q 1594 4750 2688 4750 
Q 3144 4750 3555 4637 
Q 3966 4525 4313 4306 
L 4313 3634 
Q 3963 3931 3569 4081 
Q 3175 4231 2741 4231 
Q 1884 4231 1454 3753 
Q 1025 3275 1025 2328 
Q 1025 1384 1454 906 
Q 1884 428 2741 428 
Q 3075 428 3337 486 
Q 3600 544 3809 666 
z
" transform="scale(0.015625)"/>
      <path id="DejaVuSans-61" d="M 2194 1759 
Q 1497 1759 1228 1600 
Q 959 1441 959 1056 
Q 959 750 1161 570 
Q 1363 391 1709 391 
Q 2188 391 2477 730 
Q 2766 1069 2766 1631 
L 2766 1759 
L 2194 1759 
z
M 3341 1997 
L 3341 0 
L 2766 0 
L 2766 531 
Q 2569 213 2275 61 
Q 1981 -91 1556 -91 
Q 1019 -91 701 211 
Q 384 513 384 1019 
Q 384 1609 779 1909 
Q 1175 2209 1959 2209 
L 2766 2209 
L 2766 2266 
Q 2766 2663 2505 2880 
Q 2244 3097 1772 3097 
Q 1472 3097 1187 3025 
Q 903 2953 641 2809 
L 641 3341 
Q 956 3463 1253 3523 
Q 1550 3584 1831 3584 
Q 2591 3584 2966 3190 
Q 3341 2797 3341 1997 
z
" transform="scale(0.015625)"/>
      <path id="DejaVuSans-6c" d="M 603 4863 
L 1178 4863 
L 1178 0 
L 603 0 
L 603 4863 
z
" transform="scale(0.015625)"/>
      <path id="DejaVuSans-76" d="M 191 3500 
L 800 3500 
L 1894 563 
L 2988 3500 
L 3597 3500 
L 2284 0 
L 1503 0 
L 191 3500 
z
" transform="scale(0.015625)"/>
      <path id="DejaVuSans-4b" d="M 628 4666 
L 1259 4666 
L 1259 2694 
L 3353 4666 
L 4166 4666 
L 1850 2491 
L 4331 0 
L 3500 0 
L 1259 2247 
L 1259 0 
L 628 0 
L 628 4666 
z
" transform="scale(0.015625)"/>
      <path id="DejaVuSans-54" d="M -19 4666 
L 3928 4666 
L 3928 4134 
L 2272 4134 
L 2272 0 
L 1638 0 
L 1638 4134 
L -19 4134 
L -19 4666 
z
" transform="scale(0.015625)"/>
      <path id="DejaVuSans-2d" d="M 313 2009 
L 1997 2009 
L 1997 1497 
L 313 1497 
L 313 2009 
z
" transform="scale(0.015625)"/>
      <path id="DejaVuSans-41" d="M 2188 4044 
L 1331 1722 
L 3047 1722 
L 2188 4044 
z
M 1831 4666 
L 2547 4666 
L 4325 0 
L 3669 0 
L 3244 1197 
L 1141 1197 
L 716 0 
L 50 0 
L 1831 4666 
z
" transform="scale(0.015625)"/>
     </defs>
     <use xlink:href="#DejaVuSans-50"/>
     <use xlink:href="#DejaVuSans-6f" transform="translate(56.677734 0)"/>
     <use xlink:href="#DejaVuSans-77" transform="translate(117.859375 0)"/>
     <use xlink:href="#DejaVuSans-65" transform="translate(199.646484 0)"/>
     <use xlink:href="#DejaVuSans-72" transform="translate(261.169922 0)"/>
     <use xlink:href="#DejaVuSans-20" transform="translate(302.283203 0)"/>
     <use xlink:href="#DejaVuSans-53" transform="translate(334.070312 0)"/>
     <use xlink:href="#DejaVuSans-70" transform="translate(397.546875 0)"/>
     <use xlink:href="#DejaVuSans-65" transform="translate(461.023438 0)"/>
     <use xlink:href="#DejaVuSans-6b" transform="translate(522.546875 0)"/>
     <use xlink:href="#DejaVuSans-74" transform="translate(580.457031 0)"/>
     <use xlink:href="#DejaVuSans-72" transform="translate(619.666016 0)"/>
     <use xlink:href="#DejaVuSans-75" transform="translate(660.779297 0)"/>
     <use xlink:href="#DejaVuSans-6d" transform="translate(724.158203 0)"/>
     <use xlink:href="#DejaVuSans-20" transform="translate(821.570312 0)"/>
     <use xlink:href="#DejaVuSans-64" transform="translate(853.357422 0)"/>
     <use xlink:href="#DejaVuSans-65" transform="translate(916.833984 0)"/>
     <use xlink:href="#DejaVuSans-73" transform="translate(978.357422 0)"/>
     <use xlink:href="#DejaVuSans-20" transform="translate(1030.457031 0)"/>
     <use xlink:href="#DejaVuSans-45" transform="translate(1062.244141 0)"/>
     <use xlink:href="#DejaVuSans-45" transform="translate(1125.427734 0)"/>
     <use xlink:href="#DejaVuSans-47" transform="translate(1188.611328 0)"/>
     <use xlink:href="#DejaVuSans-20" transform="translate(1266.101562 0)"/>
     <use xlink:href="#DejaVuSans-53" transform="translate(1297.888672 0)"/>
     <use xlink:href="#DejaVuSans-69" transform="translate(1361.365234 0)"/>
     <use xlink:href="#DejaVuSans-67" transform="translate(1389.148438 0)"/>
     <use xlink:href="#DejaVuSans-6e" transform="translate(1452.625 0)"/>
     <use xlink:href="#DejaVuSans-61" transform="translate(1516.003906 0)"/>
     <use xlink:href="#DejaVuSans-6c" transform="translate(1577.283203 0)"/>
     <use xlink:href="#DejaVuSans-73" transform="translate(1605.066406 0)"/>
     <use xlink:href="#DejaVuSans-20" transform="translate(1657.166016 0)"/>
     <use xlink:href="#DejaVuSans-76" transform="translate(1688.953125 0)"/>
     <use xlink:href="#DejaVuSans-6f" transform="translate(1748.132812 0)"/>
     <use xlink:href="#DejaVuSans-6e" transform="translate(1809.314453 0)"/>
     <use xlink:href="#DejaVuSans-20" transform="translate(1872.693359 0)"/>
     <use xlink:href="#DejaVuSans-4b" transform="translate(1904.480469 0)"/>
     <use xlink:href="#DejaVuSans-61" transform="translate(1968.306641 0)"/>
     <use xlink:href="#DejaVuSans-6e" transform="translate(2029.585938 0)"/>
     <use xlink:href="#DejaVuSans-61" transform="translate(2092.964844 0)"/>
     <use xlink:href="#DejaVuSans-6c" transform="translate(2154.244141 0)"/>
     <use xlink:href="#DejaVuSans-20" transform="translate(2182.027344 0)"/>
     <use xlink:href="#DejaVuSans-54" transform="translate(2213.814453 0)"/>
     <use xlink:href="#DejaVuSans-34" transform="translate(2274.898438 0)"/>
     <use xlink:href="#DejaVuSans-2d" transform="translate(2338.521484 0)"/>
     <use xlink:href="#DejaVuSans-41" transform="translate(2372.355469 0)"/>
     <use xlink:href="#DejaVuSans-32" transform="translate(2440.763672 0)"/>
    </g>
   </g>
   <g id="legend_1">
    <g id="patch_7">
     <path d="M 266.196563 78.82825 
L 407.72 78.82825 
Q 409.72 78.82825 409.72 76.82825 
L 409.72 48.472 
Q 409.72 46.472 407.72 46.472 
L 266.196563 46.472 
Q 264.196563 46.472 264.196563 48.472 
L 264.196563 76.82825 
Q 264.196563 78.82825 266.196563 78.82825 
z
" style="fill: #ffffff; opacity: 0.8; stroke: #cccccc; stroke-linejoin: miter"/>
    </g>
    <g id="line2d_60">
     <path d="M 268.196563 54.570437 
L 278.196563 54.570437 
L 288.196563 54.570437 
" style="fill: none; stroke: #0000ff; stroke-width: 1.5; stroke-linecap: square"/>
    </g>
    <g id="text_17">
     <!-- Original -->
     <g transform="translate(296.196563 58.070437) scale(0.1 -0.1)">
      <defs>
       <path id="DejaVuSans-4f" d="M 2522 4238 
Q 1834 4238 1429 3725 
Q 1025 3213 1025 2328 
Q 1025 1447 1429 934 
Q 1834 422 2522 422 
Q 3209 422 3611 934 
Q 4013 1447 4013 2328 
Q 4013 3213 3611 3725 
Q 3209 4238 2522 4238 
z
M 2522 4750 
Q 3503 4750 4090 4092 
Q 4678 3434 4678 2328 
Q 4678 1225 4090 567 
Q 3503 -91 2522 -91 
Q 1538 -91 948 565 
Q 359 1222 359 2328 
Q 359 3434 948 4092 
Q 1538 4750 2522 4750 
z
" transform="scale(0.015625)"/>
      </defs>
      <use xlink:href="#DejaVuSans-4f"/>
      <use xlink:href="#DejaVuSans-72" transform="translate(78.710938 0)"/>
      <use xlink:href="#DejaVuSans-69" transform="translate(119.824219 0)"/>
      <use xlink:href="#DejaVuSans-67" transform="translate(147.607422 0)"/>
      <use xlink:href="#DejaVuSans-69" transform="translate(211.083984 0)"/>
      <use xlink:href="#DejaVuSans-6e" transform="translate(238.867188 0)"/>
      <use xlink:href="#DejaVuSans-61" transform="translate(302.246094 0)"/>
      <use xlink:href="#DejaVuSans-6c" transform="translate(363.525391 0)"/>
     </g>
    </g>
    <g id="line2d_61">
     <path d="M 268.196563 69.248562 
L 278.196563 69.248562 
L 288.196563 69.248562 
" style="fill: none; stroke: #ffa500; stroke-width: 1.5; stroke-linecap: square"/>
    </g>
    <g id="text_18">
     <!-- After resampling/filter -->
     <g transform="translate(296.196563 72.748562) scale(0.1 -0.1)">
      <defs>
       <path id="DejaVuSans-66" d="M 2375 4863 
L 2375 4384 
L 1825 4384 
Q 1516 4384 1395 4259 
Q 1275 4134 1275 3809 
L 1275 3500 
L 2222 3500 
L 2222 3053 
L 1275 3053 
L 1275 0 
L 697 0 
L 697 3053 
L 147 3053 
L 147 3500 
L 697 3500 
L 697 3744 
Q 697 4328 969 4595 
Q 1241 4863 1831 4863 
L 2375 4863 
z
" transform="scale(0.015625)"/>
      </defs>
      <use xlink:href="#DejaVuSans-41"/>
      <use xlink:href="#DejaVuSans-66" transform="translate(64.783203 0)"/>
      <use xlink:href="#DejaVuSans-74" transform="translate(98.238281 0)"/>
      <use xlink:href="#DejaVuSans-65" transform="translate(137.447266 0)"/>
      <use xlink:href="#DejaVuSans-72" transform="translate(198.970703 0)"/>
      <use xlink:href="#DejaVuSans-20" transform="translate(240.083984 0)"/>
      <use xlink:href="#DejaVuSans-72" transform="translate(271.871094 0)"/>
      <use xlink:href="#DejaVuSans-65" transform="translate(310.734375 0)"/>
      <use xlink:href="#DejaVuSans-73" transform="translate(372.257812 0)"/>
      <use xlink:href="#DejaVuSans-61" transform="translate(424.357422 0)"/>
      <use xlink:href="#DejaVuSans-6d" transform="translate(485.636719 0)"/>
      <use xlink:href="#DejaVuSans-70" transform="translate(583.048828 0)"/>
      <use xlink:href="#DejaVuSans-6c" transform="translate(646.525391 0)"/>
      <use xlink:href="#DejaVuSans-69" transform="translate(674.308594 0)"/>
      <use xlink:href="#DejaVuSans-6e" transform="translate(702.091797 0)"/>
      <use xlink:href="#DejaVuSans-67" transform="translate(765.470703 0)"/>
      <use xlink:href="#DejaVuSans-2f" transform="translate(828.947266 0)"/>
      <use xlink:href="#DejaVuSans-66" transform="translate(862.638672 0)"/>
      <use xlink:href="#DejaVuSans-69" transform="translate(897.84375 0)"/>
      <use xlink:href="#DejaVuSans-6c" transform="translate(925.626953 0)"/>
      <use xlink:href="#DejaVuSans-74" transform="translate(953.410156 0)"/>
      <use xlink:href="#DejaVuSans-65" transform="translate(992.619141 0)"/>
      <use xlink:href="#DejaVuSans-72" transform="translate(1054.142578 0)"/>
     </g>
    </g>
   </g>
  </g>
 </g>
 <defs>
  <clipPath id="pa01b4b76af">
   <rect x="57.6" y="41.472" width="357.12" height="266.112"/>
  </clipPath>
 </defs>
</svg>
