<?xml version="1.0" encoding="utf-8" standalone="no"?>
<!DOCTYPE svg PUBLIC "-//W3C//DTD SVG 1.1//EN"
  "http://www.w3.org/Graphics/SVG/1.1/DTD/svg11.dtd">
<svg xmlns:xlink="http://www.w3.org/1999/xlink" width="460.8pt" height="345.6pt" viewBox="0 0 460.8 345.6" xmlns="http://www.w3.org/2000/svg" version="1.1">
 <metadata>
  <rdf:RDF xmlns:dc="http://purl.org/dc/elements/1.1/" xmlns:cc="http://creativecommons.org/ns#" xmlns:rdf="http://www.w3.org/1999/02/22-rdf-syntax-ns#">
   <cc:Work>
    <dc:type rdf:resource="http://purl.org/dc/dcmitype/StillImage"/>
    <dc:date>2025-11-03T14:04:09.360202</dc:date>
    <dc:format>image/svg+xml</dc:format>
    <dc:creator>
     <cc:Agent>
      <dc:title>Matplotlib v3.10.7, https://matplotlib.org/</dc:title>
     </cc:Agent>
    </dc:creator>
   </cc:Work>
  </rdf:RDF>
 </metadata>
 <defs>
  <style type="text/css">*{stroke-linejoin: round; stroke-linecap: butt}</style>
 </defs>
 <g id="figure_1">
  <g id="patch_1">
   <path d="M 0 345.6 
L 460.8 345.6 
L 460.8 0 
L 0 0 
z
" style="fill: #ffffff"/>
  </g>
  <g id="axes_1">
   <g id="patch_2">
    <path d="M 57.6 307.584 
L 414.72 307.584 
L 414.72 41.472 
L 57.6 41.472 
z
" style="fill: #ffffff"/>
   </g>
   <g id="matplotlib.axis_1">
    <g id="xtick_1">
     <g id="line2d_1">
      <defs>
       <path id="m20f0ef78c7" d="M 0 0 
L 0 3.5 
" style="stroke: #000000; stroke-width: 0.8"/>
      </defs>
      <g>
       <use xlink:href="#m20f0ef78c7" x="73.832727" y="307.584" style="stroke: #000000; stroke-width: 0.8"/>
      </g>
     </g>
     <g id="text_1">
      <!-- 0 -->
      <g transform="translate(70.651477 322.182437) scale(0.1 -0.1)">
       <defs>
        <path id="DejaVuSans-30" d="M 2034 4250 
Q 1547 4250 1301 3770 
Q 1056 3291 1056 2328 
Q 1056 1369 1301 889 
Q 1547 409 2034 409 
Q 2525 409 2770 889 
Q 3016 1369 3016 2328 
Q 3016 3291 2770 3770 
Q 2525 4250 2034 4250 
z
M 2034 4750 
Q 2819 4750 3233 4129 
Q 3647 3509 3647 2328 
Q 3647 1150 3233 529 
Q 2819 -91 2034 -91 
Q 1250 -91 836 529 
Q 422 1150 422 2328 
Q 422 3509 836 4129 
Q 1250 4750 2034 4750 
z
" transform="scale(0.015625)"/>
       </defs>
       <use xlink:href="#DejaVuSans-30"/>
      </g>
     </g>
    </g>
    <g id="xtick_2">
     <g id="line2d_2">
      <g>
       <use xlink:href="#m20f0ef78c7" x="114.414545" y="307.584" style="stroke: #000000; stroke-width: 0.8"/>
      </g>
     </g>
     <g id="text_2">
      <!-- 25 -->
      <g transform="translate(108.052045 322.182437) scale(0.1 -0.1)">
       <defs>
        <path id="DejaVuSans-32" d="M 1228 531 
L 3431 531 
L 3431 0 
L 469 0 
L 469 531 
Q 828 903 1448 1529 
Q 2069 2156 2228 2338 
Q 2531 2678 2651 2914 
Q 2772 3150 2772 3378 
Q 2772 3750 2511 3984 
Q 2250 4219 1831 4219 
Q 1534 4219 1204 4116 
Q 875 4013 500 3803 
L 500 4441 
Q 881 4594 1212 4672 
Q 1544 4750 1819 4750 
Q 2544 4750 2975 4387 
Q 3406 4025 3406 3419 
Q 3406 3131 3298 2873 
Q 3191 2616 2906 2266 
Q 2828 2175 2409 1742 
Q 1991 1309 1228 531 
z
" transform="scale(0.015625)"/>
        <path id="DejaVuSans-35" d="M 691 4666 
L 3169 4666 
L 3169 4134 
L 1269 4134 
L 1269 2991 
Q 1406 3038 1543 3061 
Q 1681 3084 1819 3084 
Q 2600 3084 3056 2656 
Q 3513 2228 3513 1497 
Q 3513 744 3044 326 
Q 2575 -91 1722 -91 
Q 1428 -91 1123 -41 
Q 819 9 494 109 
L 494 744 
Q 775 591 1075 516 
Q 1375 441 1709 441 
Q 2250 441 2565 725 
Q 2881 1009 2881 1497 
Q 2881 1984 2565 2268 
Q 2250 2553 1709 2553 
Q 1456 2553 1204 2497 
Q 953 2441 691 2322 
L 691 4666 
z
" transform="scale(0.015625)"/>
       </defs>
       <use xlink:href="#DejaVuSans-32"/>
       <use xlink:href="#DejaVuSans-35" transform="translate(63.623047 0)"/>
      </g>
     </g>
    </g>
    <g id="xtick_3">
     <g id="line2d_3">
      <g>
       <use xlink:href="#m20f0ef78c7" x="154.996364" y="307.584" style="stroke: #000000; stroke-width: 0.8"/>
      </g>
     </g>
     <g id="text_3">
      <!-- 50 -->
      <g transform="translate(148.633864 322.182437) scale(0.1 -0.1)">
       <use xlink:href="#DejaVuSans-35"/>
       <use xlink:href="#DejaVuSans-30" transform="translate(63.623047 0)"/>
      </g>
     </g>
    </g>
    <g id="xtick_4">
     <g id="line2d_4">
      <g>
       <use xlink:href="#m20f0ef78c7" x="195.578182" y="307.584" style="stroke: #000000; stroke-width: 0.8"/>
      </g>
     </g>
     <g id="text_4">
      <!-- 75 -->
      <g transform="translate(189.215682 322.182437) scale(0.1 -0.1)">
       <defs>
        <path id="DejaVuSans-37" d="M 525 4666 
L 3525 4666 
L 3525 4397 
L 1831 0 
L 1172 0 
L 2766 4134 
L 525 4134 
L 525 4666 
z
" transform="scale(0.015625)"/>
       </defs>
       <use xlink:href="#DejaVuSans-37"/>
       <use xlink:href="#DejaVuSans-35" transform="translate(63.623047 0)"/>
      </g>
     </g>
    </g>
    <g id="xtick_5">
     <g id="line2d_5">
      <g>
       <use xlink:href="#m20f0ef78c7" x="236.16" y="307.584" style="stroke: #000000; stroke-width: 0.8"/>
      </g>
     </g>
     <g id="text_5">
      <!-- 100 -->
      <g transform="translate(226.61625 322.182437) scale(0.1 -0.1)">
       <defs>
        <path id="DejaVuSans-31" d="M 794 531 
L 1825 531 
L 1825 4091 
L 703 3866 
L 703 4441 
L 1819 4666 
L 2450 4666 
L 2450 531 
L 3481 531 
L 3481 0 
L 794 0 
L 794 531 
z
" transform="scale(0.015625)"/>
       </defs>
       <use xlink:href="#DejaVuSans-31"/>
       <use xlink:href="#DejaVuSans-30" transform="translate(63.623047 0)"/>
       <use xlink:href="#DejaVuSans-30" transform="translate(127.246094 0)"/>
      </g>
     </g>
    </g>
    <g id="xtick_6">
     <g id="line2d_6">
      <g>
       <use xlink:href="#m20f0ef78c7" x="276.741818" y="307.584" style="stroke: #000000; stroke-width: 0.8"/>
      </g>
     </g>
     <g id="text_6">
      <!-- 125 -->
      <g transform="translate(267.198068 322.182437) scale(0.1 -0.1)">
       <use xlink:href="#DejaVuSans-31"/>
       <use xlink:href="#DejaVuSans-32" transform="translate(63.623047 0)"/>
       <use xlink:href="#DejaVuSans-35" transform="translate(127.246094 0)"/>
      </g>
     </g>
    </g>
    <g id="xtick_7">
     <g id="line2d_7">
      <g>
       <use xlink:href="#m20f0ef78c7" x="317.323636" y="307.584" style="stroke: #000000; stroke-width: 0.8"/>
      </g>
     </g>
     <g id="text_7">
      <!-- 150 -->
      <g transform="translate(307.779886 322.182437) scale(0.1 -0.1)">
       <use xlink:href="#DejaVuSans-31"/>
       <use xlink:href="#DejaVuSans-35" transform="translate(63.623047 0)"/>
       <use xlink:href="#DejaVuSans-30" transform="translate(127.246094 0)"/>
      </g>
     </g>
    </g>
    <g id="xtick_8">
     <g id="line2d_8">
      <g>
       <use xlink:href="#m20f0ef78c7" x="357.905455" y="307.584" style="stroke: #000000; stroke-width: 0.8"/>
      </g>
     </g>
     <g id="text_8">
      <!-- 175 -->
      <g transform="translate(348.361705 322.182437) scale(0.1 -0.1)">
       <use xlink:href="#DejaVuSans-31"/>
       <use xlink:href="#DejaVuSans-37" transform="translate(63.623047 0)"/>
       <use xlink:href="#DejaVuSans-35" transform="translate(127.246094 0)"/>
      </g>
     </g>
    </g>
    <g id="xtick_9">
     <g id="line2d_9">
      <g>
       <use xlink:href="#m20f0ef78c7" x="398.487273" y="307.584" style="stroke: #000000; stroke-width: 0.8"/>
      </g>
     </g>
     <g id="text_9">
      <!-- 200 -->
      <g transform="translate(388.943523 322.182437) scale(0.1 -0.1)">
       <use xlink:href="#DejaVuSans-32"/>
       <use xlink:href="#DejaVuSans-30" transform="translate(63.623047 0)"/>
       <use xlink:href="#DejaVuSans-30" transform="translate(127.246094 0)"/>
      </g>
     </g>
    </g>
    <g id="text_10">
     <!-- Frequenz in Hz -->
     <g transform="translate(199.294375 335.860562) scale(0.1 -0.1)">
      <defs>
       <path id="DejaVuSans-46" d="M 628 4666 
L 3309 4666 
L 3309 4134 
L 1259 4134 
L 1259 2759 
L 3109 2759 
L 3109 2228 
L 1259 2228 
L 1259 0 
L 628 0 
L 628 4666 
z
" transform="scale(0.015625)"/>
       <path id="DejaVuSans-72" d="M 2631 2963 
Q 2534 3019 2420 3045 
Q 2306 3072 2169 3072 
Q 1681 3072 1420 2755 
Q 1159 2438 1159 1844 
L 1159 0 
L 581 0 
L 581 3500 
L 1159 3500 
L 1159 2956 
Q 1341 3275 1631 3429 
Q 1922 3584 2338 3584 
Q 2397 3584 2469 3576 
Q 2541 3569 2628 3553 
L 2631 2963 
z
" transform="scale(0.015625)"/>
       <path id="DejaVuSans-65" d="M 3597 1894 
L 3597 1613 
L 953 1613 
Q 991 1019 1311 708 
Q 1631 397 2203 397 
Q 2534 397 2845 478 
Q 3156 559 3463 722 
L 3463 178 
Q 3153 47 2828 -22 
Q 2503 -91 2169 -91 
Q 1331 -91 842 396 
Q 353 884 353 1716 
Q 353 2575 817 3079 
Q 1281 3584 2069 3584 
Q 2775 3584 3186 3129 
Q 3597 2675 3597 1894 
z
M 3022 2063 
Q 3016 2534 2758 2815 
Q 2500 3097 2075 3097 
Q 1594 3097 1305 2825 
Q 1016 2553 972 2059 
L 3022 2063 
z
" transform="scale(0.015625)"/>
       <path id="DejaVuSans-71" d="M 947 1747 
Q 947 1113 1208 752 
Q 1469 391 1925 391 
Q 2381 391 2643 752 
Q 2906 1113 2906 1747 
Q 2906 2381 2643 2742 
Q 2381 3103 1925 3103 
Q 1469 3103 1208 2742 
Q 947 2381 947 1747 
z
M 2906 525 
Q 2725 213 2448 61 
Q 2172 -91 1784 -91 
Q 1150 -91 751 415 
Q 353 922 353 1747 
Q 353 2572 751 3078 
Q 1150 3584 1784 3584 
Q 2172 3584 2448 3432 
Q 2725 3281 2906 2969 
L 2906 3500 
L 3481 3500 
L 3481 -1331 
L 2906 -1331 
L 2906 525 
z
" transform="scale(0.015625)"/>
       <path id="DejaVuSans-75" d="M 544 1381 
L 544 3500 
L 1119 3500 
L 1119 1403 
Q 1119 906 1312 657 
Q 1506 409 1894 409 
Q 2359 409 2629 706 
Q 2900 1003 2900 1516 
L 2900 3500 
L 3475 3500 
L 3475 0 
L 2900 0 
L 2900 538 
Q 2691 219 2414 64 
Q 2138 -91 1772 -91 
Q 1169 -91 856 284 
Q 544 659 544 1381 
z
M 1991 3584 
L 1991 3584 
z
" transform="scale(0.015625)"/>
       <path id="DejaVuSans-6e" d="M 3513 2113 
L 3513 0 
L 2938 0 
L 2938 2094 
Q 2938 2591 2744 2837 
Q 2550 3084 2163 3084 
Q 1697 3084 1428 2787 
Q 1159 2491 1159 1978 
L 1159 0 
L 581 0 
L 581 3500 
L 1159 3500 
L 1159 2956 
Q 1366 3272 1645 3428 
Q 1925 3584 2291 3584 
Q 2894 3584 3203 3211 
Q 3513 2838 3513 2113 
z
" transform="scale(0.015625)"/>
       <path id="DejaVuSans-7a" d="M 353 3500 
L 3084 3500 
L 3084 2975 
L 922 459 
L 3084 459 
L 3084 0 
L 275 0 
L 275 525 
L 2438 3041 
L 353 3041 
L 353 3500 
z
" transform="scale(0.015625)"/>
       <path id="DejaVuSans-20" transform="scale(0.015625)"/>
       <path id="DejaVuSans-69" d="M 603 3500 
L 1178 3500 
L 1178 0 
L 603 0 
L 603 3500 
z
M 603 4863 
L 1178 4863 
L 1178 4134 
L 603 4134 
L 603 4863 
z
" transform="scale(0.015625)"/>
       <path id="DejaVuSans-48" d="M 628 4666 
L 1259 4666 
L 1259 2753 
L 3553 2753 
L 3553 4666 
L 4184 4666 
L 4184 0 
L 3553 0 
L 3553 2222 
L 1259 2222 
L 1259 0 
L 628 0 
L 628 4666 
z
" transform="scale(0.015625)"/>
      </defs>
      <use xlink:href="#DejaVuSans-46"/>
      <use xlink:href="#DejaVuSans-72" transform="translate(50.269531 0)"/>
      <use xlink:href="#DejaVuSans-65" transform="translate(89.132812 0)"/>
      <use xlink:href="#DejaVuSans-71" transform="translate(150.65625 0)"/>
      <use xlink:href="#DejaVuSans-75" transform="translate(214.132812 0)"/>
      <use xlink:href="#DejaVuSans-65" transform="translate(277.511719 0)"/>
      <use xlink:href="#DejaVuSans-6e" transform="translate(339.035156 0)"/>
      <use xlink:href="#DejaVuSans-7a" transform="translate(402.414062 0)"/>
      <use xlink:href="#DejaVuSans-20" transform="translate(454.904297 0)"/>
      <use xlink:href="#DejaVuSans-69" transform="translate(486.691406 0)"/>
      <use xlink:href="#DejaVuSans-6e" transform="translate(514.474609 0)"/>
      <use xlink:href="#DejaVuSans-20" transform="translate(577.853516 0)"/>
      <use xlink:href="#DejaVuSans-48" transform="translate(609.640625 0)"/>
      <use xlink:href="#DejaVuSans-7a" transform="translate(684.835938 0)"/>
     </g>
    </g>
   </g>
   <g id="matplotlib.axis_2">
    <g id="ytick_1">
     <g id="line2d_10">
      <defs>
       <path id="m66e62750b4" d="M 0 0 
L -3.5 0 
" style="stroke: #000000; stroke-width: 0.8"/>
      </defs>
      <g>
       <use xlink:href="#m66e62750b4" x="57.6" y="277.579661" style="stroke: #000000; stroke-width: 0.8"/>
      </g>
     </g>
     <g id="text_11">
      <!-- $\mathdefault{10^{-2}}$ -->
      <g transform="translate(27.1 281.378879) scale(0.1 -0.1)">
       <defs>
        <path id="DejaVuSans-2212" d="M 678 2272 
L 4684 2272 
L 4684 1741 
L 678 1741 
L 678 2272 
z
" transform="scale(0.015625)"/>
       </defs>
       <use xlink:href="#DejaVuSans-31" transform="translate(0 0.765625)"/>
       <use xlink:href="#DejaVuSans-30" transform="translate(63.623047 0.765625)"/>
       <use xlink:href="#DejaVuSans-2212" transform="translate(128.203125 39.046875) scale(0.7)"/>
       <use xlink:href="#DejaVuSans-32" transform="translate(186.855469 39.046875) scale(0.7)"/>
      </g>
     </g>
    </g>
    <g id="ytick_2">
     <g id="line2d_11">
      <g>
       <use xlink:href="#m66e62750b4" x="57.6" y="206.533785" style="stroke: #000000; stroke-width: 0.8"/>
      </g>
     </g>
     <g id="text_12">
      <!-- $\mathdefault{10^{-1}}$ -->
      <g transform="translate(27.1 210.333004) scale(0.1 -0.1)">
       <use xlink:href="#DejaVuSans-31" transform="translate(0 0.684375)"/>
       <use xlink:href="#DejaVuSans-30" transform="translate(63.623047 0.684375)"/>
       <use xlink:href="#DejaVuSans-2212" transform="translate(128.203125 38.965625) scale(0.7)"/>
       <use xlink:href="#DejaVuSans-31" transform="translate(186.855469 38.965625) scale(0.7)"/>
      </g>
     </g>
    </g>
    <g id="ytick_3">
     <g id="line2d_12">
      <g>
       <use xlink:href="#m66e62750b4" x="57.6" y="135.487909" style="stroke: #000000; stroke-width: 0.8"/>
      </g>
     </g>
     <g id="text_13">
      <!-- $\mathdefault{10^{0}}$ -->
      <g transform="translate(33 139.287128) scale(0.1 -0.1)">
       <use xlink:href="#DejaVuSans-31" transform="translate(0 0.765625)"/>
       <use xlink:href="#DejaVuSans-30" transform="translate(63.623047 0.765625)"/>
       <use xlink:href="#DejaVuSans-30" transform="translate(128.203125 39.046875) scale(0.7)"/>
      </g>
     </g>
    </g>
    <g id="ytick_4">
     <g id="line2d_13">
      <g>
       <use xlink:href="#m66e62750b4" x="57.6" y="64.442033" style="stroke: #000000; stroke-width: 0.8"/>
      </g>
     </g>
     <g id="text_14">
      <!-- $\mathdefault{10^{1}}$ -->
      <g transform="translate(33 68.241252) scale(0.1 -0.1)">
       <use xlink:href="#DejaVuSans-31" transform="translate(0 0.684375)"/>
       <use xlink:href="#DejaVuSans-30" transform="translate(63.623047 0.684375)"/>
       <use xlink:href="#DejaVuSans-31" transform="translate(128.203125 38.965625) scale(0.7)"/>
      </g>
     </g>
    </g>
    <g id="ytick_5">
     <g id="line2d_14">
      <defs>
       <path id="m2eb44a4a60" d="M 0 0 
L -2 0 
" style="stroke: #000000; stroke-width: 0.6"/>
      </defs>
      <g>
       <use xlink:href="#m2eb44a4a60" x="57.6" y="305.851657" style="stroke: #000000; stroke-width: 0.6"/>
      </g>
     </g>
    </g>
    <g id="ytick_6">
     <g id="line2d_15">
      <g>
       <use xlink:href="#m2eb44a4a60" x="57.6" y="298.9666" style="stroke: #000000; stroke-width: 0.6"/>
      </g>
     </g>
    </g>
    <g id="ytick_7">
     <g id="line2d_16">
      <g>
       <use xlink:href="#m2eb44a4a60" x="57.6" y="293.341099" style="stroke: #000000; stroke-width: 0.6"/>
      </g>
     </g>
    </g>
    <g id="ytick_8">
     <g id="line2d_17">
      <g>
       <use xlink:href="#m2eb44a4a60" x="57.6" y="288.584806" style="stroke: #000000; stroke-width: 0.6"/>
      </g>
     </g>
    </g>
    <g id="ytick_9">
     <g id="line2d_18">
      <g>
       <use xlink:href="#m2eb44a4a60" x="57.6" y="284.464718" style="stroke: #000000; stroke-width: 0.6"/>
      </g>
     </g>
    </g>
    <g id="ytick_10">
     <g id="line2d_19">
      <g>
       <use xlink:href="#m2eb44a4a60" x="57.6" y="280.830542" style="stroke: #000000; stroke-width: 0.6"/>
      </g>
     </g>
    </g>
    <g id="ytick_11">
     <g id="line2d_20">
      <g>
       <use xlink:href="#m2eb44a4a60" x="57.6" y="256.192721" style="stroke: #000000; stroke-width: 0.6"/>
      </g>
     </g>
    </g>
    <g id="ytick_12">
     <g id="line2d_21">
      <g>
       <use xlink:href="#m2eb44a4a60" x="57.6" y="243.682163" style="stroke: #000000; stroke-width: 0.6"/>
      </g>
     </g>
    </g>
    <g id="ytick_13">
     <g id="line2d_22">
      <g>
       <use xlink:href="#m2eb44a4a60" x="57.6" y="234.805781" style="stroke: #000000; stroke-width: 0.6"/>
      </g>
     </g>
    </g>
    <g id="ytick_14">
     <g id="line2d_23">
      <g>
       <use xlink:href="#m2eb44a4a60" x="57.6" y="227.920724" style="stroke: #000000; stroke-width: 0.6"/>
      </g>
     </g>
    </g>
    <g id="ytick_15">
     <g id="line2d_24">
      <g>
       <use xlink:href="#m2eb44a4a60" x="57.6" y="222.295224" style="stroke: #000000; stroke-width: 0.6"/>
      </g>
     </g>
    </g>
    <g id="ytick_16">
     <g id="line2d_25">
      <g>
       <use xlink:href="#m2eb44a4a60" x="57.6" y="217.53893" style="stroke: #000000; stroke-width: 0.6"/>
      </g>
     </g>
    </g>
    <g id="ytick_17">
     <g id="line2d_26">
      <g>
       <use xlink:href="#m2eb44a4a60" x="57.6" y="213.418842" style="stroke: #000000; stroke-width: 0.6"/>
      </g>
     </g>
    </g>
    <g id="ytick_18">
     <g id="line2d_27">
      <g>
       <use xlink:href="#m2eb44a4a60" x="57.6" y="209.784666" style="stroke: #000000; stroke-width: 0.6"/>
      </g>
     </g>
    </g>
    <g id="ytick_19">
     <g id="line2d_28">
      <g>
       <use xlink:href="#m2eb44a4a60" x="57.6" y="185.146845" style="stroke: #000000; stroke-width: 0.6"/>
      </g>
     </g>
    </g>
    <g id="ytick_20">
     <g id="line2d_29">
      <g>
       <use xlink:href="#m2eb44a4a60" x="57.6" y="172.636287" style="stroke: #000000; stroke-width: 0.6"/>
      </g>
     </g>
    </g>
    <g id="ytick_21">
     <g id="line2d_30">
      <g>
       <use xlink:href="#m2eb44a4a60" x="57.6" y="163.759905" style="stroke: #000000; stroke-width: 0.6"/>
      </g>
     </g>
    </g>
    <g id="ytick_22">
     <g id="line2d_31">
      <g>
       <use xlink:href="#m2eb44a4a60" x="57.6" y="156.874849" style="stroke: #000000; stroke-width: 0.6"/>
      </g>
     </g>
    </g>
    <g id="ytick_23">
     <g id="line2d_32">
      <g>
       <use xlink:href="#m2eb44a4a60" x="57.6" y="151.249348" style="stroke: #000000; stroke-width: 0.6"/>
      </g>
     </g>
    </g>
    <g id="ytick_24">
     <g id="line2d_33">
      <g>
       <use xlink:href="#m2eb44a4a60" x="57.6" y="146.493054" style="stroke: #000000; stroke-width: 0.6"/>
      </g>
     </g>
    </g>
    <g id="ytick_25">
     <g id="line2d_34">
      <g>
       <use xlink:href="#m2eb44a4a60" x="57.6" y="142.372966" style="stroke: #000000; stroke-width: 0.6"/>
      </g>
     </g>
    </g>
    <g id="ytick_26">
     <g id="line2d_35">
      <g>
       <use xlink:href="#m2eb44a4a60" x="57.6" y="138.73879" style="stroke: #000000; stroke-width: 0.6"/>
      </g>
     </g>
    </g>
    <g id="ytick_27">
     <g id="line2d_36">
      <g>
       <use xlink:href="#m2eb44a4a60" x="57.6" y="114.100969" style="stroke: #000000; stroke-width: 0.6"/>
      </g>
     </g>
    </g>
    <g id="ytick_28">
     <g id="line2d_37">
      <g>
       <use xlink:href="#m2eb44a4a60" x="57.6" y="101.590411" style="stroke: #000000; stroke-width: 0.6"/>
      </g>
     </g>
    </g>
    <g id="ytick_29">
     <g id="line2d_38">
      <g>
       <use xlink:href="#m2eb44a4a60" x="57.6" y="92.714029" style="stroke: #000000; stroke-width: 0.6"/>
      </g>
     </g>
    </g>
    <g id="ytick_30">
     <g id="line2d_39">
      <g>
       <use xlink:href="#m2eb44a4a60" x="57.6" y="85.828973" style="stroke: #000000; stroke-width: 0.6"/>
      </g>
     </g>
    </g>
    <g id="ytick_31">
     <g id="line2d_40">
      <g>
       <use xlink:href="#m2eb44a4a60" x="57.6" y="80.203472" style="stroke: #000000; stroke-width: 0.6"/>
      </g>
     </g>
    </g>
    <g id="ytick_32">
     <g id="line2d_41">
      <g>
       <use xlink:href="#m2eb44a4a60" x="57.6" y="75.447178" style="stroke: #000000; stroke-width: 0.6"/>
      </g>
     </g>
    </g>
    <g id="ytick_33">
     <g id="line2d_42">
      <g>
       <use xlink:href="#m2eb44a4a60" x="57.6" y="71.32709" style="stroke: #000000; stroke-width: 0.6"/>
      </g>
     </g>
    </g>
    <g id="ytick_34">
     <g id="line2d_43">
      <g>
       <use xlink:href="#m2eb44a4a60" x="57.6" y="67.692914" style="stroke: #000000; stroke-width: 0.6"/>
      </g>
     </g>
    </g>
    <g id="ytick_35">
     <g id="line2d_44">
      <g>
       <use xlink:href="#m2eb44a4a60" x="57.6" y="43.055093" style="stroke: #000000; stroke-width: 0.6"/>
      </g>
     </g>
    </g>
    <g id="text_15">
     <!-- Leistung/Frequenz (V²/Hz) -->
     <g transform="translate(21.020312 239.182687) rotate(-90) scale(0.1 -0.1)">
      <defs>
       <path id="DejaVuSans-4c" d="M 628 4666 
L 1259 4666 
L 1259 531 
L 3531 531 
L 3531 0 
L 628 0 
L 628 4666 
z
" transform="scale(0.015625)"/>
       <path id="DejaVuSans-73" d="M 2834 3397 
L 2834 2853 
Q 2591 2978 2328 3040 
Q 2066 3103 1784 3103 
Q 1356 3103 1142 2972 
Q 928 2841 928 2578 
Q 928 2378 1081 2264 
Q 1234 2150 1697 2047 
L 1894 2003 
Q 2506 1872 2764 1633 
Q 3022 1394 3022 966 
Q 3022 478 2636 193 
Q 2250 -91 1575 -91 
Q 1294 -91 989 -36 
Q 684 19 347 128 
L 347 722 
Q 666 556 975 473 
Q 1284 391 1588 391 
Q 1994 391 2212 530 
Q 2431 669 2431 922 
Q 2431 1156 2273 1281 
Q 2116 1406 1581 1522 
L 1381 1569 
Q 847 1681 609 1914 
Q 372 2147 372 2553 
Q 372 3047 722 3315 
Q 1072 3584 1716 3584 
Q 2034 3584 2315 3537 
Q 2597 3491 2834 3397 
z
" transform="scale(0.015625)"/>
       <path id="DejaVuSans-74" d="M 1172 4494 
L 1172 3500 
L 2356 3500 
L 2356 3053 
L 1172 3053 
L 1172 1153 
Q 1172 725 1289 603 
Q 1406 481 1766 481 
L 2356 481 
L 2356 0 
L 1766 0 
Q 1100 0 847 248 
Q 594 497 594 1153 
L 594 3053 
L 172 3053 
L 172 3500 
L 594 3500 
L 594 4494 
L 1172 4494 
z
" transform="scale(0.015625)"/>
       <path id="DejaVuSans-67" d="M 2906 1791 
Q 2906 2416 2648 2759 
Q 2391 3103 1925 3103 
Q 1463 3103 1205 2759 
Q 947 2416 947 1791 
Q 947 1169 1205 825 
Q 1463 481 1925 481 
Q 2391 481 2648 825 
Q 2906 1169 2906 1791 
z
M 3481 434 
Q 3481 -459 3084 -895 
Q 2688 -1331 1869 -1331 
Q 1566 -1331 1297 -1286 
Q 1028 -1241 775 -1147 
L 775 -588 
Q 1028 -725 1275 -790 
Q 1522 -856 1778 -856 
Q 2344 -856 2625 -561 
Q 2906 -266 2906 331 
L 2906 616 
Q 2728 306 2450 153 
Q 2172 0 1784 0 
Q 1141 0 747 490 
Q 353 981 353 1791 
Q 353 2603 747 3093 
Q 1141 3584 1784 3584 
Q 2172 3584 2450 3431 
Q 2728 3278 2906 2969 
L 2906 3500 
L 3481 3500 
L 3481 434 
z
" transform="scale(0.015625)"/>
       <path id="DejaVuSans-2f" d="M 1625 4666 
L 2156 4666 
L 531 -594 
L 0 -594 
L 1625 4666 
z
" transform="scale(0.015625)"/>
       <path id="DejaVuSans-28" d="M 1984 4856 
Q 1566 4138 1362 3434 
Q 1159 2731 1159 2009 
Q 1159 1288 1364 580 
Q 1569 -128 1984 -844 
L 1484 -844 
Q 1016 -109 783 600 
Q 550 1309 550 2009 
Q 550 2706 781 3412 
Q 1013 4119 1484 4856 
L 1984 4856 
z
" transform="scale(0.015625)"/>
       <path id="DejaVuSans-56" d="M 1831 0 
L 50 4666 
L 709 4666 
L 2188 738 
L 3669 4666 
L 4325 4666 
L 2547 0 
L 1831 0 
z
" transform="scale(0.015625)"/>
       <path id="DejaVuSans-b2" d="M 838 2444 
L 2163 2444 
L 2163 2088 
L 294 2088 
L 294 2431 
Q 400 2528 597 2703 
Q 1672 3656 1672 3950 
Q 1672 4156 1509 4282 
Q 1347 4409 1081 4409 
Q 919 4409 728 4354 
Q 538 4300 313 4191 
L 313 4575 
Q 553 4663 761 4706 
Q 969 4750 1147 4750 
Q 1600 4750 1872 4544 
Q 2144 4338 2144 4000 
Q 2144 3566 1109 2678 
Q 934 2528 838 2444 
z
" transform="scale(0.015625)"/>
       <path id="DejaVuSans-29" d="M 513 4856 
L 1013 4856 
Q 1481 4119 1714 3412 
Q 1947 2706 1947 2009 
Q 1947 1309 1714 600 
Q 1481 -109 1013 -844 
L 513 -844 
Q 928 -128 1133 580 
Q 1338 1288 1338 2009 
Q 1338 2731 1133 3434 
Q 928 4138 513 4856 
z
" transform="scale(0.015625)"/>
      </defs>
      <use xlink:href="#DejaVuSans-4c"/>
      <use xlink:href="#DejaVuSans-65" transform="translate(53.962891 0)"/>
      <use xlink:href="#DejaVuSans-69" transform="translate(115.486328 0)"/>
      <use xlink:href="#DejaVuSans-73" transform="translate(143.269531 0)"/>
      <use xlink:href="#DejaVuSans-74" transform="translate(195.369141 0)"/>
      <use xlink:href="#DejaVuSans-75" transform="translate(234.578125 0)"/>
      <use xlink:href="#DejaVuSans-6e" transform="translate(297.957031 0)"/>
      <use xlink:href="#DejaVuSans-67" transform="translate(361.335938 0)"/>
      <use xlink:href="#DejaVuSans-2f" transform="translate(424.8125 0)"/>
      <use xlink:href="#DejaVuSans-46" transform="translate(458.503906 0)"/>
      <use xlink:href="#DejaVuSans-72" transform="translate(508.773438 0)"/>
      <use xlink:href="#DejaVuSans-65" transform="translate(547.636719 0)"/>
      <use xlink:href="#DejaVuSans-71" transform="translate(609.160156 0)"/>
      <use xlink:href="#DejaVuSans-75" transform="translate(672.636719 0)"/>
      <use xlink:href="#DejaVuSans-65" transform="translate(736.015625 0)"/>
      <use xlink:href="#DejaVuSans-6e" transform="translate(797.539062 0)"/>
      <use xlink:href="#DejaVuSans-7a" transform="translate(860.917969 0)"/>
      <use xlink:href="#DejaVuSans-20" transform="translate(913.408203 0)"/>
      <use xlink:href="#DejaVuSans-28" transform="translate(945.195312 0)"/>
      <use xlink:href="#DejaVuSans-56" transform="translate(984.208984 0)"/>
      <use xlink:href="#DejaVuSans-b2" transform="translate(1052.617188 0)"/>
      <use xlink:href="#DejaVuSans-2f" transform="translate(1092.705078 0)"/>
      <use xlink:href="#DejaVuSans-48" transform="translate(1126.396484 0)"/>
      <use xlink:href="#DejaVuSans-7a" transform="translate(1201.591797 0)"/>
      <use xlink:href="#DejaVuSans-29" transform="translate(1254.082031 0)"/>
     </g>
    </g>
   </g>
   <g id="line2d_45">
    <path d="M 73.832727 123.291991 
L 74.149773 75.105952 
L 74.466818 59.549576 
L 74.783864 53.568 
L 75.100909 56.992913 
L 75.735 70.468504 
L 76.052045 82.046574 
L 76.369091 87.022961 
L 76.686136 89.593984 
L 77.003182 97.674924 
L 77.320227 98.797706 
L 78.271364 114.181164 
L 78.588409 113.190092 
L 78.905455 113.61863 
L 79.2225 116.608031 
L 79.539545 114.71399 
L 79.856591 115.875988 
L 80.173636 121.332057 
L 80.490682 117.600949 
L 80.807727 118.847434 
L 81.124773 121.88836 
L 81.441818 116.258761 
L 81.758864 115.972486 
L 82.075909 110.295102 
L 82.392955 108.549697 
L 82.71 111.415018 
L 83.027045 115.957823 
L 83.344091 117.770039 
L 83.661136 115.941264 
L 83.978182 118.757443 
L 84.295227 119.593646 
L 84.612273 123.968861 
L 84.929318 126.585533 
L 85.246364 128.101943 
L 85.880455 116.22879 
L 86.831591 119.787464 
L 87.148636 122.683193 
L 87.465682 122.264045 
L 87.782727 119.768968 
L 88.099773 116.387054 
L 88.416818 114.21965 
L 88.733864 117.743152 
L 89.367955 126.621462 
L 90.002045 113.367093 
L 90.319091 113.885153 
L 91.270227 126.578649 
L 91.587273 125.441683 
L 91.904318 127.94047 
L 92.221364 139.082131 
L 92.538409 144.701774 
L 92.855455 139.204455 
L 93.1725 139.863058 
L 93.489545 136.848478 
L 93.806591 128.255507 
L 94.123636 128.302823 
L 94.757727 139.76068 
L 95.074773 143.692504 
L 95.391818 142.90671 
L 95.708864 139.07335 
L 96.025909 137.916873 
L 96.66 144.047532 
L 97.294091 132.088501 
L 97.611136 134.267942 
L 97.928182 137.504724 
L 98.562273 132.65876 
L 98.879318 132.026985 
L 99.196364 135.330826 
L 99.513409 136.665187 
L 99.830455 132.075972 
L 100.1475 129.550164 
L 100.464545 128.285716 
L 100.781591 127.48618 
L 101.098636 133.095612 
L 101.415682 132.0861 
L 102.049773 143.470295 
L 102.366818 132.270025 
L 102.683864 131.842144 
L 103.000909 132.760794 
L 103.317955 135.532627 
L 103.635 132.236222 
L 103.952045 130.262161 
L 104.586136 118.109622 
L 104.903182 122.143555 
L 105.220227 123.440772 
L 105.537273 119.144655 
L 105.854318 119.307031 
L 106.488409 123.278084 
L 106.805455 128.034063 
L 107.1225 134.957655 
L 107.439545 133.18611 
L 107.756591 128.148264 
L 108.073636 127.927975 
L 108.390682 128.428018 
L 108.707727 126.503711 
L 109.024773 126.836045 
L 109.341818 126.209559 
L 109.658864 123.22693 
L 109.975909 125.550322 
L 110.292955 123.148668 
L 110.61 111.492526 
L 110.927045 114.459696 
L 111.244091 119.427574 
L 111.561136 112.335035 
L 112.195227 112.204372 
L 112.512273 111.490344 
L 112.829318 119.088399 
L 113.146364 119.721677 
L 113.463409 118.676224 
L 113.780455 119.526585 
L 114.0975 113.761042 
L 114.414545 114.008114 
L 114.731591 123.365597 
L 115.048636 121.420201 
L 115.999773 101.760766 
L 116.316818 100.356181 
L 116.633864 107.031128 
L 116.950909 107.935805 
L 117.267955 106.421318 
L 117.585 106.806069 
L 117.902045 106.206681 
L 118.219091 104.769463 
L 118.536136 102.512869 
L 118.853182 97.995073 
L 119.170227 100.62974 
L 119.804318 95.085812 
L 120.121364 104.763012 
L 120.438409 109.63953 
L 120.755455 106.609734 
L 121.389545 98.82609 
L 121.706591 96.936687 
L 122.023636 100.440342 
L 122.340682 99.14809 
L 122.657727 98.993776 
L 122.974773 103.773996 
L 123.291818 105.918829 
L 123.925909 116.816575 
L 124.242955 116.749926 
L 124.877045 105.392216 
L 125.194091 103.324867 
L 125.511136 99.473549 
L 125.828182 98.585907 
L 126.462273 101.816422 
L 126.779318 100.348479 
L 127.096364 103.523008 
L 127.413409 102.69339 
L 127.730455 102.667651 
L 128.0475 103.348193 
L 128.364545 100.596691 
L 128.681591 105.317922 
L 128.998636 107.6909 
L 129.315682 102.882391 
L 129.632727 103.060436 
L 129.949773 103.752356 
L 130.266818 100.234702 
L 130.583864 98.874483 
L 130.900909 98.542574 
L 131.535 101.419155 
L 131.852045 101.590747 
L 132.169091 96.508982 
L 132.486136 96.317667 
L 132.803182 99.711185 
L 133.120227 99.961463 
L 133.754318 116.638134 
L 134.071364 106.21762 
L 134.388409 100.975144 
L 134.705455 98.439904 
L 135.0225 104.682044 
L 135.339545 105.062427 
L 135.656591 95.786054 
L 135.973636 95.552652 
L 136.290682 103.282709 
L 136.607727 98.131549 
L 136.924773 98.683728 
L 137.241818 101.713808 
L 137.558864 99.934959 
L 137.875909 98.98628 
L 138.192955 105.679453 
L 138.827045 90.213019 
L 139.461136 96.370443 
L 140.412273 86.23325 
L 140.729318 90.967679 
L 141.046364 89.573924 
L 141.680455 91.748995 
L 141.9975 92.732035 
L 142.314545 94.10518 
L 142.948636 103.501193 
L 143.265682 103.672973 
L 143.582727 101.494385 
L 143.899773 98.21478 
L 144.216818 100.974485 
L 144.533864 94.015995 
L 144.850909 90.794739 
L 145.167955 90.336162 
L 145.802045 88.100109 
L 146.119091 84.787472 
L 146.753182 93.01708 
L 147.070227 87.278142 
L 147.387273 88.915179 
L 147.704318 89.677939 
L 148.021364 92.051323 
L 148.338409 92.615597 
L 148.655455 88.475048 
L 148.9725 86.165623 
L 149.289545 89.27018 
L 149.606591 96.352544 
L 150.240682 105.113738 
L 150.557727 104.526339 
L 151.191818 81.899942 
L 151.508864 88.07308 
L 151.825909 90.253896 
L 152.142955 87.40259 
L 152.46 87.590454 
L 152.777045 85.694409 
L 153.094091 85.515065 
L 153.411136 89.372621 
L 153.728182 98.811844 
L 154.045227 99.113613 
L 154.362273 91.781772 
L 154.679318 93.075653 
L 154.996364 95.044257 
L 155.630455 86.450076 
L 155.9475 86.620105 
L 156.264545 84.375688 
L 156.898636 74.965001 
L 157.215682 72.577188 
L 157.532727 75.762359 
L 157.849773 80.574255 
L 158.166818 83.491281 
L 158.800909 97.079489 
L 159.117955 92.967169 
L 159.435 83.524941 
L 159.752045 82.970232 
L 160.069091 92.256743 
L 160.386136 94.760869 
L 161.020227 84.975359 
L 161.337273 80.530318 
L 161.654318 84.489293 
L 161.971364 84.128761 
L 162.288409 86.1265 
L 162.9225 72.065922 
L 163.239545 71.746924 
L 163.556591 77.38488 
L 163.873636 80.660975 
L 164.190682 80.543092 
L 164.507727 80.025963 
L 165.141818 90.167631 
L 165.458864 93.98287 
L 165.775909 88.677827 
L 166.092955 86.661223 
L 166.41 87.023187 
L 167.044091 77.9973 
L 167.361136 78.506548 
L 167.678182 79.535973 
L 167.995227 77.024411 
L 168.312273 72.381411 
L 168.629318 73.545842 
L 168.946364 80.39103 
L 169.263409 82.952073 
L 169.580455 82.415793 
L 169.8975 84.084959 
L 170.214545 87.918157 
L 170.531591 82.698718 
L 171.165682 66.765602 
L 172.116818 84.090489 
L 172.433864 89.956772 
L 172.750909 92.639369 
L 173.067955 91.195749 
L 173.702045 94.888116 
L 175.287273 76.85783 
L 175.921364 79.433198 
L 176.238409 75.582273 
L 176.555455 73.400929 
L 176.8725 77.660586 
L 177.189545 75.435743 
L 177.506591 75.647352 
L 178.140682 79.705816 
L 178.457727 86.144913 
L 178.774773 88.597737 
L 180.042955 69.25112 
L 180.36 79.626431 
L 180.677045 81.780438 
L 180.994091 77.356295 
L 181.311136 81.521939 
L 181.628182 82.403822 
L 181.945227 84.537307 
L 182.579318 86.687563 
L 182.896364 89.624924 
L 183.213409 89.760036 
L 183.530455 89.393044 
L 183.8475 84.434989 
L 184.164545 82.555533 
L 184.481591 78.81239 
L 184.798636 79.03434 
L 185.115682 81.330697 
L 185.432727 76.41335 
L 186.066818 80.293975 
L 186.700909 90.394763 
L 187.017955 90.116168 
L 187.335 86.893408 
L 187.652045 82.432854 
L 187.969091 76.100503 
L 188.286136 77.770464 
L 188.603182 81.648092 
L 188.920227 76.981662 
L 189.237273 80.568689 
L 189.554318 82.042529 
L 189.871364 77.070972 
L 190.188409 78.862387 
L 190.8225 98.834394 
L 191.139545 94.695088 
L 191.456591 97.942315 
L 191.773636 91.853486 
L 192.090682 88.346059 
L 192.407727 92.284563 
L 193.041818 83.14667 
L 193.358864 86.790419 
L 193.675909 86.420562 
L 193.992955 88.702889 
L 194.31 86.558142 
L 194.627045 88.513493 
L 194.944091 89.078807 
L 195.261136 83.911647 
L 195.578182 80.745555 
L 195.895227 82.008157 
L 196.529318 89.344447 
L 196.846364 88.036894 
L 197.480455 83.095417 
L 197.7975 86.631922 
L 198.114545 87.499794 
L 198.431591 88.905631 
L 198.748636 88.75329 
L 199.065682 89.61161 
L 199.382727 88.657536 
L 199.699773 88.612013 
L 200.016818 85.574824 
L 200.333864 79.151303 
L 201.285 91.21085 
L 201.602045 88.659187 
L 201.919091 87.323831 
L 202.236136 82.88615 
L 202.553182 82.485552 
L 202.870227 84.319822 
L 203.187273 82.52894 
L 203.504318 79.00813 
L 203.821364 79.823227 
L 204.138409 83.700529 
L 204.455455 84.067037 
L 205.089545 88.676344 
L 205.723636 80.433478 
L 206.040682 76.691516 
L 206.357727 76.904893 
L 206.674773 80.166548 
L 207.308864 79.815872 
L 207.625909 79.840416 
L 207.942955 85.22629 
L 208.26 85.804837 
L 208.577045 84.798867 
L 208.894091 82.633221 
L 209.528182 72.370121 
L 209.845227 72.733188 
L 210.162273 78.30592 
L 210.796364 93.488404 
L 211.430455 98.642092 
L 211.7475 98.555929 
L 212.064545 93.432079 
L 212.381591 96.418019 
L 213.015682 81.120957 
L 213.649773 96.879817 
L 213.966818 94.878215 
L 214.283864 94.423695 
L 214.600909 99.751716 
L 214.917955 98.304894 
L 215.235 97.822303 
L 215.552045 97.772952 
L 215.869091 98.134458 
L 216.186136 96.731009 
L 216.503182 96.784513 
L 216.820227 95.314083 
L 217.137273 94.570365 
L 217.454318 89.565584 
L 217.771364 96.750538 
L 218.088409 101.332898 
L 218.405455 93.328057 
L 218.7225 100.901886 
L 219.039545 104.736914 
L 219.356591 100.460499 
L 219.673636 98.330209 
L 219.990682 88.969622 
L 220.307727 84.869924 
L 220.624773 92.849098 
L 220.941818 94.681432 
L 221.258864 95.540014 
L 221.575909 95.947743 
L 222.21 97.936849 
L 222.527045 95.003194 
L 222.844091 95.1574 
L 223.161136 98.447954 
L 223.795227 91.615254 
L 224.112273 91.921511 
L 224.429318 91.351377 
L 224.746364 88.021489 
L 225.063409 88.15002 
L 225.380455 94.105036 
L 225.6975 97.739472 
L 226.014545 97.707877 
L 226.331591 100.473703 
L 226.648636 100.231898 
L 226.965682 88.916743 
L 227.282727 83.355992 
L 227.916818 94.152845 
L 228.233864 93.373192 
L 228.550909 100.284298 
L 228.867955 101.71933 
L 229.185 90.324116 
L 229.502045 82.938312 
L 229.819091 85.058733 
L 230.453182 97.014521 
L 230.770227 107.1285 
L 231.087273 108.15626 
L 231.404318 101.969293 
L 231.721364 101.011832 
L 232.989545 90.536672 
L 233.306591 92.929471 
L 233.940682 101.795681 
L 234.574773 96.389088 
L 234.891818 98.483603 
L 235.208864 96.0646 
L 235.842955 89.773258 
L 236.16 91.480076 
L 236.477045 87.767165 
L 236.794091 85.892482 
L 237.111136 85.388652 
L 237.428182 86.569886 
L 238.062273 101.220037 
L 238.379318 97.050156 
L 238.696364 96.913429 
L 239.013409 95.697311 
L 239.330455 94.925217 
L 239.6475 98.932904 
L 239.964545 97.016724 
L 240.281591 94.246226 
L 240.598636 95.08981 
L 241.232727 100.991878 
L 241.549773 102.790778 
L 241.866818 99.20289 
L 242.183864 99.384383 
L 242.500909 98.006517 
L 242.817955 90.792997 
L 243.135 86.774251 
L 243.769091 98.550912 
L 244.086136 98.555148 
L 244.403182 98.383319 
L 244.720227 94.359723 
L 245.037273 92.339948 
L 245.354318 97.804408 
L 245.671364 96.559265 
L 245.988409 92.378469 
L 246.305455 91.339301 
L 246.6225 89.738102 
L 246.939545 94.841459 
L 247.256591 95.70695 
L 247.573636 94.182705 
L 247.890682 93.890357 
L 248.207727 96.255534 
L 248.524773 110.53363 
L 248.841818 108.373252 
L 249.158864 109.032056 
L 249.475909 106.444472 
L 249.792955 106.575214 
L 250.11 100.950248 
L 250.427045 100.320735 
L 250.744091 98.206142 
L 251.061136 102.626001 
L 251.378182 100.739654 
L 251.695227 100.695836 
L 252.329318 110.805614 
L 252.646364 113.473249 
L 252.963409 102.822501 
L 253.5975 101.583103 
L 253.914545 101.299871 
L 254.231591 103.474634 
L 254.548636 101.054169 
L 255.182727 105.904262 
L 255.499773 105.428515 
L 255.816818 103.321255 
L 256.133864 108.239955 
L 256.450909 111.202409 
L 257.085 103.539159 
L 257.402045 103.981589 
L 257.719091 116.838352 
L 258.036136 115.798028 
L 258.353182 101.524653 
L 258.670227 101.583712 
L 258.987273 103.903698 
L 259.621364 97.770081 
L 259.938409 104.11647 
L 260.255455 106.421862 
L 260.5725 105.193692 
L 261.206591 94.175793 
L 261.523636 91.576085 
L 261.840682 92.176984 
L 262.157727 91.260386 
L 262.474773 91.237848 
L 262.791818 94.32438 
L 263.425909 107.855669 
L 263.742955 111.366878 
L 264.377045 108.61603 
L 264.694091 108.383969 
L 265.011136 102.930816 
L 265.645227 96.362427 
L 265.962273 95.803052 
L 266.279318 102.800198 
L 266.596364 103.183488 
L 266.913409 100.820849 
L 267.230455 101.880353 
L 267.5475 104.864454 
L 267.864545 101.827507 
L 268.181591 97.612435 
L 268.498636 99.400515 
L 268.815682 102.307242 
L 269.132727 109.341692 
L 269.449773 112.889782 
L 270.083864 109.859559 
L 270.400909 113.631978 
L 270.717955 114.887614 
L 271.035 109.459823 
L 271.352045 110.593148 
L 271.669091 114.154557 
L 272.303182 103.242611 
L 272.620227 102.981479 
L 272.937273 102.419977 
L 273.254318 103.217191 
L 273.571364 110.179119 
L 273.888409 114.537981 
L 274.205455 113.022364 
L 274.5225 122.580519 
L 274.839545 115.736426 
L 275.156591 112.732211 
L 275.473636 121.682676 
L 275.790682 122.23043 
L 276.107727 110.729688 
L 276.424773 105.751827 
L 276.741818 110.134491 
L 277.058864 117.008468 
L 277.375909 115.805067 
L 277.692955 117.220783 
L 278.01 116.907523 
L 278.327045 114.447028 
L 278.644091 109.947547 
L 278.961136 113.280725 
L 279.278182 123.641877 
L 279.595227 128.04541 
L 280.229318 113.275797 
L 281.180455 101.059278 
L 281.4975 99.415145 
L 281.814545 102.015152 
L 282.131591 106.231071 
L 282.448636 105.585285 
L 283.082727 118.707206 
L 283.716818 109.386711 
L 284.033864 111.24115 
L 284.350909 115.584654 
L 284.667955 121.846983 
L 284.985 123.523174 
L 285.302045 120.550772 
L 285.619091 116.145066 
L 285.936136 117.409766 
L 286.253182 121.238987 
L 286.570227 123.231323 
L 286.887273 121.066056 
L 287.204318 117.123133 
L 287.521364 116.336649 
L 287.838409 118.897479 
L 288.4725 111.171876 
L 288.789545 110.239144 
L 289.106591 105.034225 
L 289.423636 110.443792 
L 289.740682 124.164202 
L 290.057727 123.677176 
L 290.374773 123.489714 
L 290.691818 126.878213 
L 291.008864 128.932684 
L 291.325909 123.298674 
L 291.642955 111.91002 
L 291.96 109.675377 
L 292.277045 111.011778 
L 292.594091 104.463644 
L 292.911136 100.638344 
L 293.545227 110.67223 
L 293.862273 105.773779 
L 294.179318 107.497308 
L 294.496364 113.333693 
L 294.813409 122.008381 
L 295.130455 119.914366 
L 295.4475 119.950826 
L 295.764545 122.121169 
L 296.081591 119.290202 
L 296.398636 114.257001 
L 296.715682 114.066539 
L 297.032727 119.60863 
L 297.349773 132.43442 
L 297.666818 131.259695 
L 298.300909 115.421751 
L 299.252045 120.723337 
L 299.569091 124.481332 
L 299.886136 126.747021 
L 300.203182 125.521629 
L 300.520227 127.378081 
L 300.837273 126.865602 
L 301.471364 120.047789 
L 302.105455 122.164005 
L 302.4225 120.595491 
L 302.739545 120.556454 
L 303.056591 122.100376 
L 303.690682 114.603373 
L 304.007727 118.710758 
L 304.324773 117.945376 
L 304.641818 118.846882 
L 304.958864 118.287454 
L 305.275909 115.363831 
L 305.592955 125.085915 
L 305.91 127.565774 
L 306.227045 115.156461 
L 306.544091 113.348737 
L 306.861136 117.073803 
L 307.178182 113.373375 
L 307.495227 111.81611 
L 307.812273 111.902265 
L 308.129318 112.319963 
L 308.446364 113.20897 
L 308.763409 118.008569 
L 309.080455 124.791897 
L 309.3975 127.056899 
L 309.714545 127.331035 
L 310.031591 122.191219 
L 310.348636 119.169937 
L 310.665682 123.087276 
L 310.982727 122.324563 
L 311.616818 137.44197 
L 311.933864 135.233008 
L 312.250909 129.630434 
L 312.567955 129.774639 
L 312.885 131.644648 
L 313.202045 132.466549 
L 313.519091 135.672813 
L 313.836136 134.978111 
L 314.470227 125.291603 
L 314.787273 120.939208 
L 315.104318 126.347384 
L 315.421364 137.015561 
L 315.738409 134.210845 
L 316.055455 124.91024 
L 316.3725 122.453831 
L 316.689545 125.611977 
L 317.006591 129.911857 
L 317.323636 131.797033 
L 317.640682 130.51822 
L 318.274773 137.975049 
L 318.591818 134.806423 
L 318.908864 129.908185 
L 319.225909 130.323566 
L 319.542955 137.780728 
L 319.86 135.602583 
L 320.177045 135.771931 
L 320.811136 124.011801 
L 321.445227 134.971588 
L 321.762273 133.889154 
L 322.396364 118.047778 
L 323.030455 121.725632 
L 323.3475 132.994106 
L 323.664545 138.594875 
L 323.981591 138.89875 
L 324.298636 137.610535 
L 324.615682 132.234508 
L 324.932727 132.580595 
L 325.566818 149.95746 
L 326.200909 144.322431 
L 326.517955 140.587763 
L 326.835 147.446179 
L 327.152045 148.349694 
L 327.786136 144.729499 
L 328.103182 144.033614 
L 328.737273 135.883583 
L 329.054318 133.738904 
L 329.688409 144.131036 
L 330.005455 144.602658 
L 330.639545 127.686128 
L 330.956591 129.809268 
L 331.273636 134.970399 
L 331.590682 132.387608 
L 332.224773 129.180837 
L 332.541818 126.30202 
L 332.858864 125.959815 
L 333.492955 131.573708 
L 334.127045 126.352155 
L 334.444091 126.928477 
L 334.761136 130.056616 
L 335.078182 131.76545 
L 335.395227 134.980077 
L 335.712273 135.849109 
L 336.029318 139.522677 
L 336.346364 138.713204 
L 336.663409 136.850929 
L 336.980455 131.027289 
L 337.2975 128.894922 
L 337.931591 143.954844 
L 338.248636 149.043378 
L 338.565682 146.611962 
L 338.882727 145.532191 
L 339.199773 150.678103 
L 340.150909 140.831576 
L 340.467955 143.254428 
L 340.785 136.188494 
L 341.102045 134.740191 
L 341.419091 139.533438 
L 341.736136 141.635087 
L 342.370227 159.747007 
L 342.687273 157.960204 
L 343.321364 148.088631 
L 343.638409 148.379536 
L 344.2725 140.423295 
L 344.589545 141.226768 
L 344.906591 142.541349 
L 345.223636 145.62261 
L 345.540682 145.453453 
L 345.857727 141.358292 
L 346.174773 140.365805 
L 346.491818 149.308811 
L 347.125909 140.131048 
L 347.442955 139.922447 
L 347.76 138.037601 
L 348.077045 138.104297 
L 348.394091 142.287321 
L 348.711136 142.314227 
L 349.028182 141.015135 
L 349.345227 141.151628 
L 349.662273 139.34522 
L 349.979318 141.528175 
L 350.296364 150.660258 
L 350.613409 153.316091 
L 350.930455 147.282191 
L 351.2475 144.837318 
L 351.564545 148.927313 
L 351.881591 154.667099 
L 352.198636 156.729574 
L 352.832727 148.415314 
L 353.466818 137.856538 
L 353.783864 142.959422 
L 354.100909 154.183223 
L 354.417955 158.181938 
L 355.052045 141.939433 
L 355.686136 149.584708 
L 356.003182 155.602913 
L 356.320227 158.586581 
L 356.637273 160.096111 
L 356.954318 156.030606 
L 357.588409 141.576459 
L 357.905455 139.718611 
L 358.2225 139.907035 
L 358.539545 138.579547 
L 358.856591 141.771016 
L 359.173636 147.923189 
L 359.490682 151.568787 
L 359.807727 152.089714 
L 360.124773 155.995067 
L 360.758864 167.63096 
L 361.075909 161.609428 
L 361.392955 149.521864 
L 361.71 142.387014 
L 362.344091 153.847801 
L 362.661136 149.251774 
L 362.978182 149.636188 
L 363.295227 152.461132 
L 363.612273 144.946365 
L 363.929318 143.817275 
L 364.563409 150.031282 
L 364.880455 147.434701 
L 365.514545 150.684183 
L 365.831591 151.484876 
L 366.148636 163.36342 
L 366.465682 166.272383 
L 366.782727 159.58378 
L 367.416818 152.546071 
L 367.733864 152.612811 
L 368.050909 155.374391 
L 368.367955 151.589572 
L 369.319091 153.390107 
L 369.636136 157.311893 
L 370.270227 151.082932 
L 370.587273 157.085438 
L 370.904318 160.64575 
L 371.221364 157.587605 
L 371.538409 157.455269 
L 372.1725 161.048202 
L 372.806591 151.505124 
L 373.123636 153.407379 
L 373.440682 152.361611 
L 373.757727 145.803732 
L 374.074773 144.815837 
L 374.708864 158.735685 
L 375.025909 157.42698 
L 375.977045 143.756784 
L 376.294091 147.537076 
L 376.928182 163.219305 
L 377.245227 162.668514 
L 377.562273 159.007343 
L 377.879318 162.203183 
L 378.196364 162.595856 
L 378.513409 159.808526 
L 378.830455 165.283307 
L 379.1475 172.77803 
L 379.464545 170.545029 
L 379.781591 164.885139 
L 380.098636 152.682897 
L 380.415682 148.926413 
L 380.732727 152.467626 
L 381.049773 151.856237 
L 381.366818 155.986661 
L 381.683864 152.222793 
L 382.000909 152.38171 
L 382.317955 155.484053 
L 382.635 152.607662 
L 382.952045 151.441715 
L 383.269091 162.615126 
L 383.586136 169.821965 
L 383.903182 170.070416 
L 384.537273 158.115149 
L 385.171364 167.434562 
L 385.488409 168.680078 
L 385.805455 172.689986 
L 386.1225 173.792058 
L 386.439545 171.864236 
L 386.756591 164.752402 
L 387.073636 166.170328 
L 387.390682 163.774845 
L 387.707727 157.478845 
L 388.024773 155.382553 
L 388.658864 149.040968 
L 388.975909 149.09842 
L 389.61 166.557488 
L 389.927045 171.217527 
L 390.244091 169.335622 
L 390.561136 161.867627 
L 390.878182 159.431962 
L 391.195227 164.748113 
L 391.512273 162.513712 
L 391.829318 152.828962 
L 392.146364 151.887001 
L 392.463409 153.525565 
L 393.0975 157.500628 
L 393.414545 157.108653 
L 393.731591 157.309408 
L 394.048636 159.621358 
L 394.365682 165.696298 
L 394.682727 168.941029 
L 394.999773 170.706651 
L 395.316818 166.473467 
L 395.633864 167.415422 
L 395.950909 167.105299 
L 396.267955 169.78048 
L 396.585 176.654192 
L 396.902045 169.883404 
L 397.219091 166.63373 
L 397.536136 170.172922 
L 397.853182 171.908925 
L 398.170227 168.752122 
L 398.487273 190.013039 
L 398.487273 190.013039 
" clip-path="url(#p65df7da906)" style="fill: none; stroke: #0000ff; stroke-width: 1.5; stroke-linecap: square"/>
   </g>
   <g id="line2d_46">
    <path d="M 73.832727 216.165798 
L 74.030881 242.262191 
L 74.229034 295.488 
L 74.625341 93.192462 
L 74.823494 65.314858 
L 75.021648 62.34481 
L 75.219801 66.03429 
L 75.417955 64.681918 
L 75.616108 68.090253 
L 76.012415 82.897555 
L 76.210568 85.099121 
L 76.408722 92.185049 
L 76.606875 91.693728 
L 76.805028 91.584454 
L 77.003182 99.503788 
L 77.201335 100.371306 
L 77.399489 100.165056 
L 78.192102 115.431432 
L 78.390256 113.43929 
L 78.588409 115.426911 
L 78.786563 110.548023 
L 78.984716 116.050457 
L 79.182869 116.694064 
L 79.579176 115.855498 
L 79.77733 115.768726 
L 79.975483 120.178799 
L 80.173636 119.998681 
L 80.37179 120.897116 
L 80.569943 115.396915 
L 80.768097 118.28003 
L 80.96625 123.947977 
L 81.164403 124.317512 
L 81.56071 115.72602 
L 81.758864 115.137496 
L 82.15517 107.475085 
L 82.551477 104.83765 
L 82.947784 115.942744 
L 83.145938 115.034794 
L 83.344091 120.645903 
L 83.542244 117.535811 
L 83.740398 110.257724 
L 83.938551 117.673829 
L 84.334858 120.187386 
L 84.533011 124.485926 
L 84.731165 122.755973 
L 85.127472 128.047668 
L 85.325625 128.291084 
L 85.721932 115.757468 
L 85.920085 120.154187 
L 86.118239 114.158738 
L 86.316392 116.976213 
L 86.514545 118.15221 
L 86.712699 117.49905 
L 86.910852 122.795769 
L 87.109006 121.157554 
L 87.307159 124.290788 
L 87.505313 121.539444 
L 87.703466 122.012233 
L 87.901619 120.978019 
L 88.099773 118.316762 
L 88.297926 113.6603 
L 88.49608 112.999095 
L 89.09054 123.118579 
L 89.288693 130.211782 
L 89.486847 129.951859 
L 89.883153 113.715775 
L 90.081307 114.601259 
L 90.27946 113.021469 
L 90.477614 117.151031 
L 90.675767 118.456449 
L 91.072074 126.301258 
L 91.468381 127.812921 
L 91.666534 124.188691 
L 91.864688 126.05626 
L 92.062841 135.970403 
L 92.260994 139.897046 
L 92.459148 146.821742 
L 92.855455 139.20365 
L 93.053608 139.620775 
L 93.449915 144.169422 
L 93.648068 130.698456 
L 93.846222 129.845447 
L 94.242528 132.94836 
L 94.440682 139.57598 
L 95.035142 146.263943 
L 95.431449 142.001362 
L 95.629602 139.769076 
L 95.827756 135.831859 
L 96.025909 137.442407 
L 96.620369 145.650263 
L 96.818523 144.948475 
L 97.21483 132.234817 
L 97.412983 133.662614 
L 97.80929 143.215489 
L 98.205597 137.395002 
L 98.40375 136.142758 
L 98.601903 136.508877 
L 98.800057 130.349547 
L 99.196364 135.595611 
L 99.394517 135.088464 
L 99.59267 136.589203 
L 99.790824 134.488907 
L 99.988977 131.006653 
L 100.187131 130.589273 
L 100.385284 128.450594 
L 100.583438 129.60387 
L 100.781591 132.656485 
L 100.979744 129.78369 
L 101.177898 138.419006 
L 101.376051 136.775891 
L 101.574205 131.493293 
L 101.772358 145.224826 
L 101.970511 147.106572 
L 102.564972 127.789881 
L 102.763125 132.955098 
L 102.961278 132.932839 
L 103.159432 134.687093 
L 103.357585 139.256705 
L 103.555739 132.878673 
L 104.150199 130.490199 
L 104.348352 127.062813 
L 104.546506 120.210958 
L 104.744659 121.582889 
L 105.140966 131.937236 
L 105.339119 124.466774 
L 105.537273 124.182882 
L 105.735426 122.693566 
L 106.131733 126.559687 
L 106.726193 129.321871 
L 106.924347 129.558923 
L 107.1225 134.264203 
L 107.320653 133.587176 
L 107.518807 134.729377 
L 107.71696 129.587112 
L 107.915114 130.935789 
L 108.113267 134.94359 
L 108.509574 132.13315 
L 108.707727 124.736134 
L 108.905881 127.573715 
L 109.104034 126.90392 
L 109.302188 128.103016 
L 109.500341 123.426565 
L 109.896648 126.103898 
L 110.094801 134.408565 
L 110.689261 111.717202 
L 111.085568 125.155724 
L 111.283722 121.834903 
L 111.680028 111.956768 
L 111.878182 113.111086 
L 112.076335 113.016008 
L 112.274489 117.720885 
L 112.472642 115.066034 
L 113.067102 126.452224 
L 113.265256 119.396075 
L 113.463409 120.991297 
L 113.661563 126.470118 
L 114.256023 117.734435 
L 114.454176 119.035364 
L 114.850483 126.949425 
L 115.048636 124.416641 
L 115.444943 114.350183 
L 115.643097 114.375653 
L 115.84125 107.572126 
L 116.039403 104.744401 
L 116.237557 103.991364 
L 116.633864 112.331201 
L 116.832017 111.14241 
L 117.03017 113.648133 
L 117.228324 109.236906 
L 117.426477 112.882625 
L 117.624631 114.144221 
L 118.219091 106.966231 
L 118.417244 115.16422 
L 118.615398 111.282983 
L 118.813551 98.834151 
L 119.011705 102.32624 
L 119.209858 102.031178 
L 119.408011 104.653875 
L 119.804318 93.491746 
L 120.200625 117.93094 
L 120.398778 115.85319 
L 120.795085 102.951613 
L 120.993239 100.961009 
L 121.191392 107.438806 
L 121.389545 104.724831 
L 121.587699 100.109196 
L 121.785852 99.453982 
L 121.984006 107.708844 
L 122.182159 108.991079 
L 122.380313 106.96974 
L 122.578466 102.137837 
L 122.776619 104.932178 
L 122.974773 112.506482 
L 123.172926 108.34644 
L 123.37108 111.426134 
L 123.569233 111.719114 
L 123.767386 118.66469 
L 123.96554 115.875156 
L 124.163693 121.550669 
L 124.56 110.412189 
L 124.758153 111.050977 
L 124.956307 110.029935 
L 125.15446 113.34985 
L 125.352614 106.43738 
L 125.550767 103.885532 
L 125.74892 103.252275 
L 125.947074 101.103111 
L 126.145227 102.65779 
L 126.541534 109.269166 
L 126.739688 103.774083 
L 127.135994 110.226195 
L 127.532301 102.493955 
L 127.928608 110.390859 
L 128.324915 104.577537 
L 128.919375 114.712088 
L 129.315682 103.732407 
L 129.513835 103.680578 
L 129.711989 109.11153 
L 129.910142 109.251368 
L 130.306449 102.402914 
L 130.504602 104.423228 
L 130.702756 102.753518 
L 130.900909 102.354103 
L 131.099063 106.514626 
L 131.297216 102.21277 
L 131.495369 103.805085 
L 131.693523 101.684085 
L 131.891676 101.185564 
L 132.08983 95.011997 
L 132.287983 100.472794 
L 132.68429 96.35551 
L 132.882443 101.255544 
L 133.080597 98.19834 
L 133.27875 102.205606 
L 133.675057 123.195039 
L 133.87321 118.776989 
L 134.071364 108.379413 
L 134.269517 108.107343 
L 134.46767 109.548671 
L 134.863977 100.31964 
L 135.062131 110.810915 
L 135.854744 91.447275 
L 136.052898 96.589899 
L 136.251051 108.569092 
L 136.647358 98.227522 
L 136.845511 103.011864 
L 137.043665 99.524068 
L 137.241818 103.926454 
L 137.439972 104.161855 
L 137.638125 97.432443 
L 137.836278 94.836078 
L 138.232585 112.376477 
L 138.827045 85.508198 
L 139.421506 99.266395 
L 139.817813 94.544218 
L 140.015966 95.178338 
L 140.214119 89.137205 
L 140.412273 88.237164 
L 140.80858 93.686396 
L 141.006733 90.909145 
L 141.204886 91.431238 
L 141.601193 95.398446 
L 141.799347 94.949839 
L 142.195653 100.756014 
L 142.393807 95.640371 
L 142.59196 99.572001 
L 142.790114 106.164304 
L 142.988267 107.476586 
L 143.18642 106.672662 
L 143.384574 104.3851 
L 143.582727 105.450825 
L 143.780881 99.738205 
L 144.177188 111.546909 
L 144.573494 92.423551 
L 144.771648 91.097109 
L 144.969801 96.590599 
L 145.167955 94.726131 
L 145.366108 94.321359 
L 145.762415 91.401828 
L 145.960568 85.819707 
L 146.158722 86.158074 
L 146.356875 87.722089 
L 146.555028 96.724369 
L 146.753182 100.43816 
L 146.951335 91.579606 
L 147.149489 88.435919 
L 147.347642 89.090542 
L 147.545795 91.082696 
L 147.942102 98.728089 
L 148.140256 99.308682 
L 148.338409 98.602833 
L 148.536563 93.584721 
L 148.734716 96.352792 
L 148.932869 89.233923 
L 149.131023 90.407273 
L 149.52733 96.559063 
L 149.725483 103.108706 
L 150.12179 102.702612 
L 150.319943 109.848554 
L 150.518097 102.217508 
L 150.71625 102.25991 
L 151.112557 83.717443 
L 151.31071 92.870092 
L 151.508864 89.47167 
L 151.707017 94.522782 
L 151.90517 87.764935 
L 152.103324 85.436158 
L 152.301477 90.112904 
L 152.499631 90.359644 
L 152.697784 93.280113 
L 153.292244 86.75954 
L 153.490398 88.579738 
L 153.886705 107.253699 
L 154.084858 106.589829 
L 154.283011 93.599105 
L 154.481165 88.86416 
L 154.679318 90.345793 
L 154.877472 98.789562 
L 155.075625 97.221032 
L 155.273778 96.862477 
L 155.471932 86.837569 
L 155.670085 92.105238 
L 155.868239 90.916306 
L 156.066392 91.717925 
L 156.462699 88.034971 
L 156.660852 81.672902 
L 156.859006 80.344561 
L 157.057159 76.589108 
L 157.255313 75.804049 
L 157.453466 75.808552 
L 157.849773 85.428561 
L 158.047926 84.43095 
L 158.24608 84.736124 
L 158.84054 97.167382 
L 159.236847 97.860711 
L 159.435 88.605873 
L 159.633153 86.531978 
L 159.831307 82.007043 
L 160.227614 94.119852 
L 160.425767 96.105537 
L 160.62392 90.666304 
L 160.822074 89.778792 
L 161.020227 86.946982 
L 161.218381 82.474618 
L 161.416534 83.935799 
L 161.614688 90.590111 
L 161.812841 88.543145 
L 162.010994 83.291919 
L 162.407301 91.839729 
L 162.605455 80.39549 
L 162.803608 78.47057 
L 163.199915 73.161043 
L 163.398068 75.705899 
L 163.596222 81.340493 
L 163.794375 80.883838 
L 163.992528 83.668465 
L 164.190682 83.267018 
L 164.388835 83.329872 
L 164.586989 86.080397 
L 164.785142 96.828688 
L 164.983295 97.307433 
L 165.181449 93.146908 
L 165.379602 93.263412 
L 165.577756 92.464321 
L 165.775909 89.267551 
L 165.974063 91.3669 
L 166.172216 90.442241 
L 166.370369 100.291541 
L 166.568523 97.385977 
L 166.766676 84.668704 
L 166.96483 80.160126 
L 167.162983 82.526885 
L 167.361136 81.62002 
L 167.55929 82.366521 
L 167.757443 82.619087 
L 167.955597 83.520018 
L 168.15375 82.192295 
L 168.351903 79.482942 
L 168.550057 73.140399 
L 169.144517 91.558572 
L 169.34267 85.134837 
L 169.540824 84.723469 
L 169.738977 81.328836 
L 170.333438 90.666164 
L 170.729744 82.878155 
L 170.927898 78.920388 
L 171.126051 68.325714 
L 171.324205 70.386441 
L 171.720511 87.821565 
L 171.918665 87.343842 
L 172.116818 88.942716 
L 172.513125 95.979084 
L 172.711278 90.300102 
L 172.909432 97.265795 
L 173.107585 94.017341 
L 173.305739 95.307027 
L 173.503892 97.451063 
L 173.702045 93.247314 
L 173.900199 98.438045 
L 174.296506 89.330434 
L 174.494659 88.592187 
L 174.890966 79.629641 
L 175.089119 82.482355 
L 175.287273 78.485213 
L 175.68358 82.809907 
L 175.881733 85.515942 
L 176.079886 79.987219 
L 176.27804 83.452642 
L 176.476193 74.278336 
L 176.674347 83.526909 
L 176.8725 84.960918 
L 177.268807 79.865829 
L 177.46696 78.75647 
L 177.863267 81.51325 
L 178.06142 80.383939 
L 178.655881 95.266325 
L 178.854034 88.958638 
L 179.052188 89.501076 
L 179.250341 79.864051 
L 179.448494 82.025654 
L 179.646648 82.140158 
L 180.042955 70.010012 
L 180.637415 85.15619 
L 180.835568 79.611882 
L 181.033722 85.931379 
L 181.231875 84.397393 
L 181.430028 89.309543 
L 181.628182 83.656647 
L 182.024489 82.432461 
L 182.222642 82.962162 
L 182.420795 83.990792 
L 183.015256 93.05261 
L 183.213409 91.374721 
L 183.411563 95.73879 
L 183.609716 90.605114 
L 183.807869 89.094542 
L 184.006023 89.253514 
L 184.204176 87.653378 
L 184.40233 84.440253 
L 184.600483 76.436953 
L 184.99679 83.840774 
L 185.194943 81.999371 
L 185.393097 77.323163 
L 185.59125 77.29059 
L 186.18571 85.953118 
L 186.383864 98.959922 
L 186.582017 92.58157 
L 186.78017 98.313338 
L 186.978324 91.180836 
L 187.176477 91.983635 
L 187.770938 87.985953 
L 187.969091 77.693077 
L 188.563551 90.612843 
L 188.959858 76.050558 
L 189.356165 90.503221 
L 189.554318 89.945082 
L 189.752472 86.386343 
L 189.950625 77.383994 
L 190.346932 88.222388 
L 190.545085 100.782322 
L 190.743239 100.155766 
L 190.941392 101.073353 
L 191.139545 94.455476 
L 191.337699 94.557114 
L 191.535852 100.731916 
L 191.734006 94.80357 
L 191.932159 84.523982 
L 192.328466 97.084682 
L 192.724773 94.610669 
L 192.922926 88.444736 
L 193.12108 86.565177 
L 193.319233 94.840002 
L 193.517386 88.607407 
L 193.913693 90.151026 
L 194.111847 94.380121 
L 194.31 89.164894 
L 194.508153 91.069874 
L 194.706307 94.068164 
L 194.90446 94.16291 
L 195.102614 83.153286 
L 195.300767 84.766008 
L 195.49892 83.619442 
L 195.697074 78.887167 
L 195.895227 84.656582 
L 196.093381 84.718637 
L 196.291534 94.656885 
L 196.489688 96.912521 
L 196.885994 90.024556 
L 197.084148 88.912379 
L 197.282301 89.840367 
L 197.480455 84.160743 
L 197.678608 86.998498 
L 197.876761 93.687782 
L 198.074915 88.005465 
L 198.471222 92.808297 
L 198.669375 91.644411 
L 198.867528 92.078242 
L 199.065682 97.000706 
L 199.263835 90.952226 
L 199.461989 90.012915 
L 199.660142 89.775632 
L 199.858295 84.733503 
L 200.056449 84.208921 
L 200.254602 78.079369 
L 200.452756 78.805934 
L 200.650909 89.064215 
L 200.849063 87.403854 
L 201.047216 95.289407 
L 201.245369 94.307486 
L 201.443523 94.155235 
L 201.641676 87.652403 
L 201.83983 92.244514 
L 202.037983 102.820789 
L 202.43429 84.428559 
L 202.632443 83.83588 
L 202.830597 94.140235 
L 203.02875 92.902464 
L 203.226903 84.710985 
L 203.62321 79.645435 
L 204.019517 85.642717 
L 204.21767 81.130098 
L 204.613977 79.956977 
L 204.812131 90.973545 
L 205.010284 94.566838 
L 205.406591 81.140786 
L 205.604744 81.287039 
L 205.802898 90.703816 
L 206.199205 76.597686 
L 206.397358 79.941714 
L 206.595511 89.383309 
L 206.793665 84.945943 
L 207.189972 83.516937 
L 207.784432 87.959206 
L 207.982585 93.042073 
L 208.378892 87.468287 
L 208.775199 86.203867 
L 209.171506 81.553036 
L 209.369659 79.630295 
L 209.567813 72.011038 
L 209.765966 77.147729 
L 209.964119 78.277192 
L 210.162273 90.576735 
L 210.55858 93.370116 
L 210.756733 105.506469 
L 210.954886 110.006198 
L 211.351193 97.556511 
L 211.549347 104.973615 
L 212.143807 90.486116 
L 212.34196 97.512296 
L 212.540114 96.069519 
L 212.738267 85.037248 
L 212.93642 80.970609 
L 213.530881 104.699626 
L 213.729034 100.029387 
L 213.927188 98.205328 
L 214.125341 97.464236 
L 214.521648 105.807295 
L 214.719801 106.383264 
L 214.917955 101.873792 
L 215.116108 104.226701 
L 215.314261 102.975287 
L 215.512415 104.573067 
L 215.908722 100.829275 
L 216.106875 95.98692 
L 216.305028 98.417455 
L 216.503182 98.081299 
L 216.899489 96.799851 
L 217.097642 101.202563 
L 217.295795 94.103462 
L 217.493949 92.452001 
L 218.088409 106.972146 
L 218.286563 93.083069 
L 218.484716 95.307021 
L 218.881023 105.748592 
L 219.079176 105.180581 
L 219.475483 98.825924 
L 219.673636 97.999469 
L 219.87179 93.634202 
L 220.268097 79.325933 
L 220.664403 97.479001 
L 221.06071 94.492654 
L 221.258864 96.977209 
L 221.457017 96.800208 
L 221.65517 91.975534 
L 221.853324 94.44636 
L 222.051477 105.770454 
L 222.249631 110.063211 
L 222.447784 104.382338 
L 222.645938 92.926064 
L 222.844091 95.003861 
L 223.042244 100.75709 
L 223.240398 100.182821 
L 223.636705 93.551483 
L 223.834858 96.808347 
L 224.033011 92.195274 
L 224.231165 93.213357 
L 224.429318 96.749405 
L 225.023778 86.380305 
L 225.420085 101.895151 
L 225.618239 106.794886 
L 225.816392 102.132789 
L 226.014545 94.379997 
L 226.410852 102.573396 
L 226.609006 104.936996 
L 226.807159 101.542924 
L 227.005313 88.987189 
L 227.203466 92.797496 
L 227.401619 82.340934 
L 227.599773 94.297002 
L 227.99608 101.502513 
L 228.194233 95.922071 
L 228.392386 104.012197 
L 228.788693 109.275687 
L 229.185 96.250371 
L 229.581307 85.553254 
L 229.77946 85.819775 
L 230.175767 99.402919 
L 230.37392 100.112959 
L 230.968381 114.965159 
L 231.166534 105.535749 
L 231.364688 106.623775 
L 231.562841 101.512971 
L 231.959148 107.398533 
L 232.355455 98.43397 
L 232.553608 98.390615 
L 232.949915 90.258146 
L 233.148068 96.367025 
L 233.346222 97.433549 
L 233.544375 104.582072 
L 233.742528 104.715516 
L 234.138835 101.812866 
L 234.336989 101.119945 
L 234.535142 99.569543 
L 234.733295 99.447149 
L 234.931449 101.10092 
L 235.129602 100.193658 
L 235.327756 95.436692 
L 235.724063 93.419502 
L 235.922216 90.741544 
L 236.120369 96.635552 
L 236.318523 95.722293 
L 236.516676 88.656759 
L 236.71483 91.645505 
L 236.912983 97.828514 
L 237.111136 90.014575 
L 237.30929 93.254344 
L 237.507443 92.776838 
L 237.90375 103.937579 
L 238.101903 102.745671 
L 238.300057 95.796038 
L 238.49821 95.960833 
L 238.696364 104.850852 
L 238.894517 101.742204 
L 239.09267 103.828696 
L 239.290824 99.839376 
L 239.488977 101.22442 
L 239.687131 104.471427 
L 239.885284 102.141905 
L 240.083438 96.286922 
L 240.281591 103.643016 
L 240.479744 103.539659 
L 240.677898 101.343018 
L 240.876051 101.58289 
L 241.074205 102.287333 
L 241.272358 107.074195 
L 241.470511 107.846418 
L 241.668665 104.388151 
L 241.866818 98.911981 
L 242.064972 101.290012 
L 242.461278 112.508587 
L 242.659432 106.322812 
L 243.055739 90.492985 
L 243.253892 92.460437 
L 243.848352 109.507155 
L 244.046506 104.674412 
L 244.244659 110.415788 
L 244.442813 110.567245 
L 244.839119 105.13113 
L 245.037273 98.573206 
L 245.43358 112.990524 
L 245.631733 107.840529 
L 245.829886 97.09073 
L 246.02804 100.085973 
L 246.226193 99.433875 
L 246.424347 99.769078 
L 246.6225 95.40834 
L 246.820653 99.101595 
L 247.018807 105.889512 
L 247.415114 97.076672 
L 247.613267 98.103772 
L 247.81142 101.208062 
L 248.009574 97.901145 
L 248.207727 99.705426 
L 248.405881 117.833095 
L 248.604034 118.565065 
L 249.000341 107.50784 
L 249.198494 113.199178 
L 249.396648 111.812211 
L 249.594801 113.361566 
L 249.792955 115.819772 
L 250.189261 103.070207 
L 250.585568 113.257507 
L 250.783722 109.716305 
L 250.981875 101.757092 
L 251.180028 114.508268 
L 251.576335 103.260518 
L 251.972642 115.585571 
L 252.170795 117.875608 
L 252.567102 132.823203 
L 252.963409 107.993834 
L 253.161563 109.26478 
L 253.359716 114.058298 
L 253.756023 110.176643 
L 253.954176 110.905824 
L 254.15233 119.008569 
L 254.350483 120.218906 
L 254.548636 110.591512 
L 254.74679 112.641415 
L 254.944943 119.776185 
L 255.143097 121.412887 
L 255.34125 120.951275 
L 255.539403 120.151325 
L 255.737557 115.01853 
L 255.93571 121.210571 
L 256.133864 123.191933 
L 256.53017 129.343663 
L 256.728324 124.30291 
L 256.926477 125.61619 
L 257.322784 116.357769 
L 257.917244 137.427686 
L 258.313551 118.689259 
L 258.511705 119.333161 
L 258.709858 121.625913 
L 258.908011 119.057632 
L 259.106165 121.244266 
L 259.304318 121.018966 
L 259.502472 121.353997 
L 259.700625 121.254619 
L 259.898778 128.991286 
L 260.096932 127.580966 
L 260.295085 128.816674 
L 260.493239 128.626092 
L 260.889545 126.567118 
L 261.087699 126.581134 
L 261.484006 114.041284 
L 261.682159 119.314285 
L 261.880313 120.80124 
L 262.078466 119.393945 
L 262.276619 116.535396 
L 262.474773 116.524041 
L 262.672926 120.700076 
L 262.87108 130.584874 
L 263.069233 126.554757 
L 263.267386 133.339596 
L 263.46554 135.161064 
L 263.663693 140.989708 
L 263.861847 140.175692 
L 264.06 132.506158 
L 264.258153 136.513634 
L 264.65446 137.968779 
L 264.852614 138.346642 
L 265.050767 136.46629 
L 265.24892 141.188587 
L 265.447074 137.578536 
L 265.645227 136.140284 
L 265.843381 133.384569 
L 266.041534 140.656476 
L 266.239688 143.729979 
L 266.437841 149.026905 
L 266.635994 143.463139 
L 267.032301 141.177091 
L 267.230455 144.506429 
L 267.428608 152.518142 
L 267.626761 148.464813 
L 267.824915 147.642295 
L 268.023068 142.241042 
L 268.221222 140.91416 
L 268.419375 146.335753 
L 268.617528 146.860444 
L 268.815682 147.856794 
L 269.013835 156.573691 
L 269.211989 160.329053 
L 269.410142 160.313818 
L 269.806449 164.724444 
L 270.202756 162.809951 
L 270.599063 175.387433 
L 270.995369 164.340681 
L 271.193523 169.785291 
L 271.391676 171.792783 
L 271.58983 172.449479 
L 271.787983 167.825776 
L 271.986136 166.692849 
L 272.18429 166.313936 
L 272.382443 166.697754 
L 272.580597 168.603096 
L 272.77875 168.430618 
L 272.976903 164.110843 
L 273.769517 183.951865 
L 274.363977 176.983677 
L 274.562131 177.535525 
L 274.760284 169.31761 
L 275.156591 173.258846 
L 275.354744 187.45326 
L 275.552898 186.206034 
L 275.751051 194.679979 
L 275.949205 189.791066 
L 276.147358 188.101969 
L 276.543665 175.989645 
L 276.741818 196.672746 
L 276.741818 196.672746 
" clip-path="url(#p65df7da906)" style="fill: none; stroke: #ffa500; stroke-width: 1.5; stroke-linecap: square"/>
   </g>
   <g id="patch_3">
    <path d="M 57.6 307.584 
L 57.6 41.472 
" style="fill: none; stroke: #000000; stroke-width: 0.8; stroke-linejoin: miter; stroke-linecap: square"/>
   </g>
   <g id="patch_4">
    <path d="M 414.72 307.584 
L 414.72 41.472 
" style="fill: none; stroke: #000000; stroke-width: 0.8; stroke-linejoin: miter; stroke-linecap: square"/>
   </g>
   <g id="patch_5">
    <path d="M 57.6 307.584 
L 414.72 307.584 
" style="fill: none; stroke: #000000; stroke-width: 0.8; stroke-linejoin: miter; stroke-linecap: square"/>
   </g>
   <g id="patch_6">
    <path d="M 57.6 41.472 
L 414.72 41.472 
" style="fill: none; stroke: #000000; stroke-width: 0.8; stroke-linejoin: miter; stroke-linecap: square"/>
   </g>
   <g id="text_16">
    <!-- Power Spektrum des EEG Signals von Kanal CZ-C4 -->
    <g transform="translate(84.965625 35.472) scale(0.12 -0.12)">
     <defs>
      <path id="DejaVuSans-50" d="M 1259 4147 
L 1259 2394 
L 2053 2394 
Q 2494 2394 2734 2622 
Q 2975 2850 2975 3272 
Q 2975 3691 2734 3919 
Q 2494 4147 2053 4147 
L 1259 4147 
z
M 628 4666 
L 2053 4666 
Q 2838 4666 3239 4311 
Q 3641 3956 3641 3272 
Q 3641 2581 3239 2228 
Q 2838 1875 2053 1875 
L 1259 1875 
L 1259 0 
L 628 0 
L 628 4666 
z
" transform="scale(0.015625)"/>
      <path id="DejaVuSans-6f" d="M 1959 3097 
Q 1497 3097 1228 2736 
Q 959 2375 959 1747 
Q 959 1119 1226 758 
Q 1494 397 1959 397 
Q 2419 397 2687 759 
Q 2956 1122 2956 1747 
Q 2956 2369 2687 2733 
Q 2419 3097 1959 3097 
z
M 1959 3584 
Q 2709 3584 3137 3096 
Q 3566 2609 3566 1747 
Q 3566 888 3137 398 
Q 2709 -91 1959 -91 
Q 1206 -91 779 398 
Q 353 888 353 1747 
Q 353 2609 779 3096 
Q 1206 3584 1959 3584 
z
" transform="scale(0.015625)"/>
      <path id="DejaVuSans-77" d="M 269 3500 
L 844 3500 
L 1563 769 
L 2278 3500 
L 2956 3500 
L 3675 769 
L 4391 3500 
L 4966 3500 
L 4050 0 
L 3372 0 
L 2619 2869 
L 1863 0 
L 1184 0 
L 269 3500 
z
" transform="scale(0.015625)"/>
      <path id="DejaVuSans-53" d="M 3425 4513 
L 3425 3897 
Q 3066 4069 2747 4153 
Q 2428 4238 2131 4238 
Q 1616 4238 1336 4038 
Q 1056 3838 1056 3469 
Q 1056 3159 1242 3001 
Q 1428 2844 1947 2747 
L 2328 2669 
Q 3034 2534 3370 2195 
Q 3706 1856 3706 1288 
Q 3706 609 3251 259 
Q 2797 -91 1919 -91 
Q 1588 -91 1214 -16 
Q 841 59 441 206 
L 441 856 
Q 825 641 1194 531 
Q 1563 422 1919 422 
Q 2459 422 2753 634 
Q 3047 847 3047 1241 
Q 3047 1584 2836 1778 
Q 2625 1972 2144 2069 
L 1759 2144 
Q 1053 2284 737 2584 
Q 422 2884 422 3419 
Q 422 4038 858 4394 
Q 1294 4750 2059 4750 
Q 2388 4750 2728 4690 
Q 3069 4631 3425 4513 
z
" transform="scale(0.015625)"/>
      <path id="DejaVuSans-70" d="M 1159 525 
L 1159 -1331 
L 581 -1331 
L 581 3500 
L 1159 3500 
L 1159 2969 
Q 1341 3281 1617 3432 
Q 1894 3584 2278 3584 
Q 2916 3584 3314 3078 
Q 3713 2572 3713 1747 
Q 3713 922 3314 415 
Q 2916 -91 2278 -91 
Q 1894 -91 1617 61 
Q 1341 213 1159 525 
z
M 3116 1747 
Q 3116 2381 2855 2742 
Q 2594 3103 2138 3103 
Q 1681 3103 1420 2742 
Q 1159 2381 1159 1747 
Q 1159 1113 1420 752 
Q 1681 391 2138 391 
Q 2594 391 2855 752 
Q 3116 1113 3116 1747 
z
" transform="scale(0.015625)"/>
      <path id="DejaVuSans-6b" d="M 581 4863 
L 1159 4863 
L 1159 1991 
L 2875 3500 
L 3609 3500 
L 1753 1863 
L 3688 0 
L 2938 0 
L 1159 1709 
L 1159 0 
L 581 0 
L 581 4863 
z
" transform="scale(0.015625)"/>
      <path id="DejaVuSans-6d" d="M 3328 2828 
Q 3544 3216 3844 3400 
Q 4144 3584 4550 3584 
Q 5097 3584 5394 3201 
Q 5691 2819 5691 2113 
L 5691 0 
L 5113 0 
L 5113 2094 
Q 5113 2597 4934 2840 
Q 4756 3084 4391 3084 
Q 3944 3084 3684 2787 
Q 3425 2491 3425 1978 
L 3425 0 
L 2847 0 
L 2847 2094 
Q 2847 2600 2669 2842 
Q 2491 3084 2119 3084 
Q 1678 3084 1418 2786 
Q 1159 2488 1159 1978 
L 1159 0 
L 581 0 
L 581 3500 
L 1159 3500 
L 1159 2956 
Q 1356 3278 1631 3431 
Q 1906 3584 2284 3584 
Q 2666 3584 2933 3390 
Q 3200 3197 3328 2828 
z
" transform="scale(0.015625)"/>
      <path id="DejaVuSans-64" d="M 2906 2969 
L 2906 4863 
L 3481 4863 
L 3481 0 
L 2906 0 
L 2906 525 
Q 2725 213 2448 61 
Q 2172 -91 1784 -91 
Q 1150 -91 751 415 
Q 353 922 353 1747 
Q 353 2572 751 3078 
Q 1150 3584 1784 3584 
Q 2172 3584 2448 3432 
Q 2725 3281 2906 2969 
z
M 947 1747 
Q 947 1113 1208 752 
Q 1469 391 1925 391 
Q 2381 391 2643 752 
Q 2906 1113 2906 1747 
Q 2906 2381 2643 2742 
Q 2381 3103 1925 3103 
Q 1469 3103 1208 2742 
Q 947 2381 947 1747 
z
" transform="scale(0.015625)"/>
      <path id="DejaVuSans-45" d="M 628 4666 
L 3578 4666 
L 3578 4134 
L 1259 4134 
L 1259 2753 
L 3481 2753 
L 3481 2222 
L 1259 2222 
L 1259 531 
L 3634 531 
L 3634 0 
L 628 0 
L 628 4666 
z
" transform="scale(0.015625)"/>
      <path id="DejaVuSans-47" d="M 3809 666 
L 3809 1919 
L 2778 1919 
L 2778 2438 
L 4434 2438 
L 4434 434 
Q 4069 175 3628 42 
Q 3188 -91 2688 -91 
Q 1594 -91 976 548 
Q 359 1188 359 2328 
Q 359 3472 976 4111 
Q 1594 4750 2688 4750 
Q 3144 4750 3555 4637 
Q 3966 4525 4313 4306 
L 4313 3634 
Q 3963 3931 3569 4081 
Q 3175 4231 2741 4231 
Q 1884 4231 1454 3753 
Q 1025 3275 1025 2328 
Q 1025 1384 1454 906 
Q 1884 428 2741 428 
Q 3075 428 3337 486 
Q 3600 544 3809 666 
z
" transform="scale(0.015625)"/>
      <path id="DejaVuSans-61" d="M 2194 1759 
Q 1497 1759 1228 1600 
Q 959 1441 959 1056 
Q 959 750 1161 570 
Q 1363 391 1709 391 
Q 2188 391 2477 730 
Q 2766 1069 2766 1631 
L 2766 1759 
L 2194 1759 
z
M 3341 1997 
L 3341 0 
L 2766 0 
L 2766 531 
Q 2569 213 2275 61 
Q 1981 -91 1556 -91 
Q 1019 -91 701 211 
Q 384 513 384 1019 
Q 384 1609 779 1909 
Q 1175 2209 1959 2209 
L 2766 2209 
L 2766 2266 
Q 2766 2663 2505 2880 
Q 2244 3097 1772 3097 
Q 1472 3097 1187 3025 
Q 903 2953 641 2809 
L 641 3341 
Q 956 3463 1253 3523 
Q 1550 3584 1831 3584 
Q 2591 3584 2966 3190 
Q 3341 2797 3341 1997 
z
" transform="scale(0.015625)"/>
      <path id="DejaVuSans-6c" d="M 603 4863 
L 1178 4863 
L 1178 0 
L 603 0 
L 603 4863 
z
" transform="scale(0.015625)"/>
      <path id="DejaVuSans-76" d="M 191 3500 
L 800 3500 
L 1894 563 
L 2988 3500 
L 3597 3500 
L 2284 0 
L 1503 0 
L 191 3500 
z
" transform="scale(0.015625)"/>
      <path id="DejaVuSans-4b" d="M 628 4666 
L 1259 4666 
L 1259 2694 
L 3353 4666 
L 4166 4666 
L 1850 2491 
L 4331 0 
L 3500 0 
L 1259 2247 
L 1259 0 
L 628 0 
L 628 4666 
z
" transform="scale(0.015625)"/>
      <path id="DejaVuSans-43" d="M 4122 4306 
L 4122 3641 
Q 3803 3938 3442 4084 
Q 3081 4231 2675 4231 
Q 1875 4231 1450 3742 
Q 1025 3253 1025 2328 
Q 1025 1406 1450 917 
Q 1875 428 2675 428 
Q 3081 428 3442 575 
Q 3803 722 4122 1019 
L 4122 359 
Q 3791 134 3420 21 
Q 3050 -91 2638 -91 
Q 1578 -91 968 557 
Q 359 1206 359 2328 
Q 359 3453 968 4101 
Q 1578 4750 2638 4750 
Q 3056 4750 3426 4639 
Q 3797 4528 4122 4306 
z
" transform="scale(0.015625)"/>
      <path id="DejaVuSans-5a" d="M 359 4666 
L 4025 4666 
L 4025 4184 
L 1075 531 
L 4097 531 
L 4097 0 
L 288 0 
L 288 481 
L 3238 4134 
L 359 4134 
L 359 4666 
z
" transform="scale(0.015625)"/>
      <path id="DejaVuSans-2d" d="M 313 2009 
L 1997 2009 
L 1997 1497 
L 313 1497 
L 313 2009 
z
" transform="scale(0.015625)"/>
      <path id="DejaVuSans-34" d="M 2419 4116 
L 825 1625 
L 2419 1625 
L 2419 4116 
z
M 2253 4666 
L 3047 4666 
L 3047 1625 
L 3713 1625 
L 3713 1100 
L 3047 1100 
L 3047 0 
L 2419 0 
L 2419 1100 
L 313 1100 
L 313 1709 
L 2253 4666 
z
" transform="scale(0.015625)"/>
     </defs>
     <use xlink:href="#DejaVuSans-50"/>
     <use xlink:href="#DejaVuSans-6f" transform="translate(56.677734 0)"/>
     <use xlink:href="#DejaVuSans-77" transform="translate(117.859375 0)"/>
     <use xlink:href="#DejaVuSans-65" transform="translate(199.646484 0)"/>
     <use xlink:href="#DejaVuSans-72" transform="translate(261.169922 0)"/>
     <use xlink:href="#DejaVuSans-20" transform="translate(302.283203 0)"/>
     <use xlink:href="#DejaVuSans-53" transform="translate(334.070312 0)"/>
     <use xlink:href="#DejaVuSans-70" transform="translate(397.546875 0)"/>
     <use xlink:href="#DejaVuSans-65" transform="translate(461.023438 0)"/>
     <use xlink:href="#DejaVuSans-6b" transform="translate(522.546875 0)"/>
     <use xlink:href="#DejaVuSans-74" transform="translate(580.457031 0)"/>
     <use xlink:href="#DejaVuSans-72" transform="translate(619.666016 0)"/>
     <use xlink:href="#DejaVuSans-75" transform="translate(660.779297 0)"/>
     <use xlink:href="#DejaVuSans-6d" transform="translate(724.158203 0)"/>
     <use xlink:href="#DejaVuSans-20" transform="translate(821.570312 0)"/>
     <use xlink:href="#DejaVuSans-64" transform="translate(853.357422 0)"/>
     <use xlink:href="#DejaVuSans-65" transform="translate(916.833984 0)"/>
     <use xlink:href="#DejaVuSans-73" transform="translate(978.357422 0)"/>
     <use xlink:href="#DejaVuSans-20" transform="translate(1030.457031 0)"/>
     <use xlink:href="#DejaVuSans-45" transform="translate(1062.244141 0)"/>
     <use xlink:href="#DejaVuSans-45" transform="translate(1125.427734 0)"/>
     <use xlink:href="#DejaVuSans-47" transform="translate(1188.611328 0)"/>
     <use xlink:href="#DejaVuSans-20" transform="translate(1266.101562 0)"/>
     <use xlink:href="#DejaVuSans-53" transform="translate(1297.888672 0)"/>
     <use xlink:href="#DejaVuSans-69" transform="translate(1361.365234 0)"/>
     <use xlink:href="#DejaVuSans-67" transform="translate(1389.148438 0)"/>
     <use xlink:href="#DejaVuSans-6e" transform="translate(1452.625 0)"/>
     <use xlink:href="#DejaVuSans-61" transform="translate(1516.003906 0)"/>
     <use xlink:href="#DejaVuSans-6c" transform="translate(1577.283203 0)"/>
     <use xlink:href="#DejaVuSans-73" transform="translate(1605.066406 0)"/>
     <use xlink:href="#DejaVuSans-20" transform="translate(1657.166016 0)"/>
     <use xlink:href="#DejaVuSans-76" transform="translate(1688.953125 0)"/>
     <use xlink:href="#DejaVuSans-6f" transform="translate(1748.132812 0)"/>
     <use xlink:href="#DejaVuSans-6e" transform="translate(1809.314453 0)"/>
     <use xlink:href="#DejaVuSans-20" transform="translate(1872.693359 0)"/>
     <use xlink:href="#DejaVuSans-4b" transform="translate(1904.480469 0)"/>
     <use xlink:href="#DejaVuSans-61" transform="translate(1968.306641 0)"/>
     <use xlink:href="#DejaVuSans-6e" transform="translate(2029.585938 0)"/>
     <use xlink:href="#DejaVuSans-61" transform="translate(2092.964844 0)"/>
     <use xlink:href="#DejaVuSans-6c" transform="translate(2154.244141 0)"/>
     <use xlink:href="#DejaVuSans-20" transform="translate(2182.027344 0)"/>
     <use xlink:href="#DejaVuSans-43" transform="translate(2213.814453 0)"/>
     <use xlink:href="#DejaVuSans-5a" transform="translate(2283.638672 0)"/>
     <use xlink:href="#DejaVuSans-2d" transform="translate(2350.394531 0)"/>
     <use xlink:href="#DejaVuSans-43" transform="translate(2386.478516 0)"/>
     <use xlink:href="#DejaVuSans-34" transform="translate(2456.302734 0)"/>
    </g>
   </g>
   <g id="legend_1">
    <g id="patch_7">
     <path d="M 266.196563 78.82825 
L 407.72 78.82825 
Q 409.72 78.82825 409.72 76.82825 
L 409.72 48.472 
Q 409.72 46.472 407.72 46.472 
L 266.196563 46.472 
Q 264.196563 46.472 264.196563 48.472 
L 264.196563 76.82825 
Q 264.196563 78.82825 266.196563 78.82825 
z
" style="fill: #ffffff; opacity: 0.8; stroke: #cccccc; stroke-linejoin: miter"/>
    </g>
    <g id="line2d_47">
     <path d="M 268.196563 54.570437 
L 278.196563 54.570437 
L 288.196563 54.570437 
" style="fill: none; stroke: #0000ff; stroke-width: 1.5; stroke-linecap: square"/>
    </g>
    <g id="text_17">
     <!-- Original -->
     <g transform="translate(296.196563 58.070437) scale(0.1 -0.1)">
      <defs>
       <path id="DejaVuSans-4f" d="M 2522 4238 
Q 1834 4238 1429 3725 
Q 1025 3213 1025 2328 
Q 1025 1447 1429 934 
Q 1834 422 2522 422 
Q 3209 422 3611 934 
Q 4013 1447 4013 2328 
Q 4013 3213 3611 3725 
Q 3209 4238 2522 4238 
z
M 2522 4750 
Q 3503 4750 4090 4092 
Q 4678 3434 4678 2328 
Q 4678 1225 4090 567 
Q 3503 -91 2522 -91 
Q 1538 -91 948 565 
Q 359 1222 359 2328 
Q 359 3434 948 4092 
Q 1538 4750 2522 4750 
z
" transform="scale(0.015625)"/>
      </defs>
      <use xlink:href="#DejaVuSans-4f"/>
      <use xlink:href="#DejaVuSans-72" transform="translate(78.710938 0)"/>
      <use xlink:href="#DejaVuSans-69" transform="translate(119.824219 0)"/>
      <use xlink:href="#DejaVuSans-67" transform="translate(147.607422 0)"/>
      <use xlink:href="#DejaVuSans-69" transform="translate(211.083984 0)"/>
      <use xlink:href="#DejaVuSans-6e" transform="translate(238.867188 0)"/>
      <use xlink:href="#DejaVuSans-61" transform="translate(302.246094 0)"/>
      <use xlink:href="#DejaVuSans-6c" transform="translate(363.525391 0)"/>
     </g>
    </g>
    <g id="line2d_48">
     <path d="M 268.196563 69.248562 
L 278.196563 69.248562 
L 288.196563 69.248562 
" style="fill: none; stroke: #ffa500; stroke-width: 1.5; stroke-linecap: square"/>
    </g>
    <g id="text_18">
     <!-- After resampling/filter -->
     <g transform="translate(296.196563 72.748562) scale(0.1 -0.1)">
      <defs>
       <path id="DejaVuSans-41" d="M 2188 4044 
L 1331 1722 
L 3047 1722 
L 2188 4044 
z
M 1831 4666 
L 2547 4666 
L 4325 0 
L 3669 0 
L 3244 1197 
L 1141 1197 
L 716 0 
L 50 0 
L 1831 4666 
z
" transform="scale(0.015625)"/>
       <path id="DejaVuSans-66" d="M 2375 4863 
L 2375 4384 
L 1825 4384 
Q 1516 4384 1395 4259 
Q 1275 4134 1275 3809 
L 1275 3500 
L 2222 3500 
L 2222 3053 
L 1275 3053 
L 1275 0 
L 697 0 
L 697 3053 
L 147 3053 
L 147 3500 
L 697 3500 
L 697 3744 
Q 697 4328 969 4595 
Q 1241 4863 1831 4863 
L 2375 4863 
z
" transform="scale(0.015625)"/>
      </defs>
      <use xlink:href="#DejaVuSans-41"/>
      <use xlink:href="#DejaVuSans-66" transform="translate(64.783203 0)"/>
      <use xlink:href="#DejaVuSans-74" transform="translate(98.238281 0)"/>
      <use xlink:href="#DejaVuSans-65" transform="translate(137.447266 0)"/>
      <use xlink:href="#DejaVuSans-72" transform="translate(198.970703 0)"/>
      <use xlink:href="#DejaVuSans-20" transform="translate(240.083984 0)"/>
      <use xlink:href="#DejaVuSans-72" transform="translate(271.871094 0)"/>
      <use xlink:href="#DejaVuSans-65" transform="translate(310.734375 0)"/>
      <use xlink:href="#DejaVuSans-73" transform="translate(372.257812 0)"/>
      <use xlink:href="#DejaVuSans-61" transform="translate(424.357422 0)"/>
      <use xlink:href="#DejaVuSans-6d" transform="translate(485.636719 0)"/>
      <use xlink:href="#DejaVuSans-70" transform="translate(583.048828 0)"/>
      <use xlink:href="#DejaVuSans-6c" transform="translate(646.525391 0)"/>
      <use xlink:href="#DejaVuSans-69" transform="translate(674.308594 0)"/>
      <use xlink:href="#DejaVuSans-6e" transform="translate(702.091797 0)"/>
      <use xlink:href="#DejaVuSans-67" transform="translate(765.470703 0)"/>
      <use xlink:href="#DejaVuSans-2f" transform="translate(828.947266 0)"/>
      <use xlink:href="#DejaVuSans-66" transform="translate(862.638672 0)"/>
      <use xlink:href="#DejaVuSans-69" transform="translate(897.84375 0)"/>
      <use xlink:href="#DejaVuSans-6c" transform="translate(925.626953 0)"/>
      <use xlink:href="#DejaVuSans-74" transform="translate(953.410156 0)"/>
      <use xlink:href="#DejaVuSans-65" transform="translate(992.619141 0)"/>
      <use xlink:href="#DejaVuSans-72" transform="translate(1054.142578 0)"/>
     </g>
    </g>
   </g>
  </g>
 </g>
 <defs>
  <clipPath id="p65df7da906">
   <rect x="57.6" y="41.472" width="357.12" height="266.112"/>
  </clipPath>
 </defs>
</svg>
