<?xml version="1.0" encoding="utf-8" standalone="no"?>
<!DOCTYPE svg PUBLIC "-//W3C//DTD SVG 1.1//EN"
  "http://www.w3.org/Graphics/SVG/1.1/DTD/svg11.dtd">
<svg xmlns:xlink="http://www.w3.org/1999/xlink" width="460.8pt" height="345.6pt" viewBox="0 0 460.8 345.6" xmlns="http://www.w3.org/2000/svg" version="1.1">
 <metadata>
  <rdf:RDF xmlns:dc="http://purl.org/dc/elements/1.1/" xmlns:cc="http://creativecommons.org/ns#" xmlns:rdf="http://www.w3.org/1999/02/22-rdf-syntax-ns#">
   <cc:Work>
    <dc:type rdf:resource="http://purl.org/dc/dcmitype/StillImage"/>
    <dc:date>2025-11-11T10:05:49.712395</dc:date>
    <dc:format>image/svg+xml</dc:format>
    <dc:creator>
     <cc:Agent>
      <dc:title>Matplotlib v3.10.7, https://matplotlib.org/</dc:title>
     </cc:Agent>
    </dc:creator>
   </cc:Work>
  </rdf:RDF>
 </metadata>
 <defs>
  <style type="text/css">*{stroke-linejoin: round; stroke-linecap: butt}</style>
 </defs>
 <g id="figure_1">
  <g id="patch_1">
   <path d="M 0 345.6 
L 460.8 345.6 
L 460.8 0 
L 0 0 
z
" style="fill: #ffffff"/>
  </g>
  <g id="axes_1">
   <g id="patch_2">
    <path d="M 57.6 307.584 
L 414.72 307.584 
L 414.72 41.472 
L 57.6 41.472 
z
" style="fill: #ffffff"/>
   </g>
   <g id="matplotlib.axis_1">
    <g id="xtick_1">
     <g id="line2d_1">
      <defs>
       <path id="m45cbea45e8" d="M 0 0 
L 0 3.5 
" style="stroke: #000000; stroke-width: 0.8"/>
      </defs>
      <g>
       <use xlink:href="#m45cbea45e8" x="73.832727" y="307.584" style="stroke: #000000; stroke-width: 0.8"/>
      </g>
     </g>
     <g id="text_1">
      <!-- 0 -->
      <g transform="translate(70.651477 322.182437) scale(0.1 -0.1)">
       <defs>
        <path id="DejaVuSans-30" d="M 2034 4250 
Q 1547 4250 1301 3770 
Q 1056 3291 1056 2328 
Q 1056 1369 1301 889 
Q 1547 409 2034 409 
Q 2525 409 2770 889 
Q 3016 1369 3016 2328 
Q 3016 3291 2770 3770 
Q 2525 4250 2034 4250 
z
M 2034 4750 
Q 2819 4750 3233 4129 
Q 3647 3509 3647 2328 
Q 3647 1150 3233 529 
Q 2819 -91 2034 -91 
Q 1250 -91 836 529 
Q 422 1150 422 2328 
Q 422 3509 836 4129 
Q 1250 4750 2034 4750 
z
" transform="scale(0.015625)"/>
       </defs>
       <use xlink:href="#DejaVuSans-30"/>
      </g>
     </g>
    </g>
    <g id="xtick_2">
     <g id="line2d_2">
      <g>
       <use xlink:href="#m45cbea45e8" x="124.56" y="307.584" style="stroke: #000000; stroke-width: 0.8"/>
      </g>
     </g>
     <g id="text_2">
      <!-- 20 -->
      <g transform="translate(118.1975 322.182437) scale(0.1 -0.1)">
       <defs>
        <path id="DejaVuSans-32" d="M 1228 531 
L 3431 531 
L 3431 0 
L 469 0 
L 469 531 
Q 828 903 1448 1529 
Q 2069 2156 2228 2338 
Q 2531 2678 2651 2914 
Q 2772 3150 2772 3378 
Q 2772 3750 2511 3984 
Q 2250 4219 1831 4219 
Q 1534 4219 1204 4116 
Q 875 4013 500 3803 
L 500 4441 
Q 881 4594 1212 4672 
Q 1544 4750 1819 4750 
Q 2544 4750 2975 4387 
Q 3406 4025 3406 3419 
Q 3406 3131 3298 2873 
Q 3191 2616 2906 2266 
Q 2828 2175 2409 1742 
Q 1991 1309 1228 531 
z
" transform="scale(0.015625)"/>
       </defs>
       <use xlink:href="#DejaVuSans-32"/>
       <use xlink:href="#DejaVuSans-30" transform="translate(63.623047 0)"/>
      </g>
     </g>
    </g>
    <g id="xtick_3">
     <g id="line2d_3">
      <g>
       <use xlink:href="#m45cbea45e8" x="175.287273" y="307.584" style="stroke: #000000; stroke-width: 0.8"/>
      </g>
     </g>
     <g id="text_3">
      <!-- 40 -->
      <g transform="translate(168.924773 322.182437) scale(0.1 -0.1)">
       <defs>
        <path id="DejaVuSans-34" d="M 2419 4116 
L 825 1625 
L 2419 1625 
L 2419 4116 
z
M 2253 4666 
L 3047 4666 
L 3047 1625 
L 3713 1625 
L 3713 1100 
L 3047 1100 
L 3047 0 
L 2419 0 
L 2419 1100 
L 313 1100 
L 313 1709 
L 2253 4666 
z
" transform="scale(0.015625)"/>
       </defs>
       <use xlink:href="#DejaVuSans-34"/>
       <use xlink:href="#DejaVuSans-30" transform="translate(63.623047 0)"/>
      </g>
     </g>
    </g>
    <g id="xtick_4">
     <g id="line2d_4">
      <g>
       <use xlink:href="#m45cbea45e8" x="226.014545" y="307.584" style="stroke: #000000; stroke-width: 0.8"/>
      </g>
     </g>
     <g id="text_4">
      <!-- 60 -->
      <g transform="translate(219.652045 322.182437) scale(0.1 -0.1)">
       <defs>
        <path id="DejaVuSans-36" d="M 2113 2584 
Q 1688 2584 1439 2293 
Q 1191 2003 1191 1497 
Q 1191 994 1439 701 
Q 1688 409 2113 409 
Q 2538 409 2786 701 
Q 3034 994 3034 1497 
Q 3034 2003 2786 2293 
Q 2538 2584 2113 2584 
z
M 3366 4563 
L 3366 3988 
Q 3128 4100 2886 4159 
Q 2644 4219 2406 4219 
Q 1781 4219 1451 3797 
Q 1122 3375 1075 2522 
Q 1259 2794 1537 2939 
Q 1816 3084 2150 3084 
Q 2853 3084 3261 2657 
Q 3669 2231 3669 1497 
Q 3669 778 3244 343 
Q 2819 -91 2113 -91 
Q 1303 -91 875 529 
Q 447 1150 447 2328 
Q 447 3434 972 4092 
Q 1497 4750 2381 4750 
Q 2619 4750 2861 4703 
Q 3103 4656 3366 4563 
z
" transform="scale(0.015625)"/>
       </defs>
       <use xlink:href="#DejaVuSans-36"/>
       <use xlink:href="#DejaVuSans-30" transform="translate(63.623047 0)"/>
      </g>
     </g>
    </g>
    <g id="xtick_5">
     <g id="line2d_5">
      <g>
       <use xlink:href="#m45cbea45e8" x="276.741818" y="307.584" style="stroke: #000000; stroke-width: 0.8"/>
      </g>
     </g>
     <g id="text_5">
      <!-- 80 -->
      <g transform="translate(270.379318 322.182437) scale(0.1 -0.1)">
       <defs>
        <path id="DejaVuSans-38" d="M 2034 2216 
Q 1584 2216 1326 1975 
Q 1069 1734 1069 1313 
Q 1069 891 1326 650 
Q 1584 409 2034 409 
Q 2484 409 2743 651 
Q 3003 894 3003 1313 
Q 3003 1734 2745 1975 
Q 2488 2216 2034 2216 
z
M 1403 2484 
Q 997 2584 770 2862 
Q 544 3141 544 3541 
Q 544 4100 942 4425 
Q 1341 4750 2034 4750 
Q 2731 4750 3128 4425 
Q 3525 4100 3525 3541 
Q 3525 3141 3298 2862 
Q 3072 2584 2669 2484 
Q 3125 2378 3379 2068 
Q 3634 1759 3634 1313 
Q 3634 634 3220 271 
Q 2806 -91 2034 -91 
Q 1263 -91 848 271 
Q 434 634 434 1313 
Q 434 1759 690 2068 
Q 947 2378 1403 2484 
z
M 1172 3481 
Q 1172 3119 1398 2916 
Q 1625 2713 2034 2713 
Q 2441 2713 2670 2916 
Q 2900 3119 2900 3481 
Q 2900 3844 2670 4047 
Q 2441 4250 2034 4250 
Q 1625 4250 1398 4047 
Q 1172 3844 1172 3481 
z
" transform="scale(0.015625)"/>
       </defs>
       <use xlink:href="#DejaVuSans-38"/>
       <use xlink:href="#DejaVuSans-30" transform="translate(63.623047 0)"/>
      </g>
     </g>
    </g>
    <g id="xtick_6">
     <g id="line2d_6">
      <g>
       <use xlink:href="#m45cbea45e8" x="327.469091" y="307.584" style="stroke: #000000; stroke-width: 0.8"/>
      </g>
     </g>
     <g id="text_6">
      <!-- 100 -->
      <g transform="translate(317.925341 322.182437) scale(0.1 -0.1)">
       <defs>
        <path id="DejaVuSans-31" d="M 794 531 
L 1825 531 
L 1825 4091 
L 703 3866 
L 703 4441 
L 1819 4666 
L 2450 4666 
L 2450 531 
L 3481 531 
L 3481 0 
L 794 0 
L 794 531 
z
" transform="scale(0.015625)"/>
       </defs>
       <use xlink:href="#DejaVuSans-31"/>
       <use xlink:href="#DejaVuSans-30" transform="translate(63.623047 0)"/>
       <use xlink:href="#DejaVuSans-30" transform="translate(127.246094 0)"/>
      </g>
     </g>
    </g>
    <g id="xtick_7">
     <g id="line2d_7">
      <g>
       <use xlink:href="#m45cbea45e8" x="378.196364" y="307.584" style="stroke: #000000; stroke-width: 0.8"/>
      </g>
     </g>
     <g id="text_7">
      <!-- 120 -->
      <g transform="translate(368.652614 322.182437) scale(0.1 -0.1)">
       <use xlink:href="#DejaVuSans-31"/>
       <use xlink:href="#DejaVuSans-32" transform="translate(63.623047 0)"/>
       <use xlink:href="#DejaVuSans-30" transform="translate(127.246094 0)"/>
      </g>
     </g>
    </g>
    <g id="text_8">
     <!-- Frequenz in Hz -->
     <g transform="translate(199.294375 335.860562) scale(0.1 -0.1)">
      <defs>
       <path id="DejaVuSans-46" d="M 628 4666 
L 3309 4666 
L 3309 4134 
L 1259 4134 
L 1259 2759 
L 3109 2759 
L 3109 2228 
L 1259 2228 
L 1259 0 
L 628 0 
L 628 4666 
z
" transform="scale(0.015625)"/>
       <path id="DejaVuSans-72" d="M 2631 2963 
Q 2534 3019 2420 3045 
Q 2306 3072 2169 3072 
Q 1681 3072 1420 2755 
Q 1159 2438 1159 1844 
L 1159 0 
L 581 0 
L 581 3500 
L 1159 3500 
L 1159 2956 
Q 1341 3275 1631 3429 
Q 1922 3584 2338 3584 
Q 2397 3584 2469 3576 
Q 2541 3569 2628 3553 
L 2631 2963 
z
" transform="scale(0.015625)"/>
       <path id="DejaVuSans-65" d="M 3597 1894 
L 3597 1613 
L 953 1613 
Q 991 1019 1311 708 
Q 1631 397 2203 397 
Q 2534 397 2845 478 
Q 3156 559 3463 722 
L 3463 178 
Q 3153 47 2828 -22 
Q 2503 -91 2169 -91 
Q 1331 -91 842 396 
Q 353 884 353 1716 
Q 353 2575 817 3079 
Q 1281 3584 2069 3584 
Q 2775 3584 3186 3129 
Q 3597 2675 3597 1894 
z
M 3022 2063 
Q 3016 2534 2758 2815 
Q 2500 3097 2075 3097 
Q 1594 3097 1305 2825 
Q 1016 2553 972 2059 
L 3022 2063 
z
" transform="scale(0.015625)"/>
       <path id="DejaVuSans-71" d="M 947 1747 
Q 947 1113 1208 752 
Q 1469 391 1925 391 
Q 2381 391 2643 752 
Q 2906 1113 2906 1747 
Q 2906 2381 2643 2742 
Q 2381 3103 1925 3103 
Q 1469 3103 1208 2742 
Q 947 2381 947 1747 
z
M 2906 525 
Q 2725 213 2448 61 
Q 2172 -91 1784 -91 
Q 1150 -91 751 415 
Q 353 922 353 1747 
Q 353 2572 751 3078 
Q 1150 3584 1784 3584 
Q 2172 3584 2448 3432 
Q 2725 3281 2906 2969 
L 2906 3500 
L 3481 3500 
L 3481 -1331 
L 2906 -1331 
L 2906 525 
z
" transform="scale(0.015625)"/>
       <path id="DejaVuSans-75" d="M 544 1381 
L 544 3500 
L 1119 3500 
L 1119 1403 
Q 1119 906 1312 657 
Q 1506 409 1894 409 
Q 2359 409 2629 706 
Q 2900 1003 2900 1516 
L 2900 3500 
L 3475 3500 
L 3475 0 
L 2900 0 
L 2900 538 
Q 2691 219 2414 64 
Q 2138 -91 1772 -91 
Q 1169 -91 856 284 
Q 544 659 544 1381 
z
M 1991 3584 
L 1991 3584 
z
" transform="scale(0.015625)"/>
       <path id="DejaVuSans-6e" d="M 3513 2113 
L 3513 0 
L 2938 0 
L 2938 2094 
Q 2938 2591 2744 2837 
Q 2550 3084 2163 3084 
Q 1697 3084 1428 2787 
Q 1159 2491 1159 1978 
L 1159 0 
L 581 0 
L 581 3500 
L 1159 3500 
L 1159 2956 
Q 1366 3272 1645 3428 
Q 1925 3584 2291 3584 
Q 2894 3584 3203 3211 
Q 3513 2838 3513 2113 
z
" transform="scale(0.015625)"/>
       <path id="DejaVuSans-7a" d="M 353 3500 
L 3084 3500 
L 3084 2975 
L 922 459 
L 3084 459 
L 3084 0 
L 275 0 
L 275 525 
L 2438 3041 
L 353 3041 
L 353 3500 
z
" transform="scale(0.015625)"/>
       <path id="DejaVuSans-20" transform="scale(0.015625)"/>
       <path id="DejaVuSans-69" d="M 603 3500 
L 1178 3500 
L 1178 0 
L 603 0 
L 603 3500 
z
M 603 4863 
L 1178 4863 
L 1178 4134 
L 603 4134 
L 603 4863 
z
" transform="scale(0.015625)"/>
       <path id="DejaVuSans-48" d="M 628 4666 
L 1259 4666 
L 1259 2753 
L 3553 2753 
L 3553 4666 
L 4184 4666 
L 4184 0 
L 3553 0 
L 3553 2222 
L 1259 2222 
L 1259 0 
L 628 0 
L 628 4666 
z
" transform="scale(0.015625)"/>
      </defs>
      <use xlink:href="#DejaVuSans-46"/>
      <use xlink:href="#DejaVuSans-72" transform="translate(50.269531 0)"/>
      <use xlink:href="#DejaVuSans-65" transform="translate(89.132812 0)"/>
      <use xlink:href="#DejaVuSans-71" transform="translate(150.65625 0)"/>
      <use xlink:href="#DejaVuSans-75" transform="translate(214.132812 0)"/>
      <use xlink:href="#DejaVuSans-65" transform="translate(277.511719 0)"/>
      <use xlink:href="#DejaVuSans-6e" transform="translate(339.035156 0)"/>
      <use xlink:href="#DejaVuSans-7a" transform="translate(402.414062 0)"/>
      <use xlink:href="#DejaVuSans-20" transform="translate(454.904297 0)"/>
      <use xlink:href="#DejaVuSans-69" transform="translate(486.691406 0)"/>
      <use xlink:href="#DejaVuSans-6e" transform="translate(514.474609 0)"/>
      <use xlink:href="#DejaVuSans-20" transform="translate(577.853516 0)"/>
      <use xlink:href="#DejaVuSans-48" transform="translate(609.640625 0)"/>
      <use xlink:href="#DejaVuSans-7a" transform="translate(684.835938 0)"/>
     </g>
    </g>
   </g>
   <g id="matplotlib.axis_2">
    <g id="ytick_1">
     <g id="line2d_8">
      <defs>
       <path id="m6d7dcf7789" d="M 0 0 
L -3.5 0 
" style="stroke: #000000; stroke-width: 0.8"/>
      </defs>
      <g>
       <use xlink:href="#m6d7dcf7789" x="57.6" y="268.732693" style="stroke: #000000; stroke-width: 0.8"/>
      </g>
     </g>
     <g id="text_9">
      <!-- $\mathdefault{10^{-3}}$ -->
      <g transform="translate(27.1 272.531911) scale(0.1 -0.1)">
       <defs>
        <path id="DejaVuSans-2212" d="M 678 2272 
L 4684 2272 
L 4684 1741 
L 678 1741 
L 678 2272 
z
" transform="scale(0.015625)"/>
        <path id="DejaVuSans-33" d="M 2597 2516 
Q 3050 2419 3304 2112 
Q 3559 1806 3559 1356 
Q 3559 666 3084 287 
Q 2609 -91 1734 -91 
Q 1441 -91 1130 -33 
Q 819 25 488 141 
L 488 750 
Q 750 597 1062 519 
Q 1375 441 1716 441 
Q 2309 441 2620 675 
Q 2931 909 2931 1356 
Q 2931 1769 2642 2001 
Q 2353 2234 1838 2234 
L 1294 2234 
L 1294 2753 
L 1863 2753 
Q 2328 2753 2575 2939 
Q 2822 3125 2822 3475 
Q 2822 3834 2567 4026 
Q 2313 4219 1838 4219 
Q 1578 4219 1281 4162 
Q 984 4106 628 3988 
L 628 4550 
Q 988 4650 1302 4700 
Q 1616 4750 1894 4750 
Q 2613 4750 3031 4423 
Q 3450 4097 3450 3541 
Q 3450 3153 3228 2886 
Q 3006 2619 2597 2516 
z
" transform="scale(0.015625)"/>
       </defs>
       <use xlink:href="#DejaVuSans-31" transform="translate(0 0.765625)"/>
       <use xlink:href="#DejaVuSans-30" transform="translate(63.623047 0.765625)"/>
       <use xlink:href="#DejaVuSans-2212" transform="translate(128.203125 39.046875) scale(0.7)"/>
       <use xlink:href="#DejaVuSans-33" transform="translate(186.855469 39.046875) scale(0.7)"/>
      </g>
     </g>
    </g>
    <g id="ytick_2">
     <g id="line2d_9">
      <g>
       <use xlink:href="#m6d7dcf7789" x="57.6" y="218.231393" style="stroke: #000000; stroke-width: 0.8"/>
      </g>
     </g>
     <g id="text_10">
      <!-- $\mathdefault{10^{-2}}$ -->
      <g transform="translate(27.1 222.030612) scale(0.1 -0.1)">
       <use xlink:href="#DejaVuSans-31" transform="translate(0 0.765625)"/>
       <use xlink:href="#DejaVuSans-30" transform="translate(63.623047 0.765625)"/>
       <use xlink:href="#DejaVuSans-2212" transform="translate(128.203125 39.046875) scale(0.7)"/>
       <use xlink:href="#DejaVuSans-32" transform="translate(186.855469 39.046875) scale(0.7)"/>
      </g>
     </g>
    </g>
    <g id="ytick_3">
     <g id="line2d_10">
      <g>
       <use xlink:href="#m6d7dcf7789" x="57.6" y="167.730094" style="stroke: #000000; stroke-width: 0.8"/>
      </g>
     </g>
     <g id="text_11">
      <!-- $\mathdefault{10^{-1}}$ -->
      <g transform="translate(27.1 171.529313) scale(0.1 -0.1)">
       <use xlink:href="#DejaVuSans-31" transform="translate(0 0.684375)"/>
       <use xlink:href="#DejaVuSans-30" transform="translate(63.623047 0.684375)"/>
       <use xlink:href="#DejaVuSans-2212" transform="translate(128.203125 38.965625) scale(0.7)"/>
       <use xlink:href="#DejaVuSans-31" transform="translate(186.855469 38.965625) scale(0.7)"/>
      </g>
     </g>
    </g>
    <g id="ytick_4">
     <g id="line2d_11">
      <g>
       <use xlink:href="#m6d7dcf7789" x="57.6" y="117.228794" style="stroke: #000000; stroke-width: 0.8"/>
      </g>
     </g>
     <g id="text_12">
      <!-- $\mathdefault{10^{0}}$ -->
      <g transform="translate(33 121.028013) scale(0.1 -0.1)">
       <use xlink:href="#DejaVuSans-31" transform="translate(0 0.765625)"/>
       <use xlink:href="#DejaVuSans-30" transform="translate(63.623047 0.765625)"/>
       <use xlink:href="#DejaVuSans-30" transform="translate(128.203125 39.046875) scale(0.7)"/>
      </g>
     </g>
    </g>
    <g id="ytick_5">
     <g id="line2d_12">
      <g>
       <use xlink:href="#m6d7dcf7789" x="57.6" y="66.727495" style="stroke: #000000; stroke-width: 0.8"/>
      </g>
     </g>
     <g id="text_13">
      <!-- $\mathdefault{10^{1}}$ -->
      <g transform="translate(33 70.526714) scale(0.1 -0.1)">
       <use xlink:href="#DejaVuSans-31" transform="translate(0 0.684375)"/>
       <use xlink:href="#DejaVuSans-30" transform="translate(63.623047 0.684375)"/>
       <use xlink:href="#DejaVuSans-31" transform="translate(128.203125 38.965625) scale(0.7)"/>
      </g>
     </g>
    </g>
    <g id="ytick_6">
     <g id="line2d_13">
      <defs>
       <path id="m773f93d448" d="M 0 0 
L -2 0 
" style="stroke: #000000; stroke-width: 0.6"/>
      </defs>
      <g>
       <use xlink:href="#m773f93d448" x="57.6" y="304.031586" style="stroke: #000000; stroke-width: 0.6"/>
      </g>
     </g>
    </g>
    <g id="ytick_7">
     <g id="line2d_14">
      <g>
       <use xlink:href="#m773f93d448" x="57.6" y="295.138749" style="stroke: #000000; stroke-width: 0.6"/>
      </g>
     </g>
    </g>
    <g id="ytick_8">
     <g id="line2d_15">
      <g>
       <use xlink:href="#m773f93d448" x="57.6" y="288.82918" style="stroke: #000000; stroke-width: 0.6"/>
      </g>
     </g>
    </g>
    <g id="ytick_9">
     <g id="line2d_16">
      <g>
       <use xlink:href="#m773f93d448" x="57.6" y="283.935099" style="stroke: #000000; stroke-width: 0.6"/>
      </g>
     </g>
    </g>
    <g id="ytick_10">
     <g id="line2d_17">
      <g>
       <use xlink:href="#m773f93d448" x="57.6" y="279.936343" style="stroke: #000000; stroke-width: 0.6"/>
      </g>
     </g>
    </g>
    <g id="ytick_11">
     <g id="line2d_18">
      <g>
       <use xlink:href="#m773f93d448" x="57.6" y="276.555443" style="stroke: #000000; stroke-width: 0.6"/>
      </g>
     </g>
    </g>
    <g id="ytick_12">
     <g id="line2d_19">
      <g>
       <use xlink:href="#m773f93d448" x="57.6" y="273.626774" style="stroke: #000000; stroke-width: 0.6"/>
      </g>
     </g>
    </g>
    <g id="ytick_13">
     <g id="line2d_20">
      <g>
       <use xlink:href="#m773f93d448" x="57.6" y="271.043505" style="stroke: #000000; stroke-width: 0.6"/>
      </g>
     </g>
    </g>
    <g id="ytick_14">
     <g id="line2d_21">
      <g>
       <use xlink:href="#m773f93d448" x="57.6" y="253.530287" style="stroke: #000000; stroke-width: 0.6"/>
      </g>
     </g>
    </g>
    <g id="ytick_15">
     <g id="line2d_22">
      <g>
       <use xlink:href="#m773f93d448" x="57.6" y="244.637449" style="stroke: #000000; stroke-width: 0.6"/>
      </g>
     </g>
    </g>
    <g id="ytick_16">
     <g id="line2d_23">
      <g>
       <use xlink:href="#m773f93d448" x="57.6" y="238.327881" style="stroke: #000000; stroke-width: 0.6"/>
      </g>
     </g>
    </g>
    <g id="ytick_17">
     <g id="line2d_24">
      <g>
       <use xlink:href="#m773f93d448" x="57.6" y="233.433799" style="stroke: #000000; stroke-width: 0.6"/>
      </g>
     </g>
    </g>
    <g id="ytick_18">
     <g id="line2d_25">
      <g>
       <use xlink:href="#m773f93d448" x="57.6" y="229.435043" style="stroke: #000000; stroke-width: 0.6"/>
      </g>
     </g>
    </g>
    <g id="ytick_19">
     <g id="line2d_26">
      <g>
       <use xlink:href="#m773f93d448" x="57.6" y="226.054143" style="stroke: #000000; stroke-width: 0.6"/>
      </g>
     </g>
    </g>
    <g id="ytick_20">
     <g id="line2d_27">
      <g>
       <use xlink:href="#m773f93d448" x="57.6" y="223.125475" style="stroke: #000000; stroke-width: 0.6"/>
      </g>
     </g>
    </g>
    <g id="ytick_21">
     <g id="line2d_28">
      <g>
       <use xlink:href="#m773f93d448" x="57.6" y="220.542206" style="stroke: #000000; stroke-width: 0.6"/>
      </g>
     </g>
    </g>
    <g id="ytick_22">
     <g id="line2d_29">
      <g>
       <use xlink:href="#m773f93d448" x="57.6" y="203.028987" style="stroke: #000000; stroke-width: 0.6"/>
      </g>
     </g>
    </g>
    <g id="ytick_23">
     <g id="line2d_30">
      <g>
       <use xlink:href="#m773f93d448" x="57.6" y="194.13615" style="stroke: #000000; stroke-width: 0.6"/>
      </g>
     </g>
    </g>
    <g id="ytick_24">
     <g id="line2d_31">
      <g>
       <use xlink:href="#m773f93d448" x="57.6" y="187.826581" style="stroke: #000000; stroke-width: 0.6"/>
      </g>
     </g>
    </g>
    <g id="ytick_25">
     <g id="line2d_32">
      <g>
       <use xlink:href="#m773f93d448" x="57.6" y="182.9325" style="stroke: #000000; stroke-width: 0.6"/>
      </g>
     </g>
    </g>
    <g id="ytick_26">
     <g id="line2d_33">
      <g>
       <use xlink:href="#m773f93d448" x="57.6" y="178.933744" style="stroke: #000000; stroke-width: 0.6"/>
      </g>
     </g>
    </g>
    <g id="ytick_27">
     <g id="line2d_34">
      <g>
       <use xlink:href="#m773f93d448" x="57.6" y="175.552844" style="stroke: #000000; stroke-width: 0.6"/>
      </g>
     </g>
    </g>
    <g id="ytick_28">
     <g id="line2d_35">
      <g>
       <use xlink:href="#m773f93d448" x="57.6" y="172.624175" style="stroke: #000000; stroke-width: 0.6"/>
      </g>
     </g>
    </g>
    <g id="ytick_29">
     <g id="line2d_36">
      <g>
       <use xlink:href="#m773f93d448" x="57.6" y="170.040907" style="stroke: #000000; stroke-width: 0.6"/>
      </g>
     </g>
    </g>
    <g id="ytick_30">
     <g id="line2d_37">
      <g>
       <use xlink:href="#m773f93d448" x="57.6" y="152.527688" style="stroke: #000000; stroke-width: 0.6"/>
      </g>
     </g>
    </g>
    <g id="ytick_31">
     <g id="line2d_38">
      <g>
       <use xlink:href="#m773f93d448" x="57.6" y="143.63485" style="stroke: #000000; stroke-width: 0.6"/>
      </g>
     </g>
    </g>
    <g id="ytick_32">
     <g id="line2d_39">
      <g>
       <use xlink:href="#m773f93d448" x="57.6" y="137.325282" style="stroke: #000000; stroke-width: 0.6"/>
      </g>
     </g>
    </g>
    <g id="ytick_33">
     <g id="line2d_40">
      <g>
       <use xlink:href="#m773f93d448" x="57.6" y="132.4312" style="stroke: #000000; stroke-width: 0.6"/>
      </g>
     </g>
    </g>
    <g id="ytick_34">
     <g id="line2d_41">
      <g>
       <use xlink:href="#m773f93d448" x="57.6" y="128.432445" style="stroke: #000000; stroke-width: 0.6"/>
      </g>
     </g>
    </g>
    <g id="ytick_35">
     <g id="line2d_42">
      <g>
       <use xlink:href="#m773f93d448" x="57.6" y="125.051545" style="stroke: #000000; stroke-width: 0.6"/>
      </g>
     </g>
    </g>
    <g id="ytick_36">
     <g id="line2d_43">
      <g>
       <use xlink:href="#m773f93d448" x="57.6" y="122.122876" style="stroke: #000000; stroke-width: 0.6"/>
      </g>
     </g>
    </g>
    <g id="ytick_37">
     <g id="line2d_44">
      <g>
       <use xlink:href="#m773f93d448" x="57.6" y="119.539607" style="stroke: #000000; stroke-width: 0.6"/>
      </g>
     </g>
    </g>
    <g id="ytick_38">
     <g id="line2d_45">
      <g>
       <use xlink:href="#m773f93d448" x="57.6" y="102.026388" style="stroke: #000000; stroke-width: 0.6"/>
      </g>
     </g>
    </g>
    <g id="ytick_39">
     <g id="line2d_46">
      <g>
       <use xlink:href="#m773f93d448" x="57.6" y="93.133551" style="stroke: #000000; stroke-width: 0.6"/>
      </g>
     </g>
    </g>
    <g id="ytick_40">
     <g id="line2d_47">
      <g>
       <use xlink:href="#m773f93d448" x="57.6" y="86.823983" style="stroke: #000000; stroke-width: 0.6"/>
      </g>
     </g>
    </g>
    <g id="ytick_41">
     <g id="line2d_48">
      <g>
       <use xlink:href="#m773f93d448" x="57.6" y="81.929901" style="stroke: #000000; stroke-width: 0.6"/>
      </g>
     </g>
    </g>
    <g id="ytick_42">
     <g id="line2d_49">
      <g>
       <use xlink:href="#m773f93d448" x="57.6" y="77.931145" style="stroke: #000000; stroke-width: 0.6"/>
      </g>
     </g>
    </g>
    <g id="ytick_43">
     <g id="line2d_50">
      <g>
       <use xlink:href="#m773f93d448" x="57.6" y="74.550245" style="stroke: #000000; stroke-width: 0.6"/>
      </g>
     </g>
    </g>
    <g id="ytick_44">
     <g id="line2d_51">
      <g>
       <use xlink:href="#m773f93d448" x="57.6" y="71.621577" style="stroke: #000000; stroke-width: 0.6"/>
      </g>
     </g>
    </g>
    <g id="ytick_45">
     <g id="line2d_52">
      <g>
       <use xlink:href="#m773f93d448" x="57.6" y="69.038308" style="stroke: #000000; stroke-width: 0.6"/>
      </g>
     </g>
    </g>
    <g id="ytick_46">
     <g id="line2d_53">
      <g>
       <use xlink:href="#m773f93d448" x="57.6" y="51.525089" style="stroke: #000000; stroke-width: 0.6"/>
      </g>
     </g>
    </g>
    <g id="ytick_47">
     <g id="line2d_54">
      <g>
       <use xlink:href="#m773f93d448" x="57.6" y="42.632252" style="stroke: #000000; stroke-width: 0.6"/>
      </g>
     </g>
    </g>
    <g id="text_14">
     <!-- Leistung/Frequenz (V²/Hz) -->
     <g transform="translate(21.020312 239.182687) rotate(-90) scale(0.1 -0.1)">
      <defs>
       <path id="DejaVuSans-4c" d="M 628 4666 
L 1259 4666 
L 1259 531 
L 3531 531 
L 3531 0 
L 628 0 
L 628 4666 
z
" transform="scale(0.015625)"/>
       <path id="DejaVuSans-73" d="M 2834 3397 
L 2834 2853 
Q 2591 2978 2328 3040 
Q 2066 3103 1784 3103 
Q 1356 3103 1142 2972 
Q 928 2841 928 2578 
Q 928 2378 1081 2264 
Q 1234 2150 1697 2047 
L 1894 2003 
Q 2506 1872 2764 1633 
Q 3022 1394 3022 966 
Q 3022 478 2636 193 
Q 2250 -91 1575 -91 
Q 1294 -91 989 -36 
Q 684 19 347 128 
L 347 722 
Q 666 556 975 473 
Q 1284 391 1588 391 
Q 1994 391 2212 530 
Q 2431 669 2431 922 
Q 2431 1156 2273 1281 
Q 2116 1406 1581 1522 
L 1381 1569 
Q 847 1681 609 1914 
Q 372 2147 372 2553 
Q 372 3047 722 3315 
Q 1072 3584 1716 3584 
Q 2034 3584 2315 3537 
Q 2597 3491 2834 3397 
z
" transform="scale(0.015625)"/>
       <path id="DejaVuSans-74" d="M 1172 4494 
L 1172 3500 
L 2356 3500 
L 2356 3053 
L 1172 3053 
L 1172 1153 
Q 1172 725 1289 603 
Q 1406 481 1766 481 
L 2356 481 
L 2356 0 
L 1766 0 
Q 1100 0 847 248 
Q 594 497 594 1153 
L 594 3053 
L 172 3053 
L 172 3500 
L 594 3500 
L 594 4494 
L 1172 4494 
z
" transform="scale(0.015625)"/>
       <path id="DejaVuSans-67" d="M 2906 1791 
Q 2906 2416 2648 2759 
Q 2391 3103 1925 3103 
Q 1463 3103 1205 2759 
Q 947 2416 947 1791 
Q 947 1169 1205 825 
Q 1463 481 1925 481 
Q 2391 481 2648 825 
Q 2906 1169 2906 1791 
z
M 3481 434 
Q 3481 -459 3084 -895 
Q 2688 -1331 1869 -1331 
Q 1566 -1331 1297 -1286 
Q 1028 -1241 775 -1147 
L 775 -588 
Q 1028 -725 1275 -790 
Q 1522 -856 1778 -856 
Q 2344 -856 2625 -561 
Q 2906 -266 2906 331 
L 2906 616 
Q 2728 306 2450 153 
Q 2172 0 1784 0 
Q 1141 0 747 490 
Q 353 981 353 1791 
Q 353 2603 747 3093 
Q 1141 3584 1784 3584 
Q 2172 3584 2450 3431 
Q 2728 3278 2906 2969 
L 2906 3500 
L 3481 3500 
L 3481 434 
z
" transform="scale(0.015625)"/>
       <path id="DejaVuSans-2f" d="M 1625 4666 
L 2156 4666 
L 531 -594 
L 0 -594 
L 1625 4666 
z
" transform="scale(0.015625)"/>
       <path id="DejaVuSans-28" d="M 1984 4856 
Q 1566 4138 1362 3434 
Q 1159 2731 1159 2009 
Q 1159 1288 1364 580 
Q 1569 -128 1984 -844 
L 1484 -844 
Q 1016 -109 783 600 
Q 550 1309 550 2009 
Q 550 2706 781 3412 
Q 1013 4119 1484 4856 
L 1984 4856 
z
" transform="scale(0.015625)"/>
       <path id="DejaVuSans-56" d="M 1831 0 
L 50 4666 
L 709 4666 
L 2188 738 
L 3669 4666 
L 4325 4666 
L 2547 0 
L 1831 0 
z
" transform="scale(0.015625)"/>
       <path id="DejaVuSans-b2" d="M 838 2444 
L 2163 2444 
L 2163 2088 
L 294 2088 
L 294 2431 
Q 400 2528 597 2703 
Q 1672 3656 1672 3950 
Q 1672 4156 1509 4282 
Q 1347 4409 1081 4409 
Q 919 4409 728 4354 
Q 538 4300 313 4191 
L 313 4575 
Q 553 4663 761 4706 
Q 969 4750 1147 4750 
Q 1600 4750 1872 4544 
Q 2144 4338 2144 4000 
Q 2144 3566 1109 2678 
Q 934 2528 838 2444 
z
" transform="scale(0.015625)"/>
       <path id="DejaVuSans-29" d="M 513 4856 
L 1013 4856 
Q 1481 4119 1714 3412 
Q 1947 2706 1947 2009 
Q 1947 1309 1714 600 
Q 1481 -109 1013 -844 
L 513 -844 
Q 928 -128 1133 580 
Q 1338 1288 1338 2009 
Q 1338 2731 1133 3434 
Q 928 4138 513 4856 
z
" transform="scale(0.015625)"/>
      </defs>
      <use xlink:href="#DejaVuSans-4c"/>
      <use xlink:href="#DejaVuSans-65" transform="translate(53.962891 0)"/>
      <use xlink:href="#DejaVuSans-69" transform="translate(115.486328 0)"/>
      <use xlink:href="#DejaVuSans-73" transform="translate(143.269531 0)"/>
      <use xlink:href="#DejaVuSans-74" transform="translate(195.369141 0)"/>
      <use xlink:href="#DejaVuSans-75" transform="translate(234.578125 0)"/>
      <use xlink:href="#DejaVuSans-6e" transform="translate(297.957031 0)"/>
      <use xlink:href="#DejaVuSans-67" transform="translate(361.335938 0)"/>
      <use xlink:href="#DejaVuSans-2f" transform="translate(424.8125 0)"/>
      <use xlink:href="#DejaVuSans-46" transform="translate(458.503906 0)"/>
      <use xlink:href="#DejaVuSans-72" transform="translate(508.773438 0)"/>
      <use xlink:href="#DejaVuSans-65" transform="translate(547.636719 0)"/>
      <use xlink:href="#DejaVuSans-71" transform="translate(609.160156 0)"/>
      <use xlink:href="#DejaVuSans-75" transform="translate(672.636719 0)"/>
      <use xlink:href="#DejaVuSans-65" transform="translate(736.015625 0)"/>
      <use xlink:href="#DejaVuSans-6e" transform="translate(797.539062 0)"/>
      <use xlink:href="#DejaVuSans-7a" transform="translate(860.917969 0)"/>
      <use xlink:href="#DejaVuSans-20" transform="translate(913.408203 0)"/>
      <use xlink:href="#DejaVuSans-28" transform="translate(945.195312 0)"/>
      <use xlink:href="#DejaVuSans-56" transform="translate(984.208984 0)"/>
      <use xlink:href="#DejaVuSans-b2" transform="translate(1052.617188 0)"/>
      <use xlink:href="#DejaVuSans-2f" transform="translate(1092.705078 0)"/>
      <use xlink:href="#DejaVuSans-48" transform="translate(1126.396484 0)"/>
      <use xlink:href="#DejaVuSans-7a" transform="translate(1201.591797 0)"/>
      <use xlink:href="#DejaVuSans-29" transform="translate(1254.082031 0)"/>
     </g>
    </g>
   </g>
   <g id="line2d_55">
    <path d="M 73.832727 88.978644 
L 74.149773 54.548051 
L 74.466818 54.726283 
L 74.783864 71.842973 
L 75.100909 81.708997 
L 75.417955 84.046453 
L 75.735 81.130286 
L 76.369091 94.58818 
L 77.003182 77.527796 
L 77.637273 109.988427 
L 77.954318 114.889323 
L 78.271364 116.122196 
L 78.588409 117.887613 
L 78.905455 110.351384 
L 79.2225 114.840978 
L 79.539545 117.106882 
L 79.856591 114.815194 
L 80.173636 117.772869 
L 80.490682 128.853838 
L 80.807727 128.728075 
L 81.124773 127.897488 
L 82.392955 135.807309 
L 82.71 139.703609 
L 83.027045 136.407547 
L 83.344091 134.936358 
L 83.661136 139.824675 
L 83.978182 139.387059 
L 84.295227 140.324888 
L 84.612273 138.840913 
L 84.929318 139.592696 
L 85.246364 137.153628 
L 85.563409 142.413048 
L 85.880455 145.795609 
L 86.1975 140.125132 
L 86.514545 143.791801 
L 86.831591 145.909712 
L 87.148636 144.620084 
L 87.465682 150.877749 
L 87.782727 154.720657 
L 88.099773 154.032219 
L 88.416818 151.275442 
L 88.733864 151.726488 
L 89.050909 148.859002 
L 89.367955 143.949579 
L 89.685 148.833774 
L 90.319091 154.024424 
L 90.636136 147.323009 
L 90.953182 148.975493 
L 91.270227 151.810138 
L 91.904318 148.260322 
L 92.221364 149.589943 
L 92.538409 149.439943 
L 92.855455 148.812746 
L 93.1725 141.90532 
L 93.489545 146.217124 
L 93.806591 144.067275 
L 94.123636 138.412762 
L 94.440682 139.260939 
L 94.757727 134.704273 
L 95.074773 134.217284 
L 95.391818 131.019026 
L 95.708864 129.94397 
L 96.025909 126.395715 
L 96.342955 132.129784 
L 96.66 126.60473 
L 96.977045 130.067526 
L 97.294091 124.082219 
L 98.245227 129.794993 
L 98.562273 131.297044 
L 99.513409 141.860919 
L 99.830455 139.994098 
L 100.1475 140.568831 
L 100.464545 141.541612 
L 100.781591 141.90436 
L 101.098636 143.14004 
L 101.732727 136.983318 
L 102.366818 144.481316 
L 103.000909 149.155696 
L 103.635 146.508091 
L 103.952045 149.168523 
L 104.269091 146.920908 
L 104.586136 148.434644 
L 104.903182 146.186501 
L 105.220227 149.955859 
L 105.537273 149.746605 
L 105.854318 148.303407 
L 106.171364 150.903815 
L 106.488409 158.042075 
L 106.805455 158.160651 
L 107.1225 156.309093 
L 107.439545 165.156994 
L 107.756591 160.199973 
L 108.073636 160.349706 
L 108.390682 166.625206 
L 108.707727 160.34774 
L 109.024773 158.371286 
L 109.341818 162.52621 
L 109.658864 155.485496 
L 109.975909 152.948309 
L 110.292955 156.618897 
L 110.61 156.430219 
L 110.927045 159.284205 
L 111.244091 155.833382 
L 111.561136 151.055797 
L 112.195227 162.978415 
L 112.512273 160.944994 
L 112.829318 156.008472 
L 113.146364 163.093254 
L 113.463409 165.445592 
L 113.780455 162.46684 
L 114.0975 161.354771 
L 114.414545 164.264045 
L 114.731591 164.472801 
L 115.048636 162.47925 
L 115.365682 167.667116 
L 115.682727 164.453469 
L 115.999773 163.692794 
L 116.316818 157.238487 
L 116.633864 158.011247 
L 117.267955 167.618242 
L 117.585 164.167433 
L 117.902045 163.53861 
L 118.219091 159.67144 
L 118.536136 157.987425 
L 119.170227 161.526811 
L 119.487273 155.334757 
L 119.804318 156.092392 
L 120.438409 164.033875 
L 120.755455 162.402949 
L 121.389545 169.624645 
L 121.706591 165.371926 
L 122.023636 163.835172 
L 122.340682 165.099263 
L 122.657727 161.736573 
L 122.974773 169.232602 
L 123.608864 166.835356 
L 123.925909 166.621272 
L 124.242955 163.213806 
L 124.56 165.056525 
L 124.877045 161.168639 
L 125.194091 161.941292 
L 125.511136 164.766175 
L 125.828182 165.596899 
L 126.145227 165.069134 
L 126.779318 171.264907 
L 127.096364 169.96711 
L 127.413409 166.287536 
L 127.730455 167.604902 
L 128.0475 169.759914 
L 128.364545 166.772643 
L 129.315682 169.545082 
L 129.632727 163.28232 
L 129.949773 164.080638 
L 130.266818 167.894298 
L 130.583864 168.484412 
L 130.900909 166.910772 
L 131.535 169.451653 
L 131.852045 166.740315 
L 132.169091 161.351342 
L 132.486136 163.602407 
L 132.803182 169.905639 
L 133.120227 168.144254 
L 133.437273 164.723834 
L 133.754318 167.61738 
L 134.071364 168.860234 
L 134.388409 172.659575 
L 134.705455 171.515453 
L 135.0225 173.892274 
L 135.339545 175.264573 
L 135.656591 175.497661 
L 135.973636 168.792061 
L 136.290682 169.712744 
L 136.607727 171.132565 
L 136.924773 167.606028 
L 137.241818 167.403369 
L 137.558864 172.333718 
L 137.875909 174.069392 
L 138.192955 172.854547 
L 138.51 170.051398 
L 138.827045 177.655693 
L 139.144091 174.481076 
L 139.461136 173.869964 
L 139.778182 175.827763 
L 140.412273 167.265024 
L 140.729318 171.480969 
L 141.046364 172.448489 
L 141.680455 165.60911 
L 141.9975 176.693633 
L 142.314545 176.111435 
L 142.631591 176.908838 
L 142.948636 180.912294 
L 143.265682 179.865485 
L 143.582727 178.063181 
L 143.899773 179.962299 
L 144.216818 172.238216 
L 144.533864 172.833645 
L 144.850909 175.145117 
L 145.167955 179.518607 
L 145.802045 169.481121 
L 146.119091 168.993404 
L 146.436136 173.152628 
L 146.753182 174.780561 
L 147.387273 169.152271 
L 147.704318 170.652444 
L 148.021364 177.287721 
L 148.338409 176.235981 
L 148.9725 172.366702 
L 149.289545 173.283471 
L 149.606591 176.57633 
L 149.923636 176.981813 
L 150.240682 177.112773 
L 150.557727 177.022727 
L 150.874773 177.582812 
L 151.191818 173.816235 
L 151.508864 172.785162 
L 152.142955 176.83523 
L 152.46 177.121663 
L 152.777045 175.114004 
L 153.094091 178.462043 
L 153.411136 178.281399 
L 153.728182 170.222477 
L 154.362273 173.448351 
L 154.679318 172.026143 
L 154.996364 173.881237 
L 155.313409 180.187327 
L 155.630455 181.894524 
L 155.9475 178.615657 
L 156.264545 178.709071 
L 156.581591 180.504844 
L 156.898636 181.462894 
L 157.215682 168.40291 
L 157.532727 164.763834 
L 158.166818 186.038286 
L 158.483864 180.115273 
L 158.800909 179.649001 
L 159.435 173.850711 
L 159.752045 176.882542 
L 160.069091 171.938951 
L 160.386136 175.555793 
L 160.703182 177.306446 
L 161.020227 175.010873 
L 161.654318 187.959323 
L 161.971364 187.186788 
L 162.288409 181.131234 
L 162.605455 185.527744 
L 162.9225 182.859065 
L 163.239545 174.490181 
L 163.556591 170.714171 
L 163.873636 170.632964 
L 164.190682 170.711816 
L 164.507727 175.796489 
L 164.824773 174.709792 
L 165.141818 179.774993 
L 165.775909 185.336806 
L 166.092955 180.016369 
L 166.41 181.159104 
L 166.727045 175.689183 
L 167.044091 175.583001 
L 167.361136 172.89001 
L 167.678182 174.757349 
L 167.995227 174.53694 
L 168.312273 170.73936 
L 168.946364 181.917452 
L 169.263409 181.546467 
L 169.580455 181.652993 
L 169.8975 185.234565 
L 170.214545 183.357056 
L 170.531591 186.618409 
L 170.848636 193.111159 
L 171.165682 189.622347 
L 171.482727 183.028814 
L 172.116818 177.853246 
L 172.433864 171.962954 
L 172.750909 172.053715 
L 173.067955 178.053203 
L 173.385 186.597616 
L 173.702045 184.438364 
L 174.019091 183.48333 
L 174.336136 185.950179 
L 174.653182 184.612966 
L 174.970227 179.113685 
L 175.287273 177.093455 
L 175.604318 179.93453 
L 175.921364 178.953304 
L 176.555455 186.849058 
L 176.8725 185.078628 
L 177.189545 181.837763 
L 177.506591 183.50967 
L 177.823636 180.936338 
L 178.140682 183.360707 
L 178.774773 183.467544 
L 179.091818 181.798326 
L 179.408864 179.50784 
L 180.042955 187.412402 
L 180.36 188.042357 
L 180.677045 185.101497 
L 181.311136 189.032586 
L 181.628182 187.648851 
L 181.945227 183.367021 
L 182.262273 183.112853 
L 182.579318 183.236469 
L 182.896364 185.439961 
L 183.530455 181.698005 
L 183.8475 181.050126 
L 184.481591 180.867158 
L 184.798636 184.462595 
L 185.115682 186.730156 
L 185.749773 184.971374 
L 186.066818 187.930124 
L 186.383864 186.594974 
L 186.700909 191.472977 
L 187.335 177.687969 
L 187.652045 177.398396 
L 187.969091 176.937594 
L 188.286136 178.516977 
L 189.237273 188.817637 
L 189.554318 185.887268 
L 189.871364 185.900956 
L 190.188409 186.069269 
L 190.505455 184.567667 
L 190.8225 184.881532 
L 191.139545 187.741137 
L 191.456591 175.362813 
L 191.773636 178.556463 
L 192.090682 179.490766 
L 192.407727 187.424081 
L 192.724773 191.293076 
L 193.041818 184.045448 
L 193.358864 183.848285 
L 193.675909 191.648076 
L 193.992955 189.435478 
L 194.31 184.613758 
L 194.627045 186.830784 
L 194.944091 190.855222 
L 195.261136 189.52912 
L 195.578182 185.550928 
L 195.895227 183.942112 
L 196.212273 185.793144 
L 196.529318 182.909977 
L 196.846364 182.511824 
L 197.163409 186.896505 
L 197.480455 186.82258 
L 197.7975 185.120613 
L 198.114545 187.281447 
L 198.431591 185.513565 
L 198.748636 188.540346 
L 199.065682 185.169113 
L 199.382727 184.460077 
L 199.699773 186.584404 
L 200.016818 181.138786 
L 200.333864 186.192069 
L 201.285 193.406002 
L 201.602045 188.951989 
L 201.919091 188.38542 
L 202.236136 184.858179 
L 202.553182 183.654839 
L 202.870227 187.644858 
L 203.187273 190.169164 
L 203.504318 188.892975 
L 203.821364 191.96987 
L 204.138409 189.50135 
L 204.455455 188.382025 
L 204.7725 186.001141 
L 205.089545 185.373333 
L 205.406591 191.788831 
L 205.723636 185.010753 
L 206.674773 192.7418 
L 206.991818 189.703058 
L 207.308864 182.886416 
L 207.625909 180.35686 
L 207.942955 186.362201 
L 208.26 186.976287 
L 208.577045 186.207781 
L 208.894091 189.250554 
L 209.211136 185.539242 
L 209.528182 184.905017 
L 209.845227 186.492267 
L 210.162273 186.738249 
L 210.479318 188.106218 
L 210.796364 190.563491 
L 211.113409 187.074379 
L 211.430455 190.557141 
L 211.7475 187.569844 
L 212.064545 186.328792 
L 212.381591 183.849538 
L 212.698636 186.212741 
L 213.015682 193.081895 
L 213.332727 192.037503 
L 213.649773 190.022533 
L 214.600909 194.850395 
L 214.917955 190.581502 
L 215.552045 188.627974 
L 216.186136 189.802228 
L 216.503182 194.104839 
L 216.820227 192.363469 
L 217.137273 192.619732 
L 217.454318 196.060686 
L 217.771364 191.276403 
L 218.088409 190.529378 
L 218.405455 191.81985 
L 218.7225 194.363442 
L 219.039545 193.472307 
L 219.356591 189.856637 
L 219.673636 194.411953 
L 219.990682 196.466347 
L 220.307727 191.320747 
L 220.624773 191.546338 
L 220.941818 192.180921 
L 221.258864 191.825094 
L 221.575909 189.277295 
L 222.21 190.659445 
L 222.527045 194.052486 
L 223.478182 191.200229 
L 223.795227 200.707732 
L 224.112273 196.642083 
L 224.429318 196.605148 
L 224.746364 194.485681 
L 225.063409 189.101447 
L 225.380455 188.610474 
L 226.014545 149.057834 
L 226.331591 178.763488 
L 226.648636 193.660652 
L 226.965682 191.858226 
L 227.282727 193.544054 
L 227.599773 193.462204 
L 227.916818 198.120275 
L 228.233864 194.172143 
L 228.550909 193.215631 
L 228.867955 193.85667 
L 229.185 191.435677 
L 229.502045 198.198532 
L 229.819091 201.333305 
L 230.136136 195.30283 
L 230.453182 195.774813 
L 230.770227 201.931077 
L 231.087273 192.207793 
L 231.404318 197.79955 
L 231.721364 190.142012 
L 232.038409 188.329417 
L 232.355455 189.099463 
L 232.6725 195.600479 
L 232.989545 194.364577 
L 233.306591 194.844053 
L 233.623636 197.441044 
L 233.940682 196.865849 
L 234.574773 197.762629 
L 235.208864 199.774781 
L 235.525909 201.956915 
L 235.842955 196.218108 
L 236.16 194.386327 
L 236.477045 199.173975 
L 236.794091 199.429123 
L 237.111136 197.885119 
L 237.428182 199.99595 
L 238.062273 195.763305 
L 238.379318 200.34567 
L 238.696364 197.726966 
L 239.013409 200.797664 
L 239.330455 197.284977 
L 239.6475 189.124585 
L 240.598636 199.504066 
L 240.915682 195.467928 
L 241.232727 197.593569 
L 241.866818 195.294439 
L 242.500909 192.340285 
L 242.817955 197.370374 
L 243.135 198.188768 
L 243.452045 195.246861 
L 243.769091 193.858677 
L 244.086136 195.641901 
L 244.403182 198.576283 
L 244.720227 199.830535 
L 245.037273 197.677654 
L 245.354318 191.575322 
L 245.671364 196.363024 
L 245.988409 197.737003 
L 246.6225 194.565857 
L 247.256591 193.934351 
L 247.573636 198.76616 
L 247.890682 200.891829 
L 248.207727 198.290889 
L 248.524773 200.946783 
L 248.841818 196.473413 
L 249.158864 194.247238 
L 249.475909 193.616727 
L 249.792955 199.791476 
L 250.11 200.756385 
L 250.427045 197.405733 
L 250.744091 200.147132 
L 251.061136 200.068857 
L 251.378182 197.312036 
L 251.695227 199.682753 
L 252.012273 196.152123 
L 252.329318 195.035668 
L 252.646364 195.90622 
L 252.963409 198.087924 
L 253.280455 197.554062 
L 253.914545 193.868505 
L 254.231591 195.30092 
L 254.548636 197.258254 
L 254.865682 205.255728 
L 255.499773 196.755764 
L 255.816818 198.30128 
L 256.133864 198.759739 
L 256.450909 201.720498 
L 256.767955 200.756918 
L 257.085 201.432871 
L 257.719091 197.922503 
L 258.036136 204.589174 
L 258.353182 204.891384 
L 258.670227 206.50302 
L 258.987273 198.190366 
L 259.304318 195.887703 
L 259.621364 198.1541 
L 259.938409 191.453893 
L 260.255455 192.610942 
L 260.5725 199.350711 
L 261.523636 201.629543 
L 262.157727 199.7972 
L 262.474773 204.558552 
L 262.791818 207.601728 
L 263.425909 197.895431 
L 263.742955 200.075957 
L 264.06 204.389457 
L 265.011136 196.526519 
L 265.645227 206.645209 
L 266.279318 203.451634 
L 266.596364 199.656604 
L 266.913409 202.561955 
L 267.230455 206.719079 
L 267.5475 200.87856 
L 267.864545 204.479492 
L 268.181591 210.402719 
L 269.449773 205.64344 
L 269.766818 206.785875 
L 270.400909 200.680564 
L 270.717955 203.812038 
L 271.035 205.194352 
L 271.352045 202.707823 
L 271.669091 203.347458 
L 271.986136 206.801761 
L 272.303182 198.672988 
L 272.937273 203.535939 
L 273.254318 200.968827 
L 273.571364 201.215551 
L 273.888409 202.52595 
L 274.205455 202.965565 
L 274.5225 202.62193 
L 274.839545 206.734494 
L 275.156591 208.193711 
L 275.473636 211.956141 
L 275.790682 214.063862 
L 276.424773 205.909357 
L 277.058864 211.144401 
L 277.375909 210.053108 
L 277.692955 210.109078 
L 278.01 205.992169 
L 278.327045 208.136162 
L 278.961136 202.21245 
L 279.278182 205.562532 
L 279.595227 207.169561 
L 279.912273 207.258214 
L 280.229318 205.060817 
L 280.546364 205.489097 
L 280.863409 215.7475 
L 281.180455 209.492387 
L 281.4975 210.663873 
L 281.814545 207.44305 
L 282.131591 200.835901 
L 282.448636 199.705418 
L 282.765682 204.619981 
L 283.082727 206.150404 
L 283.716818 199.512765 
L 284.033864 204.798933 
L 284.350909 203.383785 
L 284.985 208.639765 
L 285.619091 204.43806 
L 285.936136 209.947256 
L 286.570227 207.539975 
L 287.204318 215.37735 
L 287.521364 214.597018 
L 287.838409 207.334374 
L 288.155455 207.190838 
L 288.4725 207.750802 
L 288.789545 204.814601 
L 289.106591 208.107282 
L 289.423636 213.758676 
L 289.740682 207.265025 
L 290.057727 210.663443 
L 290.374773 212.82502 
L 291.325909 203.496458 
L 291.642955 204.234539 
L 291.96 210.759199 
L 292.277045 211.849229 
L 292.594091 213.910287 
L 292.911136 211.67618 
L 293.545227 213.840005 
L 294.179318 209.991321 
L 294.496364 205.048328 
L 294.813409 208.058917 
L 295.130455 208.026918 
L 295.764545 212.150234 
L 296.081591 212.785253 
L 296.398636 212.993461 
L 296.715682 212.576229 
L 297.032727 207.161302 
L 297.349773 210.794089 
L 297.666818 216.880349 
L 297.983864 215.942273 
L 298.300909 214.330826 
L 298.617955 214.167806 
L 299.252045 213.519416 
L 299.569091 211.382194 
L 300.203182 210.170157 
L 300.520227 208.201654 
L 300.837273 208.883923 
L 301.154318 210.872211 
L 301.471364 218.553318 
L 301.788409 214.407246 
L 302.105455 213.575394 
L 302.4225 210.081284 
L 302.739545 211.349581 
L 303.056591 213.987869 
L 303.373636 213.516889 
L 303.690682 214.854321 
L 304.324773 213.499094 
L 304.641818 213.91616 
L 304.958864 217.006979 
L 305.592955 209.243037 
L 305.91 209.691988 
L 306.227045 209.609297 
L 306.544091 210.471603 
L 306.861136 210.660682 
L 307.178182 208.457902 
L 307.812273 214.80657 
L 308.129318 209.847042 
L 308.446364 212.575235 
L 308.763409 220.304478 
L 309.080455 211.929105 
L 309.3975 212.215984 
L 309.714545 219.56456 
L 310.031591 214.150345 
L 310.348636 214.682943 
L 310.665682 216.551203 
L 310.982727 216.697554 
L 311.299773 216.565132 
L 311.616818 214.457434 
L 311.933864 214.002636 
L 312.250909 222.816419 
L 312.567955 224.06767 
L 312.885 219.860217 
L 313.202045 220.717583 
L 313.836136 210.802541 
L 314.470227 221.41836 
L 315.104318 210.880001 
L 315.738409 222.353092 
L 316.055455 218.778212 
L 316.3725 213.621965 
L 316.689545 211.703518 
L 317.006591 219.44567 
L 317.323636 222.090231 
L 317.640682 219.793195 
L 317.957727 219.380946 
L 318.274773 219.476442 
L 318.591818 222.170197 
L 318.908864 220.556808 
L 319.225909 217.446516 
L 319.542955 219.372419 
L 319.86 215.119293 
L 320.177045 218.32749 
L 320.494091 217.154139 
L 320.811136 217.223894 
L 321.128182 216.078077 
L 321.445227 218.314608 
L 321.762273 223.935165 
L 322.396364 212.655155 
L 322.713409 214.510131 
L 323.030455 214.526289 
L 323.3475 215.101667 
L 323.664545 213.385383 
L 323.981591 213.54259 
L 324.298636 211.935835 
L 324.615682 219.697588 
L 324.932727 221.904303 
L 325.249773 218.350688 
L 325.566818 218.108753 
L 325.883864 222.696467 
L 326.200909 224.138649 
L 326.517955 215.773986 
L 327.469091 220.927899 
L 327.786136 221.223401 
L 328.103182 219.52381 
L 328.420227 219.39643 
L 328.737273 220.657251 
L 329.054318 225.387869 
L 329.371364 222.040776 
L 329.688409 223.374604 
L 330.005455 220.723909 
L 330.3225 223.1412 
L 330.639545 223.379963 
L 330.956591 221.022779 
L 331.273636 223.306345 
L 331.907727 218.989041 
L 332.541818 225.268874 
L 332.858864 223.563276 
L 333.175909 226.320113 
L 333.492955 225.522955 
L 333.81 220.496354 
L 334.127045 222.060956 
L 334.444091 218.798684 
L 334.761136 219.447892 
L 335.078182 224.326654 
L 335.395227 220.926722 
L 335.712273 221.342694 
L 336.029318 216.696741 
L 336.663409 216.844003 
L 336.980455 221.054395 
L 337.2975 221.974518 
L 337.614545 223.864927 
L 337.931591 219.344591 
L 338.248636 224.121148 
L 338.565682 221.410745 
L 338.882727 216.910152 
L 339.199773 219.813141 
L 339.516818 225.814783 
L 339.833864 227.028198 
L 340.150909 226.947703 
L 340.467955 226.993104 
L 340.785 224.737768 
L 341.102045 223.769157 
L 341.419091 223.501197 
L 341.736136 227.881589 
L 342.053182 228.510662 
L 342.687273 221.274444 
L 343.004318 219.527566 
L 343.321364 225.091208 
L 343.955455 216.235443 
L 344.2725 224.598305 
L 344.906591 230.04186 
L 345.223636 226.665217 
L 345.540682 221.427848 
L 345.857727 222.592915 
L 346.174773 218.142021 
L 346.491818 223.581416 
L 346.808864 223.861661 
L 347.125909 222.231459 
L 347.442955 219.352797 
L 348.077045 235.366691 
L 348.394091 231.734967 
L 348.711136 225.847146 
L 349.028182 222.241487 
L 349.345227 222.507992 
L 349.662273 226.477372 
L 350.296364 221.329927 
L 350.613409 221.403571 
L 350.930455 224.670519 
L 351.2475 222.868867 
L 351.564545 220.172399 
L 351.881591 226.648004 
L 352.198636 229.83641 
L 352.515682 230.131381 
L 353.149773 237.078577 
L 353.466818 236.872129 
L 353.783864 234.081753 
L 354.100909 223.929766 
L 354.417955 221.628172 
L 354.735 231.286803 
L 355.052045 230.226336 
L 355.369091 226.226346 
L 355.686136 225.977142 
L 356.003182 232.773699 
L 356.320227 234.751698 
L 356.637273 227.744091 
L 356.954318 229.804242 
L 357.271364 237.282642 
L 357.588409 236.753013 
L 357.905455 235.537651 
L 358.2225 228.268245 
L 358.539545 227.356973 
L 358.856591 230.856462 
L 359.173636 229.514122 
L 359.490682 229.000176 
L 360.124773 232.799705 
L 360.441818 232.876117 
L 360.758864 223.257763 
L 361.075909 227.09674 
L 361.392955 235.233266 
L 361.71 232.762394 
L 362.027045 228.589764 
L 362.344091 228.240299 
L 362.978182 231.270445 
L 363.295227 228.018642 
L 363.612273 226.282805 
L 363.929318 232.707858 
L 364.246364 232.647449 
L 364.563409 230.352939 
L 364.880455 233.324518 
L 365.1975 234.674157 
L 365.514545 227.727655 
L 365.831591 226.939855 
L 366.148636 229.16876 
L 366.465682 228.099273 
L 366.782727 230.161962 
L 367.099773 230.004145 
L 367.416818 233.097077 
L 367.733864 232.008786 
L 368.050909 228.856649 
L 368.367955 229.318946 
L 368.685 232.905129 
L 369.002045 235.079942 
L 369.319091 235.228645 
L 369.636136 232.52444 
L 369.953182 233.710242 
L 370.270227 236.56426 
L 370.904318 233.644513 
L 371.221364 231.327216 
L 371.538409 236.649055 
L 371.855455 237.860922 
L 372.1725 236.423936 
L 372.489545 236.828807 
L 372.806591 231.855832 
L 373.123636 232.638487 
L 373.440682 236.217858 
L 373.757727 235.472523 
L 374.074773 236.717662 
L 374.391818 233.123681 
L 374.708864 231.606275 
L 375.025909 233.213844 
L 375.342955 232.805655 
L 375.66 227.976099 
L 375.977045 225.176491 
L 376.294091 226.903352 
L 376.611136 226.192895 
L 377.245227 230.883001 
L 377.562273 229.243753 
L 377.879318 231.867644 
L 378.196364 225.81356 
L 378.513409 226.665613 
L 378.830455 235.640915 
L 379.1475 233.169472 
L 379.464545 229.173214 
L 379.781591 234.844936 
L 380.098636 232.201549 
L 380.415682 225.493732 
L 380.732727 231.0678 
L 381.049773 239.83543 
L 381.366818 236.131205 
L 381.683864 225.532901 
L 382.000909 227.073465 
L 382.317955 232.362009 
L 382.635 240.688878 
L 382.952045 240.201738 
L 383.269091 234.492328 
L 383.586136 234.259874 
L 384.220227 235.631961 
L 384.854318 243.311519 
L 385.171364 232.625212 
L 385.488409 230.224445 
L 385.805455 230.185463 
L 386.1225 232.281408 
L 386.439545 229.818474 
L 386.756591 226.111438 
L 387.073636 235.093488 
L 387.390682 236.145183 
L 387.707727 231.573822 
L 388.024773 233.903868 
L 388.341818 229.091683 
L 388.658864 228.360547 
L 388.975909 233.265422 
L 389.292955 223.956176 
L 389.61 223.02534 
L 389.927045 226.48275 
L 390.244091 228.38358 
L 390.561136 229.132413 
L 390.878182 226.319886 
L 391.512273 232.491427 
L 391.829318 230.825662 
L 392.146364 226.517547 
L 392.463409 230.019402 
L 392.780455 231.089228 
L 393.0975 233.876954 
L 393.414545 234.123759 
L 393.731591 234.623754 
L 394.048636 240.076954 
L 394.365682 233.567271 
L 394.682727 229.393537 
L 394.999773 233.073134 
L 395.316818 229.931308 
L 395.633864 231.288019 
L 395.950909 233.674242 
L 396.267955 234.094975 
L 396.585 235.979102 
L 396.902045 236.301302 
L 397.219091 233.179643 
L 397.536136 235.041998 
L 397.853182 238.026032 
L 398.170227 233.577887 
L 398.487273 243.817038 
L 398.487273 243.817038 
" clip-path="url(#pa82b18a421)" style="fill: none; stroke: #0000ff; stroke-width: 1.5; stroke-linecap: square"/>
   </g>
   <g id="line2d_56">
    <path d="M 73.832727 93.508022 
L 74.142342 53.826314 
L 74.451957 53.568 
L 75.071186 82.821056 
L 75.380801 82.017316 
L 75.690415 79.227263 
L 76.309645 96.106164 
L 76.61926 88.788107 
L 76.928874 76.519058 
L 77.857718 115.035588 
L 78.167333 113.814831 
L 78.476948 115.767356 
L 78.786563 111.712992 
L 79.096177 111.665706 
L 79.405792 114.232765 
L 80.025021 116.079786 
L 80.644251 127.167377 
L 80.953865 126.542267 
L 81.26348 127.140753 
L 81.88271 132.993642 
L 82.192324 134.291766 
L 82.501939 137.234571 
L 82.811554 137.016121 
L 83.121168 133.416499 
L 83.430783 135.723138 
L 83.740398 138.906747 
L 84.050012 137.295619 
L 84.359627 140.646703 
L 84.669242 137.612756 
L 84.978857 137.45345 
L 85.288471 136.691222 
L 85.598086 142.395788 
L 85.907701 143.440618 
L 86.217315 140.594743 
L 86.52693 143.753915 
L 86.836545 144.230628 
L 87.146159 144.424697 
L 87.765389 154.511933 
L 88.075004 154.659285 
L 88.384618 150.494968 
L 88.694233 150.626323 
L 89.003848 146.063393 
L 89.313462 143.494619 
L 89.623077 146.911719 
L 89.932692 153.105232 
L 90.242306 152.594983 
L 90.551921 148.923825 
L 90.861536 147.411258 
L 91.171151 153.538565 
L 91.79038 148.356674 
L 92.099995 149.082243 
L 92.409609 149.341392 
L 92.719224 148.542385 
L 93.028839 142.417976 
L 93.338453 143.035792 
L 93.648068 146.970929 
L 94.267298 136.497807 
L 94.576912 137.930432 
L 94.886527 134.535052 
L 95.196142 133.273342 
L 95.505756 132.669585 
L 95.815371 127.399512 
L 96.124986 127.662716 
L 96.4346 129.306771 
L 96.744215 127.238945 
L 97.05383 129.024504 
L 97.363445 124.153755 
L 97.982674 129.157937 
L 98.601903 131.378929 
L 99.221133 138.298021 
L 99.530748 140.688317 
L 99.840362 139.871808 
L 100.459592 144.058837 
L 100.769206 144.27396 
L 101.078821 144.994198 
L 101.69805 136.185149 
L 102.007665 140.284372 
L 102.31728 146.673978 
L 102.626895 145.83159 
L 102.936509 148.469516 
L 103.246124 146.576692 
L 103.555739 146.665791 
L 103.865353 148.33385 
L 104.174968 149.069837 
L 104.484583 150.263548 
L 104.794197 144.32706 
L 105.413427 151.301701 
L 106.032656 149.685738 
L 106.342271 155.568366 
L 106.651886 158.975179 
L 106.9615 154.759374 
L 107.271115 158.160344 
L 107.58073 165.619133 
L 107.890344 159.233211 
L 108.199959 162.88984 
L 108.509574 162.759513 
L 108.819189 159.109026 
L 109.128803 158.81897 
L 109.438418 161.396385 
L 109.748033 154.073653 
L 110.057647 157.36452 
L 110.367262 154.419823 
L 110.676877 156.091187 
L 110.986491 159.767905 
L 111.605721 151.088067 
L 112.22495 164.256146 
L 112.534565 159.568274 
L 112.84418 157.81519 
L 113.153794 163.902691 
L 113.463409 166.29973 
L 113.773024 159.817667 
L 114.082638 159.813146 
L 114.701868 168.357848 
L 115.011483 163.153155 
L 115.321097 168.459166 
L 115.630712 165.208617 
L 115.940327 166.284302 
L 116.249941 159.46434 
L 116.559556 158.274775 
L 116.869171 160.856726 
L 117.178786 165.19744 
L 117.4884 166.99157 
L 117.798015 163.216568 
L 118.10763 161.740656 
L 118.417244 157.275533 
L 118.726859 160.394395 
L 119.036474 160.036848 
L 119.346088 156.675787 
L 119.655703 155.016264 
L 120.274933 161.508351 
L 120.584547 164.376603 
L 120.894162 163.628757 
L 121.203777 169.283489 
L 121.513391 168.692701 
L 121.823006 165.35384 
L 122.132621 165.267644 
L 122.75185 162.624353 
L 123.061465 172.496524 
L 123.680694 165.808434 
L 123.990309 168.201984 
L 124.299924 163.442749 
L 124.609538 164.429651 
L 124.919153 160.593917 
L 125.228768 162.116764 
L 125.538382 164.987476 
L 126.157612 166.960167 
L 126.776841 172.33836 
L 127.396071 167.224195 
L 127.705685 168.280498 
L 128.0153 170.197369 
L 128.324915 168.001019 
L 128.634529 167.095186 
L 128.944144 169.57457 
L 129.253759 168.976133 
L 129.563374 163.909646 
L 130.182603 167.91068 
L 130.492218 168.797109 
L 130.801832 168.574282 
L 131.111447 169.146207 
L 131.730676 167.242563 
L 132.349906 163.258241 
L 132.659521 169.108482 
L 132.969135 169.69779 
L 133.27875 165.724652 
L 133.588365 165.581682 
L 133.897979 168.625377 
L 134.207594 170.185253 
L 134.517209 173.881442 
L 134.826824 170.417523 
L 135.136438 171.491235 
L 135.446053 178.857766 
L 135.755668 173.48873 
L 136.065282 165.785297 
L 136.374897 172.155492 
L 136.684512 171.001158 
L 136.994126 166.255016 
L 137.303741 168.531666 
L 137.613356 173.44028 
L 137.922971 173.423085 
L 138.232585 172.171531 
L 138.5422 169.740317 
L 138.851815 176.903324 
L 139.161429 173.967868 
L 139.471044 175.109175 
L 139.780659 177.373816 
L 140.399888 166.203887 
L 141.019118 174.294472 
L 141.328732 168.893373 
L 141.638347 166.262713 
L 142.257576 177.253772 
L 142.567191 176.877694 
L 142.876806 178.161194 
L 143.18642 178.376236 
L 143.496035 177.845554 
L 143.80565 181.026607 
L 144.115265 172.858899 
L 144.424879 170.876762 
L 144.734494 171.297409 
L 145.044109 177.256003 
L 145.353723 176.919065 
L 145.663338 171.904347 
L 145.972953 168.81619 
L 146.282567 170.223613 
L 146.592182 175.815638 
L 147.521026 166.69426 
L 148.140256 176.518564 
L 148.44987 175.121278 
L 148.759485 173.009065 
L 149.0691 171.713131 
L 149.378714 174.171705 
L 149.688329 178.511233 
L 149.997944 176.150836 
L 150.307559 176.672852 
L 150.617173 176.24062 
L 150.926788 177.547401 
L 151.236403 173.838639 
L 151.546017 171.708009 
L 151.855632 175.759332 
L 152.165247 174.943578 
L 152.474862 175.3015 
L 152.784476 175.337344 
L 153.094091 181.671531 
L 153.403706 179.291278 
L 153.71332 169.210374 
L 154.022935 172.410675 
L 154.33255 173.956091 
L 154.642164 171.57041 
L 154.951779 173.233006 
L 155.261394 179.080655 
L 155.571009 178.531272 
L 155.880623 178.799056 
L 156.190238 177.803852 
L 156.809467 181.577402 
L 157.119082 170.143474 
L 157.428697 165.937246 
L 157.738311 168.928589 
L 158.047926 180.252915 
L 158.357541 181.530821 
L 158.667156 179.668094 
L 158.97677 179.834813 
L 159.286385 175.545111 
L 159.596 175.843714 
L 159.905614 171.967778 
L 160.215229 172.665642 
L 160.524844 177.416355 
L 160.834458 176.858265 
L 161.144073 178.01309 
L 161.453688 187.04139 
L 161.763303 190.812233 
L 162.382532 179.258229 
L 162.692147 185.994462 
L 163.001761 182.364809 
L 163.311376 172.240127 
L 163.620991 170.327575 
L 163.930605 169.544835 
L 164.24022 170.786128 
L 164.549835 175.862659 
L 164.85945 174.834431 
L 165.788294 186.144744 
L 166.097908 180.785887 
L 166.407523 179.812318 
L 166.717138 175.285311 
L 167.026752 177.495386 
L 167.336367 172.260207 
L 167.645982 172.796163 
L 167.955597 173.984744 
L 168.265211 169.832915 
L 168.884441 182.881338 
L 169.194055 183.306387 
L 169.50367 179.780727 
L 169.813285 182.2905 
L 170.432514 183.795384 
L 170.742129 190.579439 
L 171.051744 192.893557 
L 171.670973 180.38404 
L 171.980588 182.536854 
L 172.290202 174.520462 
L 172.599817 171.919633 
L 172.909432 173.066512 
L 173.219047 181.80594 
L 173.528661 186.328926 
L 173.838276 182.994959 
L 174.147891 185.491142 
L 174.457505 186.2754 
L 175.076735 179.559401 
L 175.386349 178.85005 
L 175.695964 181.680363 
L 176.005579 178.44063 
L 176.624808 187.500468 
L 176.934423 186.222794 
L 177.244038 182.406528 
L 177.553652 182.485529 
L 177.863267 181.564074 
L 178.172882 184.367026 
L 179.101726 181.56934 
L 179.411341 179.050748 
L 179.720955 182.156832 
L 180.03057 186.833739 
L 180.340185 185.271164 
L 180.649799 186.254692 
L 180.959414 188.791244 
L 181.269029 189.952282 
L 181.578643 190.599151 
L 181.888258 183.111722 
L 182.197873 183.184021 
L 182.507488 182.787549 
L 182.817102 186.236811 
L 183.126717 184.969141 
L 183.436332 181.854293 
L 183.745946 180.333979 
L 184.055561 183.288975 
L 184.365176 180.377644 
L 184.67479 184.007392 
L 184.984405 186.243217 
L 185.29402 184.049525 
L 185.603635 183.670439 
L 186.222864 188.441196 
L 186.532479 189.183507 
L 186.842093 191.626303 
L 187.151708 181.752941 
L 187.461323 175.710627 
L 188.080552 178.312465 
L 188.390167 178.651175 
L 189.009396 188.274696 
L 189.319011 189.188287 
L 189.628626 183.243141 
L 189.93824 184.968543 
L 190.247855 184.708369 
L 190.55747 183.12978 
L 190.867085 187.092399 
L 191.176699 186.266729 
L 191.486314 176.298031 
L 191.795929 179.830951 
L 192.105543 180.032208 
L 192.415158 187.976836 
L 192.724773 192.000648 
L 193.034387 183.424526 
L 193.344002 182.481858 
L 193.653617 189.376614 
L 193.963232 188.389028 
L 194.272846 184.873227 
L 194.582461 184.463658 
L 195.20169 192.253378 
L 195.511305 185.963715 
L 195.82092 182.923279 
L 196.130534 183.975126 
L 196.440149 184.062933 
L 196.749764 182.661182 
L 197.059379 184.897558 
L 197.368993 188.103969 
L 197.678608 185.609272 
L 197.988223 185.700541 
L 198.297837 184.808316 
L 198.607452 185.141605 
L 198.917067 185.763469 
L 199.226681 184.437804 
L 199.536296 187.029614 
L 199.845911 184.487954 
L 200.155526 179.541387 
L 200.46514 186.199546 
L 200.774755 188.645341 
L 201.08437 194.38694 
L 201.393984 191.745385 
L 201.703599 187.387397 
L 202.013214 187.730489 
L 202.322828 184.021127 
L 202.632443 183.471946 
L 203.251673 191.847615 
L 203.561287 190.051844 
L 203.870902 192.320805 
L 204.180517 190.762619 
L 204.490131 188.63041 
L 204.799746 183.836103 
L 205.109361 186.229759 
L 205.418975 189.848003 
L 205.72859 183.22081 
L 206.038205 187.146617 
L 206.34782 189.300743 
L 206.657434 192.907162 
L 206.967049 192.241553 
L 207.276664 183.327649 
L 207.586278 179.273643 
L 208.205508 187.964826 
L 208.515123 184.109694 
L 208.824737 187.727731 
L 209.443967 184.756578 
L 209.753581 186.11388 
L 210.063196 185.601557 
L 210.682425 191.86195 
L 210.99204 188.079255 
L 211.301655 187.162929 
L 211.61127 190.736415 
L 211.920884 185.410477 
L 212.230499 182.894762 
L 213.159343 193.543064 
L 213.468958 190.711183 
L 213.778572 190.582551 
L 214.088187 191.880138 
L 214.397802 193.881629 
L 214.707417 190.507949 
L 215.017031 190.069349 
L 215.326646 188.677162 
L 215.636261 188.646399 
L 215.945875 189.232581 
L 216.25549 188.985392 
L 216.565105 191.774684 
L 216.874719 189.693928 
L 217.184334 192.856073 
L 217.803564 192.137577 
L 218.113178 193.496396 
L 218.732408 192.169518 
L 219.042022 195.122637 
L 219.351637 189.976291 
L 219.970866 197.631933 
L 220.590096 191.47067 
L 220.899711 191.735548 
L 221.51894 189.172878 
L 221.828555 188.955626 
L 222.447784 192.665237 
L 222.757399 194.032837 
L 223.067013 192.574778 
L 223.376628 190.510306 
L 223.686243 198.606148 
L 223.995858 198.800898 
L 224.305472 196.163067 
L 224.615087 195.523339 
L 224.924702 189.911935 
L 225.234316 189.148267 
L 225.543931 181.772605 
L 225.853546 151.922648 
L 226.163161 158.050393 
L 226.472775 196.847304 
L 226.78239 190.261544 
L 227.092005 193.782765 
L 227.401619 192.436773 
L 227.711234 194.948277 
L 228.020849 196.526741 
L 228.330463 190.296325 
L 228.640078 194.897578 
L 229.259308 192.655378 
L 229.568922 199.216163 
L 229.878537 199.763719 
L 230.188152 194.554711 
L 230.497766 196.45052 
L 230.807381 197.46402 
L 231.116996 191.819699 
L 231.42661 196.637543 
L 231.736225 190.655944 
L 232.04584 188.356382 
L 232.355455 189.399106 
L 232.665069 195.281471 
L 232.974684 196.221004 
L 233.284299 195.266079 
L 233.593913 196.549507 
L 233.903528 196.760787 
L 234.213143 196.58854 
L 234.522757 198.805647 
L 234.832372 198.88755 
L 235.141987 200.524667 
L 235.451602 200.995122 
L 236.070831 192.363353 
L 236.380446 199.158824 
L 236.69006 199.555462 
L 236.999675 197.876942 
L 237.30929 199.061557 
L 237.618904 199.294114 
L 237.928519 195.39644 
L 238.238134 197.704284 
L 238.547749 201.700529 
L 238.857363 198.060706 
L 239.166978 200.878614 
L 239.476593 192.158405 
L 239.786207 191.023695 
L 240.095822 192.042891 
L 240.405437 197.783162 
L 240.715051 197.447949 
L 241.024666 195.766126 
L 241.334281 198.092175 
L 241.643896 196.549591 
L 241.95351 194.430207 
L 242.263125 193.132903 
L 242.57274 192.477162 
L 242.882354 197.978392 
L 243.191969 198.197216 
L 243.501584 196.948194 
L 243.811199 194.895032 
L 244.120813 195.520873 
L 244.430428 201.125835 
L 244.740043 199.772757 
L 245.049657 196.429892 
L 245.359272 191.242591 
L 245.668887 196.025367 
L 245.978501 197.562699 
L 246.597731 194.504617 
L 246.907346 193.616436 
L 247.21696 194.508708 
L 247.83619 200.409581 
L 248.145804 197.551241 
L 248.455419 198.476977 
L 248.765034 196.553498 
L 249.074648 195.89314 
L 249.384263 192.738952 
L 249.693878 199.434965 
L 250.003493 201.36371 
L 250.313107 197.501769 
L 250.622722 198.070514 
L 250.932337 200.086999 
L 251.241951 199.003504 
L 251.551566 200.86221 
L 251.861181 197.326488 
L 252.170795 195.907957 
L 252.48041 195.628135 
L 253.09964 197.96666 
L 253.409254 196.77309 
L 253.718869 196.259403 
L 254.028484 195.334193 
L 254.338098 195.510791 
L 254.647713 198.728654 
L 254.957328 203.733441 
L 255.266942 197.327153 
L 255.576557 195.682964 
L 255.886172 196.755423 
L 256.505401 202.272778 
L 256.815016 200.404862 
L 257.124631 201.7978 
L 257.74386 195.958244 
L 258.053475 202.901025 
L 258.363089 203.784089 
L 258.672704 202.760557 
L 258.982319 197.096865 
L 259.291934 194.709437 
L 259.601548 195.164609 
L 259.911163 191.060328 
L 260.220778 191.180865 
L 260.530392 198.715838 
L 260.840007 198.067797 
L 261.459237 200.727035 
L 261.768851 202.397495 
L 262.078466 201.111597 
L 262.388081 203.431038 
L 262.697695 206.76911 
L 263.00731 203.916928 
L 263.316925 197.678797 
L 263.626539 197.222245 
L 263.936154 200.515011 
L 264.245769 201.533761 
L 264.555384 200.718444 
L 264.864998 197.489351 
L 265.174613 198.102527 
L 265.484228 203.638072 
L 265.793842 204.719929 
L 266.103457 203.133648 
L 266.413072 200.761421 
L 266.722686 200.484252 
L 267.032301 205.919533 
L 267.341916 206.1563 
L 267.651531 200.102698 
L 267.961145 204.750276 
L 268.27076 211.209704 
L 268.580375 209.946571 
L 268.889989 206.864832 
L 269.199604 205.438924 
L 269.509219 207.96838 
L 269.818833 208.48293 
L 270.438063 199.795824 
L 270.747678 205.625854 
L 271.057292 203.380748 
L 271.366907 202.724012 
L 271.676522 203.545577 
L 271.986136 204.909099 
L 272.295751 196.85324 
L 272.91498 205.128243 
L 273.224595 200.437522 
L 273.53421 201.180678 
L 273.843825 200.003871 
L 274.153439 200.474527 
L 274.463054 201.258965 
L 274.772669 204.637371 
L 275.082283 206.41844 
L 275.701513 213.758189 
L 276.011127 212.464116 
L 276.320742 206.567394 
L 276.630357 206.833907 
L 276.939972 209.789667 
L 277.249586 211.306042 
L 277.559201 211.569755 
L 277.868816 207.328603 
L 278.17843 208.308874 
L 278.488045 208.427598 
L 278.79766 203.923498 
L 279.107275 203.247801 
L 279.416889 209.349269 
L 279.726504 206.98707 
L 280.036119 207.904969 
L 280.345733 203.929596 
L 280.655348 211.795547 
L 280.964963 213.026099 
L 281.274577 209.258895 
L 281.584192 211.876522 
L 282.203422 201.706566 
L 282.513036 200.193451 
L 282.822651 204.190718 
L 283.132266 205.444119 
L 283.44188 200.698285 
L 283.751495 198.282357 
L 284.06111 202.298863 
L 284.370724 202.927779 
L 284.680339 208.628706 
L 284.989954 208.225726 
L 285.299569 206.740838 
L 285.609183 202.690587 
L 285.918798 207.097614 
L 286.228413 208.947031 
L 286.538027 206.028068 
L 287.157257 213.037356 
L 287.466871 216.188976 
L 287.776486 209.909775 
L 288.086101 206.077458 
L 288.395716 209.204701 
L 288.70533 204.347146 
L 289.014945 204.189225 
L 289.32456 214.695737 
L 289.634174 208.080718 
L 289.943789 208.348054 
L 290.253404 213.139215 
L 290.563018 213.164155 
L 290.872633 206.914652 
L 291.182248 203.15212 
L 291.491863 202.910077 
L 292.111092 211.111767 
L 292.420707 212.492245 
L 292.730321 215.058765 
L 293.039936 211.317565 
L 293.349551 213.568923 
L 293.659165 213.353994 
L 293.96878 210.047792 
L 294.278395 208.229721 
L 294.58801 205.519389 
L 295.207239 207.729284 
L 296.136083 214.300424 
L 296.445698 214.226938 
L 296.755313 213.324124 
L 297.064927 207.648244 
L 297.374542 208.992394 
L 297.684157 215.433773 
L 297.993771 214.995546 
L 298.303386 213.730853 
L 298.613001 215.128923 
L 299.23223 213.719957 
L 299.541845 212.096408 
L 300.161074 210.90394 
L 300.470689 208.400454 
L 300.780304 210.041826 
L 301.089918 209.417175 
L 301.399533 217.276699 
L 302.018762 214.578958 
L 302.328377 212.554274 
L 302.637992 209.67416 
L 302.947607 211.504913 
L 303.257221 211.282487 
L 303.566836 213.252887 
L 303.876451 212.153038 
L 304.186065 213.044056 
L 304.49568 210.27321 
L 305.114909 217.851797 
L 305.424524 209.469208 
L 305.734139 206.907862 
L 306.043754 210.352646 
L 306.353368 209.259836 
L 306.662983 208.950098 
L 306.972598 209.428249 
L 307.282212 209.121758 
L 307.591827 212.20881 
L 307.901442 213.148743 
L 308.211056 210.422161 
L 308.520671 214.443886 
L 308.830286 221.683032 
L 309.139901 210.816718 
L 309.75913 219.989984 
L 310.068745 212.717912 
L 310.378359 214.271015 
L 310.687974 217.633519 
L 310.997589 216.117611 
L 311.307203 217.51263 
L 311.616818 213.597674 
L 311.926433 214.406518 
L 312.236048 221.968382 
L 312.545662 224.232016 
L 313.164892 220.214701 
L 313.474506 218.121205 
L 313.784121 209.848098 
L 314.093736 212.556084 
L 314.40335 219.659134 
L 315.02258 212.077232 
L 315.332195 213.65275 
L 315.641809 220.741697 
L 315.951424 220.599477 
L 316.570653 210.898325 
L 316.880268 214.091636 
L 317.189883 222.357172 
L 317.499498 221.617975 
L 317.809112 221.299926 
L 318.118727 218.591866 
L 318.428342 225.176097 
L 319.047571 216.489301 
L 319.357186 216.546191 
L 319.6668 216.914452 
L 319.976415 216.345648 
L 320.28603 220.106978 
L 320.905259 214.822547 
L 321.214874 216.168262 
L 321.834103 223.14272 
L 322.143718 216.176923 
L 322.453333 212.058212 
L 322.762947 215.014963 
L 323.072562 212.978011 
L 323.382177 215.209477 
L 323.691792 213.057915 
L 324.001406 211.947834 
L 324.311021 211.638259 
L 324.620636 219.550515 
L 324.93025 223.747651 
L 325.239865 217.692046 
L 325.54948 218.406459 
L 325.859094 223.416922 
L 326.168709 220.51964 
L 326.478324 213.650706 
L 326.787939 214.239612 
L 327.097553 219.947077 
L 327.407168 221.593759 
L 327.716783 219.684461 
L 328.026397 218.662886 
L 328.336012 218.790878 
L 328.645627 220.288966 
L 328.955241 225.944809 
L 329.264856 222.36678 
L 329.574471 220.282306 
L 329.884086 220.596394 
L 330.1937 219.814973 
L 330.503315 223.950148 
L 330.81293 220.679284 
L 331.432159 222.134823 
L 331.741774 219.452251 
L 332.051388 220.97898 
L 332.361003 225.002919 
L 332.670618 225.608615 
L 332.980233 223.085316 
L 333.289847 222.464193 
L 333.599462 225.260444 
L 333.909077 220.68371 
L 334.528306 217.801328 
L 334.837921 221.302597 
L 335.147536 223.072321 
L 335.45715 221.937255 
L 335.766765 224.397681 
L 336.07638 216.025623 
L 336.385994 215.434938 
L 336.695609 217.804748 
L 337.005224 221.842399 
L 337.314838 223.780751 
L 337.624453 224.419779 
L 337.934068 217.379955 
L 338.243683 224.451531 
L 338.862912 216.780924 
L 339.172527 218.066304 
L 339.482141 227.049821 
L 339.791756 226.824897 
L 340.101371 227.476171 
L 340.410985 226.44373 
L 341.030215 222.663575 
L 341.649444 225.101541 
L 341.959059 228.752687 
L 342.268674 226.22897 
L 342.578288 220.908285 
L 342.887903 218.645473 
L 343.197518 222.111141 
L 343.507132 221.278223 
L 343.816747 215.574727 
L 344.126362 218.128131 
L 344.435977 226.861817 
L 344.745591 231.127065 
L 345.055206 228.903611 
L 345.674435 221.42703 
L 345.98405 219.503683 
L 346.293665 220.397781 
L 346.603279 224.389331 
L 346.912894 224.085576 
L 347.222509 219.975491 
L 347.532124 222.047894 
L 348.151353 236.41954 
L 348.460968 229.631407 
L 349.080197 220.983935 
L 349.389812 223.637817 
L 349.699426 229.761161 
L 350.009041 227.508892 
L 350.318656 223.920625 
L 350.937885 225.486547 
L 351.2475 222.042601 
L 351.557115 221.249411 
L 351.866729 226.968857 
L 352.176344 230.175772 
L 352.485959 231.540104 
L 352.795574 233.413018 
L 353.105188 237.627505 
L 353.414803 238.819499 
L 353.724418 238.47544 
L 354.034032 229.599457 
L 354.343647 224.241964 
L 354.653262 230.232982 
L 354.962876 231.83775 
L 355.272491 230.755921 
L 355.582106 228.051306 
L 355.891721 232.349085 
L 356.201335 242.006468 
L 356.51095 234.074226 
L 356.820565 230.781401 
L 357.130179 237.023819 
L 357.439794 240.967418 
L 357.749409 238.80438 
L 358.368638 230.163985 
L 358.678253 235.551 
L 358.987868 235.383893 
L 359.297482 231.993859 
L 359.607097 232.366153 
L 359.916712 233.490495 
L 360.226326 235.155934 
L 360.535941 233.436973 
L 360.845556 226.265159 
L 361.15517 234.735649 
L 361.464785 239.721152 
L 362.084015 231.353661 
L 362.393629 232.872714 
L 363.012859 240.665844 
L 363.322473 234.221695 
L 363.632088 231.53283 
L 363.941703 237.343572 
L 364.251317 237.00683 
L 364.560932 232.823934 
L 364.870547 239.134854 
L 365.180162 239.514891 
L 365.489776 231.348326 
L 365.799391 231.471219 
L 366.109006 231.240306 
L 366.41862 232.820105 
L 366.728235 234.989767 
L 367.03785 238.191946 
L 367.347464 239.531674 
L 367.966694 237.900084 
L 368.276309 235.293526 
L 368.585923 239.858171 
L 368.895538 241.18879 
L 369.205153 241.134589 
L 369.824382 236.794773 
L 370.133997 242.525788 
L 370.443612 243.017897 
L 370.753226 240.411762 
L 371.062841 239.557518 
L 371.68207 245.365025 
L 371.991685 246.643778 
L 372.3013 244.55225 
L 372.610914 244.612547 
L 373.230144 240.204131 
L 373.539759 240.643828 
L 373.849373 246.331103 
L 374.158988 241.341307 
L 374.468603 239.559492 
L 374.778217 245.072786 
L 375.087832 247.305549 
L 375.397447 244.979225 
L 376.016676 238.343508 
L 376.326291 240.560978 
L 376.635906 239.502795 
L 377.255135 245.302577 
L 377.56475 242.745813 
L 377.874364 244.542633 
L 378.183979 239.933616 
L 378.493594 240.923826 
L 378.803208 249.768193 
L 379.422438 243.802423 
L 379.732053 248.133776 
L 380.041667 250.443658 
L 380.351282 242.832593 
L 380.660897 249.280342 
L 380.970511 258.608896 
L 381.280126 256.794975 
L 381.589741 245.879995 
L 381.899355 244.970789 
L 382.20897 248.107227 
L 382.8282 259.762969 
L 383.137814 256.63003 
L 383.447429 255.206839 
L 383.757044 255.993624 
L 384.066658 255.625461 
L 384.685888 261.982428 
L 384.995502 260.222883 
L 385.305117 253.957332 
L 385.614732 253.637552 
L 385.924347 254.448884 
L 386.233961 259.299455 
L 386.543576 252.392216 
L 386.853191 251.947937 
L 387.162805 259.443668 
L 387.47242 260.606766 
L 387.782035 258.530137 
L 388.09165 262.739943 
L 388.401264 258.547661 
L 388.710879 259.218066 
L 389.020494 263.919399 
L 389.330108 257.894644 
L 389.639723 260.085695 
L 390.258952 278.842442 
L 390.568567 281.381415 
L 390.878182 295.488 
L 390.878182 295.488 
" clip-path="url(#pa82b18a421)" style="fill: none; stroke: #ffa500; stroke-width: 1.5; stroke-linecap: square"/>
   </g>
   <g id="patch_3">
    <path d="M 57.6 307.584 
L 57.6 41.472 
" style="fill: none; stroke: #000000; stroke-width: 0.8; stroke-linejoin: miter; stroke-linecap: square"/>
   </g>
   <g id="patch_4">
    <path d="M 414.72 307.584 
L 414.72 41.472 
" style="fill: none; stroke: #000000; stroke-width: 0.8; stroke-linejoin: miter; stroke-linecap: square"/>
   </g>
   <g id="patch_5">
    <path d="M 57.6 307.584 
L 414.72 307.584 
" style="fill: none; stroke: #000000; stroke-width: 0.8; stroke-linejoin: miter; stroke-linecap: square"/>
   </g>
   <g id="patch_6">
    <path d="M 57.6 41.472 
L 414.72 41.472 
" style="fill: none; stroke: #000000; stroke-width: 0.8; stroke-linejoin: miter; stroke-linecap: square"/>
   </g>
   <g id="text_15">
    <!-- Power Spektrum des EEG Signals von Kanal P4-O2 -->
    <g transform="translate(85.026563 35.472) scale(0.12 -0.12)">
     <defs>
      <path id="DejaVuSans-50" d="M 1259 4147 
L 1259 2394 
L 2053 2394 
Q 2494 2394 2734 2622 
Q 2975 2850 2975 3272 
Q 2975 3691 2734 3919 
Q 2494 4147 2053 4147 
L 1259 4147 
z
M 628 4666 
L 2053 4666 
Q 2838 4666 3239 4311 
Q 3641 3956 3641 3272 
Q 3641 2581 3239 2228 
Q 2838 1875 2053 1875 
L 1259 1875 
L 1259 0 
L 628 0 
L 628 4666 
z
" transform="scale(0.015625)"/>
      <path id="DejaVuSans-6f" d="M 1959 3097 
Q 1497 3097 1228 2736 
Q 959 2375 959 1747 
Q 959 1119 1226 758 
Q 1494 397 1959 397 
Q 2419 397 2687 759 
Q 2956 1122 2956 1747 
Q 2956 2369 2687 2733 
Q 2419 3097 1959 3097 
z
M 1959 3584 
Q 2709 3584 3137 3096 
Q 3566 2609 3566 1747 
Q 3566 888 3137 398 
Q 2709 -91 1959 -91 
Q 1206 -91 779 398 
Q 353 888 353 1747 
Q 353 2609 779 3096 
Q 1206 3584 1959 3584 
z
" transform="scale(0.015625)"/>
      <path id="DejaVuSans-77" d="M 269 3500 
L 844 3500 
L 1563 769 
L 2278 3500 
L 2956 3500 
L 3675 769 
L 4391 3500 
L 4966 3500 
L 4050 0 
L 3372 0 
L 2619 2869 
L 1863 0 
L 1184 0 
L 269 3500 
z
" transform="scale(0.015625)"/>
      <path id="DejaVuSans-53" d="M 3425 4513 
L 3425 3897 
Q 3066 4069 2747 4153 
Q 2428 4238 2131 4238 
Q 1616 4238 1336 4038 
Q 1056 3838 1056 3469 
Q 1056 3159 1242 3001 
Q 1428 2844 1947 2747 
L 2328 2669 
Q 3034 2534 3370 2195 
Q 3706 1856 3706 1288 
Q 3706 609 3251 259 
Q 2797 -91 1919 -91 
Q 1588 -91 1214 -16 
Q 841 59 441 206 
L 441 856 
Q 825 641 1194 531 
Q 1563 422 1919 422 
Q 2459 422 2753 634 
Q 3047 847 3047 1241 
Q 3047 1584 2836 1778 
Q 2625 1972 2144 2069 
L 1759 2144 
Q 1053 2284 737 2584 
Q 422 2884 422 3419 
Q 422 4038 858 4394 
Q 1294 4750 2059 4750 
Q 2388 4750 2728 4690 
Q 3069 4631 3425 4513 
z
" transform="scale(0.015625)"/>
      <path id="DejaVuSans-70" d="M 1159 525 
L 1159 -1331 
L 581 -1331 
L 581 3500 
L 1159 3500 
L 1159 2969 
Q 1341 3281 1617 3432 
Q 1894 3584 2278 3584 
Q 2916 3584 3314 3078 
Q 3713 2572 3713 1747 
Q 3713 922 3314 415 
Q 2916 -91 2278 -91 
Q 1894 -91 1617 61 
Q 1341 213 1159 525 
z
M 3116 1747 
Q 3116 2381 2855 2742 
Q 2594 3103 2138 3103 
Q 1681 3103 1420 2742 
Q 1159 2381 1159 1747 
Q 1159 1113 1420 752 
Q 1681 391 2138 391 
Q 2594 391 2855 752 
Q 3116 1113 3116 1747 
z
" transform="scale(0.015625)"/>
      <path id="DejaVuSans-6b" d="M 581 4863 
L 1159 4863 
L 1159 1991 
L 2875 3500 
L 3609 3500 
L 1753 1863 
L 3688 0 
L 2938 0 
L 1159 1709 
L 1159 0 
L 581 0 
L 581 4863 
z
" transform="scale(0.015625)"/>
      <path id="DejaVuSans-6d" d="M 3328 2828 
Q 3544 3216 3844 3400 
Q 4144 3584 4550 3584 
Q 5097 3584 5394 3201 
Q 5691 2819 5691 2113 
L 5691 0 
L 5113 0 
L 5113 2094 
Q 5113 2597 4934 2840 
Q 4756 3084 4391 3084 
Q 3944 3084 3684 2787 
Q 3425 2491 3425 1978 
L 3425 0 
L 2847 0 
L 2847 2094 
Q 2847 2600 2669 2842 
Q 2491 3084 2119 3084 
Q 1678 3084 1418 2786 
Q 1159 2488 1159 1978 
L 1159 0 
L 581 0 
L 581 3500 
L 1159 3500 
L 1159 2956 
Q 1356 3278 1631 3431 
Q 1906 3584 2284 3584 
Q 2666 3584 2933 3390 
Q 3200 3197 3328 2828 
z
" transform="scale(0.015625)"/>
      <path id="DejaVuSans-64" d="M 2906 2969 
L 2906 4863 
L 3481 4863 
L 3481 0 
L 2906 0 
L 2906 525 
Q 2725 213 2448 61 
Q 2172 -91 1784 -91 
Q 1150 -91 751 415 
Q 353 922 353 1747 
Q 353 2572 751 3078 
Q 1150 3584 1784 3584 
Q 2172 3584 2448 3432 
Q 2725 3281 2906 2969 
z
M 947 1747 
Q 947 1113 1208 752 
Q 1469 391 1925 391 
Q 2381 391 2643 752 
Q 2906 1113 2906 1747 
Q 2906 2381 2643 2742 
Q 2381 3103 1925 3103 
Q 1469 3103 1208 2742 
Q 947 2381 947 1747 
z
" transform="scale(0.015625)"/>
      <path id="DejaVuSans-45" d="M 628 4666 
L 3578 4666 
L 3578 4134 
L 1259 4134 
L 1259 2753 
L 3481 2753 
L 3481 2222 
L 1259 2222 
L 1259 531 
L 3634 531 
L 3634 0 
L 628 0 
L 628 4666 
z
" transform="scale(0.015625)"/>
      <path id="DejaVuSans-47" d="M 3809 666 
L 3809 1919 
L 2778 1919 
L 2778 2438 
L 4434 2438 
L 4434 434 
Q 4069 175 3628 42 
Q 3188 -91 2688 -91 
Q 1594 -91 976 548 
Q 359 1188 359 2328 
Q 359 3472 976 4111 
Q 1594 4750 2688 4750 
Q 3144 4750 3555 4637 
Q 3966 4525 4313 4306 
L 4313 3634 
Q 3963 3931 3569 4081 
Q 3175 4231 2741 4231 
Q 1884 4231 1454 3753 
Q 1025 3275 1025 2328 
Q 1025 1384 1454 906 
Q 1884 428 2741 428 
Q 3075 428 3337 486 
Q 3600 544 3809 666 
z
" transform="scale(0.015625)"/>
      <path id="DejaVuSans-61" d="M 2194 1759 
Q 1497 1759 1228 1600 
Q 959 1441 959 1056 
Q 959 750 1161 570 
Q 1363 391 1709 391 
Q 2188 391 2477 730 
Q 2766 1069 2766 1631 
L 2766 1759 
L 2194 1759 
z
M 3341 1997 
L 3341 0 
L 2766 0 
L 2766 531 
Q 2569 213 2275 61 
Q 1981 -91 1556 -91 
Q 1019 -91 701 211 
Q 384 513 384 1019 
Q 384 1609 779 1909 
Q 1175 2209 1959 2209 
L 2766 2209 
L 2766 2266 
Q 2766 2663 2505 2880 
Q 2244 3097 1772 3097 
Q 1472 3097 1187 3025 
Q 903 2953 641 2809 
L 641 3341 
Q 956 3463 1253 3523 
Q 1550 3584 1831 3584 
Q 2591 3584 2966 3190 
Q 3341 2797 3341 1997 
z
" transform="scale(0.015625)"/>
      <path id="DejaVuSans-6c" d="M 603 4863 
L 1178 4863 
L 1178 0 
L 603 0 
L 603 4863 
z
" transform="scale(0.015625)"/>
      <path id="DejaVuSans-76" d="M 191 3500 
L 800 3500 
L 1894 563 
L 2988 3500 
L 3597 3500 
L 2284 0 
L 1503 0 
L 191 3500 
z
" transform="scale(0.015625)"/>
      <path id="DejaVuSans-4b" d="M 628 4666 
L 1259 4666 
L 1259 2694 
L 3353 4666 
L 4166 4666 
L 1850 2491 
L 4331 0 
L 3500 0 
L 1259 2247 
L 1259 0 
L 628 0 
L 628 4666 
z
" transform="scale(0.015625)"/>
      <path id="DejaVuSans-2d" d="M 313 2009 
L 1997 2009 
L 1997 1497 
L 313 1497 
L 313 2009 
z
" transform="scale(0.015625)"/>
      <path id="DejaVuSans-4f" d="M 2522 4238 
Q 1834 4238 1429 3725 
Q 1025 3213 1025 2328 
Q 1025 1447 1429 934 
Q 1834 422 2522 422 
Q 3209 422 3611 934 
Q 4013 1447 4013 2328 
Q 4013 3213 3611 3725 
Q 3209 4238 2522 4238 
z
M 2522 4750 
Q 3503 4750 4090 4092 
Q 4678 3434 4678 2328 
Q 4678 1225 4090 567 
Q 3503 -91 2522 -91 
Q 1538 -91 948 565 
Q 359 1222 359 2328 
Q 359 3434 948 4092 
Q 1538 4750 2522 4750 
z
" transform="scale(0.015625)"/>
     </defs>
     <use xlink:href="#DejaVuSans-50"/>
     <use xlink:href="#DejaVuSans-6f" transform="translate(56.677734 0)"/>
     <use xlink:href="#DejaVuSans-77" transform="translate(117.859375 0)"/>
     <use xlink:href="#DejaVuSans-65" transform="translate(199.646484 0)"/>
     <use xlink:href="#DejaVuSans-72" transform="translate(261.169922 0)"/>
     <use xlink:href="#DejaVuSans-20" transform="translate(302.283203 0)"/>
     <use xlink:href="#DejaVuSans-53" transform="translate(334.070312 0)"/>
     <use xlink:href="#DejaVuSans-70" transform="translate(397.546875 0)"/>
     <use xlink:href="#DejaVuSans-65" transform="translate(461.023438 0)"/>
     <use xlink:href="#DejaVuSans-6b" transform="translate(522.546875 0)"/>
     <use xlink:href="#DejaVuSans-74" transform="translate(580.457031 0)"/>
     <use xlink:href="#DejaVuSans-72" transform="translate(619.666016 0)"/>
     <use xlink:href="#DejaVuSans-75" transform="translate(660.779297 0)"/>
     <use xlink:href="#DejaVuSans-6d" transform="translate(724.158203 0)"/>
     <use xlink:href="#DejaVuSans-20" transform="translate(821.570312 0)"/>
     <use xlink:href="#DejaVuSans-64" transform="translate(853.357422 0)"/>
     <use xlink:href="#DejaVuSans-65" transform="translate(916.833984 0)"/>
     <use xlink:href="#DejaVuSans-73" transform="translate(978.357422 0)"/>
     <use xlink:href="#DejaVuSans-20" transform="translate(1030.457031 0)"/>
     <use xlink:href="#DejaVuSans-45" transform="translate(1062.244141 0)"/>
     <use xlink:href="#DejaVuSans-45" transform="translate(1125.427734 0)"/>
     <use xlink:href="#DejaVuSans-47" transform="translate(1188.611328 0)"/>
     <use xlink:href="#DejaVuSans-20" transform="translate(1266.101562 0)"/>
     <use xlink:href="#DejaVuSans-53" transform="translate(1297.888672 0)"/>
     <use xlink:href="#DejaVuSans-69" transform="translate(1361.365234 0)"/>
     <use xlink:href="#DejaVuSans-67" transform="translate(1389.148438 0)"/>
     <use xlink:href="#DejaVuSans-6e" transform="translate(1452.625 0)"/>
     <use xlink:href="#DejaVuSans-61" transform="translate(1516.003906 0)"/>
     <use xlink:href="#DejaVuSans-6c" transform="translate(1577.283203 0)"/>
     <use xlink:href="#DejaVuSans-73" transform="translate(1605.066406 0)"/>
     <use xlink:href="#DejaVuSans-20" transform="translate(1657.166016 0)"/>
     <use xlink:href="#DejaVuSans-76" transform="translate(1688.953125 0)"/>
     <use xlink:href="#DejaVuSans-6f" transform="translate(1748.132812 0)"/>
     <use xlink:href="#DejaVuSans-6e" transform="translate(1809.314453 0)"/>
     <use xlink:href="#DejaVuSans-20" transform="translate(1872.693359 0)"/>
     <use xlink:href="#DejaVuSans-4b" transform="translate(1904.480469 0)"/>
     <use xlink:href="#DejaVuSans-61" transform="translate(1968.306641 0)"/>
     <use xlink:href="#DejaVuSans-6e" transform="translate(2029.585938 0)"/>
     <use xlink:href="#DejaVuSans-61" transform="translate(2092.964844 0)"/>
     <use xlink:href="#DejaVuSans-6c" transform="translate(2154.244141 0)"/>
     <use xlink:href="#DejaVuSans-20" transform="translate(2182.027344 0)"/>
     <use xlink:href="#DejaVuSans-50" transform="translate(2213.814453 0)"/>
     <use xlink:href="#DejaVuSans-34" transform="translate(2274.117188 0)"/>
     <use xlink:href="#DejaVuSans-2d" transform="translate(2337.740234 0)"/>
     <use xlink:href="#DejaVuSans-4f" transform="translate(2376.574219 0)"/>
     <use xlink:href="#DejaVuSans-32" transform="translate(2455.285156 0)"/>
    </g>
   </g>
   <g id="legend_1">
    <g id="patch_7">
     <path d="M 266.196563 78.82825 
L 407.72 78.82825 
Q 409.72 78.82825 409.72 76.82825 
L 409.72 48.472 
Q 409.72 46.472 407.72 46.472 
L 266.196563 46.472 
Q 264.196563 46.472 264.196563 48.472 
L 264.196563 76.82825 
Q 264.196563 78.82825 266.196563 78.82825 
z
" style="fill: #ffffff; opacity: 0.8; stroke: #cccccc; stroke-linejoin: miter"/>
    </g>
    <g id="line2d_57">
     <path d="M 268.196563 54.570437 
L 278.196563 54.570437 
L 288.196563 54.570437 
" style="fill: none; stroke: #0000ff; stroke-width: 1.5; stroke-linecap: square"/>
    </g>
    <g id="text_16">
     <!-- Original -->
     <g transform="translate(296.196563 58.070437) scale(0.1 -0.1)">
      <use xlink:href="#DejaVuSans-4f"/>
      <use xlink:href="#DejaVuSans-72" transform="translate(78.710938 0)"/>
      <use xlink:href="#DejaVuSans-69" transform="translate(119.824219 0)"/>
      <use xlink:href="#DejaVuSans-67" transform="translate(147.607422 0)"/>
      <use xlink:href="#DejaVuSans-69" transform="translate(211.083984 0)"/>
      <use xlink:href="#DejaVuSans-6e" transform="translate(238.867188 0)"/>
      <use xlink:href="#DejaVuSans-61" transform="translate(302.246094 0)"/>
      <use xlink:href="#DejaVuSans-6c" transform="translate(363.525391 0)"/>
     </g>
    </g>
    <g id="line2d_58">
     <path d="M 268.196563 69.248562 
L 278.196563 69.248562 
L 288.196563 69.248562 
" style="fill: none; stroke: #ffa500; stroke-width: 1.5; stroke-linecap: square"/>
    </g>
    <g id="text_17">
     <!-- After resampling/filter -->
     <g transform="translate(296.196563 72.748562) scale(0.1 -0.1)">
      <defs>
       <path id="DejaVuSans-41" d="M 2188 4044 
L 1331 1722 
L 3047 1722 
L 2188 4044 
z
M 1831 4666 
L 2547 4666 
L 4325 0 
L 3669 0 
L 3244 1197 
L 1141 1197 
L 716 0 
L 50 0 
L 1831 4666 
z
" transform="scale(0.015625)"/>
       <path id="DejaVuSans-66" d="M 2375 4863 
L 2375 4384 
L 1825 4384 
Q 1516 4384 1395 4259 
Q 1275 4134 1275 3809 
L 1275 3500 
L 2222 3500 
L 2222 3053 
L 1275 3053 
L 1275 0 
L 697 0 
L 697 3053 
L 147 3053 
L 147 3500 
L 697 3500 
L 697 3744 
Q 697 4328 969 4595 
Q 1241 4863 1831 4863 
L 2375 4863 
z
" transform="scale(0.015625)"/>
      </defs>
      <use xlink:href="#DejaVuSans-41"/>
      <use xlink:href="#DejaVuSans-66" transform="translate(64.783203 0)"/>
      <use xlink:href="#DejaVuSans-74" transform="translate(98.238281 0)"/>
      <use xlink:href="#DejaVuSans-65" transform="translate(137.447266 0)"/>
      <use xlink:href="#DejaVuSans-72" transform="translate(198.970703 0)"/>
      <use xlink:href="#DejaVuSans-20" transform="translate(240.083984 0)"/>
      <use xlink:href="#DejaVuSans-72" transform="translate(271.871094 0)"/>
      <use xlink:href="#DejaVuSans-65" transform="translate(310.734375 0)"/>
      <use xlink:href="#DejaVuSans-73" transform="translate(372.257812 0)"/>
      <use xlink:href="#DejaVuSans-61" transform="translate(424.357422 0)"/>
      <use xlink:href="#DejaVuSans-6d" transform="translate(485.636719 0)"/>
      <use xlink:href="#DejaVuSans-70" transform="translate(583.048828 0)"/>
      <use xlink:href="#DejaVuSans-6c" transform="translate(646.525391 0)"/>
      <use xlink:href="#DejaVuSans-69" transform="translate(674.308594 0)"/>
      <use xlink:href="#DejaVuSans-6e" transform="translate(702.091797 0)"/>
      <use xlink:href="#DejaVuSans-67" transform="translate(765.470703 0)"/>
      <use xlink:href="#DejaVuSans-2f" transform="translate(828.947266 0)"/>
      <use xlink:href="#DejaVuSans-66" transform="translate(862.638672 0)"/>
      <use xlink:href="#DejaVuSans-69" transform="translate(897.84375 0)"/>
      <use xlink:href="#DejaVuSans-6c" transform="translate(925.626953 0)"/>
      <use xlink:href="#DejaVuSans-74" transform="translate(953.410156 0)"/>
      <use xlink:href="#DejaVuSans-65" transform="translate(992.619141 0)"/>
      <use xlink:href="#DejaVuSans-72" transform="translate(1054.142578 0)"/>
     </g>
    </g>
   </g>
  </g>
 </g>
 <defs>
  <clipPath id="pa82b18a421">
   <rect x="57.6" y="41.472" width="357.12" height="266.112"/>
  </clipPath>
 </defs>
</svg>
