<?xml version="1.0" encoding="utf-8" standalone="no"?>
<!DOCTYPE svg PUBLIC "-//W3C//DTD SVG 1.1//EN"
  "http://www.w3.org/Graphics/SVG/1.1/DTD/svg11.dtd">
<svg xmlns:xlink="http://www.w3.org/1999/xlink" width="460.8pt" height="345.6pt" viewBox="0 0 460.8 345.6" xmlns="http://www.w3.org/2000/svg" version="1.1">
 <metadata>
  <rdf:RDF xmlns:dc="http://purl.org/dc/elements/1.1/" xmlns:cc="http://creativecommons.org/ns#" xmlns:rdf="http://www.w3.org/1999/02/22-rdf-syntax-ns#">
   <cc:Work>
    <dc:type rdf:resource="http://purl.org/dc/dcmitype/StillImage"/>
    <dc:date>2025-10-31T17:26:11.431802</dc:date>
    <dc:format>image/svg+xml</dc:format>
    <dc:creator>
     <cc:Agent>
      <dc:title>Matplotlib v3.10.7, https://matplotlib.org/</dc:title>
     </cc:Agent>
    </dc:creator>
   </cc:Work>
  </rdf:RDF>
 </metadata>
 <defs>
  <style type="text/css">*{stroke-linejoin: round; stroke-linecap: butt}</style>
 </defs>
 <g id="figure_1">
  <g id="patch_1">
   <path d="M 0 345.6 
L 460.8 345.6 
L 460.8 0 
L 0 0 
z
" style="fill: #ffffff"/>
  </g>
  <g id="axes_1">
   <g id="patch_2">
    <path d="M 57.6 307.584 
L 414.72 307.584 
L 414.72 41.472 
L 57.6 41.472 
z
" style="fill: #ffffff"/>
   </g>
   <g id="matplotlib.axis_1">
    <g id="xtick_1">
     <g id="line2d_1">
      <defs>
       <path id="mb93a363705" d="M 0 0 
L 0 3.5 
" style="stroke: #000000; stroke-width: 0.8"/>
      </defs>
      <g>
       <use xlink:href="#mb93a363705" x="73.832727" y="307.584" style="stroke: #000000; stroke-width: 0.8"/>
      </g>
     </g>
     <g id="text_1">
      <!-- 0 -->
      <g transform="translate(70.651477 322.182437) scale(0.1 -0.1)">
       <defs>
        <path id="DejaVuSans-30" d="M 2034 4250 
Q 1547 4250 1301 3770 
Q 1056 3291 1056 2328 
Q 1056 1369 1301 889 
Q 1547 409 2034 409 
Q 2525 409 2770 889 
Q 3016 1369 3016 2328 
Q 3016 3291 2770 3770 
Q 2525 4250 2034 4250 
z
M 2034 4750 
Q 2819 4750 3233 4129 
Q 3647 3509 3647 2328 
Q 3647 1150 3233 529 
Q 2819 -91 2034 -91 
Q 1250 -91 836 529 
Q 422 1150 422 2328 
Q 422 3509 836 4129 
Q 1250 4750 2034 4750 
z
" transform="scale(0.015625)"/>
       </defs>
       <use xlink:href="#DejaVuSans-30"/>
      </g>
     </g>
    </g>
    <g id="xtick_2">
     <g id="line2d_2">
      <g>
       <use xlink:href="#mb93a363705" x="114.414545" y="307.584" style="stroke: #000000; stroke-width: 0.8"/>
      </g>
     </g>
     <g id="text_2">
      <!-- 25 -->
      <g transform="translate(108.052045 322.182437) scale(0.1 -0.1)">
       <defs>
        <path id="DejaVuSans-32" d="M 1228 531 
L 3431 531 
L 3431 0 
L 469 0 
L 469 531 
Q 828 903 1448 1529 
Q 2069 2156 2228 2338 
Q 2531 2678 2651 2914 
Q 2772 3150 2772 3378 
Q 2772 3750 2511 3984 
Q 2250 4219 1831 4219 
Q 1534 4219 1204 4116 
Q 875 4013 500 3803 
L 500 4441 
Q 881 4594 1212 4672 
Q 1544 4750 1819 4750 
Q 2544 4750 2975 4387 
Q 3406 4025 3406 3419 
Q 3406 3131 3298 2873 
Q 3191 2616 2906 2266 
Q 2828 2175 2409 1742 
Q 1991 1309 1228 531 
z
" transform="scale(0.015625)"/>
        <path id="DejaVuSans-35" d="M 691 4666 
L 3169 4666 
L 3169 4134 
L 1269 4134 
L 1269 2991 
Q 1406 3038 1543 3061 
Q 1681 3084 1819 3084 
Q 2600 3084 3056 2656 
Q 3513 2228 3513 1497 
Q 3513 744 3044 326 
Q 2575 -91 1722 -91 
Q 1428 -91 1123 -41 
Q 819 9 494 109 
L 494 744 
Q 775 591 1075 516 
Q 1375 441 1709 441 
Q 2250 441 2565 725 
Q 2881 1009 2881 1497 
Q 2881 1984 2565 2268 
Q 2250 2553 1709 2553 
Q 1456 2553 1204 2497 
Q 953 2441 691 2322 
L 691 4666 
z
" transform="scale(0.015625)"/>
       </defs>
       <use xlink:href="#DejaVuSans-32"/>
       <use xlink:href="#DejaVuSans-35" transform="translate(63.623047 0)"/>
      </g>
     </g>
    </g>
    <g id="xtick_3">
     <g id="line2d_3">
      <g>
       <use xlink:href="#mb93a363705" x="154.996364" y="307.584" style="stroke: #000000; stroke-width: 0.8"/>
      </g>
     </g>
     <g id="text_3">
      <!-- 50 -->
      <g transform="translate(148.633864 322.182437) scale(0.1 -0.1)">
       <use xlink:href="#DejaVuSans-35"/>
       <use xlink:href="#DejaVuSans-30" transform="translate(63.623047 0)"/>
      </g>
     </g>
    </g>
    <g id="xtick_4">
     <g id="line2d_4">
      <g>
       <use xlink:href="#mb93a363705" x="195.578182" y="307.584" style="stroke: #000000; stroke-width: 0.8"/>
      </g>
     </g>
     <g id="text_4">
      <!-- 75 -->
      <g transform="translate(189.215682 322.182437) scale(0.1 -0.1)">
       <defs>
        <path id="DejaVuSans-37" d="M 525 4666 
L 3525 4666 
L 3525 4397 
L 1831 0 
L 1172 0 
L 2766 4134 
L 525 4134 
L 525 4666 
z
" transform="scale(0.015625)"/>
       </defs>
       <use xlink:href="#DejaVuSans-37"/>
       <use xlink:href="#DejaVuSans-35" transform="translate(63.623047 0)"/>
      </g>
     </g>
    </g>
    <g id="xtick_5">
     <g id="line2d_5">
      <g>
       <use xlink:href="#mb93a363705" x="236.16" y="307.584" style="stroke: #000000; stroke-width: 0.8"/>
      </g>
     </g>
     <g id="text_5">
      <!-- 100 -->
      <g transform="translate(226.61625 322.182437) scale(0.1 -0.1)">
       <defs>
        <path id="DejaVuSans-31" d="M 794 531 
L 1825 531 
L 1825 4091 
L 703 3866 
L 703 4441 
L 1819 4666 
L 2450 4666 
L 2450 531 
L 3481 531 
L 3481 0 
L 794 0 
L 794 531 
z
" transform="scale(0.015625)"/>
       </defs>
       <use xlink:href="#DejaVuSans-31"/>
       <use xlink:href="#DejaVuSans-30" transform="translate(63.623047 0)"/>
       <use xlink:href="#DejaVuSans-30" transform="translate(127.246094 0)"/>
      </g>
     </g>
    </g>
    <g id="xtick_6">
     <g id="line2d_6">
      <g>
       <use xlink:href="#mb93a363705" x="276.741818" y="307.584" style="stroke: #000000; stroke-width: 0.8"/>
      </g>
     </g>
     <g id="text_6">
      <!-- 125 -->
      <g transform="translate(267.198068 322.182437) scale(0.1 -0.1)">
       <use xlink:href="#DejaVuSans-31"/>
       <use xlink:href="#DejaVuSans-32" transform="translate(63.623047 0)"/>
       <use xlink:href="#DejaVuSans-35" transform="translate(127.246094 0)"/>
      </g>
     </g>
    </g>
    <g id="xtick_7">
     <g id="line2d_7">
      <g>
       <use xlink:href="#mb93a363705" x="317.323636" y="307.584" style="stroke: #000000; stroke-width: 0.8"/>
      </g>
     </g>
     <g id="text_7">
      <!-- 150 -->
      <g transform="translate(307.779886 322.182437) scale(0.1 -0.1)">
       <use xlink:href="#DejaVuSans-31"/>
       <use xlink:href="#DejaVuSans-35" transform="translate(63.623047 0)"/>
       <use xlink:href="#DejaVuSans-30" transform="translate(127.246094 0)"/>
      </g>
     </g>
    </g>
    <g id="xtick_8">
     <g id="line2d_8">
      <g>
       <use xlink:href="#mb93a363705" x="357.905455" y="307.584" style="stroke: #000000; stroke-width: 0.8"/>
      </g>
     </g>
     <g id="text_8">
      <!-- 175 -->
      <g transform="translate(348.361705 322.182437) scale(0.1 -0.1)">
       <use xlink:href="#DejaVuSans-31"/>
       <use xlink:href="#DejaVuSans-37" transform="translate(63.623047 0)"/>
       <use xlink:href="#DejaVuSans-35" transform="translate(127.246094 0)"/>
      </g>
     </g>
    </g>
    <g id="xtick_9">
     <g id="line2d_9">
      <g>
       <use xlink:href="#mb93a363705" x="398.487273" y="307.584" style="stroke: #000000; stroke-width: 0.8"/>
      </g>
     </g>
     <g id="text_9">
      <!-- 200 -->
      <g transform="translate(388.943523 322.182437) scale(0.1 -0.1)">
       <use xlink:href="#DejaVuSans-32"/>
       <use xlink:href="#DejaVuSans-30" transform="translate(63.623047 0)"/>
       <use xlink:href="#DejaVuSans-30" transform="translate(127.246094 0)"/>
      </g>
     </g>
    </g>
    <g id="text_10">
     <!-- Frequenz in Hz -->
     <g transform="translate(199.294375 335.860562) scale(0.1 -0.1)">
      <defs>
       <path id="DejaVuSans-46" d="M 628 4666 
L 3309 4666 
L 3309 4134 
L 1259 4134 
L 1259 2759 
L 3109 2759 
L 3109 2228 
L 1259 2228 
L 1259 0 
L 628 0 
L 628 4666 
z
" transform="scale(0.015625)"/>
       <path id="DejaVuSans-72" d="M 2631 2963 
Q 2534 3019 2420 3045 
Q 2306 3072 2169 3072 
Q 1681 3072 1420 2755 
Q 1159 2438 1159 1844 
L 1159 0 
L 581 0 
L 581 3500 
L 1159 3500 
L 1159 2956 
Q 1341 3275 1631 3429 
Q 1922 3584 2338 3584 
Q 2397 3584 2469 3576 
Q 2541 3569 2628 3553 
L 2631 2963 
z
" transform="scale(0.015625)"/>
       <path id="DejaVuSans-65" d="M 3597 1894 
L 3597 1613 
L 953 1613 
Q 991 1019 1311 708 
Q 1631 397 2203 397 
Q 2534 397 2845 478 
Q 3156 559 3463 722 
L 3463 178 
Q 3153 47 2828 -22 
Q 2503 -91 2169 -91 
Q 1331 -91 842 396 
Q 353 884 353 1716 
Q 353 2575 817 3079 
Q 1281 3584 2069 3584 
Q 2775 3584 3186 3129 
Q 3597 2675 3597 1894 
z
M 3022 2063 
Q 3016 2534 2758 2815 
Q 2500 3097 2075 3097 
Q 1594 3097 1305 2825 
Q 1016 2553 972 2059 
L 3022 2063 
z
" transform="scale(0.015625)"/>
       <path id="DejaVuSans-71" d="M 947 1747 
Q 947 1113 1208 752 
Q 1469 391 1925 391 
Q 2381 391 2643 752 
Q 2906 1113 2906 1747 
Q 2906 2381 2643 2742 
Q 2381 3103 1925 3103 
Q 1469 3103 1208 2742 
Q 947 2381 947 1747 
z
M 2906 525 
Q 2725 213 2448 61 
Q 2172 -91 1784 -91 
Q 1150 -91 751 415 
Q 353 922 353 1747 
Q 353 2572 751 3078 
Q 1150 3584 1784 3584 
Q 2172 3584 2448 3432 
Q 2725 3281 2906 2969 
L 2906 3500 
L 3481 3500 
L 3481 -1331 
L 2906 -1331 
L 2906 525 
z
" transform="scale(0.015625)"/>
       <path id="DejaVuSans-75" d="M 544 1381 
L 544 3500 
L 1119 3500 
L 1119 1403 
Q 1119 906 1312 657 
Q 1506 409 1894 409 
Q 2359 409 2629 706 
Q 2900 1003 2900 1516 
L 2900 3500 
L 3475 3500 
L 3475 0 
L 2900 0 
L 2900 538 
Q 2691 219 2414 64 
Q 2138 -91 1772 -91 
Q 1169 -91 856 284 
Q 544 659 544 1381 
z
M 1991 3584 
L 1991 3584 
z
" transform="scale(0.015625)"/>
       <path id="DejaVuSans-6e" d="M 3513 2113 
L 3513 0 
L 2938 0 
L 2938 2094 
Q 2938 2591 2744 2837 
Q 2550 3084 2163 3084 
Q 1697 3084 1428 2787 
Q 1159 2491 1159 1978 
L 1159 0 
L 581 0 
L 581 3500 
L 1159 3500 
L 1159 2956 
Q 1366 3272 1645 3428 
Q 1925 3584 2291 3584 
Q 2894 3584 3203 3211 
Q 3513 2838 3513 2113 
z
" transform="scale(0.015625)"/>
       <path id="DejaVuSans-7a" d="M 353 3500 
L 3084 3500 
L 3084 2975 
L 922 459 
L 3084 459 
L 3084 0 
L 275 0 
L 275 525 
L 2438 3041 
L 353 3041 
L 353 3500 
z
" transform="scale(0.015625)"/>
       <path id="DejaVuSans-20" transform="scale(0.015625)"/>
       <path id="DejaVuSans-69" d="M 603 3500 
L 1178 3500 
L 1178 0 
L 603 0 
L 603 3500 
z
M 603 4863 
L 1178 4863 
L 1178 4134 
L 603 4134 
L 603 4863 
z
" transform="scale(0.015625)"/>
       <path id="DejaVuSans-48" d="M 628 4666 
L 1259 4666 
L 1259 2753 
L 3553 2753 
L 3553 4666 
L 4184 4666 
L 4184 0 
L 3553 0 
L 3553 2222 
L 1259 2222 
L 1259 0 
L 628 0 
L 628 4666 
z
" transform="scale(0.015625)"/>
      </defs>
      <use xlink:href="#DejaVuSans-46"/>
      <use xlink:href="#DejaVuSans-72" transform="translate(50.269531 0)"/>
      <use xlink:href="#DejaVuSans-65" transform="translate(89.132812 0)"/>
      <use xlink:href="#DejaVuSans-71" transform="translate(150.65625 0)"/>
      <use xlink:href="#DejaVuSans-75" transform="translate(214.132812 0)"/>
      <use xlink:href="#DejaVuSans-65" transform="translate(277.511719 0)"/>
      <use xlink:href="#DejaVuSans-6e" transform="translate(339.035156 0)"/>
      <use xlink:href="#DejaVuSans-7a" transform="translate(402.414062 0)"/>
      <use xlink:href="#DejaVuSans-20" transform="translate(454.904297 0)"/>
      <use xlink:href="#DejaVuSans-69" transform="translate(486.691406 0)"/>
      <use xlink:href="#DejaVuSans-6e" transform="translate(514.474609 0)"/>
      <use xlink:href="#DejaVuSans-20" transform="translate(577.853516 0)"/>
      <use xlink:href="#DejaVuSans-48" transform="translate(609.640625 0)"/>
      <use xlink:href="#DejaVuSans-7a" transform="translate(684.835938 0)"/>
     </g>
    </g>
   </g>
   <g id="matplotlib.axis_2">
    <g id="ytick_1">
     <g id="line2d_10">
      <defs>
       <path id="mfaaba53452" d="M 0 0 
L -3.5 0 
" style="stroke: #000000; stroke-width: 0.8"/>
      </defs>
      <g>
       <use xlink:href="#mfaaba53452" x="57.6" y="307.584" style="stroke: #000000; stroke-width: 0.8"/>
      </g>
     </g>
     <g id="text_11">
      <!-- $\mathdefault{10^{-1}}$ -->
      <g transform="translate(27.1 311.383219) scale(0.1 -0.1)">
       <defs>
        <path id="DejaVuSans-2212" d="M 678 2272 
L 4684 2272 
L 4684 1741 
L 678 1741 
L 678 2272 
z
" transform="scale(0.015625)"/>
       </defs>
       <use xlink:href="#DejaVuSans-31" transform="translate(0 0.684375)"/>
       <use xlink:href="#DejaVuSans-30" transform="translate(63.623047 0.684375)"/>
       <use xlink:href="#DejaVuSans-2212" transform="translate(128.203125 38.965625) scale(0.7)"/>
       <use xlink:href="#DejaVuSans-31" transform="translate(186.855469 38.965625) scale(0.7)"/>
      </g>
     </g>
    </g>
    <g id="ytick_2">
     <g id="line2d_11">
      <g>
       <use xlink:href="#mfaaba53452" x="57.6" y="241.056" style="stroke: #000000; stroke-width: 0.8"/>
      </g>
     </g>
     <g id="text_12">
      <!-- $\mathdefault{10^{0}}$ -->
      <g transform="translate(33 244.855219) scale(0.1 -0.1)">
       <use xlink:href="#DejaVuSans-31" transform="translate(0 0.765625)"/>
       <use xlink:href="#DejaVuSans-30" transform="translate(63.623047 0.765625)"/>
       <use xlink:href="#DejaVuSans-30" transform="translate(128.203125 39.046875) scale(0.7)"/>
      </g>
     </g>
    </g>
    <g id="ytick_3">
     <g id="line2d_12">
      <g>
       <use xlink:href="#mfaaba53452" x="57.6" y="174.528" style="stroke: #000000; stroke-width: 0.8"/>
      </g>
     </g>
     <g id="text_13">
      <!-- $\mathdefault{10^{1}}$ -->
      <g transform="translate(33 178.327219) scale(0.1 -0.1)">
       <use xlink:href="#DejaVuSans-31" transform="translate(0 0.684375)"/>
       <use xlink:href="#DejaVuSans-30" transform="translate(63.623047 0.684375)"/>
       <use xlink:href="#DejaVuSans-31" transform="translate(128.203125 38.965625) scale(0.7)"/>
      </g>
     </g>
    </g>
    <g id="ytick_4">
     <g id="line2d_13">
      <g>
       <use xlink:href="#mfaaba53452" x="57.6" y="108" style="stroke: #000000; stroke-width: 0.8"/>
      </g>
     </g>
     <g id="text_14">
      <!-- $\mathdefault{10^{2}}$ -->
      <g transform="translate(33 111.799219) scale(0.1 -0.1)">
       <use xlink:href="#DejaVuSans-31" transform="translate(0 0.765625)"/>
       <use xlink:href="#DejaVuSans-30" transform="translate(63.623047 0.765625)"/>
       <use xlink:href="#DejaVuSans-32" transform="translate(128.203125 39.046875) scale(0.7)"/>
      </g>
     </g>
    </g>
    <g id="ytick_5">
     <g id="line2d_14">
      <g>
       <use xlink:href="#mfaaba53452" x="57.6" y="41.472" style="stroke: #000000; stroke-width: 0.8"/>
      </g>
     </g>
     <g id="text_15">
      <!-- $\mathdefault{10^{3}}$ -->
      <g transform="translate(33 45.271219) scale(0.1 -0.1)">
       <defs>
        <path id="DejaVuSans-33" d="M 2597 2516 
Q 3050 2419 3304 2112 
Q 3559 1806 3559 1356 
Q 3559 666 3084 287 
Q 2609 -91 1734 -91 
Q 1441 -91 1130 -33 
Q 819 25 488 141 
L 488 750 
Q 750 597 1062 519 
Q 1375 441 1716 441 
Q 2309 441 2620 675 
Q 2931 909 2931 1356 
Q 2931 1769 2642 2001 
Q 2353 2234 1838 2234 
L 1294 2234 
L 1294 2753 
L 1863 2753 
Q 2328 2753 2575 2939 
Q 2822 3125 2822 3475 
Q 2822 3834 2567 4026 
Q 2313 4219 1838 4219 
Q 1578 4219 1281 4162 
Q 984 4106 628 3988 
L 628 4550 
Q 988 4650 1302 4700 
Q 1616 4750 1894 4750 
Q 2613 4750 3031 4423 
Q 3450 4097 3450 3541 
Q 3450 3153 3228 2886 
Q 3006 2619 2597 2516 
z
" transform="scale(0.015625)"/>
       </defs>
       <use xlink:href="#DejaVuSans-31" transform="translate(0 0.765625)"/>
       <use xlink:href="#DejaVuSans-30" transform="translate(63.623047 0.765625)"/>
       <use xlink:href="#DejaVuSans-33" transform="translate(128.203125 39.046875) scale(0.7)"/>
      </g>
     </g>
    </g>
    <g id="ytick_6">
     <g id="line2d_15">
      <defs>
       <path id="m9bc3b773ac" d="M 0 0 
L -2 0 
" style="stroke: #000000; stroke-width: 0.6"/>
      </defs>
      <g>
       <use xlink:href="#m9bc3b773ac" x="57.6" y="287.557076" style="stroke: #000000; stroke-width: 0.6"/>
      </g>
     </g>
    </g>
    <g id="ytick_7">
     <g id="line2d_16">
      <g>
       <use xlink:href="#m9bc3b773ac" x="57.6" y="275.842077" style="stroke: #000000; stroke-width: 0.6"/>
      </g>
     </g>
    </g>
    <g id="ytick_8">
     <g id="line2d_17">
      <g>
       <use xlink:href="#m9bc3b773ac" x="57.6" y="267.530153" style="stroke: #000000; stroke-width: 0.6"/>
      </g>
     </g>
    </g>
    <g id="ytick_9">
     <g id="line2d_18">
      <g>
       <use xlink:href="#m9bc3b773ac" x="57.6" y="261.082924" style="stroke: #000000; stroke-width: 0.6"/>
      </g>
     </g>
    </g>
    <g id="ytick_10">
     <g id="line2d_19">
      <g>
       <use xlink:href="#m9bc3b773ac" x="57.6" y="255.815154" style="stroke: #000000; stroke-width: 0.6"/>
      </g>
     </g>
    </g>
    <g id="ytick_11">
     <g id="line2d_20">
      <g>
       <use xlink:href="#m9bc3b773ac" x="57.6" y="251.361318" style="stroke: #000000; stroke-width: 0.6"/>
      </g>
     </g>
    </g>
    <g id="ytick_12">
     <g id="line2d_21">
      <g>
       <use xlink:href="#m9bc3b773ac" x="57.6" y="247.503229" style="stroke: #000000; stroke-width: 0.6"/>
      </g>
     </g>
    </g>
    <g id="ytick_13">
     <g id="line2d_22">
      <g>
       <use xlink:href="#m9bc3b773ac" x="57.6" y="244.100154" style="stroke: #000000; stroke-width: 0.6"/>
      </g>
     </g>
    </g>
    <g id="ytick_14">
     <g id="line2d_23">
      <g>
       <use xlink:href="#m9bc3b773ac" x="57.6" y="221.029076" style="stroke: #000000; stroke-width: 0.6"/>
      </g>
     </g>
    </g>
    <g id="ytick_15">
     <g id="line2d_24">
      <g>
       <use xlink:href="#m9bc3b773ac" x="57.6" y="209.314077" style="stroke: #000000; stroke-width: 0.6"/>
      </g>
     </g>
    </g>
    <g id="ytick_16">
     <g id="line2d_25">
      <g>
       <use xlink:href="#m9bc3b773ac" x="57.6" y="201.002153" style="stroke: #000000; stroke-width: 0.6"/>
      </g>
     </g>
    </g>
    <g id="ytick_17">
     <g id="line2d_26">
      <g>
       <use xlink:href="#m9bc3b773ac" x="57.6" y="194.554924" style="stroke: #000000; stroke-width: 0.6"/>
      </g>
     </g>
    </g>
    <g id="ytick_18">
     <g id="line2d_27">
      <g>
       <use xlink:href="#m9bc3b773ac" x="57.6" y="189.287154" style="stroke: #000000; stroke-width: 0.6"/>
      </g>
     </g>
    </g>
    <g id="ytick_19">
     <g id="line2d_28">
      <g>
       <use xlink:href="#m9bc3b773ac" x="57.6" y="184.833318" style="stroke: #000000; stroke-width: 0.6"/>
      </g>
     </g>
    </g>
    <g id="ytick_20">
     <g id="line2d_29">
      <g>
       <use xlink:href="#m9bc3b773ac" x="57.6" y="180.975229" style="stroke: #000000; stroke-width: 0.6"/>
      </g>
     </g>
    </g>
    <g id="ytick_21">
     <g id="line2d_30">
      <g>
       <use xlink:href="#m9bc3b773ac" x="57.6" y="177.572154" style="stroke: #000000; stroke-width: 0.6"/>
      </g>
     </g>
    </g>
    <g id="ytick_22">
     <g id="line2d_31">
      <g>
       <use xlink:href="#m9bc3b773ac" x="57.6" y="154.501076" style="stroke: #000000; stroke-width: 0.6"/>
      </g>
     </g>
    </g>
    <g id="ytick_23">
     <g id="line2d_32">
      <g>
       <use xlink:href="#m9bc3b773ac" x="57.6" y="142.786077" style="stroke: #000000; stroke-width: 0.6"/>
      </g>
     </g>
    </g>
    <g id="ytick_24">
     <g id="line2d_33">
      <g>
       <use xlink:href="#m9bc3b773ac" x="57.6" y="134.474153" style="stroke: #000000; stroke-width: 0.6"/>
      </g>
     </g>
    </g>
    <g id="ytick_25">
     <g id="line2d_34">
      <g>
       <use xlink:href="#m9bc3b773ac" x="57.6" y="128.026924" style="stroke: #000000; stroke-width: 0.6"/>
      </g>
     </g>
    </g>
    <g id="ytick_26">
     <g id="line2d_35">
      <g>
       <use xlink:href="#m9bc3b773ac" x="57.6" y="122.759154" style="stroke: #000000; stroke-width: 0.6"/>
      </g>
     </g>
    </g>
    <g id="ytick_27">
     <g id="line2d_36">
      <g>
       <use xlink:href="#m9bc3b773ac" x="57.6" y="118.305318" style="stroke: #000000; stroke-width: 0.6"/>
      </g>
     </g>
    </g>
    <g id="ytick_28">
     <g id="line2d_37">
      <g>
       <use xlink:href="#m9bc3b773ac" x="57.6" y="114.447229" style="stroke: #000000; stroke-width: 0.6"/>
      </g>
     </g>
    </g>
    <g id="ytick_29">
     <g id="line2d_38">
      <g>
       <use xlink:href="#m9bc3b773ac" x="57.6" y="111.044154" style="stroke: #000000; stroke-width: 0.6"/>
      </g>
     </g>
    </g>
    <g id="ytick_30">
     <g id="line2d_39">
      <g>
       <use xlink:href="#m9bc3b773ac" x="57.6" y="87.973076" style="stroke: #000000; stroke-width: 0.6"/>
      </g>
     </g>
    </g>
    <g id="ytick_31">
     <g id="line2d_40">
      <g>
       <use xlink:href="#m9bc3b773ac" x="57.6" y="76.258077" style="stroke: #000000; stroke-width: 0.6"/>
      </g>
     </g>
    </g>
    <g id="ytick_32">
     <g id="line2d_41">
      <g>
       <use xlink:href="#m9bc3b773ac" x="57.6" y="67.946153" style="stroke: #000000; stroke-width: 0.6"/>
      </g>
     </g>
    </g>
    <g id="ytick_33">
     <g id="line2d_42">
      <g>
       <use xlink:href="#m9bc3b773ac" x="57.6" y="61.498924" style="stroke: #000000; stroke-width: 0.6"/>
      </g>
     </g>
    </g>
    <g id="ytick_34">
     <g id="line2d_43">
      <g>
       <use xlink:href="#m9bc3b773ac" x="57.6" y="56.231154" style="stroke: #000000; stroke-width: 0.6"/>
      </g>
     </g>
    </g>
    <g id="ytick_35">
     <g id="line2d_44">
      <g>
       <use xlink:href="#m9bc3b773ac" x="57.6" y="51.777318" style="stroke: #000000; stroke-width: 0.6"/>
      </g>
     </g>
    </g>
    <g id="ytick_36">
     <g id="line2d_45">
      <g>
       <use xlink:href="#m9bc3b773ac" x="57.6" y="47.919229" style="stroke: #000000; stroke-width: 0.6"/>
      </g>
     </g>
    </g>
    <g id="ytick_37">
     <g id="line2d_46">
      <g>
       <use xlink:href="#m9bc3b773ac" x="57.6" y="44.516154" style="stroke: #000000; stroke-width: 0.6"/>
      </g>
     </g>
    </g>
    <g id="text_16">
     <!-- Leistung/Frequenz (V²/Hz) -->
     <g transform="translate(21.020312 239.182687) rotate(-90) scale(0.1 -0.1)">
      <defs>
       <path id="DejaVuSans-4c" d="M 628 4666 
L 1259 4666 
L 1259 531 
L 3531 531 
L 3531 0 
L 628 0 
L 628 4666 
z
" transform="scale(0.015625)"/>
       <path id="DejaVuSans-73" d="M 2834 3397 
L 2834 2853 
Q 2591 2978 2328 3040 
Q 2066 3103 1784 3103 
Q 1356 3103 1142 2972 
Q 928 2841 928 2578 
Q 928 2378 1081 2264 
Q 1234 2150 1697 2047 
L 1894 2003 
Q 2506 1872 2764 1633 
Q 3022 1394 3022 966 
Q 3022 478 2636 193 
Q 2250 -91 1575 -91 
Q 1294 -91 989 -36 
Q 684 19 347 128 
L 347 722 
Q 666 556 975 473 
Q 1284 391 1588 391 
Q 1994 391 2212 530 
Q 2431 669 2431 922 
Q 2431 1156 2273 1281 
Q 2116 1406 1581 1522 
L 1381 1569 
Q 847 1681 609 1914 
Q 372 2147 372 2553 
Q 372 3047 722 3315 
Q 1072 3584 1716 3584 
Q 2034 3584 2315 3537 
Q 2597 3491 2834 3397 
z
" transform="scale(0.015625)"/>
       <path id="DejaVuSans-74" d="M 1172 4494 
L 1172 3500 
L 2356 3500 
L 2356 3053 
L 1172 3053 
L 1172 1153 
Q 1172 725 1289 603 
Q 1406 481 1766 481 
L 2356 481 
L 2356 0 
L 1766 0 
Q 1100 0 847 248 
Q 594 497 594 1153 
L 594 3053 
L 172 3053 
L 172 3500 
L 594 3500 
L 594 4494 
L 1172 4494 
z
" transform="scale(0.015625)"/>
       <path id="DejaVuSans-67" d="M 2906 1791 
Q 2906 2416 2648 2759 
Q 2391 3103 1925 3103 
Q 1463 3103 1205 2759 
Q 947 2416 947 1791 
Q 947 1169 1205 825 
Q 1463 481 1925 481 
Q 2391 481 2648 825 
Q 2906 1169 2906 1791 
z
M 3481 434 
Q 3481 -459 3084 -895 
Q 2688 -1331 1869 -1331 
Q 1566 -1331 1297 -1286 
Q 1028 -1241 775 -1147 
L 775 -588 
Q 1028 -725 1275 -790 
Q 1522 -856 1778 -856 
Q 2344 -856 2625 -561 
Q 2906 -266 2906 331 
L 2906 616 
Q 2728 306 2450 153 
Q 2172 0 1784 0 
Q 1141 0 747 490 
Q 353 981 353 1791 
Q 353 2603 747 3093 
Q 1141 3584 1784 3584 
Q 2172 3584 2450 3431 
Q 2728 3278 2906 2969 
L 2906 3500 
L 3481 3500 
L 3481 434 
z
" transform="scale(0.015625)"/>
       <path id="DejaVuSans-2f" d="M 1625 4666 
L 2156 4666 
L 531 -594 
L 0 -594 
L 1625 4666 
z
" transform="scale(0.015625)"/>
       <path id="DejaVuSans-28" d="M 1984 4856 
Q 1566 4138 1362 3434 
Q 1159 2731 1159 2009 
Q 1159 1288 1364 580 
Q 1569 -128 1984 -844 
L 1484 -844 
Q 1016 -109 783 600 
Q 550 1309 550 2009 
Q 550 2706 781 3412 
Q 1013 4119 1484 4856 
L 1984 4856 
z
" transform="scale(0.015625)"/>
       <path id="DejaVuSans-56" d="M 1831 0 
L 50 4666 
L 709 4666 
L 2188 738 
L 3669 4666 
L 4325 4666 
L 2547 0 
L 1831 0 
z
" transform="scale(0.015625)"/>
       <path id="DejaVuSans-b2" d="M 838 2444 
L 2163 2444 
L 2163 2088 
L 294 2088 
L 294 2431 
Q 400 2528 597 2703 
Q 1672 3656 1672 3950 
Q 1672 4156 1509 4282 
Q 1347 4409 1081 4409 
Q 919 4409 728 4354 
Q 538 4300 313 4191 
L 313 4575 
Q 553 4663 761 4706 
Q 969 4750 1147 4750 
Q 1600 4750 1872 4544 
Q 2144 4338 2144 4000 
Q 2144 3566 1109 2678 
Q 934 2528 838 2444 
z
" transform="scale(0.015625)"/>
       <path id="DejaVuSans-29" d="M 513 4856 
L 1013 4856 
Q 1481 4119 1714 3412 
Q 1947 2706 1947 2009 
Q 1947 1309 1714 600 
Q 1481 -109 1013 -844 
L 513 -844 
Q 928 -128 1133 580 
Q 1338 1288 1338 2009 
Q 1338 2731 1133 3434 
Q 928 4138 513 4856 
z
" transform="scale(0.015625)"/>
      </defs>
      <use xlink:href="#DejaVuSans-4c"/>
      <use xlink:href="#DejaVuSans-65" transform="translate(53.962891 0)"/>
      <use xlink:href="#DejaVuSans-69" transform="translate(115.486328 0)"/>
      <use xlink:href="#DejaVuSans-73" transform="translate(143.269531 0)"/>
      <use xlink:href="#DejaVuSans-74" transform="translate(195.369141 0)"/>
      <use xlink:href="#DejaVuSans-75" transform="translate(234.578125 0)"/>
      <use xlink:href="#DejaVuSans-6e" transform="translate(297.957031 0)"/>
      <use xlink:href="#DejaVuSans-67" transform="translate(361.335938 0)"/>
      <use xlink:href="#DejaVuSans-2f" transform="translate(424.8125 0)"/>
      <use xlink:href="#DejaVuSans-46" transform="translate(458.503906 0)"/>
      <use xlink:href="#DejaVuSans-72" transform="translate(508.773438 0)"/>
      <use xlink:href="#DejaVuSans-65" transform="translate(547.636719 0)"/>
      <use xlink:href="#DejaVuSans-71" transform="translate(609.160156 0)"/>
      <use xlink:href="#DejaVuSans-75" transform="translate(672.636719 0)"/>
      <use xlink:href="#DejaVuSans-65" transform="translate(736.015625 0)"/>
      <use xlink:href="#DejaVuSans-6e" transform="translate(797.539062 0)"/>
      <use xlink:href="#DejaVuSans-7a" transform="translate(860.917969 0)"/>
      <use xlink:href="#DejaVuSans-20" transform="translate(913.408203 0)"/>
      <use xlink:href="#DejaVuSans-28" transform="translate(945.195312 0)"/>
      <use xlink:href="#DejaVuSans-56" transform="translate(984.208984 0)"/>
      <use xlink:href="#DejaVuSans-b2" transform="translate(1052.617188 0)"/>
      <use xlink:href="#DejaVuSans-2f" transform="translate(1092.705078 0)"/>
      <use xlink:href="#DejaVuSans-48" transform="translate(1126.396484 0)"/>
      <use xlink:href="#DejaVuSans-7a" transform="translate(1201.591797 0)"/>
      <use xlink:href="#DejaVuSans-29" transform="translate(1254.082031 0)"/>
     </g>
    </g>
   </g>
   <g id="line2d_47">
    <path d="M 73.832727 275.108362 
L 74.466818 190.569728 
L 74.783864 186.530973 
L 75.100909 180.011356 
L 75.417955 178.92277 
L 76.052045 189.253866 
L 76.369091 188.19445 
L 76.686136 191.503799 
L 77.003182 201.029686 
L 77.320227 205.370818 
L 77.637273 207.437909 
L 77.954318 214.075885 
L 78.271364 213.611514 
L 78.588409 213.508726 
L 78.905455 220.928813 
L 79.2225 221.737447 
L 79.539545 221.546039 
L 80.807727 235.836493 
L 81.124773 233.974761 
L 81.441818 235.832797 
L 81.758864 231.264013 
L 82.075909 236.413446 
L 82.392955 237.019098 
L 83.027045 236.238307 
L 83.344091 236.155183 
L 83.661136 240.279168 
L 83.978182 240.110909 
L 84.295227 240.951187 
L 84.612273 235.802092 
L 84.929318 238.503419 
L 85.246364 243.810534 
L 85.563409 244.155244 
L 85.880455 238.72739 
L 86.1975 236.110616 
L 86.514545 235.554082 
L 87.148636 228.386033 
L 87.465682 227.348204 
L 87.782727 225.915332 
L 88.099773 233.058488 
L 88.416818 236.311706 
L 88.733864 235.462398 
L 89.050909 240.714493 
L 89.367955 237.802149 
L 89.685 230.989956 
L 90.002045 237.935349 
L 90.636136 240.285603 
L 90.953182 244.312529 
L 91.270227 242.697113 
L 91.904318 247.653098 
L 92.221364 247.876732 
L 92.538409 240.652297 
L 92.855455 236.141048 
L 93.1725 240.259962 
L 93.489545 234.641629 
L 93.806591 237.279236 
L 94.123636 238.381237 
L 94.440682 237.771192 
L 94.757727 242.732736 
L 95.074773 241.196085 
L 95.391818 244.124736 
L 95.708864 241.551318 
L 96.025909 241.997531 
L 96.342955 241.030119 
L 96.66 238.541031 
L 96.977045 234.184641 
L 97.294091 233.5635 
L 98.245227 243.032186 
L 98.562273 249.671947 
L 98.879318 249.427072 
L 99.513409 234.230469 
L 99.830455 235.061729 
L 100.1475 233.580906 
L 100.464545 237.450237 
L 100.781591 238.669985 
L 101.415682 246.012537 
L 101.732727 246.914019 
L 102.049773 247.434229 
L 102.366818 244.041781 
L 102.683864 245.791568 
L 103.000909 255.07762 
L 103.317955 258.749424 
L 103.635 265.228549 
L 103.952045 262.413763 
L 104.269091 258.102965 
L 104.586136 258.501916 
L 105.220227 262.761036 
L 105.537273 250.146973 
L 105.854318 249.348214 
L 106.488409 252.251425 
L 106.805455 258.455102 
L 107.1225 260.919022 
L 107.439545 262.422573 
L 107.756591 264.708801 
L 108.073636 262.026659 
L 108.390682 260.727795 
L 108.707727 258.635387 
L 109.024773 254.947818 
L 109.341818 256.460253 
L 110.292955 264.146763 
L 110.61 263.488995 
L 111.244091 251.585225 
L 111.561136 252.919857 
L 112.195227 261.863836 
L 112.829318 256.419299 
L 113.146364 255.242212 
L 113.463409 255.583672 
L 113.780455 249.814815 
L 114.414545 254.730512 
L 114.731591 254.255322 
L 115.048636 255.657122 
L 115.365682 253.693878 
L 115.682727 250.434111 
L 115.999773 250.046813 
L 116.316818 248.041968 
L 116.633864 249.118517 
L 116.950909 251.974395 
L 117.267955 249.286707 
L 117.585 257.373812 
L 117.902045 255.832089 
L 118.219091 250.890806 
L 118.536136 263.753742 
L 118.853182 265.510642 
L 119.170227 259.588924 
L 119.487273 250.693185 
L 119.804318 247.417095 
L 120.121364 252.251073 
L 120.438409 252.233388 
L 120.755455 253.880968 
L 121.0725 258.163828 
L 121.389545 252.185448 
L 121.706591 251.322298 
L 122.023636 250.045838 
L 122.340682 249.95135 
L 122.657727 246.7417 
L 122.974773 240.319987 
L 123.291818 241.608272 
L 123.925909 251.308722 
L 124.242955 244.309114 
L 124.56 244.048476 
L 124.877045 242.647276 
L 125.511136 246.27026 
L 125.828182 247.177876 
L 126.145227 247.585977 
L 126.462273 248.852835 
L 126.779318 249.077587 
L 127.096364 253.485649 
L 127.413409 252.844861 
L 127.730455 253.914972 
L 128.0475 249.104553 
L 128.364545 250.365935 
L 128.681591 254.122537 
L 128.998636 252.440528 
L 129.315682 251.494223 
L 129.632727 244.565547 
L 129.949773 247.222961 
L 130.266818 246.597247 
L 130.583864 247.717911 
L 130.900909 243.336415 
L 131.535 245.84562 
L 131.852045 253.626523 
L 132.486136 234.660555 
L 132.803182 232.372067 
L 133.120227 237.638889 
L 133.437273 244.952926 
L 133.754318 241.852494 
L 134.388409 232.596667 
L 134.705455 233.677978 
L 135.0225 233.588531 
L 135.339545 237.99462 
L 135.656591 235.508025 
L 135.973636 238.667088 
L 136.290682 243.573398 
L 136.607727 246.174082 
L 136.924773 239.565436 
L 137.241818 241.058076 
L 137.558864 246.184865 
L 137.875909 242.885613 
L 138.192955 241.185348 
L 138.51 238.007024 
L 138.827045 239.225127 
L 139.144091 244.205981 
L 139.461136 246.636033 
L 139.778182 244.266177 
L 140.095227 237.972073 
L 140.412273 234.840916 
L 140.729318 234.865238 
L 141.046364 228.493085 
L 141.363409 225.848229 
L 141.680455 225.145261 
L 141.9975 230.503682 
L 142.314545 232.952134 
L 142.631591 231.836833 
L 142.948636 234.182957 
L 143.265682 230.05117 
L 143.582727 233.462069 
L 143.899773 234.646809 
L 144.216818 232.713443 
L 144.533864 229.731128 
L 144.850909 227.925366 
L 145.167955 235.604142 
L 145.485 231.9678 
L 145.802045 220.311097 
L 146.119091 223.583129 
L 146.436136 223.308375 
L 146.753182 225.762422 
L 147.070227 219.361596 
L 147.387273 215.308873 
L 148.021364 238.193104 
L 148.338409 236.246794 
L 148.9725 224.163707 
L 149.289545 222.299753 
L 149.606591 228.366185 
L 149.923636 225.828326 
L 150.240682 221.50745 
L 150.557727 220.894871 
L 150.874773 228.623157 
L 151.191818 229.820931 
L 151.508864 227.929629 
L 151.825909 223.403005 
L 152.142955 226.01667 
L 152.46 233.111625 
L 152.777045 229.214547 
L 153.094091 232.104161 
L 153.411136 232.379395 
L 153.728182 238.884209 
L 154.045227 236.269184 
L 154.362273 241.582404 
L 154.996364 231.153511 
L 155.313409 231.750151 
L 155.630455 230.796885 
L 155.9475 233.903377 
L 156.264545 227.428626 
L 156.581591 225.038062 
L 156.898636 224.446194 
L 157.215682 222.433415 
L 157.532727 223.890809 
L 158.166818 230.085554 
L 158.483864 224.938337 
L 158.800909 227.305406 
L 159.117955 230.980085 
L 159.752045 223.737886 
L 160.386136 231.133106 
L 160.703182 227.756657 
L 161.020227 225.690795 
L 161.971364 235.179415 
L 162.605455 224.898147 
L 162.9225 224.851382 
L 163.239545 229.935027 
L 163.556591 230.065786 
L 163.873636 225.897701 
L 164.190682 223.655041 
L 164.507727 225.546072 
L 164.824773 223.982249 
L 165.141818 223.609144 
L 165.458864 227.504798 
L 165.775909 223.476334 
L 166.092955 224.965675 
L 166.41 222.978638 
L 166.727045 222.512317 
L 167.044091 216.730941 
L 167.361136 221.846527 
L 167.995227 217.986962 
L 168.312273 222.576822 
L 168.629318 219.714376 
L 168.946364 223.468575 
L 169.580455 243.121909 
L 169.8975 238.984066 
L 170.214545 229.245724 
L 170.531591 228.991756 
L 170.848636 230.344578 
L 171.482727 221.698271 
L 171.799773 231.52461 
L 172.433864 223.762719 
L 172.750909 216.134914 
L 173.067955 213.39437 
L 173.385 218.210635 
L 173.702045 229.425587 
L 174.336136 219.744426 
L 174.653182 224.225634 
L 174.970227 220.958613 
L 175.287273 225.077061 
L 175.604318 225.296366 
L 175.921364 218.996672 
L 176.238409 216.565377 
L 176.555455 226.602991 
L 176.8725 232.990783 
L 177.189545 225.659025 
L 177.506591 214.583932 
L 177.823636 207.832333 
L 178.774773 220.716245 
L 179.408864 216.295409 
L 179.725909 216.889905 
L 180.042955 211.232099 
L 180.36 210.389335 
L 180.994091 215.490405 
L 181.311136 212.889259 
L 181.628182 213.379829 
L 182.262273 217.096369 
L 182.579318 216.674929 
L 183.213409 222.112951 
L 183.530455 217.32133 
L 183.8475 221.006293 
L 184.164545 227.176766 
L 184.481591 228.40271 
L 184.798636 227.650398 
L 185.115682 225.50768 
L 185.432727 226.508858 
L 185.749773 221.159336 
L 186.383864 232.214026 
L 187.017955 214.309864 
L 187.335 213.066828 
L 187.652045 218.209896 
L 187.969091 216.46651 
L 188.286136 216.088621 
L 188.603182 215.019978 
L 188.920227 213.353385 
L 189.237273 208.125822 
L 189.554318 208.441923 
L 189.871364 209.903862 
L 190.188409 218.334486 
L 190.505455 221.812506 
L 190.8225 213.517623 
L 191.139545 210.572618 
L 191.456591 211.188046 
L 191.773636 213.053793 
L 192.407727 220.211468 
L 192.724773 220.755819 
L 193.041818 220.093263 
L 193.358864 215.393115 
L 193.675909 217.984577 
L 193.992955 211.322949 
L 194.31 212.422583 
L 194.944091 218.179225 
L 195.261136 224.313222 
L 195.578182 224.039999 
L 195.895227 223.935847 
L 196.212273 230.62435 
L 196.529318 223.481372 
L 196.846364 223.519343 
L 197.480455 206.15402 
L 197.7975 214.727034 
L 198.114545 211.54285 
L 198.431591 216.272876 
L 198.748636 209.945081 
L 199.065682 207.763013 
L 199.382727 212.143997 
L 199.699773 212.375815 
L 200.016818 215.113587 
L 200.333864 213.059217 
L 200.650909 211.964047 
L 200.967955 209.00565 
L 201.285 210.709879 
L 201.919091 228.200468 
L 202.236136 227.573822 
L 202.553182 215.407828 
L 202.870227 210.974082 
L 203.187273 212.364198 
L 203.504318 220.269306 
L 203.821364 218.80198 
L 204.138409 218.467676 
L 204.455455 209.078235 
L 204.7725 214.009154 
L 205.089545 212.895235 
L 205.406591 213.647594 
L 206.040682 210.199391 
L 206.357727 204.240752 
L 206.674773 202.996807 
L 206.991818 199.479719 
L 207.308864 198.744552 
L 207.625909 198.74959 
L 208.26 207.76048 
L 208.577045 206.824573 
L 208.894091 207.107007 
L 209.528182 215.094537 
L 209.845227 218.748937 
L 210.162273 219.182772 
L 210.479318 219.399688 
L 210.796364 210.732789 
L 211.113409 208.792474 
L 211.430455 204.55279 
L 212.064545 215.894248 
L 212.381591 217.753211 
L 212.698636 212.661865 
L 213.015682 211.831221 
L 213.332727 209.18054 
L 213.649773 204.993052 
L 213.966818 206.358775 
L 214.283864 212.590987 
L 214.600909 210.676509 
L 214.917955 205.757239 
L 215.235 211.019814 
L 215.552045 213.762046 
L 215.869091 203.044971 
L 216.186136 201.243025 
L 216.503182 197.979778 
L 216.820227 196.272482 
L 217.137273 198.655545 
L 217.454318 203.931711 
L 217.771364 203.502821 
L 218.088409 206.108673 
L 218.405455 205.732426 
L 218.7225 205.790854 
L 219.039545 208.365991 
L 219.356591 218.431987 
L 219.673636 218.88371 
L 219.990682 214.983571 
L 220.307727 215.091009 
L 220.624773 214.343082 
L 220.941818 211.350026 
L 221.258864 213.316243 
L 221.575909 212.448322 
L 221.892955 221.675348 
L 222.21 218.953383 
L 222.527045 207.044907 
L 222.844091 202.823901 
L 223.161136 205.040692 
L 223.478182 204.192931 
L 223.795227 204.89496 
L 224.112273 205.130868 
L 224.429318 205.971137 
L 224.746364 204.728695 
L 225.063409 202.19201 
L 225.380455 196.253589 
L 226.331591 213.499931 
L 226.648636 207.483057 
L 226.965682 207.09728 
L 227.282727 203.916646 
L 227.599773 207.499711 
L 227.916818 209.441273 
L 228.233864 212.662877 
L 228.550909 207.977651 
L 228.867955 205.370023 
L 229.185 201.664299 
L 229.502045 191.738089 
L 229.819091 193.667918 
L 230.453182 210.001675 
L 230.770227 209.552327 
L 231.087273 211.047365 
L 231.404318 215.41156 
L 231.721364 217.637079 
L 232.038409 212.321063 
L 232.355455 218.842761 
L 232.6725 215.80126 
L 232.989545 217.008046 
L 233.306591 219.013456 
L 233.623636 215.075406 
L 233.940682 219.935927 
L 234.574773 211.409926 
L 234.891818 210.718239 
L 235.525909 202.324402 
L 235.842955 204.997412 
L 236.16 201.255136 
L 236.794091 205.303772 
L 237.111136 207.83752 
L 237.428182 202.661719 
L 237.745227 205.908498 
L 238.062273 197.316843 
L 238.379318 205.97648 
L 238.696364 207.319811 
L 239.330455 202.54749 
L 239.6475 201.506914 
L 240.281591 204.089223 
L 240.598636 203.032463 
L 240.915682 207.780715 
L 241.232727 210.320782 
L 241.549773 216.96801 
L 241.866818 211.06113 
L 242.183864 211.568473 
L 242.500909 202.544784 
L 242.817955 204.569495 
L 243.135 204.676482 
L 243.452045 197.238672 
L 243.769091 193.317671 
L 244.403182 206.083337 
L 244.720227 207.49971 
L 245.037273 202.308499 
L 245.354318 208.226114 
L 245.671364 206.789039 
L 245.988409 211.389665 
L 246.305455 206.095921 
L 246.939545 204.950585 
L 247.256591 205.447742 
L 247.573636 206.409283 
L 248.524773 214.890784 
L 248.841818 213.319378 
L 249.158864 217.40682 
L 249.475909 212.600269 
L 249.792955 211.187803 
L 250.11 211.337021 
L 250.427045 209.839366 
L 250.744091 206.829031 
L 251.061136 199.333307 
L 251.378182 203.714964 
L 251.695227 206.266302 
L 252.012273 204.540793 
L 252.329318 200.159294 
L 252.646364 200.132805 
L 253.280455 207.462934 
L 253.5975 208.244288 
L 253.914545 220.42603 
L 254.231591 214.451891 
L 254.548636 219.819107 
L 254.865682 213.139928 
L 255.182727 213.888905 
L 256.133864 210.148083 
L 256.450909 200.510255 
L 257.402045 212.606452 
L 257.719091 203.814803 
L 258.036136 198.972722 
L 258.353182 204.322935 
L 258.670227 212.506646 
L 258.987273 211.980935 
L 259.304318 208.646841 
L 259.621364 200.217341 
L 259.938409 204.410344 
L 260.255455 210.367547 
L 260.5725 222.125191 
L 260.889545 221.532492 
L 261.206591 222.391939 
L 261.523636 216.19827 
L 261.840682 216.292063 
L 262.157727 222.073226 
L 262.474773 216.522151 
L 262.791818 206.895164 
L 263.425909 218.656687 
L 263.742955 217.692983 
L 264.06 216.345226 
L 264.377045 210.566756 
L 264.694091 208.808593 
L 265.011136 216.557736 
L 265.328182 210.720682 
L 265.962273 212.166252 
L 266.279318 216.124932 
L 266.596364 211.240029 
L 266.913409 213.022969 
L 267.230455 215.832066 
L 267.5475 215.920567 
L 267.864545 205.611072 
L 268.181591 207.122128 
L 268.498636 206.05 
L 268.815682 201.617767 
L 269.132727 207.019837 
L 269.449773 207.076071 
L 269.766818 216.381817 
L 270.083864 218.494925 
L 270.717955 212.04134 
L 271.035 211.002256 
L 271.352045 211.870347 
L 271.669091 206.550511 
L 271.986136 209.209942 
L 272.303182 215.47142 
L 272.620227 210.150054 
L 273.254318 214.64484 
L 273.571364 213.553062 
L 273.888409 213.962194 
L 274.205455 218.572693 
L 274.5225 212.904964 
L 274.839545 212.024695 
L 275.156591 211.802058 
L 275.473636 207.079454 
L 275.790682 206.586884 
L 276.107727 200.84818 
L 276.424773 201.527064 
L 276.741818 211.13025 
L 277.058864 209.576592 
L 277.375909 216.960035 
L 277.692955 216.041047 
L 278.01 215.898781 
L 278.327045 209.810065 
L 278.644091 214.107293 
L 278.961136 224.014045 
L 279.595227 206.789056 
L 279.912273 206.23204 
L 280.229318 215.874363 
L 280.546364 214.712964 
L 280.863409 207.046857 
L 281.4975 202.303412 
L 282.131591 207.919733 
L 282.448636 203.693283 
L 283.082727 202.58789 
L 283.399773 212.899235 
L 283.716818 216.266366 
L 284.350909 203.694346 
L 284.667955 203.8273 
L 284.985 212.646712 
L 285.619091 199.433004 
L 285.936136 202.562702 
L 286.253182 211.405985 
L 286.570227 207.249614 
L 286.887273 206.319566 
L 287.204318 205.911321 
L 287.521364 207.174389 
L 287.838409 207.796013 
L 288.155455 210.071719 
L 288.4725 214.827423 
L 289.106591 209.595884 
L 289.740682 208.420281 
L 290.374773 204.066752 
L 290.691818 202.264983 
L 291.008864 195.125797 
L 291.325909 199.93309 
L 291.642955 200.990148 
L 291.96 212.507089 
L 292.594091 215.117289 
L 292.911136 226.480113 
L 293.228182 230.694399 
L 293.545227 223.328968 
L 293.862273 219.033057 
L 294.179318 225.975054 
L 294.813409 218.222078 
L 295.130455 212.398998 
L 295.4475 218.978699 
L 295.764545 217.628693 
L 296.081591 207.295721 
L 296.398636 203.485992 
L 297.032727 218.080679 
L 297.349773 225.700963 
L 297.666818 221.322152 
L 297.983864 219.612983 
L 298.300909 218.9147 
L 298.935 226.722646 
L 299.252045 227.257834 
L 299.569091 223.035267 
L 299.886136 225.23675 
L 300.203182 224.060947 
L 300.520227 225.556279 
L 300.837273 223.306932 
L 301.154318 222.044513 
L 301.471364 217.507563 
L 301.788409 219.778797 
L 302.105455 219.459897 
L 302.739545 218.254382 
L 303.056591 222.37548 
L 303.373636 215.722839 
L 303.690682 214.170562 
L 304.007727 218.564773 
L 304.324773 225.219522 
L 304.641818 227.757624 
L 304.958864 214.751822 
L 305.275909 216.831495 
L 305.592955 220.76026 
L 305.91 226.611345 
L 306.227045 226.073125 
L 306.861136 220.112558 
L 307.178182 219.330532 
L 307.495227 215.237221 
L 307.812273 206.851238 
L 308.129318 201.838437 
L 308.763409 218.833129 
L 309.3975 216.023323 
L 309.714545 218.350533 
L 310.031591 218.179576 
L 310.348636 213.656146 
L 310.665682 215.956628 
L 310.982727 226.5517 
L 311.299773 230.568098 
L 311.616818 225.236722 
L 311.933864 214.496077 
L 312.250909 216.438002 
L 312.567955 221.824582 
L 312.885 221.293246 
L 313.519091 215.068414 
L 313.836136 218.118481 
L 314.153182 213.792653 
L 314.470227 214.74833 
L 314.787273 218.054959 
L 315.738409 208.314384 
L 316.3725 222.819323 
L 316.689545 227.405782 
L 317.006591 223.039505 
L 317.323636 215.772175 
L 317.957727 223.422886 
L 318.274773 225.62341 
L 318.591818 222.441379 
L 318.908864 210.682536 
L 319.225909 214.241894 
L 319.542955 204.438745 
L 319.86 215.625012 
L 320.177045 219.882103 
L 320.494091 222.367642 
L 320.811136 217.12608 
L 321.128182 224.704558 
L 321.762273 229.590513 
L 322.079318 221.137541 
L 322.713409 213.126998 
L 323.030455 207.343429 
L 323.3475 207.584226 
L 323.981591 220.287721 
L 324.298636 220.940097 
L 325.249773 234.811748 
L 325.566818 225.9702 
L 325.883864 226.979279 
L 326.200909 222.181411 
L 326.517955 225.699647 
L 326.835 227.667689 
L 327.469091 219.246565 
L 327.786136 219.195494 
L 328.103182 213.961919 
L 328.420227 211.550621 
L 328.737273 217.256937 
L 329.054318 218.239852 
L 329.371364 224.920883 
L 329.688409 225.037391 
L 330.005455 223.230247 
L 330.956591 220.159517 
L 331.273636 220.024017 
L 331.590682 221.553388 
L 331.907727 220.684277 
L 332.224773 216.210588 
L 332.541818 215.023497 
L 332.858864 214.280282 
L 333.175909 211.75462 
L 333.492955 217.233692 
L 333.81 216.366026 
L 334.127045 209.728655 
L 334.444091 212.522147 
L 334.761136 218.300457 
L 335.078182 210.961929 
L 335.395227 213.968383 
L 335.712273 213.496953 
L 336.346364 223.905349 
L 336.663409 222.76237 
L 336.980455 216.239906 
L 337.2975 216.373515 
L 337.614545 224.678777 
L 337.931591 221.727752 
L 338.248636 223.659864 
L 338.565682 219.894313 
L 338.882727 221.161025 
L 339.199773 224.16974 
L 339.516818 221.975024 
L 339.833864 216.476206 
L 340.150909 223.340636 
L 340.467955 223.202558 
L 340.785 221.116082 
L 341.102045 221.312869 
L 341.419091 221.942308 
L 341.736136 226.39474 
L 342.053182 227.077356 
L 342.370227 223.810504 
L 342.687273 218.638671 
L 343.004318 220.836581 
L 343.321364 224.98758 
L 343.638409 231.276589 
L 343.955455 225.44205 
L 344.2725 215.463165 
L 344.589545 210.549941 
L 344.906591 212.359489 
L 345.857727 228.207459 
L 346.174773 223.633894 
L 346.491818 228.962356 
L 346.808864 229.054612 
L 347.442955 223.892122 
L 347.76 217.709308 
L 348.077045 225.971539 
L 348.394091 231.09894 
L 348.711136 226.171653 
L 349.028182 216.080916 
L 349.345227 218.849248 
L 349.662273 218.265741 
L 349.979318 218.508049 
L 350.296364 214.361581 
L 350.613409 217.734317 
L 350.930455 223.939958 
L 351.564545 215.597322 
L 351.881591 216.52775 
L 352.198636 219.448798 
L 352.515682 216.246889 
L 352.832727 217.860392 
L 353.149773 234.747766 
L 353.466818 235.498683 
L 354.100909 224.723224 
L 354.417955 229.941276 
L 354.735 228.70973 
L 355.369091 232.321997 
L 355.686136 224.745295 
L 356.003182 220.153293 
L 356.320227 225.929313 
L 356.637273 229.47364 
L 356.954318 225.83143 
L 357.271364 218.556874 
L 357.588409 230.583196 
L 357.905455 223.414886 
L 358.2225 220.022452 
L 358.539545 226.906483 
L 358.856591 231.300021 
L 359.173636 233.614597 
L 359.490682 239.174747 
L 359.807727 247.108227 
L 360.124773 232.137889 
L 360.441818 223.68708 
L 360.758864 224.633518 
L 361.075909 229.075747 
L 361.71 225.561416 
L 362.027045 226.146621 
L 362.344091 233.93129 
L 362.661136 234.857889 
L 362.978182 225.73258 
L 363.295227 227.623138 
L 363.612273 234.150603 
L 363.929318 235.633425 
L 364.563409 234.315203 
L 364.880455 229.587075 
L 365.1975 235.168105 
L 365.514545 235.972605 
L 366.148636 240.530092 
L 366.465682 236.369059 
L 366.782727 237.612684 
L 367.099773 232.04951 
L 367.416818 228.878396 
L 368.367955 249.426065 
L 369.002045 230.533508 
L 369.319091 230.487467 
L 369.636136 232.476232 
L 369.953182 230.20154 
L 370.270227 232.622895 
L 370.587273 231.860848 
L 370.904318 231.598438 
L 371.221364 230.404364 
L 371.538409 237.60623 
L 371.855455 236.245254 
L 372.1725 236.874862 
L 372.489545 236.530895 
L 373.123636 234.098141 
L 373.440682 233.857205 
L 373.757727 226.412876 
L 374.074773 222.497275 
L 374.391818 227.058435 
L 374.708864 228.822785 
L 375.025909 228.224808 
L 375.342955 225.484573 
L 375.66 224.74483 
L 375.977045 227.897542 
L 376.294091 237.87307 
L 376.611136 234.104279 
L 376.928182 240.881342 
L 377.245227 240.809747 
L 377.562273 245.24998 
L 377.879318 243.748082 
L 378.196364 238.172717 
L 378.513409 241.981882 
L 378.830455 241.422969 
L 379.1475 243.164269 
L 379.464545 242.755847 
L 379.781591 240.697078 
L 380.098636 242.729649 
L 380.415682 238.36449 
L 380.732727 236.929406 
L 381.049773 234.511804 
L 381.366818 240.267932 
L 381.683864 243.078 
L 382.000909 248.629644 
L 382.317955 243.952563 
L 382.635 243.559933 
L 382.952045 242.479643 
L 383.269091 246.595189 
L 383.586136 252.271758 
L 383.903182 245.603076 
L 384.220227 243.230258 
L 384.537273 238.549273 
L 384.854318 238.752443 
L 385.171364 242.215565 
L 385.805455 240.98828 
L 386.1225 248.829538 
L 386.439545 252.315608 
L 387.390682 257.810296 
L 387.707727 256.394772 
L 388.024773 253.627315 
L 388.341818 259.330206 
L 388.658864 260.775786 
L 388.975909 253.699008 
L 389.292955 249.712801 
L 389.61 254.694514 
L 389.927045 256.155099 
L 390.244091 254.337112 
L 390.561136 249.555129 
L 390.878182 250.411846 
L 391.195227 250.907937 
L 391.512273 249.810135 
L 391.829318 251.619877 
L 392.146364 250.330787 
L 392.463409 246.216307 
L 393.414545 263.241598 
L 393.731591 264.661203 
L 394.365682 260.183271 
L 394.682727 254.99009 
L 394.999773 253.721989 
L 395.316818 246.292296 
L 395.633864 249.052741 
L 395.950909 250.595135 
L 396.267955 262.852827 
L 396.585 261.639054 
L 396.902045 269.415008 
L 397.219091 264.990156 
L 397.536136 263.880765 
L 398.170227 252.058902 
L 398.487273 271.342486 
L 398.487273 271.342486 
" clip-path="url(#pc4d350dea6)" style="fill: none; stroke: #1f77b4; stroke-width: 1.5; stroke-linecap: square"/>
   </g>
   <g id="patch_3">
    <path d="M 57.6 307.584 
L 57.6 41.472 
" style="fill: none; stroke: #000000; stroke-width: 0.8; stroke-linejoin: miter; stroke-linecap: square"/>
   </g>
   <g id="patch_4">
    <path d="M 414.72 307.584 
L 414.72 41.472 
" style="fill: none; stroke: #000000; stroke-width: 0.8; stroke-linejoin: miter; stroke-linecap: square"/>
   </g>
   <g id="patch_5">
    <path d="M 57.6 307.584 
L 414.72 307.584 
" style="fill: none; stroke: #000000; stroke-width: 0.8; stroke-linejoin: miter; stroke-linecap: square"/>
   </g>
   <g id="patch_6">
    <path d="M 57.6 41.472 
L 414.72 41.472 
" style="fill: none; stroke: #000000; stroke-width: 0.8; stroke-linejoin: miter; stroke-linecap: square"/>
   </g>
   <g id="text_17">
    <!-- Power Spektrum des EEG Signals von Kanal CZ-C4 -->
    <g transform="translate(84.965625 35.472) scale(0.12 -0.12)">
     <defs>
      <path id="DejaVuSans-50" d="M 1259 4147 
L 1259 2394 
L 2053 2394 
Q 2494 2394 2734 2622 
Q 2975 2850 2975 3272 
Q 2975 3691 2734 3919 
Q 2494 4147 2053 4147 
L 1259 4147 
z
M 628 4666 
L 2053 4666 
Q 2838 4666 3239 4311 
Q 3641 3956 3641 3272 
Q 3641 2581 3239 2228 
Q 2838 1875 2053 1875 
L 1259 1875 
L 1259 0 
L 628 0 
L 628 4666 
z
" transform="scale(0.015625)"/>
      <path id="DejaVuSans-6f" d="M 1959 3097 
Q 1497 3097 1228 2736 
Q 959 2375 959 1747 
Q 959 1119 1226 758 
Q 1494 397 1959 397 
Q 2419 397 2687 759 
Q 2956 1122 2956 1747 
Q 2956 2369 2687 2733 
Q 2419 3097 1959 3097 
z
M 1959 3584 
Q 2709 3584 3137 3096 
Q 3566 2609 3566 1747 
Q 3566 888 3137 398 
Q 2709 -91 1959 -91 
Q 1206 -91 779 398 
Q 353 888 353 1747 
Q 353 2609 779 3096 
Q 1206 3584 1959 3584 
z
" transform="scale(0.015625)"/>
      <path id="DejaVuSans-77" d="M 269 3500 
L 844 3500 
L 1563 769 
L 2278 3500 
L 2956 3500 
L 3675 769 
L 4391 3500 
L 4966 3500 
L 4050 0 
L 3372 0 
L 2619 2869 
L 1863 0 
L 1184 0 
L 269 3500 
z
" transform="scale(0.015625)"/>
      <path id="DejaVuSans-53" d="M 3425 4513 
L 3425 3897 
Q 3066 4069 2747 4153 
Q 2428 4238 2131 4238 
Q 1616 4238 1336 4038 
Q 1056 3838 1056 3469 
Q 1056 3159 1242 3001 
Q 1428 2844 1947 2747 
L 2328 2669 
Q 3034 2534 3370 2195 
Q 3706 1856 3706 1288 
Q 3706 609 3251 259 
Q 2797 -91 1919 -91 
Q 1588 -91 1214 -16 
Q 841 59 441 206 
L 441 856 
Q 825 641 1194 531 
Q 1563 422 1919 422 
Q 2459 422 2753 634 
Q 3047 847 3047 1241 
Q 3047 1584 2836 1778 
Q 2625 1972 2144 2069 
L 1759 2144 
Q 1053 2284 737 2584 
Q 422 2884 422 3419 
Q 422 4038 858 4394 
Q 1294 4750 2059 4750 
Q 2388 4750 2728 4690 
Q 3069 4631 3425 4513 
z
" transform="scale(0.015625)"/>
      <path id="DejaVuSans-70" d="M 1159 525 
L 1159 -1331 
L 581 -1331 
L 581 3500 
L 1159 3500 
L 1159 2969 
Q 1341 3281 1617 3432 
Q 1894 3584 2278 3584 
Q 2916 3584 3314 3078 
Q 3713 2572 3713 1747 
Q 3713 922 3314 415 
Q 2916 -91 2278 -91 
Q 1894 -91 1617 61 
Q 1341 213 1159 525 
z
M 3116 1747 
Q 3116 2381 2855 2742 
Q 2594 3103 2138 3103 
Q 1681 3103 1420 2742 
Q 1159 2381 1159 1747 
Q 1159 1113 1420 752 
Q 1681 391 2138 391 
Q 2594 391 2855 752 
Q 3116 1113 3116 1747 
z
" transform="scale(0.015625)"/>
      <path id="DejaVuSans-6b" d="M 581 4863 
L 1159 4863 
L 1159 1991 
L 2875 3500 
L 3609 3500 
L 1753 1863 
L 3688 0 
L 2938 0 
L 1159 1709 
L 1159 0 
L 581 0 
L 581 4863 
z
" transform="scale(0.015625)"/>
      <path id="DejaVuSans-6d" d="M 3328 2828 
Q 3544 3216 3844 3400 
Q 4144 3584 4550 3584 
Q 5097 3584 5394 3201 
Q 5691 2819 5691 2113 
L 5691 0 
L 5113 0 
L 5113 2094 
Q 5113 2597 4934 2840 
Q 4756 3084 4391 3084 
Q 3944 3084 3684 2787 
Q 3425 2491 3425 1978 
L 3425 0 
L 2847 0 
L 2847 2094 
Q 2847 2600 2669 2842 
Q 2491 3084 2119 3084 
Q 1678 3084 1418 2786 
Q 1159 2488 1159 1978 
L 1159 0 
L 581 0 
L 581 3500 
L 1159 3500 
L 1159 2956 
Q 1356 3278 1631 3431 
Q 1906 3584 2284 3584 
Q 2666 3584 2933 3390 
Q 3200 3197 3328 2828 
z
" transform="scale(0.015625)"/>
      <path id="DejaVuSans-64" d="M 2906 2969 
L 2906 4863 
L 3481 4863 
L 3481 0 
L 2906 0 
L 2906 525 
Q 2725 213 2448 61 
Q 2172 -91 1784 -91 
Q 1150 -91 751 415 
Q 353 922 353 1747 
Q 353 2572 751 3078 
Q 1150 3584 1784 3584 
Q 2172 3584 2448 3432 
Q 2725 3281 2906 2969 
z
M 947 1747 
Q 947 1113 1208 752 
Q 1469 391 1925 391 
Q 2381 391 2643 752 
Q 2906 1113 2906 1747 
Q 2906 2381 2643 2742 
Q 2381 3103 1925 3103 
Q 1469 3103 1208 2742 
Q 947 2381 947 1747 
z
" transform="scale(0.015625)"/>
      <path id="DejaVuSans-45" d="M 628 4666 
L 3578 4666 
L 3578 4134 
L 1259 4134 
L 1259 2753 
L 3481 2753 
L 3481 2222 
L 1259 2222 
L 1259 531 
L 3634 531 
L 3634 0 
L 628 0 
L 628 4666 
z
" transform="scale(0.015625)"/>
      <path id="DejaVuSans-47" d="M 3809 666 
L 3809 1919 
L 2778 1919 
L 2778 2438 
L 4434 2438 
L 4434 434 
Q 4069 175 3628 42 
Q 3188 -91 2688 -91 
Q 1594 -91 976 548 
Q 359 1188 359 2328 
Q 359 3472 976 4111 
Q 1594 4750 2688 4750 
Q 3144 4750 3555 4637 
Q 3966 4525 4313 4306 
L 4313 3634 
Q 3963 3931 3569 4081 
Q 3175 4231 2741 4231 
Q 1884 4231 1454 3753 
Q 1025 3275 1025 2328 
Q 1025 1384 1454 906 
Q 1884 428 2741 428 
Q 3075 428 3337 486 
Q 3600 544 3809 666 
z
" transform="scale(0.015625)"/>
      <path id="DejaVuSans-61" d="M 2194 1759 
Q 1497 1759 1228 1600 
Q 959 1441 959 1056 
Q 959 750 1161 570 
Q 1363 391 1709 391 
Q 2188 391 2477 730 
Q 2766 1069 2766 1631 
L 2766 1759 
L 2194 1759 
z
M 3341 1997 
L 3341 0 
L 2766 0 
L 2766 531 
Q 2569 213 2275 61 
Q 1981 -91 1556 -91 
Q 1019 -91 701 211 
Q 384 513 384 1019 
Q 384 1609 779 1909 
Q 1175 2209 1959 2209 
L 2766 2209 
L 2766 2266 
Q 2766 2663 2505 2880 
Q 2244 3097 1772 3097 
Q 1472 3097 1187 3025 
Q 903 2953 641 2809 
L 641 3341 
Q 956 3463 1253 3523 
Q 1550 3584 1831 3584 
Q 2591 3584 2966 3190 
Q 3341 2797 3341 1997 
z
" transform="scale(0.015625)"/>
      <path id="DejaVuSans-6c" d="M 603 4863 
L 1178 4863 
L 1178 0 
L 603 0 
L 603 4863 
z
" transform="scale(0.015625)"/>
      <path id="DejaVuSans-76" d="M 191 3500 
L 800 3500 
L 1894 563 
L 2988 3500 
L 3597 3500 
L 2284 0 
L 1503 0 
L 191 3500 
z
" transform="scale(0.015625)"/>
      <path id="DejaVuSans-4b" d="M 628 4666 
L 1259 4666 
L 1259 2694 
L 3353 4666 
L 4166 4666 
L 1850 2491 
L 4331 0 
L 3500 0 
L 1259 2247 
L 1259 0 
L 628 0 
L 628 4666 
z
" transform="scale(0.015625)"/>
      <path id="DejaVuSans-43" d="M 4122 4306 
L 4122 3641 
Q 3803 3938 3442 4084 
Q 3081 4231 2675 4231 
Q 1875 4231 1450 3742 
Q 1025 3253 1025 2328 
Q 1025 1406 1450 917 
Q 1875 428 2675 428 
Q 3081 428 3442 575 
Q 3803 722 4122 1019 
L 4122 359 
Q 3791 134 3420 21 
Q 3050 -91 2638 -91 
Q 1578 -91 968 557 
Q 359 1206 359 2328 
Q 359 3453 968 4101 
Q 1578 4750 2638 4750 
Q 3056 4750 3426 4639 
Q 3797 4528 4122 4306 
z
" transform="scale(0.015625)"/>
      <path id="DejaVuSans-5a" d="M 359 4666 
L 4025 4666 
L 4025 4184 
L 1075 531 
L 4097 531 
L 4097 0 
L 288 0 
L 288 481 
L 3238 4134 
L 359 4134 
L 359 4666 
z
" transform="scale(0.015625)"/>
      <path id="DejaVuSans-2d" d="M 313 2009 
L 1997 2009 
L 1997 1497 
L 313 1497 
L 313 2009 
z
" transform="scale(0.015625)"/>
      <path id="DejaVuSans-34" d="M 2419 4116 
L 825 1625 
L 2419 1625 
L 2419 4116 
z
M 2253 4666 
L 3047 4666 
L 3047 1625 
L 3713 1625 
L 3713 1100 
L 3047 1100 
L 3047 0 
L 2419 0 
L 2419 1100 
L 313 1100 
L 313 1709 
L 2253 4666 
z
" transform="scale(0.015625)"/>
     </defs>
     <use xlink:href="#DejaVuSans-50"/>
     <use xlink:href="#DejaVuSans-6f" transform="translate(56.677734 0)"/>
     <use xlink:href="#DejaVuSans-77" transform="translate(117.859375 0)"/>
     <use xlink:href="#DejaVuSans-65" transform="translate(199.646484 0)"/>
     <use xlink:href="#DejaVuSans-72" transform="translate(261.169922 0)"/>
     <use xlink:href="#DejaVuSans-20" transform="translate(302.283203 0)"/>
     <use xlink:href="#DejaVuSans-53" transform="translate(334.070312 0)"/>
     <use xlink:href="#DejaVuSans-70" transform="translate(397.546875 0)"/>
     <use xlink:href="#DejaVuSans-65" transform="translate(461.023438 0)"/>
     <use xlink:href="#DejaVuSans-6b" transform="translate(522.546875 0)"/>
     <use xlink:href="#DejaVuSans-74" transform="translate(580.457031 0)"/>
     <use xlink:href="#DejaVuSans-72" transform="translate(619.666016 0)"/>
     <use xlink:href="#DejaVuSans-75" transform="translate(660.779297 0)"/>
     <use xlink:href="#DejaVuSans-6d" transform="translate(724.158203 0)"/>
     <use xlink:href="#DejaVuSans-20" transform="translate(821.570312 0)"/>
     <use xlink:href="#DejaVuSans-64" transform="translate(853.357422 0)"/>
     <use xlink:href="#DejaVuSans-65" transform="translate(916.833984 0)"/>
     <use xlink:href="#DejaVuSans-73" transform="translate(978.357422 0)"/>
     <use xlink:href="#DejaVuSans-20" transform="translate(1030.457031 0)"/>
     <use xlink:href="#DejaVuSans-45" transform="translate(1062.244141 0)"/>
     <use xlink:href="#DejaVuSans-45" transform="translate(1125.427734 0)"/>
     <use xlink:href="#DejaVuSans-47" transform="translate(1188.611328 0)"/>
     <use xlink:href="#DejaVuSans-20" transform="translate(1266.101562 0)"/>
     <use xlink:href="#DejaVuSans-53" transform="translate(1297.888672 0)"/>
     <use xlink:href="#DejaVuSans-69" transform="translate(1361.365234 0)"/>
     <use xlink:href="#DejaVuSans-67" transform="translate(1389.148438 0)"/>
     <use xlink:href="#DejaVuSans-6e" transform="translate(1452.625 0)"/>
     <use xlink:href="#DejaVuSans-61" transform="translate(1516.003906 0)"/>
     <use xlink:href="#DejaVuSans-6c" transform="translate(1577.283203 0)"/>
     <use xlink:href="#DejaVuSans-73" transform="translate(1605.066406 0)"/>
     <use xlink:href="#DejaVuSans-20" transform="translate(1657.166016 0)"/>
     <use xlink:href="#DejaVuSans-76" transform="translate(1688.953125 0)"/>
     <use xlink:href="#DejaVuSans-6f" transform="translate(1748.132812 0)"/>
     <use xlink:href="#DejaVuSans-6e" transform="translate(1809.314453 0)"/>
     <use xlink:href="#DejaVuSans-20" transform="translate(1872.693359 0)"/>
     <use xlink:href="#DejaVuSans-4b" transform="translate(1904.480469 0)"/>
     <use xlink:href="#DejaVuSans-61" transform="translate(1968.306641 0)"/>
     <use xlink:href="#DejaVuSans-6e" transform="translate(2029.585938 0)"/>
     <use xlink:href="#DejaVuSans-61" transform="translate(2092.964844 0)"/>
     <use xlink:href="#DejaVuSans-6c" transform="translate(2154.244141 0)"/>
     <use xlink:href="#DejaVuSans-20" transform="translate(2182.027344 0)"/>
     <use xlink:href="#DejaVuSans-43" transform="translate(2213.814453 0)"/>
     <use xlink:href="#DejaVuSans-5a" transform="translate(2283.638672 0)"/>
     <use xlink:href="#DejaVuSans-2d" transform="translate(2350.394531 0)"/>
     <use xlink:href="#DejaVuSans-43" transform="translate(2386.478516 0)"/>
     <use xlink:href="#DejaVuSans-34" transform="translate(2456.302734 0)"/>
    </g>
   </g>
  </g>
 </g>
 <defs>
  <clipPath id="pc4d350dea6">
   <rect x="57.6" y="41.472" width="357.12" height="266.112"/>
  </clipPath>
 </defs>
</svg>
