<?xml version="1.0" encoding="utf-8" standalone="no"?>
<!DOCTYPE svg PUBLIC "-//W3C//DTD SVG 1.1//EN"
  "http://www.w3.org/Graphics/SVG/1.1/DTD/svg11.dtd">
<svg xmlns:xlink="http://www.w3.org/1999/xlink" width="460.8pt" height="345.6pt" viewBox="0 0 460.8 345.6" xmlns="http://www.w3.org/2000/svg" version="1.1">
 <metadata>
  <rdf:RDF xmlns:dc="http://purl.org/dc/elements/1.1/" xmlns:cc="http://creativecommons.org/ns#" xmlns:rdf="http://www.w3.org/1999/02/22-rdf-syntax-ns#">
   <cc:Work>
    <dc:type rdf:resource="http://purl.org/dc/dcmitype/StillImage"/>
    <dc:date>2025-10-31T11:53:18.361084</dc:date>
    <dc:format>image/svg+xml</dc:format>
    <dc:creator>
     <cc:Agent>
      <dc:title>Matplotlib v3.10.7, https://matplotlib.org/</dc:title>
     </cc:Agent>
    </dc:creator>
   </cc:Work>
  </rdf:RDF>
 </metadata>
 <defs>
  <style type="text/css">*{stroke-linejoin: round; stroke-linecap: butt}</style>
 </defs>
 <g id="figure_1">
  <g id="patch_1">
   <path d="M 0 345.6 
L 460.8 345.6 
L 460.8 0 
L 0 0 
z
" style="fill: #ffffff"/>
  </g>
  <g id="axes_1">
   <g id="patch_2">
    <path d="M 57.6 307.584 
L 414.72 307.584 
L 414.72 41.472 
L 57.6 41.472 
z
" style="fill: #ffffff"/>
   </g>
   <g id="matplotlib.axis_1">
    <g id="xtick_1">
     <g id="line2d_1">
      <defs>
       <path id="m3dd3f722b3" d="M 0 0 
L 0 3.5 
" style="stroke: #000000; stroke-width: 0.8"/>
      </defs>
      <g>
       <use xlink:href="#m3dd3f722b3" x="73.832727" y="307.584" style="stroke: #000000; stroke-width: 0.8"/>
      </g>
     </g>
     <g id="text_1">
      <!-- 0 -->
      <g transform="translate(70.651477 322.182437) scale(0.1 -0.1)">
       <defs>
        <path id="DejaVuSans-30" d="M 2034 4250 
Q 1547 4250 1301 3770 
Q 1056 3291 1056 2328 
Q 1056 1369 1301 889 
Q 1547 409 2034 409 
Q 2525 409 2770 889 
Q 3016 1369 3016 2328 
Q 3016 3291 2770 3770 
Q 2525 4250 2034 4250 
z
M 2034 4750 
Q 2819 4750 3233 4129 
Q 3647 3509 3647 2328 
Q 3647 1150 3233 529 
Q 2819 -91 2034 -91 
Q 1250 -91 836 529 
Q 422 1150 422 2328 
Q 422 3509 836 4129 
Q 1250 4750 2034 4750 
z
" transform="scale(0.015625)"/>
       </defs>
       <use xlink:href="#DejaVuSans-30"/>
      </g>
     </g>
    </g>
    <g id="xtick_2">
     <g id="line2d_2">
      <g>
       <use xlink:href="#m3dd3f722b3" x="114.414545" y="307.584" style="stroke: #000000; stroke-width: 0.8"/>
      </g>
     </g>
     <g id="text_2">
      <!-- 25 -->
      <g transform="translate(108.052045 322.182437) scale(0.1 -0.1)">
       <defs>
        <path id="DejaVuSans-32" d="M 1228 531 
L 3431 531 
L 3431 0 
L 469 0 
L 469 531 
Q 828 903 1448 1529 
Q 2069 2156 2228 2338 
Q 2531 2678 2651 2914 
Q 2772 3150 2772 3378 
Q 2772 3750 2511 3984 
Q 2250 4219 1831 4219 
Q 1534 4219 1204 4116 
Q 875 4013 500 3803 
L 500 4441 
Q 881 4594 1212 4672 
Q 1544 4750 1819 4750 
Q 2544 4750 2975 4387 
Q 3406 4025 3406 3419 
Q 3406 3131 3298 2873 
Q 3191 2616 2906 2266 
Q 2828 2175 2409 1742 
Q 1991 1309 1228 531 
z
" transform="scale(0.015625)"/>
        <path id="DejaVuSans-35" d="M 691 4666 
L 3169 4666 
L 3169 4134 
L 1269 4134 
L 1269 2991 
Q 1406 3038 1543 3061 
Q 1681 3084 1819 3084 
Q 2600 3084 3056 2656 
Q 3513 2228 3513 1497 
Q 3513 744 3044 326 
Q 2575 -91 1722 -91 
Q 1428 -91 1123 -41 
Q 819 9 494 109 
L 494 744 
Q 775 591 1075 516 
Q 1375 441 1709 441 
Q 2250 441 2565 725 
Q 2881 1009 2881 1497 
Q 2881 1984 2565 2268 
Q 2250 2553 1709 2553 
Q 1456 2553 1204 2497 
Q 953 2441 691 2322 
L 691 4666 
z
" transform="scale(0.015625)"/>
       </defs>
       <use xlink:href="#DejaVuSans-32"/>
       <use xlink:href="#DejaVuSans-35" transform="translate(63.623047 0)"/>
      </g>
     </g>
    </g>
    <g id="xtick_3">
     <g id="line2d_3">
      <g>
       <use xlink:href="#m3dd3f722b3" x="154.996364" y="307.584" style="stroke: #000000; stroke-width: 0.8"/>
      </g>
     </g>
     <g id="text_3">
      <!-- 50 -->
      <g transform="translate(148.633864 322.182437) scale(0.1 -0.1)">
       <use xlink:href="#DejaVuSans-35"/>
       <use xlink:href="#DejaVuSans-30" transform="translate(63.623047 0)"/>
      </g>
     </g>
    </g>
    <g id="xtick_4">
     <g id="line2d_4">
      <g>
       <use xlink:href="#m3dd3f722b3" x="195.578182" y="307.584" style="stroke: #000000; stroke-width: 0.8"/>
      </g>
     </g>
     <g id="text_4">
      <!-- 75 -->
      <g transform="translate(189.215682 322.182437) scale(0.1 -0.1)">
       <defs>
        <path id="DejaVuSans-37" d="M 525 4666 
L 3525 4666 
L 3525 4397 
L 1831 0 
L 1172 0 
L 2766 4134 
L 525 4134 
L 525 4666 
z
" transform="scale(0.015625)"/>
       </defs>
       <use xlink:href="#DejaVuSans-37"/>
       <use xlink:href="#DejaVuSans-35" transform="translate(63.623047 0)"/>
      </g>
     </g>
    </g>
    <g id="xtick_5">
     <g id="line2d_5">
      <g>
       <use xlink:href="#m3dd3f722b3" x="236.16" y="307.584" style="stroke: #000000; stroke-width: 0.8"/>
      </g>
     </g>
     <g id="text_5">
      <!-- 100 -->
      <g transform="translate(226.61625 322.182437) scale(0.1 -0.1)">
       <defs>
        <path id="DejaVuSans-31" d="M 794 531 
L 1825 531 
L 1825 4091 
L 703 3866 
L 703 4441 
L 1819 4666 
L 2450 4666 
L 2450 531 
L 3481 531 
L 3481 0 
L 794 0 
L 794 531 
z
" transform="scale(0.015625)"/>
       </defs>
       <use xlink:href="#DejaVuSans-31"/>
       <use xlink:href="#DejaVuSans-30" transform="translate(63.623047 0)"/>
       <use xlink:href="#DejaVuSans-30" transform="translate(127.246094 0)"/>
      </g>
     </g>
    </g>
    <g id="xtick_6">
     <g id="line2d_6">
      <g>
       <use xlink:href="#m3dd3f722b3" x="276.741818" y="307.584" style="stroke: #000000; stroke-width: 0.8"/>
      </g>
     </g>
     <g id="text_6">
      <!-- 125 -->
      <g transform="translate(267.198068 322.182437) scale(0.1 -0.1)">
       <use xlink:href="#DejaVuSans-31"/>
       <use xlink:href="#DejaVuSans-32" transform="translate(63.623047 0)"/>
       <use xlink:href="#DejaVuSans-35" transform="translate(127.246094 0)"/>
      </g>
     </g>
    </g>
    <g id="xtick_7">
     <g id="line2d_7">
      <g>
       <use xlink:href="#m3dd3f722b3" x="317.323636" y="307.584" style="stroke: #000000; stroke-width: 0.8"/>
      </g>
     </g>
     <g id="text_7">
      <!-- 150 -->
      <g transform="translate(307.779886 322.182437) scale(0.1 -0.1)">
       <use xlink:href="#DejaVuSans-31"/>
       <use xlink:href="#DejaVuSans-35" transform="translate(63.623047 0)"/>
       <use xlink:href="#DejaVuSans-30" transform="translate(127.246094 0)"/>
      </g>
     </g>
    </g>
    <g id="xtick_8">
     <g id="line2d_8">
      <g>
       <use xlink:href="#m3dd3f722b3" x="357.905455" y="307.584" style="stroke: #000000; stroke-width: 0.8"/>
      </g>
     </g>
     <g id="text_8">
      <!-- 175 -->
      <g transform="translate(348.361705 322.182437) scale(0.1 -0.1)">
       <use xlink:href="#DejaVuSans-31"/>
       <use xlink:href="#DejaVuSans-37" transform="translate(63.623047 0)"/>
       <use xlink:href="#DejaVuSans-35" transform="translate(127.246094 0)"/>
      </g>
     </g>
    </g>
    <g id="xtick_9">
     <g id="line2d_9">
      <g>
       <use xlink:href="#m3dd3f722b3" x="398.487273" y="307.584" style="stroke: #000000; stroke-width: 0.8"/>
      </g>
     </g>
     <g id="text_9">
      <!-- 200 -->
      <g transform="translate(388.943523 322.182437) scale(0.1 -0.1)">
       <use xlink:href="#DejaVuSans-32"/>
       <use xlink:href="#DejaVuSans-30" transform="translate(63.623047 0)"/>
       <use xlink:href="#DejaVuSans-30" transform="translate(127.246094 0)"/>
      </g>
     </g>
    </g>
    <g id="text_10">
     <!-- Frequenz in Hz -->
     <g transform="translate(199.294375 335.860562) scale(0.1 -0.1)">
      <defs>
       <path id="DejaVuSans-46" d="M 628 4666 
L 3309 4666 
L 3309 4134 
L 1259 4134 
L 1259 2759 
L 3109 2759 
L 3109 2228 
L 1259 2228 
L 1259 0 
L 628 0 
L 628 4666 
z
" transform="scale(0.015625)"/>
       <path id="DejaVuSans-72" d="M 2631 2963 
Q 2534 3019 2420 3045 
Q 2306 3072 2169 3072 
Q 1681 3072 1420 2755 
Q 1159 2438 1159 1844 
L 1159 0 
L 581 0 
L 581 3500 
L 1159 3500 
L 1159 2956 
Q 1341 3275 1631 3429 
Q 1922 3584 2338 3584 
Q 2397 3584 2469 3576 
Q 2541 3569 2628 3553 
L 2631 2963 
z
" transform="scale(0.015625)"/>
       <path id="DejaVuSans-65" d="M 3597 1894 
L 3597 1613 
L 953 1613 
Q 991 1019 1311 708 
Q 1631 397 2203 397 
Q 2534 397 2845 478 
Q 3156 559 3463 722 
L 3463 178 
Q 3153 47 2828 -22 
Q 2503 -91 2169 -91 
Q 1331 -91 842 396 
Q 353 884 353 1716 
Q 353 2575 817 3079 
Q 1281 3584 2069 3584 
Q 2775 3584 3186 3129 
Q 3597 2675 3597 1894 
z
M 3022 2063 
Q 3016 2534 2758 2815 
Q 2500 3097 2075 3097 
Q 1594 3097 1305 2825 
Q 1016 2553 972 2059 
L 3022 2063 
z
" transform="scale(0.015625)"/>
       <path id="DejaVuSans-71" d="M 947 1747 
Q 947 1113 1208 752 
Q 1469 391 1925 391 
Q 2381 391 2643 752 
Q 2906 1113 2906 1747 
Q 2906 2381 2643 2742 
Q 2381 3103 1925 3103 
Q 1469 3103 1208 2742 
Q 947 2381 947 1747 
z
M 2906 525 
Q 2725 213 2448 61 
Q 2172 -91 1784 -91 
Q 1150 -91 751 415 
Q 353 922 353 1747 
Q 353 2572 751 3078 
Q 1150 3584 1784 3584 
Q 2172 3584 2448 3432 
Q 2725 3281 2906 2969 
L 2906 3500 
L 3481 3500 
L 3481 -1331 
L 2906 -1331 
L 2906 525 
z
" transform="scale(0.015625)"/>
       <path id="DejaVuSans-75" d="M 544 1381 
L 544 3500 
L 1119 3500 
L 1119 1403 
Q 1119 906 1312 657 
Q 1506 409 1894 409 
Q 2359 409 2629 706 
Q 2900 1003 2900 1516 
L 2900 3500 
L 3475 3500 
L 3475 0 
L 2900 0 
L 2900 538 
Q 2691 219 2414 64 
Q 2138 -91 1772 -91 
Q 1169 -91 856 284 
Q 544 659 544 1381 
z
M 1991 3584 
L 1991 3584 
z
" transform="scale(0.015625)"/>
       <path id="DejaVuSans-6e" d="M 3513 2113 
L 3513 0 
L 2938 0 
L 2938 2094 
Q 2938 2591 2744 2837 
Q 2550 3084 2163 3084 
Q 1697 3084 1428 2787 
Q 1159 2491 1159 1978 
L 1159 0 
L 581 0 
L 581 3500 
L 1159 3500 
L 1159 2956 
Q 1366 3272 1645 3428 
Q 1925 3584 2291 3584 
Q 2894 3584 3203 3211 
Q 3513 2838 3513 2113 
z
" transform="scale(0.015625)"/>
       <path id="DejaVuSans-7a" d="M 353 3500 
L 3084 3500 
L 3084 2975 
L 922 459 
L 3084 459 
L 3084 0 
L 275 0 
L 275 525 
L 2438 3041 
L 353 3041 
L 353 3500 
z
" transform="scale(0.015625)"/>
       <path id="DejaVuSans-20" transform="scale(0.015625)"/>
       <path id="DejaVuSans-69" d="M 603 3500 
L 1178 3500 
L 1178 0 
L 603 0 
L 603 3500 
z
M 603 4863 
L 1178 4863 
L 1178 4134 
L 603 4134 
L 603 4863 
z
" transform="scale(0.015625)"/>
       <path id="DejaVuSans-48" d="M 628 4666 
L 1259 4666 
L 1259 2753 
L 3553 2753 
L 3553 4666 
L 4184 4666 
L 4184 0 
L 3553 0 
L 3553 2222 
L 1259 2222 
L 1259 0 
L 628 0 
L 628 4666 
z
" transform="scale(0.015625)"/>
      </defs>
      <use xlink:href="#DejaVuSans-46"/>
      <use xlink:href="#DejaVuSans-72" transform="translate(50.269531 0)"/>
      <use xlink:href="#DejaVuSans-65" transform="translate(89.132812 0)"/>
      <use xlink:href="#DejaVuSans-71" transform="translate(150.65625 0)"/>
      <use xlink:href="#DejaVuSans-75" transform="translate(214.132812 0)"/>
      <use xlink:href="#DejaVuSans-65" transform="translate(277.511719 0)"/>
      <use xlink:href="#DejaVuSans-6e" transform="translate(339.035156 0)"/>
      <use xlink:href="#DejaVuSans-7a" transform="translate(402.414062 0)"/>
      <use xlink:href="#DejaVuSans-20" transform="translate(454.904297 0)"/>
      <use xlink:href="#DejaVuSans-69" transform="translate(486.691406 0)"/>
      <use xlink:href="#DejaVuSans-6e" transform="translate(514.474609 0)"/>
      <use xlink:href="#DejaVuSans-20" transform="translate(577.853516 0)"/>
      <use xlink:href="#DejaVuSans-48" transform="translate(609.640625 0)"/>
      <use xlink:href="#DejaVuSans-7a" transform="translate(684.835938 0)"/>
     </g>
    </g>
   </g>
   <g id="matplotlib.axis_2">
    <g id="ytick_1">
     <g id="line2d_10">
      <defs>
       <path id="m29f13cef7e" d="M 0 0 
L -3.5 0 
" style="stroke: #000000; stroke-width: 0.8"/>
      </defs>
      <g>
       <use xlink:href="#m29f13cef7e" x="57.6" y="307.584" style="stroke: #000000; stroke-width: 0.8"/>
      </g>
     </g>
     <g id="text_11">
      <!-- $\mathdefault{10^{-1}}$ -->
      <g transform="translate(27.1 311.383219) scale(0.1 -0.1)">
       <defs>
        <path id="DejaVuSans-2212" d="M 678 2272 
L 4684 2272 
L 4684 1741 
L 678 1741 
L 678 2272 
z
" transform="scale(0.015625)"/>
       </defs>
       <use xlink:href="#DejaVuSans-31" transform="translate(0 0.684375)"/>
       <use xlink:href="#DejaVuSans-30" transform="translate(63.623047 0.684375)"/>
       <use xlink:href="#DejaVuSans-2212" transform="translate(128.203125 38.965625) scale(0.7)"/>
       <use xlink:href="#DejaVuSans-31" transform="translate(186.855469 38.965625) scale(0.7)"/>
      </g>
     </g>
    </g>
    <g id="ytick_2">
     <g id="line2d_11">
      <g>
       <use xlink:href="#m29f13cef7e" x="57.6" y="241.056" style="stroke: #000000; stroke-width: 0.8"/>
      </g>
     </g>
     <g id="text_12">
      <!-- $\mathdefault{10^{0}}$ -->
      <g transform="translate(33 244.855219) scale(0.1 -0.1)">
       <use xlink:href="#DejaVuSans-31" transform="translate(0 0.765625)"/>
       <use xlink:href="#DejaVuSans-30" transform="translate(63.623047 0.765625)"/>
       <use xlink:href="#DejaVuSans-30" transform="translate(128.203125 39.046875) scale(0.7)"/>
      </g>
     </g>
    </g>
    <g id="ytick_3">
     <g id="line2d_12">
      <g>
       <use xlink:href="#m29f13cef7e" x="57.6" y="174.528" style="stroke: #000000; stroke-width: 0.8"/>
      </g>
     </g>
     <g id="text_13">
      <!-- $\mathdefault{10^{1}}$ -->
      <g transform="translate(33 178.327219) scale(0.1 -0.1)">
       <use xlink:href="#DejaVuSans-31" transform="translate(0 0.684375)"/>
       <use xlink:href="#DejaVuSans-30" transform="translate(63.623047 0.684375)"/>
       <use xlink:href="#DejaVuSans-31" transform="translate(128.203125 38.965625) scale(0.7)"/>
      </g>
     </g>
    </g>
    <g id="ytick_4">
     <g id="line2d_13">
      <g>
       <use xlink:href="#m29f13cef7e" x="57.6" y="108" style="stroke: #000000; stroke-width: 0.8"/>
      </g>
     </g>
     <g id="text_14">
      <!-- $\mathdefault{10^{2}}$ -->
      <g transform="translate(33 111.799219) scale(0.1 -0.1)">
       <use xlink:href="#DejaVuSans-31" transform="translate(0 0.765625)"/>
       <use xlink:href="#DejaVuSans-30" transform="translate(63.623047 0.765625)"/>
       <use xlink:href="#DejaVuSans-32" transform="translate(128.203125 39.046875) scale(0.7)"/>
      </g>
     </g>
    </g>
    <g id="ytick_5">
     <g id="line2d_14">
      <g>
       <use xlink:href="#m29f13cef7e" x="57.6" y="41.472" style="stroke: #000000; stroke-width: 0.8"/>
      </g>
     </g>
     <g id="text_15">
      <!-- $\mathdefault{10^{3}}$ -->
      <g transform="translate(33 45.271219) scale(0.1 -0.1)">
       <defs>
        <path id="DejaVuSans-33" d="M 2597 2516 
Q 3050 2419 3304 2112 
Q 3559 1806 3559 1356 
Q 3559 666 3084 287 
Q 2609 -91 1734 -91 
Q 1441 -91 1130 -33 
Q 819 25 488 141 
L 488 750 
Q 750 597 1062 519 
Q 1375 441 1716 441 
Q 2309 441 2620 675 
Q 2931 909 2931 1356 
Q 2931 1769 2642 2001 
Q 2353 2234 1838 2234 
L 1294 2234 
L 1294 2753 
L 1863 2753 
Q 2328 2753 2575 2939 
Q 2822 3125 2822 3475 
Q 2822 3834 2567 4026 
Q 2313 4219 1838 4219 
Q 1578 4219 1281 4162 
Q 984 4106 628 3988 
L 628 4550 
Q 988 4650 1302 4700 
Q 1616 4750 1894 4750 
Q 2613 4750 3031 4423 
Q 3450 4097 3450 3541 
Q 3450 3153 3228 2886 
Q 3006 2619 2597 2516 
z
" transform="scale(0.015625)"/>
       </defs>
       <use xlink:href="#DejaVuSans-31" transform="translate(0 0.765625)"/>
       <use xlink:href="#DejaVuSans-30" transform="translate(63.623047 0.765625)"/>
       <use xlink:href="#DejaVuSans-33" transform="translate(128.203125 39.046875) scale(0.7)"/>
      </g>
     </g>
    </g>
    <g id="ytick_6">
     <g id="line2d_15">
      <defs>
       <path id="maaad6066de" d="M 0 0 
L -2 0 
" style="stroke: #000000; stroke-width: 0.6"/>
      </defs>
      <g>
       <use xlink:href="#maaad6066de" x="57.6" y="287.557076" style="stroke: #000000; stroke-width: 0.6"/>
      </g>
     </g>
    </g>
    <g id="ytick_7">
     <g id="line2d_16">
      <g>
       <use xlink:href="#maaad6066de" x="57.6" y="275.842077" style="stroke: #000000; stroke-width: 0.6"/>
      </g>
     </g>
    </g>
    <g id="ytick_8">
     <g id="line2d_17">
      <g>
       <use xlink:href="#maaad6066de" x="57.6" y="267.530153" style="stroke: #000000; stroke-width: 0.6"/>
      </g>
     </g>
    </g>
    <g id="ytick_9">
     <g id="line2d_18">
      <g>
       <use xlink:href="#maaad6066de" x="57.6" y="261.082924" style="stroke: #000000; stroke-width: 0.6"/>
      </g>
     </g>
    </g>
    <g id="ytick_10">
     <g id="line2d_19">
      <g>
       <use xlink:href="#maaad6066de" x="57.6" y="255.815154" style="stroke: #000000; stroke-width: 0.6"/>
      </g>
     </g>
    </g>
    <g id="ytick_11">
     <g id="line2d_20">
      <g>
       <use xlink:href="#maaad6066de" x="57.6" y="251.361318" style="stroke: #000000; stroke-width: 0.6"/>
      </g>
     </g>
    </g>
    <g id="ytick_12">
     <g id="line2d_21">
      <g>
       <use xlink:href="#maaad6066de" x="57.6" y="247.503229" style="stroke: #000000; stroke-width: 0.6"/>
      </g>
     </g>
    </g>
    <g id="ytick_13">
     <g id="line2d_22">
      <g>
       <use xlink:href="#maaad6066de" x="57.6" y="244.100154" style="stroke: #000000; stroke-width: 0.6"/>
      </g>
     </g>
    </g>
    <g id="ytick_14">
     <g id="line2d_23">
      <g>
       <use xlink:href="#maaad6066de" x="57.6" y="221.029076" style="stroke: #000000; stroke-width: 0.6"/>
      </g>
     </g>
    </g>
    <g id="ytick_15">
     <g id="line2d_24">
      <g>
       <use xlink:href="#maaad6066de" x="57.6" y="209.314077" style="stroke: #000000; stroke-width: 0.6"/>
      </g>
     </g>
    </g>
    <g id="ytick_16">
     <g id="line2d_25">
      <g>
       <use xlink:href="#maaad6066de" x="57.6" y="201.002153" style="stroke: #000000; stroke-width: 0.6"/>
      </g>
     </g>
    </g>
    <g id="ytick_17">
     <g id="line2d_26">
      <g>
       <use xlink:href="#maaad6066de" x="57.6" y="194.554924" style="stroke: #000000; stroke-width: 0.6"/>
      </g>
     </g>
    </g>
    <g id="ytick_18">
     <g id="line2d_27">
      <g>
       <use xlink:href="#maaad6066de" x="57.6" y="189.287154" style="stroke: #000000; stroke-width: 0.6"/>
      </g>
     </g>
    </g>
    <g id="ytick_19">
     <g id="line2d_28">
      <g>
       <use xlink:href="#maaad6066de" x="57.6" y="184.833318" style="stroke: #000000; stroke-width: 0.6"/>
      </g>
     </g>
    </g>
    <g id="ytick_20">
     <g id="line2d_29">
      <g>
       <use xlink:href="#maaad6066de" x="57.6" y="180.975229" style="stroke: #000000; stroke-width: 0.6"/>
      </g>
     </g>
    </g>
    <g id="ytick_21">
     <g id="line2d_30">
      <g>
       <use xlink:href="#maaad6066de" x="57.6" y="177.572154" style="stroke: #000000; stroke-width: 0.6"/>
      </g>
     </g>
    </g>
    <g id="ytick_22">
     <g id="line2d_31">
      <g>
       <use xlink:href="#maaad6066de" x="57.6" y="154.501076" style="stroke: #000000; stroke-width: 0.6"/>
      </g>
     </g>
    </g>
    <g id="ytick_23">
     <g id="line2d_32">
      <g>
       <use xlink:href="#maaad6066de" x="57.6" y="142.786077" style="stroke: #000000; stroke-width: 0.6"/>
      </g>
     </g>
    </g>
    <g id="ytick_24">
     <g id="line2d_33">
      <g>
       <use xlink:href="#maaad6066de" x="57.6" y="134.474153" style="stroke: #000000; stroke-width: 0.6"/>
      </g>
     </g>
    </g>
    <g id="ytick_25">
     <g id="line2d_34">
      <g>
       <use xlink:href="#maaad6066de" x="57.6" y="128.026924" style="stroke: #000000; stroke-width: 0.6"/>
      </g>
     </g>
    </g>
    <g id="ytick_26">
     <g id="line2d_35">
      <g>
       <use xlink:href="#maaad6066de" x="57.6" y="122.759154" style="stroke: #000000; stroke-width: 0.6"/>
      </g>
     </g>
    </g>
    <g id="ytick_27">
     <g id="line2d_36">
      <g>
       <use xlink:href="#maaad6066de" x="57.6" y="118.305318" style="stroke: #000000; stroke-width: 0.6"/>
      </g>
     </g>
    </g>
    <g id="ytick_28">
     <g id="line2d_37">
      <g>
       <use xlink:href="#maaad6066de" x="57.6" y="114.447229" style="stroke: #000000; stroke-width: 0.6"/>
      </g>
     </g>
    </g>
    <g id="ytick_29">
     <g id="line2d_38">
      <g>
       <use xlink:href="#maaad6066de" x="57.6" y="111.044154" style="stroke: #000000; stroke-width: 0.6"/>
      </g>
     </g>
    </g>
    <g id="ytick_30">
     <g id="line2d_39">
      <g>
       <use xlink:href="#maaad6066de" x="57.6" y="87.973076" style="stroke: #000000; stroke-width: 0.6"/>
      </g>
     </g>
    </g>
    <g id="ytick_31">
     <g id="line2d_40">
      <g>
       <use xlink:href="#maaad6066de" x="57.6" y="76.258077" style="stroke: #000000; stroke-width: 0.6"/>
      </g>
     </g>
    </g>
    <g id="ytick_32">
     <g id="line2d_41">
      <g>
       <use xlink:href="#maaad6066de" x="57.6" y="67.946153" style="stroke: #000000; stroke-width: 0.6"/>
      </g>
     </g>
    </g>
    <g id="ytick_33">
     <g id="line2d_42">
      <g>
       <use xlink:href="#maaad6066de" x="57.6" y="61.498924" style="stroke: #000000; stroke-width: 0.6"/>
      </g>
     </g>
    </g>
    <g id="ytick_34">
     <g id="line2d_43">
      <g>
       <use xlink:href="#maaad6066de" x="57.6" y="56.231154" style="stroke: #000000; stroke-width: 0.6"/>
      </g>
     </g>
    </g>
    <g id="ytick_35">
     <g id="line2d_44">
      <g>
       <use xlink:href="#maaad6066de" x="57.6" y="51.777318" style="stroke: #000000; stroke-width: 0.6"/>
      </g>
     </g>
    </g>
    <g id="ytick_36">
     <g id="line2d_45">
      <g>
       <use xlink:href="#maaad6066de" x="57.6" y="47.919229" style="stroke: #000000; stroke-width: 0.6"/>
      </g>
     </g>
    </g>
    <g id="ytick_37">
     <g id="line2d_46">
      <g>
       <use xlink:href="#maaad6066de" x="57.6" y="44.516154" style="stroke: #000000; stroke-width: 0.6"/>
      </g>
     </g>
    </g>
    <g id="text_16">
     <!-- Leistung/Frequenz (V²/Hz) -->
     <g transform="translate(21.020312 239.182687) rotate(-90) scale(0.1 -0.1)">
      <defs>
       <path id="DejaVuSans-4c" d="M 628 4666 
L 1259 4666 
L 1259 531 
L 3531 531 
L 3531 0 
L 628 0 
L 628 4666 
z
" transform="scale(0.015625)"/>
       <path id="DejaVuSans-73" d="M 2834 3397 
L 2834 2853 
Q 2591 2978 2328 3040 
Q 2066 3103 1784 3103 
Q 1356 3103 1142 2972 
Q 928 2841 928 2578 
Q 928 2378 1081 2264 
Q 1234 2150 1697 2047 
L 1894 2003 
Q 2506 1872 2764 1633 
Q 3022 1394 3022 966 
Q 3022 478 2636 193 
Q 2250 -91 1575 -91 
Q 1294 -91 989 -36 
Q 684 19 347 128 
L 347 722 
Q 666 556 975 473 
Q 1284 391 1588 391 
Q 1994 391 2212 530 
Q 2431 669 2431 922 
Q 2431 1156 2273 1281 
Q 2116 1406 1581 1522 
L 1381 1569 
Q 847 1681 609 1914 
Q 372 2147 372 2553 
Q 372 3047 722 3315 
Q 1072 3584 1716 3584 
Q 2034 3584 2315 3537 
Q 2597 3491 2834 3397 
z
" transform="scale(0.015625)"/>
       <path id="DejaVuSans-74" d="M 1172 4494 
L 1172 3500 
L 2356 3500 
L 2356 3053 
L 1172 3053 
L 1172 1153 
Q 1172 725 1289 603 
Q 1406 481 1766 481 
L 2356 481 
L 2356 0 
L 1766 0 
Q 1100 0 847 248 
Q 594 497 594 1153 
L 594 3053 
L 172 3053 
L 172 3500 
L 594 3500 
L 594 4494 
L 1172 4494 
z
" transform="scale(0.015625)"/>
       <path id="DejaVuSans-67" d="M 2906 1791 
Q 2906 2416 2648 2759 
Q 2391 3103 1925 3103 
Q 1463 3103 1205 2759 
Q 947 2416 947 1791 
Q 947 1169 1205 825 
Q 1463 481 1925 481 
Q 2391 481 2648 825 
Q 2906 1169 2906 1791 
z
M 3481 434 
Q 3481 -459 3084 -895 
Q 2688 -1331 1869 -1331 
Q 1566 -1331 1297 -1286 
Q 1028 -1241 775 -1147 
L 775 -588 
Q 1028 -725 1275 -790 
Q 1522 -856 1778 -856 
Q 2344 -856 2625 -561 
Q 2906 -266 2906 331 
L 2906 616 
Q 2728 306 2450 153 
Q 2172 0 1784 0 
Q 1141 0 747 490 
Q 353 981 353 1791 
Q 353 2603 747 3093 
Q 1141 3584 1784 3584 
Q 2172 3584 2450 3431 
Q 2728 3278 2906 2969 
L 2906 3500 
L 3481 3500 
L 3481 434 
z
" transform="scale(0.015625)"/>
       <path id="DejaVuSans-2f" d="M 1625 4666 
L 2156 4666 
L 531 -594 
L 0 -594 
L 1625 4666 
z
" transform="scale(0.015625)"/>
       <path id="DejaVuSans-28" d="M 1984 4856 
Q 1566 4138 1362 3434 
Q 1159 2731 1159 2009 
Q 1159 1288 1364 580 
Q 1569 -128 1984 -844 
L 1484 -844 
Q 1016 -109 783 600 
Q 550 1309 550 2009 
Q 550 2706 781 3412 
Q 1013 4119 1484 4856 
L 1984 4856 
z
" transform="scale(0.015625)"/>
       <path id="DejaVuSans-56" d="M 1831 0 
L 50 4666 
L 709 4666 
L 2188 738 
L 3669 4666 
L 4325 4666 
L 2547 0 
L 1831 0 
z
" transform="scale(0.015625)"/>
       <path id="DejaVuSans-b2" d="M 838 2444 
L 2163 2444 
L 2163 2088 
L 294 2088 
L 294 2431 
Q 400 2528 597 2703 
Q 1672 3656 1672 3950 
Q 1672 4156 1509 4282 
Q 1347 4409 1081 4409 
Q 919 4409 728 4354 
Q 538 4300 313 4191 
L 313 4575 
Q 553 4663 761 4706 
Q 969 4750 1147 4750 
Q 1600 4750 1872 4544 
Q 2144 4338 2144 4000 
Q 2144 3566 1109 2678 
Q 934 2528 838 2444 
z
" transform="scale(0.015625)"/>
       <path id="DejaVuSans-29" d="M 513 4856 
L 1013 4856 
Q 1481 4119 1714 3412 
Q 1947 2706 1947 2009 
Q 1947 1309 1714 600 
Q 1481 -109 1013 -844 
L 513 -844 
Q 928 -128 1133 580 
Q 1338 1288 1338 2009 
Q 1338 2731 1133 3434 
Q 928 4138 513 4856 
z
" transform="scale(0.015625)"/>
      </defs>
      <use xlink:href="#DejaVuSans-4c"/>
      <use xlink:href="#DejaVuSans-65" transform="translate(53.962891 0)"/>
      <use xlink:href="#DejaVuSans-69" transform="translate(115.486328 0)"/>
      <use xlink:href="#DejaVuSans-73" transform="translate(143.269531 0)"/>
      <use xlink:href="#DejaVuSans-74" transform="translate(195.369141 0)"/>
      <use xlink:href="#DejaVuSans-75" transform="translate(234.578125 0)"/>
      <use xlink:href="#DejaVuSans-6e" transform="translate(297.957031 0)"/>
      <use xlink:href="#DejaVuSans-67" transform="translate(361.335938 0)"/>
      <use xlink:href="#DejaVuSans-2f" transform="translate(424.8125 0)"/>
      <use xlink:href="#DejaVuSans-46" transform="translate(458.503906 0)"/>
      <use xlink:href="#DejaVuSans-72" transform="translate(508.773438 0)"/>
      <use xlink:href="#DejaVuSans-65" transform="translate(547.636719 0)"/>
      <use xlink:href="#DejaVuSans-71" transform="translate(609.160156 0)"/>
      <use xlink:href="#DejaVuSans-75" transform="translate(672.636719 0)"/>
      <use xlink:href="#DejaVuSans-65" transform="translate(736.015625 0)"/>
      <use xlink:href="#DejaVuSans-6e" transform="translate(797.539062 0)"/>
      <use xlink:href="#DejaVuSans-7a" transform="translate(860.917969 0)"/>
      <use xlink:href="#DejaVuSans-20" transform="translate(913.408203 0)"/>
      <use xlink:href="#DejaVuSans-28" transform="translate(945.195312 0)"/>
      <use xlink:href="#DejaVuSans-56" transform="translate(984.208984 0)"/>
      <use xlink:href="#DejaVuSans-b2" transform="translate(1052.617188 0)"/>
      <use xlink:href="#DejaVuSans-2f" transform="translate(1092.705078 0)"/>
      <use xlink:href="#DejaVuSans-48" transform="translate(1126.396484 0)"/>
      <use xlink:href="#DejaVuSans-7a" transform="translate(1201.591797 0)"/>
      <use xlink:href="#DejaVuSans-29" transform="translate(1254.082031 0)"/>
     </g>
    </g>
   </g>
   <g id="line2d_47">
    <path d="M 73.832727 229.635632 
L 74.149773 184.51379 
L 74.466818 169.946659 
L 74.783864 164.345457 
L 75.100909 167.552577 
L 75.735 180.171242 
L 76.052045 191.013052 
L 76.369091 195.672985 
L 76.686136 198.080514 
L 77.003182 205.647579 
L 77.320227 206.698962 
L 78.271364 221.104172 
L 78.588409 220.176123 
L 78.905455 220.57741 
L 79.2225 223.376712 
L 79.539545 221.603115 
L 79.856591 222.69122 
L 80.173636 227.800333 
L 80.490682 224.30649 
L 80.807727 225.47371 
L 81.124773 228.321259 
L 81.441818 223.049652 
L 81.758864 222.781582 
L 82.075909 217.465228 
L 82.392955 215.830816 
L 82.71 218.513928 
L 83.027045 222.767851 
L 83.344091 224.464826 
L 83.661136 222.752345 
L 83.978182 225.389441 
L 84.295227 226.172469 
L 84.612273 230.26946 
L 84.929318 232.719735 
L 85.246364 234.139715 
L 85.880455 223.021587 
L 86.831591 226.353962 
L 87.148636 229.065549 
L 87.465682 228.673054 
L 87.782727 226.336641 
L 88.099773 223.169787 
L 88.416818 221.14021 
L 88.733864 224.43965 
L 89.367955 232.753379 
L 90.002045 220.341868 
L 90.319091 220.826985 
L 91.270227 232.713289 
L 91.587273 231.648623 
L 91.904318 233.988511 
L 92.221364 244.421662 
L 92.538409 249.683947 
L 92.855455 244.536208 
L 93.1725 245.152929 
L 93.489545 242.330049 
L 93.806591 234.283514 
L 94.123636 234.327821 
L 94.757727 245.057061 
L 95.074773 248.738857 
L 95.391818 248.003032 
L 95.708864 244.41344 
L 96.025909 243.330504 
L 96.66 249.071308 
L 97.294091 237.872764 
L 97.611136 239.913612 
L 97.928182 242.944564 
L 98.562273 238.406759 
L 98.879318 237.81516 
L 99.196364 240.908906 
L 99.513409 242.158414 
L 99.830455 237.861032 
L 100.1475 235.495843 
L 100.464545 234.311802 
L 100.781591 233.563109 
L 101.098636 238.815831 
L 101.415682 237.870515 
L 102.049773 248.530779 
L 102.366818 238.042745 
L 102.683864 237.642073 
L 103.000909 238.502305 
L 103.317955 241.097874 
L 103.635 238.011091 
L 103.952045 236.162562 
L 104.586136 224.782815 
L 104.903182 228.560226 
L 105.220227 229.774952 
L 105.537273 225.752029 
L 105.854318 225.90408 
L 106.488409 229.62261 
L 106.805455 234.076152 
L 107.1225 240.559466 
L 107.439545 238.900575 
L 107.756591 234.18309 
L 108.073636 233.976809 
L 108.390682 234.445054 
L 108.707727 232.643116 
L 109.024773 232.954317 
L 109.341818 232.36767 
L 109.658864 229.574709 
L 109.975909 231.750354 
L 110.292955 229.501423 
L 110.61 218.586506 
L 110.927045 221.364991 
L 111.244091 226.016958 
L 111.561136 219.37544 
L 112.195227 219.253086 
L 112.512273 218.584464 
L 112.829318 225.69935 
L 113.146364 226.292358 
L 113.463409 225.313386 
L 113.780455 226.109672 
L 114.0975 220.710766 
L 114.414545 220.942126 
L 114.731591 229.704558 
L 115.048636 227.882871 
L 115.999773 209.473599 
L 116.316818 208.158333 
L 116.633864 214.408813 
L 116.950909 215.255961 
L 117.267955 213.837781 
L 117.585 214.198066 
L 117.902045 213.636794 
L 118.219091 212.29097 
L 118.536136 210.177875 
L 118.853182 205.947369 
L 119.170227 208.414496 
L 119.804318 203.223111 
L 120.121364 212.284929 
L 120.438409 216.851345 
L 120.755455 214.014216 
L 121.389545 206.725541 
L 121.706591 204.956287 
L 122.023636 208.237142 
L 122.340682 207.027066 
L 122.657727 206.882564 
L 122.974773 211.358806 
L 123.291818 213.367246 
L 123.925909 223.571995 
L 124.242955 223.509584 
L 124.877045 212.874121 
L 125.194091 210.938237 
L 125.511136 207.331828 
L 125.828182 206.500633 
L 126.462273 209.525716 
L 126.779318 208.151121 
L 127.096364 211.123778 
L 127.413409 210.346916 
L 127.730455 210.322814 
L 128.0475 210.96008 
L 128.364545 208.383548 
L 128.681591 212.804552 
L 128.998636 215.02663 
L 129.315682 210.523898 
L 129.632727 210.690621 
L 129.949773 211.338541 
L 130.266818 208.044579 
L 130.583864 206.770857 
L 130.900909 206.460054 
L 131.535 209.153712 
L 131.852045 209.314391 
L 132.169091 204.555781 
L 132.486136 204.376632 
L 132.803182 207.554352 
L 133.120227 207.788715 
L 133.754318 223.404901 
L 134.071364 213.647037 
L 134.388409 208.737935 
L 134.705455 206.363914 
L 135.0225 212.20911 
L 135.339545 212.565304 
L 135.656591 203.878825 
L 135.973636 203.660265 
L 136.290682 210.89876 
L 136.607727 206.075167 
L 136.924773 206.592232 
L 137.241818 209.429627 
L 137.558864 207.763897 
L 137.875909 206.875545 
L 138.192955 213.143093 
L 138.827045 198.660184 
L 139.461136 204.426052 
L 140.412273 194.933493 
L 140.729318 199.366855 
L 141.046364 198.06173 
L 141.680455 200.098486 
L 141.9975 201.019014 
L 142.314545 202.304839 
L 142.948636 211.10335 
L 143.265682 211.264206 
L 143.582727 209.224157 
L 143.899773 206.153105 
L 144.216818 208.737319 
L 144.533864 202.221325 
L 144.850909 199.204913 
L 145.167955 198.775496 
L 145.802045 196.681637 
L 146.119091 193.579653 
L 146.753182 201.285933 
L 147.070227 195.911939 
L 147.387273 197.444875 
L 147.704318 198.159131 
L 148.021364 200.381588 
L 148.338409 200.90998 
L 148.655455 197.032733 
L 148.9725 194.870166 
L 149.289545 197.777301 
L 149.606591 204.409291 
L 150.240682 212.613352 
L 150.557727 212.063306 
L 151.191818 190.875744 
L 151.508864 196.656326 
L 151.825909 198.698462 
L 152.142955 196.028473 
L 152.46 196.204391 
L 152.777045 194.428917 
L 153.094091 194.260978 
L 153.411136 197.873228 
L 153.728182 206.712202 
L 154.045227 206.994781 
L 154.362273 200.129179 
L 154.679318 201.34078 
L 154.996364 203.184199 
L 155.630455 195.13653 
L 155.9475 195.295747 
L 156.264545 193.194055 
L 156.898636 184.381803 
L 157.215682 182.145832 
L 157.532727 185.128456 
L 157.849773 189.634358 
L 158.166818 192.365888 
L 158.800909 205.090009 
L 159.117955 201.239195 
L 159.435 192.397407 
L 159.752045 191.877973 
L 160.069091 200.573946 
L 160.386136 202.918832 
L 161.020227 193.755592 
L 161.337273 189.593215 
L 161.654318 193.300436 
L 161.971364 192.96283 
L 162.288409 194.833531 
L 162.9225 181.667079 
L 163.239545 181.368366 
L 163.556591 186.647799 
L 163.873636 189.715564 
L 164.190682 189.605177 
L 164.507727 189.120933 
L 165.141818 198.617683 
L 165.458864 202.190307 
L 165.775909 197.222617 
L 166.092955 195.33425 
L 166.41 195.673197 
L 167.044091 187.221274 
L 167.361136 187.698139 
L 167.678182 188.662102 
L 167.995227 186.310253 
L 168.312273 181.962505 
L 168.629318 183.052889 
L 168.946364 189.462785 
L 169.263409 191.860969 
L 169.580455 191.358791 
L 169.8975 192.921814 
L 170.214545 196.511255 
L 170.531591 191.623725 
L 171.165682 176.703811 
L 172.116818 192.926992 
L 172.433864 198.420232 
L 172.750909 200.93224 
L 173.067955 199.580421 
L 173.702045 203.037987 
L 175.287273 186.154265 
L 175.921364 188.565863 
L 176.238409 184.959822 
L 176.555455 182.917191 
L 176.8725 186.905973 
L 177.189545 184.82261 
L 177.506591 185.020763 
L 178.140682 188.821145 
L 178.457727 194.850773 
L 178.774773 197.147619 
L 180.042955 179.031273 
L 180.36 188.746807 
L 180.677045 190.763839 
L 180.994091 186.621032 
L 181.311136 190.521778 
L 181.628182 191.347581 
L 181.945227 193.345396 
L 182.579318 195.358916 
L 182.896364 198.109487 
L 183.213409 198.236007 
L 183.530455 197.892352 
L 183.8475 193.249584 
L 184.164545 191.489645 
L 184.481591 187.984532 
L 184.798636 188.192368 
L 185.115682 190.342697 
L 185.432727 185.738049 
L 186.066818 189.371901 
L 186.700909 198.830371 
L 187.017955 198.569492 
L 187.335 195.55167 
L 187.652045 191.374767 
L 187.969091 185.445097 
L 188.286136 187.008863 
L 188.603182 190.639909 
L 188.920227 186.270222 
L 189.237273 189.629147 
L 189.554318 191.009263 
L 189.871364 186.353853 
L 190.188409 188.03135 
L 190.8225 206.733318 
L 191.139545 202.857234 
L 191.456591 205.897967 
L 191.773636 200.196332 
L 192.090682 196.911946 
L 192.407727 200.599997 
L 193.041818 192.043191 
L 193.358864 195.455231 
L 193.675909 195.108893 
L 193.992955 197.246085 
L 194.31 195.237725 
L 194.627045 197.068733 
L 194.944091 197.598098 
L 195.261136 192.759522 
L 195.578182 189.794765 
L 195.895227 190.977077 
L 196.529318 197.846846 
L 196.846364 196.622442 
L 197.480455 191.995197 
L 197.7975 195.306813 
L 198.114545 196.119496 
L 198.431591 197.435934 
L 198.748636 197.293281 
L 199.065682 198.097019 
L 199.382727 197.203616 
L 199.699773 197.160988 
L 200.016818 194.316937 
L 200.333864 188.301893 
L 201.285 199.594562 
L 201.602045 197.205162 
L 201.919091 195.954722 
L 202.236136 191.799238 
L 202.553182 191.424114 
L 202.870227 193.141741 
L 203.187273 191.464743 
L 203.504318 188.167825 
L 203.821364 188.931089 
L 204.138409 192.56183 
L 204.455455 192.905032 
L 205.089545 197.221228 
L 205.723636 189.502533 
L 206.040682 185.998526 
L 206.357727 186.198334 
L 206.674773 189.252578 
L 207.308864 188.924202 
L 207.625909 188.947185 
L 207.942955 193.990566 
L 208.26 194.532323 
L 208.577045 193.590323 
L 208.894091 191.562393 
L 209.528182 181.951933 
L 209.845227 182.291913 
L 210.162273 187.510269 
L 210.796364 201.727284 
L 211.430455 206.553245 
L 211.7475 206.472561 
L 212.064545 201.674541 
L 212.381591 204.470603 
L 213.015682 190.146295 
L 213.649773 204.903034 
L 213.966818 203.028716 
L 214.283864 202.603099 
L 214.600909 207.592306 
L 214.917955 206.237489 
L 215.235 205.785586 
L 215.552045 205.739374 
L 215.869091 206.077891 
L 216.186136 204.763689 
L 216.503182 204.81379 
L 216.820227 203.436866 
L 217.137273 202.740443 
L 217.454318 198.05392 
L 217.771364 204.781976 
L 218.088409 209.072939 
L 218.405455 201.577134 
L 218.7225 208.669336 
L 219.039545 212.260491 
L 219.356591 208.256017 
L 219.673636 206.261194 
L 219.990682 197.495856 
L 220.307727 193.656861 
L 220.624773 201.128633 
L 220.941818 202.844446 
L 221.258864 203.648431 
L 221.575909 204.030232 
L 222.21 205.892849 
L 222.527045 203.145748 
L 222.844091 203.290147 
L 223.161136 206.371452 
L 223.795227 199.973249 
L 224.112273 200.260032 
L 224.429318 199.726153 
L 224.746364 196.608015 
L 225.063409 196.728374 
L 225.380455 202.304705 
L 225.6975 205.708023 
L 226.014545 205.678437 
L 226.331591 208.268381 
L 226.648636 208.041953 
L 226.965682 197.44634 
L 227.282727 192.239202 
L 227.916818 202.349473 
L 228.233864 201.619399 
L 228.550909 208.091021 
L 228.867955 209.434798 
L 229.185 198.764217 
L 229.502045 191.848083 
L 229.819091 193.833664 
L 230.453182 205.029172 
L 230.770227 214.499993 
L 231.087273 215.462398 
L 231.404318 209.668866 
L 231.721364 208.77229 
L 232.989545 198.963256 
L 233.306591 201.203894 
L 233.940682 209.506294 
L 234.574773 204.443511 
L 234.891818 206.404833 
L 235.208864 204.139658 
L 235.842955 198.248388 
L 236.16 199.846668 
L 236.477045 196.369865 
L 236.794091 194.614395 
L 237.111136 194.142603 
L 237.428182 195.248721 
L 238.062273 208.967255 
L 238.379318 205.062541 
L 238.696364 204.934509 
L 239.013409 203.795725 
L 239.330455 203.072729 
L 239.6475 206.825563 
L 239.964545 205.031235 
L 240.281591 202.436916 
L 240.598636 203.226856 
L 241.232727 208.753605 
L 241.549773 210.438111 
L 241.866818 207.07838 
L 242.183864 207.248333 
L 242.500909 205.958086 
L 242.817955 199.203281 
L 243.135 195.440091 
L 243.769091 206.467862 
L 244.086136 206.471829 
L 244.403182 206.310927 
L 244.720227 202.543196 
L 245.037273 200.65186 
L 245.354318 205.768829 
L 245.671364 204.602867 
L 245.988409 200.687931 
L 246.305455 199.714845 
L 246.6225 198.215467 
L 246.939545 202.994298 
L 247.256591 203.804751 
L 247.573636 202.377434 
L 247.890682 202.103677 
L 248.207727 204.31845 
L 248.524773 217.688588 
L 248.841818 215.665591 
L 249.158864 216.282501 
L 249.475909 213.859463 
L 249.792955 213.981891 
L 250.11 208.714622 
L 250.427045 208.125141 
L 250.744091 206.145017 
L 251.061136 210.283813 
L 251.378182 208.51742 
L 251.695227 208.476389 
L 252.329318 217.943276 
L 252.646364 220.441274 
L 252.963409 210.467817 
L 253.5975 209.307233 
L 253.914545 209.042013 
L 254.231591 211.07848 
L 254.548636 208.811935 
L 255.182727 213.353606 
L 255.499773 212.908112 
L 255.816818 210.934855 
L 256.133864 215.54077 
L 256.450909 218.314839 
L 257.085 211.138902 
L 257.402045 211.553197 
L 257.719091 223.592387 
L 258.036136 222.618218 
L 258.353182 209.2525 
L 258.670227 209.307804 
L 258.987273 211.48026 
L 259.621364 205.736685 
L 259.938409 211.679502 
L 260.255455 213.838292 
L 260.5725 212.688222 
L 261.206591 202.370962 
L 261.523636 199.936572 
L 261.840682 200.499259 
L 262.157727 199.640948 
L 262.474773 199.619843 
L 262.791818 202.5101 
L 263.425909 215.180921 
L 263.742955 218.468849 
L 264.377045 215.89293 
L 264.694091 215.675626 
L 265.011136 210.569244 
L 265.645227 204.418546 
L 265.962273 203.894742 
L 266.279318 210.446932 
L 266.596364 210.805849 
L 266.913409 208.593452 
L 267.230455 209.585581 
L 267.5475 212.37992 
L 267.864545 209.536096 
L 268.181591 205.589064 
L 268.498636 207.263438 
L 268.815682 209.985324 
L 269.132727 216.572447 
L 269.449773 219.89491 
L 270.083864 217.057382 
L 270.400909 220.589909 
L 270.717955 221.765698 
L 271.035 216.683066 
L 271.352045 217.744321 
L 271.669091 221.079257 
L 272.303182 210.861212 
L 272.620227 210.616685 
L 272.937273 210.09089 
L 273.254318 210.837408 
L 273.571364 217.356621 
L 273.888409 221.438299 
L 274.205455 220.019061 
L 274.5225 228.969403 
L 274.839545 222.560534 
L 275.156591 219.747359 
L 275.473636 228.128655 
L 275.790682 228.641577 
L 276.107727 217.872179 
L 276.424773 213.210865 
L 276.741818 217.314831 
L 277.058864 223.751685 
L 277.375909 222.624809 
L 277.692955 223.950499 
L 278.01 223.657159 
L 278.327045 221.353129 
L 278.644091 217.139775 
L 278.961136 220.260992 
L 279.278182 229.963269 
L 279.595227 234.086777 
L 280.229318 220.256378 
L 281.180455 208.816719 
L 281.4975 207.277138 
L 281.814545 209.711808 
L 282.131591 213.659632 
L 282.448636 213.054913 
L 283.082727 225.342399 
L 283.716818 216.614603 
L 284.033864 218.351116 
L 284.350909 222.418412 
L 284.667955 228.282514 
L 284.985 229.852114 
L 285.302045 227.06873 
L 285.619091 222.943187 
L 285.936136 224.127463 
L 286.253182 227.713181 
L 286.570227 229.578822 
L 286.887273 227.551247 
L 287.204318 223.859058 
L 287.521364 223.122588 
L 287.838409 225.520571 
L 288.4725 218.286248 
L 288.789545 217.412828 
L 289.106591 212.538896 
L 289.423636 217.604462 
L 289.740682 230.452379 
L 290.057727 229.996323 
L 290.374773 229.820782 
L 290.691818 232.993803 
L 291.008864 234.917628 
L 291.325909 229.64189 
L 291.642955 218.977452 
L 291.96 216.884912 
L 292.277045 218.13633 
L 292.594091 212.004598 
L 292.911136 208.422553 
L 293.545227 217.818374 
L 293.862273 213.23142 
L 294.179318 214.845349 
L 294.496364 220.310592 
L 294.813409 228.433648 
L 295.130455 226.472793 
L 295.4475 226.506936 
L 295.764545 228.539264 
L 296.081591 225.888321 
L 296.398636 221.175186 
L 296.715682 220.996836 
L 297.032727 226.1865 
L 297.349773 238.196686 
L 297.666818 237.096662 
L 298.300909 222.265869 
L 299.252045 227.230322 
L 299.569091 230.749342 
L 299.886136 232.870954 
L 300.203182 231.723486 
L 300.520227 233.461884 
L 300.837273 232.981995 
L 301.471364 226.597732 
L 302.105455 228.579376 
L 302.4225 227.110605 
L 302.739545 227.074051 
L 303.056591 228.519793 
L 303.690682 221.499532 
L 304.007727 225.345724 
L 304.324773 224.629014 
L 304.641818 225.473192 
L 304.958864 224.949338 
L 305.275909 222.211632 
L 305.592955 231.315479 
L 305.91 233.637641 
L 306.227045 222.017449 
L 306.544091 220.324679 
L 306.861136 223.812865 
L 307.178182 220.347751 
L 307.495227 218.889513 
L 307.812273 218.97019 
L 308.129318 219.361326 
L 308.446364 220.1938 
L 308.763409 224.688188 
L 309.080455 231.040158 
L 309.3975 233.161126 
L 309.714545 233.41783 
L 310.031591 228.604859 
L 310.348636 225.775704 
L 310.665682 229.443936 
L 310.982727 228.729724 
L 311.616818 242.8858 
L 311.933864 240.817309 
L 312.250909 235.571007 
L 312.567955 235.706043 
L 312.885 237.457136 
L 313.202045 238.226771 
L 313.519091 241.229146 
L 313.836136 240.578621 
L 314.470227 231.508088 
L 314.787273 227.432465 
L 315.104318 232.49673 
L 315.421364 242.486508 
L 315.738409 239.860146 
L 316.055455 231.150976 
L 316.3725 228.850772 
L 316.689545 231.808088 
L 317.006591 235.834535 
L 317.323636 237.599831 
L 317.640682 236.402339 
L 318.274773 243.384981 
L 318.591818 240.417851 
L 318.908864 235.831096 
L 319.225909 236.220063 
L 319.542955 243.203017 
L 319.86 241.163382 
L 320.177045 241.321961 
L 320.811136 230.309669 
L 321.445227 240.572512 
L 321.762273 239.558911 
L 322.396364 224.724904 
L 323.030455 228.16888 
L 323.3475 238.720781 
L 323.664545 243.965391 
L 323.981591 244.249942 
L 324.298636 243.043646 
L 324.615682 238.009486 
L 324.932727 238.333565 
L 325.566818 254.605418 
L 326.200909 249.328726 
L 326.517955 245.83155 
L 326.835 252.253832 
L 327.152045 253.099891 
L 327.786136 249.709909 
L 328.103182 249.058275 
L 328.737273 241.426513 
L 329.054318 239.418216 
L 329.688409 249.149502 
L 330.005455 249.591133 
L 330.639545 233.750342 
L 330.956591 235.738469 
L 331.273636 240.571399 
L 331.590682 238.152851 
L 332.224773 235.150001 
L 332.541818 232.45425 
L 332.858864 232.133807 
L 333.492955 237.390707 
L 334.127045 232.501197 
L 334.444091 233.04087 
L 334.761136 235.970088 
L 335.078182 237.570256 
L 335.395227 240.580462 
L 335.712273 241.394231 
L 336.029318 244.834194 
L 336.346364 244.076196 
L 336.663409 242.332345 
L 336.980455 236.879035 
L 337.2975 234.882268 
L 337.931591 248.984515 
L 338.248636 253.749464 
L 338.565682 251.472664 
L 338.882727 250.461557 
L 339.199773 255.280235 
L 340.150909 246.059858 
L 340.467955 248.328639 
L 340.785 241.712034 
L 341.102045 240.35583 
L 341.419091 244.84427 
L 341.736136 246.812273 
L 342.370227 263.772438 
L 342.687273 262.09926 
L 343.321364 252.85543 
L 343.638409 253.127837 
L 344.2725 245.67754 
L 344.589545 246.42992 
L 344.906591 247.660905 
L 345.223636 250.546226 
L 345.540682 250.387826 
L 345.857727 246.55308 
L 346.174773 245.623706 
L 346.491818 253.998018 
L 347.125909 245.403877 
L 347.442955 245.208542 
L 347.76 243.443555 
L 348.077045 243.506009 
L 348.394091 247.423031 
L 348.711136 247.448226 
L 349.028182 246.231744 
L 349.345227 246.359558 
L 349.662273 244.668021 
L 349.979318 246.71216 
L 350.296364 255.263525 
L 350.613409 257.750471 
L 350.930455 252.100272 
L 351.2475 249.810871 
L 351.564545 253.64078 
L 351.881591 259.015567 
L 352.198636 260.946887 
L 352.832727 253.161339 
L 353.466818 243.274006 
L 353.783864 248.052392 
L 354.100909 258.562461 
L 354.417955 262.306894 
L 355.052045 247.097265 
L 355.686136 254.25637 
L 356.003182 259.891871 
L 356.320227 262.685806 
L 356.637273 264.099343 
L 356.954318 260.292367 
L 357.588409 246.757373 
L 357.905455 245.017668 
L 358.2225 245.19411 
L 358.539545 243.951038 
L 358.856591 246.939558 
L 359.173636 252.700509 
L 359.490682 256.114279 
L 359.807727 256.602081 
L 360.124773 260.259088 
L 360.758864 271.155043 
L 361.075909 265.516426 
L 361.392955 254.197522 
L 361.71 247.516385 
L 362.344091 258.248369 
L 362.661136 253.944608 
L 362.978182 254.304576 
L 363.295227 256.949879 
L 363.612273 249.912984 
L 363.929318 248.855694 
L 364.563409 254.674546 
L 364.880455 252.243084 
L 365.514545 255.285928 
L 365.831591 256.035705 
L 366.148636 267.15888 
L 366.465682 269.88286 
L 366.782727 263.619591 
L 367.416818 257.029417 
L 367.733864 257.091913 
L 368.050909 259.677882 
L 368.367955 256.133743 
L 369.319091 257.81978 
L 369.636136 261.492176 
L 370.270227 255.65932 
L 370.587273 261.280121 
L 370.904318 264.614029 
L 371.221364 261.750355 
L 371.538409 261.626434 
L 372.1725 264.990889 
L 372.806591 256.054665 
L 373.123636 257.835954 
L 373.440682 256.856688 
L 373.757727 250.71583 
L 374.074773 249.790756 
L 374.708864 262.825427 
L 375.025909 261.599944 
L 375.977045 248.79905 
L 376.294091 252.338949 
L 376.928182 267.02393 
L 377.245227 266.508164 
L 377.562273 263.07981 
L 377.879318 266.072424 
L 378.196364 266.440126 
L 378.513409 263.830046 
L 378.830455 268.95668 
L 379.1475 275.974806 
L 379.464545 273.883804 
L 379.781591 268.583832 
L 380.098636 257.157542 
L 380.415682 253.639936 
L 380.732727 256.95596 
L 381.049773 256.38345 
L 381.366818 260.251217 
L 381.683864 256.726696 
L 382.000909 256.875508 
L 382.317955 259.78057 
L 382.635 257.087092 
L 382.952045 255.995288 
L 383.269091 266.458171 
L 383.586136 273.206721 
L 383.903182 273.439373 
L 384.537273 262.244352 
L 385.171364 270.971135 
L 385.488409 272.137447 
L 385.805455 275.892361 
L 386.1225 276.924351 
L 386.439545 275.119122 
L 386.756591 268.459536 
L 387.073636 269.787295 
L 387.390682 267.544142 
L 387.707727 261.648511 
L 388.024773 259.685524 
L 388.658864 253.747207 
L 388.975909 253.801006 
L 389.61 270.149835 
L 389.927045 274.513537 
L 390.244091 272.751304 
L 390.561136 265.758207 
L 390.878182 263.477428 
L 391.195227 268.45552 
L 391.512273 266.363206 
L 391.829318 257.294318 
L 392.146364 256.412258 
L 392.463409 257.946624 
L 393.0975 261.66891 
L 393.414545 261.30186 
L 393.731591 261.489849 
L 394.048636 263.65478 
L 394.365682 269.343408 
L 394.682727 272.381804 
L 394.999773 274.035148 
L 395.316818 270.071157 
L 395.633864 270.953212 
L 395.950909 270.66281 
L 396.267955 273.167873 
L 396.585 279.604479 
L 396.902045 273.264252 
L 397.219091 270.221228 
L 397.536136 273.535359 
L 397.853182 275.160969 
L 398.170227 272.20491 
L 398.487273 292.113824 
L 398.487273 292.113824 
" clip-path="url(#pcd2100fe50)" style="fill: none; stroke: #1f77b4; stroke-width: 1.5; stroke-linecap: square"/>
   </g>
   <g id="patch_3">
    <path d="M 57.6 307.584 
L 57.6 41.472 
" style="fill: none; stroke: #000000; stroke-width: 0.8; stroke-linejoin: miter; stroke-linecap: square"/>
   </g>
   <g id="patch_4">
    <path d="M 414.72 307.584 
L 414.72 41.472 
" style="fill: none; stroke: #000000; stroke-width: 0.8; stroke-linejoin: miter; stroke-linecap: square"/>
   </g>
   <g id="patch_5">
    <path d="M 57.6 307.584 
L 414.72 307.584 
" style="fill: none; stroke: #000000; stroke-width: 0.8; stroke-linejoin: miter; stroke-linecap: square"/>
   </g>
   <g id="patch_6">
    <path d="M 57.6 41.472 
L 414.72 41.472 
" style="fill: none; stroke: #000000; stroke-width: 0.8; stroke-linejoin: miter; stroke-linecap: square"/>
   </g>
   <g id="text_17">
    <!-- Power Spektrum des EEG Signals von Kanal CZ-C4 -->
    <g transform="translate(84.965625 35.472) scale(0.12 -0.12)">
     <defs>
      <path id="DejaVuSans-50" d="M 1259 4147 
L 1259 2394 
L 2053 2394 
Q 2494 2394 2734 2622 
Q 2975 2850 2975 3272 
Q 2975 3691 2734 3919 
Q 2494 4147 2053 4147 
L 1259 4147 
z
M 628 4666 
L 2053 4666 
Q 2838 4666 3239 4311 
Q 3641 3956 3641 3272 
Q 3641 2581 3239 2228 
Q 2838 1875 2053 1875 
L 1259 1875 
L 1259 0 
L 628 0 
L 628 4666 
z
" transform="scale(0.015625)"/>
      <path id="DejaVuSans-6f" d="M 1959 3097 
Q 1497 3097 1228 2736 
Q 959 2375 959 1747 
Q 959 1119 1226 758 
Q 1494 397 1959 397 
Q 2419 397 2687 759 
Q 2956 1122 2956 1747 
Q 2956 2369 2687 2733 
Q 2419 3097 1959 3097 
z
M 1959 3584 
Q 2709 3584 3137 3096 
Q 3566 2609 3566 1747 
Q 3566 888 3137 398 
Q 2709 -91 1959 -91 
Q 1206 -91 779 398 
Q 353 888 353 1747 
Q 353 2609 779 3096 
Q 1206 3584 1959 3584 
z
" transform="scale(0.015625)"/>
      <path id="DejaVuSans-77" d="M 269 3500 
L 844 3500 
L 1563 769 
L 2278 3500 
L 2956 3500 
L 3675 769 
L 4391 3500 
L 4966 3500 
L 4050 0 
L 3372 0 
L 2619 2869 
L 1863 0 
L 1184 0 
L 269 3500 
z
" transform="scale(0.015625)"/>
      <path id="DejaVuSans-53" d="M 3425 4513 
L 3425 3897 
Q 3066 4069 2747 4153 
Q 2428 4238 2131 4238 
Q 1616 4238 1336 4038 
Q 1056 3838 1056 3469 
Q 1056 3159 1242 3001 
Q 1428 2844 1947 2747 
L 2328 2669 
Q 3034 2534 3370 2195 
Q 3706 1856 3706 1288 
Q 3706 609 3251 259 
Q 2797 -91 1919 -91 
Q 1588 -91 1214 -16 
Q 841 59 441 206 
L 441 856 
Q 825 641 1194 531 
Q 1563 422 1919 422 
Q 2459 422 2753 634 
Q 3047 847 3047 1241 
Q 3047 1584 2836 1778 
Q 2625 1972 2144 2069 
L 1759 2144 
Q 1053 2284 737 2584 
Q 422 2884 422 3419 
Q 422 4038 858 4394 
Q 1294 4750 2059 4750 
Q 2388 4750 2728 4690 
Q 3069 4631 3425 4513 
z
" transform="scale(0.015625)"/>
      <path id="DejaVuSans-70" d="M 1159 525 
L 1159 -1331 
L 581 -1331 
L 581 3500 
L 1159 3500 
L 1159 2969 
Q 1341 3281 1617 3432 
Q 1894 3584 2278 3584 
Q 2916 3584 3314 3078 
Q 3713 2572 3713 1747 
Q 3713 922 3314 415 
Q 2916 -91 2278 -91 
Q 1894 -91 1617 61 
Q 1341 213 1159 525 
z
M 3116 1747 
Q 3116 2381 2855 2742 
Q 2594 3103 2138 3103 
Q 1681 3103 1420 2742 
Q 1159 2381 1159 1747 
Q 1159 1113 1420 752 
Q 1681 391 2138 391 
Q 2594 391 2855 752 
Q 3116 1113 3116 1747 
z
" transform="scale(0.015625)"/>
      <path id="DejaVuSans-6b" d="M 581 4863 
L 1159 4863 
L 1159 1991 
L 2875 3500 
L 3609 3500 
L 1753 1863 
L 3688 0 
L 2938 0 
L 1159 1709 
L 1159 0 
L 581 0 
L 581 4863 
z
" transform="scale(0.015625)"/>
      <path id="DejaVuSans-6d" d="M 3328 2828 
Q 3544 3216 3844 3400 
Q 4144 3584 4550 3584 
Q 5097 3584 5394 3201 
Q 5691 2819 5691 2113 
L 5691 0 
L 5113 0 
L 5113 2094 
Q 5113 2597 4934 2840 
Q 4756 3084 4391 3084 
Q 3944 3084 3684 2787 
Q 3425 2491 3425 1978 
L 3425 0 
L 2847 0 
L 2847 2094 
Q 2847 2600 2669 2842 
Q 2491 3084 2119 3084 
Q 1678 3084 1418 2786 
Q 1159 2488 1159 1978 
L 1159 0 
L 581 0 
L 581 3500 
L 1159 3500 
L 1159 2956 
Q 1356 3278 1631 3431 
Q 1906 3584 2284 3584 
Q 2666 3584 2933 3390 
Q 3200 3197 3328 2828 
z
" transform="scale(0.015625)"/>
      <path id="DejaVuSans-64" d="M 2906 2969 
L 2906 4863 
L 3481 4863 
L 3481 0 
L 2906 0 
L 2906 525 
Q 2725 213 2448 61 
Q 2172 -91 1784 -91 
Q 1150 -91 751 415 
Q 353 922 353 1747 
Q 353 2572 751 3078 
Q 1150 3584 1784 3584 
Q 2172 3584 2448 3432 
Q 2725 3281 2906 2969 
z
M 947 1747 
Q 947 1113 1208 752 
Q 1469 391 1925 391 
Q 2381 391 2643 752 
Q 2906 1113 2906 1747 
Q 2906 2381 2643 2742 
Q 2381 3103 1925 3103 
Q 1469 3103 1208 2742 
Q 947 2381 947 1747 
z
" transform="scale(0.015625)"/>
      <path id="DejaVuSans-45" d="M 628 4666 
L 3578 4666 
L 3578 4134 
L 1259 4134 
L 1259 2753 
L 3481 2753 
L 3481 2222 
L 1259 2222 
L 1259 531 
L 3634 531 
L 3634 0 
L 628 0 
L 628 4666 
z
" transform="scale(0.015625)"/>
      <path id="DejaVuSans-47" d="M 3809 666 
L 3809 1919 
L 2778 1919 
L 2778 2438 
L 4434 2438 
L 4434 434 
Q 4069 175 3628 42 
Q 3188 -91 2688 -91 
Q 1594 -91 976 548 
Q 359 1188 359 2328 
Q 359 3472 976 4111 
Q 1594 4750 2688 4750 
Q 3144 4750 3555 4637 
Q 3966 4525 4313 4306 
L 4313 3634 
Q 3963 3931 3569 4081 
Q 3175 4231 2741 4231 
Q 1884 4231 1454 3753 
Q 1025 3275 1025 2328 
Q 1025 1384 1454 906 
Q 1884 428 2741 428 
Q 3075 428 3337 486 
Q 3600 544 3809 666 
z
" transform="scale(0.015625)"/>
      <path id="DejaVuSans-61" d="M 2194 1759 
Q 1497 1759 1228 1600 
Q 959 1441 959 1056 
Q 959 750 1161 570 
Q 1363 391 1709 391 
Q 2188 391 2477 730 
Q 2766 1069 2766 1631 
L 2766 1759 
L 2194 1759 
z
M 3341 1997 
L 3341 0 
L 2766 0 
L 2766 531 
Q 2569 213 2275 61 
Q 1981 -91 1556 -91 
Q 1019 -91 701 211 
Q 384 513 384 1019 
Q 384 1609 779 1909 
Q 1175 2209 1959 2209 
L 2766 2209 
L 2766 2266 
Q 2766 2663 2505 2880 
Q 2244 3097 1772 3097 
Q 1472 3097 1187 3025 
Q 903 2953 641 2809 
L 641 3341 
Q 956 3463 1253 3523 
Q 1550 3584 1831 3584 
Q 2591 3584 2966 3190 
Q 3341 2797 3341 1997 
z
" transform="scale(0.015625)"/>
      <path id="DejaVuSans-6c" d="M 603 4863 
L 1178 4863 
L 1178 0 
L 603 0 
L 603 4863 
z
" transform="scale(0.015625)"/>
      <path id="DejaVuSans-76" d="M 191 3500 
L 800 3500 
L 1894 563 
L 2988 3500 
L 3597 3500 
L 2284 0 
L 1503 0 
L 191 3500 
z
" transform="scale(0.015625)"/>
      <path id="DejaVuSans-4b" d="M 628 4666 
L 1259 4666 
L 1259 2694 
L 3353 4666 
L 4166 4666 
L 1850 2491 
L 4331 0 
L 3500 0 
L 1259 2247 
L 1259 0 
L 628 0 
L 628 4666 
z
" transform="scale(0.015625)"/>
      <path id="DejaVuSans-43" d="M 4122 4306 
L 4122 3641 
Q 3803 3938 3442 4084 
Q 3081 4231 2675 4231 
Q 1875 4231 1450 3742 
Q 1025 3253 1025 2328 
Q 1025 1406 1450 917 
Q 1875 428 2675 428 
Q 3081 428 3442 575 
Q 3803 722 4122 1019 
L 4122 359 
Q 3791 134 3420 21 
Q 3050 -91 2638 -91 
Q 1578 -91 968 557 
Q 359 1206 359 2328 
Q 359 3453 968 4101 
Q 1578 4750 2638 4750 
Q 3056 4750 3426 4639 
Q 3797 4528 4122 4306 
z
" transform="scale(0.015625)"/>
      <path id="DejaVuSans-5a" d="M 359 4666 
L 4025 4666 
L 4025 4184 
L 1075 531 
L 4097 531 
L 4097 0 
L 288 0 
L 288 481 
L 3238 4134 
L 359 4134 
L 359 4666 
z
" transform="scale(0.015625)"/>
      <path id="DejaVuSans-2d" d="M 313 2009 
L 1997 2009 
L 1997 1497 
L 313 1497 
L 313 2009 
z
" transform="scale(0.015625)"/>
      <path id="DejaVuSans-34" d="M 2419 4116 
L 825 1625 
L 2419 1625 
L 2419 4116 
z
M 2253 4666 
L 3047 4666 
L 3047 1625 
L 3713 1625 
L 3713 1100 
L 3047 1100 
L 3047 0 
L 2419 0 
L 2419 1100 
L 313 1100 
L 313 1709 
L 2253 4666 
z
" transform="scale(0.015625)"/>
     </defs>
     <use xlink:href="#DejaVuSans-50"/>
     <use xlink:href="#DejaVuSans-6f" transform="translate(56.677734 0)"/>
     <use xlink:href="#DejaVuSans-77" transform="translate(117.859375 0)"/>
     <use xlink:href="#DejaVuSans-65" transform="translate(199.646484 0)"/>
     <use xlink:href="#DejaVuSans-72" transform="translate(261.169922 0)"/>
     <use xlink:href="#DejaVuSans-20" transform="translate(302.283203 0)"/>
     <use xlink:href="#DejaVuSans-53" transform="translate(334.070312 0)"/>
     <use xlink:href="#DejaVuSans-70" transform="translate(397.546875 0)"/>
     <use xlink:href="#DejaVuSans-65" transform="translate(461.023438 0)"/>
     <use xlink:href="#DejaVuSans-6b" transform="translate(522.546875 0)"/>
     <use xlink:href="#DejaVuSans-74" transform="translate(580.457031 0)"/>
     <use xlink:href="#DejaVuSans-72" transform="translate(619.666016 0)"/>
     <use xlink:href="#DejaVuSans-75" transform="translate(660.779297 0)"/>
     <use xlink:href="#DejaVuSans-6d" transform="translate(724.158203 0)"/>
     <use xlink:href="#DejaVuSans-20" transform="translate(821.570312 0)"/>
     <use xlink:href="#DejaVuSans-64" transform="translate(853.357422 0)"/>
     <use xlink:href="#DejaVuSans-65" transform="translate(916.833984 0)"/>
     <use xlink:href="#DejaVuSans-73" transform="translate(978.357422 0)"/>
     <use xlink:href="#DejaVuSans-20" transform="translate(1030.457031 0)"/>
     <use xlink:href="#DejaVuSans-45" transform="translate(1062.244141 0)"/>
     <use xlink:href="#DejaVuSans-45" transform="translate(1125.427734 0)"/>
     <use xlink:href="#DejaVuSans-47" transform="translate(1188.611328 0)"/>
     <use xlink:href="#DejaVuSans-20" transform="translate(1266.101562 0)"/>
     <use xlink:href="#DejaVuSans-53" transform="translate(1297.888672 0)"/>
     <use xlink:href="#DejaVuSans-69" transform="translate(1361.365234 0)"/>
     <use xlink:href="#DejaVuSans-67" transform="translate(1389.148438 0)"/>
     <use xlink:href="#DejaVuSans-6e" transform="translate(1452.625 0)"/>
     <use xlink:href="#DejaVuSans-61" transform="translate(1516.003906 0)"/>
     <use xlink:href="#DejaVuSans-6c" transform="translate(1577.283203 0)"/>
     <use xlink:href="#DejaVuSans-73" transform="translate(1605.066406 0)"/>
     <use xlink:href="#DejaVuSans-20" transform="translate(1657.166016 0)"/>
     <use xlink:href="#DejaVuSans-76" transform="translate(1688.953125 0)"/>
     <use xlink:href="#DejaVuSans-6f" transform="translate(1748.132812 0)"/>
     <use xlink:href="#DejaVuSans-6e" transform="translate(1809.314453 0)"/>
     <use xlink:href="#DejaVuSans-20" transform="translate(1872.693359 0)"/>
     <use xlink:href="#DejaVuSans-4b" transform="translate(1904.480469 0)"/>
     <use xlink:href="#DejaVuSans-61" transform="translate(1968.306641 0)"/>
     <use xlink:href="#DejaVuSans-6e" transform="translate(2029.585938 0)"/>
     <use xlink:href="#DejaVuSans-61" transform="translate(2092.964844 0)"/>
     <use xlink:href="#DejaVuSans-6c" transform="translate(2154.244141 0)"/>
     <use xlink:href="#DejaVuSans-20" transform="translate(2182.027344 0)"/>
     <use xlink:href="#DejaVuSans-43" transform="translate(2213.814453 0)"/>
     <use xlink:href="#DejaVuSans-5a" transform="translate(2283.638672 0)"/>
     <use xlink:href="#DejaVuSans-2d" transform="translate(2350.394531 0)"/>
     <use xlink:href="#DejaVuSans-43" transform="translate(2386.478516 0)"/>
     <use xlink:href="#DejaVuSans-34" transform="translate(2456.302734 0)"/>
    </g>
   </g>
  </g>
 </g>
 <defs>
  <clipPath id="pcd2100fe50">
   <rect x="57.6" y="41.472" width="357.12" height="266.112"/>
  </clipPath>
 </defs>
</svg>
