<?xml version="1.0" encoding="utf-8" standalone="no"?>
<!DOCTYPE svg PUBLIC "-//W3C//DTD SVG 1.1//EN"
  "http://www.w3.org/Graphics/SVG/1.1/DTD/svg11.dtd">
<svg xmlns:xlink="http://www.w3.org/1999/xlink" width="460.8pt" height="345.6pt" viewBox="0 0 460.8 345.6" xmlns="http://www.w3.org/2000/svg" version="1.1">
 <metadata>
  <rdf:RDF xmlns:dc="http://purl.org/dc/elements/1.1/" xmlns:cc="http://creativecommons.org/ns#" xmlns:rdf="http://www.w3.org/1999/02/22-rdf-syntax-ns#">
   <cc:Work>
    <dc:type rdf:resource="http://purl.org/dc/dcmitype/StillImage"/>
    <dc:date>2025-11-02T14:34:16.413070</dc:date>
    <dc:format>image/svg+xml</dc:format>
    <dc:creator>
     <cc:Agent>
      <dc:title>Matplotlib v3.10.7, https://matplotlib.org/</dc:title>
     </cc:Agent>
    </dc:creator>
   </cc:Work>
  </rdf:RDF>
 </metadata>
 <defs>
  <style type="text/css">*{stroke-linejoin: round; stroke-linecap: butt}</style>
 </defs>
 <g id="figure_1">
  <g id="patch_1">
   <path d="M 0 345.6 
L 460.8 345.6 
L 460.8 0 
L 0 0 
z
" style="fill: #ffffff"/>
  </g>
  <g id="axes_1">
   <g id="patch_2">
    <path d="M 57.6 307.584 
L 414.72 307.584 
L 414.72 41.472 
L 57.6 41.472 
z
" style="fill: #ffffff"/>
   </g>
   <g id="matplotlib.axis_1">
    <g id="xtick_1">
     <g id="line2d_1">
      <defs>
       <path id="m4c69c0f93b" d="M 0 0 
L 0 3.5 
" style="stroke: #000000; stroke-width: 0.8"/>
      </defs>
      <g>
       <use xlink:href="#m4c69c0f93b" x="73.832727" y="307.584" style="stroke: #000000; stroke-width: 0.8"/>
      </g>
     </g>
     <g id="text_1">
      <!-- 0 -->
      <g transform="translate(70.651477 322.182437) scale(0.1 -0.1)">
       <defs>
        <path id="DejaVuSans-30" d="M 2034 4250 
Q 1547 4250 1301 3770 
Q 1056 3291 1056 2328 
Q 1056 1369 1301 889 
Q 1547 409 2034 409 
Q 2525 409 2770 889 
Q 3016 1369 3016 2328 
Q 3016 3291 2770 3770 
Q 2525 4250 2034 4250 
z
M 2034 4750 
Q 2819 4750 3233 4129 
Q 3647 3509 3647 2328 
Q 3647 1150 3233 529 
Q 2819 -91 2034 -91 
Q 1250 -91 836 529 
Q 422 1150 422 2328 
Q 422 3509 836 4129 
Q 1250 4750 2034 4750 
z
" transform="scale(0.015625)"/>
       </defs>
       <use xlink:href="#DejaVuSans-30"/>
      </g>
     </g>
    </g>
    <g id="xtick_2">
     <g id="line2d_2">
      <g>
       <use xlink:href="#m4c69c0f93b" x="114.414545" y="307.584" style="stroke: #000000; stroke-width: 0.8"/>
      </g>
     </g>
     <g id="text_2">
      <!-- 25 -->
      <g transform="translate(108.052045 322.182437) scale(0.1 -0.1)">
       <defs>
        <path id="DejaVuSans-32" d="M 1228 531 
L 3431 531 
L 3431 0 
L 469 0 
L 469 531 
Q 828 903 1448 1529 
Q 2069 2156 2228 2338 
Q 2531 2678 2651 2914 
Q 2772 3150 2772 3378 
Q 2772 3750 2511 3984 
Q 2250 4219 1831 4219 
Q 1534 4219 1204 4116 
Q 875 4013 500 3803 
L 500 4441 
Q 881 4594 1212 4672 
Q 1544 4750 1819 4750 
Q 2544 4750 2975 4387 
Q 3406 4025 3406 3419 
Q 3406 3131 3298 2873 
Q 3191 2616 2906 2266 
Q 2828 2175 2409 1742 
Q 1991 1309 1228 531 
z
" transform="scale(0.015625)"/>
        <path id="DejaVuSans-35" d="M 691 4666 
L 3169 4666 
L 3169 4134 
L 1269 4134 
L 1269 2991 
Q 1406 3038 1543 3061 
Q 1681 3084 1819 3084 
Q 2600 3084 3056 2656 
Q 3513 2228 3513 1497 
Q 3513 744 3044 326 
Q 2575 -91 1722 -91 
Q 1428 -91 1123 -41 
Q 819 9 494 109 
L 494 744 
Q 775 591 1075 516 
Q 1375 441 1709 441 
Q 2250 441 2565 725 
Q 2881 1009 2881 1497 
Q 2881 1984 2565 2268 
Q 2250 2553 1709 2553 
Q 1456 2553 1204 2497 
Q 953 2441 691 2322 
L 691 4666 
z
" transform="scale(0.015625)"/>
       </defs>
       <use xlink:href="#DejaVuSans-32"/>
       <use xlink:href="#DejaVuSans-35" transform="translate(63.623047 0)"/>
      </g>
     </g>
    </g>
    <g id="xtick_3">
     <g id="line2d_3">
      <g>
       <use xlink:href="#m4c69c0f93b" x="154.996364" y="307.584" style="stroke: #000000; stroke-width: 0.8"/>
      </g>
     </g>
     <g id="text_3">
      <!-- 50 -->
      <g transform="translate(148.633864 322.182437) scale(0.1 -0.1)">
       <use xlink:href="#DejaVuSans-35"/>
       <use xlink:href="#DejaVuSans-30" transform="translate(63.623047 0)"/>
      </g>
     </g>
    </g>
    <g id="xtick_4">
     <g id="line2d_4">
      <g>
       <use xlink:href="#m4c69c0f93b" x="195.578182" y="307.584" style="stroke: #000000; stroke-width: 0.8"/>
      </g>
     </g>
     <g id="text_4">
      <!-- 75 -->
      <g transform="translate(189.215682 322.182437) scale(0.1 -0.1)">
       <defs>
        <path id="DejaVuSans-37" d="M 525 4666 
L 3525 4666 
L 3525 4397 
L 1831 0 
L 1172 0 
L 2766 4134 
L 525 4134 
L 525 4666 
z
" transform="scale(0.015625)"/>
       </defs>
       <use xlink:href="#DejaVuSans-37"/>
       <use xlink:href="#DejaVuSans-35" transform="translate(63.623047 0)"/>
      </g>
     </g>
    </g>
    <g id="xtick_5">
     <g id="line2d_5">
      <g>
       <use xlink:href="#m4c69c0f93b" x="236.16" y="307.584" style="stroke: #000000; stroke-width: 0.8"/>
      </g>
     </g>
     <g id="text_5">
      <!-- 100 -->
      <g transform="translate(226.61625 322.182437) scale(0.1 -0.1)">
       <defs>
        <path id="DejaVuSans-31" d="M 794 531 
L 1825 531 
L 1825 4091 
L 703 3866 
L 703 4441 
L 1819 4666 
L 2450 4666 
L 2450 531 
L 3481 531 
L 3481 0 
L 794 0 
L 794 531 
z
" transform="scale(0.015625)"/>
       </defs>
       <use xlink:href="#DejaVuSans-31"/>
       <use xlink:href="#DejaVuSans-30" transform="translate(63.623047 0)"/>
       <use xlink:href="#DejaVuSans-30" transform="translate(127.246094 0)"/>
      </g>
     </g>
    </g>
    <g id="xtick_6">
     <g id="line2d_6">
      <g>
       <use xlink:href="#m4c69c0f93b" x="276.741818" y="307.584" style="stroke: #000000; stroke-width: 0.8"/>
      </g>
     </g>
     <g id="text_6">
      <!-- 125 -->
      <g transform="translate(267.198068 322.182437) scale(0.1 -0.1)">
       <use xlink:href="#DejaVuSans-31"/>
       <use xlink:href="#DejaVuSans-32" transform="translate(63.623047 0)"/>
       <use xlink:href="#DejaVuSans-35" transform="translate(127.246094 0)"/>
      </g>
     </g>
    </g>
    <g id="xtick_7">
     <g id="line2d_7">
      <g>
       <use xlink:href="#m4c69c0f93b" x="317.323636" y="307.584" style="stroke: #000000; stroke-width: 0.8"/>
      </g>
     </g>
     <g id="text_7">
      <!-- 150 -->
      <g transform="translate(307.779886 322.182437) scale(0.1 -0.1)">
       <use xlink:href="#DejaVuSans-31"/>
       <use xlink:href="#DejaVuSans-35" transform="translate(63.623047 0)"/>
       <use xlink:href="#DejaVuSans-30" transform="translate(127.246094 0)"/>
      </g>
     </g>
    </g>
    <g id="xtick_8">
     <g id="line2d_8">
      <g>
       <use xlink:href="#m4c69c0f93b" x="357.905455" y="307.584" style="stroke: #000000; stroke-width: 0.8"/>
      </g>
     </g>
     <g id="text_8">
      <!-- 175 -->
      <g transform="translate(348.361705 322.182437) scale(0.1 -0.1)">
       <use xlink:href="#DejaVuSans-31"/>
       <use xlink:href="#DejaVuSans-37" transform="translate(63.623047 0)"/>
       <use xlink:href="#DejaVuSans-35" transform="translate(127.246094 0)"/>
      </g>
     </g>
    </g>
    <g id="xtick_9">
     <g id="line2d_9">
      <g>
       <use xlink:href="#m4c69c0f93b" x="398.487273" y="307.584" style="stroke: #000000; stroke-width: 0.8"/>
      </g>
     </g>
     <g id="text_9">
      <!-- 200 -->
      <g transform="translate(388.943523 322.182437) scale(0.1 -0.1)">
       <use xlink:href="#DejaVuSans-32"/>
       <use xlink:href="#DejaVuSans-30" transform="translate(63.623047 0)"/>
       <use xlink:href="#DejaVuSans-30" transform="translate(127.246094 0)"/>
      </g>
     </g>
    </g>
    <g id="text_10">
     <!-- Frequenz in Hz -->
     <g transform="translate(199.294375 335.860562) scale(0.1 -0.1)">
      <defs>
       <path id="DejaVuSans-46" d="M 628 4666 
L 3309 4666 
L 3309 4134 
L 1259 4134 
L 1259 2759 
L 3109 2759 
L 3109 2228 
L 1259 2228 
L 1259 0 
L 628 0 
L 628 4666 
z
" transform="scale(0.015625)"/>
       <path id="DejaVuSans-72" d="M 2631 2963 
Q 2534 3019 2420 3045 
Q 2306 3072 2169 3072 
Q 1681 3072 1420 2755 
Q 1159 2438 1159 1844 
L 1159 0 
L 581 0 
L 581 3500 
L 1159 3500 
L 1159 2956 
Q 1341 3275 1631 3429 
Q 1922 3584 2338 3584 
Q 2397 3584 2469 3576 
Q 2541 3569 2628 3553 
L 2631 2963 
z
" transform="scale(0.015625)"/>
       <path id="DejaVuSans-65" d="M 3597 1894 
L 3597 1613 
L 953 1613 
Q 991 1019 1311 708 
Q 1631 397 2203 397 
Q 2534 397 2845 478 
Q 3156 559 3463 722 
L 3463 178 
Q 3153 47 2828 -22 
Q 2503 -91 2169 -91 
Q 1331 -91 842 396 
Q 353 884 353 1716 
Q 353 2575 817 3079 
Q 1281 3584 2069 3584 
Q 2775 3584 3186 3129 
Q 3597 2675 3597 1894 
z
M 3022 2063 
Q 3016 2534 2758 2815 
Q 2500 3097 2075 3097 
Q 1594 3097 1305 2825 
Q 1016 2553 972 2059 
L 3022 2063 
z
" transform="scale(0.015625)"/>
       <path id="DejaVuSans-71" d="M 947 1747 
Q 947 1113 1208 752 
Q 1469 391 1925 391 
Q 2381 391 2643 752 
Q 2906 1113 2906 1747 
Q 2906 2381 2643 2742 
Q 2381 3103 1925 3103 
Q 1469 3103 1208 2742 
Q 947 2381 947 1747 
z
M 2906 525 
Q 2725 213 2448 61 
Q 2172 -91 1784 -91 
Q 1150 -91 751 415 
Q 353 922 353 1747 
Q 353 2572 751 3078 
Q 1150 3584 1784 3584 
Q 2172 3584 2448 3432 
Q 2725 3281 2906 2969 
L 2906 3500 
L 3481 3500 
L 3481 -1331 
L 2906 -1331 
L 2906 525 
z
" transform="scale(0.015625)"/>
       <path id="DejaVuSans-75" d="M 544 1381 
L 544 3500 
L 1119 3500 
L 1119 1403 
Q 1119 906 1312 657 
Q 1506 409 1894 409 
Q 2359 409 2629 706 
Q 2900 1003 2900 1516 
L 2900 3500 
L 3475 3500 
L 3475 0 
L 2900 0 
L 2900 538 
Q 2691 219 2414 64 
Q 2138 -91 1772 -91 
Q 1169 -91 856 284 
Q 544 659 544 1381 
z
M 1991 3584 
L 1991 3584 
z
" transform="scale(0.015625)"/>
       <path id="DejaVuSans-6e" d="M 3513 2113 
L 3513 0 
L 2938 0 
L 2938 2094 
Q 2938 2591 2744 2837 
Q 2550 3084 2163 3084 
Q 1697 3084 1428 2787 
Q 1159 2491 1159 1978 
L 1159 0 
L 581 0 
L 581 3500 
L 1159 3500 
L 1159 2956 
Q 1366 3272 1645 3428 
Q 1925 3584 2291 3584 
Q 2894 3584 3203 3211 
Q 3513 2838 3513 2113 
z
" transform="scale(0.015625)"/>
       <path id="DejaVuSans-7a" d="M 353 3500 
L 3084 3500 
L 3084 2975 
L 922 459 
L 3084 459 
L 3084 0 
L 275 0 
L 275 525 
L 2438 3041 
L 353 3041 
L 353 3500 
z
" transform="scale(0.015625)"/>
       <path id="DejaVuSans-20" transform="scale(0.015625)"/>
       <path id="DejaVuSans-69" d="M 603 3500 
L 1178 3500 
L 1178 0 
L 603 0 
L 603 3500 
z
M 603 4863 
L 1178 4863 
L 1178 4134 
L 603 4134 
L 603 4863 
z
" transform="scale(0.015625)"/>
       <path id="DejaVuSans-48" d="M 628 4666 
L 1259 4666 
L 1259 2753 
L 3553 2753 
L 3553 4666 
L 4184 4666 
L 4184 0 
L 3553 0 
L 3553 2222 
L 1259 2222 
L 1259 0 
L 628 0 
L 628 4666 
z
" transform="scale(0.015625)"/>
      </defs>
      <use xlink:href="#DejaVuSans-46"/>
      <use xlink:href="#DejaVuSans-72" transform="translate(50.269531 0)"/>
      <use xlink:href="#DejaVuSans-65" transform="translate(89.132812 0)"/>
      <use xlink:href="#DejaVuSans-71" transform="translate(150.65625 0)"/>
      <use xlink:href="#DejaVuSans-75" transform="translate(214.132812 0)"/>
      <use xlink:href="#DejaVuSans-65" transform="translate(277.511719 0)"/>
      <use xlink:href="#DejaVuSans-6e" transform="translate(339.035156 0)"/>
      <use xlink:href="#DejaVuSans-7a" transform="translate(402.414062 0)"/>
      <use xlink:href="#DejaVuSans-20" transform="translate(454.904297 0)"/>
      <use xlink:href="#DejaVuSans-69" transform="translate(486.691406 0)"/>
      <use xlink:href="#DejaVuSans-6e" transform="translate(514.474609 0)"/>
      <use xlink:href="#DejaVuSans-20" transform="translate(577.853516 0)"/>
      <use xlink:href="#DejaVuSans-48" transform="translate(609.640625 0)"/>
      <use xlink:href="#DejaVuSans-7a" transform="translate(684.835938 0)"/>
     </g>
    </g>
   </g>
   <g id="matplotlib.axis_2">
    <g id="ytick_1">
     <g id="line2d_10">
      <defs>
       <path id="ma32e6d1c0c" d="M 0 0 
L -3.5 0 
" style="stroke: #000000; stroke-width: 0.8"/>
      </defs>
      <g>
       <use xlink:href="#ma32e6d1c0c" x="57.6" y="307.584" style="stroke: #000000; stroke-width: 0.8"/>
      </g>
     </g>
     <g id="text_11">
      <!-- $\mathdefault{10^{-1}}$ -->
      <g transform="translate(27.1 311.383219) scale(0.1 -0.1)">
       <defs>
        <path id="DejaVuSans-2212" d="M 678 2272 
L 4684 2272 
L 4684 1741 
L 678 1741 
L 678 2272 
z
" transform="scale(0.015625)"/>
       </defs>
       <use xlink:href="#DejaVuSans-31" transform="translate(0 0.684375)"/>
       <use xlink:href="#DejaVuSans-30" transform="translate(63.623047 0.684375)"/>
       <use xlink:href="#DejaVuSans-2212" transform="translate(128.203125 38.965625) scale(0.7)"/>
       <use xlink:href="#DejaVuSans-31" transform="translate(186.855469 38.965625) scale(0.7)"/>
      </g>
     </g>
    </g>
    <g id="ytick_2">
     <g id="line2d_11">
      <g>
       <use xlink:href="#ma32e6d1c0c" x="57.6" y="241.056" style="stroke: #000000; stroke-width: 0.8"/>
      </g>
     </g>
     <g id="text_12">
      <!-- $\mathdefault{10^{0}}$ -->
      <g transform="translate(33 244.855219) scale(0.1 -0.1)">
       <use xlink:href="#DejaVuSans-31" transform="translate(0 0.765625)"/>
       <use xlink:href="#DejaVuSans-30" transform="translate(63.623047 0.765625)"/>
       <use xlink:href="#DejaVuSans-30" transform="translate(128.203125 39.046875) scale(0.7)"/>
      </g>
     </g>
    </g>
    <g id="ytick_3">
     <g id="line2d_12">
      <g>
       <use xlink:href="#ma32e6d1c0c" x="57.6" y="174.528" style="stroke: #000000; stroke-width: 0.8"/>
      </g>
     </g>
     <g id="text_13">
      <!-- $\mathdefault{10^{1}}$ -->
      <g transform="translate(33 178.327219) scale(0.1 -0.1)">
       <use xlink:href="#DejaVuSans-31" transform="translate(0 0.684375)"/>
       <use xlink:href="#DejaVuSans-30" transform="translate(63.623047 0.684375)"/>
       <use xlink:href="#DejaVuSans-31" transform="translate(128.203125 38.965625) scale(0.7)"/>
      </g>
     </g>
    </g>
    <g id="ytick_4">
     <g id="line2d_13">
      <g>
       <use xlink:href="#ma32e6d1c0c" x="57.6" y="108" style="stroke: #000000; stroke-width: 0.8"/>
      </g>
     </g>
     <g id="text_14">
      <!-- $\mathdefault{10^{2}}$ -->
      <g transform="translate(33 111.799219) scale(0.1 -0.1)">
       <use xlink:href="#DejaVuSans-31" transform="translate(0 0.765625)"/>
       <use xlink:href="#DejaVuSans-30" transform="translate(63.623047 0.765625)"/>
       <use xlink:href="#DejaVuSans-32" transform="translate(128.203125 39.046875) scale(0.7)"/>
      </g>
     </g>
    </g>
    <g id="ytick_5">
     <g id="line2d_14">
      <g>
       <use xlink:href="#ma32e6d1c0c" x="57.6" y="41.472" style="stroke: #000000; stroke-width: 0.8"/>
      </g>
     </g>
     <g id="text_15">
      <!-- $\mathdefault{10^{3}}$ -->
      <g transform="translate(33 45.271219) scale(0.1 -0.1)">
       <defs>
        <path id="DejaVuSans-33" d="M 2597 2516 
Q 3050 2419 3304 2112 
Q 3559 1806 3559 1356 
Q 3559 666 3084 287 
Q 2609 -91 1734 -91 
Q 1441 -91 1130 -33 
Q 819 25 488 141 
L 488 750 
Q 750 597 1062 519 
Q 1375 441 1716 441 
Q 2309 441 2620 675 
Q 2931 909 2931 1356 
Q 2931 1769 2642 2001 
Q 2353 2234 1838 2234 
L 1294 2234 
L 1294 2753 
L 1863 2753 
Q 2328 2753 2575 2939 
Q 2822 3125 2822 3475 
Q 2822 3834 2567 4026 
Q 2313 4219 1838 4219 
Q 1578 4219 1281 4162 
Q 984 4106 628 3988 
L 628 4550 
Q 988 4650 1302 4700 
Q 1616 4750 1894 4750 
Q 2613 4750 3031 4423 
Q 3450 4097 3450 3541 
Q 3450 3153 3228 2886 
Q 3006 2619 2597 2516 
z
" transform="scale(0.015625)"/>
       </defs>
       <use xlink:href="#DejaVuSans-31" transform="translate(0 0.765625)"/>
       <use xlink:href="#DejaVuSans-30" transform="translate(63.623047 0.765625)"/>
       <use xlink:href="#DejaVuSans-33" transform="translate(128.203125 39.046875) scale(0.7)"/>
      </g>
     </g>
    </g>
    <g id="ytick_6">
     <g id="line2d_15">
      <defs>
       <path id="md003df3ae3" d="M 0 0 
L -2 0 
" style="stroke: #000000; stroke-width: 0.6"/>
      </defs>
      <g>
       <use xlink:href="#md003df3ae3" x="57.6" y="287.557076" style="stroke: #000000; stroke-width: 0.6"/>
      </g>
     </g>
    </g>
    <g id="ytick_7">
     <g id="line2d_16">
      <g>
       <use xlink:href="#md003df3ae3" x="57.6" y="275.842077" style="stroke: #000000; stroke-width: 0.6"/>
      </g>
     </g>
    </g>
    <g id="ytick_8">
     <g id="line2d_17">
      <g>
       <use xlink:href="#md003df3ae3" x="57.6" y="267.530153" style="stroke: #000000; stroke-width: 0.6"/>
      </g>
     </g>
    </g>
    <g id="ytick_9">
     <g id="line2d_18">
      <g>
       <use xlink:href="#md003df3ae3" x="57.6" y="261.082924" style="stroke: #000000; stroke-width: 0.6"/>
      </g>
     </g>
    </g>
    <g id="ytick_10">
     <g id="line2d_19">
      <g>
       <use xlink:href="#md003df3ae3" x="57.6" y="255.815154" style="stroke: #000000; stroke-width: 0.6"/>
      </g>
     </g>
    </g>
    <g id="ytick_11">
     <g id="line2d_20">
      <g>
       <use xlink:href="#md003df3ae3" x="57.6" y="251.361318" style="stroke: #000000; stroke-width: 0.6"/>
      </g>
     </g>
    </g>
    <g id="ytick_12">
     <g id="line2d_21">
      <g>
       <use xlink:href="#md003df3ae3" x="57.6" y="247.503229" style="stroke: #000000; stroke-width: 0.6"/>
      </g>
     </g>
    </g>
    <g id="ytick_13">
     <g id="line2d_22">
      <g>
       <use xlink:href="#md003df3ae3" x="57.6" y="244.100154" style="stroke: #000000; stroke-width: 0.6"/>
      </g>
     </g>
    </g>
    <g id="ytick_14">
     <g id="line2d_23">
      <g>
       <use xlink:href="#md003df3ae3" x="57.6" y="221.029076" style="stroke: #000000; stroke-width: 0.6"/>
      </g>
     </g>
    </g>
    <g id="ytick_15">
     <g id="line2d_24">
      <g>
       <use xlink:href="#md003df3ae3" x="57.6" y="209.314077" style="stroke: #000000; stroke-width: 0.6"/>
      </g>
     </g>
    </g>
    <g id="ytick_16">
     <g id="line2d_25">
      <g>
       <use xlink:href="#md003df3ae3" x="57.6" y="201.002153" style="stroke: #000000; stroke-width: 0.6"/>
      </g>
     </g>
    </g>
    <g id="ytick_17">
     <g id="line2d_26">
      <g>
       <use xlink:href="#md003df3ae3" x="57.6" y="194.554924" style="stroke: #000000; stroke-width: 0.6"/>
      </g>
     </g>
    </g>
    <g id="ytick_18">
     <g id="line2d_27">
      <g>
       <use xlink:href="#md003df3ae3" x="57.6" y="189.287154" style="stroke: #000000; stroke-width: 0.6"/>
      </g>
     </g>
    </g>
    <g id="ytick_19">
     <g id="line2d_28">
      <g>
       <use xlink:href="#md003df3ae3" x="57.6" y="184.833318" style="stroke: #000000; stroke-width: 0.6"/>
      </g>
     </g>
    </g>
    <g id="ytick_20">
     <g id="line2d_29">
      <g>
       <use xlink:href="#md003df3ae3" x="57.6" y="180.975229" style="stroke: #000000; stroke-width: 0.6"/>
      </g>
     </g>
    </g>
    <g id="ytick_21">
     <g id="line2d_30">
      <g>
       <use xlink:href="#md003df3ae3" x="57.6" y="177.572154" style="stroke: #000000; stroke-width: 0.6"/>
      </g>
     </g>
    </g>
    <g id="ytick_22">
     <g id="line2d_31">
      <g>
       <use xlink:href="#md003df3ae3" x="57.6" y="154.501076" style="stroke: #000000; stroke-width: 0.6"/>
      </g>
     </g>
    </g>
    <g id="ytick_23">
     <g id="line2d_32">
      <g>
       <use xlink:href="#md003df3ae3" x="57.6" y="142.786077" style="stroke: #000000; stroke-width: 0.6"/>
      </g>
     </g>
    </g>
    <g id="ytick_24">
     <g id="line2d_33">
      <g>
       <use xlink:href="#md003df3ae3" x="57.6" y="134.474153" style="stroke: #000000; stroke-width: 0.6"/>
      </g>
     </g>
    </g>
    <g id="ytick_25">
     <g id="line2d_34">
      <g>
       <use xlink:href="#md003df3ae3" x="57.6" y="128.026924" style="stroke: #000000; stroke-width: 0.6"/>
      </g>
     </g>
    </g>
    <g id="ytick_26">
     <g id="line2d_35">
      <g>
       <use xlink:href="#md003df3ae3" x="57.6" y="122.759154" style="stroke: #000000; stroke-width: 0.6"/>
      </g>
     </g>
    </g>
    <g id="ytick_27">
     <g id="line2d_36">
      <g>
       <use xlink:href="#md003df3ae3" x="57.6" y="118.305318" style="stroke: #000000; stroke-width: 0.6"/>
      </g>
     </g>
    </g>
    <g id="ytick_28">
     <g id="line2d_37">
      <g>
       <use xlink:href="#md003df3ae3" x="57.6" y="114.447229" style="stroke: #000000; stroke-width: 0.6"/>
      </g>
     </g>
    </g>
    <g id="ytick_29">
     <g id="line2d_38">
      <g>
       <use xlink:href="#md003df3ae3" x="57.6" y="111.044154" style="stroke: #000000; stroke-width: 0.6"/>
      </g>
     </g>
    </g>
    <g id="ytick_30">
     <g id="line2d_39">
      <g>
       <use xlink:href="#md003df3ae3" x="57.6" y="87.973076" style="stroke: #000000; stroke-width: 0.6"/>
      </g>
     </g>
    </g>
    <g id="ytick_31">
     <g id="line2d_40">
      <g>
       <use xlink:href="#md003df3ae3" x="57.6" y="76.258077" style="stroke: #000000; stroke-width: 0.6"/>
      </g>
     </g>
    </g>
    <g id="ytick_32">
     <g id="line2d_41">
      <g>
       <use xlink:href="#md003df3ae3" x="57.6" y="67.946153" style="stroke: #000000; stroke-width: 0.6"/>
      </g>
     </g>
    </g>
    <g id="ytick_33">
     <g id="line2d_42">
      <g>
       <use xlink:href="#md003df3ae3" x="57.6" y="61.498924" style="stroke: #000000; stroke-width: 0.6"/>
      </g>
     </g>
    </g>
    <g id="ytick_34">
     <g id="line2d_43">
      <g>
       <use xlink:href="#md003df3ae3" x="57.6" y="56.231154" style="stroke: #000000; stroke-width: 0.6"/>
      </g>
     </g>
    </g>
    <g id="ytick_35">
     <g id="line2d_44">
      <g>
       <use xlink:href="#md003df3ae3" x="57.6" y="51.777318" style="stroke: #000000; stroke-width: 0.6"/>
      </g>
     </g>
    </g>
    <g id="ytick_36">
     <g id="line2d_45">
      <g>
       <use xlink:href="#md003df3ae3" x="57.6" y="47.919229" style="stroke: #000000; stroke-width: 0.6"/>
      </g>
     </g>
    </g>
    <g id="ytick_37">
     <g id="line2d_46">
      <g>
       <use xlink:href="#md003df3ae3" x="57.6" y="44.516154" style="stroke: #000000; stroke-width: 0.6"/>
      </g>
     </g>
    </g>
    <g id="text_16">
     <!-- Leistung/Frequenz (V²/Hz) -->
     <g transform="translate(21.020312 239.182687) rotate(-90) scale(0.1 -0.1)">
      <defs>
       <path id="DejaVuSans-4c" d="M 628 4666 
L 1259 4666 
L 1259 531 
L 3531 531 
L 3531 0 
L 628 0 
L 628 4666 
z
" transform="scale(0.015625)"/>
       <path id="DejaVuSans-73" d="M 2834 3397 
L 2834 2853 
Q 2591 2978 2328 3040 
Q 2066 3103 1784 3103 
Q 1356 3103 1142 2972 
Q 928 2841 928 2578 
Q 928 2378 1081 2264 
Q 1234 2150 1697 2047 
L 1894 2003 
Q 2506 1872 2764 1633 
Q 3022 1394 3022 966 
Q 3022 478 2636 193 
Q 2250 -91 1575 -91 
Q 1294 -91 989 -36 
Q 684 19 347 128 
L 347 722 
Q 666 556 975 473 
Q 1284 391 1588 391 
Q 1994 391 2212 530 
Q 2431 669 2431 922 
Q 2431 1156 2273 1281 
Q 2116 1406 1581 1522 
L 1381 1569 
Q 847 1681 609 1914 
Q 372 2147 372 2553 
Q 372 3047 722 3315 
Q 1072 3584 1716 3584 
Q 2034 3584 2315 3537 
Q 2597 3491 2834 3397 
z
" transform="scale(0.015625)"/>
       <path id="DejaVuSans-74" d="M 1172 4494 
L 1172 3500 
L 2356 3500 
L 2356 3053 
L 1172 3053 
L 1172 1153 
Q 1172 725 1289 603 
Q 1406 481 1766 481 
L 2356 481 
L 2356 0 
L 1766 0 
Q 1100 0 847 248 
Q 594 497 594 1153 
L 594 3053 
L 172 3053 
L 172 3500 
L 594 3500 
L 594 4494 
L 1172 4494 
z
" transform="scale(0.015625)"/>
       <path id="DejaVuSans-67" d="M 2906 1791 
Q 2906 2416 2648 2759 
Q 2391 3103 1925 3103 
Q 1463 3103 1205 2759 
Q 947 2416 947 1791 
Q 947 1169 1205 825 
Q 1463 481 1925 481 
Q 2391 481 2648 825 
Q 2906 1169 2906 1791 
z
M 3481 434 
Q 3481 -459 3084 -895 
Q 2688 -1331 1869 -1331 
Q 1566 -1331 1297 -1286 
Q 1028 -1241 775 -1147 
L 775 -588 
Q 1028 -725 1275 -790 
Q 1522 -856 1778 -856 
Q 2344 -856 2625 -561 
Q 2906 -266 2906 331 
L 2906 616 
Q 2728 306 2450 153 
Q 2172 0 1784 0 
Q 1141 0 747 490 
Q 353 981 353 1791 
Q 353 2603 747 3093 
Q 1141 3584 1784 3584 
Q 2172 3584 2450 3431 
Q 2728 3278 2906 2969 
L 2906 3500 
L 3481 3500 
L 3481 434 
z
" transform="scale(0.015625)"/>
       <path id="DejaVuSans-2f" d="M 1625 4666 
L 2156 4666 
L 531 -594 
L 0 -594 
L 1625 4666 
z
" transform="scale(0.015625)"/>
       <path id="DejaVuSans-28" d="M 1984 4856 
Q 1566 4138 1362 3434 
Q 1159 2731 1159 2009 
Q 1159 1288 1364 580 
Q 1569 -128 1984 -844 
L 1484 -844 
Q 1016 -109 783 600 
Q 550 1309 550 2009 
Q 550 2706 781 3412 
Q 1013 4119 1484 4856 
L 1984 4856 
z
" transform="scale(0.015625)"/>
       <path id="DejaVuSans-56" d="M 1831 0 
L 50 4666 
L 709 4666 
L 2188 738 
L 3669 4666 
L 4325 4666 
L 2547 0 
L 1831 0 
z
" transform="scale(0.015625)"/>
       <path id="DejaVuSans-b2" d="M 838 2444 
L 2163 2444 
L 2163 2088 
L 294 2088 
L 294 2431 
Q 400 2528 597 2703 
Q 1672 3656 1672 3950 
Q 1672 4156 1509 4282 
Q 1347 4409 1081 4409 
Q 919 4409 728 4354 
Q 538 4300 313 4191 
L 313 4575 
Q 553 4663 761 4706 
Q 969 4750 1147 4750 
Q 1600 4750 1872 4544 
Q 2144 4338 2144 4000 
Q 2144 3566 1109 2678 
Q 934 2528 838 2444 
z
" transform="scale(0.015625)"/>
       <path id="DejaVuSans-29" d="M 513 4856 
L 1013 4856 
Q 1481 4119 1714 3412 
Q 1947 2706 1947 2009 
Q 1947 1309 1714 600 
Q 1481 -109 1013 -844 
L 513 -844 
Q 928 -128 1133 580 
Q 1338 1288 1338 2009 
Q 1338 2731 1133 3434 
Q 928 4138 513 4856 
z
" transform="scale(0.015625)"/>
      </defs>
      <use xlink:href="#DejaVuSans-4c"/>
      <use xlink:href="#DejaVuSans-65" transform="translate(53.962891 0)"/>
      <use xlink:href="#DejaVuSans-69" transform="translate(115.486328 0)"/>
      <use xlink:href="#DejaVuSans-73" transform="translate(143.269531 0)"/>
      <use xlink:href="#DejaVuSans-74" transform="translate(195.369141 0)"/>
      <use xlink:href="#DejaVuSans-75" transform="translate(234.578125 0)"/>
      <use xlink:href="#DejaVuSans-6e" transform="translate(297.957031 0)"/>
      <use xlink:href="#DejaVuSans-67" transform="translate(361.335938 0)"/>
      <use xlink:href="#DejaVuSans-2f" transform="translate(424.8125 0)"/>
      <use xlink:href="#DejaVuSans-46" transform="translate(458.503906 0)"/>
      <use xlink:href="#DejaVuSans-72" transform="translate(508.773438 0)"/>
      <use xlink:href="#DejaVuSans-65" transform="translate(547.636719 0)"/>
      <use xlink:href="#DejaVuSans-71" transform="translate(609.160156 0)"/>
      <use xlink:href="#DejaVuSans-75" transform="translate(672.636719 0)"/>
      <use xlink:href="#DejaVuSans-65" transform="translate(736.015625 0)"/>
      <use xlink:href="#DejaVuSans-6e" transform="translate(797.539062 0)"/>
      <use xlink:href="#DejaVuSans-7a" transform="translate(860.917969 0)"/>
      <use xlink:href="#DejaVuSans-20" transform="translate(913.408203 0)"/>
      <use xlink:href="#DejaVuSans-28" transform="translate(945.195312 0)"/>
      <use xlink:href="#DejaVuSans-56" transform="translate(984.208984 0)"/>
      <use xlink:href="#DejaVuSans-b2" transform="translate(1052.617188 0)"/>
      <use xlink:href="#DejaVuSans-2f" transform="translate(1092.705078 0)"/>
      <use xlink:href="#DejaVuSans-48" transform="translate(1126.396484 0)"/>
      <use xlink:href="#DejaVuSans-7a" transform="translate(1201.591797 0)"/>
      <use xlink:href="#DejaVuSans-29" transform="translate(1254.082031 0)"/>
     </g>
    </g>
   </g>
   <g id="line2d_47">
    <path d="M 73.832727 330.18568 
L 74.045583 346.6 
M 74.615739 346.6 
L 74.783864 281.170478 
L 75.100909 215.015101 
L 75.417955 188.910095 
L 75.735 186.130483 
L 76.052045 189.586558 
L 76.369091 188.321818 
L 76.686136 191.513115 
L 77.003182 201.041246 
L 77.320227 205.376402 
L 77.637273 207.440058 
L 77.954318 214.071855 
L 78.271364 213.611878 
L 78.588409 213.511494 
L 78.905455 220.927303 
L 79.2225 221.739474 
L 79.539545 221.545019 
L 80.807727 235.843305 
L 81.124773 233.975692 
L 81.441818 235.834732 
L 81.758864 231.263831 
L 82.075909 236.415284 
L 82.392955 237.017913 
L 83.027045 236.237625 
L 83.344091 236.153114 
L 83.661136 240.278415 
L 83.978182 240.111066 
L 84.295227 240.952537 
L 84.612273 235.800453 
L 84.929318 238.50131 
L 85.246364 243.809682 
L 85.563409 244.15775 
L 85.880455 238.730219 
L 86.1975 236.10878 
L 86.514545 235.553194 
L 87.148636 228.385944 
L 87.465682 227.349308 
L 87.782727 225.913084 
L 88.099773 233.05658 
L 88.416818 236.310497 
L 88.733864 235.461685 
L 89.050909 240.715107 
L 89.367955 237.803013 
L 89.685 230.987832 
L 90.002045 237.932921 
L 90.636136 240.287795 
L 90.953182 244.308911 
L 91.270227 242.693528 
L 91.904318 247.653478 
L 92.221364 247.876908 
L 92.538409 240.652365 
L 92.855455 236.141888 
L 93.1725 240.258156 
L 93.489545 234.64315 
L 93.806591 237.281617 
L 94.123636 238.38237 
L 94.440682 237.770786 
L 94.757727 242.733203 
L 95.074773 241.198749 
L 95.391818 244.126809 
L 95.708864 241.556118 
L 96.025909 242.000852 
L 96.342955 241.028181 
L 96.66 238.538942 
L 96.977045 234.182032 
L 97.294091 233.561433 
L 98.245227 243.034247 
L 98.562273 249.673556 
L 98.879318 249.43071 
L 99.513409 234.231679 
L 99.830455 235.05979 
L 100.1475 233.577645 
L 100.464545 237.445429 
L 100.781591 238.670068 
L 101.415682 246.017267 
L 101.732727 246.917534 
L 102.049773 247.434534 
L 102.366818 244.043071 
L 102.683864 245.794358 
L 103.000909 255.077065 
L 103.317955 258.749644 
L 103.635 265.233333 
L 103.952045 262.41482 
L 104.269091 258.1037 
L 104.586136 258.4954 
L 105.220227 262.753855 
L 105.537273 250.143764 
L 105.854318 249.345297 
L 106.488409 252.252598 
L 106.805455 258.454839 
L 107.1225 260.920944 
L 107.439545 262.422176 
L 107.756591 264.714226 
L 108.073636 262.030211 
L 108.390682 260.728881 
L 108.707727 258.640205 
L 109.024773 254.951392 
L 109.341818 256.460826 
L 110.292955 264.147478 
L 110.61 263.486457 
L 111.244091 251.580626 
L 111.561136 252.917218 
L 112.195227 261.862727 
L 112.829318 256.419891 
L 113.146364 255.24264 
L 113.463409 255.578922 
L 113.780455 249.812344 
L 114.414545 254.726912 
L 114.731591 254.252776 
L 115.048636 255.655746 
L 115.365682 253.692456 
L 115.682727 250.433892 
L 115.999773 250.044081 
L 116.316818 248.038511 
L 116.633864 249.118553 
L 116.950909 251.974652 
L 117.267955 249.285638 
L 117.585 257.375681 
L 117.902045 255.836933 
L 118.219091 250.889945 
L 118.536136 263.747045 
L 118.853182 265.506301 
L 119.170227 259.581422 
L 119.487273 250.687637 
L 119.804318 247.415983 
L 120.121364 252.252739 
L 120.438409 252.234797 
L 120.755455 253.879342 
L 121.0725 258.161069 
L 121.389545 252.184013 
L 121.706591 251.319469 
L 122.023636 250.04244 
L 122.340682 249.951887 
L 122.657727 246.741544 
L 122.974773 240.322702 
L 123.291818 241.607171 
L 123.925909 251.305907 
L 124.242955 244.307501 
L 124.56 244.044313 
L 124.877045 242.647649 
L 125.511136 246.270594 
L 125.828182 247.178375 
L 126.145227 247.589533 
L 126.462273 248.855687 
L 126.779318 249.074887 
L 127.096364 253.486762 
L 127.413409 252.84958 
L 127.730455 253.919564 
L 128.0475 249.102549 
L 128.364545 250.363475 
L 128.681591 254.117248 
L 128.998636 252.438003 
L 129.315682 251.491908 
L 129.632727 244.564239 
L 129.949773 247.219961 
L 130.266818 246.593112 
L 130.583864 247.713803 
L 130.900909 243.338208 
L 131.535 245.843633 
L 131.852045 253.618776 
L 132.486136 234.662277 
L 132.803182 232.376402 
L 133.120227 237.642767 
L 133.437273 244.957991 
L 133.754318 241.852815 
L 134.388409 232.597854 
L 134.705455 233.679614 
L 135.0225 233.59 
L 135.339545 237.996575 
L 135.656591 235.509918 
L 135.973636 238.670966 
L 136.290682 243.573284 
L 136.607727 246.170491 
L 136.924773 239.566304 
L 137.241818 241.059545 
L 137.558864 246.185165 
L 137.875909 242.886208 
L 138.192955 241.181713 
L 138.51 238.008161 
L 138.827045 239.228013 
L 139.144091 244.204207 
L 139.461136 246.636039 
L 139.778182 244.268493 
L 140.095227 237.96976 
L 140.412273 234.842146 
L 140.729318 234.864922 
L 141.046364 228.491883 
L 141.363409 225.84507 
L 141.680455 225.140334 
L 141.9975 230.499551 
L 142.314545 232.9509 
L 142.631591 231.838063 
L 142.948636 234.183167 
L 143.265682 230.049883 
L 143.582727 233.464055 
L 143.899773 234.649399 
L 144.216818 232.714541 
L 144.533864 229.731545 
L 144.850909 227.925402 
L 145.167955 235.603805 
L 145.485 231.970522 
L 145.802045 220.310323 
L 146.119091 223.580929 
L 146.436136 223.308021 
L 146.753182 225.762492 
L 147.070227 219.361157 
L 147.387273 215.308871 
L 148.021364 238.19417 
L 148.338409 236.246025 
L 148.9725 224.164192 
L 149.289545 222.299518 
L 149.606591 228.367376 
L 149.923636 225.828307 
L 150.240682 221.505989 
L 150.557727 220.892738 
L 150.874773 228.621991 
L 151.191818 229.822319 
L 151.508864 227.931922 
L 151.825909 223.404232 
L 152.142955 226.018479 
L 152.46 233.111439 
L 152.777045 229.215828 
L 153.094091 232.103879 
L 153.411136 232.379141 
L 153.728182 238.881498 
L 154.045227 236.267217 
L 154.362273 241.583267 
L 154.996364 231.152887 
L 155.313409 231.749058 
L 155.630455 230.795414 
L 155.9475 233.902709 
L 156.264545 227.429136 
L 156.581591 225.038286 
L 156.898636 224.447063 
L 157.215682 222.436118 
L 157.532727 223.89232 
L 158.166818 230.082179 
L 158.483864 224.936699 
L 158.800909 227.304426 
L 159.117955 230.979187 
L 159.752045 223.737394 
L 160.386136 231.132274 
L 160.703182 227.757485 
L 161.020227 225.690298 
L 161.971364 235.177594 
L 162.605455 224.897736 
L 162.9225 224.849882 
L 163.239545 229.934705 
L 163.556591 230.064086 
L 163.873636 225.892218 
L 164.190682 223.653893 
L 164.507727 225.547286 
L 164.824773 223.983908 
L 165.141818 223.608014 
L 165.458864 227.503262 
L 165.775909 223.474565 
L 166.092955 224.966317 
L 166.41 222.980225 
L 166.727045 222.512042 
L 167.044091 216.729063 
L 167.361136 221.846456 
L 167.995227 217.989884 
L 168.312273 222.580093 
L 168.629318 219.716972 
L 168.946364 223.468788 
L 169.580455 243.124483 
L 169.8975 238.986621 
L 170.214545 229.247701 
L 170.531591 228.992286 
L 170.848636 230.346069 
L 171.482727 221.699236 
L 171.799773 231.525862 
L 172.433864 223.761065 
L 172.750909 216.134241 
L 173.067955 213.392969 
L 173.385 218.209918 
L 173.702045 229.425327 
L 174.336136 219.744496 
L 174.653182 224.227493 
L 174.970227 220.959557 
L 175.287273 225.076621 
L 175.604318 225.295383 
L 175.921364 218.998116 
L 176.238409 216.56757 
L 176.555455 226.605404 
L 176.8725 232.992565 
L 177.189545 225.659585 
L 177.506591 214.584097 
L 177.823636 207.832526 
L 178.774773 220.717856 
L 179.408864 216.296383 
L 179.725909 216.890389 
L 180.042955 211.230233 
L 180.36 210.388733 
L 180.994091 215.490599 
L 181.311136 212.88856 
L 181.628182 213.379836 
L 182.262273 217.097945 
L 182.579318 216.676027 
L 183.213409 222.111271 
L 183.530455 217.321147 
L 183.8475 221.005033 
L 184.164545 227.176408 
L 184.481591 228.404058 
L 184.798636 227.652245 
L 185.115682 225.509263 
L 185.432727 226.509245 
L 185.749773 221.156796 
L 186.383864 232.21562 
L 187.017955 214.307028 
L 187.335 213.064221 
L 187.652045 218.210246 
L 187.969091 216.464786 
L 188.286136 216.084568 
L 188.603182 215.017672 
L 188.920227 213.350778 
L 189.237273 208.125912 
L 189.554318 208.441358 
L 189.871364 209.90447 
L 190.188409 218.335065 
L 190.505455 221.81451 
L 190.8225 213.518215 
L 191.139545 210.572928 
L 191.456591 211.186213 
L 191.773636 213.050989 
L 192.407727 220.211129 
L 192.724773 220.755703 
L 193.041818 220.0926 
L 193.358864 215.393736 
L 193.675909 217.985677 
L 193.992955 211.319738 
L 194.31 212.419415 
L 194.944091 218.182523 
L 195.261136 224.316161 
L 195.578182 224.038339 
L 195.895227 223.933118 
L 196.212273 230.623423 
L 196.529318 223.479098 
L 196.846364 223.518069 
L 197.480455 206.15338 
L 197.7975 214.727095 
L 198.114545 211.54475 
L 198.431591 216.274815 
L 198.748636 209.945689 
L 199.065682 207.764221 
L 199.382727 212.143955 
L 199.699773 212.373101 
L 200.016818 215.10994 
L 200.333864 213.056999 
L 200.650909 211.962868 
L 200.967955 209.004802 
L 201.285 210.70764 
L 201.919091 228.197161 
L 202.236136 227.573767 
L 202.553182 215.408488 
L 202.870227 210.974268 
L 203.187273 212.362688 
L 203.504318 220.270205 
L 203.821364 218.802197 
L 204.138409 218.468924 
L 204.455455 209.080916 
L 204.7725 214.010014 
L 205.089545 212.89489 
L 205.406591 213.645853 
L 206.040682 210.199843 
L 206.357727 204.241014 
L 206.674773 202.997264 
L 206.991818 199.481842 
L 207.308864 198.74626 
L 207.625909 198.750447 
L 208.26 207.760658 
L 208.577045 206.825633 
L 208.894091 207.108561 
L 209.528182 215.094803 
L 209.845227 218.750642 
L 210.162273 219.184081 
L 210.479318 219.401311 
L 210.796364 210.733824 
L 211.113409 208.790981 
L 211.430455 204.553501 
L 212.064545 215.895219 
L 212.381591 217.755958 
L 212.698636 212.662392 
L 213.015682 211.831495 
L 213.332727 209.178967 
L 213.649773 204.99254 
L 213.966818 206.359689 
L 214.283864 212.590827 
L 214.600909 210.677471 
L 214.917955 205.757472 
L 215.235 211.01822 
L 215.552045 213.760672 
L 215.869091 203.045902 
L 216.186136 201.243287 
L 216.503182 197.980152 
L 216.820227 196.271251 
L 217.137273 198.655599 
L 217.454318 203.930493 
L 217.771364 203.503044 
L 218.088409 206.109559 
L 218.405455 205.733215 
L 218.7225 205.792124 
L 219.039545 208.36818 
L 219.356591 218.434985 
L 219.673636 218.884605 
L 219.990682 214.987118 
L 220.307727 215.094838 
L 220.624773 214.346837 
L 220.941818 211.354756 
L 221.258864 213.319381 
L 221.575909 212.451904 
L 221.892955 221.677551 
L 222.21 218.957033 
L 222.527045 207.046133 
L 222.844091 202.826209 
L 223.161136 205.041093 
L 223.478182 204.191254 
L 223.795227 204.891085 
L 224.112273 205.128219 
L 224.429318 205.970102 
L 224.746364 204.728801 
L 225.063409 202.192885 
L 225.380455 196.252358 
L 226.331591 213.498264 
L 226.648636 207.484954 
L 226.965682 207.098074 
L 227.282727 203.917386 
L 227.599773 207.499852 
L 227.916818 209.442243 
L 228.233864 212.663632 
L 228.550909 207.980036 
L 228.867955 205.371635 
L 229.185 201.664374 
L 229.502045 191.736472 
L 229.819091 193.666274 
L 230.453182 209.999528 
L 230.770227 209.552023 
L 231.087273 211.048928 
L 231.404318 215.412232 
L 231.721364 217.638134 
L 232.038409 212.322136 
L 232.355455 218.844714 
L 232.6725 215.802628 
L 232.989545 217.009967 
L 233.306591 219.015773 
L 233.623636 215.078617 
L 233.940682 219.938609 
L 234.574773 211.41249 
L 234.891818 210.721895 
L 235.525909 202.326571 
L 235.842955 205.000433 
L 236.16 201.257334 
L 236.794091 205.306527 
L 237.111136 207.839754 
L 237.428182 202.663686 
L 237.745227 205.909565 
L 238.062273 197.319456 
L 238.379318 205.980196 
L 238.696364 207.32254 
L 239.330455 202.549866 
L 239.6475 201.511486 
L 240.281591 204.091783 
L 240.598636 203.035046 
L 240.915682 207.782346 
L 241.232727 210.32294 
L 241.549773 216.970435 
L 241.866818 211.064747 
L 242.183864 211.571799 
L 242.500909 202.550045 
L 242.817955 204.573177 
L 243.135 204.679003 
L 243.452045 197.240461 
L 243.769091 193.319286 
L 244.403182 206.084899 
L 244.720227 207.503665 
L 245.037273 202.312626 
L 245.354318 208.228837 
L 245.671364 206.792257 
L 245.988409 211.391217 
L 246.305455 206.098145 
L 246.939545 204.953001 
L 247.256591 205.451284 
L 247.573636 206.413401 
L 248.524773 214.895926 
L 248.841818 213.325735 
L 249.158864 217.411964 
L 249.475909 212.604909 
L 249.792955 211.192477 
L 250.11 211.341184 
L 250.427045 209.843582 
L 250.744091 206.83358 
L 251.061136 199.337338 
L 251.378182 203.719453 
L 251.695227 206.271302 
L 252.012273 204.546233 
L 252.329318 200.16697 
L 252.646364 200.13771 
L 253.280455 207.468262 
L 253.5975 208.249414 
L 253.914545 220.428672 
L 254.231591 214.454724 
L 254.548636 219.820769 
L 254.865682 213.142687 
L 255.182727 213.895544 
L 256.133864 210.1531 
L 256.450909 200.515034 
L 257.402045 212.612116 
L 257.719091 203.821647 
L 258.036136 198.978913 
L 258.353182 204.327569 
L 258.670227 212.50974 
L 258.987273 211.987473 
L 259.304318 208.653984 
L 259.621364 200.225302 
L 259.938409 204.416869 
L 260.255455 210.375029 
L 260.5725 222.137365 
L 260.889545 221.549449 
L 261.206591 222.407544 
L 261.523636 216.210912 
L 261.840682 216.305649 
L 262.157727 222.090384 
L 262.474773 216.538747 
L 262.791818 206.911184 
L 263.425909 218.673455 
L 263.742955 217.706737 
L 264.06 216.356606 
L 264.377045 210.581592 
L 264.694091 208.822417 
L 265.011136 216.570291 
L 265.328182 210.734866 
L 265.962273 212.181326 
L 266.279318 216.141698 
L 266.596364 211.257844 
L 266.913409 213.03796 
L 267.230455 215.847218 
L 267.5475 215.936473 
L 267.864545 205.62789 
L 268.181591 207.138069 
L 268.498636 206.065081 
L 268.815682 201.634421 
L 269.132727 207.037792 
L 269.449773 207.093338 
L 269.766818 216.399751 
L 270.083864 218.514754 
L 270.717955 212.060602 
L 271.035 211.020996 
L 271.352045 211.889331 
L 271.669091 206.570892 
L 271.986136 209.229572 
L 272.303182 215.491803 
L 272.620227 210.171135 
L 273.254318 214.668589 
L 273.571364 213.57403 
L 273.888409 213.985377 
L 274.205455 218.596235 
L 274.5225 212.928377 
L 274.839545 212.050628 
L 275.156591 211.828432 
L 275.473636 207.106646 
L 275.790682 206.616494 
L 276.107727 200.878418 
L 276.424773 201.55615 
L 276.741818 211.160971 
L 277.058864 209.609938 
L 277.375909 216.99267 
L 277.692955 216.074248 
L 278.01 215.932743 
L 278.327045 209.841965 
L 278.644091 214.140593 
L 278.961136 224.043644 
L 279.595227 206.822354 
L 279.912273 206.268941 
L 280.229318 215.917074 
L 280.546364 214.757281 
L 280.863409 207.085388 
L 281.4975 202.342976 
L 282.131591 207.959316 
L 282.448636 203.733844 
L 283.082727 202.63482 
L 283.399773 212.950055 
L 283.716818 216.314317 
L 284.350909 203.743991 
L 284.667955 203.880652 
L 284.985 212.698424 
L 285.619091 199.489811 
L 285.936136 202.621973 
L 286.253182 211.461242 
L 286.570227 207.303452 
L 286.887273 206.374245 
L 287.204318 205.968853 
L 287.521364 207.227597 
L 287.838409 207.850971 
L 288.155455 210.12987 
L 288.4725 214.889177 
L 289.106591 209.666573 
L 289.740682 208.483014 
L 290.374773 204.13023 
L 290.691818 202.330936 
L 291.008864 195.19481 
L 291.325909 200.005234 
L 291.642955 201.063948 
L 291.96 212.579922 
L 292.594091 215.195815 
L 292.911136 226.559336 
L 293.228182 230.773529 
L 293.545227 223.412768 
L 293.862273 219.115773 
L 294.179318 226.060684 
L 294.813409 218.310976 
L 295.130455 212.494426 
L 295.4475 219.073955 
L 295.764545 217.723679 
L 296.081591 207.392187 
L 296.398636 203.586451 
L 297.032727 218.18364 
L 297.349773 225.80234 
L 297.666818 221.429025 
L 297.983864 219.723219 
L 298.300909 219.026911 
L 298.935 226.840315 
L 299.252045 227.376874 
L 299.569091 223.155862 
L 299.886136 225.358294 
L 300.203182 224.186842 
L 300.520227 225.685347 
L 300.837273 223.440462 
L 301.154318 222.180565 
L 301.471364 217.645031 
L 301.788409 219.917904 
L 302.105455 219.603297 
L 302.739545 218.405687 
L 303.056591 222.52813 
L 303.373636 215.881631 
L 303.690682 214.334472 
L 304.007727 218.730458 
L 304.324773 225.388016 
L 304.641818 227.929747 
L 304.958864 214.922661 
L 305.275909 217.004811 
L 305.592955 220.934134 
L 305.91 226.786525 
L 306.227045 226.253671 
L 306.861136 220.301005 
L 307.178182 219.529747 
L 307.495227 215.442788 
L 307.812273 207.058001 
L 308.129318 202.046581 
L 308.763409 219.043359 
L 309.3975 216.246789 
L 309.714545 218.572543 
L 310.031591 218.405658 
L 310.348636 213.888513 
L 310.665682 216.203063 
L 310.982727 226.807576 
L 311.299773 230.827685 
L 311.616818 225.506286 
L 311.933864 214.77894 
L 312.250909 216.723723 
L 312.567955 222.110018 
L 312.885 221.573948 
L 313.519091 215.363251 
L 313.836136 218.412699 
L 314.153182 214.094883 
L 314.470227 215.04845 
L 314.787273 218.359652 
L 315.738409 208.650371 
L 316.3725 223.175025 
L 316.689545 227.766917 
L 317.006591 223.402424 
L 317.323636 216.141473 
L 317.957727 223.812116 
L 318.274773 226.023282 
L 318.591818 222.847684 
L 318.908864 211.092559 
L 319.225909 214.66132 
L 319.542955 204.868617 
L 319.86 216.06212 
L 320.177045 220.325749 
L 320.494091 222.811703 
L 320.811136 217.583455 
L 321.128182 225.160083 
L 321.762273 230.087322 
L 322.079318 221.640557 
L 322.713409 213.65292 
L 323.030455 207.87668 
L 323.3475 208.125322 
L 323.981591 220.845992 
L 324.298636 221.507823 
L 325.249773 235.41483 
L 325.566818 226.586002 
L 325.883864 227.606393 
L 326.200909 222.821906 
L 326.517955 226.350483 
L 326.835 228.33111 
L 327.469091 219.936012 
L 327.786136 219.896423 
L 328.103182 214.679375 
L 328.420227 212.279456 
L 328.737273 218.000453 
L 329.054318 218.997225 
L 329.371364 225.691496 
L 329.688409 225.817394 
L 330.005455 224.030154 
L 330.956591 220.997968 
L 331.273636 220.883308 
L 331.590682 222.433096 
L 331.907727 221.584894 
L 332.224773 217.131919 
L 332.541818 215.967463 
L 332.858864 215.241274 
L 333.175909 212.733223 
L 333.492955 218.254585 
L 333.81 217.399298 
L 334.127045 210.780886 
L 334.444091 213.58072 
L 334.761136 219.369814 
L 335.078182 212.050526 
L 335.395227 215.084989 
L 335.712273 214.638874 
L 336.346364 225.091308 
L 336.663409 223.975207 
L 336.980455 217.467286 
L 337.2975 217.620721 
L 337.614545 225.943623 
L 337.931591 223.031321 
L 338.248636 224.986412 
L 338.565682 221.25114 
L 338.882727 222.545734 
L 339.199773 225.587489 
L 339.516818 223.409529 
L 339.833864 217.926488 
L 340.150909 224.811595 
L 340.467955 224.713641 
L 340.785 222.660152 
L 341.102045 222.888828 
L 341.419091 223.545914 
L 341.736136 228.027212 
L 342.053182 228.753172 
L 342.370227 225.512482 
L 342.687273 220.380616 
L 343.004318 222.607591 
L 343.321364 226.792275 
L 343.638409 233.118943 
L 343.955455 227.32603 
L 344.2725 217.379841 
L 344.589545 212.502412 
L 344.906591 214.344283 
L 345.857727 230.307422 
L 346.174773 225.780419 
L 346.491818 231.156947 
L 346.808864 231.301685 
L 347.442955 226.210346 
L 347.76 220.068466 
L 348.077045 228.410892 
L 348.394091 233.571931 
L 348.711136 228.746484 
L 349.028182 218.679986 
L 349.345227 221.48237 
L 349.662273 220.87268 
L 349.979318 221.187619 
L 350.296364 217.104985 
L 350.613409 220.561952 
L 350.930455 226.917565 
L 351.564545 218.666477 
L 351.881591 219.62851 
L 352.198636 222.534737 
L 352.515682 219.436594 
L 352.832727 221.127878 
L 353.149773 238.100778 
L 353.466818 238.783754 
L 354.100909 228.434227 
L 354.417955 233.763189 
L 354.735 232.462822 
L 355.052045 233.914574 
L 355.369091 236.21586 
L 355.686136 228.767943 
L 356.003182 224.277524 
L 356.637273 233.816873 
L 356.954318 230.50288 
L 357.271364 223.049325 
L 357.588409 234.986989 
L 357.905455 227.762311 
L 358.2225 224.453442 
L 358.539545 231.611075 
L 358.856591 235.991007 
L 359.173636 238.138752 
L 359.490682 243.779319 
L 359.807727 252.139276 
L 360.124773 237.357754 
L 360.441818 228.887981 
L 360.758864 230.076505 
L 361.075909 234.562614 
L 361.71 230.931498 
L 362.027045 231.616623 
L 362.344091 239.203138 
L 362.661136 240.337738 
L 362.978182 231.323423 
L 363.295227 233.240367 
L 363.612273 239.921872 
L 363.929318 241.454997 
L 364.246364 241.020015 
L 364.563409 240.273432 
L 364.880455 235.466827 
L 365.1975 241.26614 
L 365.514545 243.12257 
L 366.148636 248.885513 
L 366.465682 244.164225 
L 366.782727 245.390195 
L 367.099773 240.101652 
L 367.416818 236.716651 
L 368.050909 253.881818 
L 368.367955 256.453367 
L 369.002045 238.907104 
L 369.319091 239.510601 
L 369.636136 241.658215 
L 369.953182 239.250025 
L 370.270227 241.296517 
L 370.587273 241.08623 
L 370.904318 241.397589 
L 371.221364 241.305013 
L 371.538409 248.551185 
L 371.855455 247.23265 
L 372.1725 248.390115 
L 372.489545 248.208411 
L 373.123636 246.280378 
L 373.440682 246.293382 
L 373.757727 238.787153 
L 374.074773 234.551155 
L 374.391818 239.486849 
L 374.708864 240.881092 
L 375.025909 239.562697 
L 375.342955 236.884911 
L 375.66 236.874127 
L 375.977045 240.787256 
L 376.294091 250.040648 
L 376.611136 246.267486 
L 376.928182 252.623624 
L 377.245227 254.330479 
L 377.562273 259.786757 
L 377.879318 259.023951 
L 378.196364 251.842633 
L 378.513409 255.59297 
L 379.1475 256.959019 
L 379.464545 257.314558 
L 379.781591 255.554262 
L 380.098636 259.976519 
L 380.415682 256.592505 
L 380.732727 255.244003 
L 381.049773 252.6682 
L 381.366818 259.473888 
L 381.683864 262.349653 
L 382.000909 267.306549 
L 382.317955 262.099106 
L 382.635 261.208419 
L 382.952045 259.962068 
L 383.269091 263.078936 
L 383.586136 270.587686 
L 383.903182 266.790676 
L 384.220227 266.01786 
L 384.537273 260.958829 
L 384.854318 259.712677 
L 385.171364 264.790873 
L 385.488409 265.285703 
L 385.805455 266.219106 
L 386.1225 274.382355 
L 386.439545 277.900034 
L 386.756591 277.888138 
L 387.390682 282.01598 
L 387.707727 281.315133 
L 388.024773 280.222349 
L 388.341818 287.855089 
L 388.658864 291.99701 
L 389.292955 281.656685 
L 389.61 286.747925 
L 389.927045 288.631577 
L 390.244091 289.245199 
L 390.561136 284.90903 
L 390.878182 283.849046 
L 391.195227 283.493157 
L 391.512273 283.861437 
L 391.829318 285.650371 
L 392.146364 285.487151 
L 392.463409 281.439398 
L 393.414545 297.69661 
L 393.731591 300.009647 
L 394.365682 296.463565 
L 394.682727 293.496702 
L 394.999773 294.005748 
L 395.316818 286.312733 
L 395.633864 288.795345 
L 395.950909 290.00489 
L 396.267955 303.300291 
L 396.585 302.137296 
L 396.902045 310.063771 
L 397.219091 305.47917 
L 397.536136 303.89956 
L 398.170227 292.555335 
L 398.487273 311.927947 
L 398.487273 311.927947 
" clip-path="url(#p2f4f7ef000)" style="fill: none; stroke: #1f77b4; stroke-width: 1.5; stroke-linecap: square"/>
   </g>
   <g id="patch_3">
    <path d="M 57.6 307.584 
L 57.6 41.472 
" style="fill: none; stroke: #000000; stroke-width: 0.8; stroke-linejoin: miter; stroke-linecap: square"/>
   </g>
   <g id="patch_4">
    <path d="M 414.72 307.584 
L 414.72 41.472 
" style="fill: none; stroke: #000000; stroke-width: 0.8; stroke-linejoin: miter; stroke-linecap: square"/>
   </g>
   <g id="patch_5">
    <path d="M 57.6 307.584 
L 414.72 307.584 
" style="fill: none; stroke: #000000; stroke-width: 0.8; stroke-linejoin: miter; stroke-linecap: square"/>
   </g>
   <g id="patch_6">
    <path d="M 57.6 41.472 
L 414.72 41.472 
" style="fill: none; stroke: #000000; stroke-width: 0.8; stroke-linejoin: miter; stroke-linecap: square"/>
   </g>
   <g id="text_17">
    <!-- Power Spektrum des EEG Signals von Kanal CZ-C4 -->
    <g transform="translate(84.965625 35.472) scale(0.12 -0.12)">
     <defs>
      <path id="DejaVuSans-50" d="M 1259 4147 
L 1259 2394 
L 2053 2394 
Q 2494 2394 2734 2622 
Q 2975 2850 2975 3272 
Q 2975 3691 2734 3919 
Q 2494 4147 2053 4147 
L 1259 4147 
z
M 628 4666 
L 2053 4666 
Q 2838 4666 3239 4311 
Q 3641 3956 3641 3272 
Q 3641 2581 3239 2228 
Q 2838 1875 2053 1875 
L 1259 1875 
L 1259 0 
L 628 0 
L 628 4666 
z
" transform="scale(0.015625)"/>
      <path id="DejaVuSans-6f" d="M 1959 3097 
Q 1497 3097 1228 2736 
Q 959 2375 959 1747 
Q 959 1119 1226 758 
Q 1494 397 1959 397 
Q 2419 397 2687 759 
Q 2956 1122 2956 1747 
Q 2956 2369 2687 2733 
Q 2419 3097 1959 3097 
z
M 1959 3584 
Q 2709 3584 3137 3096 
Q 3566 2609 3566 1747 
Q 3566 888 3137 398 
Q 2709 -91 1959 -91 
Q 1206 -91 779 398 
Q 353 888 353 1747 
Q 353 2609 779 3096 
Q 1206 3584 1959 3584 
z
" transform="scale(0.015625)"/>
      <path id="DejaVuSans-77" d="M 269 3500 
L 844 3500 
L 1563 769 
L 2278 3500 
L 2956 3500 
L 3675 769 
L 4391 3500 
L 4966 3500 
L 4050 0 
L 3372 0 
L 2619 2869 
L 1863 0 
L 1184 0 
L 269 3500 
z
" transform="scale(0.015625)"/>
      <path id="DejaVuSans-53" d="M 3425 4513 
L 3425 3897 
Q 3066 4069 2747 4153 
Q 2428 4238 2131 4238 
Q 1616 4238 1336 4038 
Q 1056 3838 1056 3469 
Q 1056 3159 1242 3001 
Q 1428 2844 1947 2747 
L 2328 2669 
Q 3034 2534 3370 2195 
Q 3706 1856 3706 1288 
Q 3706 609 3251 259 
Q 2797 -91 1919 -91 
Q 1588 -91 1214 -16 
Q 841 59 441 206 
L 441 856 
Q 825 641 1194 531 
Q 1563 422 1919 422 
Q 2459 422 2753 634 
Q 3047 847 3047 1241 
Q 3047 1584 2836 1778 
Q 2625 1972 2144 2069 
L 1759 2144 
Q 1053 2284 737 2584 
Q 422 2884 422 3419 
Q 422 4038 858 4394 
Q 1294 4750 2059 4750 
Q 2388 4750 2728 4690 
Q 3069 4631 3425 4513 
z
" transform="scale(0.015625)"/>
      <path id="DejaVuSans-70" d="M 1159 525 
L 1159 -1331 
L 581 -1331 
L 581 3500 
L 1159 3500 
L 1159 2969 
Q 1341 3281 1617 3432 
Q 1894 3584 2278 3584 
Q 2916 3584 3314 3078 
Q 3713 2572 3713 1747 
Q 3713 922 3314 415 
Q 2916 -91 2278 -91 
Q 1894 -91 1617 61 
Q 1341 213 1159 525 
z
M 3116 1747 
Q 3116 2381 2855 2742 
Q 2594 3103 2138 3103 
Q 1681 3103 1420 2742 
Q 1159 2381 1159 1747 
Q 1159 1113 1420 752 
Q 1681 391 2138 391 
Q 2594 391 2855 752 
Q 3116 1113 3116 1747 
z
" transform="scale(0.015625)"/>
      <path id="DejaVuSans-6b" d="M 581 4863 
L 1159 4863 
L 1159 1991 
L 2875 3500 
L 3609 3500 
L 1753 1863 
L 3688 0 
L 2938 0 
L 1159 1709 
L 1159 0 
L 581 0 
L 581 4863 
z
" transform="scale(0.015625)"/>
      <path id="DejaVuSans-6d" d="M 3328 2828 
Q 3544 3216 3844 3400 
Q 4144 3584 4550 3584 
Q 5097 3584 5394 3201 
Q 5691 2819 5691 2113 
L 5691 0 
L 5113 0 
L 5113 2094 
Q 5113 2597 4934 2840 
Q 4756 3084 4391 3084 
Q 3944 3084 3684 2787 
Q 3425 2491 3425 1978 
L 3425 0 
L 2847 0 
L 2847 2094 
Q 2847 2600 2669 2842 
Q 2491 3084 2119 3084 
Q 1678 3084 1418 2786 
Q 1159 2488 1159 1978 
L 1159 0 
L 581 0 
L 581 3500 
L 1159 3500 
L 1159 2956 
Q 1356 3278 1631 3431 
Q 1906 3584 2284 3584 
Q 2666 3584 2933 3390 
Q 3200 3197 3328 2828 
z
" transform="scale(0.015625)"/>
      <path id="DejaVuSans-64" d="M 2906 2969 
L 2906 4863 
L 3481 4863 
L 3481 0 
L 2906 0 
L 2906 525 
Q 2725 213 2448 61 
Q 2172 -91 1784 -91 
Q 1150 -91 751 415 
Q 353 922 353 1747 
Q 353 2572 751 3078 
Q 1150 3584 1784 3584 
Q 2172 3584 2448 3432 
Q 2725 3281 2906 2969 
z
M 947 1747 
Q 947 1113 1208 752 
Q 1469 391 1925 391 
Q 2381 391 2643 752 
Q 2906 1113 2906 1747 
Q 2906 2381 2643 2742 
Q 2381 3103 1925 3103 
Q 1469 3103 1208 2742 
Q 947 2381 947 1747 
z
" transform="scale(0.015625)"/>
      <path id="DejaVuSans-45" d="M 628 4666 
L 3578 4666 
L 3578 4134 
L 1259 4134 
L 1259 2753 
L 3481 2753 
L 3481 2222 
L 1259 2222 
L 1259 531 
L 3634 531 
L 3634 0 
L 628 0 
L 628 4666 
z
" transform="scale(0.015625)"/>
      <path id="DejaVuSans-47" d="M 3809 666 
L 3809 1919 
L 2778 1919 
L 2778 2438 
L 4434 2438 
L 4434 434 
Q 4069 175 3628 42 
Q 3188 -91 2688 -91 
Q 1594 -91 976 548 
Q 359 1188 359 2328 
Q 359 3472 976 4111 
Q 1594 4750 2688 4750 
Q 3144 4750 3555 4637 
Q 3966 4525 4313 4306 
L 4313 3634 
Q 3963 3931 3569 4081 
Q 3175 4231 2741 4231 
Q 1884 4231 1454 3753 
Q 1025 3275 1025 2328 
Q 1025 1384 1454 906 
Q 1884 428 2741 428 
Q 3075 428 3337 486 
Q 3600 544 3809 666 
z
" transform="scale(0.015625)"/>
      <path id="DejaVuSans-61" d="M 2194 1759 
Q 1497 1759 1228 1600 
Q 959 1441 959 1056 
Q 959 750 1161 570 
Q 1363 391 1709 391 
Q 2188 391 2477 730 
Q 2766 1069 2766 1631 
L 2766 1759 
L 2194 1759 
z
M 3341 1997 
L 3341 0 
L 2766 0 
L 2766 531 
Q 2569 213 2275 61 
Q 1981 -91 1556 -91 
Q 1019 -91 701 211 
Q 384 513 384 1019 
Q 384 1609 779 1909 
Q 1175 2209 1959 2209 
L 2766 2209 
L 2766 2266 
Q 2766 2663 2505 2880 
Q 2244 3097 1772 3097 
Q 1472 3097 1187 3025 
Q 903 2953 641 2809 
L 641 3341 
Q 956 3463 1253 3523 
Q 1550 3584 1831 3584 
Q 2591 3584 2966 3190 
Q 3341 2797 3341 1997 
z
" transform="scale(0.015625)"/>
      <path id="DejaVuSans-6c" d="M 603 4863 
L 1178 4863 
L 1178 0 
L 603 0 
L 603 4863 
z
" transform="scale(0.015625)"/>
      <path id="DejaVuSans-76" d="M 191 3500 
L 800 3500 
L 1894 563 
L 2988 3500 
L 3597 3500 
L 2284 0 
L 1503 0 
L 191 3500 
z
" transform="scale(0.015625)"/>
      <path id="DejaVuSans-4b" d="M 628 4666 
L 1259 4666 
L 1259 2694 
L 3353 4666 
L 4166 4666 
L 1850 2491 
L 4331 0 
L 3500 0 
L 1259 2247 
L 1259 0 
L 628 0 
L 628 4666 
z
" transform="scale(0.015625)"/>
      <path id="DejaVuSans-43" d="M 4122 4306 
L 4122 3641 
Q 3803 3938 3442 4084 
Q 3081 4231 2675 4231 
Q 1875 4231 1450 3742 
Q 1025 3253 1025 2328 
Q 1025 1406 1450 917 
Q 1875 428 2675 428 
Q 3081 428 3442 575 
Q 3803 722 4122 1019 
L 4122 359 
Q 3791 134 3420 21 
Q 3050 -91 2638 -91 
Q 1578 -91 968 557 
Q 359 1206 359 2328 
Q 359 3453 968 4101 
Q 1578 4750 2638 4750 
Q 3056 4750 3426 4639 
Q 3797 4528 4122 4306 
z
" transform="scale(0.015625)"/>
      <path id="DejaVuSans-5a" d="M 359 4666 
L 4025 4666 
L 4025 4184 
L 1075 531 
L 4097 531 
L 4097 0 
L 288 0 
L 288 481 
L 3238 4134 
L 359 4134 
L 359 4666 
z
" transform="scale(0.015625)"/>
      <path id="DejaVuSans-2d" d="M 313 2009 
L 1997 2009 
L 1997 1497 
L 313 1497 
L 313 2009 
z
" transform="scale(0.015625)"/>
      <path id="DejaVuSans-34" d="M 2419 4116 
L 825 1625 
L 2419 1625 
L 2419 4116 
z
M 2253 4666 
L 3047 4666 
L 3047 1625 
L 3713 1625 
L 3713 1100 
L 3047 1100 
L 3047 0 
L 2419 0 
L 2419 1100 
L 313 1100 
L 313 1709 
L 2253 4666 
z
" transform="scale(0.015625)"/>
     </defs>
     <use xlink:href="#DejaVuSans-50"/>
     <use xlink:href="#DejaVuSans-6f" transform="translate(56.677734 0)"/>
     <use xlink:href="#DejaVuSans-77" transform="translate(117.859375 0)"/>
     <use xlink:href="#DejaVuSans-65" transform="translate(199.646484 0)"/>
     <use xlink:href="#DejaVuSans-72" transform="translate(261.169922 0)"/>
     <use xlink:href="#DejaVuSans-20" transform="translate(302.283203 0)"/>
     <use xlink:href="#DejaVuSans-53" transform="translate(334.070312 0)"/>
     <use xlink:href="#DejaVuSans-70" transform="translate(397.546875 0)"/>
     <use xlink:href="#DejaVuSans-65" transform="translate(461.023438 0)"/>
     <use xlink:href="#DejaVuSans-6b" transform="translate(522.546875 0)"/>
     <use xlink:href="#DejaVuSans-74" transform="translate(580.457031 0)"/>
     <use xlink:href="#DejaVuSans-72" transform="translate(619.666016 0)"/>
     <use xlink:href="#DejaVuSans-75" transform="translate(660.779297 0)"/>
     <use xlink:href="#DejaVuSans-6d" transform="translate(724.158203 0)"/>
     <use xlink:href="#DejaVuSans-20" transform="translate(821.570312 0)"/>
     <use xlink:href="#DejaVuSans-64" transform="translate(853.357422 0)"/>
     <use xlink:href="#DejaVuSans-65" transform="translate(916.833984 0)"/>
     <use xlink:href="#DejaVuSans-73" transform="translate(978.357422 0)"/>
     <use xlink:href="#DejaVuSans-20" transform="translate(1030.457031 0)"/>
     <use xlink:href="#DejaVuSans-45" transform="translate(1062.244141 0)"/>
     <use xlink:href="#DejaVuSans-45" transform="translate(1125.427734 0)"/>
     <use xlink:href="#DejaVuSans-47" transform="translate(1188.611328 0)"/>
     <use xlink:href="#DejaVuSans-20" transform="translate(1266.101562 0)"/>
     <use xlink:href="#DejaVuSans-53" transform="translate(1297.888672 0)"/>
     <use xlink:href="#DejaVuSans-69" transform="translate(1361.365234 0)"/>
     <use xlink:href="#DejaVuSans-67" transform="translate(1389.148438 0)"/>
     <use xlink:href="#DejaVuSans-6e" transform="translate(1452.625 0)"/>
     <use xlink:href="#DejaVuSans-61" transform="translate(1516.003906 0)"/>
     <use xlink:href="#DejaVuSans-6c" transform="translate(1577.283203 0)"/>
     <use xlink:href="#DejaVuSans-73" transform="translate(1605.066406 0)"/>
     <use xlink:href="#DejaVuSans-20" transform="translate(1657.166016 0)"/>
     <use xlink:href="#DejaVuSans-76" transform="translate(1688.953125 0)"/>
     <use xlink:href="#DejaVuSans-6f" transform="translate(1748.132812 0)"/>
     <use xlink:href="#DejaVuSans-6e" transform="translate(1809.314453 0)"/>
     <use xlink:href="#DejaVuSans-20" transform="translate(1872.693359 0)"/>
     <use xlink:href="#DejaVuSans-4b" transform="translate(1904.480469 0)"/>
     <use xlink:href="#DejaVuSans-61" transform="translate(1968.306641 0)"/>
     <use xlink:href="#DejaVuSans-6e" transform="translate(2029.585938 0)"/>
     <use xlink:href="#DejaVuSans-61" transform="translate(2092.964844 0)"/>
     <use xlink:href="#DejaVuSans-6c" transform="translate(2154.244141 0)"/>
     <use xlink:href="#DejaVuSans-20" transform="translate(2182.027344 0)"/>
     <use xlink:href="#DejaVuSans-43" transform="translate(2213.814453 0)"/>
     <use xlink:href="#DejaVuSans-5a" transform="translate(2283.638672 0)"/>
     <use xlink:href="#DejaVuSans-2d" transform="translate(2350.394531 0)"/>
     <use xlink:href="#DejaVuSans-43" transform="translate(2386.478516 0)"/>
     <use xlink:href="#DejaVuSans-34" transform="translate(2456.302734 0)"/>
    </g>
   </g>
  </g>
 </g>
 <defs>
  <clipPath id="p2f4f7ef000">
   <rect x="57.6" y="41.472" width="357.12" height="266.112"/>
  </clipPath>
 </defs>
</svg>
