<?xml version="1.0" encoding="utf-8" standalone="no"?>
<!DOCTYPE svg PUBLIC "-//W3C//DTD SVG 1.1//EN"
  "http://www.w3.org/Graphics/SVG/1.1/DTD/svg11.dtd">
<svg xmlns:xlink="http://www.w3.org/1999/xlink" width="864pt" height="288pt" viewBox="0 0 864 288" xmlns="http://www.w3.org/2000/svg" version="1.1">
 <metadata>
  <rdf:RDF xmlns:dc="http://purl.org/dc/elements/1.1/" xmlns:cc="http://creativecommons.org/ns#" xmlns:rdf="http://www.w3.org/1999/02/22-rdf-syntax-ns#">
   <cc:Work>
    <dc:type rdf:resource="http://purl.org/dc/dcmitype/StillImage"/>
    <dc:date>2025-11-02T14:32:08.226158</dc:date>
    <dc:format>image/svg+xml</dc:format>
    <dc:creator>
     <cc:Agent>
      <dc:title>Matplotlib v3.10.7, https://matplotlib.org/</dc:title>
     </cc:Agent>
    </dc:creator>
   </cc:Work>
  </rdf:RDF>
 </metadata>
 <defs>
  <style type="text/css">*{stroke-linejoin: round; stroke-linecap: butt}</style>
 </defs>
 <g id="figure_1">
  <g id="patch_1">
   <path d="M 0 288 
L 864 288 
L 864 0 
L 0 0 
z
" style="fill: #ffffff"/>
  </g>
  <g id="axes_1">
   <g id="patch_2">
    <path d="M 108 256.32 
L 777.6 256.32 
L 777.6 34.56 
L 108 34.56 
z
" style="fill: #ffffff"/>
   </g>
   <g id="patch_3">
    <path d="M 306.699303 256.32 
L 328.963127 256.32 
L 328.963127 34.56 
L 306.699303 34.56 
z
" clip-path="url(#p048d4b4c4d)" style="fill: #008000; opacity: 0.3; stroke: #008000; stroke-linejoin: miter"/>
   </g>
   <g id="patch_4">
    <path d="M 586.352429 256.32 
L 689.255358 256.32 
L 689.255358 34.56 
L 586.352429 34.56 
z
" clip-path="url(#p048d4b4c4d)" style="fill: #ff0000; opacity: 0.3; stroke: #ff0000; stroke-linejoin: miter"/>
   </g>
   <g id="matplotlib.axis_1">
    <g id="xtick_1">
     <g id="line2d_1">
      <defs>
       <path id="mc0911050c5" d="M 0 0 
L 0 3.5 
" style="stroke: #000000; stroke-width: 0.8"/>
      </defs>
      <g>
       <use xlink:href="#mc0911050c5" x="138.436364" y="256.32" style="stroke: #000000; stroke-width: 0.8"/>
      </g>
     </g>
     <g id="text_1">
      <!-- 558 -->
      <g transform="translate(128.892614 270.918437) scale(0.1 -0.1)">
       <defs>
        <path id="DejaVuSans-35" d="M 691 4666 
L 3169 4666 
L 3169 4134 
L 1269 4134 
L 1269 2991 
Q 1406 3038 1543 3061 
Q 1681 3084 1819 3084 
Q 2600 3084 3056 2656 
Q 3513 2228 3513 1497 
Q 3513 744 3044 326 
Q 2575 -91 1722 -91 
Q 1428 -91 1123 -41 
Q 819 9 494 109 
L 494 744 
Q 775 591 1075 516 
Q 1375 441 1709 441 
Q 2250 441 2565 725 
Q 2881 1009 2881 1497 
Q 2881 1984 2565 2268 
Q 2250 2553 1709 2553 
Q 1456 2553 1204 2497 
Q 953 2441 691 2322 
L 691 4666 
z
" transform="scale(0.015625)"/>
        <path id="DejaVuSans-38" d="M 2034 2216 
Q 1584 2216 1326 1975 
Q 1069 1734 1069 1313 
Q 1069 891 1326 650 
Q 1584 409 2034 409 
Q 2484 409 2743 651 
Q 3003 894 3003 1313 
Q 3003 1734 2745 1975 
Q 2488 2216 2034 2216 
z
M 1403 2484 
Q 997 2584 770 2862 
Q 544 3141 544 3541 
Q 544 4100 942 4425 
Q 1341 4750 2034 4750 
Q 2731 4750 3128 4425 
Q 3525 4100 3525 3541 
Q 3525 3141 3298 2862 
Q 3072 2584 2669 2484 
Q 3125 2378 3379 2068 
Q 3634 1759 3634 1313 
Q 3634 634 3220 271 
Q 2806 -91 2034 -91 
Q 1263 -91 848 271 
Q 434 634 434 1313 
Q 434 1759 690 2068 
Q 947 2378 1403 2484 
z
M 1172 3481 
Q 1172 3119 1398 2916 
Q 1625 2713 2034 2713 
Q 2441 2713 2670 2916 
Q 2900 3119 2900 3481 
Q 2900 3844 2670 4047 
Q 2441 4250 2034 4250 
Q 1625 4250 1398 4047 
Q 1172 3844 1172 3481 
z
" transform="scale(0.015625)"/>
       </defs>
       <use xlink:href="#DejaVuSans-35"/>
       <use xlink:href="#DejaVuSans-35" transform="translate(63.623047 0)"/>
       <use xlink:href="#DejaVuSans-38" transform="translate(127.246094 0)"/>
      </g>
     </g>
    </g>
    <g id="xtick_2">
     <g id="line2d_2">
      <g>
       <use xlink:href="#mc0911050c5" x="239.958591" y="256.32" style="stroke: #000000; stroke-width: 0.8"/>
      </g>
     </g>
     <g id="text_2">
      <!-- 559 -->
      <g transform="translate(230.414841 270.918437) scale(0.1 -0.1)">
       <defs>
        <path id="DejaVuSans-39" d="M 703 97 
L 703 672 
Q 941 559 1184 500 
Q 1428 441 1663 441 
Q 2288 441 2617 861 
Q 2947 1281 2994 2138 
Q 2813 1869 2534 1725 
Q 2256 1581 1919 1581 
Q 1219 1581 811 2004 
Q 403 2428 403 3163 
Q 403 3881 828 4315 
Q 1253 4750 1959 4750 
Q 2769 4750 3195 4129 
Q 3622 3509 3622 2328 
Q 3622 1225 3098 567 
Q 2575 -91 1691 -91 
Q 1453 -91 1209 -44 
Q 966 3 703 97 
z
M 1959 2075 
Q 2384 2075 2632 2365 
Q 2881 2656 2881 3163 
Q 2881 3666 2632 3958 
Q 2384 4250 1959 4250 
Q 1534 4250 1286 3958 
Q 1038 3666 1038 3163 
Q 1038 2656 1286 2365 
Q 1534 2075 1959 2075 
z
" transform="scale(0.015625)"/>
       </defs>
       <use xlink:href="#DejaVuSans-35"/>
       <use xlink:href="#DejaVuSans-35" transform="translate(63.623047 0)"/>
       <use xlink:href="#DejaVuSans-39" transform="translate(127.246094 0)"/>
      </g>
     </g>
    </g>
    <g id="xtick_3">
     <g id="line2d_3">
      <g>
       <use xlink:href="#mc0911050c5" x="341.480818" y="256.32" style="stroke: #000000; stroke-width: 0.8"/>
      </g>
     </g>
     <g id="text_3">
      <!-- 560 -->
      <g transform="translate(331.937068 270.918437) scale(0.1 -0.1)">
       <defs>
        <path id="DejaVuSans-36" d="M 2113 2584 
Q 1688 2584 1439 2293 
Q 1191 2003 1191 1497 
Q 1191 994 1439 701 
Q 1688 409 2113 409 
Q 2538 409 2786 701 
Q 3034 994 3034 1497 
Q 3034 2003 2786 2293 
Q 2538 2584 2113 2584 
z
M 3366 4563 
L 3366 3988 
Q 3128 4100 2886 4159 
Q 2644 4219 2406 4219 
Q 1781 4219 1451 3797 
Q 1122 3375 1075 2522 
Q 1259 2794 1537 2939 
Q 1816 3084 2150 3084 
Q 2853 3084 3261 2657 
Q 3669 2231 3669 1497 
Q 3669 778 3244 343 
Q 2819 -91 2113 -91 
Q 1303 -91 875 529 
Q 447 1150 447 2328 
Q 447 3434 972 4092 
Q 1497 4750 2381 4750 
Q 2619 4750 2861 4703 
Q 3103 4656 3366 4563 
z
" transform="scale(0.015625)"/>
        <path id="DejaVuSans-30" d="M 2034 4250 
Q 1547 4250 1301 3770 
Q 1056 3291 1056 2328 
Q 1056 1369 1301 889 
Q 1547 409 2034 409 
Q 2525 409 2770 889 
Q 3016 1369 3016 2328 
Q 3016 3291 2770 3770 
Q 2525 4250 2034 4250 
z
M 2034 4750 
Q 2819 4750 3233 4129 
Q 3647 3509 3647 2328 
Q 3647 1150 3233 529 
Q 2819 -91 2034 -91 
Q 1250 -91 836 529 
Q 422 1150 422 2328 
Q 422 3509 836 4129 
Q 1250 4750 2034 4750 
z
" transform="scale(0.015625)"/>
       </defs>
       <use xlink:href="#DejaVuSans-35"/>
       <use xlink:href="#DejaVuSans-36" transform="translate(63.623047 0)"/>
       <use xlink:href="#DejaVuSans-30" transform="translate(127.246094 0)"/>
      </g>
     </g>
    </g>
    <g id="xtick_4">
     <g id="line2d_4">
      <g>
       <use xlink:href="#mc0911050c5" x="443.003044" y="256.32" style="stroke: #000000; stroke-width: 0.8"/>
      </g>
     </g>
     <g id="text_4">
      <!-- 561 -->
      <g transform="translate(433.459294 270.918437) scale(0.1 -0.1)">
       <defs>
        <path id="DejaVuSans-31" d="M 794 531 
L 1825 531 
L 1825 4091 
L 703 3866 
L 703 4441 
L 1819 4666 
L 2450 4666 
L 2450 531 
L 3481 531 
L 3481 0 
L 794 0 
L 794 531 
z
" transform="scale(0.015625)"/>
       </defs>
       <use xlink:href="#DejaVuSans-35"/>
       <use xlink:href="#DejaVuSans-36" transform="translate(63.623047 0)"/>
       <use xlink:href="#DejaVuSans-31" transform="translate(127.246094 0)"/>
      </g>
     </g>
    </g>
    <g id="xtick_5">
     <g id="line2d_5">
      <g>
       <use xlink:href="#mc0911050c5" x="544.525271" y="256.32" style="stroke: #000000; stroke-width: 0.8"/>
      </g>
     </g>
     <g id="text_5">
      <!-- 562 -->
      <g transform="translate(534.981521 270.918437) scale(0.1 -0.1)">
       <defs>
        <path id="DejaVuSans-32" d="M 1228 531 
L 3431 531 
L 3431 0 
L 469 0 
L 469 531 
Q 828 903 1448 1529 
Q 2069 2156 2228 2338 
Q 2531 2678 2651 2914 
Q 2772 3150 2772 3378 
Q 2772 3750 2511 3984 
Q 2250 4219 1831 4219 
Q 1534 4219 1204 4116 
Q 875 4013 500 3803 
L 500 4441 
Q 881 4594 1212 4672 
Q 1544 4750 1819 4750 
Q 2544 4750 2975 4387 
Q 3406 4025 3406 3419 
Q 3406 3131 3298 2873 
Q 3191 2616 2906 2266 
Q 2828 2175 2409 1742 
Q 1991 1309 1228 531 
z
" transform="scale(0.015625)"/>
       </defs>
       <use xlink:href="#DejaVuSans-35"/>
       <use xlink:href="#DejaVuSans-36" transform="translate(63.623047 0)"/>
       <use xlink:href="#DejaVuSans-32" transform="translate(127.246094 0)"/>
      </g>
     </g>
    </g>
    <g id="xtick_6">
     <g id="line2d_6">
      <g>
       <use xlink:href="#mc0911050c5" x="646.047498" y="256.32" style="stroke: #000000; stroke-width: 0.8"/>
      </g>
     </g>
     <g id="text_6">
      <!-- 563 -->
      <g transform="translate(636.503748 270.918437) scale(0.1 -0.1)">
       <defs>
        <path id="DejaVuSans-33" d="M 2597 2516 
Q 3050 2419 3304 2112 
Q 3559 1806 3559 1356 
Q 3559 666 3084 287 
Q 2609 -91 1734 -91 
Q 1441 -91 1130 -33 
Q 819 25 488 141 
L 488 750 
Q 750 597 1062 519 
Q 1375 441 1716 441 
Q 2309 441 2620 675 
Q 2931 909 2931 1356 
Q 2931 1769 2642 2001 
Q 2353 2234 1838 2234 
L 1294 2234 
L 1294 2753 
L 1863 2753 
Q 2328 2753 2575 2939 
Q 2822 3125 2822 3475 
Q 2822 3834 2567 4026 
Q 2313 4219 1838 4219 
Q 1578 4219 1281 4162 
Q 984 4106 628 3988 
L 628 4550 
Q 988 4650 1302 4700 
Q 1616 4750 1894 4750 
Q 2613 4750 3031 4423 
Q 3450 4097 3450 3541 
Q 3450 3153 3228 2886 
Q 3006 2619 2597 2516 
z
" transform="scale(0.015625)"/>
       </defs>
       <use xlink:href="#DejaVuSans-35"/>
       <use xlink:href="#DejaVuSans-36" transform="translate(63.623047 0)"/>
       <use xlink:href="#DejaVuSans-33" transform="translate(127.246094 0)"/>
      </g>
     </g>
    </g>
    <g id="xtick_7">
     <g id="line2d_7">
      <g>
       <use xlink:href="#mc0911050c5" x="747.569725" y="256.32" style="stroke: #000000; stroke-width: 0.8"/>
      </g>
     </g>
     <g id="text_7">
      <!-- 564 -->
      <g transform="translate(738.025975 270.918437) scale(0.1 -0.1)">
       <defs>
        <path id="DejaVuSans-34" d="M 2419 4116 
L 825 1625 
L 2419 1625 
L 2419 4116 
z
M 2253 4666 
L 3047 4666 
L 3047 1625 
L 3713 1625 
L 3713 1100 
L 3047 1100 
L 3047 0 
L 2419 0 
L 2419 1100 
L 313 1100 
L 313 1709 
L 2253 4666 
z
" transform="scale(0.015625)"/>
       </defs>
       <use xlink:href="#DejaVuSans-35"/>
       <use xlink:href="#DejaVuSans-36" transform="translate(63.623047 0)"/>
       <use xlink:href="#DejaVuSans-34" transform="translate(127.246094 0)"/>
      </g>
     </g>
    </g>
    <g id="text_8">
     <!-- Sekunde -->
     <g transform="translate(421.221875 284.596563) scale(0.1 -0.1)">
      <defs>
       <path id="DejaVuSans-53" d="M 3425 4513 
L 3425 3897 
Q 3066 4069 2747 4153 
Q 2428 4238 2131 4238 
Q 1616 4238 1336 4038 
Q 1056 3838 1056 3469 
Q 1056 3159 1242 3001 
Q 1428 2844 1947 2747 
L 2328 2669 
Q 3034 2534 3370 2195 
Q 3706 1856 3706 1288 
Q 3706 609 3251 259 
Q 2797 -91 1919 -91 
Q 1588 -91 1214 -16 
Q 841 59 441 206 
L 441 856 
Q 825 641 1194 531 
Q 1563 422 1919 422 
Q 2459 422 2753 634 
Q 3047 847 3047 1241 
Q 3047 1584 2836 1778 
Q 2625 1972 2144 2069 
L 1759 2144 
Q 1053 2284 737 2584 
Q 422 2884 422 3419 
Q 422 4038 858 4394 
Q 1294 4750 2059 4750 
Q 2388 4750 2728 4690 
Q 3069 4631 3425 4513 
z
" transform="scale(0.015625)"/>
       <path id="DejaVuSans-65" d="M 3597 1894 
L 3597 1613 
L 953 1613 
Q 991 1019 1311 708 
Q 1631 397 2203 397 
Q 2534 397 2845 478 
Q 3156 559 3463 722 
L 3463 178 
Q 3153 47 2828 -22 
Q 2503 -91 2169 -91 
Q 1331 -91 842 396 
Q 353 884 353 1716 
Q 353 2575 817 3079 
Q 1281 3584 2069 3584 
Q 2775 3584 3186 3129 
Q 3597 2675 3597 1894 
z
M 3022 2063 
Q 3016 2534 2758 2815 
Q 2500 3097 2075 3097 
Q 1594 3097 1305 2825 
Q 1016 2553 972 2059 
L 3022 2063 
z
" transform="scale(0.015625)"/>
       <path id="DejaVuSans-6b" d="M 581 4863 
L 1159 4863 
L 1159 1991 
L 2875 3500 
L 3609 3500 
L 1753 1863 
L 3688 0 
L 2938 0 
L 1159 1709 
L 1159 0 
L 581 0 
L 581 4863 
z
" transform="scale(0.015625)"/>
       <path id="DejaVuSans-75" d="M 544 1381 
L 544 3500 
L 1119 3500 
L 1119 1403 
Q 1119 906 1312 657 
Q 1506 409 1894 409 
Q 2359 409 2629 706 
Q 2900 1003 2900 1516 
L 2900 3500 
L 3475 3500 
L 3475 0 
L 2900 0 
L 2900 538 
Q 2691 219 2414 64 
Q 2138 -91 1772 -91 
Q 1169 -91 856 284 
Q 544 659 544 1381 
z
M 1991 3584 
L 1991 3584 
z
" transform="scale(0.015625)"/>
       <path id="DejaVuSans-6e" d="M 3513 2113 
L 3513 0 
L 2938 0 
L 2938 2094 
Q 2938 2591 2744 2837 
Q 2550 3084 2163 3084 
Q 1697 3084 1428 2787 
Q 1159 2491 1159 1978 
L 1159 0 
L 581 0 
L 581 3500 
L 1159 3500 
L 1159 2956 
Q 1366 3272 1645 3428 
Q 1925 3584 2291 3584 
Q 2894 3584 3203 3211 
Q 3513 2838 3513 2113 
z
" transform="scale(0.015625)"/>
       <path id="DejaVuSans-64" d="M 2906 2969 
L 2906 4863 
L 3481 4863 
L 3481 0 
L 2906 0 
L 2906 525 
Q 2725 213 2448 61 
Q 2172 -91 1784 -91 
Q 1150 -91 751 415 
Q 353 922 353 1747 
Q 353 2572 751 3078 
Q 1150 3584 1784 3584 
Q 2172 3584 2448 3432 
Q 2725 3281 2906 2969 
z
M 947 1747 
Q 947 1113 1208 752 
Q 1469 391 1925 391 
Q 2381 391 2643 752 
Q 2906 1113 2906 1747 
Q 2906 2381 2643 2742 
Q 2381 3103 1925 3103 
Q 1469 3103 1208 2742 
Q 947 2381 947 1747 
z
" transform="scale(0.015625)"/>
      </defs>
      <use xlink:href="#DejaVuSans-53"/>
      <use xlink:href="#DejaVuSans-65" transform="translate(63.476562 0)"/>
      <use xlink:href="#DejaVuSans-6b" transform="translate(125 0)"/>
      <use xlink:href="#DejaVuSans-75" transform="translate(179.785156 0)"/>
      <use xlink:href="#DejaVuSans-6e" transform="translate(243.164062 0)"/>
      <use xlink:href="#DejaVuSans-64" transform="translate(306.542969 0)"/>
      <use xlink:href="#DejaVuSans-65" transform="translate(370.019531 0)"/>
     </g>
    </g>
   </g>
   <g id="matplotlib.axis_2">
    <g id="ytick_1">
     <g id="line2d_8">
      <defs>
       <path id="m6eeb830e55" d="M 0 0 
L -3.5 0 
" style="stroke: #000000; stroke-width: 0.8"/>
      </defs>
      <g>
       <use xlink:href="#m6eeb830e55" x="108" y="247.710272" style="stroke: #000000; stroke-width: 0.8"/>
      </g>
     </g>
     <g id="text_9">
      <!-- 0 -->
      <g transform="translate(94.6375 251.509491) scale(0.1 -0.1)">
       <use xlink:href="#DejaVuSans-30"/>
      </g>
     </g>
    </g>
    <g id="ytick_2">
     <g id="line2d_9">
      <g>
       <use xlink:href="#m6eeb830e55" x="108" y="201.347582" style="stroke: #000000; stroke-width: 0.8"/>
      </g>
     </g>
     <g id="text_10">
      <!-- 20 -->
      <g transform="translate(88.275 205.1468) scale(0.1 -0.1)">
       <use xlink:href="#DejaVuSans-32"/>
       <use xlink:href="#DejaVuSans-30" transform="translate(63.623047 0)"/>
      </g>
     </g>
    </g>
    <g id="ytick_3">
     <g id="line2d_10">
      <g>
       <use xlink:href="#m6eeb830e55" x="108" y="154.984891" style="stroke: #000000; stroke-width: 0.8"/>
      </g>
     </g>
     <g id="text_11">
      <!-- 40 -->
      <g transform="translate(88.275 158.78411) scale(0.1 -0.1)">
       <use xlink:href="#DejaVuSans-34"/>
       <use xlink:href="#DejaVuSans-30" transform="translate(63.623047 0)"/>
      </g>
     </g>
    </g>
    <g id="ytick_4">
     <g id="line2d_11">
      <g>
       <use xlink:href="#m6eeb830e55" x="108" y="108.6222" style="stroke: #000000; stroke-width: 0.8"/>
      </g>
     </g>
     <g id="text_12">
      <!-- 60 -->
      <g transform="translate(88.275 112.421419) scale(0.1 -0.1)">
       <use xlink:href="#DejaVuSans-36"/>
       <use xlink:href="#DejaVuSans-30" transform="translate(63.623047 0)"/>
      </g>
     </g>
    </g>
    <g id="ytick_5">
     <g id="line2d_12">
      <g>
       <use xlink:href="#m6eeb830e55" x="108" y="62.25951" style="stroke: #000000; stroke-width: 0.8"/>
      </g>
     </g>
     <g id="text_13">
      <!-- 80 -->
      <g transform="translate(88.275 66.058728) scale(0.1 -0.1)">
       <use xlink:href="#DejaVuSans-38"/>
       <use xlink:href="#DejaVuSans-30" transform="translate(63.623047 0)"/>
      </g>
     </g>
    </g>
    <g id="text_14">
     <!-- Amplitude in µV -->
     <g transform="translate(82.195312 185.400156) rotate(-90) scale(0.1 -0.1)">
      <defs>
       <path id="DejaVuSans-41" d="M 2188 4044 
L 1331 1722 
L 3047 1722 
L 2188 4044 
z
M 1831 4666 
L 2547 4666 
L 4325 0 
L 3669 0 
L 3244 1197 
L 1141 1197 
L 716 0 
L 50 0 
L 1831 4666 
z
" transform="scale(0.015625)"/>
       <path id="DejaVuSans-6d" d="M 3328 2828 
Q 3544 3216 3844 3400 
Q 4144 3584 4550 3584 
Q 5097 3584 5394 3201 
Q 5691 2819 5691 2113 
L 5691 0 
L 5113 0 
L 5113 2094 
Q 5113 2597 4934 2840 
Q 4756 3084 4391 3084 
Q 3944 3084 3684 2787 
Q 3425 2491 3425 1978 
L 3425 0 
L 2847 0 
L 2847 2094 
Q 2847 2600 2669 2842 
Q 2491 3084 2119 3084 
Q 1678 3084 1418 2786 
Q 1159 2488 1159 1978 
L 1159 0 
L 581 0 
L 581 3500 
L 1159 3500 
L 1159 2956 
Q 1356 3278 1631 3431 
Q 1906 3584 2284 3584 
Q 2666 3584 2933 3390 
Q 3200 3197 3328 2828 
z
" transform="scale(0.015625)"/>
       <path id="DejaVuSans-70" d="M 1159 525 
L 1159 -1331 
L 581 -1331 
L 581 3500 
L 1159 3500 
L 1159 2969 
Q 1341 3281 1617 3432 
Q 1894 3584 2278 3584 
Q 2916 3584 3314 3078 
Q 3713 2572 3713 1747 
Q 3713 922 3314 415 
Q 2916 -91 2278 -91 
Q 1894 -91 1617 61 
Q 1341 213 1159 525 
z
M 3116 1747 
Q 3116 2381 2855 2742 
Q 2594 3103 2138 3103 
Q 1681 3103 1420 2742 
Q 1159 2381 1159 1747 
Q 1159 1113 1420 752 
Q 1681 391 2138 391 
Q 2594 391 2855 752 
Q 3116 1113 3116 1747 
z
" transform="scale(0.015625)"/>
       <path id="DejaVuSans-6c" d="M 603 4863 
L 1178 4863 
L 1178 0 
L 603 0 
L 603 4863 
z
" transform="scale(0.015625)"/>
       <path id="DejaVuSans-69" d="M 603 3500 
L 1178 3500 
L 1178 0 
L 603 0 
L 603 3500 
z
M 603 4863 
L 1178 4863 
L 1178 4134 
L 603 4134 
L 603 4863 
z
" transform="scale(0.015625)"/>
       <path id="DejaVuSans-74" d="M 1172 4494 
L 1172 3500 
L 2356 3500 
L 2356 3053 
L 1172 3053 
L 1172 1153 
Q 1172 725 1289 603 
Q 1406 481 1766 481 
L 2356 481 
L 2356 0 
L 1766 0 
Q 1100 0 847 248 
Q 594 497 594 1153 
L 594 3053 
L 172 3053 
L 172 3500 
L 594 3500 
L 594 4494 
L 1172 4494 
z
" transform="scale(0.015625)"/>
       <path id="DejaVuSans-20" transform="scale(0.015625)"/>
       <path id="DejaVuSans-b5" d="M 544 -1331 
L 544 3500 
L 1119 3500 
L 1119 1325 
Q 1119 872 1334 640 
Q 1550 409 1972 409 
Q 2434 409 2667 671 
Q 2900 934 2900 1459 
L 2900 3500 
L 3475 3500 
L 3475 806 
Q 3475 619 3529 530 
Q 3584 441 3700 441 
Q 3728 441 3778 458 
Q 3828 475 3916 513 
L 3916 50 
Q 3788 -22 3673 -56 
Q 3559 -91 3450 -91 
Q 3234 -91 3106 31 
Q 2978 153 2931 403 
Q 2775 156 2548 32 
Q 2322 -91 2016 -91 
Q 1697 -91 1473 31 
Q 1250 153 1119 397 
L 1119 -1331 
L 544 -1331 
z
" transform="scale(0.015625)"/>
       <path id="DejaVuSans-56" d="M 1831 0 
L 50 4666 
L 709 4666 
L 2188 738 
L 3669 4666 
L 4325 4666 
L 2547 0 
L 1831 0 
z
" transform="scale(0.015625)"/>
      </defs>
      <use xlink:href="#DejaVuSans-41"/>
      <use xlink:href="#DejaVuSans-6d" transform="translate(68.408203 0)"/>
      <use xlink:href="#DejaVuSans-70" transform="translate(165.820312 0)"/>
      <use xlink:href="#DejaVuSans-6c" transform="translate(229.296875 0)"/>
      <use xlink:href="#DejaVuSans-69" transform="translate(257.080078 0)"/>
      <use xlink:href="#DejaVuSans-74" transform="translate(284.863281 0)"/>
      <use xlink:href="#DejaVuSans-75" transform="translate(324.072266 0)"/>
      <use xlink:href="#DejaVuSans-64" transform="translate(387.451172 0)"/>
      <use xlink:href="#DejaVuSans-65" transform="translate(450.927734 0)"/>
      <use xlink:href="#DejaVuSans-20" transform="translate(512.451172 0)"/>
      <use xlink:href="#DejaVuSans-69" transform="translate(544.238281 0)"/>
      <use xlink:href="#DejaVuSans-6e" transform="translate(572.021484 0)"/>
      <use xlink:href="#DejaVuSans-20" transform="translate(635.400391 0)"/>
      <use xlink:href="#DejaVuSans-b5" transform="translate(667.1875 0)"/>
      <use xlink:href="#DejaVuSans-56" transform="translate(730.810547 0)"/>
     </g>
    </g>
   </g>
   <g id="line2d_13">
    <path d="M 138.436364 115.381228 
L 138.842453 128.754569 
L 139.248541 136.628593 
L 139.65463 134.503856 
L 140.060719 123.880174 
L 140.872897 151.376764 
L 141.278986 152.876578 
L 141.685075 131.629213 
L 142.091164 140.128159 
L 142.497253 145.752461 
L 142.903342 145.127539 
L 143.309431 126.629833 
L 143.715519 123.130267 
L 144.121608 140.878066 
L 144.527697 137.253515 
L 144.933786 120.255623 
L 145.339875 118.880794 
L 145.745964 130.254383 
L 146.152053 131.629213 
L 146.558142 117.505964 
L 146.964231 115.381228 
L 147.776409 134.503856 
L 148.182497 121.755437 
L 148.588586 115.381228 
L 148.994675 125.255003 
L 149.400764 132.37912 
L 149.806853 113.256491 
L 150.212942 108.257111 
L 150.619031 113.881414 
L 151.02512 128.754569 
L 151.431209 128.754569 
L 151.837298 106.132374 
L 152.243387 113.881414 
L 152.649475 136.628593 
L 153.461653 120.255623 
L 153.867742 123.880174 
L 154.273831 133.004042 
L 154.67992 135.878686 
L 155.086009 121.755437 
L 155.492098 117.505964 
L 155.898187 128.129647 
L 156.304276 128.754569 
L 156.710364 106.882281 
L 157.116453 103.382715 
L 157.522542 111.131754 
L 157.928631 116.00615 
L 158.740809 90.634296 
L 159.552987 118.880794 
L 159.959076 113.881414 
L 160.365165 92.759033 
L 161.177342 116.00615 
L 161.583431 116.00615 
L 161.98952 99.758165 
L 162.395609 103.382715 
L 162.801698 117.505964 
L 163.207787 115.381228 
L 163.613876 99.133242 
L 164.019965 98.383335 
L 164.426054 118.880794 
L 164.832143 116.00615 
L 165.238232 97.633428 
L 165.64432 99.133242 
L 166.050409 112.506584 
L 166.456498 121.755437 
L 166.862587 112.506584 
L 167.268676 110.381847 
L 167.674765 128.129647 
L 168.080854 140.878066 
L 168.486943 138.753329 
L 168.893032 125.255003 
L 169.70521 152.126671 
L 170.517387 130.254383 
L 171.329565 153.5015 
L 172.141743 128.754569 
L 172.547832 132.37912 
L 172.953921 140.878066 
L 173.36001 133.004042 
L 173.766099 120.255623 
L 174.172188 118.880794 
L 174.578276 135.878686 
L 174.984365 132.37912 
L 175.390454 118.130887 
L 175.796543 109.007018 
L 176.202632 130.254383 
L 176.608721 127.37974 
L 177.420899 117.505964 
L 178.233077 142.252895 
L 179.045254 119.630701 
L 179.451343 127.37974 
L 179.857432 145.127539 
L 180.66961 114.631321 
L 181.075699 122.38036 
L 181.481788 139.378252 
L 182.293966 113.881414 
L 182.700055 118.130887 
L 183.106143 133.753949 
L 183.512232 135.878686 
L 183.918321 125.255003 
L 184.32441 126.629833 
L 184.730499 140.878066 
L 185.136588 143.002802 
L 185.542677 123.880174 
L 185.948766 123.880174 
L 186.354855 145.752461 
L 186.760944 144.377632 
L 187.167033 129.504476 
L 187.573121 121.00553 
L 188.385299 148.627105 
L 188.791388 133.753949 
L 189.197477 129.504476 
L 189.603566 138.753329 
L 190.009655 145.127539 
L 190.821833 130.879306 
L 191.227922 137.253515 
L 191.634011 158.50088 
L 192.040099 150.001934 
L 192.446188 137.253515 
L 193.258366 154.251407 
L 193.664455 152.126671 
L 194.070544 129.504476 
L 194.476633 132.37912 
L 194.882722 145.752461 
L 195.288811 147.252275 
L 195.6949 129.504476 
L 196.100989 121.00553 
L 196.507077 137.253515 
L 196.913166 142.252895 
L 197.319255 128.129647 
L 197.725344 126.00491 
L 198.131433 138.003422 
L 198.537522 145.752461 
L 199.3497 132.37912 
L 200.161878 152.876578 
L 200.974055 133.753949 
L 201.380144 140.128159 
L 201.786233 152.876578 
L 202.192322 149.252027 
L 202.598411 141.502988 
L 203.0045 140.878066 
L 203.410589 158.50088 
L 203.816678 157.126051 
L 204.222767 140.128159 
L 204.628856 152.876578 
L 205.441033 166.249919 
L 205.847122 150.001934 
L 206.253211 149.252027 
L 206.6593 167.749733 
L 207.065389 169.87447 
L 207.471478 155.001314 
L 207.877567 155.001314 
L 208.283656 162.750353 
L 208.689745 178.998338 
L 209.095834 163.50026 
L 209.501922 159.87571 
L 210.3141 182.622889 
L 210.720189 176.248679 
L 211.126278 163.50026 
L 211.532367 170.499392 
L 211.938456 183.247812 
L 212.344545 170.499392 
L 212.750634 154.251407 
L 213.562812 164.125183 
L 213.9689 157.126051 
L 214.374989 141.502988 
L 214.781078 145.752461 
L 215.187167 156.376144 
L 215.593256 162.000446 
L 215.999345 140.878066 
L 216.405434 142.252895 
L 216.811523 163.50026 
L 217.217612 166.249919 
L 217.623701 155.626237 
L 218.02979 155.001314 
L 218.435878 172.624129 
L 218.841967 183.997719 
L 219.248056 173.374036 
L 219.654145 167.749733 
L 220.060234 173.374036 
L 220.466323 188.247192 
L 220.872412 177.623509 
L 221.278501 171.999206 
L 222.090679 198.120967 
L 222.902856 181.872982 
L 223.308945 185.372548 
L 223.715034 198.870874 
L 224.121123 197.37106 
L 224.527212 181.123075 
L 224.933301 185.372548 
L 225.33939 198.870874 
L 225.745479 196.746138 
L 226.151568 177.623509 
L 226.557657 178.373416 
L 226.963746 191.746758 
L 227.369834 193.871494 
L 227.775923 177.623509 
L 228.182012 171.249299 
L 228.588101 186.122455 
L 228.99419 195.246324 
L 229.806368 175.498772 
L 230.212457 187.497285 
L 230.618546 193.121587 
L 231.024635 181.123075 
L 231.430724 174.748865 
L 231.836812 187.497285 
L 232.242901 193.121587 
L 232.64899 186.747378 
L 233.055079 173.374036 
L 233.461168 182.622889 
L 233.867257 197.37106 
L 234.273346 196.746138 
L 234.679435 188.872114 
L 235.085524 190.371928 
L 235.491613 201.620533 
L 235.897701 206.619913 
L 236.30379 186.747378 
L 236.709879 187.497285 
L 237.115968 198.120967 
L 237.522057 202.37044 
L 238.334235 174.123943 
L 238.740324 192.496665 
L 239.146413 198.120967 
L 239.552502 183.247812 
L 239.958591 181.123075 
L 240.770768 203.120347 
L 241.176857 186.122455 
L 241.582946 174.123943 
L 242.395124 199.495797 
L 242.801213 190.371928 
L 243.207302 177.623509 
L 243.613391 179.748246 
L 244.01948 197.37106 
L 244.425569 192.496665 
L 244.831657 178.373416 
L 245.237746 183.247812 
L 245.643835 201.620533 
L 246.049924 202.37044 
L 246.456013 186.747378 
L 246.862102 183.247812 
L 247.268191 200.245704 
L 247.67428 208.74465 
L 248.080369 189.622021 
L 248.486458 181.123075 
L 248.892547 199.495797 
L 249.298635 205.870006 
L 249.704724 198.120967 
L 250.110813 185.372548 
L 250.516902 196.746138 
L 250.922991 199.495797 
L 251.32908 191.746758 
L 251.735169 179.748246 
L 252.547347 197.37106 
L 252.953436 188.872114 
L 253.359525 176.248679 
L 253.765613 178.373416 
L 254.171702 187.497285 
L 254.577791 181.123075 
L 254.98388 167.749733 
L 255.389969 171.999206 
L 255.796058 184.747626 
L 256.202147 181.123075 
L 256.608236 171.249299 
L 257.014325 166.249919 
L 257.420414 181.872982 
L 257.826503 181.123075 
L 258.232591 169.87447 
L 258.63868 171.249299 
L 259.044769 186.747378 
L 259.450858 193.871494 
L 259.856947 178.998338 
L 260.263036 171.999206 
L 260.669125 178.998338 
L 261.075214 191.746758 
L 261.887392 176.873602 
L 262.699569 200.995611 
L 263.105658 198.120967 
L 263.511747 187.497285 
L 263.917836 189.622021 
L 264.323925 202.37044 
L 264.730014 195.996231 
L 265.136103 186.747378 
L 265.542192 183.997719 
L 265.948281 198.120967 
L 266.35437 198.120967 
L 266.760458 176.873602 
L 267.166547 182.622889 
L 267.572636 190.996851 
L 267.978725 191.746758 
L 268.384814 171.999206 
L 268.790903 164.87509 
L 269.196992 176.873602 
L 269.603081 181.123075 
L 270.00917 170.499392 
L 270.415259 163.50026 
L 270.821348 183.247812 
L 271.227436 192.496665 
L 271.633525 179.748246 
L 272.039614 174.748865 
L 272.445703 181.872982 
L 272.851792 197.37106 
L 273.66397 170.499392 
L 274.070059 176.248679 
L 274.476148 190.371928 
L 274.882237 189.622021 
L 275.288326 177.623509 
L 275.694414 186.122455 
L 276.100503 198.870874 
L 276.506592 193.121587 
L 276.912681 178.373416 
L 277.31877 170.499392 
L 277.724859 185.372548 
L 278.130948 186.747378 
L 278.537037 165.624997 
L 278.943126 157.750973 
L 279.349215 176.873602 
L 279.755304 171.999206 
L 280.161392 157.126051 
L 280.567481 146.502368 
L 281.379659 177.623509 
L 282.191837 157.126051 
L 283.004015 181.872982 
L 283.816193 164.125183 
L 284.222282 164.87509 
L 284.62837 174.748865 
L 285.034459 172.624129 
L 285.440548 154.251407 
L 285.846637 164.87509 
L 286.252726 167.749733 
L 286.658815 167.749733 
L 287.064904 154.251407 
L 287.470993 164.125183 
L 287.877082 180.498153 
L 288.283171 184.747626 
L 288.68926 171.999206 
L 289.095348 167.749733 
L 289.501437 186.122455 
L 289.907526 186.122455 
L 290.313615 171.249299 
L 290.719704 164.87509 
L 291.125793 171.999206 
L 291.531882 176.248679 
L 291.937971 164.125183 
L 292.34406 145.127539 
L 293.156237 162.000446 
L 293.562326 160.625617 
L 293.968415 151.376764 
L 294.374504 162.750353 
L 294.780593 178.998338 
L 295.186682 176.248679 
L 295.592771 161.375524 
L 295.99886 169.124563 
L 296.404949 181.872982 
L 296.811038 181.123075 
L 297.217127 157.750973 
L 297.623215 153.5015 
L 298.029304 164.87509 
L 298.435393 166.249919 
L 298.841482 147.877198 
L 299.247571 142.252895 
L 299.65366 157.126051 
L 300.059749 164.87509 
L 300.465838 159.87571 
L 300.871927 152.876578 
L 301.278016 171.249299 
L 301.684105 180.498153 
L 302.090193 174.123943 
L 302.496282 160.625617 
L 302.902371 165.624997 
L 303.30846 182.622889 
L 303.714549 170.499392 
L 304.120638 154.251407 
L 304.526727 159.250787 
L 304.932816 166.999826 
L 305.744994 143.002802 
L 306.151083 148.627105 
L 306.557171 161.375524 
L 306.96326 159.87571 
L 307.369349 150.751841 
L 307.775438 147.252275 
L 308.181527 164.87509 
L 308.587616 176.248679 
L 308.993705 157.750973 
L 309.399794 156.376144 
L 309.805883 171.249299 
L 310.211972 177.623509 
L 310.618061 161.375524 
L 311.024149 157.126051 
L 311.836327 176.248679 
L 312.648505 154.251407 
L 313.054594 161.375524 
L 313.460683 173.374036 
L 313.866772 157.750973 
L 314.272861 146.502368 
L 314.67895 152.876578 
L 315.085039 164.125183 
L 315.491127 167.749733 
L 315.897216 150.001934 
L 316.303305 159.87571 
L 316.709394 125.255003 
L 317.115483 44.64 
L 317.521572 219.368332 
L 317.927661 225.742542 
L 318.33375 146.502368 
L 318.739839 227.867278 
L 319.145928 150.751841 
L 319.552016 174.748865 
L 319.958105 177.623509 
L 320.364194 165.624997 
L 320.770283 161.375524 
L 321.176372 144.377632 
L 321.582461 175.498772 
L 321.98855 177.623509 
L 322.394639 177.623509 
L 322.800728 168.374656 
L 323.206817 177.623509 
L 323.612906 193.871494 
L 324.018994 178.373416 
L 324.425083 169.87447 
L 324.831172 171.999206 
L 325.237261 182.622889 
L 325.64335 182.622889 
L 326.049439 166.999826 
L 326.455528 171.999206 
L 326.861617 188.247192 
L 327.267706 181.123075 
L 327.673795 165.624997 
L 328.079884 162.750353 
L 328.485972 179.748246 
L 328.892061 176.248679 
L 329.29815 163.50026 
L 329.704239 154.251407 
L 330.110328 174.123943 
L 330.516417 178.373416 
L 330.922506 169.87447 
L 331.328595 170.499392 
L 331.734684 178.998338 
L 332.140773 192.496665 
L 332.546862 176.873602 
L 332.95295 173.374036 
L 333.359039 189.622021 
L 333.765128 191.746758 
L 334.171217 182.622889 
L 334.577306 169.124563 
L 334.983395 175.498772 
L 335.389484 187.497285 
L 335.795573 177.623509 
L 336.201662 162.750353 
L 336.607751 162.000446 
L 337.01384 182.622889 
L 337.419928 176.248679 
L 337.826017 164.87509 
L 338.232106 168.374656 
L 338.638195 176.248679 
L 339.044284 174.123943 
L 339.450373 157.126051 
L 339.856462 152.876578 
L 340.262551 163.50026 
L 340.66864 167.749733 
L 341.074729 156.376144 
L 341.480818 156.376144 
L 342.292995 181.123075 
L 342.699084 180.498153 
L 343.105173 169.124563 
L 343.511262 178.998338 
L 343.917351 195.996231 
L 344.729529 174.123943 
L 345.135618 176.873602 
L 345.541707 188.247192 
L 345.947796 184.747626 
L 346.353884 165.624997 
L 346.759973 164.87509 
L 347.166062 181.872982 
L 347.572151 178.998338 
L 347.97824 163.50026 
L 348.384329 158.50088 
L 348.790418 177.623509 
L 349.196507 178.998338 
L 349.602596 159.87571 
L 350.008685 159.250787 
L 350.414773 171.999206 
L 350.820862 181.123075 
L 351.226951 161.375524 
L 351.63304 163.50026 
L 352.039129 177.623509 
L 352.445218 186.122455 
L 353.257396 168.374656 
L 354.069574 189.622021 
L 354.475663 183.247812 
L 354.881751 169.124563 
L 355.28784 180.498153 
L 355.693929 195.996231 
L 356.100018 190.996851 
L 356.506107 181.872982 
L 356.912196 189.622021 
L 357.318285 211.619293 
L 357.724374 205.870006 
L 358.130463 194.621401 
L 358.536552 190.996851 
L 358.942641 209.494557 
L 359.348729 210.869386 
L 359.754818 189.622021 
L 360.160907 192.496665 
L 360.566996 208.74465 
L 360.973085 211.619293 
L 361.379174 195.246324 
L 361.785263 186.747378 
L 362.191352 195.996231 
L 362.597441 198.120967 
L 363.409619 178.998338 
L 363.815707 184.747626 
L 364.221796 195.246324 
L 364.627885 190.996851 
L 365.033974 176.248679 
L 365.846152 207.994743 
L 366.252241 203.74527 
L 366.65833 193.121587 
L 367.064419 198.870874 
L 367.470508 216.493689 
L 367.876597 215.118859 
L 368.282685 199.495797 
L 368.688774 204.495177 
L 369.094863 211.619293 
L 369.500952 215.118859 
L 369.907041 195.246324 
L 370.31313 193.871494 
L 371.125308 216.493689 
L 371.531397 192.496665 
L 371.937486 188.247192 
L 372.343575 196.746138 
L 372.749663 209.494557 
L 373.561841 181.872982 
L 373.96793 196.746138 
L 374.374019 206.619913 
L 375.186197 188.247192 
L 375.592286 191.746758 
L 375.998375 206.619913 
L 376.810552 183.247812 
L 377.216641 190.371928 
L 377.62273 209.494557 
L 378.028819 212.994123 
L 378.434908 195.246324 
L 378.840997 195.996231 
L 379.247086 214.368952 
L 379.653175 215.118859 
L 380.059264 205.870006 
L 380.465353 200.245704 
L 380.871442 217.243596 
L 381.27753 215.118859 
L 381.683619 203.120347 
L 382.089708 198.870874 
L 382.495797 207.36982 
L 382.901886 205.870006 
L 383.714064 177.623509 
L 384.120153 185.372548 
L 384.526242 197.37106 
L 385.33842 171.999206 
L 386.150597 194.621401 
L 386.556686 188.872114 
L 386.962775 175.498772 
L 387.368864 185.372548 
L 387.774953 204.495177 
L 388.181042 197.37106 
L 388.587131 186.122455 
L 388.99322 185.372548 
L 389.399309 198.120967 
L 389.805398 195.996231 
L 390.617575 174.123943 
L 391.429753 195.996231 
L 391.835842 176.248679 
L 392.241931 180.498153 
L 392.64802 186.122455 
L 393.054109 198.120967 
L 393.866287 174.748865 
L 394.272376 189.622021 
L 394.678464 193.121587 
L 395.084553 183.997719 
L 395.490642 168.374656 
L 396.30282 190.371928 
L 396.708909 177.623509 
L 397.114998 161.375524 
L 397.521087 161.375524 
L 397.927176 171.999206 
L 398.333265 168.374656 
L 398.739354 150.751841 
L 399.145442 153.5015 
L 399.551531 168.374656 
L 399.95762 168.374656 
L 400.363709 158.50088 
L 400.769798 155.626237 
L 401.175887 171.999206 
L 401.581976 178.373416 
L 401.988065 165.624997 
L 402.394154 162.750353 
L 402.800243 169.124563 
L 403.206331 186.747378 
L 404.018509 162.000446 
L 404.830687 188.872114 
L 405.236776 176.873602 
L 405.642865 169.87447 
L 406.455043 188.247192 
L 407.267221 173.374036 
L 407.673309 175.498772 
L 408.079398 186.122455 
L 408.485487 182.622889 
L 408.891576 163.50026 
L 409.297665 169.87447 
L 409.703754 179.748246 
L 410.109843 180.498153 
L 410.515932 160.625617 
L 410.922021 155.001314 
L 411.32811 172.624129 
L 411.734199 175.498772 
L 412.140287 157.126051 
L 412.546376 155.001314 
L 412.952465 164.87509 
L 413.358554 169.124563 
L 413.764643 164.125183 
L 414.170732 151.376764 
L 414.98291 175.498772 
L 415.388999 168.374656 
L 415.795088 155.626237 
L 416.201177 165.624997 
L 416.607265 178.998338 
L 417.013354 175.498772 
L 417.419443 164.125183 
L 417.825532 164.87509 
L 418.231621 177.623509 
L 418.63771 176.248679 
L 419.043799 157.126051 
L 419.855977 171.999206 
L 420.262066 173.374036 
L 420.668155 155.626237 
L 421.074243 154.251407 
L 421.480332 162.750353 
L 421.886421 165.624997 
L 422.29251 152.876578 
L 422.698599 147.252275 
L 423.510777 164.87509 
L 423.916866 149.252027 
L 424.322955 140.878066 
L 424.729044 143.627725 
L 425.135133 153.5015 
L 425.541221 137.253515 
L 425.94731 127.37974 
L 426.353399 135.878686 
L 426.759488 152.876578 
L 427.165577 143.002802 
L 427.571666 124.505096 
L 427.977755 137.253515 
L 428.383844 143.627725 
L 428.789933 140.128159 
L 429.196022 126.629833 
L 430.414288 150.001934 
L 430.820377 135.128779 
L 431.226466 135.128779 
L 431.632555 156.376144 
L 432.038644 158.50088 
L 432.444733 145.752461 
L 432.850822 140.128159 
L 433.256911 154.251407 
L 433.663 163.50026 
L 434.069088 146.502368 
L 434.475177 140.128159 
L 435.287355 156.376144 
L 435.693444 151.376764 
L 436.099533 133.004042 
L 436.505622 150.751841 
L 436.911711 160.625617 
L 437.3178 148.627105 
L 437.723889 141.502988 
L 438.129978 141.502988 
L 438.536066 161.375524 
L 438.942155 157.750973 
L 439.348244 143.002802 
L 440.160422 161.375524 
L 440.566511 165.624997 
L 440.9726 142.252895 
L 441.378689 145.127539 
L 441.784778 159.250787 
L 443.003044 135.128779 
L 443.815222 161.375524 
L 444.221311 150.751841 
L 444.6274 147.252275 
L 445.033489 159.87571 
L 445.439578 177.623509 
L 446.251756 154.251407 
L 447.063934 174.748865 
L 447.470022 169.124563 
L 447.876111 154.251407 
L 448.2822 162.000446 
L 448.688289 178.373416 
L 449.094378 173.374036 
L 449.500467 158.50088 
L 449.906556 155.001314 
L 450.312645 176.248679 
L 450.718734 173.374036 
L 451.124823 160.625617 
L 451.530912 164.87509 
L 452.343089 190.996851 
L 452.749178 169.124563 
L 453.155267 173.374036 
L 453.561356 185.372548 
L 453.967445 190.371928 
L 454.373534 174.748865 
L 454.779623 164.125183 
L 455.591801 188.872114 
L 456.403978 169.124563 
L 457.216156 193.121587 
L 458.028334 167.749733 
L 458.434423 172.624129 
L 458.840512 187.497285 
L 459.246601 183.247812 
L 459.65269 175.498772 
L 460.058779 174.748865 
L 460.464867 193.121587 
L 460.870956 190.996851 
L 461.277045 174.748865 
L 462.495312 200.995611 
L 462.901401 183.247812 
L 463.30749 180.498153 
L 463.713579 190.371928 
L 464.119668 194.621401 
L 464.931845 172.624129 
L 465.337934 186.122455 
L 465.744023 195.246324 
L 466.150112 189.622021 
L 466.556201 181.872982 
L 467.368379 209.494557 
L 467.774468 193.871494 
L 468.180557 186.747378 
L 468.586646 190.996851 
L 468.992735 210.869386 
L 469.398823 200.245704 
L 469.804912 186.122455 
L 470.211001 186.747378 
L 470.61709 202.37044 
L 471.023179 199.495797 
L 471.429268 179.748246 
L 471.835357 181.872982 
L 472.647535 195.996231 
L 473.459713 176.873602 
L 473.865801 195.996231 
L 474.27189 202.37044 
L 475.084068 187.497285 
L 475.896246 204.495177 
L 476.302335 188.872114 
L 476.708424 182.622889 
L 477.114513 188.247192 
L 477.520602 199.495797 
L 478.332779 176.873602 
L 478.738868 172.624129 
L 479.144957 190.371928 
L 479.551046 178.998338 
L 479.957135 174.123943 
L 481.175402 208.74465 
L 481.581491 183.247812 
L 481.98758 186.122455 
L 482.393669 194.621401 
L 482.799757 195.996231 
L 483.611935 170.499392 
L 484.018024 188.247192 
L 484.424113 190.996851 
L 485.236291 166.249919 
L 485.64238 179.748246 
L 486.048469 179.748246 
L 486.454558 173.374036 
L 486.860646 162.000446 
L 487.672824 195.996231 
L 488.078913 191.746758 
L 488.485002 176.248679 
L 489.29718 190.996851 
L 489.703269 186.747378 
L 490.109358 174.748865 
L 490.515447 170.499392 
L 490.921536 183.247812 
L 491.327624 184.747626 
L 491.733713 169.87447 
L 492.139802 171.249299 
L 492.545891 186.122455 
L 492.95198 190.996851 
L 493.358069 182.622889 
L 493.764158 171.249299 
L 494.170247 198.120967 
L 494.576336 200.995611 
L 494.982425 186.122455 
L 495.388514 181.872982 
L 495.794602 195.246324 
L 496.200691 201.620533 
L 496.60678 197.37106 
L 497.012869 180.498153 
L 497.418958 189.622021 
L 497.825047 195.996231 
L 498.231136 188.872114 
L 498.637225 175.498772 
L 499.043314 176.248679 
L 499.449403 196.746138 
L 499.855492 192.496665 
L 500.26158 183.247812 
L 500.667669 186.747378 
L 501.073758 202.37044 
L 501.479847 197.37106 
L 501.885936 180.498153 
L 502.292025 181.123075 
L 502.698114 192.496665 
L 503.104203 197.37106 
L 503.510292 183.247812 
L 503.916381 175.498772 
L 504.32247 194.621401 
L 504.728558 192.496665 
L 505.134647 181.123075 
L 505.540736 174.748865 
L 505.946825 188.872114 
L 506.352914 195.246324 
L 506.759003 187.497285 
L 507.165092 175.498772 
L 507.97727 197.37106 
L 508.383359 190.371928 
L 508.789448 171.249299 
L 509.601625 197.37106 
L 510.007714 195.246324 
L 510.413803 175.498772 
L 510.819892 172.624129 
L 511.225981 193.121587 
L 511.63207 191.746758 
L 512.038159 170.499392 
L 512.444248 171.249299 
L 512.850337 192.496665 
L 513.256425 196.746138 
L 513.662514 181.123075 
L 514.068603 177.623509 
L 514.474692 193.871494 
L 514.880781 198.120967 
L 515.28687 179.748246 
L 515.692959 169.124563 
L 516.505137 184.747626 
L 516.911226 168.374656 
L 517.317315 160.625617 
L 517.723403 171.999206 
L 518.129492 186.747378 
L 518.535581 184.747626 
L 518.94167 166.249919 
L 519.347759 181.123075 
L 519.753848 189.622021 
L 520.159937 186.122455 
L 520.566026 169.87447 
L 520.972115 169.87447 
L 521.378204 182.622889 
L 521.784293 178.998338 
L 522.190381 160.625617 
L 522.59647 165.624997 
L 523.002559 177.623509 
L 523.408648 184.747626 
L 523.814737 165.624997 
L 524.220826 169.124563 
L 524.626915 185.372548 
L 525.033004 190.996851 
L 525.439093 178.998338 
L 525.845182 175.498772 
L 526.251271 183.997719 
L 526.657359 195.246324 
L 527.063448 176.873602 
L 527.469537 164.125183 
L 527.875626 178.373416 
L 528.281715 187.497285 
L 528.687804 173.374036 
L 529.093893 153.5015 
L 529.499982 154.251407 
L 529.906071 173.374036 
L 530.31216 160.625617 
L 530.718249 137.253515 
L 531.530426 165.624997 
L 531.936515 155.626237 
L 532.342604 152.876578 
L 532.748693 157.750973 
L 533.154782 171.999206 
L 533.560871 171.249299 
L 533.96696 161.375524 
L 534.373049 164.125183 
L 534.779138 176.248679 
L 535.185227 178.373416 
L 535.591315 171.249299 
L 535.997404 155.001314 
L 536.403493 169.87447 
L 536.809582 175.498772 
L 537.215671 172.624129 
L 537.62176 163.50026 
L 538.027849 168.374656 
L 538.433938 182.622889 
L 538.840027 169.124563 
L 539.246116 151.376764 
L 539.652204 161.375524 
L 540.058293 174.123943 
L 540.464382 165.624997 
L 540.870471 146.502368 
L 541.27656 147.877198 
L 541.682649 159.87571 
L 542.088738 157.126051 
L 542.494827 138.003422 
L 542.900916 140.128159 
L 543.307005 157.126051 
L 543.713094 160.625617 
L 544.119182 145.752461 
L 544.525271 143.627725 
L 544.93136 162.750353 
L 545.337449 169.124563 
L 546.149627 150.751841 
L 546.961805 177.623509 
L 547.773983 157.126051 
L 548.180072 158.50088 
L 548.58616 178.373416 
L 549.398338 145.127539 
L 549.804427 156.376144 
L 550.210516 159.87571 
L 550.616605 157.750973 
L 551.022694 139.378252 
L 551.428783 145.127539 
L 551.834872 157.750973 
L 552.240961 153.5015 
L 552.64705 140.878066 
L 553.053138 140.878066 
L 553.459227 155.626237 
L 553.865316 157.126051 
L 554.271405 139.378252 
L 554.677494 136.628593 
L 555.083583 153.5015 
L 555.489672 163.50026 
L 555.895761 145.752461 
L 556.30185 143.627725 
L 556.707939 150.001934 
L 557.114028 166.999826 
L 557.520116 147.877198 
L 557.926205 143.627725 
L 558.332294 153.5015 
L 558.738383 171.249299 
L 559.144472 159.250787 
L 559.550561 155.626237 
L 560.362739 181.123075 
L 560.768828 180.498153 
L 561.174917 160.625617 
L 561.581006 165.624997 
L 561.987094 178.373416 
L 562.393183 174.123943 
L 562.799272 158.50088 
L 563.205361 150.001934 
L 563.61145 169.124563 
L 564.017539 164.87509 
L 564.423628 149.252027 
L 564.829717 145.127539 
L 565.235806 164.87509 
L 565.641895 170.499392 
L 566.454072 154.251407 
L 567.26625 174.123943 
L 568.078428 154.251407 
L 568.484517 159.87571 
L 568.890606 167.749733 
L 569.296695 157.750973 
L 569.702784 143.627725 
L 570.108873 148.627105 
L 570.514961 162.000446 
L 570.92105 167.749733 
L 571.327139 145.752461 
L 571.733228 151.376764 
L 572.139317 159.87571 
L 572.545406 161.375524 
L 572.951495 144.377632 
L 573.357584 141.502988 
L 573.763673 169.124563 
L 574.169762 166.249919 
L 574.981939 146.502368 
L 575.388028 160.625617 
L 575.794117 165.624997 
L 576.606295 140.878066 
L 577.012384 155.626237 
L 577.418473 162.750353 
L 578.230651 135.128779 
L 578.63674 142.252895 
L 579.042829 155.626237 
L 579.448917 145.127539 
L 579.855006 128.754569 
L 580.667184 151.376764 
L 581.073273 146.502368 
L 581.479362 130.879306 
L 581.885451 138.003422 
L 582.29154 158.50088 
L 582.697629 157.750973 
L 583.103718 144.377632 
L 583.509807 148.627105 
L 583.915895 161.375524 
L 584.321984 165.624997 
L 584.728073 149.252027 
L 585.134162 146.502368 
L 585.540251 167.749733 
L 585.94634 171.999206 
L 586.352429 154.251407 
L 586.758518 152.126671 
L 587.164607 168.374656 
L 587.570696 178.998338 
L 587.976785 169.87447 
L 588.382873 150.751841 
L 588.788962 171.249299 
L 589.195051 178.373416 
L 590.007229 152.876578 
L 590.413318 162.000446 
L 590.819407 174.748865 
L 591.225496 170.499392 
L 591.631585 151.376764 
L 592.037674 154.251407 
L 592.443763 168.374656 
L 592.849851 170.499392 
L 593.25594 161.375524 
L 593.662029 161.375524 
L 594.068118 174.123943 
L 594.474207 163.50026 
L 594.880296 147.252275 
L 595.286385 146.502368 
L 595.692474 163.50026 
L 596.098563 169.124563 
L 596.91074 151.376764 
L 597.316829 168.374656 
L 597.722918 176.248679 
L 598.129007 159.87571 
L 598.535096 152.126671 
L 598.941185 169.87447 
L 599.753363 181.872982 
L 600.159452 166.999826 
L 600.565541 180.498153 
L 600.97163 185.372548 
L 601.377718 182.622889 
L 601.783807 164.125183 
L 602.189896 165.624997 
L 602.595985 175.498772 
L 603.002074 178.373416 
L 603.408163 162.750353 
L 603.814252 161.375524 
L 604.220341 174.123943 
L 604.62643 176.873602 
L 605.032519 162.000446 
L 605.438608 166.249919 
L 605.844696 176.873602 
L 606.250785 183.247812 
L 606.656874 167.749733 
L 607.062963 160.625617 
L 607.469052 178.373416 
L 607.875141 180.498153 
L 608.28123 173.374036 
L 608.687319 159.87571 
L 609.093408 174.748865 
L 609.499497 195.996231 
L 610.311674 174.748865 
L 611.123852 198.120967 
L 611.93603 169.87447 
L 612.342119 174.123943 
L 612.748208 183.247812 
L 613.154297 181.123075 
L 613.560386 169.87447 
L 613.966475 169.87447 
L 614.372564 189.622021 
L 614.778652 190.371928 
L 615.184741 174.748865 
L 615.59083 175.498772 
L 615.996919 195.246324 
L 616.403008 190.996851 
L 616.809097 181.872982 
L 617.215186 177.623509 
L 617.621275 193.121587 
L 618.027364 203.120347 
L 618.433453 184.747626 
L 618.839542 177.623509 
L 619.651719 200.995611 
L 620.463897 178.998338 
L 620.869986 193.871494 
L 621.276075 203.120347 
L 621.682164 200.995611 
L 622.088253 186.747378 
L 622.900431 207.36982 
L 623.306519 203.120347 
L 623.712608 190.371928 
L 624.118697 190.371928 
L 624.524786 204.495177 
L 624.930875 212.244216 
L 625.336964 202.37044 
L 625.743053 195.246324 
L 626.149142 216.493689 
L 626.555231 219.368332 
L 626.96132 207.36982 
L 627.367409 210.119479 
L 627.773497 224.992635 
L 628.179586 229.992015 
L 628.585675 221.493069 
L 628.991764 218.618425 
L 629.397853 232.116751 
L 629.803942 240.615697 
L 630.210031 236.366224 
L 630.61612 222.867898 
L 631.428298 246.24 
L 632.646564 220.743162 
L 633.052653 245.490093 
L 633.458742 235.616317 
L 633.864831 215.868766 
L 634.27092 219.368332 
L 634.677009 236.366224 
L 635.083098 234.86641 
L 635.489187 217.243596 
L 635.895276 217.243596 
L 636.707453 233.491581 
L 637.113542 207.36982 
L 638.331809 227.117371 
L 638.737898 210.869386 
L 639.143987 205.870006 
L 639.550076 213.74403 
L 639.956165 231.366844 
L 640.768343 203.120347 
L 641.174431 215.118859 
L 641.58052 218.618425 
L 641.986609 210.119479 
L 642.392698 193.121587 
L 643.204876 204.495177 
L 643.610965 204.495177 
L 644.017054 185.372548 
L 644.423143 176.873602 
L 644.829232 192.496665 
L 645.235321 181.872982 
L 645.641409 160.625617 
L 646.047498 155.626237 
L 646.453587 162.000446 
L 647.671854 136.628593 
L 648.077943 150.751841 
L 648.484032 160.625617 
L 648.890121 139.378252 
L 649.29621 130.254383 
L 649.702299 140.878066 
L 650.108387 142.252895 
L 650.514476 141.502988 
L 650.920565 127.37974 
L 651.732743 151.376764 
L 652.544921 130.254383 
L 652.95101 130.879306 
L 653.357099 149.252027 
L 653.763188 144.377632 
L 654.169276 124.505096 
L 654.575365 128.129647 
L 654.981454 139.378252 
L 655.387543 136.628593 
L 655.793632 119.630701 
L 656.199721 111.881662 
L 656.60581 133.004042 
L 657.011899 131.629213 
L 657.417988 114.631321 
L 657.824077 108.257111 
L 658.636254 126.629833 
L 659.448432 99.758165 
L 659.854521 109.756925 
L 660.26061 127.37974 
L 660.666699 106.882281 
L 661.072788 100.508072 
L 661.884966 121.00553 
L 662.291055 109.756925 
L 662.697144 90.634296 
L 663.509321 107.632188 
L 663.91541 111.131754 
L 664.321499 93.383955 
L 664.727588 97.008506 
L 665.133677 113.881414 
L 665.539766 116.00615 
L 665.945855 100.508072 
L 666.351944 94.883769 
L 666.758033 111.131754 
L 667.164122 113.881414 
L 667.976299 92.759033 
L 668.382388 108.257111 
L 668.788477 116.756057 
L 669.600655 86.384823 
L 670.006744 98.383335 
L 670.412833 106.882281 
L 671.225011 87.009746 
L 672.037188 110.381847 
L 672.443277 109.007018 
L 672.849366 90.634296 
L 673.255455 92.759033 
L 673.661544 113.256491 
L 674.473722 88.50956 
L 674.879811 89.134482 
L 675.2859 107.632188 
L 675.691989 101.882901 
L 676.098078 91.259219 
L 676.504166 94.883769 
L 676.910255 110.381847 
L 677.316344 116.756057 
L 677.722433 96.258599 
L 678.128522 94.883769 
L 678.534611 108.257111 
L 678.9407 126.00491 
L 679.346789 104.757545 
L 679.752878 99.133242 
L 680.158967 113.881414 
L 680.565055 118.130887 
L 680.971144 106.132374 
L 681.377233 88.50956 
L 681.783322 100.508072 
L 682.189411 116.756057 
L 683.001589 94.133862 
L 683.407678 96.258599 
L 683.813767 111.881662 
L 684.219856 109.756925 
L 684.625945 99.133242 
L 685.032033 99.133242 
L 685.438122 116.756057 
L 685.844211 114.631321 
L 686.2503 100.508072 
L 686.656389 90.634296 
L 687.062478 104.757545 
L 687.468567 113.256491 
L 688.280745 90.634296 
L 688.686834 106.132374 
L 689.092923 111.881662 
L 689.9051 94.133862 
L 690.311189 110.381847 
L 690.717278 118.130887 
L 691.123367 113.881414 
L 691.529456 104.007638 
L 692.341634 132.37912 
L 693.153812 101.257979 
L 693.559901 105.507452 
L 693.965989 114.631321 
L 694.372078 111.131754 
L 694.778167 89.134482 
L 695.184256 94.883769 
L 695.590345 111.881662 
L 695.996434 111.131754 
L 696.402523 99.133242 
L 696.808612 94.133862 
L 697.214701 113.256491 
L 697.62079 113.881414 
L 698.026879 97.008506 
L 698.432967 96.258599 
L 699.245145 124.505096 
L 699.651234 103.382715 
L 700.057323 98.383335 
L 700.463412 115.381228 
L 700.869501 114.631321 
L 701.27559 108.257111 
L 701.681679 86.384823 
L 702.087768 98.383335 
L 702.493857 114.631321 
L 702.899945 99.758165 
L 703.306034 94.133862 
L 703.712123 97.633428 
L 704.118212 116.00615 
L 704.524301 111.881662 
L 704.93039 95.508692 
L 705.336479 101.257979 
L 706.148657 118.880794 
L 706.554746 104.757545 
L 706.960834 107.632188 
L 707.366923 118.880794 
L 707.773012 115.381228 
L 708.179101 99.133242 
L 708.58519 91.259219 
L 708.991279 99.133242 
L 709.397368 112.506584 
L 709.803457 96.258599 
L 710.209546 94.883769 
L 711.021724 114.631321 
L 711.833901 97.008506 
L 712.23999 109.007018 
L 712.646079 117.505964 
L 713.052168 117.505964 
L 713.458257 98.383335 
L 713.864346 103.382715 
L 714.270435 117.505964 
L 714.676524 113.256491 
L 715.082613 99.133242 
L 715.488702 101.257979 
L 715.89479 113.256491 
L 716.300879 118.130887 
L 716.706968 100.508072 
L 717.113057 103.382715 
L 717.519146 116.756057 
L 717.925235 115.381228 
L 718.331324 110.381847 
L 718.737413 107.632188 
L 719.143502 128.129647 
L 719.549591 139.378252 
L 719.95568 124.505096 
L 720.361768 116.00615 
L 721.173946 137.253515 
L 721.986124 111.131754 
L 722.392213 123.130267 
L 722.798302 131.629213 
L 723.61048 106.132374 
L 724.016569 113.256491 
L 724.422658 126.629833 
L 724.828746 118.880794 
L 725.234835 98.383335 
L 725.640924 104.757545 
L 726.047013 124.505096 
L 726.453102 120.255623 
L 726.859191 107.632188 
L 727.26528 109.756925 
L 727.671369 129.504476 
L 728.077458 130.879306 
L 728.483547 120.255623 
L 728.889636 121.755437 
L 729.295724 138.753329 
L 729.701813 145.752461 
L 730.107902 128.754569 
L 730.513991 117.505964 
L 731.326169 139.378252 
L 731.732258 123.130267 
L 732.138347 113.256491 
L 732.544436 116.756057 
L 732.950525 133.753949 
L 733.356613 128.129647 
L 733.762702 116.756057 
L 734.168791 126.00491 
L 734.57488 142.252895 
L 735.387058 128.754569 
L 735.793147 134.503856 
L 736.199236 154.251407 
L 736.605325 154.251407 
L 737.011414 129.504476 
L 737.417503 136.628593 
L 737.823591 150.001934 
L 738.22968 148.627105 
L 738.635769 131.629213 
L 739.041858 132.37912 
L 739.447947 137.253515 
L 739.854036 145.127539 
L 740.260125 135.128779 
L 740.666214 133.004042 
L 741.072303 141.502988 
L 741.478392 156.376144 
L 742.290569 139.378252 
L 742.696658 148.627105 
L 743.102747 166.249919 
L 743.914925 143.002802 
L 744.321014 146.502368 
L 744.727103 155.001314 
L 745.133192 153.5015 
L 745.539281 134.503856 
L 745.94537 137.253515 
L 746.351459 150.751841 
L 746.757547 147.252275 
L 747.163636 127.37974 
L 747.163636 127.37974 
" clip-path="url(#p048d4b4c4d)" style="fill: none; stroke: #1f77b4; stroke-width: 0.8; stroke-linecap: square"/>
   </g>
   <g id="patch_5">
    <path d="M 108 256.32 
L 108 34.56 
" style="fill: none; stroke: #000000; stroke-width: 0.8; stroke-linejoin: miter; stroke-linecap: square"/>
   </g>
   <g id="patch_6">
    <path d="M 777.6 256.32 
L 777.6 34.56 
" style="fill: none; stroke: #000000; stroke-width: 0.8; stroke-linejoin: miter; stroke-linecap: square"/>
   </g>
   <g id="patch_7">
    <path d="M 108 256.32 
L 777.6 256.32 
" style="fill: none; stroke: #000000; stroke-width: 0.8; stroke-linejoin: miter; stroke-linecap: square"/>
   </g>
   <g id="patch_8">
    <path d="M 108 34.56 
L 777.6 34.56 
" style="fill: none; stroke: #000000; stroke-width: 0.8; stroke-linejoin: miter; stroke-linecap: square"/>
   </g>
   <g id="text_15">
    <!-- EEG Signal und Artefaktannotationen FP2-F8 zwischen Sekunden 558 und 564 -->
    <g transform="translate(207.582188 28.56) scale(0.12 -0.12)">
     <defs>
      <path id="DejaVuSans-45" d="M 628 4666 
L 3578 4666 
L 3578 4134 
L 1259 4134 
L 1259 2753 
L 3481 2753 
L 3481 2222 
L 1259 2222 
L 1259 531 
L 3634 531 
L 3634 0 
L 628 0 
L 628 4666 
z
" transform="scale(0.015625)"/>
      <path id="DejaVuSans-47" d="M 3809 666 
L 3809 1919 
L 2778 1919 
L 2778 2438 
L 4434 2438 
L 4434 434 
Q 4069 175 3628 42 
Q 3188 -91 2688 -91 
Q 1594 -91 976 548 
Q 359 1188 359 2328 
Q 359 3472 976 4111 
Q 1594 4750 2688 4750 
Q 3144 4750 3555 4637 
Q 3966 4525 4313 4306 
L 4313 3634 
Q 3963 3931 3569 4081 
Q 3175 4231 2741 4231 
Q 1884 4231 1454 3753 
Q 1025 3275 1025 2328 
Q 1025 1384 1454 906 
Q 1884 428 2741 428 
Q 3075 428 3337 486 
Q 3600 544 3809 666 
z
" transform="scale(0.015625)"/>
      <path id="DejaVuSans-67" d="M 2906 1791 
Q 2906 2416 2648 2759 
Q 2391 3103 1925 3103 
Q 1463 3103 1205 2759 
Q 947 2416 947 1791 
Q 947 1169 1205 825 
Q 1463 481 1925 481 
Q 2391 481 2648 825 
Q 2906 1169 2906 1791 
z
M 3481 434 
Q 3481 -459 3084 -895 
Q 2688 -1331 1869 -1331 
Q 1566 -1331 1297 -1286 
Q 1028 -1241 775 -1147 
L 775 -588 
Q 1028 -725 1275 -790 
Q 1522 -856 1778 -856 
Q 2344 -856 2625 -561 
Q 2906 -266 2906 331 
L 2906 616 
Q 2728 306 2450 153 
Q 2172 0 1784 0 
Q 1141 0 747 490 
Q 353 981 353 1791 
Q 353 2603 747 3093 
Q 1141 3584 1784 3584 
Q 2172 3584 2450 3431 
Q 2728 3278 2906 2969 
L 2906 3500 
L 3481 3500 
L 3481 434 
z
" transform="scale(0.015625)"/>
      <path id="DejaVuSans-61" d="M 2194 1759 
Q 1497 1759 1228 1600 
Q 959 1441 959 1056 
Q 959 750 1161 570 
Q 1363 391 1709 391 
Q 2188 391 2477 730 
Q 2766 1069 2766 1631 
L 2766 1759 
L 2194 1759 
z
M 3341 1997 
L 3341 0 
L 2766 0 
L 2766 531 
Q 2569 213 2275 61 
Q 1981 -91 1556 -91 
Q 1019 -91 701 211 
Q 384 513 384 1019 
Q 384 1609 779 1909 
Q 1175 2209 1959 2209 
L 2766 2209 
L 2766 2266 
Q 2766 2663 2505 2880 
Q 2244 3097 1772 3097 
Q 1472 3097 1187 3025 
Q 903 2953 641 2809 
L 641 3341 
Q 956 3463 1253 3523 
Q 1550 3584 1831 3584 
Q 2591 3584 2966 3190 
Q 3341 2797 3341 1997 
z
" transform="scale(0.015625)"/>
      <path id="DejaVuSans-72" d="M 2631 2963 
Q 2534 3019 2420 3045 
Q 2306 3072 2169 3072 
Q 1681 3072 1420 2755 
Q 1159 2438 1159 1844 
L 1159 0 
L 581 0 
L 581 3500 
L 1159 3500 
L 1159 2956 
Q 1341 3275 1631 3429 
Q 1922 3584 2338 3584 
Q 2397 3584 2469 3576 
Q 2541 3569 2628 3553 
L 2631 2963 
z
" transform="scale(0.015625)"/>
      <path id="DejaVuSans-66" d="M 2375 4863 
L 2375 4384 
L 1825 4384 
Q 1516 4384 1395 4259 
Q 1275 4134 1275 3809 
L 1275 3500 
L 2222 3500 
L 2222 3053 
L 1275 3053 
L 1275 0 
L 697 0 
L 697 3053 
L 147 3053 
L 147 3500 
L 697 3500 
L 697 3744 
Q 697 4328 969 4595 
Q 1241 4863 1831 4863 
L 2375 4863 
z
" transform="scale(0.015625)"/>
      <path id="DejaVuSans-6f" d="M 1959 3097 
Q 1497 3097 1228 2736 
Q 959 2375 959 1747 
Q 959 1119 1226 758 
Q 1494 397 1959 397 
Q 2419 397 2687 759 
Q 2956 1122 2956 1747 
Q 2956 2369 2687 2733 
Q 2419 3097 1959 3097 
z
M 1959 3584 
Q 2709 3584 3137 3096 
Q 3566 2609 3566 1747 
Q 3566 888 3137 398 
Q 2709 -91 1959 -91 
Q 1206 -91 779 398 
Q 353 888 353 1747 
Q 353 2609 779 3096 
Q 1206 3584 1959 3584 
z
" transform="scale(0.015625)"/>
      <path id="DejaVuSans-46" d="M 628 4666 
L 3309 4666 
L 3309 4134 
L 1259 4134 
L 1259 2759 
L 3109 2759 
L 3109 2228 
L 1259 2228 
L 1259 0 
L 628 0 
L 628 4666 
z
" transform="scale(0.015625)"/>
      <path id="DejaVuSans-50" d="M 1259 4147 
L 1259 2394 
L 2053 2394 
Q 2494 2394 2734 2622 
Q 2975 2850 2975 3272 
Q 2975 3691 2734 3919 
Q 2494 4147 2053 4147 
L 1259 4147 
z
M 628 4666 
L 2053 4666 
Q 2838 4666 3239 4311 
Q 3641 3956 3641 3272 
Q 3641 2581 3239 2228 
Q 2838 1875 2053 1875 
L 1259 1875 
L 1259 0 
L 628 0 
L 628 4666 
z
" transform="scale(0.015625)"/>
      <path id="DejaVuSans-2d" d="M 313 2009 
L 1997 2009 
L 1997 1497 
L 313 1497 
L 313 2009 
z
" transform="scale(0.015625)"/>
      <path id="DejaVuSans-7a" d="M 353 3500 
L 3084 3500 
L 3084 2975 
L 922 459 
L 3084 459 
L 3084 0 
L 275 0 
L 275 525 
L 2438 3041 
L 353 3041 
L 353 3500 
z
" transform="scale(0.015625)"/>
      <path id="DejaVuSans-77" d="M 269 3500 
L 844 3500 
L 1563 769 
L 2278 3500 
L 2956 3500 
L 3675 769 
L 4391 3500 
L 4966 3500 
L 4050 0 
L 3372 0 
L 2619 2869 
L 1863 0 
L 1184 0 
L 269 3500 
z
" transform="scale(0.015625)"/>
      <path id="DejaVuSans-73" d="M 2834 3397 
L 2834 2853 
Q 2591 2978 2328 3040 
Q 2066 3103 1784 3103 
Q 1356 3103 1142 2972 
Q 928 2841 928 2578 
Q 928 2378 1081 2264 
Q 1234 2150 1697 2047 
L 1894 2003 
Q 2506 1872 2764 1633 
Q 3022 1394 3022 966 
Q 3022 478 2636 193 
Q 2250 -91 1575 -91 
Q 1294 -91 989 -36 
Q 684 19 347 128 
L 347 722 
Q 666 556 975 473 
Q 1284 391 1588 391 
Q 1994 391 2212 530 
Q 2431 669 2431 922 
Q 2431 1156 2273 1281 
Q 2116 1406 1581 1522 
L 1381 1569 
Q 847 1681 609 1914 
Q 372 2147 372 2553 
Q 372 3047 722 3315 
Q 1072 3584 1716 3584 
Q 2034 3584 2315 3537 
Q 2597 3491 2834 3397 
z
" transform="scale(0.015625)"/>
      <path id="DejaVuSans-63" d="M 3122 3366 
L 3122 2828 
Q 2878 2963 2633 3030 
Q 2388 3097 2138 3097 
Q 1578 3097 1268 2742 
Q 959 2388 959 1747 
Q 959 1106 1268 751 
Q 1578 397 2138 397 
Q 2388 397 2633 464 
Q 2878 531 3122 666 
L 3122 134 
Q 2881 22 2623 -34 
Q 2366 -91 2075 -91 
Q 1284 -91 818 406 
Q 353 903 353 1747 
Q 353 2603 823 3093 
Q 1294 3584 2113 3584 
Q 2378 3584 2631 3529 
Q 2884 3475 3122 3366 
z
" transform="scale(0.015625)"/>
      <path id="DejaVuSans-68" d="M 3513 2113 
L 3513 0 
L 2938 0 
L 2938 2094 
Q 2938 2591 2744 2837 
Q 2550 3084 2163 3084 
Q 1697 3084 1428 2787 
Q 1159 2491 1159 1978 
L 1159 0 
L 581 0 
L 581 4863 
L 1159 4863 
L 1159 2956 
Q 1366 3272 1645 3428 
Q 1925 3584 2291 3584 
Q 2894 3584 3203 3211 
Q 3513 2838 3513 2113 
z
" transform="scale(0.015625)"/>
     </defs>
     <use xlink:href="#DejaVuSans-45"/>
     <use xlink:href="#DejaVuSans-45" transform="translate(63.183594 0)"/>
     <use xlink:href="#DejaVuSans-47" transform="translate(126.367188 0)"/>
     <use xlink:href="#DejaVuSans-20" transform="translate(203.857422 0)"/>
     <use xlink:href="#DejaVuSans-53" transform="translate(235.644531 0)"/>
     <use xlink:href="#DejaVuSans-69" transform="translate(299.121094 0)"/>
     <use xlink:href="#DejaVuSans-67" transform="translate(326.904297 0)"/>
     <use xlink:href="#DejaVuSans-6e" transform="translate(390.380859 0)"/>
     <use xlink:href="#DejaVuSans-61" transform="translate(453.759766 0)"/>
     <use xlink:href="#DejaVuSans-6c" transform="translate(515.039062 0)"/>
     <use xlink:href="#DejaVuSans-20" transform="translate(542.822266 0)"/>
     <use xlink:href="#DejaVuSans-75" transform="translate(574.609375 0)"/>
     <use xlink:href="#DejaVuSans-6e" transform="translate(637.988281 0)"/>
     <use xlink:href="#DejaVuSans-64" transform="translate(701.367188 0)"/>
     <use xlink:href="#DejaVuSans-20" transform="translate(764.84375 0)"/>
     <use xlink:href="#DejaVuSans-41" transform="translate(796.630859 0)"/>
     <use xlink:href="#DejaVuSans-72" transform="translate(865.039062 0)"/>
     <use xlink:href="#DejaVuSans-74" transform="translate(906.152344 0)"/>
     <use xlink:href="#DejaVuSans-65" transform="translate(945.361328 0)"/>
     <use xlink:href="#DejaVuSans-66" transform="translate(1006.884766 0)"/>
     <use xlink:href="#DejaVuSans-61" transform="translate(1042.089844 0)"/>
     <use xlink:href="#DejaVuSans-6b" transform="translate(1103.369141 0)"/>
     <use xlink:href="#DejaVuSans-74" transform="translate(1161.279297 0)"/>
     <use xlink:href="#DejaVuSans-61" transform="translate(1200.488281 0)"/>
     <use xlink:href="#DejaVuSans-6e" transform="translate(1261.767578 0)"/>
     <use xlink:href="#DejaVuSans-6e" transform="translate(1325.146484 0)"/>
     <use xlink:href="#DejaVuSans-6f" transform="translate(1388.525391 0)"/>
     <use xlink:href="#DejaVuSans-74" transform="translate(1449.707031 0)"/>
     <use xlink:href="#DejaVuSans-61" transform="translate(1488.916016 0)"/>
     <use xlink:href="#DejaVuSans-74" transform="translate(1550.195312 0)"/>
     <use xlink:href="#DejaVuSans-69" transform="translate(1589.404297 0)"/>
     <use xlink:href="#DejaVuSans-6f" transform="translate(1617.1875 0)"/>
     <use xlink:href="#DejaVuSans-6e" transform="translate(1678.369141 0)"/>
     <use xlink:href="#DejaVuSans-65" transform="translate(1741.748047 0)"/>
     <use xlink:href="#DejaVuSans-6e" transform="translate(1803.271484 0)"/>
     <use xlink:href="#DejaVuSans-20" transform="translate(1866.650391 0)"/>
     <use xlink:href="#DejaVuSans-46" transform="translate(1898.4375 0)"/>
     <use xlink:href="#DejaVuSans-50" transform="translate(1955.957031 0)"/>
     <use xlink:href="#DejaVuSans-32" transform="translate(2016.259766 0)"/>
     <use xlink:href="#DejaVuSans-2d" transform="translate(2079.882812 0)"/>
     <use xlink:href="#DejaVuSans-46" transform="translate(2115.966797 0)"/>
     <use xlink:href="#DejaVuSans-38" transform="translate(2173.486328 0)"/>
     <use xlink:href="#DejaVuSans-20" transform="translate(2237.109375 0)"/>
     <use xlink:href="#DejaVuSans-7a" transform="translate(2268.896484 0)"/>
     <use xlink:href="#DejaVuSans-77" transform="translate(2321.386719 0)"/>
     <use xlink:href="#DejaVuSans-69" transform="translate(2403.173828 0)"/>
     <use xlink:href="#DejaVuSans-73" transform="translate(2430.957031 0)"/>
     <use xlink:href="#DejaVuSans-63" transform="translate(2483.056641 0)"/>
     <use xlink:href="#DejaVuSans-68" transform="translate(2538.037109 0)"/>
     <use xlink:href="#DejaVuSans-65" transform="translate(2601.416016 0)"/>
     <use xlink:href="#DejaVuSans-6e" transform="translate(2662.939453 0)"/>
     <use xlink:href="#DejaVuSans-20" transform="translate(2726.318359 0)"/>
     <use xlink:href="#DejaVuSans-53" transform="translate(2758.105469 0)"/>
     <use xlink:href="#DejaVuSans-65" transform="translate(2821.582031 0)"/>
     <use xlink:href="#DejaVuSans-6b" transform="translate(2883.105469 0)"/>
     <use xlink:href="#DejaVuSans-75" transform="translate(2937.890625 0)"/>
     <use xlink:href="#DejaVuSans-6e" transform="translate(3001.269531 0)"/>
     <use xlink:href="#DejaVuSans-64" transform="translate(3064.648438 0)"/>
     <use xlink:href="#DejaVuSans-65" transform="translate(3128.125 0)"/>
     <use xlink:href="#DejaVuSans-6e" transform="translate(3189.648438 0)"/>
     <use xlink:href="#DejaVuSans-20" transform="translate(3253.027344 0)"/>
     <use xlink:href="#DejaVuSans-35" transform="translate(3284.814453 0)"/>
     <use xlink:href="#DejaVuSans-35" transform="translate(3348.4375 0)"/>
     <use xlink:href="#DejaVuSans-38" transform="translate(3412.060547 0)"/>
     <use xlink:href="#DejaVuSans-20" transform="translate(3475.683594 0)"/>
     <use xlink:href="#DejaVuSans-75" transform="translate(3507.470703 0)"/>
     <use xlink:href="#DejaVuSans-6e" transform="translate(3570.849609 0)"/>
     <use xlink:href="#DejaVuSans-64" transform="translate(3634.228516 0)"/>
     <use xlink:href="#DejaVuSans-20" transform="translate(3697.705078 0)"/>
     <use xlink:href="#DejaVuSans-35" transform="translate(3729.492188 0)"/>
     <use xlink:href="#DejaVuSans-36" transform="translate(3793.115234 0)"/>
     <use xlink:href="#DejaVuSans-34" transform="translate(3856.738281 0)"/>
    </g>
   </g>
   <g id="legend_1">
    <g id="patch_9">
     <path d="M 710.634375 71.91625 
L 770.6 71.91625 
Q 772.6 71.91625 772.6 69.91625 
L 772.6 41.56 
Q 772.6 39.56 770.6 39.56 
L 710.634375 39.56 
Q 708.634375 39.56 708.634375 41.56 
L 708.634375 69.91625 
Q 708.634375 71.91625 710.634375 71.91625 
z
" style="fill: #ffffff; opacity: 0.8; stroke: #cccccc; stroke-linejoin: miter"/>
    </g>
    <g id="patch_10">
     <path d="M 712.634375 51.158437 
L 732.634375 51.158437 
L 732.634375 44.158437 
L 712.634375 44.158437 
z
" style="fill: #008000; opacity: 0.3; stroke: #008000; stroke-linejoin: miter"/>
    </g>
    <g id="text_16">
     <!-- elec -->
     <g transform="translate(740.634375 51.158437) scale(0.1 -0.1)">
      <use xlink:href="#DejaVuSans-65"/>
      <use xlink:href="#DejaVuSans-6c" transform="translate(61.523438 0)"/>
      <use xlink:href="#DejaVuSans-65" transform="translate(89.306641 0)"/>
      <use xlink:href="#DejaVuSans-63" transform="translate(150.830078 0)"/>
     </g>
    </g>
    <g id="patch_11">
     <path d="M 712.634375 65.836562 
L 732.634375 65.836562 
L 732.634375 58.836562 
L 712.634375 58.836562 
z
" style="fill: #ff0000; opacity: 0.3; stroke: #ff0000; stroke-linejoin: miter"/>
    </g>
    <g id="text_17">
     <!-- eyem -->
     <g transform="translate(740.634375 65.836562) scale(0.1 -0.1)">
      <defs>
       <path id="DejaVuSans-79" d="M 2059 -325 
Q 1816 -950 1584 -1140 
Q 1353 -1331 966 -1331 
L 506 -1331 
L 506 -850 
L 844 -850 
Q 1081 -850 1212 -737 
Q 1344 -625 1503 -206 
L 1606 56 
L 191 3500 
L 800 3500 
L 1894 763 
L 2988 3500 
L 3597 3500 
L 2059 -325 
z
" transform="scale(0.015625)"/>
      </defs>
      <use xlink:href="#DejaVuSans-65"/>
      <use xlink:href="#DejaVuSans-79" transform="translate(61.523438 0)"/>
      <use xlink:href="#DejaVuSans-65" transform="translate(120.703125 0)"/>
      <use xlink:href="#DejaVuSans-6d" transform="translate(182.226562 0)"/>
     </g>
    </g>
   </g>
  </g>
 </g>
 <defs>
  <clipPath id="p048d4b4c4d">
   <rect x="108" y="34.56" width="669.6" height="221.76"/>
  </clipPath>
 </defs>
</svg>
