<?xml version="1.0" encoding="utf-8" standalone="no"?>
<!DOCTYPE svg PUBLIC "-//W3C//DTD SVG 1.1//EN"
  "http://www.w3.org/Graphics/SVG/1.1/DTD/svg11.dtd">
<svg xmlns:xlink="http://www.w3.org/1999/xlink" width="460.8pt" height="345.6pt" viewBox="0 0 460.8 345.6" xmlns="http://www.w3.org/2000/svg" version="1.1">
 <metadata>
  <rdf:RDF xmlns:dc="http://purl.org/dc/elements/1.1/" xmlns:cc="http://creativecommons.org/ns#" xmlns:rdf="http://www.w3.org/1999/02/22-rdf-syntax-ns#">
   <cc:Work>
    <dc:type rdf:resource="http://purl.org/dc/dcmitype/StillImage"/>
    <dc:date>2025-10-31T11:53:11.994331</dc:date>
    <dc:format>image/svg+xml</dc:format>
    <dc:creator>
     <cc:Agent>
      <dc:title>Matplotlib v3.10.7, https://matplotlib.org/</dc:title>
     </cc:Agent>
    </dc:creator>
   </cc:Work>
  </rdf:RDF>
 </metadata>
 <defs>
  <style type="text/css">*{stroke-linejoin: round; stroke-linecap: butt}</style>
 </defs>
 <g id="figure_1">
  <g id="patch_1">
   <path d="M 0 345.6 
L 460.8 345.6 
L 460.8 0 
L 0 0 
z
" style="fill: #ffffff"/>
  </g>
  <g id="axes_1">
   <g id="patch_2">
    <path d="M 57.6 307.584 
L 414.72 307.584 
L 414.72 41.472 
L 57.6 41.472 
z
" style="fill: #ffffff"/>
   </g>
   <g id="matplotlib.axis_1">
    <g id="xtick_1">
     <g id="line2d_1">
      <defs>
       <path id="m06a6d592ae" d="M 0 0 
L 0 3.5 
" style="stroke: #000000; stroke-width: 0.8"/>
      </defs>
      <g>
       <use xlink:href="#m06a6d592ae" x="73.832727" y="307.584" style="stroke: #000000; stroke-width: 0.8"/>
      </g>
     </g>
     <g id="text_1">
      <!-- 0 -->
      <g transform="translate(70.651477 322.182437) scale(0.1 -0.1)">
       <defs>
        <path id="DejaVuSans-30" d="M 2034 4250 
Q 1547 4250 1301 3770 
Q 1056 3291 1056 2328 
Q 1056 1369 1301 889 
Q 1547 409 2034 409 
Q 2525 409 2770 889 
Q 3016 1369 3016 2328 
Q 3016 3291 2770 3770 
Q 2525 4250 2034 4250 
z
M 2034 4750 
Q 2819 4750 3233 4129 
Q 3647 3509 3647 2328 
Q 3647 1150 3233 529 
Q 2819 -91 2034 -91 
Q 1250 -91 836 529 
Q 422 1150 422 2328 
Q 422 3509 836 4129 
Q 1250 4750 2034 4750 
z
" transform="scale(0.015625)"/>
       </defs>
       <use xlink:href="#DejaVuSans-30"/>
      </g>
     </g>
    </g>
    <g id="xtick_2">
     <g id="line2d_2">
      <g>
       <use xlink:href="#m06a6d592ae" x="125.777455" y="307.584" style="stroke: #000000; stroke-width: 0.8"/>
      </g>
     </g>
     <g id="text_2">
      <!-- 20 -->
      <g transform="translate(119.414955 322.182437) scale(0.1 -0.1)">
       <defs>
        <path id="DejaVuSans-32" d="M 1228 531 
L 3431 531 
L 3431 0 
L 469 0 
L 469 531 
Q 828 903 1448 1529 
Q 2069 2156 2228 2338 
Q 2531 2678 2651 2914 
Q 2772 3150 2772 3378 
Q 2772 3750 2511 3984 
Q 2250 4219 1831 4219 
Q 1534 4219 1204 4116 
Q 875 4013 500 3803 
L 500 4441 
Q 881 4594 1212 4672 
Q 1544 4750 1819 4750 
Q 2544 4750 2975 4387 
Q 3406 4025 3406 3419 
Q 3406 3131 3298 2873 
Q 3191 2616 2906 2266 
Q 2828 2175 2409 1742 
Q 1991 1309 1228 531 
z
" transform="scale(0.015625)"/>
       </defs>
       <use xlink:href="#DejaVuSans-32"/>
       <use xlink:href="#DejaVuSans-30" transform="translate(63.623047 0)"/>
      </g>
     </g>
    </g>
    <g id="xtick_3">
     <g id="line2d_3">
      <g>
       <use xlink:href="#m06a6d592ae" x="177.722182" y="307.584" style="stroke: #000000; stroke-width: 0.8"/>
      </g>
     </g>
     <g id="text_3">
      <!-- 40 -->
      <g transform="translate(171.359682 322.182437) scale(0.1 -0.1)">
       <defs>
        <path id="DejaVuSans-34" d="M 2419 4116 
L 825 1625 
L 2419 1625 
L 2419 4116 
z
M 2253 4666 
L 3047 4666 
L 3047 1625 
L 3713 1625 
L 3713 1100 
L 3047 1100 
L 3047 0 
L 2419 0 
L 2419 1100 
L 313 1100 
L 313 1709 
L 2253 4666 
z
" transform="scale(0.015625)"/>
       </defs>
       <use xlink:href="#DejaVuSans-34"/>
       <use xlink:href="#DejaVuSans-30" transform="translate(63.623047 0)"/>
      </g>
     </g>
    </g>
    <g id="xtick_4">
     <g id="line2d_4">
      <g>
       <use xlink:href="#m06a6d592ae" x="229.666909" y="307.584" style="stroke: #000000; stroke-width: 0.8"/>
      </g>
     </g>
     <g id="text_4">
      <!-- 60 -->
      <g transform="translate(223.304409 322.182437) scale(0.1 -0.1)">
       <defs>
        <path id="DejaVuSans-36" d="M 2113 2584 
Q 1688 2584 1439 2293 
Q 1191 2003 1191 1497 
Q 1191 994 1439 701 
Q 1688 409 2113 409 
Q 2538 409 2786 701 
Q 3034 994 3034 1497 
Q 3034 2003 2786 2293 
Q 2538 2584 2113 2584 
z
M 3366 4563 
L 3366 3988 
Q 3128 4100 2886 4159 
Q 2644 4219 2406 4219 
Q 1781 4219 1451 3797 
Q 1122 3375 1075 2522 
Q 1259 2794 1537 2939 
Q 1816 3084 2150 3084 
Q 2853 3084 3261 2657 
Q 3669 2231 3669 1497 
Q 3669 778 3244 343 
Q 2819 -91 2113 -91 
Q 1303 -91 875 529 
Q 447 1150 447 2328 
Q 447 3434 972 4092 
Q 1497 4750 2381 4750 
Q 2619 4750 2861 4703 
Q 3103 4656 3366 4563 
z
" transform="scale(0.015625)"/>
       </defs>
       <use xlink:href="#DejaVuSans-36"/>
       <use xlink:href="#DejaVuSans-30" transform="translate(63.623047 0)"/>
      </g>
     </g>
    </g>
    <g id="xtick_5">
     <g id="line2d_5">
      <g>
       <use xlink:href="#m06a6d592ae" x="281.611636" y="307.584" style="stroke: #000000; stroke-width: 0.8"/>
      </g>
     </g>
     <g id="text_5">
      <!-- 80 -->
      <g transform="translate(275.249136 322.182437) scale(0.1 -0.1)">
       <defs>
        <path id="DejaVuSans-38" d="M 2034 2216 
Q 1584 2216 1326 1975 
Q 1069 1734 1069 1313 
Q 1069 891 1326 650 
Q 1584 409 2034 409 
Q 2484 409 2743 651 
Q 3003 894 3003 1313 
Q 3003 1734 2745 1975 
Q 2488 2216 2034 2216 
z
M 1403 2484 
Q 997 2584 770 2862 
Q 544 3141 544 3541 
Q 544 4100 942 4425 
Q 1341 4750 2034 4750 
Q 2731 4750 3128 4425 
Q 3525 4100 3525 3541 
Q 3525 3141 3298 2862 
Q 3072 2584 2669 2484 
Q 3125 2378 3379 2068 
Q 3634 1759 3634 1313 
Q 3634 634 3220 271 
Q 2806 -91 2034 -91 
Q 1263 -91 848 271 
Q 434 634 434 1313 
Q 434 1759 690 2068 
Q 947 2378 1403 2484 
z
M 1172 3481 
Q 1172 3119 1398 2916 
Q 1625 2713 2034 2713 
Q 2441 2713 2670 2916 
Q 2900 3119 2900 3481 
Q 2900 3844 2670 4047 
Q 2441 4250 2034 4250 
Q 1625 4250 1398 4047 
Q 1172 3844 1172 3481 
z
" transform="scale(0.015625)"/>
       </defs>
       <use xlink:href="#DejaVuSans-38"/>
       <use xlink:href="#DejaVuSans-30" transform="translate(63.623047 0)"/>
      </g>
     </g>
    </g>
    <g id="xtick_6">
     <g id="line2d_6">
      <g>
       <use xlink:href="#m06a6d592ae" x="333.556364" y="307.584" style="stroke: #000000; stroke-width: 0.8"/>
      </g>
     </g>
     <g id="text_6">
      <!-- 100 -->
      <g transform="translate(324.012614 322.182437) scale(0.1 -0.1)">
       <defs>
        <path id="DejaVuSans-31" d="M 794 531 
L 1825 531 
L 1825 4091 
L 703 3866 
L 703 4441 
L 1819 4666 
L 2450 4666 
L 2450 531 
L 3481 531 
L 3481 0 
L 794 0 
L 794 531 
z
" transform="scale(0.015625)"/>
       </defs>
       <use xlink:href="#DejaVuSans-31"/>
       <use xlink:href="#DejaVuSans-30" transform="translate(63.623047 0)"/>
       <use xlink:href="#DejaVuSans-30" transform="translate(127.246094 0)"/>
      </g>
     </g>
    </g>
    <g id="xtick_7">
     <g id="line2d_7">
      <g>
       <use xlink:href="#m06a6d592ae" x="385.501091" y="307.584" style="stroke: #000000; stroke-width: 0.8"/>
      </g>
     </g>
     <g id="text_7">
      <!-- 120 -->
      <g transform="translate(375.957341 322.182437) scale(0.1 -0.1)">
       <use xlink:href="#DejaVuSans-31"/>
       <use xlink:href="#DejaVuSans-32" transform="translate(63.623047 0)"/>
       <use xlink:href="#DejaVuSans-30" transform="translate(127.246094 0)"/>
      </g>
     </g>
    </g>
    <g id="text_8">
     <!-- Frequenz in Hz -->
     <g transform="translate(199.294375 335.860562) scale(0.1 -0.1)">
      <defs>
       <path id="DejaVuSans-46" d="M 628 4666 
L 3309 4666 
L 3309 4134 
L 1259 4134 
L 1259 2759 
L 3109 2759 
L 3109 2228 
L 1259 2228 
L 1259 0 
L 628 0 
L 628 4666 
z
" transform="scale(0.015625)"/>
       <path id="DejaVuSans-72" d="M 2631 2963 
Q 2534 3019 2420 3045 
Q 2306 3072 2169 3072 
Q 1681 3072 1420 2755 
Q 1159 2438 1159 1844 
L 1159 0 
L 581 0 
L 581 3500 
L 1159 3500 
L 1159 2956 
Q 1341 3275 1631 3429 
Q 1922 3584 2338 3584 
Q 2397 3584 2469 3576 
Q 2541 3569 2628 3553 
L 2631 2963 
z
" transform="scale(0.015625)"/>
       <path id="DejaVuSans-65" d="M 3597 1894 
L 3597 1613 
L 953 1613 
Q 991 1019 1311 708 
Q 1631 397 2203 397 
Q 2534 397 2845 478 
Q 3156 559 3463 722 
L 3463 178 
Q 3153 47 2828 -22 
Q 2503 -91 2169 -91 
Q 1331 -91 842 396 
Q 353 884 353 1716 
Q 353 2575 817 3079 
Q 1281 3584 2069 3584 
Q 2775 3584 3186 3129 
Q 3597 2675 3597 1894 
z
M 3022 2063 
Q 3016 2534 2758 2815 
Q 2500 3097 2075 3097 
Q 1594 3097 1305 2825 
Q 1016 2553 972 2059 
L 3022 2063 
z
" transform="scale(0.015625)"/>
       <path id="DejaVuSans-71" d="M 947 1747 
Q 947 1113 1208 752 
Q 1469 391 1925 391 
Q 2381 391 2643 752 
Q 2906 1113 2906 1747 
Q 2906 2381 2643 2742 
Q 2381 3103 1925 3103 
Q 1469 3103 1208 2742 
Q 947 2381 947 1747 
z
M 2906 525 
Q 2725 213 2448 61 
Q 2172 -91 1784 -91 
Q 1150 -91 751 415 
Q 353 922 353 1747 
Q 353 2572 751 3078 
Q 1150 3584 1784 3584 
Q 2172 3584 2448 3432 
Q 2725 3281 2906 2969 
L 2906 3500 
L 3481 3500 
L 3481 -1331 
L 2906 -1331 
L 2906 525 
z
" transform="scale(0.015625)"/>
       <path id="DejaVuSans-75" d="M 544 1381 
L 544 3500 
L 1119 3500 
L 1119 1403 
Q 1119 906 1312 657 
Q 1506 409 1894 409 
Q 2359 409 2629 706 
Q 2900 1003 2900 1516 
L 2900 3500 
L 3475 3500 
L 3475 0 
L 2900 0 
L 2900 538 
Q 2691 219 2414 64 
Q 2138 -91 1772 -91 
Q 1169 -91 856 284 
Q 544 659 544 1381 
z
M 1991 3584 
L 1991 3584 
z
" transform="scale(0.015625)"/>
       <path id="DejaVuSans-6e" d="M 3513 2113 
L 3513 0 
L 2938 0 
L 2938 2094 
Q 2938 2591 2744 2837 
Q 2550 3084 2163 3084 
Q 1697 3084 1428 2787 
Q 1159 2491 1159 1978 
L 1159 0 
L 581 0 
L 581 3500 
L 1159 3500 
L 1159 2956 
Q 1366 3272 1645 3428 
Q 1925 3584 2291 3584 
Q 2894 3584 3203 3211 
Q 3513 2838 3513 2113 
z
" transform="scale(0.015625)"/>
       <path id="DejaVuSans-7a" d="M 353 3500 
L 3084 3500 
L 3084 2975 
L 922 459 
L 3084 459 
L 3084 0 
L 275 0 
L 275 525 
L 2438 3041 
L 353 3041 
L 353 3500 
z
" transform="scale(0.015625)"/>
       <path id="DejaVuSans-20" transform="scale(0.015625)"/>
       <path id="DejaVuSans-69" d="M 603 3500 
L 1178 3500 
L 1178 0 
L 603 0 
L 603 3500 
z
M 603 4863 
L 1178 4863 
L 1178 4134 
L 603 4134 
L 603 4863 
z
" transform="scale(0.015625)"/>
       <path id="DejaVuSans-48" d="M 628 4666 
L 1259 4666 
L 1259 2753 
L 3553 2753 
L 3553 4666 
L 4184 4666 
L 4184 0 
L 3553 0 
L 3553 2222 
L 1259 2222 
L 1259 0 
L 628 0 
L 628 4666 
z
" transform="scale(0.015625)"/>
      </defs>
      <use xlink:href="#DejaVuSans-46"/>
      <use xlink:href="#DejaVuSans-72" transform="translate(50.269531 0)"/>
      <use xlink:href="#DejaVuSans-65" transform="translate(89.132812 0)"/>
      <use xlink:href="#DejaVuSans-71" transform="translate(150.65625 0)"/>
      <use xlink:href="#DejaVuSans-75" transform="translate(214.132812 0)"/>
      <use xlink:href="#DejaVuSans-65" transform="translate(277.511719 0)"/>
      <use xlink:href="#DejaVuSans-6e" transform="translate(339.035156 0)"/>
      <use xlink:href="#DejaVuSans-7a" transform="translate(402.414062 0)"/>
      <use xlink:href="#DejaVuSans-20" transform="translate(454.904297 0)"/>
      <use xlink:href="#DejaVuSans-69" transform="translate(486.691406 0)"/>
      <use xlink:href="#DejaVuSans-6e" transform="translate(514.474609 0)"/>
      <use xlink:href="#DejaVuSans-20" transform="translate(577.853516 0)"/>
      <use xlink:href="#DejaVuSans-48" transform="translate(609.640625 0)"/>
      <use xlink:href="#DejaVuSans-7a" transform="translate(684.835938 0)"/>
     </g>
    </g>
   </g>
   <g id="matplotlib.axis_2">
    <g id="ytick_1">
     <g id="line2d_8">
      <defs>
       <path id="m01ce925381" d="M 0 0 
L -3.5 0 
" style="stroke: #000000; stroke-width: 0.8"/>
      </defs>
      <g>
       <use xlink:href="#m01ce925381" x="57.6" y="307.584" style="stroke: #000000; stroke-width: 0.8"/>
      </g>
     </g>
     <g id="text_9">
      <!-- $\mathdefault{10^{-1}}$ -->
      <g transform="translate(27.1 311.383219) scale(0.1 -0.1)">
       <defs>
        <path id="DejaVuSans-2212" d="M 678 2272 
L 4684 2272 
L 4684 1741 
L 678 1741 
L 678 2272 
z
" transform="scale(0.015625)"/>
       </defs>
       <use xlink:href="#DejaVuSans-31" transform="translate(0 0.684375)"/>
       <use xlink:href="#DejaVuSans-30" transform="translate(63.623047 0.684375)"/>
       <use xlink:href="#DejaVuSans-2212" transform="translate(128.203125 38.965625) scale(0.7)"/>
       <use xlink:href="#DejaVuSans-31" transform="translate(186.855469 38.965625) scale(0.7)"/>
      </g>
     </g>
    </g>
    <g id="ytick_2">
     <g id="line2d_9">
      <g>
       <use xlink:href="#m01ce925381" x="57.6" y="241.056" style="stroke: #000000; stroke-width: 0.8"/>
      </g>
     </g>
     <g id="text_10">
      <!-- $\mathdefault{10^{0}}$ -->
      <g transform="translate(33 244.855219) scale(0.1 -0.1)">
       <use xlink:href="#DejaVuSans-31" transform="translate(0 0.765625)"/>
       <use xlink:href="#DejaVuSans-30" transform="translate(63.623047 0.765625)"/>
       <use xlink:href="#DejaVuSans-30" transform="translate(128.203125 39.046875) scale(0.7)"/>
      </g>
     </g>
    </g>
    <g id="ytick_3">
     <g id="line2d_10">
      <g>
       <use xlink:href="#m01ce925381" x="57.6" y="174.528" style="stroke: #000000; stroke-width: 0.8"/>
      </g>
     </g>
     <g id="text_11">
      <!-- $\mathdefault{10^{1}}$ -->
      <g transform="translate(33 178.327219) scale(0.1 -0.1)">
       <use xlink:href="#DejaVuSans-31" transform="translate(0 0.684375)"/>
       <use xlink:href="#DejaVuSans-30" transform="translate(63.623047 0.684375)"/>
       <use xlink:href="#DejaVuSans-31" transform="translate(128.203125 38.965625) scale(0.7)"/>
      </g>
     </g>
    </g>
    <g id="ytick_4">
     <g id="line2d_11">
      <g>
       <use xlink:href="#m01ce925381" x="57.6" y="108" style="stroke: #000000; stroke-width: 0.8"/>
      </g>
     </g>
     <g id="text_12">
      <!-- $\mathdefault{10^{2}}$ -->
      <g transform="translate(33 111.799219) scale(0.1 -0.1)">
       <use xlink:href="#DejaVuSans-31" transform="translate(0 0.765625)"/>
       <use xlink:href="#DejaVuSans-30" transform="translate(63.623047 0.765625)"/>
       <use xlink:href="#DejaVuSans-32" transform="translate(128.203125 39.046875) scale(0.7)"/>
      </g>
     </g>
    </g>
    <g id="ytick_5">
     <g id="line2d_12">
      <g>
       <use xlink:href="#m01ce925381" x="57.6" y="41.472" style="stroke: #000000; stroke-width: 0.8"/>
      </g>
     </g>
     <g id="text_13">
      <!-- $\mathdefault{10^{3}}$ -->
      <g transform="translate(33 45.271219) scale(0.1 -0.1)">
       <defs>
        <path id="DejaVuSans-33" d="M 2597 2516 
Q 3050 2419 3304 2112 
Q 3559 1806 3559 1356 
Q 3559 666 3084 287 
Q 2609 -91 1734 -91 
Q 1441 -91 1130 -33 
Q 819 25 488 141 
L 488 750 
Q 750 597 1062 519 
Q 1375 441 1716 441 
Q 2309 441 2620 675 
Q 2931 909 2931 1356 
Q 2931 1769 2642 2001 
Q 2353 2234 1838 2234 
L 1294 2234 
L 1294 2753 
L 1863 2753 
Q 2328 2753 2575 2939 
Q 2822 3125 2822 3475 
Q 2822 3834 2567 4026 
Q 2313 4219 1838 4219 
Q 1578 4219 1281 4162 
Q 984 4106 628 3988 
L 628 4550 
Q 988 4650 1302 4700 
Q 1616 4750 1894 4750 
Q 2613 4750 3031 4423 
Q 3450 4097 3450 3541 
Q 3450 3153 3228 2886 
Q 3006 2619 2597 2516 
z
" transform="scale(0.015625)"/>
       </defs>
       <use xlink:href="#DejaVuSans-31" transform="translate(0 0.765625)"/>
       <use xlink:href="#DejaVuSans-30" transform="translate(63.623047 0.765625)"/>
       <use xlink:href="#DejaVuSans-33" transform="translate(128.203125 39.046875) scale(0.7)"/>
      </g>
     </g>
    </g>
    <g id="ytick_6">
     <g id="line2d_13">
      <defs>
       <path id="m76a8d7e94b" d="M 0 0 
L -2 0 
" style="stroke: #000000; stroke-width: 0.6"/>
      </defs>
      <g>
       <use xlink:href="#m76a8d7e94b" x="57.6" y="287.557076" style="stroke: #000000; stroke-width: 0.6"/>
      </g>
     </g>
    </g>
    <g id="ytick_7">
     <g id="line2d_14">
      <g>
       <use xlink:href="#m76a8d7e94b" x="57.6" y="275.842077" style="stroke: #000000; stroke-width: 0.6"/>
      </g>
     </g>
    </g>
    <g id="ytick_8">
     <g id="line2d_15">
      <g>
       <use xlink:href="#m76a8d7e94b" x="57.6" y="267.530153" style="stroke: #000000; stroke-width: 0.6"/>
      </g>
     </g>
    </g>
    <g id="ytick_9">
     <g id="line2d_16">
      <g>
       <use xlink:href="#m76a8d7e94b" x="57.6" y="261.082924" style="stroke: #000000; stroke-width: 0.6"/>
      </g>
     </g>
    </g>
    <g id="ytick_10">
     <g id="line2d_17">
      <g>
       <use xlink:href="#m76a8d7e94b" x="57.6" y="255.815154" style="stroke: #000000; stroke-width: 0.6"/>
      </g>
     </g>
    </g>
    <g id="ytick_11">
     <g id="line2d_18">
      <g>
       <use xlink:href="#m76a8d7e94b" x="57.6" y="251.361318" style="stroke: #000000; stroke-width: 0.6"/>
      </g>
     </g>
    </g>
    <g id="ytick_12">
     <g id="line2d_19">
      <g>
       <use xlink:href="#m76a8d7e94b" x="57.6" y="247.503229" style="stroke: #000000; stroke-width: 0.6"/>
      </g>
     </g>
    </g>
    <g id="ytick_13">
     <g id="line2d_20">
      <g>
       <use xlink:href="#m76a8d7e94b" x="57.6" y="244.100154" style="stroke: #000000; stroke-width: 0.6"/>
      </g>
     </g>
    </g>
    <g id="ytick_14">
     <g id="line2d_21">
      <g>
       <use xlink:href="#m76a8d7e94b" x="57.6" y="221.029076" style="stroke: #000000; stroke-width: 0.6"/>
      </g>
     </g>
    </g>
    <g id="ytick_15">
     <g id="line2d_22">
      <g>
       <use xlink:href="#m76a8d7e94b" x="57.6" y="209.314077" style="stroke: #000000; stroke-width: 0.6"/>
      </g>
     </g>
    </g>
    <g id="ytick_16">
     <g id="line2d_23">
      <g>
       <use xlink:href="#m76a8d7e94b" x="57.6" y="201.002153" style="stroke: #000000; stroke-width: 0.6"/>
      </g>
     </g>
    </g>
    <g id="ytick_17">
     <g id="line2d_24">
      <g>
       <use xlink:href="#m76a8d7e94b" x="57.6" y="194.554924" style="stroke: #000000; stroke-width: 0.6"/>
      </g>
     </g>
    </g>
    <g id="ytick_18">
     <g id="line2d_25">
      <g>
       <use xlink:href="#m76a8d7e94b" x="57.6" y="189.287154" style="stroke: #000000; stroke-width: 0.6"/>
      </g>
     </g>
    </g>
    <g id="ytick_19">
     <g id="line2d_26">
      <g>
       <use xlink:href="#m76a8d7e94b" x="57.6" y="184.833318" style="stroke: #000000; stroke-width: 0.6"/>
      </g>
     </g>
    </g>
    <g id="ytick_20">
     <g id="line2d_27">
      <g>
       <use xlink:href="#m76a8d7e94b" x="57.6" y="180.975229" style="stroke: #000000; stroke-width: 0.6"/>
      </g>
     </g>
    </g>
    <g id="ytick_21">
     <g id="line2d_28">
      <g>
       <use xlink:href="#m76a8d7e94b" x="57.6" y="177.572154" style="stroke: #000000; stroke-width: 0.6"/>
      </g>
     </g>
    </g>
    <g id="ytick_22">
     <g id="line2d_29">
      <g>
       <use xlink:href="#m76a8d7e94b" x="57.6" y="154.501076" style="stroke: #000000; stroke-width: 0.6"/>
      </g>
     </g>
    </g>
    <g id="ytick_23">
     <g id="line2d_30">
      <g>
       <use xlink:href="#m76a8d7e94b" x="57.6" y="142.786077" style="stroke: #000000; stroke-width: 0.6"/>
      </g>
     </g>
    </g>
    <g id="ytick_24">
     <g id="line2d_31">
      <g>
       <use xlink:href="#m76a8d7e94b" x="57.6" y="134.474153" style="stroke: #000000; stroke-width: 0.6"/>
      </g>
     </g>
    </g>
    <g id="ytick_25">
     <g id="line2d_32">
      <g>
       <use xlink:href="#m76a8d7e94b" x="57.6" y="128.026924" style="stroke: #000000; stroke-width: 0.6"/>
      </g>
     </g>
    </g>
    <g id="ytick_26">
     <g id="line2d_33">
      <g>
       <use xlink:href="#m76a8d7e94b" x="57.6" y="122.759154" style="stroke: #000000; stroke-width: 0.6"/>
      </g>
     </g>
    </g>
    <g id="ytick_27">
     <g id="line2d_34">
      <g>
       <use xlink:href="#m76a8d7e94b" x="57.6" y="118.305318" style="stroke: #000000; stroke-width: 0.6"/>
      </g>
     </g>
    </g>
    <g id="ytick_28">
     <g id="line2d_35">
      <g>
       <use xlink:href="#m76a8d7e94b" x="57.6" y="114.447229" style="stroke: #000000; stroke-width: 0.6"/>
      </g>
     </g>
    </g>
    <g id="ytick_29">
     <g id="line2d_36">
      <g>
       <use xlink:href="#m76a8d7e94b" x="57.6" y="111.044154" style="stroke: #000000; stroke-width: 0.6"/>
      </g>
     </g>
    </g>
    <g id="ytick_30">
     <g id="line2d_37">
      <g>
       <use xlink:href="#m76a8d7e94b" x="57.6" y="87.973076" style="stroke: #000000; stroke-width: 0.6"/>
      </g>
     </g>
    </g>
    <g id="ytick_31">
     <g id="line2d_38">
      <g>
       <use xlink:href="#m76a8d7e94b" x="57.6" y="76.258077" style="stroke: #000000; stroke-width: 0.6"/>
      </g>
     </g>
    </g>
    <g id="ytick_32">
     <g id="line2d_39">
      <g>
       <use xlink:href="#m76a8d7e94b" x="57.6" y="67.946153" style="stroke: #000000; stroke-width: 0.6"/>
      </g>
     </g>
    </g>
    <g id="ytick_33">
     <g id="line2d_40">
      <g>
       <use xlink:href="#m76a8d7e94b" x="57.6" y="61.498924" style="stroke: #000000; stroke-width: 0.6"/>
      </g>
     </g>
    </g>
    <g id="ytick_34">
     <g id="line2d_41">
      <g>
       <use xlink:href="#m76a8d7e94b" x="57.6" y="56.231154" style="stroke: #000000; stroke-width: 0.6"/>
      </g>
     </g>
    </g>
    <g id="ytick_35">
     <g id="line2d_42">
      <g>
       <use xlink:href="#m76a8d7e94b" x="57.6" y="51.777318" style="stroke: #000000; stroke-width: 0.6"/>
      </g>
     </g>
    </g>
    <g id="ytick_36">
     <g id="line2d_43">
      <g>
       <use xlink:href="#m76a8d7e94b" x="57.6" y="47.919229" style="stroke: #000000; stroke-width: 0.6"/>
      </g>
     </g>
    </g>
    <g id="ytick_37">
     <g id="line2d_44">
      <g>
       <use xlink:href="#m76a8d7e94b" x="57.6" y="44.516154" style="stroke: #000000; stroke-width: 0.6"/>
      </g>
     </g>
    </g>
    <g id="text_14">
     <!-- Leistung/Frequenz (V²/Hz) -->
     <g transform="translate(21.020312 239.182687) rotate(-90) scale(0.1 -0.1)">
      <defs>
       <path id="DejaVuSans-4c" d="M 628 4666 
L 1259 4666 
L 1259 531 
L 3531 531 
L 3531 0 
L 628 0 
L 628 4666 
z
" transform="scale(0.015625)"/>
       <path id="DejaVuSans-73" d="M 2834 3397 
L 2834 2853 
Q 2591 2978 2328 3040 
Q 2066 3103 1784 3103 
Q 1356 3103 1142 2972 
Q 928 2841 928 2578 
Q 928 2378 1081 2264 
Q 1234 2150 1697 2047 
L 1894 2003 
Q 2506 1872 2764 1633 
Q 3022 1394 3022 966 
Q 3022 478 2636 193 
Q 2250 -91 1575 -91 
Q 1294 -91 989 -36 
Q 684 19 347 128 
L 347 722 
Q 666 556 975 473 
Q 1284 391 1588 391 
Q 1994 391 2212 530 
Q 2431 669 2431 922 
Q 2431 1156 2273 1281 
Q 2116 1406 1581 1522 
L 1381 1569 
Q 847 1681 609 1914 
Q 372 2147 372 2553 
Q 372 3047 722 3315 
Q 1072 3584 1716 3584 
Q 2034 3584 2315 3537 
Q 2597 3491 2834 3397 
z
" transform="scale(0.015625)"/>
       <path id="DejaVuSans-74" d="M 1172 4494 
L 1172 3500 
L 2356 3500 
L 2356 3053 
L 1172 3053 
L 1172 1153 
Q 1172 725 1289 603 
Q 1406 481 1766 481 
L 2356 481 
L 2356 0 
L 1766 0 
Q 1100 0 847 248 
Q 594 497 594 1153 
L 594 3053 
L 172 3053 
L 172 3500 
L 594 3500 
L 594 4494 
L 1172 4494 
z
" transform="scale(0.015625)"/>
       <path id="DejaVuSans-67" d="M 2906 1791 
Q 2906 2416 2648 2759 
Q 2391 3103 1925 3103 
Q 1463 3103 1205 2759 
Q 947 2416 947 1791 
Q 947 1169 1205 825 
Q 1463 481 1925 481 
Q 2391 481 2648 825 
Q 2906 1169 2906 1791 
z
M 3481 434 
Q 3481 -459 3084 -895 
Q 2688 -1331 1869 -1331 
Q 1566 -1331 1297 -1286 
Q 1028 -1241 775 -1147 
L 775 -588 
Q 1028 -725 1275 -790 
Q 1522 -856 1778 -856 
Q 2344 -856 2625 -561 
Q 2906 -266 2906 331 
L 2906 616 
Q 2728 306 2450 153 
Q 2172 0 1784 0 
Q 1141 0 747 490 
Q 353 981 353 1791 
Q 353 2603 747 3093 
Q 1141 3584 1784 3584 
Q 2172 3584 2450 3431 
Q 2728 3278 2906 2969 
L 2906 3500 
L 3481 3500 
L 3481 434 
z
" transform="scale(0.015625)"/>
       <path id="DejaVuSans-2f" d="M 1625 4666 
L 2156 4666 
L 531 -594 
L 0 -594 
L 1625 4666 
z
" transform="scale(0.015625)"/>
       <path id="DejaVuSans-28" d="M 1984 4856 
Q 1566 4138 1362 3434 
Q 1159 2731 1159 2009 
Q 1159 1288 1364 580 
Q 1569 -128 1984 -844 
L 1484 -844 
Q 1016 -109 783 600 
Q 550 1309 550 2009 
Q 550 2706 781 3412 
Q 1013 4119 1484 4856 
L 1984 4856 
z
" transform="scale(0.015625)"/>
       <path id="DejaVuSans-56" d="M 1831 0 
L 50 4666 
L 709 4666 
L 2188 738 
L 3669 4666 
L 4325 4666 
L 2547 0 
L 1831 0 
z
" transform="scale(0.015625)"/>
       <path id="DejaVuSans-b2" d="M 838 2444 
L 2163 2444 
L 2163 2088 
L 294 2088 
L 294 2431 
Q 400 2528 597 2703 
Q 1672 3656 1672 3950 
Q 1672 4156 1509 4282 
Q 1347 4409 1081 4409 
Q 919 4409 728 4354 
Q 538 4300 313 4191 
L 313 4575 
Q 553 4663 761 4706 
Q 969 4750 1147 4750 
Q 1600 4750 1872 4544 
Q 2144 4338 2144 4000 
Q 2144 3566 1109 2678 
Q 934 2528 838 2444 
z
" transform="scale(0.015625)"/>
       <path id="DejaVuSans-29" d="M 513 4856 
L 1013 4856 
Q 1481 4119 1714 3412 
Q 1947 2706 1947 2009 
Q 1947 1309 1714 600 
Q 1481 -109 1013 -844 
L 513 -844 
Q 928 -128 1133 580 
Q 1338 1288 1338 2009 
Q 1338 2731 1133 3434 
Q 928 4138 513 4856 
z
" transform="scale(0.015625)"/>
      </defs>
      <use xlink:href="#DejaVuSans-4c"/>
      <use xlink:href="#DejaVuSans-65" transform="translate(53.962891 0)"/>
      <use xlink:href="#DejaVuSans-69" transform="translate(115.486328 0)"/>
      <use xlink:href="#DejaVuSans-73" transform="translate(143.269531 0)"/>
      <use xlink:href="#DejaVuSans-74" transform="translate(195.369141 0)"/>
      <use xlink:href="#DejaVuSans-75" transform="translate(234.578125 0)"/>
      <use xlink:href="#DejaVuSans-6e" transform="translate(297.957031 0)"/>
      <use xlink:href="#DejaVuSans-67" transform="translate(361.335938 0)"/>
      <use xlink:href="#DejaVuSans-2f" transform="translate(424.8125 0)"/>
      <use xlink:href="#DejaVuSans-46" transform="translate(458.503906 0)"/>
      <use xlink:href="#DejaVuSans-72" transform="translate(508.773438 0)"/>
      <use xlink:href="#DejaVuSans-65" transform="translate(547.636719 0)"/>
      <use xlink:href="#DejaVuSans-71" transform="translate(609.160156 0)"/>
      <use xlink:href="#DejaVuSans-75" transform="translate(672.636719 0)"/>
      <use xlink:href="#DejaVuSans-65" transform="translate(736.015625 0)"/>
      <use xlink:href="#DejaVuSans-6e" transform="translate(797.539062 0)"/>
      <use xlink:href="#DejaVuSans-7a" transform="translate(860.917969 0)"/>
      <use xlink:href="#DejaVuSans-20" transform="translate(913.408203 0)"/>
      <use xlink:href="#DejaVuSans-28" transform="translate(945.195312 0)"/>
      <use xlink:href="#DejaVuSans-56" transform="translate(984.208984 0)"/>
      <use xlink:href="#DejaVuSans-b2" transform="translate(1052.617188 0)"/>
      <use xlink:href="#DejaVuSans-2f" transform="translate(1092.705078 0)"/>
      <use xlink:href="#DejaVuSans-48" transform="translate(1126.396484 0)"/>
      <use xlink:href="#DejaVuSans-7a" transform="translate(1201.591797 0)"/>
      <use xlink:href="#DejaVuSans-29" transform="translate(1254.082031 0)"/>
     </g>
    </g>
   </g>
   <g id="line2d_45">
    <path d="M 73.832727 104.962196 
L 74.149773 64.769604 
L 74.466818 76.066846 
L 75.100909 125.649765 
L 76.052045 165.298267 
L 76.369091 169.717158 
L 77.003182 183.963788 
L 77.320227 187.526765 
L 77.637273 188.990426 
L 77.954318 191.671774 
L 78.588409 200.366475 
L 79.2225 208.242664 
L 79.539545 210.160111 
L 80.173636 219.275019 
L 80.490682 219.034546 
L 81.124773 227.307345 
L 81.441818 225.413376 
L 81.758864 228.353717 
L 82.075909 232.485189 
L 82.71 238.169707 
L 83.027045 237.464145 
L 83.344091 233.314276 
L 83.661136 235.965354 
L 83.978182 241.258472 
L 84.295227 241.409978 
L 84.612273 242.541163 
L 84.929318 245.868023 
L 85.246364 244.187873 
L 85.563409 246.304443 
L 85.880455 250.189693 
L 86.1975 247.411468 
L 86.514545 247.495868 
L 87.148636 249.096726 
L 87.465682 249.226973 
L 87.782727 251.937173 
L 88.099773 251.663442 
L 88.416818 251.738884 
L 88.733864 250.770093 
L 89.050909 253.152975 
L 89.367955 252.854925 
L 90.002045 246.86099 
L 90.319091 247.386727 
L 90.636136 249.420297 
L 90.953182 248.154058 
L 91.270227 245.912708 
L 91.587273 242.793446 
L 91.904318 242.027231 
L 92.221364 244.055549 
L 92.538409 242.997212 
L 92.855455 239.940657 
L 93.1725 238.554019 
L 93.489545 235.671959 
L 93.806591 234.079396 
L 94.123636 231.516056 
L 94.440682 227.260068 
L 94.757727 225.687322 
L 95.074773 226.823387 
L 95.391818 230.442429 
L 96.025909 222.550496 
L 96.342955 222.225356 
L 96.66 222.084441 
L 96.977045 222.975034 
L 97.294091 224.474243 
L 97.611136 224.701532 
L 97.928182 224.360559 
L 98.245227 221.598607 
L 98.562273 220.260157 
L 98.879318 220.646053 
L 99.196364 219.966852 
L 99.830455 214.707266 
L 100.1475 214.161996 
L 100.464545 213.057668 
L 100.781591 216.570395 
L 101.098636 218.372302 
L 101.732727 224.595143 
L 102.049773 226.619569 
L 102.366818 226.721985 
L 103.000909 231.419031 
L 103.317955 231.10753 
L 103.635 233.084205 
L 103.952045 237.176046 
L 104.269091 237.399271 
L 104.586136 238.198586 
L 104.903182 237.04815 
L 105.220227 237.856733 
L 105.537273 239.475066 
L 105.854318 239.51717 
L 106.488409 242.511324 
L 106.805455 242.028285 
L 107.1225 241.992546 
L 107.439545 242.075212 
L 107.756591 241.009073 
L 108.073636 241.268013 
L 108.390682 242.873008 
L 108.707727 242.921842 
L 109.024773 245.216934 
L 109.341818 246.226092 
L 109.975909 243.128039 
L 110.292955 247.700457 
L 110.61 245.722234 
L 110.927045 244.943462 
L 111.244091 241.348263 
L 111.561136 244.712467 
L 111.878182 245.77682 
L 112.195227 244.032941 
L 112.512273 244.075339 
L 112.829318 245.114235 
L 113.146364 241.987926 
L 113.463409 240.837823 
L 114.0975 245.874474 
L 114.414545 246.27679 
L 114.731591 247.758392 
L 115.048636 248.67454 
L 115.365682 249.082728 
L 115.682727 247.889349 
L 115.999773 247.378814 
L 116.316818 246.558737 
L 116.633864 247.000416 
L 116.950909 244.319549 
L 117.267955 245.344965 
L 117.585 249.10148 
L 117.902045 249.631775 
L 118.219091 249.236898 
L 118.536136 250.10035 
L 118.853182 250.496143 
L 119.170227 246.102551 
L 119.487273 246.771685 
L 119.804318 250.452159 
L 120.121364 248.572597 
L 120.438409 248.739842 
L 120.755455 248.440592 
L 121.0725 246.044131 
L 121.389545 247.386072 
L 121.706591 247.866991 
L 122.023636 248.68985 
L 122.340682 247.089785 
L 122.657727 247.456543 
L 122.974773 247.269025 
L 123.291818 246.021206 
L 123.608864 249.932614 
L 123.925909 248.574537 
L 124.56 246.545173 
L 124.877045 246.525716 
L 125.194091 247.302644 
L 125.511136 246.312299 
L 125.828182 246.556555 
L 126.145227 245.718596 
L 126.462273 246.196318 
L 126.779318 248.124603 
L 127.096364 247.448062 
L 127.413409 244.372686 
L 127.730455 248.483166 
L 128.0475 246.06924 
L 128.364545 248.202441 
L 128.681591 247.097881 
L 128.998636 248.248241 
L 129.315682 250.488046 
L 129.632727 248.931748 
L 130.266818 251.644273 
L 130.900909 250.947629 
L 131.217955 251.574825 
L 131.535 253.337651 
L 131.852045 251.754527 
L 132.169091 251.58751 
L 132.486136 254.575637 
L 132.803182 248.896049 
L 133.120227 247.945415 
L 133.437273 247.970967 
L 133.754318 252.024902 
L 134.071364 253.903849 
L 134.388409 253.156938 
L 134.705455 251.665656 
L 135.0225 250.816623 
L 135.339545 251.52357 
L 135.973636 248.385262 
L 136.924773 253.823295 
L 137.241818 253.175963 
L 137.558864 253.311398 
L 137.875909 254.865142 
L 138.192955 253.90033 
L 138.827045 251.00589 
L 139.144091 251.383245 
L 139.461136 250.501755 
L 139.778182 250.817683 
L 140.095227 254.19868 
L 140.412273 251.293482 
L 140.729318 250.71654 
L 141.046364 249.599786 
L 141.363409 246.286654 
L 141.9975 249.27965 
L 142.631591 250.100319 
L 142.948636 250.145047 
L 143.582727 248.173058 
L 143.899773 246.674671 
L 144.216818 246.523598 
L 144.533864 244.372983 
L 144.850909 245.539654 
L 145.167955 245.332695 
L 145.485 243.036779 
L 145.802045 242.313172 
L 146.119091 241.988116 
L 146.436136 244.722608 
L 146.753182 246.228032 
L 147.070227 243.481455 
L 147.387273 243.779464 
L 147.704318 247.474269 
L 148.021364 248.853366 
L 148.338409 247.46651 
L 148.655455 247.095406 
L 148.9725 248.032659 
L 149.289545 248.173405 
L 149.606591 245.843641 
L 149.923636 244.438818 
L 150.240682 244.146981 
L 150.557727 243.220652 
L 150.874773 241.760175 
L 151.508864 244.455293 
L 151.825909 244.17858 
L 152.142955 245.796832 
L 152.777045 244.820854 
L 153.094091 247.239548 
L 153.411136 251.01704 
L 153.728182 245.977818 
L 154.362273 244.838436 
L 154.679318 246.664499 
L 154.996364 246.136949 
L 155.630455 246.662499 
L 155.9475 244.426373 
L 156.264545 247.456073 
L 156.581591 247.391465 
L 156.898636 244.834739 
L 157.215682 243.50482 
L 157.532727 246.921084 
L 157.849773 245.821892 
L 158.166818 242.892826 
L 158.483864 242.991554 
L 158.800909 246.25459 
L 159.117955 247.344836 
L 159.435 251.569086 
L 159.752045 251.612596 
L 160.069091 250.65879 
L 160.386136 248.867224 
L 160.703182 248.929013 
L 161.020227 247.600403 
L 161.337273 244.5042 
L 161.654318 242.748677 
L 161.971364 243.236762 
L 162.288409 246.007043 
L 162.605455 245.661054 
L 162.9225 241.669183 
L 163.239545 243.68872 
L 163.556591 247.963666 
L 163.873636 247.332946 
L 164.190682 244.982818 
L 164.507727 245.28602 
L 164.824773 245.210962 
L 165.141818 245.740679 
L 165.458864 244.172628 
L 166.092955 247.958603 
L 166.41 246.990355 
L 166.727045 247.9751 
L 167.044091 246.152133 
L 167.361136 245.567019 
L 167.678182 244.240814 
L 167.995227 245.461664 
L 168.312273 243.02826 
L 168.629318 244.404508 
L 168.946364 246.964783 
L 169.263409 247.1164 
L 169.580455 246.754073 
L 169.8975 245.086568 
L 170.214545 245.084034 
L 170.531591 244.55483 
L 170.848636 243.163438 
L 171.165682 245.874913 
L 171.482727 244.022537 
L 171.799773 242.938127 
L 172.116818 243.162594 
L 172.433864 246.024783 
L 172.750909 245.760611 
L 173.067955 246.989931 
L 173.385 245.462122 
L 173.702045 245.38755 
L 174.019091 242.960473 
L 174.336136 241.449589 
L 174.970227 243.731241 
L 175.287273 244.713569 
L 175.604318 246.787629 
L 175.921364 247.694398 
L 176.238409 247.576955 
L 176.555455 243.051751 
L 176.8725 244.436396 
L 177.189545 243.359384 
L 177.506591 243.508287 
L 177.823636 242.205202 
L 178.140682 240.194925 
L 178.457727 241.02858 
L 179.091818 239.951308 
L 179.408864 243.22518 
L 179.725909 241.3346 
L 180.042955 241.329573 
L 180.36 241.79819 
L 180.677045 242.91102 
L 180.994091 240.722523 
L 181.311136 239.57639 
L 181.628182 239.848887 
L 181.945227 243.012074 
L 182.262273 242.16648 
L 182.579318 242.118127 
L 182.896364 243.185916 
L 183.530455 240.021828 
L 183.8475 243.364547 
L 184.164545 243.885173 
L 184.481591 241.376736 
L 184.798636 241.383549 
L 185.115682 240.97964 
L 185.432727 240.211026 
L 185.749773 241.548292 
L 186.066818 243.390683 
L 186.700909 242.870071 
L 187.017955 243.241639 
L 187.652045 239.077687 
L 187.969091 241.016699 
L 188.286136 241.681686 
L 188.603182 241.596895 
L 188.920227 242.983392 
L 189.554318 241.815525 
L 189.871364 243.039128 
L 190.188409 242.70097 
L 190.505455 242.575294 
L 191.139545 241.20055 
L 191.456591 242.471177 
L 191.773636 241.359754 
L 192.090682 242.011851 
L 192.407727 241.744417 
L 192.724773 241.883998 
L 193.041818 243.233566 
L 193.358864 240.089562 
L 193.675909 240.303101 
L 193.992955 238.038265 
L 194.31 236.771713 
L 194.627045 236.558471 
L 194.944091 238.099431 
L 195.578182 242.69694 
L 195.895227 240.337924 
L 196.212273 236.082684 
L 196.846364 239.770866 
L 197.163409 239.320525 
L 197.480455 237.318014 
L 197.7975 240.247989 
L 198.114545 241.364982 
L 198.431591 236.109757 
L 198.748636 237.73176 
L 199.065682 237.925545 
L 199.382727 238.68026 
L 199.699773 241.515677 
L 200.016818 239.431991 
L 200.333864 238.168352 
L 200.650909 239.292272 
L 200.967955 238.079028 
L 201.285 236.378541 
L 201.602045 238.775556 
L 202.236136 241.338308 
L 202.553182 239.502193 
L 202.870227 236.592427 
L 203.187273 238.301641 
L 203.504318 237.772248 
L 203.821364 238.454984 
L 204.138409 237.694105 
L 204.455455 239.3867 
L 204.7725 236.331384 
L 205.089545 239.480268 
L 205.406591 240.356522 
L 205.723636 239.534464 
L 206.040682 240.648571 
L 206.357727 237.795639 
L 206.674773 237.342908 
L 206.991818 235.198748 
L 207.308864 235.940428 
L 207.625909 238.887545 
L 207.942955 238.981864 
L 208.26 237.324319 
L 208.577045 240.696731 
L 208.894091 238.843651 
L 209.528182 240.495033 
L 209.845227 240.164286 
L 210.162273 236.394539 
L 210.479318 234.010313 
L 211.113409 240.016002 
L 211.7475 236.370489 
L 212.064545 237.158373 
L 212.381591 240.90118 
L 212.698636 237.674533 
L 213.015682 233.259277 
L 213.332727 235.828748 
L 213.649773 235.608161 
L 213.966818 236.400481 
L 214.283864 238.29397 
L 214.917955 239.034502 
L 215.235 240.04084 
L 215.552045 236.989602 
L 215.869091 236.317461 
L 216.186136 234.358211 
L 216.503182 235.313286 
L 216.820227 237.523386 
L 217.137273 236.7953 
L 217.454318 234.816359 
L 217.771364 234.16764 
L 218.088409 236.40817 
L 218.405455 235.514584 
L 218.7225 234.269909 
L 219.039545 237.344582 
L 219.356591 236.170984 
L 219.673636 236.01497 
L 219.990682 237.788394 
L 220.307727 237.53576 
L 220.624773 236.098611 
L 220.941818 235.998658 
L 221.258864 237.576649 
L 221.575909 234.397041 
L 221.892955 233.247337 
L 222.21 235.307931 
L 222.527045 238.161702 
L 222.844091 236.105782 
L 223.161136 237.002768 
L 223.478182 233.843752 
L 223.795227 234.156144 
L 224.112273 235.693785 
L 224.429318 232.430447 
L 224.746364 235.38797 
L 225.063409 233.332494 
L 225.380455 237.262278 
L 225.6975 235.661646 
L 226.014545 236.006599 
L 226.331591 236.89749 
L 226.648636 236.062481 
L 226.965682 234.485596 
L 227.282727 235.529856 
L 227.599773 234.504442 
L 227.916818 235.178731 
L 228.550909 239.262242 
L 228.867955 236.104583 
L 229.185 236.643934 
L 229.502045 230.662053 
L 229.819091 229.356282 
L 230.136136 234.24023 
L 230.453182 233.310001 
L 230.770227 236.282219 
L 231.087273 236.236167 
L 231.404318 233.136391 
L 231.721364 232.786163 
L 232.038409 234.837578 
L 232.355455 233.701429 
L 232.6725 230.146219 
L 232.989545 233.645703 
L 233.306591 239.163705 
L 233.623636 237.789123 
L 233.940682 235.736339 
L 234.257727 236.373006 
L 234.574773 236.70964 
L 234.891818 236.517411 
L 235.208864 233.841727 
L 235.525909 232.850624 
L 235.842955 233.452079 
L 236.16 235.106604 
L 236.477045 233.12744 
L 237.111136 234.845329 
L 237.428182 232.662976 
L 237.745227 232.673004 
L 238.062273 232.028727 
L 238.379318 235.936356 
L 238.696364 234.146212 
L 239.6475 232.317329 
L 239.964545 235.783396 
L 240.281591 235.278046 
L 240.598636 235.079383 
L 240.915682 232.29848 
L 241.232727 232.189745 
L 241.549773 232.65907 
L 241.866818 234.787096 
L 242.183864 232.525746 
L 242.500909 232.219057 
L 242.817955 233.968066 
L 243.135 234.312585 
L 243.452045 231.247212 
L 243.769091 234.864773 
L 244.086136 236.069998 
L 244.403182 233.234387 
L 244.720227 232.836586 
L 245.354318 231.584173 
L 245.671364 235.719997 
L 245.988409 230.585118 
L 246.305455 230.162426 
L 246.6225 230.805976 
L 246.939545 232.244614 
L 247.256591 234.598355 
L 247.890682 231.114794 
L 248.207727 231.572907 
L 248.524773 229.661855 
L 248.841818 233.580263 
L 249.158864 230.256845 
L 249.475909 231.702597 
L 249.792955 234.52846 
L 250.11 230.264787 
L 250.427045 228.778706 
L 250.744091 229.796151 
L 251.061136 233.127603 
L 251.378182 231.70834 
L 251.695227 228.819704 
L 252.012273 229.952965 
L 252.329318 228.319795 
L 252.646364 229.628685 
L 252.963409 228.934619 
L 253.280455 233.415216 
L 253.5975 234.982739 
L 253.914545 232.762608 
L 254.231591 232.432984 
L 254.548636 232.329922 
L 254.865682 231.650342 
L 255.182727 230.166137 
L 255.499773 229.848283 
L 255.816818 231.220763 
L 256.133864 230.984632 
L 256.450909 230.943138 
L 256.767955 231.528709 
L 257.085 228.677569 
L 258.036136 231.281096 
L 258.353182 230.376122 
L 258.670227 228.689394 
L 258.987273 230.578454 
L 259.304318 230.850915 
L 259.621364 228.890752 
L 259.938409 232.091614 
L 260.255455 230.068881 
L 260.5725 229.40648 
L 260.889545 231.336463 
L 261.206591 229.135074 
L 261.840682 233.378008 
L 262.157727 234.784945 
L 262.474773 230.02966 
L 262.791818 230.340006 
L 263.108864 231.219298 
L 263.425909 229.547077 
L 263.742955 226.714233 
L 264.06 230.605838 
L 264.377045 231.678525 
L 265.011136 229.565403 
L 265.328182 229.900604 
L 265.645227 229.451593 
L 266.279318 229.289444 
L 266.913409 227.321731 
L 267.230455 231.05538 
L 267.5475 231.525929 
L 268.181591 229.930856 
L 268.498636 231.478686 
L 268.815682 235.603697 
L 269.132727 230.89093 
L 269.449773 228.063739 
L 269.766818 229.702093 
L 270.083864 230.630247 
L 270.400909 226.804777 
L 270.717955 224.539075 
L 271.035 226.754383 
L 271.352045 230.714266 
L 271.669091 228.585894 
L 271.986136 229.489685 
L 272.303182 228.636119 
L 272.620227 228.856388 
L 272.937273 228.189109 
L 273.254318 228.205241 
L 273.571364 230.857334 
L 273.888409 230.962557 
L 274.5225 230.020609 
L 274.839545 230.000205 
L 275.156591 229.432583 
L 275.473636 227.380639 
L 275.790682 230.664698 
L 276.424773 227.152981 
L 276.741818 229.122741 
L 277.058864 227.625461 
L 277.375909 231.260624 
L 277.692955 232.89927 
L 278.327045 230.213494 
L 278.644091 231.32399 
L 278.961136 231.82763 
L 279.278182 231.362026 
L 279.595227 230.183671 
L 280.229318 229.117579 
L 280.546364 227.76735 
L 280.863409 228.047146 
L 281.180455 228.618962 
L 281.4975 227.744567 
L 281.814545 227.663942 
L 282.448636 231.053748 
L 282.765682 227.836656 
L 283.082727 226.488632 
L 283.399773 226.351712 
L 283.716818 227.512458 
L 284.033864 225.150549 
L 284.350909 225.018256 
L 284.667955 231.448281 
L 284.985 231.56269 
L 285.302045 229.152576 
L 285.619091 229.995285 
L 285.936136 231.712291 
L 286.253182 230.671574 
L 286.570227 231.56447 
L 286.887273 228.453758 
L 287.204318 229.599907 
L 287.521364 229.432439 
L 288.155455 233.68307 
L 288.4725 231.515568 
L 288.789545 228.140823 
L 289.106591 227.918668 
L 289.423636 227.37815 
L 289.740682 229.408843 
L 290.057727 230.371808 
L 290.374773 228.554966 
L 290.691818 227.534798 
L 291.008864 229.047286 
L 291.325909 231.476208 
L 291.642955 231.811946 
L 292.277045 229.929874 
L 292.594091 227.0512 
L 292.911136 226.489544 
L 293.862273 229.984471 
L 294.179318 233.768877 
L 294.496364 231.119613 
L 294.813409 225.326436 
L 295.4475 228.76959 
L 295.764545 228.791036 
L 296.081591 229.209273 
L 296.398636 227.180057 
L 296.715682 228.327717 
L 297.032727 230.21882 
L 297.349773 231.164796 
L 297.666818 232.541292 
L 298.617955 224.132046 
L 298.935 225.157726 
L 299.252045 227.85088 
L 299.569091 228.439255 
L 299.886136 229.768977 
L 300.520227 225.055165 
L 301.471364 229.8016 
L 301.788409 226.296943 
L 302.105455 224.263694 
L 302.4225 225.748159 
L 302.739545 226.480258 
L 303.056591 230.169512 
L 303.373636 230.842069 
L 303.690682 229.720621 
L 304.007727 229.880122 
L 304.324773 228.501065 
L 304.641818 224.562726 
L 304.958864 224.976777 
L 305.275909 224.327913 
L 305.592955 225.840424 
L 305.91 224.990271 
L 306.227045 223.565532 
L 306.544091 223.708254 
L 306.861136 224.796936 
L 307.178182 223.500774 
L 307.495227 225.471396 
L 307.812273 226.727725 
L 308.129318 225.478644 
L 308.446364 225.651613 
L 308.763409 222.855738 
L 309.3975 227.635143 
L 309.714545 224.994822 
L 310.031591 225.40903 
L 310.665682 225.687237 
L 310.982727 224.86107 
L 311.299773 226.337286 
L 311.616818 230.326651 
L 311.933864 227.021141 
L 312.250909 226.440781 
L 312.567955 226.540859 
L 313.202045 230.713389 
L 313.836136 224.042644 
L 314.153182 225.454531 
L 314.470227 227.832583 
L 314.787273 227.796452 
L 315.104318 228.187717 
L 315.738409 225.551511 
L 316.3725 232.785741 
L 316.689545 229.385388 
L 317.006591 229.654678 
L 317.323636 229.125732 
L 317.640682 224.911333 
L 317.957727 224.487535 
L 318.274773 227.526614 
L 318.591818 227.370849 
L 319.225909 221.275272 
L 319.542955 223.396099 
L 319.86 228.80458 
L 320.177045 230.158149 
L 320.494091 228.807425 
L 320.811136 223.738386 
L 321.128182 222.256412 
L 321.445227 222.686821 
L 321.762273 229.532227 
L 322.079318 228.681569 
L 322.396364 225.404283 
L 322.713409 225.885083 
L 323.030455 227.018513 
L 323.3475 225.21158 
L 323.664545 224.133252 
L 323.981591 225.312187 
L 324.298636 223.384283 
L 324.615682 223.535465 
L 324.932727 224.212106 
L 325.249773 225.555515 
L 325.566818 225.156637 
L 325.883864 226.567721 
L 326.200909 224.649007 
L 326.517955 221.104761 
L 326.835 222.184118 
L 327.152045 222.102642 
L 327.469091 224.389234 
L 327.786136 222.378928 
L 328.103182 223.179523 
L 328.420227 225.805421 
L 329.054318 223.885458 
L 329.371364 224.135078 
L 329.688409 226.701825 
L 330.005455 226.98434 
L 330.3225 225.500939 
L 330.639545 226.142566 
L 330.956591 225.011887 
L 331.273636 224.419589 
L 331.590682 223.23047 
L 331.907727 227.297961 
L 332.224773 227.906782 
L 332.541818 230.032876 
L 332.858864 226.559227 
L 333.175909 224.887249 
L 333.492955 226.823838 
L 333.81 227.122176 
L 334.127045 225.257745 
L 334.444091 229.528714 
L 334.761136 228.14287 
L 335.078182 224.380904 
L 335.395227 226.01891 
L 335.712273 224.810593 
L 336.029318 225.75929 
L 336.346364 226.237032 
L 336.663409 229.536181 
L 336.980455 230.412769 
L 337.2975 229.931946 
L 337.614545 227.883995 
L 337.931591 224.067836 
L 338.565682 228.9175 
L 338.882727 224.796329 
L 339.199773 224.273878 
L 339.516818 225.346019 
L 339.833864 225.920582 
L 340.150909 228.094075 
L 340.467955 227.439587 
L 340.785 227.766685 
L 341.102045 227.762486 
L 341.419091 227.386976 
L 341.736136 228.931719 
L 342.053182 228.931669 
L 342.687273 232.351122 
L 343.004318 231.549073 
L 343.321364 232.533291 
L 343.638409 232.821119 
L 343.955455 231.520317 
L 344.2725 233.417178 
L 344.589545 231.535547 
L 344.906591 228.007209 
L 345.223636 229.426096 
L 345.540682 229.081923 
L 345.857727 227.952632 
L 346.174773 231.419094 
L 346.491818 232.817793 
L 346.808864 229.856004 
L 347.125909 229.060876 
L 347.76 232.925553 
L 348.077045 234.814395 
L 348.394091 231.342376 
L 348.711136 231.586843 
L 349.028182 236.99313 
L 349.345227 239.144013 
L 349.662273 234.271386 
L 349.979318 233.572289 
L 350.296364 237.921921 
L 350.613409 238.208287 
L 350.930455 238.018172 
L 351.2475 236.936613 
L 352.198636 239.66618 
L 352.515682 240.271431 
L 352.832727 235.234593 
L 353.149773 239.124964 
L 353.466818 240.538954 
L 353.783864 240.722261 
L 354.100909 241.119946 
L 354.417955 239.141404 
L 354.735 241.968697 
L 355.052045 243.746175 
L 355.369091 243.32752 
L 355.686136 243.744015 
L 356.003182 242.739764 
L 356.320227 243.730911 
L 356.637273 245.682132 
L 356.954318 243.867576 
L 357.271364 243.514201 
L 357.905455 245.309257 
L 358.2225 244.765798 
L 358.539545 247.247538 
L 358.856591 248.179006 
L 359.173636 247.166013 
L 359.490682 246.6716 
L 359.807727 248.211678 
L 360.124773 251.926705 
L 360.758864 249.712072 
L 361.075909 249.195125 
L 361.71 252.636399 
L 362.027045 251.766481 
L 362.661136 260.238698 
L 362.978182 261.137003 
L 363.295227 260.026674 
L 363.612273 260.378941 
L 363.929318 258.722622 
L 364.246364 259.16578 
L 364.563409 258.339779 
L 364.880455 259.727612 
L 365.1975 261.996752 
L 365.514545 263.088204 
L 365.831591 263.147294 
L 366.465682 261.282063 
L 366.782727 261.344994 
L 367.099773 265.105313 
L 367.733864 269.532961 
L 368.050909 268.359425 
L 368.367955 270.697997 
L 368.685 268.374449 
L 369.319091 272.356163 
L 369.636136 273.051414 
L 369.953182 273.295729 
L 370.270227 274.268409 
L 370.587273 275.938034 
L 370.904318 275.680293 
L 371.221364 273.391152 
L 371.538409 277.722014 
L 371.855455 279.150131 
L 372.1725 277.274548 
L 372.489545 278.775841 
L 372.806591 278.259311 
L 373.123636 278.563062 
L 373.440682 280.249361 
L 373.757727 278.307276 
L 374.074773 281.551154 
L 374.391818 283.268156 
L 374.708864 281.568396 
L 375.025909 285.662348 
L 375.342955 285.648054 
L 375.66 285.068224 
L 375.977045 287.524498 
L 376.294091 287.627081 
L 376.611136 291.8353 
L 377.245227 289.559153 
L 377.562273 291.613924 
L 377.879318 291.964819 
L 378.196364 293.303577 
L 378.513409 295.570369 
L 378.830455 296.457425 
L 379.1475 295.503052 
L 379.781591 297.316206 
L 380.098636 300.93379 
L 380.415682 300.209385 
L 380.732727 297.03072 
L 381.049773 298.866717 
L 381.366818 297.109989 
L 381.683864 301.582247 
L 382.317955 302.595078 
L 382.635 300.271398 
L 383.269091 302.588808 
L 383.586136 302.874009 
L 383.903182 303.345355 
L 384.220227 302.590037 
L 384.537273 307.907574 
L 384.854318 308.231561 
L 385.171364 308.024578 
L 385.488409 313.440753 
L 385.805455 310.401248 
L 386.1225 306.223831 
L 386.439545 307.856113 
L 386.756591 313.846237 
L 387.073636 315.276485 
L 387.390682 314.74276 
L 387.707727 316.194623 
L 388.024773 316.762127 
L 388.341818 316.997183 
L 388.658864 318.194448 
L 388.975909 313.91186 
L 389.292955 311.491279 
L 389.61 314.580828 
L 389.927045 316.256207 
L 390.244091 316.554699 
L 390.561136 318.159095 
L 391.195227 316.608012 
L 391.829318 319.657376 
L 392.146364 318.915049 
L 392.463409 319.3345 
L 392.780455 320.591994 
L 393.0975 317.908911 
L 393.414545 321.711532 
L 393.731591 319.7611 
L 394.048636 322.432289 
L 394.365682 323.683842 
L 394.682727 326.438858 
L 394.999773 326.027974 
L 395.316818 323.121586 
L 395.633864 323.704868 
L 395.950909 327.010539 
L 396.267955 327.563975 
L 396.585 326.527243 
L 397.219091 320.567495 
L 397.536136 322.579977 
L 398.170227 324.657006 
L 398.487273 345.555136 
L 398.487273 345.555136 
" clip-path="url(#pa4f67ed084)" style="fill: none; stroke: #1f77b4; stroke-width: 1.5; stroke-linecap: square"/>
   </g>
   <g id="patch_3">
    <path d="M 57.6 307.584 
L 57.6 41.472 
" style="fill: none; stroke: #000000; stroke-width: 0.8; stroke-linejoin: miter; stroke-linecap: square"/>
   </g>
   <g id="patch_4">
    <path d="M 414.72 307.584 
L 414.72 41.472 
" style="fill: none; stroke: #000000; stroke-width: 0.8; stroke-linejoin: miter; stroke-linecap: square"/>
   </g>
   <g id="patch_5">
    <path d="M 57.6 307.584 
L 414.72 307.584 
" style="fill: none; stroke: #000000; stroke-width: 0.8; stroke-linejoin: miter; stroke-linecap: square"/>
   </g>
   <g id="patch_6">
    <path d="M 57.6 41.472 
L 414.72 41.472 
" style="fill: none; stroke: #000000; stroke-width: 0.8; stroke-linejoin: miter; stroke-linecap: square"/>
   </g>
   <g id="text_15">
    <!-- Power Spektrum des EEG Signals von Kanal F7-T3 -->
    <g transform="translate(86.964375 35.472) scale(0.12 -0.12)">
     <defs>
      <path id="DejaVuSans-50" d="M 1259 4147 
L 1259 2394 
L 2053 2394 
Q 2494 2394 2734 2622 
Q 2975 2850 2975 3272 
Q 2975 3691 2734 3919 
Q 2494 4147 2053 4147 
L 1259 4147 
z
M 628 4666 
L 2053 4666 
Q 2838 4666 3239 4311 
Q 3641 3956 3641 3272 
Q 3641 2581 3239 2228 
Q 2838 1875 2053 1875 
L 1259 1875 
L 1259 0 
L 628 0 
L 628 4666 
z
" transform="scale(0.015625)"/>
      <path id="DejaVuSans-6f" d="M 1959 3097 
Q 1497 3097 1228 2736 
Q 959 2375 959 1747 
Q 959 1119 1226 758 
Q 1494 397 1959 397 
Q 2419 397 2687 759 
Q 2956 1122 2956 1747 
Q 2956 2369 2687 2733 
Q 2419 3097 1959 3097 
z
M 1959 3584 
Q 2709 3584 3137 3096 
Q 3566 2609 3566 1747 
Q 3566 888 3137 398 
Q 2709 -91 1959 -91 
Q 1206 -91 779 398 
Q 353 888 353 1747 
Q 353 2609 779 3096 
Q 1206 3584 1959 3584 
z
" transform="scale(0.015625)"/>
      <path id="DejaVuSans-77" d="M 269 3500 
L 844 3500 
L 1563 769 
L 2278 3500 
L 2956 3500 
L 3675 769 
L 4391 3500 
L 4966 3500 
L 4050 0 
L 3372 0 
L 2619 2869 
L 1863 0 
L 1184 0 
L 269 3500 
z
" transform="scale(0.015625)"/>
      <path id="DejaVuSans-53" d="M 3425 4513 
L 3425 3897 
Q 3066 4069 2747 4153 
Q 2428 4238 2131 4238 
Q 1616 4238 1336 4038 
Q 1056 3838 1056 3469 
Q 1056 3159 1242 3001 
Q 1428 2844 1947 2747 
L 2328 2669 
Q 3034 2534 3370 2195 
Q 3706 1856 3706 1288 
Q 3706 609 3251 259 
Q 2797 -91 1919 -91 
Q 1588 -91 1214 -16 
Q 841 59 441 206 
L 441 856 
Q 825 641 1194 531 
Q 1563 422 1919 422 
Q 2459 422 2753 634 
Q 3047 847 3047 1241 
Q 3047 1584 2836 1778 
Q 2625 1972 2144 2069 
L 1759 2144 
Q 1053 2284 737 2584 
Q 422 2884 422 3419 
Q 422 4038 858 4394 
Q 1294 4750 2059 4750 
Q 2388 4750 2728 4690 
Q 3069 4631 3425 4513 
z
" transform="scale(0.015625)"/>
      <path id="DejaVuSans-70" d="M 1159 525 
L 1159 -1331 
L 581 -1331 
L 581 3500 
L 1159 3500 
L 1159 2969 
Q 1341 3281 1617 3432 
Q 1894 3584 2278 3584 
Q 2916 3584 3314 3078 
Q 3713 2572 3713 1747 
Q 3713 922 3314 415 
Q 2916 -91 2278 -91 
Q 1894 -91 1617 61 
Q 1341 213 1159 525 
z
M 3116 1747 
Q 3116 2381 2855 2742 
Q 2594 3103 2138 3103 
Q 1681 3103 1420 2742 
Q 1159 2381 1159 1747 
Q 1159 1113 1420 752 
Q 1681 391 2138 391 
Q 2594 391 2855 752 
Q 3116 1113 3116 1747 
z
" transform="scale(0.015625)"/>
      <path id="DejaVuSans-6b" d="M 581 4863 
L 1159 4863 
L 1159 1991 
L 2875 3500 
L 3609 3500 
L 1753 1863 
L 3688 0 
L 2938 0 
L 1159 1709 
L 1159 0 
L 581 0 
L 581 4863 
z
" transform="scale(0.015625)"/>
      <path id="DejaVuSans-6d" d="M 3328 2828 
Q 3544 3216 3844 3400 
Q 4144 3584 4550 3584 
Q 5097 3584 5394 3201 
Q 5691 2819 5691 2113 
L 5691 0 
L 5113 0 
L 5113 2094 
Q 5113 2597 4934 2840 
Q 4756 3084 4391 3084 
Q 3944 3084 3684 2787 
Q 3425 2491 3425 1978 
L 3425 0 
L 2847 0 
L 2847 2094 
Q 2847 2600 2669 2842 
Q 2491 3084 2119 3084 
Q 1678 3084 1418 2786 
Q 1159 2488 1159 1978 
L 1159 0 
L 581 0 
L 581 3500 
L 1159 3500 
L 1159 2956 
Q 1356 3278 1631 3431 
Q 1906 3584 2284 3584 
Q 2666 3584 2933 3390 
Q 3200 3197 3328 2828 
z
" transform="scale(0.015625)"/>
      <path id="DejaVuSans-64" d="M 2906 2969 
L 2906 4863 
L 3481 4863 
L 3481 0 
L 2906 0 
L 2906 525 
Q 2725 213 2448 61 
Q 2172 -91 1784 -91 
Q 1150 -91 751 415 
Q 353 922 353 1747 
Q 353 2572 751 3078 
Q 1150 3584 1784 3584 
Q 2172 3584 2448 3432 
Q 2725 3281 2906 2969 
z
M 947 1747 
Q 947 1113 1208 752 
Q 1469 391 1925 391 
Q 2381 391 2643 752 
Q 2906 1113 2906 1747 
Q 2906 2381 2643 2742 
Q 2381 3103 1925 3103 
Q 1469 3103 1208 2742 
Q 947 2381 947 1747 
z
" transform="scale(0.015625)"/>
      <path id="DejaVuSans-45" d="M 628 4666 
L 3578 4666 
L 3578 4134 
L 1259 4134 
L 1259 2753 
L 3481 2753 
L 3481 2222 
L 1259 2222 
L 1259 531 
L 3634 531 
L 3634 0 
L 628 0 
L 628 4666 
z
" transform="scale(0.015625)"/>
      <path id="DejaVuSans-47" d="M 3809 666 
L 3809 1919 
L 2778 1919 
L 2778 2438 
L 4434 2438 
L 4434 434 
Q 4069 175 3628 42 
Q 3188 -91 2688 -91 
Q 1594 -91 976 548 
Q 359 1188 359 2328 
Q 359 3472 976 4111 
Q 1594 4750 2688 4750 
Q 3144 4750 3555 4637 
Q 3966 4525 4313 4306 
L 4313 3634 
Q 3963 3931 3569 4081 
Q 3175 4231 2741 4231 
Q 1884 4231 1454 3753 
Q 1025 3275 1025 2328 
Q 1025 1384 1454 906 
Q 1884 428 2741 428 
Q 3075 428 3337 486 
Q 3600 544 3809 666 
z
" transform="scale(0.015625)"/>
      <path id="DejaVuSans-61" d="M 2194 1759 
Q 1497 1759 1228 1600 
Q 959 1441 959 1056 
Q 959 750 1161 570 
Q 1363 391 1709 391 
Q 2188 391 2477 730 
Q 2766 1069 2766 1631 
L 2766 1759 
L 2194 1759 
z
M 3341 1997 
L 3341 0 
L 2766 0 
L 2766 531 
Q 2569 213 2275 61 
Q 1981 -91 1556 -91 
Q 1019 -91 701 211 
Q 384 513 384 1019 
Q 384 1609 779 1909 
Q 1175 2209 1959 2209 
L 2766 2209 
L 2766 2266 
Q 2766 2663 2505 2880 
Q 2244 3097 1772 3097 
Q 1472 3097 1187 3025 
Q 903 2953 641 2809 
L 641 3341 
Q 956 3463 1253 3523 
Q 1550 3584 1831 3584 
Q 2591 3584 2966 3190 
Q 3341 2797 3341 1997 
z
" transform="scale(0.015625)"/>
      <path id="DejaVuSans-6c" d="M 603 4863 
L 1178 4863 
L 1178 0 
L 603 0 
L 603 4863 
z
" transform="scale(0.015625)"/>
      <path id="DejaVuSans-76" d="M 191 3500 
L 800 3500 
L 1894 563 
L 2988 3500 
L 3597 3500 
L 2284 0 
L 1503 0 
L 191 3500 
z
" transform="scale(0.015625)"/>
      <path id="DejaVuSans-4b" d="M 628 4666 
L 1259 4666 
L 1259 2694 
L 3353 4666 
L 4166 4666 
L 1850 2491 
L 4331 0 
L 3500 0 
L 1259 2247 
L 1259 0 
L 628 0 
L 628 4666 
z
" transform="scale(0.015625)"/>
      <path id="DejaVuSans-37" d="M 525 4666 
L 3525 4666 
L 3525 4397 
L 1831 0 
L 1172 0 
L 2766 4134 
L 525 4134 
L 525 4666 
z
" transform="scale(0.015625)"/>
      <path id="DejaVuSans-2d" d="M 313 2009 
L 1997 2009 
L 1997 1497 
L 313 1497 
L 313 2009 
z
" transform="scale(0.015625)"/>
      <path id="DejaVuSans-54" d="M -19 4666 
L 3928 4666 
L 3928 4134 
L 2272 4134 
L 2272 0 
L 1638 0 
L 1638 4134 
L -19 4134 
L -19 4666 
z
" transform="scale(0.015625)"/>
     </defs>
     <use xlink:href="#DejaVuSans-50"/>
     <use xlink:href="#DejaVuSans-6f" transform="translate(56.677734 0)"/>
     <use xlink:href="#DejaVuSans-77" transform="translate(117.859375 0)"/>
     <use xlink:href="#DejaVuSans-65" transform="translate(199.646484 0)"/>
     <use xlink:href="#DejaVuSans-72" transform="translate(261.169922 0)"/>
     <use xlink:href="#DejaVuSans-20" transform="translate(302.283203 0)"/>
     <use xlink:href="#DejaVuSans-53" transform="translate(334.070312 0)"/>
     <use xlink:href="#DejaVuSans-70" transform="translate(397.546875 0)"/>
     <use xlink:href="#DejaVuSans-65" transform="translate(461.023438 0)"/>
     <use xlink:href="#DejaVuSans-6b" transform="translate(522.546875 0)"/>
     <use xlink:href="#DejaVuSans-74" transform="translate(580.457031 0)"/>
     <use xlink:href="#DejaVuSans-72" transform="translate(619.666016 0)"/>
     <use xlink:href="#DejaVuSans-75" transform="translate(660.779297 0)"/>
     <use xlink:href="#DejaVuSans-6d" transform="translate(724.158203 0)"/>
     <use xlink:href="#DejaVuSans-20" transform="translate(821.570312 0)"/>
     <use xlink:href="#DejaVuSans-64" transform="translate(853.357422 0)"/>
     <use xlink:href="#DejaVuSans-65" transform="translate(916.833984 0)"/>
     <use xlink:href="#DejaVuSans-73" transform="translate(978.357422 0)"/>
     <use xlink:href="#DejaVuSans-20" transform="translate(1030.457031 0)"/>
     <use xlink:href="#DejaVuSans-45" transform="translate(1062.244141 0)"/>
     <use xlink:href="#DejaVuSans-45" transform="translate(1125.427734 0)"/>
     <use xlink:href="#DejaVuSans-47" transform="translate(1188.611328 0)"/>
     <use xlink:href="#DejaVuSans-20" transform="translate(1266.101562 0)"/>
     <use xlink:href="#DejaVuSans-53" transform="translate(1297.888672 0)"/>
     <use xlink:href="#DejaVuSans-69" transform="translate(1361.365234 0)"/>
     <use xlink:href="#DejaVuSans-67" transform="translate(1389.148438 0)"/>
     <use xlink:href="#DejaVuSans-6e" transform="translate(1452.625 0)"/>
     <use xlink:href="#DejaVuSans-61" transform="translate(1516.003906 0)"/>
     <use xlink:href="#DejaVuSans-6c" transform="translate(1577.283203 0)"/>
     <use xlink:href="#DejaVuSans-73" transform="translate(1605.066406 0)"/>
     <use xlink:href="#DejaVuSans-20" transform="translate(1657.166016 0)"/>
     <use xlink:href="#DejaVuSans-76" transform="translate(1688.953125 0)"/>
     <use xlink:href="#DejaVuSans-6f" transform="translate(1748.132812 0)"/>
     <use xlink:href="#DejaVuSans-6e" transform="translate(1809.314453 0)"/>
     <use xlink:href="#DejaVuSans-20" transform="translate(1872.693359 0)"/>
     <use xlink:href="#DejaVuSans-4b" transform="translate(1904.480469 0)"/>
     <use xlink:href="#DejaVuSans-61" transform="translate(1968.306641 0)"/>
     <use xlink:href="#DejaVuSans-6e" transform="translate(2029.585938 0)"/>
     <use xlink:href="#DejaVuSans-61" transform="translate(2092.964844 0)"/>
     <use xlink:href="#DejaVuSans-6c" transform="translate(2154.244141 0)"/>
     <use xlink:href="#DejaVuSans-20" transform="translate(2182.027344 0)"/>
     <use xlink:href="#DejaVuSans-46" transform="translate(2213.814453 0)"/>
     <use xlink:href="#DejaVuSans-37" transform="translate(2271.333984 0)"/>
     <use xlink:href="#DejaVuSans-2d" transform="translate(2334.957031 0)"/>
     <use xlink:href="#DejaVuSans-54" transform="translate(2361.916016 0)"/>
     <use xlink:href="#DejaVuSans-33" transform="translate(2423 0)"/>
    </g>
   </g>
  </g>
 </g>
 <defs>
  <clipPath id="pa4f67ed084">
   <rect x="57.6" y="41.472" width="357.12" height="266.112"/>
  </clipPath>
 </defs>
</svg>
