<?xml version="1.0" encoding="utf-8" standalone="no"?>
<!DOCTYPE svg PUBLIC "-//W3C//DTD SVG 1.1//EN"
  "http://www.w3.org/Graphics/SVG/1.1/DTD/svg11.dtd">
<svg xmlns:xlink="http://www.w3.org/1999/xlink" width="460.8pt" height="345.6pt" viewBox="0 0 460.8 345.6" xmlns="http://www.w3.org/2000/svg" version="1.1">
 <metadata>
  <rdf:RDF xmlns:dc="http://purl.org/dc/elements/1.1/" xmlns:cc="http://creativecommons.org/ns#" xmlns:rdf="http://www.w3.org/1999/02/22-rdf-syntax-ns#">
   <cc:Work>
    <dc:type rdf:resource="http://purl.org/dc/dcmitype/StillImage"/>
    <dc:date>2025-11-11T11:45:56.062556</dc:date>
    <dc:format>image/svg+xml</dc:format>
    <dc:creator>
     <cc:Agent>
      <dc:title>Matplotlib v3.10.7, https://matplotlib.org/</dc:title>
     </cc:Agent>
    </dc:creator>
   </cc:Work>
  </rdf:RDF>
 </metadata>
 <defs>
  <style type="text/css">*{stroke-linejoin: round; stroke-linecap: butt}</style>
 </defs>
 <g id="figure_1">
  <g id="patch_1">
   <path d="M 0 345.6 
L 460.8 345.6 
L 460.8 0 
L 0 0 
z
" style="fill: #ffffff"/>
  </g>
  <g id="axes_1">
   <g id="patch_2">
    <path d="M 57.6 307.584 
L 414.72 307.584 
L 414.72 41.472 
L 57.6 41.472 
z
" style="fill: #ffffff"/>
   </g>
   <g id="matplotlib.axis_1">
    <g id="xtick_1">
     <g id="line2d_1">
      <defs>
       <path id="m020cdc2b97" d="M 0 0 
L 0 3.5 
" style="stroke: #000000; stroke-width: 0.8"/>
      </defs>
      <g>
       <use xlink:href="#m020cdc2b97" x="73.832727" y="307.584" style="stroke: #000000; stroke-width: 0.8"/>
      </g>
     </g>
     <g id="text_1">
      <!-- 0 -->
      <g transform="translate(70.651477 322.182437) scale(0.1 -0.1)">
       <defs>
        <path id="DejaVuSans-30" d="M 2034 4250 
Q 1547 4250 1301 3770 
Q 1056 3291 1056 2328 
Q 1056 1369 1301 889 
Q 1547 409 2034 409 
Q 2525 409 2770 889 
Q 3016 1369 3016 2328 
Q 3016 3291 2770 3770 
Q 2525 4250 2034 4250 
z
M 2034 4750 
Q 2819 4750 3233 4129 
Q 3647 3509 3647 2328 
Q 3647 1150 3233 529 
Q 2819 -91 2034 -91 
Q 1250 -91 836 529 
Q 422 1150 422 2328 
Q 422 3509 836 4129 
Q 1250 4750 2034 4750 
z
" transform="scale(0.015625)"/>
       </defs>
       <use xlink:href="#DejaVuSans-30"/>
      </g>
     </g>
    </g>
    <g id="xtick_2">
     <g id="line2d_2">
      <g>
       <use xlink:href="#m020cdc2b97" x="114.414545" y="307.584" style="stroke: #000000; stroke-width: 0.8"/>
      </g>
     </g>
     <g id="text_2">
      <!-- 25 -->
      <g transform="translate(108.052045 322.182437) scale(0.1 -0.1)">
       <defs>
        <path id="DejaVuSans-32" d="M 1228 531 
L 3431 531 
L 3431 0 
L 469 0 
L 469 531 
Q 828 903 1448 1529 
Q 2069 2156 2228 2338 
Q 2531 2678 2651 2914 
Q 2772 3150 2772 3378 
Q 2772 3750 2511 3984 
Q 2250 4219 1831 4219 
Q 1534 4219 1204 4116 
Q 875 4013 500 3803 
L 500 4441 
Q 881 4594 1212 4672 
Q 1544 4750 1819 4750 
Q 2544 4750 2975 4387 
Q 3406 4025 3406 3419 
Q 3406 3131 3298 2873 
Q 3191 2616 2906 2266 
Q 2828 2175 2409 1742 
Q 1991 1309 1228 531 
z
" transform="scale(0.015625)"/>
        <path id="DejaVuSans-35" d="M 691 4666 
L 3169 4666 
L 3169 4134 
L 1269 4134 
L 1269 2991 
Q 1406 3038 1543 3061 
Q 1681 3084 1819 3084 
Q 2600 3084 3056 2656 
Q 3513 2228 3513 1497 
Q 3513 744 3044 326 
Q 2575 -91 1722 -91 
Q 1428 -91 1123 -41 
Q 819 9 494 109 
L 494 744 
Q 775 591 1075 516 
Q 1375 441 1709 441 
Q 2250 441 2565 725 
Q 2881 1009 2881 1497 
Q 2881 1984 2565 2268 
Q 2250 2553 1709 2553 
Q 1456 2553 1204 2497 
Q 953 2441 691 2322 
L 691 4666 
z
" transform="scale(0.015625)"/>
       </defs>
       <use xlink:href="#DejaVuSans-32"/>
       <use xlink:href="#DejaVuSans-35" transform="translate(63.623047 0)"/>
      </g>
     </g>
    </g>
    <g id="xtick_3">
     <g id="line2d_3">
      <g>
       <use xlink:href="#m020cdc2b97" x="154.996364" y="307.584" style="stroke: #000000; stroke-width: 0.8"/>
      </g>
     </g>
     <g id="text_3">
      <!-- 50 -->
      <g transform="translate(148.633864 322.182437) scale(0.1 -0.1)">
       <use xlink:href="#DejaVuSans-35"/>
       <use xlink:href="#DejaVuSans-30" transform="translate(63.623047 0)"/>
      </g>
     </g>
    </g>
    <g id="xtick_4">
     <g id="line2d_4">
      <g>
       <use xlink:href="#m020cdc2b97" x="195.578182" y="307.584" style="stroke: #000000; stroke-width: 0.8"/>
      </g>
     </g>
     <g id="text_4">
      <!-- 75 -->
      <g transform="translate(189.215682 322.182437) scale(0.1 -0.1)">
       <defs>
        <path id="DejaVuSans-37" d="M 525 4666 
L 3525 4666 
L 3525 4397 
L 1831 0 
L 1172 0 
L 2766 4134 
L 525 4134 
L 525 4666 
z
" transform="scale(0.015625)"/>
       </defs>
       <use xlink:href="#DejaVuSans-37"/>
       <use xlink:href="#DejaVuSans-35" transform="translate(63.623047 0)"/>
      </g>
     </g>
    </g>
    <g id="xtick_5">
     <g id="line2d_5">
      <g>
       <use xlink:href="#m020cdc2b97" x="236.16" y="307.584" style="stroke: #000000; stroke-width: 0.8"/>
      </g>
     </g>
     <g id="text_5">
      <!-- 100 -->
      <g transform="translate(226.61625 322.182437) scale(0.1 -0.1)">
       <defs>
        <path id="DejaVuSans-31" d="M 794 531 
L 1825 531 
L 1825 4091 
L 703 3866 
L 703 4441 
L 1819 4666 
L 2450 4666 
L 2450 531 
L 3481 531 
L 3481 0 
L 794 0 
L 794 531 
z
" transform="scale(0.015625)"/>
       </defs>
       <use xlink:href="#DejaVuSans-31"/>
       <use xlink:href="#DejaVuSans-30" transform="translate(63.623047 0)"/>
       <use xlink:href="#DejaVuSans-30" transform="translate(127.246094 0)"/>
      </g>
     </g>
    </g>
    <g id="xtick_6">
     <g id="line2d_6">
      <g>
       <use xlink:href="#m020cdc2b97" x="276.741818" y="307.584" style="stroke: #000000; stroke-width: 0.8"/>
      </g>
     </g>
     <g id="text_6">
      <!-- 125 -->
      <g transform="translate(267.198068 322.182437) scale(0.1 -0.1)">
       <use xlink:href="#DejaVuSans-31"/>
       <use xlink:href="#DejaVuSans-32" transform="translate(63.623047 0)"/>
       <use xlink:href="#DejaVuSans-35" transform="translate(127.246094 0)"/>
      </g>
     </g>
    </g>
    <g id="xtick_7">
     <g id="line2d_7">
      <g>
       <use xlink:href="#m020cdc2b97" x="317.323636" y="307.584" style="stroke: #000000; stroke-width: 0.8"/>
      </g>
     </g>
     <g id="text_7">
      <!-- 150 -->
      <g transform="translate(307.779886 322.182437) scale(0.1 -0.1)">
       <use xlink:href="#DejaVuSans-31"/>
       <use xlink:href="#DejaVuSans-35" transform="translate(63.623047 0)"/>
       <use xlink:href="#DejaVuSans-30" transform="translate(127.246094 0)"/>
      </g>
     </g>
    </g>
    <g id="xtick_8">
     <g id="line2d_8">
      <g>
       <use xlink:href="#m020cdc2b97" x="357.905455" y="307.584" style="stroke: #000000; stroke-width: 0.8"/>
      </g>
     </g>
     <g id="text_8">
      <!-- 175 -->
      <g transform="translate(348.361705 322.182437) scale(0.1 -0.1)">
       <use xlink:href="#DejaVuSans-31"/>
       <use xlink:href="#DejaVuSans-37" transform="translate(63.623047 0)"/>
       <use xlink:href="#DejaVuSans-35" transform="translate(127.246094 0)"/>
      </g>
     </g>
    </g>
    <g id="xtick_9">
     <g id="line2d_9">
      <g>
       <use xlink:href="#m020cdc2b97" x="398.487273" y="307.584" style="stroke: #000000; stroke-width: 0.8"/>
      </g>
     </g>
     <g id="text_9">
      <!-- 200 -->
      <g transform="translate(388.943523 322.182437) scale(0.1 -0.1)">
       <use xlink:href="#DejaVuSans-32"/>
       <use xlink:href="#DejaVuSans-30" transform="translate(63.623047 0)"/>
       <use xlink:href="#DejaVuSans-30" transform="translate(127.246094 0)"/>
      </g>
     </g>
    </g>
    <g id="text_10">
     <!-- Frequenz in Hz -->
     <g transform="translate(199.294375 335.860562) scale(0.1 -0.1)">
      <defs>
       <path id="DejaVuSans-46" d="M 628 4666 
L 3309 4666 
L 3309 4134 
L 1259 4134 
L 1259 2759 
L 3109 2759 
L 3109 2228 
L 1259 2228 
L 1259 0 
L 628 0 
L 628 4666 
z
" transform="scale(0.015625)"/>
       <path id="DejaVuSans-72" d="M 2631 2963 
Q 2534 3019 2420 3045 
Q 2306 3072 2169 3072 
Q 1681 3072 1420 2755 
Q 1159 2438 1159 1844 
L 1159 0 
L 581 0 
L 581 3500 
L 1159 3500 
L 1159 2956 
Q 1341 3275 1631 3429 
Q 1922 3584 2338 3584 
Q 2397 3584 2469 3576 
Q 2541 3569 2628 3553 
L 2631 2963 
z
" transform="scale(0.015625)"/>
       <path id="DejaVuSans-65" d="M 3597 1894 
L 3597 1613 
L 953 1613 
Q 991 1019 1311 708 
Q 1631 397 2203 397 
Q 2534 397 2845 478 
Q 3156 559 3463 722 
L 3463 178 
Q 3153 47 2828 -22 
Q 2503 -91 2169 -91 
Q 1331 -91 842 396 
Q 353 884 353 1716 
Q 353 2575 817 3079 
Q 1281 3584 2069 3584 
Q 2775 3584 3186 3129 
Q 3597 2675 3597 1894 
z
M 3022 2063 
Q 3016 2534 2758 2815 
Q 2500 3097 2075 3097 
Q 1594 3097 1305 2825 
Q 1016 2553 972 2059 
L 3022 2063 
z
" transform="scale(0.015625)"/>
       <path id="DejaVuSans-71" d="M 947 1747 
Q 947 1113 1208 752 
Q 1469 391 1925 391 
Q 2381 391 2643 752 
Q 2906 1113 2906 1747 
Q 2906 2381 2643 2742 
Q 2381 3103 1925 3103 
Q 1469 3103 1208 2742 
Q 947 2381 947 1747 
z
M 2906 525 
Q 2725 213 2448 61 
Q 2172 -91 1784 -91 
Q 1150 -91 751 415 
Q 353 922 353 1747 
Q 353 2572 751 3078 
Q 1150 3584 1784 3584 
Q 2172 3584 2448 3432 
Q 2725 3281 2906 2969 
L 2906 3500 
L 3481 3500 
L 3481 -1331 
L 2906 -1331 
L 2906 525 
z
" transform="scale(0.015625)"/>
       <path id="DejaVuSans-75" d="M 544 1381 
L 544 3500 
L 1119 3500 
L 1119 1403 
Q 1119 906 1312 657 
Q 1506 409 1894 409 
Q 2359 409 2629 706 
Q 2900 1003 2900 1516 
L 2900 3500 
L 3475 3500 
L 3475 0 
L 2900 0 
L 2900 538 
Q 2691 219 2414 64 
Q 2138 -91 1772 -91 
Q 1169 -91 856 284 
Q 544 659 544 1381 
z
M 1991 3584 
L 1991 3584 
z
" transform="scale(0.015625)"/>
       <path id="DejaVuSans-6e" d="M 3513 2113 
L 3513 0 
L 2938 0 
L 2938 2094 
Q 2938 2591 2744 2837 
Q 2550 3084 2163 3084 
Q 1697 3084 1428 2787 
Q 1159 2491 1159 1978 
L 1159 0 
L 581 0 
L 581 3500 
L 1159 3500 
L 1159 2956 
Q 1366 3272 1645 3428 
Q 1925 3584 2291 3584 
Q 2894 3584 3203 3211 
Q 3513 2838 3513 2113 
z
" transform="scale(0.015625)"/>
       <path id="DejaVuSans-7a" d="M 353 3500 
L 3084 3500 
L 3084 2975 
L 922 459 
L 3084 459 
L 3084 0 
L 275 0 
L 275 525 
L 2438 3041 
L 353 3041 
L 353 3500 
z
" transform="scale(0.015625)"/>
       <path id="DejaVuSans-20" transform="scale(0.015625)"/>
       <path id="DejaVuSans-69" d="M 603 3500 
L 1178 3500 
L 1178 0 
L 603 0 
L 603 3500 
z
M 603 4863 
L 1178 4863 
L 1178 4134 
L 603 4134 
L 603 4863 
z
" transform="scale(0.015625)"/>
       <path id="DejaVuSans-48" d="M 628 4666 
L 1259 4666 
L 1259 2753 
L 3553 2753 
L 3553 4666 
L 4184 4666 
L 4184 0 
L 3553 0 
L 3553 2222 
L 1259 2222 
L 1259 0 
L 628 0 
L 628 4666 
z
" transform="scale(0.015625)"/>
      </defs>
      <use xlink:href="#DejaVuSans-46"/>
      <use xlink:href="#DejaVuSans-72" transform="translate(50.269531 0)"/>
      <use xlink:href="#DejaVuSans-65" transform="translate(89.132812 0)"/>
      <use xlink:href="#DejaVuSans-71" transform="translate(150.65625 0)"/>
      <use xlink:href="#DejaVuSans-75" transform="translate(214.132812 0)"/>
      <use xlink:href="#DejaVuSans-65" transform="translate(277.511719 0)"/>
      <use xlink:href="#DejaVuSans-6e" transform="translate(339.035156 0)"/>
      <use xlink:href="#DejaVuSans-7a" transform="translate(402.414062 0)"/>
      <use xlink:href="#DejaVuSans-20" transform="translate(454.904297 0)"/>
      <use xlink:href="#DejaVuSans-69" transform="translate(486.691406 0)"/>
      <use xlink:href="#DejaVuSans-6e" transform="translate(514.474609 0)"/>
      <use xlink:href="#DejaVuSans-20" transform="translate(577.853516 0)"/>
      <use xlink:href="#DejaVuSans-48" transform="translate(609.640625 0)"/>
      <use xlink:href="#DejaVuSans-7a" transform="translate(684.835938 0)"/>
     </g>
    </g>
   </g>
   <g id="matplotlib.axis_2">
    <g id="ytick_1">
     <g id="line2d_10">
      <defs>
       <path id="mb2a3464e1d" d="M 0 0 
L -3.5 0 
" style="stroke: #000000; stroke-width: 0.8"/>
      </defs>
      <g>
       <use xlink:href="#mb2a3464e1d" x="57.6" y="192.054671" style="stroke: #000000; stroke-width: 0.8"/>
      </g>
     </g>
     <g id="text_11">
      <!-- $\mathdefault{10^{0}}$ -->
      <g transform="translate(33 195.85389) scale(0.1 -0.1)">
       <use xlink:href="#DejaVuSans-31" transform="translate(0 0.765625)"/>
       <use xlink:href="#DejaVuSans-30" transform="translate(63.623047 0.765625)"/>
       <use xlink:href="#DejaVuSans-30" transform="translate(128.203125 39.046875) scale(0.7)"/>
      </g>
     </g>
    </g>
    <g id="ytick_2">
     <g id="line2d_11">
      <g>
       <use xlink:href="#mb2a3464e1d" x="57.6" y="71.950694" style="stroke: #000000; stroke-width: 0.8"/>
      </g>
     </g>
     <g id="text_12">
      <!-- $\mathdefault{10^{1}}$ -->
      <g transform="translate(33 75.749913) scale(0.1 -0.1)">
       <use xlink:href="#DejaVuSans-31" transform="translate(0 0.684375)"/>
       <use xlink:href="#DejaVuSans-30" transform="translate(63.623047 0.684375)"/>
       <use xlink:href="#DejaVuSans-31" transform="translate(128.203125 38.965625) scale(0.7)"/>
      </g>
     </g>
    </g>
    <g id="ytick_3">
     <g id="line2d_12">
      <defs>
       <path id="m8dd582e34f" d="M 0 0 
L -2 0 
" style="stroke: #000000; stroke-width: 0.6"/>
      </defs>
      <g>
       <use xlink:href="#m8dd582e34f" x="57.6" y="276.003748" style="stroke: #000000; stroke-width: 0.6"/>
      </g>
     </g>
    </g>
    <g id="ytick_4">
     <g id="line2d_13">
      <g>
       <use xlink:href="#m8dd582e34f" x="57.6" y="254.854488" style="stroke: #000000; stroke-width: 0.6"/>
      </g>
     </g>
    </g>
    <g id="ytick_5">
     <g id="line2d_14">
      <g>
       <use xlink:href="#m8dd582e34f" x="57.6" y="239.848849" style="stroke: #000000; stroke-width: 0.6"/>
      </g>
     </g>
    </g>
    <g id="ytick_6">
     <g id="line2d_15">
      <g>
       <use xlink:href="#m8dd582e34f" x="57.6" y="228.209571" style="stroke: #000000; stroke-width: 0.6"/>
      </g>
     </g>
    </g>
    <g id="ytick_7">
     <g id="line2d_16">
      <g>
       <use xlink:href="#m8dd582e34f" x="57.6" y="218.699588" style="stroke: #000000; stroke-width: 0.6"/>
      </g>
     </g>
    </g>
    <g id="ytick_8">
     <g id="line2d_17">
      <g>
       <use xlink:href="#m8dd582e34f" x="57.6" y="210.659012" style="stroke: #000000; stroke-width: 0.6"/>
      </g>
     </g>
    </g>
    <g id="ytick_9">
     <g id="line2d_18">
      <g>
       <use xlink:href="#m8dd582e34f" x="57.6" y="203.693949" style="stroke: #000000; stroke-width: 0.6"/>
      </g>
     </g>
    </g>
    <g id="ytick_10">
     <g id="line2d_19">
      <g>
       <use xlink:href="#m8dd582e34f" x="57.6" y="197.550328" style="stroke: #000000; stroke-width: 0.6"/>
      </g>
     </g>
    </g>
    <g id="ytick_11">
     <g id="line2d_20">
      <g>
       <use xlink:href="#m8dd582e34f" x="57.6" y="155.899771" style="stroke: #000000; stroke-width: 0.6"/>
      </g>
     </g>
    </g>
    <g id="ytick_12">
     <g id="line2d_21">
      <g>
       <use xlink:href="#m8dd582e34f" x="57.6" y="134.750511" style="stroke: #000000; stroke-width: 0.6"/>
      </g>
     </g>
    </g>
    <g id="ytick_13">
     <g id="line2d_22">
      <g>
       <use xlink:href="#m8dd582e34f" x="57.6" y="119.744872" style="stroke: #000000; stroke-width: 0.6"/>
      </g>
     </g>
    </g>
    <g id="ytick_14">
     <g id="line2d_23">
      <g>
       <use xlink:href="#m8dd582e34f" x="57.6" y="108.105594" style="stroke: #000000; stroke-width: 0.6"/>
      </g>
     </g>
    </g>
    <g id="ytick_15">
     <g id="line2d_24">
      <g>
       <use xlink:href="#m8dd582e34f" x="57.6" y="98.595611" style="stroke: #000000; stroke-width: 0.6"/>
      </g>
     </g>
    </g>
    <g id="ytick_16">
     <g id="line2d_25">
      <g>
       <use xlink:href="#m8dd582e34f" x="57.6" y="90.555035" style="stroke: #000000; stroke-width: 0.6"/>
      </g>
     </g>
    </g>
    <g id="ytick_17">
     <g id="line2d_26">
      <g>
       <use xlink:href="#m8dd582e34f" x="57.6" y="83.589972" style="stroke: #000000; stroke-width: 0.6"/>
      </g>
     </g>
    </g>
    <g id="ytick_18">
     <g id="line2d_27">
      <g>
       <use xlink:href="#m8dd582e34f" x="57.6" y="77.44635" style="stroke: #000000; stroke-width: 0.6"/>
      </g>
     </g>
    </g>
    <g id="text_13">
     <!-- Leistung/Frequenz (V²/Hz) -->
     <g transform="translate(26.920312 239.182687) rotate(-90) scale(0.1 -0.1)">
      <defs>
       <path id="DejaVuSans-4c" d="M 628 4666 
L 1259 4666 
L 1259 531 
L 3531 531 
L 3531 0 
L 628 0 
L 628 4666 
z
" transform="scale(0.015625)"/>
       <path id="DejaVuSans-73" d="M 2834 3397 
L 2834 2853 
Q 2591 2978 2328 3040 
Q 2066 3103 1784 3103 
Q 1356 3103 1142 2972 
Q 928 2841 928 2578 
Q 928 2378 1081 2264 
Q 1234 2150 1697 2047 
L 1894 2003 
Q 2506 1872 2764 1633 
Q 3022 1394 3022 966 
Q 3022 478 2636 193 
Q 2250 -91 1575 -91 
Q 1294 -91 989 -36 
Q 684 19 347 128 
L 347 722 
Q 666 556 975 473 
Q 1284 391 1588 391 
Q 1994 391 2212 530 
Q 2431 669 2431 922 
Q 2431 1156 2273 1281 
Q 2116 1406 1581 1522 
L 1381 1569 
Q 847 1681 609 1914 
Q 372 2147 372 2553 
Q 372 3047 722 3315 
Q 1072 3584 1716 3584 
Q 2034 3584 2315 3537 
Q 2597 3491 2834 3397 
z
" transform="scale(0.015625)"/>
       <path id="DejaVuSans-74" d="M 1172 4494 
L 1172 3500 
L 2356 3500 
L 2356 3053 
L 1172 3053 
L 1172 1153 
Q 1172 725 1289 603 
Q 1406 481 1766 481 
L 2356 481 
L 2356 0 
L 1766 0 
Q 1100 0 847 248 
Q 594 497 594 1153 
L 594 3053 
L 172 3053 
L 172 3500 
L 594 3500 
L 594 4494 
L 1172 4494 
z
" transform="scale(0.015625)"/>
       <path id="DejaVuSans-67" d="M 2906 1791 
Q 2906 2416 2648 2759 
Q 2391 3103 1925 3103 
Q 1463 3103 1205 2759 
Q 947 2416 947 1791 
Q 947 1169 1205 825 
Q 1463 481 1925 481 
Q 2391 481 2648 825 
Q 2906 1169 2906 1791 
z
M 3481 434 
Q 3481 -459 3084 -895 
Q 2688 -1331 1869 -1331 
Q 1566 -1331 1297 -1286 
Q 1028 -1241 775 -1147 
L 775 -588 
Q 1028 -725 1275 -790 
Q 1522 -856 1778 -856 
Q 2344 -856 2625 -561 
Q 2906 -266 2906 331 
L 2906 616 
Q 2728 306 2450 153 
Q 2172 0 1784 0 
Q 1141 0 747 490 
Q 353 981 353 1791 
Q 353 2603 747 3093 
Q 1141 3584 1784 3584 
Q 2172 3584 2450 3431 
Q 2728 3278 2906 2969 
L 2906 3500 
L 3481 3500 
L 3481 434 
z
" transform="scale(0.015625)"/>
       <path id="DejaVuSans-2f" d="M 1625 4666 
L 2156 4666 
L 531 -594 
L 0 -594 
L 1625 4666 
z
" transform="scale(0.015625)"/>
       <path id="DejaVuSans-28" d="M 1984 4856 
Q 1566 4138 1362 3434 
Q 1159 2731 1159 2009 
Q 1159 1288 1364 580 
Q 1569 -128 1984 -844 
L 1484 -844 
Q 1016 -109 783 600 
Q 550 1309 550 2009 
Q 550 2706 781 3412 
Q 1013 4119 1484 4856 
L 1984 4856 
z
" transform="scale(0.015625)"/>
       <path id="DejaVuSans-56" d="M 1831 0 
L 50 4666 
L 709 4666 
L 2188 738 
L 3669 4666 
L 4325 4666 
L 2547 0 
L 1831 0 
z
" transform="scale(0.015625)"/>
       <path id="DejaVuSans-b2" d="M 838 2444 
L 2163 2444 
L 2163 2088 
L 294 2088 
L 294 2431 
Q 400 2528 597 2703 
Q 1672 3656 1672 3950 
Q 1672 4156 1509 4282 
Q 1347 4409 1081 4409 
Q 919 4409 728 4354 
Q 538 4300 313 4191 
L 313 4575 
Q 553 4663 761 4706 
Q 969 4750 1147 4750 
Q 1600 4750 1872 4544 
Q 2144 4338 2144 4000 
Q 2144 3566 1109 2678 
Q 934 2528 838 2444 
z
" transform="scale(0.015625)"/>
       <path id="DejaVuSans-29" d="M 513 4856 
L 1013 4856 
Q 1481 4119 1714 3412 
Q 1947 2706 1947 2009 
Q 1947 1309 1714 600 
Q 1481 -109 1013 -844 
L 513 -844 
Q 928 -128 1133 580 
Q 1338 1288 1338 2009 
Q 1338 2731 1133 3434 
Q 928 4138 513 4856 
z
" transform="scale(0.015625)"/>
      </defs>
      <use xlink:href="#DejaVuSans-4c"/>
      <use xlink:href="#DejaVuSans-65" transform="translate(53.962891 0)"/>
      <use xlink:href="#DejaVuSans-69" transform="translate(115.486328 0)"/>
      <use xlink:href="#DejaVuSans-73" transform="translate(143.269531 0)"/>
      <use xlink:href="#DejaVuSans-74" transform="translate(195.369141 0)"/>
      <use xlink:href="#DejaVuSans-75" transform="translate(234.578125 0)"/>
      <use xlink:href="#DejaVuSans-6e" transform="translate(297.957031 0)"/>
      <use xlink:href="#DejaVuSans-67" transform="translate(361.335938 0)"/>
      <use xlink:href="#DejaVuSans-2f" transform="translate(424.8125 0)"/>
      <use xlink:href="#DejaVuSans-46" transform="translate(458.503906 0)"/>
      <use xlink:href="#DejaVuSans-72" transform="translate(508.773438 0)"/>
      <use xlink:href="#DejaVuSans-65" transform="translate(547.636719 0)"/>
      <use xlink:href="#DejaVuSans-71" transform="translate(609.160156 0)"/>
      <use xlink:href="#DejaVuSans-75" transform="translate(672.636719 0)"/>
      <use xlink:href="#DejaVuSans-65" transform="translate(736.015625 0)"/>
      <use xlink:href="#DejaVuSans-6e" transform="translate(797.539062 0)"/>
      <use xlink:href="#DejaVuSans-7a" transform="translate(860.917969 0)"/>
      <use xlink:href="#DejaVuSans-20" transform="translate(913.408203 0)"/>
      <use xlink:href="#DejaVuSans-28" transform="translate(945.195312 0)"/>
      <use xlink:href="#DejaVuSans-56" transform="translate(984.208984 0)"/>
      <use xlink:href="#DejaVuSans-b2" transform="translate(1052.617188 0)"/>
      <use xlink:href="#DejaVuSans-2f" transform="translate(1092.705078 0)"/>
      <use xlink:href="#DejaVuSans-48" transform="translate(1126.396484 0)"/>
      <use xlink:href="#DejaVuSans-7a" transform="translate(1201.591797 0)"/>
      <use xlink:href="#DejaVuSans-29" transform="translate(1254.082031 0)"/>
     </g>
    </g>
   </g>
   <g id="line2d_28">
    <path d="M 73.832727 171.437313 
L 74.149773 89.978188 
L 74.466818 63.679932 
L 74.783864 53.568 
L 75.100909 59.35786 
L 75.735 82.138521 
L 76.052045 101.7114 
L 76.369091 110.124046 
L 76.686136 114.470394 
L 77.003182 128.131328 
L 77.320227 130.029405 
L 78.271364 156.035343 
L 78.588409 154.359922 
L 78.905455 155.084371 
L 79.2225 160.137992 
L 79.539545 156.936091 
L 79.856591 158.900463 
L 80.173636 168.12402 
L 80.490682 161.816534 
L 80.807727 163.923733 
L 81.124773 169.064456 
L 81.441818 159.547546 
L 81.758864 159.063595 
L 82.075909 149.465904 
L 82.392955 146.515274 
L 82.71 151.359136 
L 83.027045 159.038806 
L 83.344091 162.102381 
L 83.661136 159.010814 
L 83.978182 163.771602 
L 84.295227 165.185213 
L 84.612273 172.581571 
L 84.929318 177.00509 
L 85.246364 179.5686 
L 85.880455 159.49688 
L 86.831591 165.512865 
L 87.148636 170.408133 
L 87.465682 169.699557 
L 87.782727 165.481596 
L 88.099773 159.764428 
L 88.416818 156.100402 
L 88.733864 162.056929 
L 89.367955 177.065827 
L 90.002045 154.659144 
L 90.319091 155.534932 
L 91.270227 176.993451 
L 91.587273 175.071396 
L 91.904318 179.295628 
L 92.221364 198.13075 
L 92.538409 207.63083 
L 92.855455 198.337541 
L 93.1725 199.450917 
L 93.489545 194.35473 
L 93.806591 179.828202 
L 94.123636 179.90819 
L 94.757727 199.277846 
L 95.074773 205.924645 
L 95.391818 204.596251 
L 95.708864 198.115906 
L 96.025909 196.160867 
L 96.66 206.524825 
L 97.294091 186.307928 
L 97.611136 189.992301 
L 97.928182 195.464124 
L 98.562273 187.271957 
L 98.879318 186.203934 
L 99.196364 191.78912 
L 99.513409 194.044875 
L 99.830455 186.286747 
L 100.1475 182.016837 
L 100.464545 179.87927 
L 100.781591 178.527645 
L 101.098636 188.010461 
L 101.415682 186.303869 
L 102.049773 205.548999 
L 102.366818 186.614797 
L 102.683864 185.891459 
L 103.000909 187.444448 
L 103.317955 192.130267 
L 103.635 186.557652 
L 103.952045 183.220476 
L 104.586136 162.67645 
L 104.903182 169.495867 
L 105.220227 171.688829 
L 105.537273 164.426187 
L 105.854318 164.700687 
L 106.488409 171.413803 
L 106.805455 179.453848 
L 107.1225 191.15827 
L 107.439545 188.163451 
L 107.756591 179.646905 
L 108.073636 179.274504 
L 108.390682 180.119834 
L 108.707727 176.866767 
L 109.024773 177.428583 
L 109.341818 176.3695 
L 109.658864 171.327327 
L 109.975909 175.255051 
L 110.292955 171.195024 
L 110.61 151.490164 
L 110.927045 156.506203 
L 111.244091 164.904467 
L 111.561136 152.914437 
L 111.878182 152.704878 
L 112.195227 152.693549 
L 112.512273 151.486476 
L 112.829318 164.331086 
L 113.146364 165.401651 
L 113.463409 163.634299 
L 113.780455 165.071846 
L 114.0975 155.325121 
L 114.414545 155.742799 
L 114.731591 171.561745 
L 115.048636 168.273028 
L 115.999773 135.038497 
L 116.316818 132.664028 
L 116.633864 143.948113 
L 116.950909 145.477482 
L 117.267955 142.917221 
L 117.585 143.567648 
L 117.902045 142.554375 
L 118.219091 140.124739 
L 118.536136 136.309937 
L 118.853182 128.672544 
L 119.170227 133.126483 
L 119.804318 123.7544 
L 120.121364 140.113834 
L 120.438409 148.35765 
L 120.755455 143.235741 
L 121.389545 130.077389 
L 121.706591 126.883328 
L 122.023636 132.806303 
L 122.340682 130.621735 
L 122.657727 130.360865 
L 122.974773 138.441889 
L 123.291818 142.067757 
L 123.925909 160.490539 
L 124.242955 160.377868 
L 124.877045 141.177511 
L 125.194091 137.682631 
L 125.511136 131.171928 
L 125.828182 129.671358 
L 126.462273 135.132586 
L 126.779318 132.651009 
L 127.096364 138.01759 
L 127.413409 136.61511 
L 127.730455 136.571599 
L 128.0475 137.722063 
L 128.364545 133.070613 
L 128.681591 141.051916 
L 128.998636 145.063466 
L 129.315682 136.934619 
L 129.632727 137.235606 
L 129.949773 138.405306 
L 130.266818 132.458667 
L 130.583864 130.159198 
L 130.900909 129.598102 
L 131.535 134.461 
L 131.852045 134.751078 
L 132.169091 126.160289 
L 132.486136 125.836868 
L 132.803182 131.573654 
L 133.120227 131.996753 
L 133.754318 160.188881 
L 134.071364 142.572867 
L 134.388409 133.710393 
L 134.705455 129.424538 
L 135.0225 139.976956 
L 135.339545 140.619999 
L 135.656591 124.93817 
L 135.973636 124.5436 
L 136.290682 137.611362 
L 136.607727 128.903259 
L 136.924773 129.836724 
L 137.241818 134.959115 
L 137.558864 131.951947 
L 137.875909 130.348193 
L 138.192955 141.66309 
L 138.827045 115.516881 
L 139.461136 125.926087 
L 140.412273 108.78903 
L 140.729318 116.792644 
L 141.046364 114.436483 
L 141.680455 118.113468 
L 141.9975 119.775311 
L 142.314545 122.096629 
L 142.948636 137.980711 
L 143.265682 138.271108 
L 143.582727 134.588176 
L 143.899773 129.043962 
L 144.216818 133.70928 
L 144.533864 121.945861 
L 144.850909 116.500287 
L 145.167955 115.725056 
L 145.485 113.42789 
L 145.802045 111.94498 
L 146.119091 106.344923 
L 146.753182 120.257183 
L 147.070227 110.555434 
L 147.387273 113.322866 
L 147.704318 114.612322 
L 148.021364 118.624557 
L 148.338409 119.57847 
L 148.655455 112.578819 
L 148.9725 108.674705 
L 149.289545 113.923 
L 149.606591 125.895828 
L 150.240682 140.70674 
L 150.557727 139.713735 
L 151.191818 101.463517 
L 151.508864 111.899286 
L 151.825909 115.585984 
L 152.142955 110.765814 
L 152.46 111.083401 
L 152.777045 107.878112 
L 153.094091 107.574929 
L 153.411136 114.096177 
L 153.728182 130.053307 
L 154.045227 130.563451 
L 154.362273 118.168879 
L 154.679318 120.3562 
L 154.996364 123.684151 
L 155.630455 109.155577 
L 155.9475 109.443013 
L 156.264545 105.648798 
L 156.898636 89.739909 
L 157.215682 85.703279 
L 157.532727 91.087853 
L 157.849773 99.222425 
L 158.166818 104.153696 
L 158.800909 127.124739 
L 159.117955 120.172808 
L 159.435 104.210598 
L 159.752045 103.272855 
L 160.069091 118.971823 
L 160.386136 123.205081 
L 161.020227 106.662549 
L 161.337273 99.148148 
L 161.654318 105.840848 
L 161.971364 105.231363 
L 162.288409 108.608568 
L 162.9225 84.838978 
L 163.239545 84.299707 
L 163.556591 93.830745 
L 163.873636 99.369027 
L 164.190682 99.169743 
L 164.507727 98.295531 
L 165.141818 115.440153 
L 165.458864 121.889864 
L 165.775909 112.921619 
L 166.092955 109.512523 
L 166.41 110.124429 
L 167.044091 94.866049 
L 167.361136 95.726939 
L 167.678182 97.467195 
L 167.995227 93.221368 
L 168.312273 85.372315 
L 168.629318 87.340801 
L 168.946364 98.912681 
L 169.263409 103.242158 
L 169.580455 102.335569 
L 169.8975 105.157316 
L 170.214545 111.637387 
L 170.531591 102.813857 
L 171.165682 75.878718 
L 172.116818 105.166664 
L 172.433864 115.083692 
L 172.750909 119.618657 
L 173.067955 117.178198 
L 173.702045 123.420193 
L 175.287273 92.939761 
L 175.921364 97.293454 
L 176.238409 90.783415 
L 176.555455 87.095824 
L 176.8725 94.29683 
L 177.189545 90.535704 
L 177.506591 90.893432 
L 178.140682 97.754318 
L 178.457727 108.639696 
L 178.774773 112.786225 
L 180.042955 80.080518 
L 180.36 97.620116 
L 180.677045 101.261494 
L 180.994091 93.782422 
L 181.311136 100.824497 
L 181.628182 102.315332 
L 181.945227 105.922017 
L 182.579318 109.557053 
L 182.896364 114.522699 
L 183.213409 114.751108 
L 183.530455 114.130703 
L 183.8475 105.749046 
L 184.164545 102.571801 
L 184.481591 96.24397 
L 184.798636 96.619179 
L 185.115682 100.5012 
L 185.432727 92.188361 
L 186.066818 98.748608 
L 186.700909 115.824121 
L 187.017955 115.353153 
L 187.335 109.905035 
L 187.652045 102.364411 
L 187.969091 91.659489 
L 188.286136 94.48258 
L 188.603182 101.03776 
L 188.920227 93.1491 
L 189.237273 99.213016 
L 189.554318 101.704561 
L 189.871364 93.30008 
L 190.188409 96.328491 
L 190.8225 130.091428 
L 191.139545 123.093878 
L 191.456591 128.583356 
L 191.773636 118.290111 
L 192.090682 112.360761 
L 192.407727 119.018854 
L 193.041818 103.571126 
L 193.358864 109.730932 
L 193.675909 109.105683 
L 193.992955 112.963986 
L 194.31 109.338264 
L 194.627045 112.64381 
L 194.944091 113.599481 
L 195.261136 104.864329 
L 195.578182 99.51201 
L 195.895227 101.646455 
L 196.529318 114.04855 
L 196.846364 111.838114 
L 197.480455 103.484482 
L 197.7975 109.46299 
L 198.114545 110.930139 
L 198.431591 113.306724 
L 198.748636 113.04919 
L 199.065682 114.500191 
L 199.382727 112.887318 
L 199.699773 112.81036 
L 200.016818 107.675952 
L 200.333864 96.816906 
L 201.285 117.203727 
L 201.602045 112.890108 
L 201.919091 110.63267 
L 202.236136 103.130713 
L 202.553182 102.453497 
L 202.870227 105.554355 
L 203.187273 102.526845 
L 203.504318 96.574871 
L 203.821364 97.952803 
L 204.138409 104.507432 
L 204.455455 105.127019 
L 205.089545 112.919113 
L 205.723636 98.984439 
L 206.040682 92.658604 
L 206.357727 93.01932 
L 206.674773 98.533191 
L 206.991818 98.13304 
L 207.308864 97.940369 
L 207.625909 97.98186 
L 207.942955 107.08675 
L 208.26 108.064792 
L 208.577045 106.364186 
L 208.894091 102.703134 
L 209.528182 85.35323 
L 209.845227 85.967 
L 210.162273 95.387775 
L 210.796364 121.053962 
L 211.430455 129.766339 
L 211.7475 129.62068 
L 212.064545 120.958743 
L 212.381591 126.006515 
L 213.015682 100.146632 
L 213.649773 126.78719 
L 213.966818 123.403456 
L 214.283864 122.635083 
L 214.600909 131.642173 
L 214.917955 129.1963 
L 215.235 128.380474 
L 215.552045 128.297047 
L 215.869091 128.908176 
L 216.186136 126.535628 
L 216.503182 126.626077 
L 216.820227 124.140295 
L 217.137273 122.883032 
L 217.454318 114.422384 
L 217.771364 126.568641 
L 218.088409 134.315181 
L 218.405455 120.782894 
L 218.7225 133.58655 
L 219.039545 140.069714 
L 219.356591 132.840379 
L 219.673636 129.239096 
L 219.990682 113.414901 
L 220.307727 106.484309 
L 220.624773 119.973208 
L 220.941818 123.070791 
L 221.258864 124.522236 
L 221.575909 125.211507 
L 222.21 128.574117 
L 222.527045 123.614735 
L 222.844091 123.875422 
L 223.161136 129.438147 
L 223.795227 117.887377 
L 224.112273 118.405109 
L 224.429318 117.441291 
L 224.746364 111.81207 
L 225.063409 112.029355 
L 225.380455 122.096387 
L 225.6975 128.240447 
L 226.014545 128.187037 
L 226.331591 132.8627 
L 226.648636 132.453926 
L 226.965682 113.32551 
L 227.282727 103.924988 
L 227.916818 122.177209 
L 228.233864 120.859195 
L 228.550909 132.542509 
L 228.867955 134.96845 
L 229.185 115.704692 
L 229.502045 103.218894 
L 229.819091 106.803493 
L 230.453182 127.014908 
L 230.770227 144.112721 
L 231.087273 145.850164 
L 231.404318 135.391016 
L 231.721364 133.772415 
L 232.989545 116.064021 
L 233.306591 120.109078 
L 233.940682 135.097522 
L 234.574773 125.957606 
L 234.891818 129.49841 
L 235.208864 125.409055 
L 235.842955 114.773459 
L 236.16 117.658858 
L 236.477045 111.382133 
L 236.794091 108.212958 
L 237.111136 107.361225 
L 237.428182 109.358117 
L 238.062273 134.124388 
L 238.379318 127.07515 
L 238.696364 126.844011 
L 239.013409 124.788148 
L 239.330455 123.482914 
L 239.6475 130.25796 
L 239.964545 127.018633 
L 240.281591 122.335071 
L 240.598636 123.76116 
L 241.232727 133.738682 
L 241.549773 136.779746 
L 241.866818 130.714374 
L 242.183864 131.021192 
L 242.500909 128.69189 
L 242.817955 116.497341 
L 243.135 109.703599 
L 243.769091 129.612197 
L 244.086136 129.619359 
L 244.403182 129.328879 
L 244.720227 122.526939 
L 245.037273 119.112482 
L 245.354318 128.350223 
L 245.671364 126.245293 
L 245.988409 119.177603 
L 246.305455 117.420876 
L 246.6225 114.714027 
L 246.939545 123.34132 
L 247.256591 124.804443 
L 247.573636 122.227687 
L 247.890682 121.733469 
L 248.207727 125.731831 
L 248.524773 149.869138 
L 248.841818 146.216992 
L 249.158864 147.330708 
L 249.475909 142.956363 
L 249.792955 143.177384 
L 250.11 133.668306 
L 250.427045 132.604107 
L 250.744091 129.02936 
L 251.061136 136.501188 
L 251.378182 133.312294 
L 251.695227 133.238219 
L 252.329318 150.32893 
L 252.646364 154.838603 
L 252.963409 136.833375 
L 253.5975 134.738155 
L 253.914545 134.259348 
L 254.231591 137.935813 
L 254.548636 133.843987 
L 255.182727 142.043131 
L 255.499773 141.238875 
L 255.816818 137.676524 
L 256.133864 145.991651 
L 256.450909 150.999718 
L 257.085 138.044895 
L 257.402045 138.792827 
L 257.719091 160.527353 
L 258.036136 158.768672 
L 258.353182 134.639345 
L 258.670227 134.739185 
L 258.987273 138.661152 
L 259.621364 128.292192 
L 259.938409 139.020847 
L 260.255455 142.918142 
L 260.5725 140.841904 
L 261.206591 122.216002 
L 261.523636 117.821162 
L 261.840682 118.836989 
L 262.157727 117.287468 
L 262.474773 117.249368 
L 262.791818 122.46719 
L 263.425909 145.342011 
L 263.742955 151.277754 
L 264.377045 146.62741 
L 264.694091 146.235109 
L 265.011136 137.016482 
L 265.645227 125.912536 
L 265.962273 124.966905 
L 266.279318 136.795671 
L 266.596364 137.443628 
L 266.913409 133.449556 
L 267.230455 135.240661 
L 267.5475 140.285322 
L 267.864545 135.151324 
L 268.181591 128.02569 
L 268.498636 131.048462 
L 268.815682 135.962322 
L 269.132727 147.854152 
L 269.449773 153.852243 
L 270.083864 148.729612 
L 270.400909 155.106936 
L 270.717955 157.229605 
L 271.035 148.053854 
L 271.352045 149.969754 
L 271.669091 155.990362 
L 272.303182 137.543576 
L 272.620227 137.102129 
L 272.937273 136.152902 
L 273.254318 137.500602 
L 273.571364 149.269833 
L 273.888409 156.638546 
L 274.205455 154.076376 
L 274.5225 170.23456 
L 274.839545 158.664533 
L 275.156591 153.585868 
L 275.473636 168.716745 
L 275.790682 169.64273 
L 276.107727 150.200577 
L 276.424773 141.785439 
L 276.741818 149.194389 
L 277.058864 160.814936 
L 277.375909 158.780571 
L 277.692955 161.173858 
L 278.01 160.644287 
L 278.327045 156.484788 
L 278.644091 148.878358 
L 278.961136 154.513137 
L 279.278182 172.028801 
L 279.595227 179.47303 
L 280.229318 154.504807 
L 281.180455 133.852623 
L 281.4975 131.073195 
L 281.814545 135.46854 
L 282.131591 142.595606 
L 282.448636 141.503896 
L 283.082727 163.686675 
L 283.716818 147.930257 
L 284.033864 151.06521 
L 284.350909 158.407959 
L 284.667955 168.994509 
L 284.985 171.828131 
L 285.302045 166.803246 
L 285.619091 159.355343 
L 285.936136 161.493335 
L 286.253182 167.966684 
L 286.570227 171.334753 
L 286.887273 167.674341 
L 287.204318 161.008779 
L 287.521364 159.679218 
L 287.838409 164.008333 
L 288.4725 150.948102 
L 288.789545 149.371306 
L 289.106591 140.572323 
L 289.423636 149.717265 
L 289.740682 172.911797 
L 290.057727 172.088473 
L 290.374773 171.771567 
L 290.691818 177.499868 
L 291.008864 180.972978 
L 291.325909 171.44861 
L 291.642955 152.195943 
L 291.96 148.418251 
L 292.277045 150.677453 
L 292.594091 139.607748 
L 292.911136 133.141029 
L 293.545227 150.103444 
L 293.862273 141.822548 
L 294.179318 144.736197 
L 294.496364 154.602681 
L 294.813409 169.267353 
L 295.130455 165.727394 
L 295.4475 165.789031 
L 295.764545 169.458024 
L 296.081591 164.672237 
L 296.398636 156.163544 
L 296.715682 155.841567 
L 297.032727 165.210544 
L 297.349773 186.892709 
L 297.666818 184.90682 
L 298.300909 158.13257 
L 299.252045 167.09497 
L 299.569091 173.44791 
L 299.886136 177.278087 
L 300.203182 175.206546 
L 300.520227 178.344902 
L 300.837273 177.47855 
L 301.471364 165.952947 
L 302.105455 169.530439 
L 302.4225 166.878845 
L 302.739545 166.812852 
L 303.056591 169.422873 
L 303.690682 156.749091 
L 304.007727 163.692679 
L 304.324773 162.398791 
L 304.641818 163.922799 
L 304.958864 162.977078 
L 305.275909 158.034656 
L 305.592955 174.469965 
L 305.91 178.662199 
L 306.227045 157.684095 
L 306.544091 154.628112 
L 306.861136 160.925386 
L 307.178182 154.669764 
L 307.495227 152.037187 
L 307.812273 152.182834 
L 308.129318 152.888958 
L 308.446364 154.391835 
L 308.763409 162.505619 
L 309.080455 173.972924 
L 309.3975 177.801939 
L 309.714545 178.26537 
L 310.031591 169.576444 
L 310.348636 164.468928 
L 310.665682 171.09124 
L 310.982727 169.801864 
L 311.616818 195.358036 
L 311.933864 191.623759 
L 312.250909 182.152533 
L 312.567955 182.396314 
L 312.885 185.557589 
L 313.202045 186.947023 
L 313.519091 192.367253 
L 313.836136 191.192851 
L 314.470227 174.817684 
L 314.787273 167.459903 
L 315.104318 176.602496 
L 315.421364 194.637188 
L 315.738409 189.895778 
L 316.055455 174.172985 
L 316.3725 170.020393 
L 316.689545 175.359279 
L 317.006591 182.628283 
L 317.323636 185.815198 
L 317.640682 183.653348 
L 318.274773 196.259214 
L 318.591818 190.902611 
L 318.908864 182.622075 
L 319.225909 183.324283 
L 319.542955 195.930712 
L 319.86 192.248529 
L 320.177045 192.534815 
L 320.811136 172.654162 
L 321.445227 191.181823 
L 321.762273 189.351954 
L 322.396364 162.571903 
L 323.030455 168.789363 
L 323.3475 187.838866 
L 323.664545 197.307037 
L 323.981591 197.820742 
L 324.298636 195.642997 
L 324.615682 186.554754 
L 324.932727 187.139819 
L 325.566818 216.515635 
L 326.200909 206.989546 
L 326.517955 200.676041 
L 326.835 212.270282 
L 327.152045 213.797685 
L 327.786136 207.677699 
L 328.103182 206.501296 
L 328.737273 192.723563 
L 329.054318 189.097956 
L 329.688409 206.665989 
L 330.005455 207.463273 
L 330.639545 178.86566 
L 330.956591 182.454854 
L 331.273636 191.179814 
L 331.590682 186.813573 
L 332.224773 181.392484 
L 332.541818 176.525806 
L 332.858864 175.947305 
L 333.492955 185.437663 
L 334.127045 176.61056 
L 334.444091 177.584839 
L 334.761136 182.872999 
L 335.078182 185.761806 
L 335.395227 191.196175 
L 335.712273 192.665284 
L 336.029318 198.875499 
L 336.346364 197.507075 
L 336.663409 194.358875 
L 336.980455 184.513934 
L 337.2975 180.909141 
L 337.931591 206.368135 
L 338.248636 214.970368 
L 338.565682 210.860028 
L 338.882727 209.034661 
L 339.199773 217.733892 
L 340.150909 201.088209 
L 340.467955 205.184073 
L 340.785 193.239019 
L 341.102045 190.790644 
L 341.419091 198.893691 
L 341.736136 202.446555 
L 342.370227 233.064991 
L 342.687273 230.044378 
L 343.321364 213.356356 
L 343.638409 213.848135 
L 344.2725 200.398005 
L 344.589545 201.756287 
L 344.906591 203.978603 
L 345.223636 209.187515 
L 345.540682 208.901553 
L 345.857727 201.97863 
L 346.174773 200.300818 
L 346.491818 215.419087 
L 347.125909 199.903958 
L 347.442955 199.551316 
L 347.76 196.364958 
L 348.077045 196.477708 
L 348.394091 203.549166 
L 348.711136 203.59465 
L 349.028182 201.398518 
L 349.345227 201.629262 
L 349.662273 198.575506 
L 349.979318 202.265819 
L 350.296364 217.703725 
L 350.613409 222.193446 
L 350.930455 211.993058 
L 351.2475 207.859968 
L 351.564545 214.774159 
L 351.881591 224.477341 
L 352.198636 227.963982 
L 352.832727 213.908618 
L 353.466818 196.05887 
L 353.783864 204.68536 
L 354.100909 223.659342 
L 354.417955 230.419222 
L 355.052045 202.961056 
L 355.686136 215.885493 
L 356.003182 226.059347 
L 356.320227 231.103277 
L 356.637273 233.655157 
L 356.954318 226.782368 
L 357.588409 202.347444 
L 357.905455 199.206728 
L 358.2225 199.525262 
L 358.539545 197.281126 
L 358.856591 202.676345 
L 359.173636 213.076673 
L 359.490682 219.239604 
L 359.807727 220.120239 
L 360.124773 226.722288 
L 360.758864 246.392917 
L 361.075909 236.213438 
L 361.392955 215.779254 
L 361.71 203.717698 
L 362.344091 223.092307 
L 362.661136 215.322664 
L 362.978182 215.97252 
L 363.295227 220.748125 
L 363.612273 208.044314 
L 363.929318 206.135573 
L 364.563409 216.640433 
L 364.880455 212.250878 
L 365.514545 217.74417 
L 365.831591 219.097752 
L 366.148636 239.178585 
L 366.465682 244.096225 
L 366.782727 232.789054 
L 367.416818 220.891715 
L 367.733864 221.00454 
L 368.050909 225.673028 
L 368.367955 219.274742 
L 369.319091 222.31857 
L 369.636136 228.9484 
L 370.270227 218.41826 
L 370.587273 228.565574 
L 370.904318 234.584328 
L 371.221364 229.414495 
L 371.538409 229.190779 
L 372.1725 235.264679 
L 372.806591 219.131981 
L 373.123636 222.347769 
L 373.440682 220.579885 
L 373.757727 209.493705 
L 374.074773 207.823655 
L 374.708864 231.355338 
L 375.025909 229.142956 
L 375.977045 206.033312 
L 376.294091 212.423945 
L 376.928182 238.934957 
L 377.245227 238.003838 
L 377.562273 231.81458 
L 377.879318 237.21719 
L 378.196364 237.881008 
L 378.513409 233.16899 
L 378.830455 242.424178 
L 379.1475 255.094106 
L 379.464545 251.319188 
L 379.781591 241.751072 
L 380.098636 221.123021 
L 380.415682 214.772636 
L 380.732727 220.759103 
L 381.049773 219.725543 
L 381.366818 226.708078 
L 381.683864 220.34521 
L 382.000909 220.613861 
L 382.317955 225.858412 
L 382.635 220.995837 
L 382.952045 219.024788 
L 383.269091 237.913585 
L 383.586136 250.09684 
L 383.903182 250.51685 
L 384.537273 230.306315 
L 385.171364 246.060904 
L 385.488409 248.166465 
L 385.805455 254.945267 
L 386.1225 256.808333 
L 386.439545 253.549326 
L 386.756591 241.526678 
L 387.073636 243.9237 
L 387.390682 239.874104 
L 387.707727 229.230634 
L 388.024773 225.686825 
L 388.658864 214.966294 
L 388.975909 215.063418 
L 389.61 244.578199 
L 389.927045 252.456055 
L 390.244091 249.27467 
L 390.561136 236.649928 
L 390.878182 232.532405 
L 391.195227 241.519427 
L 391.512273 237.742142 
L 391.829318 221.369946 
L 392.146364 219.77755 
L 392.463409 222.547563 
L 393.0975 229.26746 
L 393.414545 228.604821 
L 393.731591 228.944199 
L 394.048636 232.852581 
L 394.365682 243.122345 
L 394.682727 248.607606 
L 394.999773 251.592412 
L 395.316818 244.436161 
L 395.633864 246.028548 
L 395.950909 245.50428 
L 396.267955 250.026708 
L 396.585 261.646808 
L 396.902045 250.200703 
L 397.219091 244.707087 
L 397.536136 250.690136 
L 397.853182 253.624873 
L 398.170227 248.288256 
L 398.487273 284.230112 
L 398.487273 284.230112 
" clip-path="url(#p989b5aa2c0)" style="fill: none; stroke: #0000ff; stroke-width: 1.5; stroke-linecap: square"/>
   </g>
   <g id="line2d_29">
    <path d="M 73.832727 229.06005 
L 74.229034 76.439038 
L 74.427188 69.147707 
L 74.625341 57.369857 
L 74.823494 55.404407 
L 75.219801 74.04862 
L 75.417955 72.130739 
L 75.616108 78.104911 
L 76.012415 103.145119 
L 76.210568 106.873313 
L 76.408722 118.861866 
L 76.606875 118.029415 
L 76.805028 117.840715 
L 77.003182 131.232193 
L 77.201335 132.696209 
L 77.399489 132.352646 
L 78.192102 158.158798 
L 78.390256 154.792664 
L 78.588409 158.15532 
L 78.786563 149.904881 
L 78.984716 159.203357 
L 79.182869 160.294914 
L 79.579176 158.881913 
L 79.77733 158.735937 
L 79.975483 166.191183 
L 80.173636 165.883289 
L 80.37179 167.405006 
L 80.569943 158.107641 
L 80.768097 162.97767 
L 80.96625 172.561761 
L 81.164403 173.194422 
L 81.56071 158.661304 
L 81.758864 157.670462 
L 82.15517 144.717504 
L 82.551477 140.260578 
L 82.947784 159.029703 
L 83.145938 157.497752 
L 83.344091 166.98046 
L 83.542244 161.723233 
L 83.740398 149.41733 
L 83.938551 161.956788 
L 84.334858 166.202893 
L 84.533011 173.466253 
L 84.731165 170.539061 
L 85.127472 179.49109 
L 85.325625 179.901227 
L 85.721932 158.71598 
L 85.920085 166.151399 
L 86.118239 156.01428 
L 86.316392 160.772716 
L 86.514545 162.760381 
L 86.712699 161.659843 
L 86.910852 170.620444 
L 87.109006 167.850634 
L 87.307159 173.14449 
L 87.505313 168.487675 
L 87.703466 169.292384 
L 87.901619 167.539115 
L 88.099773 163.046127 
L 88.297926 155.180425 
L 88.49608 154.058687 
L 89.09054 171.158044 
L 89.288693 183.144076 
L 89.486847 182.706882 
L 89.883153 155.262725 
L 90.081307 156.759578 
L 90.27946 154.085918 
L 90.477614 161.068074 
L 90.675767 163.277443 
L 91.072074 176.539089 
L 91.468381 179.088508 
L 91.666534 172.964098 
L 91.864688 176.122084 
L 92.062841 192.880494 
L 92.260994 199.517679 
L 92.459148 211.218632 
L 92.855455 198.337667 
L 93.053608 199.046702 
L 93.449915 206.737317 
L 93.648068 183.962971 
L 93.846222 182.51512 
L 94.242528 187.765058 
L 94.440682 198.974035 
L 95.035142 210.279839 
L 95.431449 203.068578 
L 95.629602 199.297613 
L 95.827756 192.640188 
L 96.025909 195.366321 
L 96.620369 209.238514 
L 96.818523 208.047521 
L 97.21483 186.559808 
L 97.412983 188.976707 
L 97.80929 205.12286 
L 98.205597 195.285481 
L 98.40375 193.166889 
L 98.601903 193.779025 
L 98.800057 183.371648 
L 99.196364 192.238065 
L 99.394517 191.381744 
L 99.59267 193.920806 
L 99.790824 190.36888 
L 99.988977 184.483361 
L 100.187131 183.778961 
L 100.385284 180.16241 
L 100.583438 182.110094 
L 100.781591 187.267421 
L 100.979744 182.418142 
L 101.177898 197.017782 
L 101.376051 194.234501 
L 101.574205 185.302918 
L 101.772358 208.523995 
L 101.970511 211.699322 
L 102.564972 179.039917 
L 102.763125 187.775147 
L 102.961278 187.734496 
L 103.159432 190.700668 
L 103.357585 198.425127 
L 103.555739 187.647559 
L 104.150199 183.611862 
L 104.348352 177.815081 
L 104.546506 166.227567 
L 104.744659 168.548047 
L 105.140966 186.056774 
L 105.339119 173.423524 
L 105.537273 172.946981 
L 105.735426 170.422574 
L 106.131733 176.968915 
L 106.726193 181.631628 
L 106.924347 182.032096 
L 107.1225 189.989774 
L 107.320653 188.84271 
L 107.518807 190.7757 
L 107.71696 182.081531 
L 107.915114 184.362272 
L 108.113267 191.136027 
L 108.509574 186.383735 
L 108.707727 173.881424 
L 108.905881 178.680795 
L 109.104034 177.548785 
L 109.302188 179.566092 
L 109.500341 171.660323 
L 109.896648 176.19764 
L 110.094801 190.234913 
L 110.689261 151.869714 
L 111.085568 174.590483 
L 111.283722 168.984723 
L 111.680028 152.270183 
L 111.878182 154.222929 
L 112.076335 154.064152 
L 112.274489 162.020121 
L 112.472642 157.532275 
L 113.067102 176.780354 
L 113.265256 164.852847 
L 113.463409 167.544462 
L 113.661563 176.814737 
L 114.256023 162.046718 
L 114.454176 164.242548 
L 114.850483 177.619868 
L 115.048636 173.336327 
L 115.444943 156.323277 
L 115.643097 156.365953 
L 115.84125 144.864484 
L 116.039403 140.083146 
L 116.237557 138.807984 
L 116.633864 152.907264 
L 116.832017 150.901739 
L 117.03017 155.131489 
L 117.228324 147.676106 
L 117.426477 153.83839 
L 117.624631 155.978082 
L 118.219091 143.836202 
L 118.417244 157.697818 
L 118.615398 151.140445 
L 118.813551 130.095414 
L 119.011705 135.994967 
L 119.209858 135.500232 
L 119.408011 139.93107 
L 119.804318 121.057111 
L 120.200625 162.37461 
L 120.398778 158.861791 
L 120.795085 137.052028 
L 120.993239 133.685709 
L 121.191392 144.636392 
L 121.389545 140.047623 
L 121.587699 132.247187 
L 121.785852 131.141319 
L 121.984006 145.093747 
L 122.182159 147.264656 
L 122.380313 143.846321 
L 122.578466 135.677137 
L 122.776619 140.399639 
L 122.974773 153.206266 
L 123.172926 146.170498 
L 123.37108 151.379138 
L 123.569233 151.876794 
L 123.767386 163.616864 
L 123.96554 158.896405 
L 124.163693 168.493247 
L 124.56 149.662118 
L 124.758153 150.7418 
L 124.956307 149.017642 
L 125.15446 154.626237 
L 125.352614 142.942139 
L 125.550767 138.627052 
L 125.74892 137.556044 
L 125.947074 133.928379 
L 126.145227 136.557171 
L 126.541534 147.733898 
L 126.739688 138.443991 
L 127.135994 149.35042 
L 127.532301 136.280178 
L 127.928608 149.631247 
L 128.324915 139.798307 
L 128.919375 156.931989 
L 129.315682 138.375405 
L 129.513835 138.283613 
L 129.711989 147.465114 
L 129.910142 147.704621 
L 130.306449 136.127482 
L 130.504602 139.539269 
L 130.702756 136.716494 
L 130.900909 136.043696 
L 131.099063 143.076649 
L 131.297216 135.802478 
L 131.495369 138.492998 
L 131.693523 134.906282 
L 131.891676 134.064549 
L 132.08983 123.626423 
L 132.287983 132.86026 
L 132.68429 125.902649 
L 132.882443 134.186573 
L 133.080597 129.016973 
L 133.27875 135.790555 
L 133.675057 171.270977 
L 133.87321 163.803415 
L 134.071364 146.228618 
L 134.269517 145.768276 
L 134.46767 148.208639 
L 134.863977 132.600808 
L 135.062131 150.336645 
L 135.854744 117.600233 
L 136.052898 126.296483 
L 136.251051 146.548185 
L 136.647358 129.069442 
L 136.845511 137.162549 
L 137.043665 131.261448 
L 137.241818 138.694977 
L 137.439972 139.095216 
L 137.638125 127.724824 
L 137.836278 123.33241 
L 138.232585 152.98425 
L 138.827045 107.559379 
L 139.421506 130.824943 
L 139.817813 122.843172 
L 140.015966 123.913035 
L 140.214119 113.699391 
L 140.412273 112.176848 
L 140.80858 121.38956 
L 141.006733 116.691809 
L 141.204886 117.574329 
L 141.601193 124.285316 
L 141.799347 123.526106 
L 142.195653 133.33939 
L 142.393807 124.692407 
L 142.59196 131.344603 
L 142.790114 142.488721 
L 142.988267 144.698977 
L 143.18642 143.339276 
L 143.384574 139.474014 
L 143.582727 141.277948 
L 143.780881 131.619265 
L 144.177188 151.580028 
L 144.573494 119.253286 
L 144.771648 117.009753 
L 144.969801 126.298116 
L 145.167955 123.145499 
L 145.366108 122.46049 
L 145.762415 117.525693 
L 145.960568 108.092665 
L 146.158722 108.664488 
L 146.356875 111.304976 
L 146.555028 126.524167 
L 146.753182 132.804273 
L 146.951335 117.827528 
L 147.149489 112.510128 
L 147.347642 113.617377 
L 147.545795 116.986204 
L 147.942102 129.908429 
L 148.140256 130.886994 
L 148.338409 129.694745 
L 148.536563 121.215676 
L 148.734716 125.89634 
L 148.932869 113.863515 
L 149.131023 115.844837 
L 149.52733 126.244402 
L 149.725483 137.316847 
L 149.923636 136.819604 
L 150.12179 136.632016 
L 150.319943 148.712919 
L 150.518097 135.810955 
L 150.71625 135.881567 
L 151.112557 104.531604 
L 151.31071 120.008138 
L 151.508864 114.263442 
L 151.707017 122.801852 
L 151.90517 111.381281 
L 152.103324 107.443375 
L 152.301477 115.346986 
L 152.499631 115.764164 
L 152.697784 120.703766 
L 153.292244 109.677803 
L 153.490398 112.752644 
L 153.886705 144.326349 
L 154.084858 143.199797 
L 154.283011 121.240048 
L 154.481165 113.237882 
L 154.679318 115.742733 
L 154.877472 130.015996 
L 155.075625 127.362171 
L 155.273778 126.755993 
L 155.471932 109.812113 
L 155.670085 118.715674 
L 155.868239 116.703367 
L 156.066392 118.059128 
L 156.462699 111.834469 
L 156.660852 101.078401 
L 156.859006 98.832917 
L 157.057159 92.484272 
L 157.255313 91.156907 
L 157.453466 91.164484 
L 157.849773 107.429668 
L 158.047926 105.743547 
L 158.24608 106.255495 
L 158.84054 127.275332 
L 159.236847 128.447536 
L 159.435 112.800174 
L 159.633153 109.293225 
L 159.831307 101.643956 
L 160.227614 122.122279 
L 160.425767 125.479952 
L 160.62392 116.284937 
L 160.822074 114.788597 
L 161.020227 110.000861 
L 161.218381 102.437855 
L 161.416534 104.90363 
L 161.614688 116.15484 
L 161.812841 112.697542 
L 162.010994 103.819444 
L 162.407301 118.268514 
L 162.605455 98.920807 
L 162.803608 95.665825 
L 163.199915 86.690486 
L 163.398068 90.994439 
L 163.596222 100.518467 
L 163.794375 99.744529 
L 163.992528 104.452019 
L 164.190682 103.776655 
L 164.388835 103.882483 
L 164.586989 108.528788 
L 164.785142 126.704417 
L 164.983295 127.515304 
L 165.181449 120.481232 
L 165.379602 120.676698 
L 165.577756 119.321426 
L 165.775909 113.916901 
L 165.974063 117.466675 
L 166.172216 115.903295 
L 166.370369 132.557347 
L 166.568523 127.646544 
L 166.766676 106.145148 
L 166.96483 98.522791 
L 167.162983 102.52348 
L 167.361136 100.989812 
L 167.55929 102.253971 
L 167.757443 102.678655 
L 167.955597 104.201154 
L 168.15375 101.957754 
L 168.351903 97.379357 
L 168.550057 86.658447 
L 169.144517 117.791713 
L 169.34267 106.933 
L 169.540824 106.238496 
L 169.738977 100.498775 
L 170.333438 116.284764 
L 170.729744 103.118406 
L 170.927898 96.427159 
L 171.126051 78.521481 
L 171.324205 82.0056 
L 171.720511 111.474631 
L 171.918665 110.667059 
L 172.116818 113.368412 
L 172.513125 125.266326 
L 172.711278 115.667713 
L 172.909432 127.439514 
L 173.107585 121.944369 
L 173.305739 124.129518 
L 173.503892 127.753425 
L 173.702045 120.648222 
L 173.900199 129.421202 
L 174.296506 114.025932 
L 174.494659 112.778561 
L 174.890966 97.622441 
L 175.089119 102.448096 
L 175.287273 95.691621 
L 175.68358 103.003517 
L 175.881733 107.576046 
L 176.079886 98.2279 
L 176.27804 104.087675 
L 176.476193 88.579229 
L 176.674347 104.21463 
L 176.8725 106.641153 
L 177.268807 98.024319 
L 177.46696 96.150256 
L 177.863267 100.814091 
L 178.06142 98.904365 
L 178.655881 124.060374 
L 178.854034 113.396493 
L 179.052188 114.312639 
L 179.250341 98.023687 
L 179.448494 101.678826 
L 179.646648 101.870253 
L 180.042955 81.362619 
L 180.637415 106.969244 
L 180.835568 97.599368 
L 181.033722 108.279111 
L 181.231875 105.688731 
L 181.430028 113.989595 
L 181.628182 104.432023 
L 182.024489 102.364484 
L 182.222642 103.262856 
L 182.420795 105.000182 
L 183.015256 120.317484 
L 183.213409 117.486197 
L 183.411563 124.861422 
L 183.609716 116.182551 
L 183.807869 113.629917 
L 184.006023 113.898121 
L 184.204176 111.191178 
L 184.40233 105.757595 
L 184.600483 92.229296 
L 184.99679 104.746389 
L 185.194943 101.63218 
L 185.393097 93.727152 
L 185.59125 93.671811 
L 186.18571 108.317143 
L 186.383864 130.304527 
L 186.582017 119.521506 
L 186.78017 129.212589 
L 186.978324 117.154493 
L 187.176477 118.513514 
L 187.770938 111.754771 
L 187.969091 94.352257 
L 188.563551 116.195866 
L 188.959858 91.578822 
L 189.356165 116.011043 
L 189.554318 115.064691 
L 189.752472 109.04699 
L 189.950625 93.830938 
L 190.346932 112.150727 
L 190.545085 133.387198 
L 190.743239 132.329474 
L 190.941392 133.877815 
L 191.139545 122.694177 
L 191.337699 122.865449 
L 191.535852 133.303776 
L 191.734006 123.280024 
L 191.932159 105.901055 
L 192.328466 127.136735 
L 192.724773 122.955633 
L 192.922926 112.530879 
L 193.12108 109.354693 
L 193.319233 123.341863 
L 193.517386 112.807289 
L 193.913693 115.414889 
L 194.111847 122.565889 
L 194.31 113.749654 
L 194.508153 116.964223 
L 194.706307 122.034594 
L 194.90446 122.196629 
L 195.102614 103.584427 
L 195.300767 106.311357 
L 195.49892 104.374895 
L 195.697074 96.374317 
L 195.895227 106.128035 
L 196.093381 106.232155 
L 196.291534 123.032686 
L 196.489688 126.847785 
L 196.885994 115.201103 
L 197.084148 113.320936 
L 197.282301 114.888878 
L 197.480455 105.287582 
L 197.678608 110.086933 
L 197.876761 121.393468 
L 198.074915 111.788092 
L 198.471222 119.905186 
L 198.669375 117.936225 
L 198.867528 118.671056 
L 199.065682 126.996654 
L 199.263835 116.773428 
L 199.461989 115.184083 
L 199.660142 114.783127 
L 199.858295 106.261566 
L 200.056449 105.373883 
L 200.254602 95.009105 
L 200.452756 96.236384 
L 200.650909 113.578507 
L 200.849063 110.773597 
L 201.047216 124.1017 
L 201.245369 122.44104 
L 201.443523 122.185527 
L 201.641676 111.19353 
L 201.83983 118.956812 
L 202.037983 136.837668 
L 202.43429 105.744835 
L 202.632443 104.740447 
L 202.830597 122.161986 
L 203.02875 120.069122 
L 203.226903 106.220357 
L 203.62321 97.654852 
L 204.019517 107.799877 
L 204.21767 100.169039 
L 204.613977 98.187168 
L 204.812131 116.810296 
L 205.010284 122.884517 
L 205.406591 100.190574 
L 205.604744 100.437679 
L 205.802898 116.355348 
L 206.199205 92.508685 
L 206.397358 98.16279 
L 206.595511 114.122424 
L 206.793665 106.618855 
L 207.189972 104.205773 
L 207.784432 111.716568 
L 207.982585 120.308799 
L 208.378892 110.888114 
L 208.775199 108.74598 
L 209.171506 100.886149 
L 209.369659 97.636394 
L 209.567813 84.756745 
L 209.765966 93.442057 
L 209.964119 95.349554 
L 210.162273 116.140968 
L 210.55858 120.864528 
L 210.756733 141.379681 
L 210.954886 148.990825 
L 211.351193 127.943289 
L 211.549347 140.485978 
L 212.143807 115.989626 
L 212.34196 127.871075 
L 212.540114 125.431012 
L 212.738267 106.777844 
L 212.93642 99.904944 
L 213.530881 140.019201 
L 213.729034 132.124472 
L 213.927188 129.04265 
L 214.125341 127.792734 
L 214.521648 141.892473 
L 214.719801 142.86641 
L 214.917955 135.242373 
L 215.116108 139.221003 
L 215.314261 137.106496 
L 215.512415 139.810298 
L 215.908722 133.479674 
L 216.106875 125.292916 
L 216.305028 129.401006 
L 216.503182 128.832109 
L 216.899489 126.668021 
L 217.097642 134.110859 
L 217.295795 122.107926 
L 217.493949 119.318213 
L 218.088409 143.866474 
L 218.286563 120.386351 
L 218.484716 124.146234 
L 218.881023 141.803988 
L 219.079176 140.842913 
L 219.475483 130.09375 
L 219.673636 128.700986 
L 219.87179 121.322953 
L 220.268097 97.136441 
L 220.664403 127.822828 
L 221.06071 122.774122 
L 221.258864 126.974693 
L 221.457017 126.675758 
L 221.65517 118.520351 
L 221.853324 122.697066 
L 222.051477 141.838433 
L 222.249631 149.09881 
L 222.447784 139.496188 
L 222.645938 120.126299 
L 222.844091 123.636564 
L 223.042244 133.365625 
L 223.240398 132.398711 
L 223.636705 121.186882 
L 223.834858 126.694034 
L 224.033011 118.899016 
L 224.231165 120.617541 
L 224.429318 126.593515 
L 225.023778 109.065982 
L 225.420085 135.292877 
L 225.618239 143.580318 
L 225.816392 135.699591 
L 226.014545 122.589644 
L 226.410852 136.441526 
L 226.609006 140.439789 
L 226.807159 134.707477 
L 227.005313 113.480603 
L 227.203466 119.921222 
L 227.401619 102.243934 
L 227.599773 122.456447 
L 227.99608 134.638126 
L 228.194233 125.203702 
L 228.392386 138.885556 
L 228.788693 147.783409 
L 229.185 125.762896 
L 229.581307 107.677558 
L 229.77946 108.130559 
L 230.175767 131.092471 
L 230.37392 132.291496 
L 230.968381 157.408538 
L 231.166534 141.468628 
L 231.364688 143.305011 
L 231.562841 134.664379 
L 231.959148 144.617369 
L 232.355455 129.46297 
L 232.553608 129.387972 
L 232.949915 115.6421 
L 233.148068 125.969469 
L 233.346222 127.774226 
L 233.544375 139.858739 
L 233.742528 140.087057 
L 234.138835 135.180317 
L 234.336989 134.011627 
L 234.535142 131.388568 
L 234.733295 131.181133 
L 234.931449 133.978837 
L 235.129602 132.444484 
L 235.327756 124.404574 
L 235.724063 120.997737 
L 235.922216 116.471137 
L 236.120369 126.43179 
L 236.318523 124.890435 
L 236.516676 112.94686 
L 236.71483 117.997403 
L 236.912983 128.449744 
L 237.111136 115.244919 
L 237.30929 120.721305 
L 237.507443 119.91572 
L 237.90375 138.784382 
L 238.101903 136.768002 
L 238.300057 125.023277 
L 238.49821 125.300875 
L 238.696364 140.332633 
L 238.894517 135.078051 
L 239.09267 138.610165 
L 239.290824 131.864201 
L 239.488977 134.202263 
L 239.687131 139.693871 
L 239.885284 135.758756 
L 240.083438 125.859985 
L 240.281591 138.294076 
L 240.479744 138.119558 
L 240.677898 134.406279 
L 240.876051 134.815994 
L 241.074205 136.008848 
L 241.272358 144.102966 
L 241.470511 145.411281 
L 241.668665 139.564709 
L 241.866818 130.305227 
L 242.064972 134.32592 
L 242.461278 153.293199 
L 242.659432 142.83646 
L 243.055739 116.078865 
L 243.253892 119.407384 
L 243.848352 148.227328 
L 244.046506 140.05699 
L 244.244659 149.762282 
L 244.442813 150.020845 
L 244.839119 140.833472 
L 245.037273 129.751295 
L 245.43358 154.123801 
L 245.631733 145.418036 
L 245.829886 127.245721 
L 246.02804 132.307668 
L 246.226193 131.208079 
L 246.424347 131.776528 
L 246.6225 124.408266 
L 246.820653 130.650539 
L 247.018807 142.124348 
L 247.415114 127.232353 
L 247.613267 128.96862 
L 247.81142 134.214295 
L 248.009574 128.624035 
L 248.207727 131.675041 
L 248.405881 162.325535 
L 248.604034 163.561826 
L 249.000341 144.872111 
L 249.198494 154.492071 
L 249.396648 152.151769 
L 249.594801 154.771257 
L 249.792955 158.925653 
L 250.189261 137.37712 
L 250.585568 154.605045 
L 250.783722 148.61571 
L 250.981875 135.163622 
L 251.180028 156.719348 
L 251.576335 137.70675 
L 251.972642 158.542087 
L 252.170795 162.415501 
L 252.567102 187.693791 
L 252.963409 145.719492 
L 253.161563 147.865861 
L 253.359716 155.968625 
L 253.756023 149.408475 
L 253.954176 150.645839 
L 254.15233 164.344025 
L 254.350483 166.394427 
L 254.548636 150.120565 
L 254.74679 153.582133 
L 254.944943 165.645224 
L 255.143097 168.418521 
L 255.34125 167.638383 
L 255.539403 166.287546 
L 255.737557 157.611373 
L 255.93571 168.077361 
L 256.133864 171.418173 
L 256.53017 181.821053 
L 256.728324 173.310693 
L 256.926477 175.531156 
L 257.322784 159.877155 
L 257.917244 195.501912 
L 258.313551 163.826415 
L 258.511705 164.914874 
L 258.709858 168.789833 
L 258.908011 164.450651 
L 259.106165 168.149255 
L 259.304318 167.764493 
L 259.502472 168.329156 
L 259.700625 168.159318 
L 259.898778 181.238966 
L 260.096932 178.852944 
L 260.295085 180.942252 
L 260.493239 180.627289 
L 260.889545 177.142893 
L 261.087699 177.161758 
L 261.484006 155.968021 
L 261.682159 164.8847 
L 261.880313 167.399144 
L 262.078466 165.026771 
L 262.276619 160.196561 
L 262.474773 160.173289 
L 262.672926 167.227203 
L 262.87108 183.941782 
L 263.069233 177.134473 
L 263.267386 188.608816 
L 263.46554 191.678034 
L 263.663693 201.52892 
L 263.861847 200.148698 
L 264.06 187.190516 
L 264.258153 193.966584 
L 264.65446 196.430944 
L 264.852614 197.064844 
L 265.050767 193.882196 
L 265.24892 201.862141 
L 265.447074 195.751367 
L 265.645227 193.313888 
L 265.843381 188.664713 
L 266.041534 200.951939 
L 266.239688 206.158252 
L 266.437841 215.100589 
L 266.635994 205.703064 
L 267.032301 201.853322 
L 267.230455 207.477743 
L 267.428608 221.019003 
L 267.626761 214.152432 
L 267.824915 212.750113 
L 268.023068 203.61162 
L 268.221222 201.380302 
L 268.419375 210.536622 
L 268.617528 211.421282 
L 268.815682 213.102053 
L 269.013835 227.837149 
L 269.211989 234.174831 
L 269.410142 234.16557 
L 269.806449 241.627625 
L 270.202756 238.363173 
L 270.599063 259.59622 
L 270.995369 240.914538 
L 271.193523 250.114867 
L 271.391676 253.517072 
L 271.58983 254.595957 
L 271.787983 246.774641 
L 271.986136 244.87978 
L 272.18429 244.236686 
L 272.382443 244.881026 
L 272.580597 248.100781 
L 272.77875 247.806464 
L 272.976903 240.495041 
L 273.769517 274.027403 
L 274.363977 262.218192 
L 274.562131 263.139034 
L 274.760284 249.249915 
L 275.156591 255.92068 
L 275.354744 279.905059 
L 275.552898 277.797749 
L 275.751051 292.109939 
L 275.949205 283.843579 
L 276.147358 281.002186 
L 276.543665 260.510974 
L 276.741818 295.488 
L 276.741818 295.488 
" clip-path="url(#p989b5aa2c0)" style="fill: none; stroke: #ffa500; stroke-width: 1.5; stroke-linecap: square"/>
   </g>
   <g id="patch_3">
    <path d="M 57.6 307.584 
L 57.6 41.472 
" style="fill: none; stroke: #000000; stroke-width: 0.8; stroke-linejoin: miter; stroke-linecap: square"/>
   </g>
   <g id="patch_4">
    <path d="M 414.72 307.584 
L 414.72 41.472 
" style="fill: none; stroke: #000000; stroke-width: 0.8; stroke-linejoin: miter; stroke-linecap: square"/>
   </g>
   <g id="patch_5">
    <path d="M 57.6 307.584 
L 414.72 307.584 
" style="fill: none; stroke: #000000; stroke-width: 0.8; stroke-linejoin: miter; stroke-linecap: square"/>
   </g>
   <g id="patch_6">
    <path d="M 57.6 41.472 
L 414.72 41.472 
" style="fill: none; stroke: #000000; stroke-width: 0.8; stroke-linejoin: miter; stroke-linecap: square"/>
   </g>
   <g id="text_14">
    <!-- Power Spektrum des EEG Signals von Kanal CZ-C4 -->
    <g transform="translate(84.965625 35.472) scale(0.12 -0.12)">
     <defs>
      <path id="DejaVuSans-50" d="M 1259 4147 
L 1259 2394 
L 2053 2394 
Q 2494 2394 2734 2622 
Q 2975 2850 2975 3272 
Q 2975 3691 2734 3919 
Q 2494 4147 2053 4147 
L 1259 4147 
z
M 628 4666 
L 2053 4666 
Q 2838 4666 3239 4311 
Q 3641 3956 3641 3272 
Q 3641 2581 3239 2228 
Q 2838 1875 2053 1875 
L 1259 1875 
L 1259 0 
L 628 0 
L 628 4666 
z
" transform="scale(0.015625)"/>
      <path id="DejaVuSans-6f" d="M 1959 3097 
Q 1497 3097 1228 2736 
Q 959 2375 959 1747 
Q 959 1119 1226 758 
Q 1494 397 1959 397 
Q 2419 397 2687 759 
Q 2956 1122 2956 1747 
Q 2956 2369 2687 2733 
Q 2419 3097 1959 3097 
z
M 1959 3584 
Q 2709 3584 3137 3096 
Q 3566 2609 3566 1747 
Q 3566 888 3137 398 
Q 2709 -91 1959 -91 
Q 1206 -91 779 398 
Q 353 888 353 1747 
Q 353 2609 779 3096 
Q 1206 3584 1959 3584 
z
" transform="scale(0.015625)"/>
      <path id="DejaVuSans-77" d="M 269 3500 
L 844 3500 
L 1563 769 
L 2278 3500 
L 2956 3500 
L 3675 769 
L 4391 3500 
L 4966 3500 
L 4050 0 
L 3372 0 
L 2619 2869 
L 1863 0 
L 1184 0 
L 269 3500 
z
" transform="scale(0.015625)"/>
      <path id="DejaVuSans-53" d="M 3425 4513 
L 3425 3897 
Q 3066 4069 2747 4153 
Q 2428 4238 2131 4238 
Q 1616 4238 1336 4038 
Q 1056 3838 1056 3469 
Q 1056 3159 1242 3001 
Q 1428 2844 1947 2747 
L 2328 2669 
Q 3034 2534 3370 2195 
Q 3706 1856 3706 1288 
Q 3706 609 3251 259 
Q 2797 -91 1919 -91 
Q 1588 -91 1214 -16 
Q 841 59 441 206 
L 441 856 
Q 825 641 1194 531 
Q 1563 422 1919 422 
Q 2459 422 2753 634 
Q 3047 847 3047 1241 
Q 3047 1584 2836 1778 
Q 2625 1972 2144 2069 
L 1759 2144 
Q 1053 2284 737 2584 
Q 422 2884 422 3419 
Q 422 4038 858 4394 
Q 1294 4750 2059 4750 
Q 2388 4750 2728 4690 
Q 3069 4631 3425 4513 
z
" transform="scale(0.015625)"/>
      <path id="DejaVuSans-70" d="M 1159 525 
L 1159 -1331 
L 581 -1331 
L 581 3500 
L 1159 3500 
L 1159 2969 
Q 1341 3281 1617 3432 
Q 1894 3584 2278 3584 
Q 2916 3584 3314 3078 
Q 3713 2572 3713 1747 
Q 3713 922 3314 415 
Q 2916 -91 2278 -91 
Q 1894 -91 1617 61 
Q 1341 213 1159 525 
z
M 3116 1747 
Q 3116 2381 2855 2742 
Q 2594 3103 2138 3103 
Q 1681 3103 1420 2742 
Q 1159 2381 1159 1747 
Q 1159 1113 1420 752 
Q 1681 391 2138 391 
Q 2594 391 2855 752 
Q 3116 1113 3116 1747 
z
" transform="scale(0.015625)"/>
      <path id="DejaVuSans-6b" d="M 581 4863 
L 1159 4863 
L 1159 1991 
L 2875 3500 
L 3609 3500 
L 1753 1863 
L 3688 0 
L 2938 0 
L 1159 1709 
L 1159 0 
L 581 0 
L 581 4863 
z
" transform="scale(0.015625)"/>
      <path id="DejaVuSans-6d" d="M 3328 2828 
Q 3544 3216 3844 3400 
Q 4144 3584 4550 3584 
Q 5097 3584 5394 3201 
Q 5691 2819 5691 2113 
L 5691 0 
L 5113 0 
L 5113 2094 
Q 5113 2597 4934 2840 
Q 4756 3084 4391 3084 
Q 3944 3084 3684 2787 
Q 3425 2491 3425 1978 
L 3425 0 
L 2847 0 
L 2847 2094 
Q 2847 2600 2669 2842 
Q 2491 3084 2119 3084 
Q 1678 3084 1418 2786 
Q 1159 2488 1159 1978 
L 1159 0 
L 581 0 
L 581 3500 
L 1159 3500 
L 1159 2956 
Q 1356 3278 1631 3431 
Q 1906 3584 2284 3584 
Q 2666 3584 2933 3390 
Q 3200 3197 3328 2828 
z
" transform="scale(0.015625)"/>
      <path id="DejaVuSans-64" d="M 2906 2969 
L 2906 4863 
L 3481 4863 
L 3481 0 
L 2906 0 
L 2906 525 
Q 2725 213 2448 61 
Q 2172 -91 1784 -91 
Q 1150 -91 751 415 
Q 353 922 353 1747 
Q 353 2572 751 3078 
Q 1150 3584 1784 3584 
Q 2172 3584 2448 3432 
Q 2725 3281 2906 2969 
z
M 947 1747 
Q 947 1113 1208 752 
Q 1469 391 1925 391 
Q 2381 391 2643 752 
Q 2906 1113 2906 1747 
Q 2906 2381 2643 2742 
Q 2381 3103 1925 3103 
Q 1469 3103 1208 2742 
Q 947 2381 947 1747 
z
" transform="scale(0.015625)"/>
      <path id="DejaVuSans-45" d="M 628 4666 
L 3578 4666 
L 3578 4134 
L 1259 4134 
L 1259 2753 
L 3481 2753 
L 3481 2222 
L 1259 2222 
L 1259 531 
L 3634 531 
L 3634 0 
L 628 0 
L 628 4666 
z
" transform="scale(0.015625)"/>
      <path id="DejaVuSans-47" d="M 3809 666 
L 3809 1919 
L 2778 1919 
L 2778 2438 
L 4434 2438 
L 4434 434 
Q 4069 175 3628 42 
Q 3188 -91 2688 -91 
Q 1594 -91 976 548 
Q 359 1188 359 2328 
Q 359 3472 976 4111 
Q 1594 4750 2688 4750 
Q 3144 4750 3555 4637 
Q 3966 4525 4313 4306 
L 4313 3634 
Q 3963 3931 3569 4081 
Q 3175 4231 2741 4231 
Q 1884 4231 1454 3753 
Q 1025 3275 1025 2328 
Q 1025 1384 1454 906 
Q 1884 428 2741 428 
Q 3075 428 3337 486 
Q 3600 544 3809 666 
z
" transform="scale(0.015625)"/>
      <path id="DejaVuSans-61" d="M 2194 1759 
Q 1497 1759 1228 1600 
Q 959 1441 959 1056 
Q 959 750 1161 570 
Q 1363 391 1709 391 
Q 2188 391 2477 730 
Q 2766 1069 2766 1631 
L 2766 1759 
L 2194 1759 
z
M 3341 1997 
L 3341 0 
L 2766 0 
L 2766 531 
Q 2569 213 2275 61 
Q 1981 -91 1556 -91 
Q 1019 -91 701 211 
Q 384 513 384 1019 
Q 384 1609 779 1909 
Q 1175 2209 1959 2209 
L 2766 2209 
L 2766 2266 
Q 2766 2663 2505 2880 
Q 2244 3097 1772 3097 
Q 1472 3097 1187 3025 
Q 903 2953 641 2809 
L 641 3341 
Q 956 3463 1253 3523 
Q 1550 3584 1831 3584 
Q 2591 3584 2966 3190 
Q 3341 2797 3341 1997 
z
" transform="scale(0.015625)"/>
      <path id="DejaVuSans-6c" d="M 603 4863 
L 1178 4863 
L 1178 0 
L 603 0 
L 603 4863 
z
" transform="scale(0.015625)"/>
      <path id="DejaVuSans-76" d="M 191 3500 
L 800 3500 
L 1894 563 
L 2988 3500 
L 3597 3500 
L 2284 0 
L 1503 0 
L 191 3500 
z
" transform="scale(0.015625)"/>
      <path id="DejaVuSans-4b" d="M 628 4666 
L 1259 4666 
L 1259 2694 
L 3353 4666 
L 4166 4666 
L 1850 2491 
L 4331 0 
L 3500 0 
L 1259 2247 
L 1259 0 
L 628 0 
L 628 4666 
z
" transform="scale(0.015625)"/>
      <path id="DejaVuSans-43" d="M 4122 4306 
L 4122 3641 
Q 3803 3938 3442 4084 
Q 3081 4231 2675 4231 
Q 1875 4231 1450 3742 
Q 1025 3253 1025 2328 
Q 1025 1406 1450 917 
Q 1875 428 2675 428 
Q 3081 428 3442 575 
Q 3803 722 4122 1019 
L 4122 359 
Q 3791 134 3420 21 
Q 3050 -91 2638 -91 
Q 1578 -91 968 557 
Q 359 1206 359 2328 
Q 359 3453 968 4101 
Q 1578 4750 2638 4750 
Q 3056 4750 3426 4639 
Q 3797 4528 4122 4306 
z
" transform="scale(0.015625)"/>
      <path id="DejaVuSans-5a" d="M 359 4666 
L 4025 4666 
L 4025 4184 
L 1075 531 
L 4097 531 
L 4097 0 
L 288 0 
L 288 481 
L 3238 4134 
L 359 4134 
L 359 4666 
z
" transform="scale(0.015625)"/>
      <path id="DejaVuSans-2d" d="M 313 2009 
L 1997 2009 
L 1997 1497 
L 313 1497 
L 313 2009 
z
" transform="scale(0.015625)"/>
      <path id="DejaVuSans-34" d="M 2419 4116 
L 825 1625 
L 2419 1625 
L 2419 4116 
z
M 2253 4666 
L 3047 4666 
L 3047 1625 
L 3713 1625 
L 3713 1100 
L 3047 1100 
L 3047 0 
L 2419 0 
L 2419 1100 
L 313 1100 
L 313 1709 
L 2253 4666 
z
" transform="scale(0.015625)"/>
     </defs>
     <use xlink:href="#DejaVuSans-50"/>
     <use xlink:href="#DejaVuSans-6f" transform="translate(56.677734 0)"/>
     <use xlink:href="#DejaVuSans-77" transform="translate(117.859375 0)"/>
     <use xlink:href="#DejaVuSans-65" transform="translate(199.646484 0)"/>
     <use xlink:href="#DejaVuSans-72" transform="translate(261.169922 0)"/>
     <use xlink:href="#DejaVuSans-20" transform="translate(302.283203 0)"/>
     <use xlink:href="#DejaVuSans-53" transform="translate(334.070312 0)"/>
     <use xlink:href="#DejaVuSans-70" transform="translate(397.546875 0)"/>
     <use xlink:href="#DejaVuSans-65" transform="translate(461.023438 0)"/>
     <use xlink:href="#DejaVuSans-6b" transform="translate(522.546875 0)"/>
     <use xlink:href="#DejaVuSans-74" transform="translate(580.457031 0)"/>
     <use xlink:href="#DejaVuSans-72" transform="translate(619.666016 0)"/>
     <use xlink:href="#DejaVuSans-75" transform="translate(660.779297 0)"/>
     <use xlink:href="#DejaVuSans-6d" transform="translate(724.158203 0)"/>
     <use xlink:href="#DejaVuSans-20" transform="translate(821.570312 0)"/>
     <use xlink:href="#DejaVuSans-64" transform="translate(853.357422 0)"/>
     <use xlink:href="#DejaVuSans-65" transform="translate(916.833984 0)"/>
     <use xlink:href="#DejaVuSans-73" transform="translate(978.357422 0)"/>
     <use xlink:href="#DejaVuSans-20" transform="translate(1030.457031 0)"/>
     <use xlink:href="#DejaVuSans-45" transform="translate(1062.244141 0)"/>
     <use xlink:href="#DejaVuSans-45" transform="translate(1125.427734 0)"/>
     <use xlink:href="#DejaVuSans-47" transform="translate(1188.611328 0)"/>
     <use xlink:href="#DejaVuSans-20" transform="translate(1266.101562 0)"/>
     <use xlink:href="#DejaVuSans-53" transform="translate(1297.888672 0)"/>
     <use xlink:href="#DejaVuSans-69" transform="translate(1361.365234 0)"/>
     <use xlink:href="#DejaVuSans-67" transform="translate(1389.148438 0)"/>
     <use xlink:href="#DejaVuSans-6e" transform="translate(1452.625 0)"/>
     <use xlink:href="#DejaVuSans-61" transform="translate(1516.003906 0)"/>
     <use xlink:href="#DejaVuSans-6c" transform="translate(1577.283203 0)"/>
     <use xlink:href="#DejaVuSans-73" transform="translate(1605.066406 0)"/>
     <use xlink:href="#DejaVuSans-20" transform="translate(1657.166016 0)"/>
     <use xlink:href="#DejaVuSans-76" transform="translate(1688.953125 0)"/>
     <use xlink:href="#DejaVuSans-6f" transform="translate(1748.132812 0)"/>
     <use xlink:href="#DejaVuSans-6e" transform="translate(1809.314453 0)"/>
     <use xlink:href="#DejaVuSans-20" transform="translate(1872.693359 0)"/>
     <use xlink:href="#DejaVuSans-4b" transform="translate(1904.480469 0)"/>
     <use xlink:href="#DejaVuSans-61" transform="translate(1968.306641 0)"/>
     <use xlink:href="#DejaVuSans-6e" transform="translate(2029.585938 0)"/>
     <use xlink:href="#DejaVuSans-61" transform="translate(2092.964844 0)"/>
     <use xlink:href="#DejaVuSans-6c" transform="translate(2154.244141 0)"/>
     <use xlink:href="#DejaVuSans-20" transform="translate(2182.027344 0)"/>
     <use xlink:href="#DejaVuSans-43" transform="translate(2213.814453 0)"/>
     <use xlink:href="#DejaVuSans-5a" transform="translate(2283.638672 0)"/>
     <use xlink:href="#DejaVuSans-2d" transform="translate(2350.394531 0)"/>
     <use xlink:href="#DejaVuSans-43" transform="translate(2386.478516 0)"/>
     <use xlink:href="#DejaVuSans-34" transform="translate(2456.302734 0)"/>
    </g>
   </g>
   <g id="legend_1">
    <g id="patch_7">
     <path d="M 266.196563 78.82825 
L 407.72 78.82825 
Q 409.72 78.82825 409.72 76.82825 
L 409.72 48.472 
Q 409.72 46.472 407.72 46.472 
L 266.196563 46.472 
Q 264.196563 46.472 264.196563 48.472 
L 264.196563 76.82825 
Q 264.196563 78.82825 266.196563 78.82825 
z
" style="fill: #ffffff; opacity: 0.8; stroke: #cccccc; stroke-linejoin: miter"/>
    </g>
    <g id="line2d_30">
     <path d="M 268.196563 54.570437 
L 278.196563 54.570437 
L 288.196563 54.570437 
" style="fill: none; stroke: #0000ff; stroke-width: 1.5; stroke-linecap: square"/>
    </g>
    <g id="text_15">
     <!-- Original -->
     <g transform="translate(296.196563 58.070437) scale(0.1 -0.1)">
      <defs>
       <path id="DejaVuSans-4f" d="M 2522 4238 
Q 1834 4238 1429 3725 
Q 1025 3213 1025 2328 
Q 1025 1447 1429 934 
Q 1834 422 2522 422 
Q 3209 422 3611 934 
Q 4013 1447 4013 2328 
Q 4013 3213 3611 3725 
Q 3209 4238 2522 4238 
z
M 2522 4750 
Q 3503 4750 4090 4092 
Q 4678 3434 4678 2328 
Q 4678 1225 4090 567 
Q 3503 -91 2522 -91 
Q 1538 -91 948 565 
Q 359 1222 359 2328 
Q 359 3434 948 4092 
Q 1538 4750 2522 4750 
z
" transform="scale(0.015625)"/>
      </defs>
      <use xlink:href="#DejaVuSans-4f"/>
      <use xlink:href="#DejaVuSans-72" transform="translate(78.710938 0)"/>
      <use xlink:href="#DejaVuSans-69" transform="translate(119.824219 0)"/>
      <use xlink:href="#DejaVuSans-67" transform="translate(147.607422 0)"/>
      <use xlink:href="#DejaVuSans-69" transform="translate(211.083984 0)"/>
      <use xlink:href="#DejaVuSans-6e" transform="translate(238.867188 0)"/>
      <use xlink:href="#DejaVuSans-61" transform="translate(302.246094 0)"/>
      <use xlink:href="#DejaVuSans-6c" transform="translate(363.525391 0)"/>
     </g>
    </g>
    <g id="line2d_31">
     <path d="M 268.196563 69.248562 
L 278.196563 69.248562 
L 288.196563 69.248562 
" style="fill: none; stroke: #ffa500; stroke-width: 1.5; stroke-linecap: square"/>
    </g>
    <g id="text_16">
     <!-- After resampling/filter -->
     <g transform="translate(296.196563 72.748562) scale(0.1 -0.1)">
      <defs>
       <path id="DejaVuSans-41" d="M 2188 4044 
L 1331 1722 
L 3047 1722 
L 2188 4044 
z
M 1831 4666 
L 2547 4666 
L 4325 0 
L 3669 0 
L 3244 1197 
L 1141 1197 
L 716 0 
L 50 0 
L 1831 4666 
z
" transform="scale(0.015625)"/>
       <path id="DejaVuSans-66" d="M 2375 4863 
L 2375 4384 
L 1825 4384 
Q 1516 4384 1395 4259 
Q 1275 4134 1275 3809 
L 1275 3500 
L 2222 3500 
L 2222 3053 
L 1275 3053 
L 1275 0 
L 697 0 
L 697 3053 
L 147 3053 
L 147 3500 
L 697 3500 
L 697 3744 
Q 697 4328 969 4595 
Q 1241 4863 1831 4863 
L 2375 4863 
z
" transform="scale(0.015625)"/>
      </defs>
      <use xlink:href="#DejaVuSans-41"/>
      <use xlink:href="#DejaVuSans-66" transform="translate(64.783203 0)"/>
      <use xlink:href="#DejaVuSans-74" transform="translate(98.238281 0)"/>
      <use xlink:href="#DejaVuSans-65" transform="translate(137.447266 0)"/>
      <use xlink:href="#DejaVuSans-72" transform="translate(198.970703 0)"/>
      <use xlink:href="#DejaVuSans-20" transform="translate(240.083984 0)"/>
      <use xlink:href="#DejaVuSans-72" transform="translate(271.871094 0)"/>
      <use xlink:href="#DejaVuSans-65" transform="translate(310.734375 0)"/>
      <use xlink:href="#DejaVuSans-73" transform="translate(372.257812 0)"/>
      <use xlink:href="#DejaVuSans-61" transform="translate(424.357422 0)"/>
      <use xlink:href="#DejaVuSans-6d" transform="translate(485.636719 0)"/>
      <use xlink:href="#DejaVuSans-70" transform="translate(583.048828 0)"/>
      <use xlink:href="#DejaVuSans-6c" transform="translate(646.525391 0)"/>
      <use xlink:href="#DejaVuSans-69" transform="translate(674.308594 0)"/>
      <use xlink:href="#DejaVuSans-6e" transform="translate(702.091797 0)"/>
      <use xlink:href="#DejaVuSans-67" transform="translate(765.470703 0)"/>
      <use xlink:href="#DejaVuSans-2f" transform="translate(828.947266 0)"/>
      <use xlink:href="#DejaVuSans-66" transform="translate(862.638672 0)"/>
      <use xlink:href="#DejaVuSans-69" transform="translate(897.84375 0)"/>
      <use xlink:href="#DejaVuSans-6c" transform="translate(925.626953 0)"/>
      <use xlink:href="#DejaVuSans-74" transform="translate(953.410156 0)"/>
      <use xlink:href="#DejaVuSans-65" transform="translate(992.619141 0)"/>
      <use xlink:href="#DejaVuSans-72" transform="translate(1054.142578 0)"/>
     </g>
    </g>
   </g>
  </g>
 </g>
 <defs>
  <clipPath id="p989b5aa2c0">
   <rect x="57.6" y="41.472" width="357.12" height="266.112"/>
  </clipPath>
 </defs>
</svg>
