<?xml version="1.0" encoding="utf-8" standalone="no"?>
<!DOCTYPE svg PUBLIC "-//W3C//DTD SVG 1.1//EN"
  "http://www.w3.org/Graphics/SVG/1.1/DTD/svg11.dtd">
<svg xmlns:xlink="http://www.w3.org/1999/xlink" width="460.8pt" height="345.6pt" viewBox="0 0 460.8 345.6" xmlns="http://www.w3.org/2000/svg" version="1.1">
 <metadata>
  <rdf:RDF xmlns:dc="http://purl.org/dc/elements/1.1/" xmlns:cc="http://creativecommons.org/ns#" xmlns:rdf="http://www.w3.org/1999/02/22-rdf-syntax-ns#">
   <cc:Work>
    <dc:type rdf:resource="http://purl.org/dc/dcmitype/StillImage"/>
    <dc:date>2025-10-31T11:53:15.638529</dc:date>
    <dc:format>image/svg+xml</dc:format>
    <dc:creator>
     <cc:Agent>
      <dc:title>Matplotlib v3.10.7, https://matplotlib.org/</dc:title>
     </cc:Agent>
    </dc:creator>
   </cc:Work>
  </rdf:RDF>
 </metadata>
 <defs>
  <style type="text/css">*{stroke-linejoin: round; stroke-linecap: butt}</style>
 </defs>
 <g id="figure_1">
  <g id="patch_1">
   <path d="M 0 345.6 
L 460.8 345.6 
L 460.8 0 
L 0 0 
z
" style="fill: #ffffff"/>
  </g>
  <g id="axes_1">
   <g id="patch_2">
    <path d="M 57.6 307.584 
L 414.72 307.584 
L 414.72 41.472 
L 57.6 41.472 
z
" style="fill: #ffffff"/>
   </g>
   <g id="matplotlib.axis_1">
    <g id="xtick_1">
     <g id="line2d_1">
      <defs>
       <path id="m40ccd62ca9" d="M 0 0 
L 0 3.5 
" style="stroke: #000000; stroke-width: 0.8"/>
      </defs>
      <g>
       <use xlink:href="#m40ccd62ca9" x="73.832727" y="307.584" style="stroke: #000000; stroke-width: 0.8"/>
      </g>
     </g>
     <g id="text_1">
      <!-- 0 -->
      <g transform="translate(70.651477 322.182437) scale(0.1 -0.1)">
       <defs>
        <path id="DejaVuSans-30" d="M 2034 4250 
Q 1547 4250 1301 3770 
Q 1056 3291 1056 2328 
Q 1056 1369 1301 889 
Q 1547 409 2034 409 
Q 2525 409 2770 889 
Q 3016 1369 3016 2328 
Q 3016 3291 2770 3770 
Q 2525 4250 2034 4250 
z
M 2034 4750 
Q 2819 4750 3233 4129 
Q 3647 3509 3647 2328 
Q 3647 1150 3233 529 
Q 2819 -91 2034 -91 
Q 1250 -91 836 529 
Q 422 1150 422 2328 
Q 422 3509 836 4129 
Q 1250 4750 2034 4750 
z
" transform="scale(0.015625)"/>
       </defs>
       <use xlink:href="#DejaVuSans-30"/>
      </g>
     </g>
    </g>
    <g id="xtick_2">
     <g id="line2d_2">
      <g>
       <use xlink:href="#m40ccd62ca9" x="125.777455" y="307.584" style="stroke: #000000; stroke-width: 0.8"/>
      </g>
     </g>
     <g id="text_2">
      <!-- 20 -->
      <g transform="translate(119.414955 322.182437) scale(0.1 -0.1)">
       <defs>
        <path id="DejaVuSans-32" d="M 1228 531 
L 3431 531 
L 3431 0 
L 469 0 
L 469 531 
Q 828 903 1448 1529 
Q 2069 2156 2228 2338 
Q 2531 2678 2651 2914 
Q 2772 3150 2772 3378 
Q 2772 3750 2511 3984 
Q 2250 4219 1831 4219 
Q 1534 4219 1204 4116 
Q 875 4013 500 3803 
L 500 4441 
Q 881 4594 1212 4672 
Q 1544 4750 1819 4750 
Q 2544 4750 2975 4387 
Q 3406 4025 3406 3419 
Q 3406 3131 3298 2873 
Q 3191 2616 2906 2266 
Q 2828 2175 2409 1742 
Q 1991 1309 1228 531 
z
" transform="scale(0.015625)"/>
       </defs>
       <use xlink:href="#DejaVuSans-32"/>
       <use xlink:href="#DejaVuSans-30" transform="translate(63.623047 0)"/>
      </g>
     </g>
    </g>
    <g id="xtick_3">
     <g id="line2d_3">
      <g>
       <use xlink:href="#m40ccd62ca9" x="177.722182" y="307.584" style="stroke: #000000; stroke-width: 0.8"/>
      </g>
     </g>
     <g id="text_3">
      <!-- 40 -->
      <g transform="translate(171.359682 322.182437) scale(0.1 -0.1)">
       <defs>
        <path id="DejaVuSans-34" d="M 2419 4116 
L 825 1625 
L 2419 1625 
L 2419 4116 
z
M 2253 4666 
L 3047 4666 
L 3047 1625 
L 3713 1625 
L 3713 1100 
L 3047 1100 
L 3047 0 
L 2419 0 
L 2419 1100 
L 313 1100 
L 313 1709 
L 2253 4666 
z
" transform="scale(0.015625)"/>
       </defs>
       <use xlink:href="#DejaVuSans-34"/>
       <use xlink:href="#DejaVuSans-30" transform="translate(63.623047 0)"/>
      </g>
     </g>
    </g>
    <g id="xtick_4">
     <g id="line2d_4">
      <g>
       <use xlink:href="#m40ccd62ca9" x="229.666909" y="307.584" style="stroke: #000000; stroke-width: 0.8"/>
      </g>
     </g>
     <g id="text_4">
      <!-- 60 -->
      <g transform="translate(223.304409 322.182437) scale(0.1 -0.1)">
       <defs>
        <path id="DejaVuSans-36" d="M 2113 2584 
Q 1688 2584 1439 2293 
Q 1191 2003 1191 1497 
Q 1191 994 1439 701 
Q 1688 409 2113 409 
Q 2538 409 2786 701 
Q 3034 994 3034 1497 
Q 3034 2003 2786 2293 
Q 2538 2584 2113 2584 
z
M 3366 4563 
L 3366 3988 
Q 3128 4100 2886 4159 
Q 2644 4219 2406 4219 
Q 1781 4219 1451 3797 
Q 1122 3375 1075 2522 
Q 1259 2794 1537 2939 
Q 1816 3084 2150 3084 
Q 2853 3084 3261 2657 
Q 3669 2231 3669 1497 
Q 3669 778 3244 343 
Q 2819 -91 2113 -91 
Q 1303 -91 875 529 
Q 447 1150 447 2328 
Q 447 3434 972 4092 
Q 1497 4750 2381 4750 
Q 2619 4750 2861 4703 
Q 3103 4656 3366 4563 
z
" transform="scale(0.015625)"/>
       </defs>
       <use xlink:href="#DejaVuSans-36"/>
       <use xlink:href="#DejaVuSans-30" transform="translate(63.623047 0)"/>
      </g>
     </g>
    </g>
    <g id="xtick_5">
     <g id="line2d_5">
      <g>
       <use xlink:href="#m40ccd62ca9" x="281.611636" y="307.584" style="stroke: #000000; stroke-width: 0.8"/>
      </g>
     </g>
     <g id="text_5">
      <!-- 80 -->
      <g transform="translate(275.249136 322.182437) scale(0.1 -0.1)">
       <defs>
        <path id="DejaVuSans-38" d="M 2034 2216 
Q 1584 2216 1326 1975 
Q 1069 1734 1069 1313 
Q 1069 891 1326 650 
Q 1584 409 2034 409 
Q 2484 409 2743 651 
Q 3003 894 3003 1313 
Q 3003 1734 2745 1975 
Q 2488 2216 2034 2216 
z
M 1403 2484 
Q 997 2584 770 2862 
Q 544 3141 544 3541 
Q 544 4100 942 4425 
Q 1341 4750 2034 4750 
Q 2731 4750 3128 4425 
Q 3525 4100 3525 3541 
Q 3525 3141 3298 2862 
Q 3072 2584 2669 2484 
Q 3125 2378 3379 2068 
Q 3634 1759 3634 1313 
Q 3634 634 3220 271 
Q 2806 -91 2034 -91 
Q 1263 -91 848 271 
Q 434 634 434 1313 
Q 434 1759 690 2068 
Q 947 2378 1403 2484 
z
M 1172 3481 
Q 1172 3119 1398 2916 
Q 1625 2713 2034 2713 
Q 2441 2713 2670 2916 
Q 2900 3119 2900 3481 
Q 2900 3844 2670 4047 
Q 2441 4250 2034 4250 
Q 1625 4250 1398 4047 
Q 1172 3844 1172 3481 
z
" transform="scale(0.015625)"/>
       </defs>
       <use xlink:href="#DejaVuSans-38"/>
       <use xlink:href="#DejaVuSans-30" transform="translate(63.623047 0)"/>
      </g>
     </g>
    </g>
    <g id="xtick_6">
     <g id="line2d_6">
      <g>
       <use xlink:href="#m40ccd62ca9" x="333.556364" y="307.584" style="stroke: #000000; stroke-width: 0.8"/>
      </g>
     </g>
     <g id="text_6">
      <!-- 100 -->
      <g transform="translate(324.012614 322.182437) scale(0.1 -0.1)">
       <defs>
        <path id="DejaVuSans-31" d="M 794 531 
L 1825 531 
L 1825 4091 
L 703 3866 
L 703 4441 
L 1819 4666 
L 2450 4666 
L 2450 531 
L 3481 531 
L 3481 0 
L 794 0 
L 794 531 
z
" transform="scale(0.015625)"/>
       </defs>
       <use xlink:href="#DejaVuSans-31"/>
       <use xlink:href="#DejaVuSans-30" transform="translate(63.623047 0)"/>
       <use xlink:href="#DejaVuSans-30" transform="translate(127.246094 0)"/>
      </g>
     </g>
    </g>
    <g id="xtick_7">
     <g id="line2d_7">
      <g>
       <use xlink:href="#m40ccd62ca9" x="385.501091" y="307.584" style="stroke: #000000; stroke-width: 0.8"/>
      </g>
     </g>
     <g id="text_7">
      <!-- 120 -->
      <g transform="translate(375.957341 322.182437) scale(0.1 -0.1)">
       <use xlink:href="#DejaVuSans-31"/>
       <use xlink:href="#DejaVuSans-32" transform="translate(63.623047 0)"/>
       <use xlink:href="#DejaVuSans-30" transform="translate(127.246094 0)"/>
      </g>
     </g>
    </g>
    <g id="text_8">
     <!-- Frequenz in Hz -->
     <g transform="translate(199.294375 335.860562) scale(0.1 -0.1)">
      <defs>
       <path id="DejaVuSans-46" d="M 628 4666 
L 3309 4666 
L 3309 4134 
L 1259 4134 
L 1259 2759 
L 3109 2759 
L 3109 2228 
L 1259 2228 
L 1259 0 
L 628 0 
L 628 4666 
z
" transform="scale(0.015625)"/>
       <path id="DejaVuSans-72" d="M 2631 2963 
Q 2534 3019 2420 3045 
Q 2306 3072 2169 3072 
Q 1681 3072 1420 2755 
Q 1159 2438 1159 1844 
L 1159 0 
L 581 0 
L 581 3500 
L 1159 3500 
L 1159 2956 
Q 1341 3275 1631 3429 
Q 1922 3584 2338 3584 
Q 2397 3584 2469 3576 
Q 2541 3569 2628 3553 
L 2631 2963 
z
" transform="scale(0.015625)"/>
       <path id="DejaVuSans-65" d="M 3597 1894 
L 3597 1613 
L 953 1613 
Q 991 1019 1311 708 
Q 1631 397 2203 397 
Q 2534 397 2845 478 
Q 3156 559 3463 722 
L 3463 178 
Q 3153 47 2828 -22 
Q 2503 -91 2169 -91 
Q 1331 -91 842 396 
Q 353 884 353 1716 
Q 353 2575 817 3079 
Q 1281 3584 2069 3584 
Q 2775 3584 3186 3129 
Q 3597 2675 3597 1894 
z
M 3022 2063 
Q 3016 2534 2758 2815 
Q 2500 3097 2075 3097 
Q 1594 3097 1305 2825 
Q 1016 2553 972 2059 
L 3022 2063 
z
" transform="scale(0.015625)"/>
       <path id="DejaVuSans-71" d="M 947 1747 
Q 947 1113 1208 752 
Q 1469 391 1925 391 
Q 2381 391 2643 752 
Q 2906 1113 2906 1747 
Q 2906 2381 2643 2742 
Q 2381 3103 1925 3103 
Q 1469 3103 1208 2742 
Q 947 2381 947 1747 
z
M 2906 525 
Q 2725 213 2448 61 
Q 2172 -91 1784 -91 
Q 1150 -91 751 415 
Q 353 922 353 1747 
Q 353 2572 751 3078 
Q 1150 3584 1784 3584 
Q 2172 3584 2448 3432 
Q 2725 3281 2906 2969 
L 2906 3500 
L 3481 3500 
L 3481 -1331 
L 2906 -1331 
L 2906 525 
z
" transform="scale(0.015625)"/>
       <path id="DejaVuSans-75" d="M 544 1381 
L 544 3500 
L 1119 3500 
L 1119 1403 
Q 1119 906 1312 657 
Q 1506 409 1894 409 
Q 2359 409 2629 706 
Q 2900 1003 2900 1516 
L 2900 3500 
L 3475 3500 
L 3475 0 
L 2900 0 
L 2900 538 
Q 2691 219 2414 64 
Q 2138 -91 1772 -91 
Q 1169 -91 856 284 
Q 544 659 544 1381 
z
M 1991 3584 
L 1991 3584 
z
" transform="scale(0.015625)"/>
       <path id="DejaVuSans-6e" d="M 3513 2113 
L 3513 0 
L 2938 0 
L 2938 2094 
Q 2938 2591 2744 2837 
Q 2550 3084 2163 3084 
Q 1697 3084 1428 2787 
Q 1159 2491 1159 1978 
L 1159 0 
L 581 0 
L 581 3500 
L 1159 3500 
L 1159 2956 
Q 1366 3272 1645 3428 
Q 1925 3584 2291 3584 
Q 2894 3584 3203 3211 
Q 3513 2838 3513 2113 
z
" transform="scale(0.015625)"/>
       <path id="DejaVuSans-7a" d="M 353 3500 
L 3084 3500 
L 3084 2975 
L 922 459 
L 3084 459 
L 3084 0 
L 275 0 
L 275 525 
L 2438 3041 
L 353 3041 
L 353 3500 
z
" transform="scale(0.015625)"/>
       <path id="DejaVuSans-20" transform="scale(0.015625)"/>
       <path id="DejaVuSans-69" d="M 603 3500 
L 1178 3500 
L 1178 0 
L 603 0 
L 603 3500 
z
M 603 4863 
L 1178 4863 
L 1178 4134 
L 603 4134 
L 603 4863 
z
" transform="scale(0.015625)"/>
       <path id="DejaVuSans-48" d="M 628 4666 
L 1259 4666 
L 1259 2753 
L 3553 2753 
L 3553 4666 
L 4184 4666 
L 4184 0 
L 3553 0 
L 3553 2222 
L 1259 2222 
L 1259 0 
L 628 0 
L 628 4666 
z
" transform="scale(0.015625)"/>
      </defs>
      <use xlink:href="#DejaVuSans-46"/>
      <use xlink:href="#DejaVuSans-72" transform="translate(50.269531 0)"/>
      <use xlink:href="#DejaVuSans-65" transform="translate(89.132812 0)"/>
      <use xlink:href="#DejaVuSans-71" transform="translate(150.65625 0)"/>
      <use xlink:href="#DejaVuSans-75" transform="translate(214.132812 0)"/>
      <use xlink:href="#DejaVuSans-65" transform="translate(277.511719 0)"/>
      <use xlink:href="#DejaVuSans-6e" transform="translate(339.035156 0)"/>
      <use xlink:href="#DejaVuSans-7a" transform="translate(402.414062 0)"/>
      <use xlink:href="#DejaVuSans-20" transform="translate(454.904297 0)"/>
      <use xlink:href="#DejaVuSans-69" transform="translate(486.691406 0)"/>
      <use xlink:href="#DejaVuSans-6e" transform="translate(514.474609 0)"/>
      <use xlink:href="#DejaVuSans-20" transform="translate(577.853516 0)"/>
      <use xlink:href="#DejaVuSans-48" transform="translate(609.640625 0)"/>
      <use xlink:href="#DejaVuSans-7a" transform="translate(684.835938 0)"/>
     </g>
    </g>
   </g>
   <g id="matplotlib.axis_2">
    <g id="ytick_1">
     <g id="line2d_8">
      <defs>
       <path id="m66e261348a" d="M 0 0 
L -3.5 0 
" style="stroke: #000000; stroke-width: 0.8"/>
      </defs>
      <g>
       <use xlink:href="#m66e261348a" x="57.6" y="307.584" style="stroke: #000000; stroke-width: 0.8"/>
      </g>
     </g>
     <g id="text_9">
      <!-- $\mathdefault{10^{-1}}$ -->
      <g transform="translate(27.1 311.383219) scale(0.1 -0.1)">
       <defs>
        <path id="DejaVuSans-2212" d="M 678 2272 
L 4684 2272 
L 4684 1741 
L 678 1741 
L 678 2272 
z
" transform="scale(0.015625)"/>
       </defs>
       <use xlink:href="#DejaVuSans-31" transform="translate(0 0.684375)"/>
       <use xlink:href="#DejaVuSans-30" transform="translate(63.623047 0.684375)"/>
       <use xlink:href="#DejaVuSans-2212" transform="translate(128.203125 38.965625) scale(0.7)"/>
       <use xlink:href="#DejaVuSans-31" transform="translate(186.855469 38.965625) scale(0.7)"/>
      </g>
     </g>
    </g>
    <g id="ytick_2">
     <g id="line2d_9">
      <g>
       <use xlink:href="#m66e261348a" x="57.6" y="241.056" style="stroke: #000000; stroke-width: 0.8"/>
      </g>
     </g>
     <g id="text_10">
      <!-- $\mathdefault{10^{0}}$ -->
      <g transform="translate(33 244.855219) scale(0.1 -0.1)">
       <use xlink:href="#DejaVuSans-31" transform="translate(0 0.765625)"/>
       <use xlink:href="#DejaVuSans-30" transform="translate(63.623047 0.765625)"/>
       <use xlink:href="#DejaVuSans-30" transform="translate(128.203125 39.046875) scale(0.7)"/>
      </g>
     </g>
    </g>
    <g id="ytick_3">
     <g id="line2d_10">
      <g>
       <use xlink:href="#m66e261348a" x="57.6" y="174.528" style="stroke: #000000; stroke-width: 0.8"/>
      </g>
     </g>
     <g id="text_11">
      <!-- $\mathdefault{10^{1}}$ -->
      <g transform="translate(33 178.327219) scale(0.1 -0.1)">
       <use xlink:href="#DejaVuSans-31" transform="translate(0 0.684375)"/>
       <use xlink:href="#DejaVuSans-30" transform="translate(63.623047 0.684375)"/>
       <use xlink:href="#DejaVuSans-31" transform="translate(128.203125 38.965625) scale(0.7)"/>
      </g>
     </g>
    </g>
    <g id="ytick_4">
     <g id="line2d_11">
      <g>
       <use xlink:href="#m66e261348a" x="57.6" y="108" style="stroke: #000000; stroke-width: 0.8"/>
      </g>
     </g>
     <g id="text_12">
      <!-- $\mathdefault{10^{2}}$ -->
      <g transform="translate(33 111.799219) scale(0.1 -0.1)">
       <use xlink:href="#DejaVuSans-31" transform="translate(0 0.765625)"/>
       <use xlink:href="#DejaVuSans-30" transform="translate(63.623047 0.765625)"/>
       <use xlink:href="#DejaVuSans-32" transform="translate(128.203125 39.046875) scale(0.7)"/>
      </g>
     </g>
    </g>
    <g id="ytick_5">
     <g id="line2d_12">
      <g>
       <use xlink:href="#m66e261348a" x="57.6" y="41.472" style="stroke: #000000; stroke-width: 0.8"/>
      </g>
     </g>
     <g id="text_13">
      <!-- $\mathdefault{10^{3}}$ -->
      <g transform="translate(33 45.271219) scale(0.1 -0.1)">
       <defs>
        <path id="DejaVuSans-33" d="M 2597 2516 
Q 3050 2419 3304 2112 
Q 3559 1806 3559 1356 
Q 3559 666 3084 287 
Q 2609 -91 1734 -91 
Q 1441 -91 1130 -33 
Q 819 25 488 141 
L 488 750 
Q 750 597 1062 519 
Q 1375 441 1716 441 
Q 2309 441 2620 675 
Q 2931 909 2931 1356 
Q 2931 1769 2642 2001 
Q 2353 2234 1838 2234 
L 1294 2234 
L 1294 2753 
L 1863 2753 
Q 2328 2753 2575 2939 
Q 2822 3125 2822 3475 
Q 2822 3834 2567 4026 
Q 2313 4219 1838 4219 
Q 1578 4219 1281 4162 
Q 984 4106 628 3988 
L 628 4550 
Q 988 4650 1302 4700 
Q 1616 4750 1894 4750 
Q 2613 4750 3031 4423 
Q 3450 4097 3450 3541 
Q 3450 3153 3228 2886 
Q 3006 2619 2597 2516 
z
" transform="scale(0.015625)"/>
       </defs>
       <use xlink:href="#DejaVuSans-31" transform="translate(0 0.765625)"/>
       <use xlink:href="#DejaVuSans-30" transform="translate(63.623047 0.765625)"/>
       <use xlink:href="#DejaVuSans-33" transform="translate(128.203125 39.046875) scale(0.7)"/>
      </g>
     </g>
    </g>
    <g id="ytick_6">
     <g id="line2d_13">
      <defs>
       <path id="m53b2b316c3" d="M 0 0 
L -2 0 
" style="stroke: #000000; stroke-width: 0.6"/>
      </defs>
      <g>
       <use xlink:href="#m53b2b316c3" x="57.6" y="287.557076" style="stroke: #000000; stroke-width: 0.6"/>
      </g>
     </g>
    </g>
    <g id="ytick_7">
     <g id="line2d_14">
      <g>
       <use xlink:href="#m53b2b316c3" x="57.6" y="275.842077" style="stroke: #000000; stroke-width: 0.6"/>
      </g>
     </g>
    </g>
    <g id="ytick_8">
     <g id="line2d_15">
      <g>
       <use xlink:href="#m53b2b316c3" x="57.6" y="267.530153" style="stroke: #000000; stroke-width: 0.6"/>
      </g>
     </g>
    </g>
    <g id="ytick_9">
     <g id="line2d_16">
      <g>
       <use xlink:href="#m53b2b316c3" x="57.6" y="261.082924" style="stroke: #000000; stroke-width: 0.6"/>
      </g>
     </g>
    </g>
    <g id="ytick_10">
     <g id="line2d_17">
      <g>
       <use xlink:href="#m53b2b316c3" x="57.6" y="255.815154" style="stroke: #000000; stroke-width: 0.6"/>
      </g>
     </g>
    </g>
    <g id="ytick_11">
     <g id="line2d_18">
      <g>
       <use xlink:href="#m53b2b316c3" x="57.6" y="251.361318" style="stroke: #000000; stroke-width: 0.6"/>
      </g>
     </g>
    </g>
    <g id="ytick_12">
     <g id="line2d_19">
      <g>
       <use xlink:href="#m53b2b316c3" x="57.6" y="247.503229" style="stroke: #000000; stroke-width: 0.6"/>
      </g>
     </g>
    </g>
    <g id="ytick_13">
     <g id="line2d_20">
      <g>
       <use xlink:href="#m53b2b316c3" x="57.6" y="244.100154" style="stroke: #000000; stroke-width: 0.6"/>
      </g>
     </g>
    </g>
    <g id="ytick_14">
     <g id="line2d_21">
      <g>
       <use xlink:href="#m53b2b316c3" x="57.6" y="221.029076" style="stroke: #000000; stroke-width: 0.6"/>
      </g>
     </g>
    </g>
    <g id="ytick_15">
     <g id="line2d_22">
      <g>
       <use xlink:href="#m53b2b316c3" x="57.6" y="209.314077" style="stroke: #000000; stroke-width: 0.6"/>
      </g>
     </g>
    </g>
    <g id="ytick_16">
     <g id="line2d_23">
      <g>
       <use xlink:href="#m53b2b316c3" x="57.6" y="201.002153" style="stroke: #000000; stroke-width: 0.6"/>
      </g>
     </g>
    </g>
    <g id="ytick_17">
     <g id="line2d_24">
      <g>
       <use xlink:href="#m53b2b316c3" x="57.6" y="194.554924" style="stroke: #000000; stroke-width: 0.6"/>
      </g>
     </g>
    </g>
    <g id="ytick_18">
     <g id="line2d_25">
      <g>
       <use xlink:href="#m53b2b316c3" x="57.6" y="189.287154" style="stroke: #000000; stroke-width: 0.6"/>
      </g>
     </g>
    </g>
    <g id="ytick_19">
     <g id="line2d_26">
      <g>
       <use xlink:href="#m53b2b316c3" x="57.6" y="184.833318" style="stroke: #000000; stroke-width: 0.6"/>
      </g>
     </g>
    </g>
    <g id="ytick_20">
     <g id="line2d_27">
      <g>
       <use xlink:href="#m53b2b316c3" x="57.6" y="180.975229" style="stroke: #000000; stroke-width: 0.6"/>
      </g>
     </g>
    </g>
    <g id="ytick_21">
     <g id="line2d_28">
      <g>
       <use xlink:href="#m53b2b316c3" x="57.6" y="177.572154" style="stroke: #000000; stroke-width: 0.6"/>
      </g>
     </g>
    </g>
    <g id="ytick_22">
     <g id="line2d_29">
      <g>
       <use xlink:href="#m53b2b316c3" x="57.6" y="154.501076" style="stroke: #000000; stroke-width: 0.6"/>
      </g>
     </g>
    </g>
    <g id="ytick_23">
     <g id="line2d_30">
      <g>
       <use xlink:href="#m53b2b316c3" x="57.6" y="142.786077" style="stroke: #000000; stroke-width: 0.6"/>
      </g>
     </g>
    </g>
    <g id="ytick_24">
     <g id="line2d_31">
      <g>
       <use xlink:href="#m53b2b316c3" x="57.6" y="134.474153" style="stroke: #000000; stroke-width: 0.6"/>
      </g>
     </g>
    </g>
    <g id="ytick_25">
     <g id="line2d_32">
      <g>
       <use xlink:href="#m53b2b316c3" x="57.6" y="128.026924" style="stroke: #000000; stroke-width: 0.6"/>
      </g>
     </g>
    </g>
    <g id="ytick_26">
     <g id="line2d_33">
      <g>
       <use xlink:href="#m53b2b316c3" x="57.6" y="122.759154" style="stroke: #000000; stroke-width: 0.6"/>
      </g>
     </g>
    </g>
    <g id="ytick_27">
     <g id="line2d_34">
      <g>
       <use xlink:href="#m53b2b316c3" x="57.6" y="118.305318" style="stroke: #000000; stroke-width: 0.6"/>
      </g>
     </g>
    </g>
    <g id="ytick_28">
     <g id="line2d_35">
      <g>
       <use xlink:href="#m53b2b316c3" x="57.6" y="114.447229" style="stroke: #000000; stroke-width: 0.6"/>
      </g>
     </g>
    </g>
    <g id="ytick_29">
     <g id="line2d_36">
      <g>
       <use xlink:href="#m53b2b316c3" x="57.6" y="111.044154" style="stroke: #000000; stroke-width: 0.6"/>
      </g>
     </g>
    </g>
    <g id="ytick_30">
     <g id="line2d_37">
      <g>
       <use xlink:href="#m53b2b316c3" x="57.6" y="87.973076" style="stroke: #000000; stroke-width: 0.6"/>
      </g>
     </g>
    </g>
    <g id="ytick_31">
     <g id="line2d_38">
      <g>
       <use xlink:href="#m53b2b316c3" x="57.6" y="76.258077" style="stroke: #000000; stroke-width: 0.6"/>
      </g>
     </g>
    </g>
    <g id="ytick_32">
     <g id="line2d_39">
      <g>
       <use xlink:href="#m53b2b316c3" x="57.6" y="67.946153" style="stroke: #000000; stroke-width: 0.6"/>
      </g>
     </g>
    </g>
    <g id="ytick_33">
     <g id="line2d_40">
      <g>
       <use xlink:href="#m53b2b316c3" x="57.6" y="61.498924" style="stroke: #000000; stroke-width: 0.6"/>
      </g>
     </g>
    </g>
    <g id="ytick_34">
     <g id="line2d_41">
      <g>
       <use xlink:href="#m53b2b316c3" x="57.6" y="56.231154" style="stroke: #000000; stroke-width: 0.6"/>
      </g>
     </g>
    </g>
    <g id="ytick_35">
     <g id="line2d_42">
      <g>
       <use xlink:href="#m53b2b316c3" x="57.6" y="51.777318" style="stroke: #000000; stroke-width: 0.6"/>
      </g>
     </g>
    </g>
    <g id="ytick_36">
     <g id="line2d_43">
      <g>
       <use xlink:href="#m53b2b316c3" x="57.6" y="47.919229" style="stroke: #000000; stroke-width: 0.6"/>
      </g>
     </g>
    </g>
    <g id="ytick_37">
     <g id="line2d_44">
      <g>
       <use xlink:href="#m53b2b316c3" x="57.6" y="44.516154" style="stroke: #000000; stroke-width: 0.6"/>
      </g>
     </g>
    </g>
    <g id="text_14">
     <!-- Leistung/Frequenz (V²/Hz) -->
     <g transform="translate(21.020312 239.182687) rotate(-90) scale(0.1 -0.1)">
      <defs>
       <path id="DejaVuSans-4c" d="M 628 4666 
L 1259 4666 
L 1259 531 
L 3531 531 
L 3531 0 
L 628 0 
L 628 4666 
z
" transform="scale(0.015625)"/>
       <path id="DejaVuSans-73" d="M 2834 3397 
L 2834 2853 
Q 2591 2978 2328 3040 
Q 2066 3103 1784 3103 
Q 1356 3103 1142 2972 
Q 928 2841 928 2578 
Q 928 2378 1081 2264 
Q 1234 2150 1697 2047 
L 1894 2003 
Q 2506 1872 2764 1633 
Q 3022 1394 3022 966 
Q 3022 478 2636 193 
Q 2250 -91 1575 -91 
Q 1294 -91 989 -36 
Q 684 19 347 128 
L 347 722 
Q 666 556 975 473 
Q 1284 391 1588 391 
Q 1994 391 2212 530 
Q 2431 669 2431 922 
Q 2431 1156 2273 1281 
Q 2116 1406 1581 1522 
L 1381 1569 
Q 847 1681 609 1914 
Q 372 2147 372 2553 
Q 372 3047 722 3315 
Q 1072 3584 1716 3584 
Q 2034 3584 2315 3537 
Q 2597 3491 2834 3397 
z
" transform="scale(0.015625)"/>
       <path id="DejaVuSans-74" d="M 1172 4494 
L 1172 3500 
L 2356 3500 
L 2356 3053 
L 1172 3053 
L 1172 1153 
Q 1172 725 1289 603 
Q 1406 481 1766 481 
L 2356 481 
L 2356 0 
L 1766 0 
Q 1100 0 847 248 
Q 594 497 594 1153 
L 594 3053 
L 172 3053 
L 172 3500 
L 594 3500 
L 594 4494 
L 1172 4494 
z
" transform="scale(0.015625)"/>
       <path id="DejaVuSans-67" d="M 2906 1791 
Q 2906 2416 2648 2759 
Q 2391 3103 1925 3103 
Q 1463 3103 1205 2759 
Q 947 2416 947 1791 
Q 947 1169 1205 825 
Q 1463 481 1925 481 
Q 2391 481 2648 825 
Q 2906 1169 2906 1791 
z
M 3481 434 
Q 3481 -459 3084 -895 
Q 2688 -1331 1869 -1331 
Q 1566 -1331 1297 -1286 
Q 1028 -1241 775 -1147 
L 775 -588 
Q 1028 -725 1275 -790 
Q 1522 -856 1778 -856 
Q 2344 -856 2625 -561 
Q 2906 -266 2906 331 
L 2906 616 
Q 2728 306 2450 153 
Q 2172 0 1784 0 
Q 1141 0 747 490 
Q 353 981 353 1791 
Q 353 2603 747 3093 
Q 1141 3584 1784 3584 
Q 2172 3584 2450 3431 
Q 2728 3278 2906 2969 
L 2906 3500 
L 3481 3500 
L 3481 434 
z
" transform="scale(0.015625)"/>
       <path id="DejaVuSans-2f" d="M 1625 4666 
L 2156 4666 
L 531 -594 
L 0 -594 
L 1625 4666 
z
" transform="scale(0.015625)"/>
       <path id="DejaVuSans-28" d="M 1984 4856 
Q 1566 4138 1362 3434 
Q 1159 2731 1159 2009 
Q 1159 1288 1364 580 
Q 1569 -128 1984 -844 
L 1484 -844 
Q 1016 -109 783 600 
Q 550 1309 550 2009 
Q 550 2706 781 3412 
Q 1013 4119 1484 4856 
L 1984 4856 
z
" transform="scale(0.015625)"/>
       <path id="DejaVuSans-56" d="M 1831 0 
L 50 4666 
L 709 4666 
L 2188 738 
L 3669 4666 
L 4325 4666 
L 2547 0 
L 1831 0 
z
" transform="scale(0.015625)"/>
       <path id="DejaVuSans-b2" d="M 838 2444 
L 2163 2444 
L 2163 2088 
L 294 2088 
L 294 2431 
Q 400 2528 597 2703 
Q 1672 3656 1672 3950 
Q 1672 4156 1509 4282 
Q 1347 4409 1081 4409 
Q 919 4409 728 4354 
Q 538 4300 313 4191 
L 313 4575 
Q 553 4663 761 4706 
Q 969 4750 1147 4750 
Q 1600 4750 1872 4544 
Q 2144 4338 2144 4000 
Q 2144 3566 1109 2678 
Q 934 2528 838 2444 
z
" transform="scale(0.015625)"/>
       <path id="DejaVuSans-29" d="M 513 4856 
L 1013 4856 
Q 1481 4119 1714 3412 
Q 1947 2706 1947 2009 
Q 1947 1309 1714 600 
Q 1481 -109 1013 -844 
L 513 -844 
Q 928 -128 1133 580 
Q 1338 1288 1338 2009 
Q 1338 2731 1133 3434 
Q 928 4138 513 4856 
z
" transform="scale(0.015625)"/>
      </defs>
      <use xlink:href="#DejaVuSans-4c"/>
      <use xlink:href="#DejaVuSans-65" transform="translate(53.962891 0)"/>
      <use xlink:href="#DejaVuSans-69" transform="translate(115.486328 0)"/>
      <use xlink:href="#DejaVuSans-73" transform="translate(143.269531 0)"/>
      <use xlink:href="#DejaVuSans-74" transform="translate(195.369141 0)"/>
      <use xlink:href="#DejaVuSans-75" transform="translate(234.578125 0)"/>
      <use xlink:href="#DejaVuSans-6e" transform="translate(297.957031 0)"/>
      <use xlink:href="#DejaVuSans-67" transform="translate(361.335938 0)"/>
      <use xlink:href="#DejaVuSans-2f" transform="translate(424.8125 0)"/>
      <use xlink:href="#DejaVuSans-46" transform="translate(458.503906 0)"/>
      <use xlink:href="#DejaVuSans-72" transform="translate(508.773438 0)"/>
      <use xlink:href="#DejaVuSans-65" transform="translate(547.636719 0)"/>
      <use xlink:href="#DejaVuSans-71" transform="translate(609.160156 0)"/>
      <use xlink:href="#DejaVuSans-75" transform="translate(672.636719 0)"/>
      <use xlink:href="#DejaVuSans-65" transform="translate(736.015625 0)"/>
      <use xlink:href="#DejaVuSans-6e" transform="translate(797.539062 0)"/>
      <use xlink:href="#DejaVuSans-7a" transform="translate(860.917969 0)"/>
      <use xlink:href="#DejaVuSans-20" transform="translate(913.408203 0)"/>
      <use xlink:href="#DejaVuSans-28" transform="translate(945.195312 0)"/>
      <use xlink:href="#DejaVuSans-56" transform="translate(984.208984 0)"/>
      <use xlink:href="#DejaVuSans-b2" transform="translate(1052.617188 0)"/>
      <use xlink:href="#DejaVuSans-2f" transform="translate(1092.705078 0)"/>
      <use xlink:href="#DejaVuSans-48" transform="translate(1126.396484 0)"/>
      <use xlink:href="#DejaVuSans-7a" transform="translate(1201.591797 0)"/>
      <use xlink:href="#DejaVuSans-29" transform="translate(1254.082031 0)"/>
     </g>
    </g>
   </g>
   <g id="line2d_45">
    <path d="M 73.832727 125.452222 
L 74.149773 75.829486 
L 74.783864 97.118567 
L 75.100909 102.286183 
L 76.369091 146.353063 
L 77.320227 178.235369 
L 77.954318 189.313273 
L 78.588409 202.889558 
L 78.905455 202.774607 
L 79.2225 207.451921 
L 79.856591 218.857454 
L 80.490682 227.874855 
L 80.807727 234.617894 
L 81.124773 235.519207 
L 81.441818 234.737744 
L 81.758864 239.624253 
L 82.075909 239.753722 
L 82.392955 242.178386 
L 82.71 248.937292 
L 83.027045 250.59054 
L 83.344091 251.442818 
L 83.661136 254.963885 
L 83.978182 247.737923 
L 84.295227 244.035617 
L 84.612273 260.948999 
L 85.246364 270.256702 
L 85.880455 277.648196 
L 86.1975 276.327672 
L 86.514545 276.910756 
L 86.831591 281.888215 
L 87.148636 282.36486 
L 87.465682 280.165115 
L 88.099773 289.760622 
L 88.733864 287.388059 
L 89.050909 285.29028 
L 89.367955 273.807453 
L 90.002045 293.799266 
L 90.319091 293.834058 
L 90.636136 297.414801 
L 90.953182 298.330268 
L 91.270227 298.785377 
L 91.587273 299.85339 
L 92.221364 299.147616 
L 92.538409 298.039412 
L 92.855455 298.772869 
L 93.1725 298.760953 
L 93.806591 301.180127 
L 94.123636 297.643657 
L 94.440682 277.631006 
L 94.757727 279.383625 
L 95.074773 296.164659 
L 95.391818 301.367907 
L 95.708864 302.225214 
L 96.025909 300.402881 
L 96.342955 301.442372 
L 96.66 299.126421 
L 96.977045 298.381196 
L 97.294091 300.806627 
L 97.611136 299.197882 
L 97.928182 300.005876 
L 98.245227 297.068761 
L 98.562273 296.546928 
L 98.879318 297.728265 
L 99.196364 291.89025 
L 99.513409 263.108994 
L 99.830455 250.966834 
L 100.464545 290.606448 
L 100.781591 292.074564 
L 101.098636 294.162073 
L 101.415682 293.729985 
L 101.732727 292.011807 
L 102.049773 292.749735 
L 102.366818 296.030821 
L 102.683864 294.74145 
L 103.317955 291.45554 
L 103.635 290.898047 
L 103.952045 288.595583 
L 104.269091 287.199309 
L 104.903182 254.052145 
L 105.220227 264.926054 
L 105.537273 279.74255 
L 105.854318 284.06125 
L 106.171364 284.579856 
L 106.488409 285.616406 
L 106.805455 289.70414 
L 107.1225 288.813654 
L 107.439545 284.91262 
L 108.073636 283.233105 
L 108.390682 283.596136 
L 108.707727 285.173615 
L 109.341818 281.136433 
L 109.658864 273.53335 
L 109.975909 257.896924 
L 110.292955 259.435993 
L 110.61 275.484825 
L 111.244091 285.357934 
L 111.561136 287.748074 
L 111.878182 282.607352 
L 112.195227 283.989395 
L 112.512273 287.307479 
L 112.829318 283.477338 
L 113.146364 282.159443 
L 113.463409 287.068634 
L 113.780455 289.998092 
L 114.0975 290.476369 
L 114.414545 288.151479 
L 114.731591 281.182053 
L 115.048636 261.911909 
L 115.365682 254.401042 
L 115.999773 282.385174 
L 116.633864 290.053466 
L 116.950909 287.382653 
L 117.267955 286.259432 
L 117.585 287.256492 
L 118.219091 283.809868 
L 118.536136 287.291268 
L 118.853182 286.979399 
L 119.170227 285.514467 
L 119.487273 284.614419 
L 119.804318 278.432489 
L 120.438409 252.188106 
L 120.755455 261.468428 
L 121.0725 279.098587 
L 121.389545 286.971989 
L 122.023636 290.195041 
L 122.340682 289.736456 
L 122.657727 290.071343 
L 122.974773 285.492972 
L 123.291818 285.357342 
L 123.608864 283.732757 
L 123.925909 285.015607 
L 124.242955 284.307397 
L 124.56 284.300295 
L 125.194091 277.715516 
L 125.511136 263.930202 
L 125.828182 263.157205 
L 126.462273 282.052584 
L 126.779318 287.096441 
L 127.096364 288.274675 
L 127.413409 282.058033 
L 127.730455 281.320705 
L 128.0475 284.856469 
L 128.364545 286.000922 
L 128.681591 281.505223 
L 128.998636 282.451036 
L 129.315682 288.858987 
L 129.632727 288.602812 
L 129.949773 285.704561 
L 130.583864 268.231475 
L 130.900909 268.858686 
L 131.535 279.264799 
L 131.852045 282.395819 
L 132.169091 281.182444 
L 132.486136 281.121677 
L 132.803182 282.300951 
L 133.120227 281.738018 
L 133.437273 283.88843 
L 134.071364 277.946173 
L 134.388409 279.193242 
L 134.705455 279.310021 
L 135.339545 274.959065 
L 135.973636 265.13897 
L 136.290682 266.822513 
L 136.607727 270.816902 
L 136.924773 278.726339 
L 137.241818 280.23008 
L 137.558864 280.324544 
L 137.875909 279.885386 
L 138.192955 278.924545 
L 138.827045 272.843399 
L 139.144091 275.245062 
L 139.461136 279.707194 
L 139.778182 276.439358 
L 140.095227 270.461294 
L 140.412273 274.116382 
L 140.729318 271.552573 
L 141.046364 266.65237 
L 141.363409 266.276354 
L 141.680455 268.465426 
L 141.9975 268.975184 
L 142.314545 272.1541 
L 142.631591 273.443539 
L 142.948636 273.378204 
L 143.265682 266.219349 
L 143.582727 267.135046 
L 143.899773 269.664065 
L 144.216818 275.793226 
L 144.533864 277.005712 
L 145.167955 269.602464 
L 145.485 262.946836 
L 145.802045 262.974348 
L 146.119091 265.810161 
L 146.436136 267.02817 
L 146.753182 269.299042 
L 147.070227 272.930839 
L 147.387273 274.44694 
L 147.704318 272.972862 
L 148.021364 272.745364 
L 148.338409 267.013806 
L 148.655455 264.968967 
L 148.9725 264.580729 
L 149.289545 266.557855 
L 149.606591 265.667428 
L 149.923636 267.61327 
L 150.240682 267.647042 
L 150.557727 267.563719 
L 150.874773 262.731339 
L 151.191818 262.519775 
L 151.508864 265.310174 
L 151.825909 262.31557 
L 152.142955 263.949576 
L 152.46 266.950435 
L 152.777045 267.218144 
L 153.094091 267.862601 
L 153.411136 267.874925 
L 153.728182 266.743689 
L 154.045227 266.130743 
L 154.362273 267.093861 
L 154.679318 264.634622 
L 154.996364 267.559653 
L 155.313409 265.187535 
L 155.630455 264.795048 
L 155.9475 266.001013 
L 156.264545 265.820613 
L 156.581591 263.414453 
L 156.898636 260.007213 
L 157.215682 262.73904 
L 157.532727 264.247494 
L 158.166818 269.145197 
L 159.435 260.946264 
L 159.752045 261.154216 
L 160.069091 257.862098 
L 160.386136 264.065913 
L 160.703182 265.110932 
L 161.020227 264.814076 
L 161.654318 260.628692 
L 161.971364 261.096468 
L 162.288409 262.023772 
L 162.605455 262.375515 
L 162.9225 261.185145 
L 163.873636 267.452697 
L 164.190682 264.824624 
L 164.507727 266.162484 
L 164.824773 266.593249 
L 165.141818 263.616042 
L 165.458864 265.875059 
L 165.775909 265.15311 
L 166.092955 266.114686 
L 166.41 269.020159 
L 166.727045 264.07719 
L 167.044091 266.704544 
L 167.361136 268.009421 
L 167.678182 257.612903 
L 167.995227 257.717132 
L 168.312273 262.691151 
L 168.629318 262.937253 
L 168.946364 261.819864 
L 169.263409 261.912604 
L 169.580455 263.906799 
L 169.8975 261.62856 
L 170.214545 263.7016 
L 170.531591 260.961721 
L 170.848636 261.05552 
L 171.165682 267.504457 
L 172.116818 259.252815 
L 172.433864 257.159425 
L 172.750909 260.569112 
L 173.067955 262.543509 
L 173.385 263.527542 
L 173.702045 259.206683 
L 174.019091 257.93294 
L 174.336136 257.30537 
L 174.653182 257.992484 
L 174.970227 260.678281 
L 175.287273 260.301806 
L 175.604318 254.449571 
L 175.921364 254.682509 
L 176.238409 256.634904 
L 176.555455 259.736114 
L 176.8725 257.79971 
L 177.189545 256.985333 
L 177.506591 251.995195 
L 177.823636 250.202995 
L 178.140682 253.927396 
L 178.457727 261.341276 
L 178.774773 260.361811 
L 179.091818 259.97314 
L 179.408864 256.769315 
L 179.725909 255.335547 
L 180.042955 256.26338 
L 180.36 255.816477 
L 180.677045 256.603204 
L 180.994091 261.824315 
L 181.311136 264.598198 
L 181.628182 257.052413 
L 181.945227 257.582661 
L 182.579318 260.168217 
L 182.896364 259.501071 
L 183.213409 261.025416 
L 183.8475 257.790769 
L 184.164545 260.161215 
L 184.798636 255.00001 
L 185.432727 257.296806 
L 185.749773 256.444432 
L 186.066818 257.159314 
L 186.383864 260.307718 
L 186.700909 259.16151 
L 187.017955 255.576609 
L 187.335 256.063577 
L 187.969091 259.472321 
L 188.286136 256.091943 
L 188.603182 257.794105 
L 188.920227 255.394545 
L 189.237273 255.23001 
L 189.554318 255.791637 
L 189.871364 252.566309 
L 190.188409 253.076906 
L 190.505455 258.047611 
L 190.8225 259.602301 
L 191.139545 258.757769 
L 191.773636 254.033854 
L 192.407727 246.576666 
L 192.724773 251.333154 
L 193.041818 252.417479 
L 193.675909 258.245261 
L 193.992955 256.833665 
L 194.31 258.122903 
L 194.944091 254.955859 
L 195.578182 246.867322 
L 195.895227 253.336669 
L 196.212273 254.622786 
L 196.529318 253.762869 
L 196.846364 254.600623 
L 197.163409 255.75583 
L 197.7975 253.112198 
L 198.431591 260.496932 
L 198.748636 254.555059 
L 199.065682 251.421632 
L 199.382727 253.2292 
L 199.699773 250.813455 
L 200.016818 252.399198 
L 200.333864 257.853339 
L 200.650909 252.724712 
L 200.967955 252.917182 
L 201.602045 256.495538 
L 201.919091 257.588626 
L 202.236136 256.957625 
L 202.553182 258.012469 
L 202.870227 251.71027 
L 203.187273 250.443304 
L 203.504318 250.966751 
L 203.821364 249.708945 
L 204.138409 251.369645 
L 204.455455 251.445977 
L 204.7725 255.48809 
L 205.089545 255.493471 
L 205.406591 254.547852 
L 205.723636 251.607068 
L 206.357727 254.605971 
L 206.674773 253.016291 
L 206.991818 250.694001 
L 207.308864 249.280977 
L 207.625909 254.109778 
L 207.942955 254.329441 
L 208.26 250.692462 
L 208.577045 254.245335 
L 208.894091 254.427203 
L 209.528182 249.25153 
L 209.845227 249.082441 
L 210.162273 251.715619 
L 210.479318 251.214317 
L 210.796364 252.239973 
L 211.113409 252.614059 
L 211.430455 250.378301 
L 211.7475 245.807261 
L 212.381591 254.259815 
L 212.698636 251.467946 
L 213.332727 257.078935 
L 213.649773 255.945114 
L 214.283864 249.057094 
L 214.600909 247.905997 
L 215.552045 255.645891 
L 215.869091 250.449046 
L 216.186136 248.223669 
L 216.820227 256.042537 
L 217.137273 255.591355 
L 217.454318 251.829225 
L 217.771364 251.692396 
L 218.088409 253.510711 
L 218.405455 253.025807 
L 219.039545 247.626741 
L 219.356591 252.168478 
L 219.673636 254.758332 
L 219.990682 254.648356 
L 220.307727 254.024621 
L 220.624773 255.923934 
L 220.941818 256.885016 
L 221.258864 250.280277 
L 221.575909 249.112022 
L 221.892955 246.56052 
L 222.527045 246.727589 
L 222.844091 247.702899 
L 223.478182 252.902171 
L 224.112273 249.810506 
L 224.429318 251.82676 
L 225.063409 257.515327 
L 225.380455 255.679746 
L 225.6975 250.910538 
L 226.014545 250.974799 
L 226.331591 251.281844 
L 226.965682 249.747158 
L 227.599773 240.889685 
L 228.233864 254.676576 
L 229.185 233.839081 
L 229.502045 163.511449 
L 229.819091 156.487607 
L 230.136136 219.698551 
L 230.453182 243.891741 
L 231.087273 250.747193 
L 231.404318 249.227844 
L 231.721364 250.299028 
L 232.038409 247.245679 
L 232.6725 253.230822 
L 233.306591 246.057633 
L 233.623636 249.250737 
L 234.257727 250.333715 
L 234.574773 249.592078 
L 235.208864 245.23506 
L 235.525909 245.302157 
L 235.842955 252.025654 
L 236.16 249.537224 
L 236.794091 248.582639 
L 237.111136 251.702192 
L 237.745227 245.305826 
L 238.062273 249.958085 
L 238.379318 252.020418 
L 239.013409 246.207749 
L 239.330455 248.747627 
L 239.6475 248.444501 
L 239.964545 249.280406 
L 240.598636 242.642809 
L 240.915682 243.974335 
L 241.549773 253.29962 
L 241.866818 247.607141 
L 242.183864 245.726696 
L 242.500909 247.899527 
L 242.817955 248.313484 
L 243.135 250.675651 
L 243.452045 248.726243 
L 243.769091 251.676616 
L 244.086136 249.200655 
L 244.403182 244.864029 
L 244.720227 252.243525 
L 245.037273 249.632634 
L 245.354318 245.062374 
L 245.671364 244.788501 
L 246.305455 249.872868 
L 246.6225 248.47411 
L 246.939545 253.407642 
L 247.256591 249.171567 
L 247.573636 249.592533 
L 247.890682 253.490661 
L 248.207727 252.494179 
L 248.524773 249.16034 
L 248.841818 249.392835 
L 249.158864 245.749212 
L 249.475909 249.013815 
L 249.792955 250.743472 
L 250.11 246.522013 
L 250.427045 244.499589 
L 250.744091 246.073465 
L 251.061136 246.605363 
L 251.378182 246.617666 
L 252.012273 245.806624 
L 252.329318 247.3175 
L 252.646364 250.311994 
L 253.280455 244.165073 
L 253.5975 241.072406 
L 253.914545 242.006005 
L 254.548636 245.875221 
L 254.865682 243.73819 
L 255.499773 250.60469 
L 255.816818 252.826947 
L 256.133864 251.951655 
L 256.450909 250.536241 
L 256.767955 251.721988 
L 257.085 253.700763 
L 257.719091 248.114095 
L 258.036136 248.188015 
L 258.670227 252.33523 
L 258.987273 249.447357 
L 259.304318 249.234121 
L 259.621364 246.972021 
L 259.938409 250.368764 
L 260.5725 243.256318 
L 260.889545 246.655173 
L 261.523636 243.871789 
L 261.840682 243.06575 
L 262.474773 252.259815 
L 263.108864 244.73253 
L 263.425909 242.679046 
L 263.742955 245.340215 
L 264.06 246.934222 
L 264.377045 247.440977 
L 264.694091 251.266554 
L 265.011136 251.086183 
L 265.328182 248.659545 
L 265.645227 247.443868 
L 265.962273 249.879847 
L 266.279318 254.900862 
L 266.596364 251.831156 
L 266.913409 244.895144 
L 267.230455 247.097982 
L 267.5475 244.998287 
L 267.864545 245.440646 
L 268.181591 246.155789 
L 268.498636 247.345474 
L 268.815682 244.912441 
L 269.132727 243.870174 
L 269.449773 245.890819 
L 269.766818 252.636364 
L 270.083864 247.689389 
L 270.400909 245.384871 
L 270.717955 249.101155 
L 271.035 249.262709 
L 271.352045 250.419372 
L 271.669091 243.75632 
L 271.986136 243.926044 
L 272.303182 245.655241 
L 272.620227 244.928717 
L 272.937273 248.275766 
L 273.254318 246.3664 
L 273.571364 247.818341 
L 273.888409 247.687204 
L 274.205455 246.513741 
L 274.5225 251.32765 
L 274.839545 250.215304 
L 275.156591 249.78407 
L 275.473636 252.266928 
L 275.790682 247.673616 
L 276.424773 243.633082 
L 276.741818 244.994826 
L 277.058864 248.913891 
L 277.375909 247.234398 
L 277.692955 248.67381 
L 278.01 255.964332 
L 278.327045 255.205856 
L 278.644091 246.615227 
L 278.961136 244.804283 
L 279.278182 241.930836 
L 280.229318 250.272399 
L 280.546364 251.183857 
L 280.863409 245.624058 
L 281.4975 248.486425 
L 281.814545 248.519703 
L 282.131591 251.727111 
L 282.448636 250.904193 
L 282.765682 245.704314 
L 283.082727 242.914525 
L 283.399773 244.769988 
L 283.716818 245.854806 
L 284.033864 247.823376 
L 284.350909 247.237445 
L 284.985 239.172515 
L 285.302045 244.740831 
L 285.936136 248.872749 
L 286.253182 250.40459 
L 286.570227 250.491263 
L 287.204318 243.634717 
L 287.521364 244.02909 
L 287.838409 239.883207 
L 288.155455 241.402306 
L 288.4725 245.125487 
L 288.789545 245.578222 
L 289.106591 245.525957 
L 289.740682 242.378134 
L 290.057727 242.387233 
L 290.374773 242.195401 
L 290.691818 243.026025 
L 291.008864 244.876166 
L 291.325909 242.214833 
L 291.96 247.417926 
L 292.277045 247.161241 
L 292.594091 245.352101 
L 292.911136 245.640621 
L 293.228182 249.92087 
L 293.545227 247.657894 
L 293.862273 241.300254 
L 294.179318 238.459428 
L 294.813409 248.520026 
L 295.4475 251.907058 
L 295.764545 250.728844 
L 296.081591 242.413077 
L 296.715682 250.327411 
L 297.349773 248.703935 
L 297.666818 245.825336 
L 297.983864 247.49856 
L 298.300909 246.659473 
L 298.617955 244.401187 
L 298.935 245.756132 
L 299.252045 250.122378 
L 299.569091 250.695643 
L 299.886136 244.506291 
L 300.520227 248.157323 
L 300.837273 247.734322 
L 301.154318 249.246068 
L 301.471364 247.649936 
L 301.788409 247.290084 
L 302.739545 243.08547 
L 303.056591 247.06948 
L 303.373636 254.943758 
L 304.007727 243.484885 
L 304.641818 245.927479 
L 304.958864 246.653795 
L 305.275909 248.467554 
L 305.592955 245.775676 
L 305.91 244.474197 
L 306.544091 246.920842 
L 306.861136 246.062695 
L 307.178182 244.231643 
L 307.495227 244.446637 
L 307.812273 243.337631 
L 308.129318 244.457338 
L 308.446364 244.796697 
L 308.763409 247.888407 
L 309.080455 247.694163 
L 309.3975 246.699129 
L 309.714545 244.941469 
L 310.031591 246.322594 
L 310.348636 249.204683 
L 310.665682 246.506303 
L 311.299773 243.364068 
L 311.616818 242.978304 
L 311.933864 246.542141 
L 312.250909 244.552628 
L 312.567955 245.415655 
L 312.885 241.492885 
L 313.202045 243.546562 
L 313.519091 246.924799 
L 313.836136 246.608044 
L 314.153182 244.831725 
L 314.470227 247.069476 
L 314.787273 243.955408 
L 315.104318 244.015104 
L 315.421364 246.768825 
L 315.738409 245.943064 
L 316.055455 248.915073 
L 316.3725 246.249602 
L 316.689545 246.303534 
L 317.006591 244.046139 
L 317.323636 240.425768 
L 317.640682 241.587185 
L 317.957727 249.01921 
L 318.274773 244.800884 
L 318.591818 244.936535 
L 318.908864 248.014132 
L 319.225909 246.832396 
L 319.542955 249.57665 
L 319.86 248.2856 
L 320.177045 244.089523 
L 320.494091 246.809988 
L 320.811136 245.541148 
L 321.128182 242.257182 
L 321.445227 242.504402 
L 321.762273 244.196478 
L 322.079318 245.276164 
L 322.396364 245.914526 
L 322.713409 243.544275 
L 323.030455 244.099122 
L 323.3475 245.140937 
L 323.981591 248.841855 
L 324.298636 246.532918 
L 324.615682 245.742588 
L 324.932727 243.289865 
L 325.249773 244.152907 
L 325.566818 246.743085 
L 325.883864 244.687249 
L 326.200909 243.922659 
L 326.517955 241.335641 
L 326.835 245.359634 
L 327.152045 247.173617 
L 327.469091 244.940787 
L 327.786136 246.650585 
L 328.103182 245.863053 
L 328.420227 245.590121 
L 328.737273 247.134087 
L 329.054318 247.494145 
L 330.005455 253.263501 
L 330.639545 246.364759 
L 330.956591 243.124501 
L 331.590682 243.541107 
L 331.907727 243.264957 
L 332.224773 246.343273 
L 332.541818 241.112726 
L 332.858864 239.238594 
L 333.175909 243.325906 
L 333.492955 241.799122 
L 333.81 237.115778 
L 334.444091 247.204059 
L 334.761136 247.015766 
L 335.078182 248.721905 
L 335.395227 244.632235 
L 335.712273 244.28477 
L 336.029318 248.304058 
L 336.346364 243.185069 
L 336.663409 243.341604 
L 336.980455 247.724046 
L 337.2975 243.008118 
L 337.614545 246.51163 
L 337.931591 254.727813 
L 338.248636 251.471871 
L 338.565682 245.584109 
L 338.882727 247.367497 
L 339.199773 245.797938 
L 339.516818 244.82118 
L 339.833864 246.425221 
L 340.150909 246.543507 
L 340.467955 249.555866 
L 341.102045 246.400861 
L 341.419091 248.487681 
L 341.736136 248.775295 
L 342.053182 247.439767 
L 342.370227 247.725291 
L 342.687273 245.961286 
L 343.004318 249.477094 
L 343.321364 249.817633 
L 343.638409 248.841412 
L 343.955455 251.15413 
L 344.2725 249.642397 
L 344.589545 254.423935 
L 344.906591 253.157105 
L 345.223636 253.979357 
L 345.540682 253.654634 
L 345.857727 253.623084 
L 346.174773 247.85829 
L 346.491818 248.133192 
L 346.808864 253.229802 
L 347.125909 252.974894 
L 347.442955 250.51037 
L 347.76 250.785583 
L 348.394091 255.315137 
L 348.711136 259.646811 
L 349.028182 259.493902 
L 349.345227 254.325669 
L 349.662273 254.430844 
L 349.979318 253.457009 
L 350.296364 257.79457 
L 350.613409 260.307152 
L 350.930455 257.706951 
L 351.2475 256.737195 
L 351.564545 258.353144 
L 351.881591 257.509258 
L 352.198636 255.112788 
L 352.515682 254.115024 
L 352.832727 259.725385 
L 353.149773 261.681815 
L 353.466818 262.081076 
L 353.783864 259.489278 
L 354.100909 260.417869 
L 354.417955 265.050549 
L 354.735 264.904036 
L 355.052045 269.02581 
L 355.686136 262.877647 
L 356.320227 263.196984 
L 356.637273 264.179021 
L 356.954318 262.799718 
L 357.271364 262.278321 
L 357.588409 271.119176 
L 358.2225 271.369756 
L 358.539545 274.752629 
L 358.856591 273.689424 
L 359.173636 274.249577 
L 359.490682 272.589791 
L 359.807727 271.661649 
L 360.124773 267.771563 
L 360.441818 271.011039 
L 360.758864 272.167495 
L 361.075909 269.946909 
L 361.392955 270.397943 
L 361.71 275.709576 
L 362.027045 273.343326 
L 362.661136 282.115426 
L 362.978182 276.761131 
L 363.295227 273.647999 
L 363.612273 274.267844 
L 363.929318 272.54283 
L 364.246364 277.220458 
L 364.563409 278.64367 
L 364.880455 273.642974 
L 365.1975 274.622335 
L 366.148636 284.243452 
L 366.465682 283.056113 
L 366.782727 282.339672 
L 367.099773 286.050278 
L 367.416818 283.746038 
L 367.733864 283.728554 
L 368.050909 286.362074 
L 368.367955 287.669236 
L 368.685 289.911899 
L 369.002045 289.816516 
L 369.636136 284.902584 
L 369.953182 284.397267 
L 370.270227 285.113304 
L 370.587273 284.689705 
L 370.904318 289.72557 
L 371.221364 292.591768 
L 371.538409 293.830092 
L 371.855455 296.33156 
L 372.1725 293.253604 
L 372.489545 295.540996 
L 372.806591 293.505656 
L 373.123636 293.818816 
L 373.440682 293.838331 
L 373.757727 294.336209 
L 374.074773 299.834194 
L 374.391818 297.794431 
L 374.708864 299.6683 
L 375.025909 298.312383 
L 375.342955 301.988272 
L 375.977045 304.568492 
L 376.294091 302.085402 
L 376.611136 306.48068 
L 376.928182 306.048275 
L 377.245227 304.162512 
L 377.879318 309.135572 
L 378.196364 310.209651 
L 378.513409 311.988678 
L 378.830455 310.951147 
L 379.1475 310.944283 
L 379.464545 310.69166 
L 379.781591 310.752664 
L 380.098636 313.40987 
L 380.732727 308.384858 
L 381.049773 307.478157 
L 382.000909 311.376335 
L 382.317955 315.846298 
L 382.635 316.682552 
L 382.952045 316.683306 
L 383.269091 316.090763 
L 383.586136 316.313136 
L 383.903182 318.648665 
L 384.220227 316.267879 
L 384.537273 316.324077 
L 384.854318 318.620478 
L 385.171364 317.604269 
L 385.488409 319.239137 
L 385.805455 318.851049 
L 386.1225 315.442278 
L 386.756591 318.762593 
L 387.073636 319.05679 
L 387.390682 317.269777 
L 387.707727 319.400365 
L 388.024773 322.627172 
L 388.341818 323.15206 
L 388.658864 326.380933 
L 388.975909 324.731895 
L 389.292955 327.791867 
L 389.61 327.7553 
L 389.927045 327.874922 
L 390.244091 326.509051 
L 390.561136 326.804495 
L 390.878182 327.431236 
L 391.195227 327.044628 
L 391.512273 329.311671 
L 391.829318 330.359843 
L 392.146364 330.471746 
L 392.780455 336.59356 
L 393.0975 335.274372 
L 393.414545 334.565257 
L 393.731591 330.596836 
L 394.048636 330.314208 
L 394.365682 331.217256 
L 394.682727 333.092629 
L 394.999773 332.934229 
L 395.316818 328.845316 
L 395.950909 336.432823 
L 396.585 332.345587 
L 396.902045 333.314688 
L 397.219091 331.033669 
L 397.536136 331.162204 
L 397.853182 336.595312 
L 398.170227 336.237447 
L 398.327774 346.6 
L 398.327774 346.6 
" clip-path="url(#pbd515a31cd)" style="fill: none; stroke: #1f77b4; stroke-width: 1.5; stroke-linecap: square"/>
   </g>
   <g id="patch_3">
    <path d="M 57.6 307.584 
L 57.6 41.472 
" style="fill: none; stroke: #000000; stroke-width: 0.8; stroke-linejoin: miter; stroke-linecap: square"/>
   </g>
   <g id="patch_4">
    <path d="M 414.72 307.584 
L 414.72 41.472 
" style="fill: none; stroke: #000000; stroke-width: 0.8; stroke-linejoin: miter; stroke-linecap: square"/>
   </g>
   <g id="patch_5">
    <path d="M 57.6 307.584 
L 414.72 307.584 
" style="fill: none; stroke: #000000; stroke-width: 0.8; stroke-linejoin: miter; stroke-linecap: square"/>
   </g>
   <g id="patch_6">
    <path d="M 57.6 41.472 
L 414.72 41.472 
" style="fill: none; stroke: #000000; stroke-width: 0.8; stroke-linejoin: miter; stroke-linecap: square"/>
   </g>
   <g id="text_15">
    <!-- Power Spektrum des EEG Signals von Kanal T4-A2 -->
    <g transform="translate(85.898438 35.472) scale(0.12 -0.12)">
     <defs>
      <path id="DejaVuSans-50" d="M 1259 4147 
L 1259 2394 
L 2053 2394 
Q 2494 2394 2734 2622 
Q 2975 2850 2975 3272 
Q 2975 3691 2734 3919 
Q 2494 4147 2053 4147 
L 1259 4147 
z
M 628 4666 
L 2053 4666 
Q 2838 4666 3239 4311 
Q 3641 3956 3641 3272 
Q 3641 2581 3239 2228 
Q 2838 1875 2053 1875 
L 1259 1875 
L 1259 0 
L 628 0 
L 628 4666 
z
" transform="scale(0.015625)"/>
      <path id="DejaVuSans-6f" d="M 1959 3097 
Q 1497 3097 1228 2736 
Q 959 2375 959 1747 
Q 959 1119 1226 758 
Q 1494 397 1959 397 
Q 2419 397 2687 759 
Q 2956 1122 2956 1747 
Q 2956 2369 2687 2733 
Q 2419 3097 1959 3097 
z
M 1959 3584 
Q 2709 3584 3137 3096 
Q 3566 2609 3566 1747 
Q 3566 888 3137 398 
Q 2709 -91 1959 -91 
Q 1206 -91 779 398 
Q 353 888 353 1747 
Q 353 2609 779 3096 
Q 1206 3584 1959 3584 
z
" transform="scale(0.015625)"/>
      <path id="DejaVuSans-77" d="M 269 3500 
L 844 3500 
L 1563 769 
L 2278 3500 
L 2956 3500 
L 3675 769 
L 4391 3500 
L 4966 3500 
L 4050 0 
L 3372 0 
L 2619 2869 
L 1863 0 
L 1184 0 
L 269 3500 
z
" transform="scale(0.015625)"/>
      <path id="DejaVuSans-53" d="M 3425 4513 
L 3425 3897 
Q 3066 4069 2747 4153 
Q 2428 4238 2131 4238 
Q 1616 4238 1336 4038 
Q 1056 3838 1056 3469 
Q 1056 3159 1242 3001 
Q 1428 2844 1947 2747 
L 2328 2669 
Q 3034 2534 3370 2195 
Q 3706 1856 3706 1288 
Q 3706 609 3251 259 
Q 2797 -91 1919 -91 
Q 1588 -91 1214 -16 
Q 841 59 441 206 
L 441 856 
Q 825 641 1194 531 
Q 1563 422 1919 422 
Q 2459 422 2753 634 
Q 3047 847 3047 1241 
Q 3047 1584 2836 1778 
Q 2625 1972 2144 2069 
L 1759 2144 
Q 1053 2284 737 2584 
Q 422 2884 422 3419 
Q 422 4038 858 4394 
Q 1294 4750 2059 4750 
Q 2388 4750 2728 4690 
Q 3069 4631 3425 4513 
z
" transform="scale(0.015625)"/>
      <path id="DejaVuSans-70" d="M 1159 525 
L 1159 -1331 
L 581 -1331 
L 581 3500 
L 1159 3500 
L 1159 2969 
Q 1341 3281 1617 3432 
Q 1894 3584 2278 3584 
Q 2916 3584 3314 3078 
Q 3713 2572 3713 1747 
Q 3713 922 3314 415 
Q 2916 -91 2278 -91 
Q 1894 -91 1617 61 
Q 1341 213 1159 525 
z
M 3116 1747 
Q 3116 2381 2855 2742 
Q 2594 3103 2138 3103 
Q 1681 3103 1420 2742 
Q 1159 2381 1159 1747 
Q 1159 1113 1420 752 
Q 1681 391 2138 391 
Q 2594 391 2855 752 
Q 3116 1113 3116 1747 
z
" transform="scale(0.015625)"/>
      <path id="DejaVuSans-6b" d="M 581 4863 
L 1159 4863 
L 1159 1991 
L 2875 3500 
L 3609 3500 
L 1753 1863 
L 3688 0 
L 2938 0 
L 1159 1709 
L 1159 0 
L 581 0 
L 581 4863 
z
" transform="scale(0.015625)"/>
      <path id="DejaVuSans-6d" d="M 3328 2828 
Q 3544 3216 3844 3400 
Q 4144 3584 4550 3584 
Q 5097 3584 5394 3201 
Q 5691 2819 5691 2113 
L 5691 0 
L 5113 0 
L 5113 2094 
Q 5113 2597 4934 2840 
Q 4756 3084 4391 3084 
Q 3944 3084 3684 2787 
Q 3425 2491 3425 1978 
L 3425 0 
L 2847 0 
L 2847 2094 
Q 2847 2600 2669 2842 
Q 2491 3084 2119 3084 
Q 1678 3084 1418 2786 
Q 1159 2488 1159 1978 
L 1159 0 
L 581 0 
L 581 3500 
L 1159 3500 
L 1159 2956 
Q 1356 3278 1631 3431 
Q 1906 3584 2284 3584 
Q 2666 3584 2933 3390 
Q 3200 3197 3328 2828 
z
" transform="scale(0.015625)"/>
      <path id="DejaVuSans-64" d="M 2906 2969 
L 2906 4863 
L 3481 4863 
L 3481 0 
L 2906 0 
L 2906 525 
Q 2725 213 2448 61 
Q 2172 -91 1784 -91 
Q 1150 -91 751 415 
Q 353 922 353 1747 
Q 353 2572 751 3078 
Q 1150 3584 1784 3584 
Q 2172 3584 2448 3432 
Q 2725 3281 2906 2969 
z
M 947 1747 
Q 947 1113 1208 752 
Q 1469 391 1925 391 
Q 2381 391 2643 752 
Q 2906 1113 2906 1747 
Q 2906 2381 2643 2742 
Q 2381 3103 1925 3103 
Q 1469 3103 1208 2742 
Q 947 2381 947 1747 
z
" transform="scale(0.015625)"/>
      <path id="DejaVuSans-45" d="M 628 4666 
L 3578 4666 
L 3578 4134 
L 1259 4134 
L 1259 2753 
L 3481 2753 
L 3481 2222 
L 1259 2222 
L 1259 531 
L 3634 531 
L 3634 0 
L 628 0 
L 628 4666 
z
" transform="scale(0.015625)"/>
      <path id="DejaVuSans-47" d="M 3809 666 
L 3809 1919 
L 2778 1919 
L 2778 2438 
L 4434 2438 
L 4434 434 
Q 4069 175 3628 42 
Q 3188 -91 2688 -91 
Q 1594 -91 976 548 
Q 359 1188 359 2328 
Q 359 3472 976 4111 
Q 1594 4750 2688 4750 
Q 3144 4750 3555 4637 
Q 3966 4525 4313 4306 
L 4313 3634 
Q 3963 3931 3569 4081 
Q 3175 4231 2741 4231 
Q 1884 4231 1454 3753 
Q 1025 3275 1025 2328 
Q 1025 1384 1454 906 
Q 1884 428 2741 428 
Q 3075 428 3337 486 
Q 3600 544 3809 666 
z
" transform="scale(0.015625)"/>
      <path id="DejaVuSans-61" d="M 2194 1759 
Q 1497 1759 1228 1600 
Q 959 1441 959 1056 
Q 959 750 1161 570 
Q 1363 391 1709 391 
Q 2188 391 2477 730 
Q 2766 1069 2766 1631 
L 2766 1759 
L 2194 1759 
z
M 3341 1997 
L 3341 0 
L 2766 0 
L 2766 531 
Q 2569 213 2275 61 
Q 1981 -91 1556 -91 
Q 1019 -91 701 211 
Q 384 513 384 1019 
Q 384 1609 779 1909 
Q 1175 2209 1959 2209 
L 2766 2209 
L 2766 2266 
Q 2766 2663 2505 2880 
Q 2244 3097 1772 3097 
Q 1472 3097 1187 3025 
Q 903 2953 641 2809 
L 641 3341 
Q 956 3463 1253 3523 
Q 1550 3584 1831 3584 
Q 2591 3584 2966 3190 
Q 3341 2797 3341 1997 
z
" transform="scale(0.015625)"/>
      <path id="DejaVuSans-6c" d="M 603 4863 
L 1178 4863 
L 1178 0 
L 603 0 
L 603 4863 
z
" transform="scale(0.015625)"/>
      <path id="DejaVuSans-76" d="M 191 3500 
L 800 3500 
L 1894 563 
L 2988 3500 
L 3597 3500 
L 2284 0 
L 1503 0 
L 191 3500 
z
" transform="scale(0.015625)"/>
      <path id="DejaVuSans-4b" d="M 628 4666 
L 1259 4666 
L 1259 2694 
L 3353 4666 
L 4166 4666 
L 1850 2491 
L 4331 0 
L 3500 0 
L 1259 2247 
L 1259 0 
L 628 0 
L 628 4666 
z
" transform="scale(0.015625)"/>
      <path id="DejaVuSans-54" d="M -19 4666 
L 3928 4666 
L 3928 4134 
L 2272 4134 
L 2272 0 
L 1638 0 
L 1638 4134 
L -19 4134 
L -19 4666 
z
" transform="scale(0.015625)"/>
      <path id="DejaVuSans-2d" d="M 313 2009 
L 1997 2009 
L 1997 1497 
L 313 1497 
L 313 2009 
z
" transform="scale(0.015625)"/>
      <path id="DejaVuSans-41" d="M 2188 4044 
L 1331 1722 
L 3047 1722 
L 2188 4044 
z
M 1831 4666 
L 2547 4666 
L 4325 0 
L 3669 0 
L 3244 1197 
L 1141 1197 
L 716 0 
L 50 0 
L 1831 4666 
z
" transform="scale(0.015625)"/>
     </defs>
     <use xlink:href="#DejaVuSans-50"/>
     <use xlink:href="#DejaVuSans-6f" transform="translate(56.677734 0)"/>
     <use xlink:href="#DejaVuSans-77" transform="translate(117.859375 0)"/>
     <use xlink:href="#DejaVuSans-65" transform="translate(199.646484 0)"/>
     <use xlink:href="#DejaVuSans-72" transform="translate(261.169922 0)"/>
     <use xlink:href="#DejaVuSans-20" transform="translate(302.283203 0)"/>
     <use xlink:href="#DejaVuSans-53" transform="translate(334.070312 0)"/>
     <use xlink:href="#DejaVuSans-70" transform="translate(397.546875 0)"/>
     <use xlink:href="#DejaVuSans-65" transform="translate(461.023438 0)"/>
     <use xlink:href="#DejaVuSans-6b" transform="translate(522.546875 0)"/>
     <use xlink:href="#DejaVuSans-74" transform="translate(580.457031 0)"/>
     <use xlink:href="#DejaVuSans-72" transform="translate(619.666016 0)"/>
     <use xlink:href="#DejaVuSans-75" transform="translate(660.779297 0)"/>
     <use xlink:href="#DejaVuSans-6d" transform="translate(724.158203 0)"/>
     <use xlink:href="#DejaVuSans-20" transform="translate(821.570312 0)"/>
     <use xlink:href="#DejaVuSans-64" transform="translate(853.357422 0)"/>
     <use xlink:href="#DejaVuSans-65" transform="translate(916.833984 0)"/>
     <use xlink:href="#DejaVuSans-73" transform="translate(978.357422 0)"/>
     <use xlink:href="#DejaVuSans-20" transform="translate(1030.457031 0)"/>
     <use xlink:href="#DejaVuSans-45" transform="translate(1062.244141 0)"/>
     <use xlink:href="#DejaVuSans-45" transform="translate(1125.427734 0)"/>
     <use xlink:href="#DejaVuSans-47" transform="translate(1188.611328 0)"/>
     <use xlink:href="#DejaVuSans-20" transform="translate(1266.101562 0)"/>
     <use xlink:href="#DejaVuSans-53" transform="translate(1297.888672 0)"/>
     <use xlink:href="#DejaVuSans-69" transform="translate(1361.365234 0)"/>
     <use xlink:href="#DejaVuSans-67" transform="translate(1389.148438 0)"/>
     <use xlink:href="#DejaVuSans-6e" transform="translate(1452.625 0)"/>
     <use xlink:href="#DejaVuSans-61" transform="translate(1516.003906 0)"/>
     <use xlink:href="#DejaVuSans-6c" transform="translate(1577.283203 0)"/>
     <use xlink:href="#DejaVuSans-73" transform="translate(1605.066406 0)"/>
     <use xlink:href="#DejaVuSans-20" transform="translate(1657.166016 0)"/>
     <use xlink:href="#DejaVuSans-76" transform="translate(1688.953125 0)"/>
     <use xlink:href="#DejaVuSans-6f" transform="translate(1748.132812 0)"/>
     <use xlink:href="#DejaVuSans-6e" transform="translate(1809.314453 0)"/>
     <use xlink:href="#DejaVuSans-20" transform="translate(1872.693359 0)"/>
     <use xlink:href="#DejaVuSans-4b" transform="translate(1904.480469 0)"/>
     <use xlink:href="#DejaVuSans-61" transform="translate(1968.306641 0)"/>
     <use xlink:href="#DejaVuSans-6e" transform="translate(2029.585938 0)"/>
     <use xlink:href="#DejaVuSans-61" transform="translate(2092.964844 0)"/>
     <use xlink:href="#DejaVuSans-6c" transform="translate(2154.244141 0)"/>
     <use xlink:href="#DejaVuSans-20" transform="translate(2182.027344 0)"/>
     <use xlink:href="#DejaVuSans-54" transform="translate(2213.814453 0)"/>
     <use xlink:href="#DejaVuSans-34" transform="translate(2274.898438 0)"/>
     <use xlink:href="#DejaVuSans-2d" transform="translate(2338.521484 0)"/>
     <use xlink:href="#DejaVuSans-41" transform="translate(2372.355469 0)"/>
     <use xlink:href="#DejaVuSans-32" transform="translate(2440.763672 0)"/>
    </g>
   </g>
  </g>
 </g>
 <defs>
  <clipPath id="pbd515a31cd">
   <rect x="57.6" y="41.472" width="357.12" height="266.112"/>
  </clipPath>
 </defs>
</svg>
