<?xml version="1.0" encoding="utf-8" standalone="no"?>
<!DOCTYPE svg PUBLIC "-//W3C//DTD SVG 1.1//EN"
  "http://www.w3.org/Graphics/SVG/1.1/DTD/svg11.dtd">
<svg xmlns:xlink="http://www.w3.org/1999/xlink" width="460.8pt" height="345.6pt" viewBox="0 0 460.8 345.6" xmlns="http://www.w3.org/2000/svg" version="1.1">
 <metadata>
  <rdf:RDF xmlns:dc="http://purl.org/dc/elements/1.1/" xmlns:cc="http://creativecommons.org/ns#" xmlns:rdf="http://www.w3.org/1999/02/22-rdf-syntax-ns#">
   <cc:Work>
    <dc:type rdf:resource="http://purl.org/dc/dcmitype/StillImage"/>
    <dc:date>2025-11-02T14:33:52.194719</dc:date>
    <dc:format>image/svg+xml</dc:format>
    <dc:creator>
     <cc:Agent>
      <dc:title>Matplotlib v3.10.7, https://matplotlib.org/</dc:title>
     </cc:Agent>
    </dc:creator>
   </cc:Work>
  </rdf:RDF>
 </metadata>
 <defs>
  <style type="text/css">*{stroke-linejoin: round; stroke-linecap: butt}</style>
 </defs>
 <g id="figure_1">
  <g id="patch_1">
   <path d="M 0 345.6 
L 460.8 345.6 
L 460.8 0 
L 0 0 
z
" style="fill: #ffffff"/>
  </g>
  <g id="axes_1">
   <g id="patch_2">
    <path d="M 57.6 307.584 
L 414.72 307.584 
L 414.72 41.472 
L 57.6 41.472 
z
" style="fill: #ffffff"/>
   </g>
   <g id="matplotlib.axis_1">
    <g id="xtick_1">
     <g id="line2d_1">
      <defs>
       <path id="m412498844f" d="M 0 0 
L 0 3.5 
" style="stroke: #000000; stroke-width: 0.8"/>
      </defs>
      <g>
       <use xlink:href="#m412498844f" x="73.832727" y="307.584" style="stroke: #000000; stroke-width: 0.8"/>
      </g>
     </g>
     <g id="text_1">
      <!-- 0 -->
      <g transform="translate(70.651477 322.182437) scale(0.1 -0.1)">
       <defs>
        <path id="DejaVuSans-30" d="M 2034 4250 
Q 1547 4250 1301 3770 
Q 1056 3291 1056 2328 
Q 1056 1369 1301 889 
Q 1547 409 2034 409 
Q 2525 409 2770 889 
Q 3016 1369 3016 2328 
Q 3016 3291 2770 3770 
Q 2525 4250 2034 4250 
z
M 2034 4750 
Q 2819 4750 3233 4129 
Q 3647 3509 3647 2328 
Q 3647 1150 3233 529 
Q 2819 -91 2034 -91 
Q 1250 -91 836 529 
Q 422 1150 422 2328 
Q 422 3509 836 4129 
Q 1250 4750 2034 4750 
z
" transform="scale(0.015625)"/>
       </defs>
       <use xlink:href="#DejaVuSans-30"/>
      </g>
     </g>
    </g>
    <g id="xtick_2">
     <g id="line2d_2">
      <g>
       <use xlink:href="#m412498844f" x="125.777455" y="307.584" style="stroke: #000000; stroke-width: 0.8"/>
      </g>
     </g>
     <g id="text_2">
      <!-- 20 -->
      <g transform="translate(119.414955 322.182437) scale(0.1 -0.1)">
       <defs>
        <path id="DejaVuSans-32" d="M 1228 531 
L 3431 531 
L 3431 0 
L 469 0 
L 469 531 
Q 828 903 1448 1529 
Q 2069 2156 2228 2338 
Q 2531 2678 2651 2914 
Q 2772 3150 2772 3378 
Q 2772 3750 2511 3984 
Q 2250 4219 1831 4219 
Q 1534 4219 1204 4116 
Q 875 4013 500 3803 
L 500 4441 
Q 881 4594 1212 4672 
Q 1544 4750 1819 4750 
Q 2544 4750 2975 4387 
Q 3406 4025 3406 3419 
Q 3406 3131 3298 2873 
Q 3191 2616 2906 2266 
Q 2828 2175 2409 1742 
Q 1991 1309 1228 531 
z
" transform="scale(0.015625)"/>
       </defs>
       <use xlink:href="#DejaVuSans-32"/>
       <use xlink:href="#DejaVuSans-30" transform="translate(63.623047 0)"/>
      </g>
     </g>
    </g>
    <g id="xtick_3">
     <g id="line2d_3">
      <g>
       <use xlink:href="#m412498844f" x="177.722182" y="307.584" style="stroke: #000000; stroke-width: 0.8"/>
      </g>
     </g>
     <g id="text_3">
      <!-- 40 -->
      <g transform="translate(171.359682 322.182437) scale(0.1 -0.1)">
       <defs>
        <path id="DejaVuSans-34" d="M 2419 4116 
L 825 1625 
L 2419 1625 
L 2419 4116 
z
M 2253 4666 
L 3047 4666 
L 3047 1625 
L 3713 1625 
L 3713 1100 
L 3047 1100 
L 3047 0 
L 2419 0 
L 2419 1100 
L 313 1100 
L 313 1709 
L 2253 4666 
z
" transform="scale(0.015625)"/>
       </defs>
       <use xlink:href="#DejaVuSans-34"/>
       <use xlink:href="#DejaVuSans-30" transform="translate(63.623047 0)"/>
      </g>
     </g>
    </g>
    <g id="xtick_4">
     <g id="line2d_4">
      <g>
       <use xlink:href="#m412498844f" x="229.666909" y="307.584" style="stroke: #000000; stroke-width: 0.8"/>
      </g>
     </g>
     <g id="text_4">
      <!-- 60 -->
      <g transform="translate(223.304409 322.182437) scale(0.1 -0.1)">
       <defs>
        <path id="DejaVuSans-36" d="M 2113 2584 
Q 1688 2584 1439 2293 
Q 1191 2003 1191 1497 
Q 1191 994 1439 701 
Q 1688 409 2113 409 
Q 2538 409 2786 701 
Q 3034 994 3034 1497 
Q 3034 2003 2786 2293 
Q 2538 2584 2113 2584 
z
M 3366 4563 
L 3366 3988 
Q 3128 4100 2886 4159 
Q 2644 4219 2406 4219 
Q 1781 4219 1451 3797 
Q 1122 3375 1075 2522 
Q 1259 2794 1537 2939 
Q 1816 3084 2150 3084 
Q 2853 3084 3261 2657 
Q 3669 2231 3669 1497 
Q 3669 778 3244 343 
Q 2819 -91 2113 -91 
Q 1303 -91 875 529 
Q 447 1150 447 2328 
Q 447 3434 972 4092 
Q 1497 4750 2381 4750 
Q 2619 4750 2861 4703 
Q 3103 4656 3366 4563 
z
" transform="scale(0.015625)"/>
       </defs>
       <use xlink:href="#DejaVuSans-36"/>
       <use xlink:href="#DejaVuSans-30" transform="translate(63.623047 0)"/>
      </g>
     </g>
    </g>
    <g id="xtick_5">
     <g id="line2d_5">
      <g>
       <use xlink:href="#m412498844f" x="281.611636" y="307.584" style="stroke: #000000; stroke-width: 0.8"/>
      </g>
     </g>
     <g id="text_5">
      <!-- 80 -->
      <g transform="translate(275.249136 322.182437) scale(0.1 -0.1)">
       <defs>
        <path id="DejaVuSans-38" d="M 2034 2216 
Q 1584 2216 1326 1975 
Q 1069 1734 1069 1313 
Q 1069 891 1326 650 
Q 1584 409 2034 409 
Q 2484 409 2743 651 
Q 3003 894 3003 1313 
Q 3003 1734 2745 1975 
Q 2488 2216 2034 2216 
z
M 1403 2484 
Q 997 2584 770 2862 
Q 544 3141 544 3541 
Q 544 4100 942 4425 
Q 1341 4750 2034 4750 
Q 2731 4750 3128 4425 
Q 3525 4100 3525 3541 
Q 3525 3141 3298 2862 
Q 3072 2584 2669 2484 
Q 3125 2378 3379 2068 
Q 3634 1759 3634 1313 
Q 3634 634 3220 271 
Q 2806 -91 2034 -91 
Q 1263 -91 848 271 
Q 434 634 434 1313 
Q 434 1759 690 2068 
Q 947 2378 1403 2484 
z
M 1172 3481 
Q 1172 3119 1398 2916 
Q 1625 2713 2034 2713 
Q 2441 2713 2670 2916 
Q 2900 3119 2900 3481 
Q 2900 3844 2670 4047 
Q 2441 4250 2034 4250 
Q 1625 4250 1398 4047 
Q 1172 3844 1172 3481 
z
" transform="scale(0.015625)"/>
       </defs>
       <use xlink:href="#DejaVuSans-38"/>
       <use xlink:href="#DejaVuSans-30" transform="translate(63.623047 0)"/>
      </g>
     </g>
    </g>
    <g id="xtick_6">
     <g id="line2d_6">
      <g>
       <use xlink:href="#m412498844f" x="333.556364" y="307.584" style="stroke: #000000; stroke-width: 0.8"/>
      </g>
     </g>
     <g id="text_6">
      <!-- 100 -->
      <g transform="translate(324.012614 322.182437) scale(0.1 -0.1)">
       <defs>
        <path id="DejaVuSans-31" d="M 794 531 
L 1825 531 
L 1825 4091 
L 703 3866 
L 703 4441 
L 1819 4666 
L 2450 4666 
L 2450 531 
L 3481 531 
L 3481 0 
L 794 0 
L 794 531 
z
" transform="scale(0.015625)"/>
       </defs>
       <use xlink:href="#DejaVuSans-31"/>
       <use xlink:href="#DejaVuSans-30" transform="translate(63.623047 0)"/>
       <use xlink:href="#DejaVuSans-30" transform="translate(127.246094 0)"/>
      </g>
     </g>
    </g>
    <g id="xtick_7">
     <g id="line2d_7">
      <g>
       <use xlink:href="#m412498844f" x="385.501091" y="307.584" style="stroke: #000000; stroke-width: 0.8"/>
      </g>
     </g>
     <g id="text_7">
      <!-- 120 -->
      <g transform="translate(375.957341 322.182437) scale(0.1 -0.1)">
       <use xlink:href="#DejaVuSans-31"/>
       <use xlink:href="#DejaVuSans-32" transform="translate(63.623047 0)"/>
       <use xlink:href="#DejaVuSans-30" transform="translate(127.246094 0)"/>
      </g>
     </g>
    </g>
    <g id="text_8">
     <!-- Frequenz in Hz -->
     <g transform="translate(199.294375 335.860562) scale(0.1 -0.1)">
      <defs>
       <path id="DejaVuSans-46" d="M 628 4666 
L 3309 4666 
L 3309 4134 
L 1259 4134 
L 1259 2759 
L 3109 2759 
L 3109 2228 
L 1259 2228 
L 1259 0 
L 628 0 
L 628 4666 
z
" transform="scale(0.015625)"/>
       <path id="DejaVuSans-72" d="M 2631 2963 
Q 2534 3019 2420 3045 
Q 2306 3072 2169 3072 
Q 1681 3072 1420 2755 
Q 1159 2438 1159 1844 
L 1159 0 
L 581 0 
L 581 3500 
L 1159 3500 
L 1159 2956 
Q 1341 3275 1631 3429 
Q 1922 3584 2338 3584 
Q 2397 3584 2469 3576 
Q 2541 3569 2628 3553 
L 2631 2963 
z
" transform="scale(0.015625)"/>
       <path id="DejaVuSans-65" d="M 3597 1894 
L 3597 1613 
L 953 1613 
Q 991 1019 1311 708 
Q 1631 397 2203 397 
Q 2534 397 2845 478 
Q 3156 559 3463 722 
L 3463 178 
Q 3153 47 2828 -22 
Q 2503 -91 2169 -91 
Q 1331 -91 842 396 
Q 353 884 353 1716 
Q 353 2575 817 3079 
Q 1281 3584 2069 3584 
Q 2775 3584 3186 3129 
Q 3597 2675 3597 1894 
z
M 3022 2063 
Q 3016 2534 2758 2815 
Q 2500 3097 2075 3097 
Q 1594 3097 1305 2825 
Q 1016 2553 972 2059 
L 3022 2063 
z
" transform="scale(0.015625)"/>
       <path id="DejaVuSans-71" d="M 947 1747 
Q 947 1113 1208 752 
Q 1469 391 1925 391 
Q 2381 391 2643 752 
Q 2906 1113 2906 1747 
Q 2906 2381 2643 2742 
Q 2381 3103 1925 3103 
Q 1469 3103 1208 2742 
Q 947 2381 947 1747 
z
M 2906 525 
Q 2725 213 2448 61 
Q 2172 -91 1784 -91 
Q 1150 -91 751 415 
Q 353 922 353 1747 
Q 353 2572 751 3078 
Q 1150 3584 1784 3584 
Q 2172 3584 2448 3432 
Q 2725 3281 2906 2969 
L 2906 3500 
L 3481 3500 
L 3481 -1331 
L 2906 -1331 
L 2906 525 
z
" transform="scale(0.015625)"/>
       <path id="DejaVuSans-75" d="M 544 1381 
L 544 3500 
L 1119 3500 
L 1119 1403 
Q 1119 906 1312 657 
Q 1506 409 1894 409 
Q 2359 409 2629 706 
Q 2900 1003 2900 1516 
L 2900 3500 
L 3475 3500 
L 3475 0 
L 2900 0 
L 2900 538 
Q 2691 219 2414 64 
Q 2138 -91 1772 -91 
Q 1169 -91 856 284 
Q 544 659 544 1381 
z
M 1991 3584 
L 1991 3584 
z
" transform="scale(0.015625)"/>
       <path id="DejaVuSans-6e" d="M 3513 2113 
L 3513 0 
L 2938 0 
L 2938 2094 
Q 2938 2591 2744 2837 
Q 2550 3084 2163 3084 
Q 1697 3084 1428 2787 
Q 1159 2491 1159 1978 
L 1159 0 
L 581 0 
L 581 3500 
L 1159 3500 
L 1159 2956 
Q 1366 3272 1645 3428 
Q 1925 3584 2291 3584 
Q 2894 3584 3203 3211 
Q 3513 2838 3513 2113 
z
" transform="scale(0.015625)"/>
       <path id="DejaVuSans-7a" d="M 353 3500 
L 3084 3500 
L 3084 2975 
L 922 459 
L 3084 459 
L 3084 0 
L 275 0 
L 275 525 
L 2438 3041 
L 353 3041 
L 353 3500 
z
" transform="scale(0.015625)"/>
       <path id="DejaVuSans-20" transform="scale(0.015625)"/>
       <path id="DejaVuSans-69" d="M 603 3500 
L 1178 3500 
L 1178 0 
L 603 0 
L 603 3500 
z
M 603 4863 
L 1178 4863 
L 1178 4134 
L 603 4134 
L 603 4863 
z
" transform="scale(0.015625)"/>
       <path id="DejaVuSans-48" d="M 628 4666 
L 1259 4666 
L 1259 2753 
L 3553 2753 
L 3553 4666 
L 4184 4666 
L 4184 0 
L 3553 0 
L 3553 2222 
L 1259 2222 
L 1259 0 
L 628 0 
L 628 4666 
z
" transform="scale(0.015625)"/>
      </defs>
      <use xlink:href="#DejaVuSans-46"/>
      <use xlink:href="#DejaVuSans-72" transform="translate(50.269531 0)"/>
      <use xlink:href="#DejaVuSans-65" transform="translate(89.132812 0)"/>
      <use xlink:href="#DejaVuSans-71" transform="translate(150.65625 0)"/>
      <use xlink:href="#DejaVuSans-75" transform="translate(214.132812 0)"/>
      <use xlink:href="#DejaVuSans-65" transform="translate(277.511719 0)"/>
      <use xlink:href="#DejaVuSans-6e" transform="translate(339.035156 0)"/>
      <use xlink:href="#DejaVuSans-7a" transform="translate(402.414062 0)"/>
      <use xlink:href="#DejaVuSans-20" transform="translate(454.904297 0)"/>
      <use xlink:href="#DejaVuSans-69" transform="translate(486.691406 0)"/>
      <use xlink:href="#DejaVuSans-6e" transform="translate(514.474609 0)"/>
      <use xlink:href="#DejaVuSans-20" transform="translate(577.853516 0)"/>
      <use xlink:href="#DejaVuSans-48" transform="translate(609.640625 0)"/>
      <use xlink:href="#DejaVuSans-7a" transform="translate(684.835938 0)"/>
     </g>
    </g>
   </g>
   <g id="matplotlib.axis_2">
    <g id="ytick_1">
     <g id="line2d_8">
      <defs>
       <path id="ma1a820b9f7" d="M 0 0 
L -3.5 0 
" style="stroke: #000000; stroke-width: 0.8"/>
      </defs>
      <g>
       <use xlink:href="#ma1a820b9f7" x="57.6" y="307.584" style="stroke: #000000; stroke-width: 0.8"/>
      </g>
     </g>
     <g id="text_9">
      <!-- $\mathdefault{10^{-1}}$ -->
      <g transform="translate(27.1 311.383219) scale(0.1 -0.1)">
       <defs>
        <path id="DejaVuSans-2212" d="M 678 2272 
L 4684 2272 
L 4684 1741 
L 678 1741 
L 678 2272 
z
" transform="scale(0.015625)"/>
       </defs>
       <use xlink:href="#DejaVuSans-31" transform="translate(0 0.684375)"/>
       <use xlink:href="#DejaVuSans-30" transform="translate(63.623047 0.684375)"/>
       <use xlink:href="#DejaVuSans-2212" transform="translate(128.203125 38.965625) scale(0.7)"/>
       <use xlink:href="#DejaVuSans-31" transform="translate(186.855469 38.965625) scale(0.7)"/>
      </g>
     </g>
    </g>
    <g id="ytick_2">
     <g id="line2d_9">
      <g>
       <use xlink:href="#ma1a820b9f7" x="57.6" y="241.056" style="stroke: #000000; stroke-width: 0.8"/>
      </g>
     </g>
     <g id="text_10">
      <!-- $\mathdefault{10^{0}}$ -->
      <g transform="translate(33 244.855219) scale(0.1 -0.1)">
       <use xlink:href="#DejaVuSans-31" transform="translate(0 0.765625)"/>
       <use xlink:href="#DejaVuSans-30" transform="translate(63.623047 0.765625)"/>
       <use xlink:href="#DejaVuSans-30" transform="translate(128.203125 39.046875) scale(0.7)"/>
      </g>
     </g>
    </g>
    <g id="ytick_3">
     <g id="line2d_10">
      <g>
       <use xlink:href="#ma1a820b9f7" x="57.6" y="174.528" style="stroke: #000000; stroke-width: 0.8"/>
      </g>
     </g>
     <g id="text_11">
      <!-- $\mathdefault{10^{1}}$ -->
      <g transform="translate(33 178.327219) scale(0.1 -0.1)">
       <use xlink:href="#DejaVuSans-31" transform="translate(0 0.684375)"/>
       <use xlink:href="#DejaVuSans-30" transform="translate(63.623047 0.684375)"/>
       <use xlink:href="#DejaVuSans-31" transform="translate(128.203125 38.965625) scale(0.7)"/>
      </g>
     </g>
    </g>
    <g id="ytick_4">
     <g id="line2d_11">
      <g>
       <use xlink:href="#ma1a820b9f7" x="57.6" y="108" style="stroke: #000000; stroke-width: 0.8"/>
      </g>
     </g>
     <g id="text_12">
      <!-- $\mathdefault{10^{2}}$ -->
      <g transform="translate(33 111.799219) scale(0.1 -0.1)">
       <use xlink:href="#DejaVuSans-31" transform="translate(0 0.765625)"/>
       <use xlink:href="#DejaVuSans-30" transform="translate(63.623047 0.765625)"/>
       <use xlink:href="#DejaVuSans-32" transform="translate(128.203125 39.046875) scale(0.7)"/>
      </g>
     </g>
    </g>
    <g id="ytick_5">
     <g id="line2d_12">
      <g>
       <use xlink:href="#ma1a820b9f7" x="57.6" y="41.472" style="stroke: #000000; stroke-width: 0.8"/>
      </g>
     </g>
     <g id="text_13">
      <!-- $\mathdefault{10^{3}}$ -->
      <g transform="translate(33 45.271219) scale(0.1 -0.1)">
       <defs>
        <path id="DejaVuSans-33" d="M 2597 2516 
Q 3050 2419 3304 2112 
Q 3559 1806 3559 1356 
Q 3559 666 3084 287 
Q 2609 -91 1734 -91 
Q 1441 -91 1130 -33 
Q 819 25 488 141 
L 488 750 
Q 750 597 1062 519 
Q 1375 441 1716 441 
Q 2309 441 2620 675 
Q 2931 909 2931 1356 
Q 2931 1769 2642 2001 
Q 2353 2234 1838 2234 
L 1294 2234 
L 1294 2753 
L 1863 2753 
Q 2328 2753 2575 2939 
Q 2822 3125 2822 3475 
Q 2822 3834 2567 4026 
Q 2313 4219 1838 4219 
Q 1578 4219 1281 4162 
Q 984 4106 628 3988 
L 628 4550 
Q 988 4650 1302 4700 
Q 1616 4750 1894 4750 
Q 2613 4750 3031 4423 
Q 3450 4097 3450 3541 
Q 3450 3153 3228 2886 
Q 3006 2619 2597 2516 
z
" transform="scale(0.015625)"/>
       </defs>
       <use xlink:href="#DejaVuSans-31" transform="translate(0 0.765625)"/>
       <use xlink:href="#DejaVuSans-30" transform="translate(63.623047 0.765625)"/>
       <use xlink:href="#DejaVuSans-33" transform="translate(128.203125 39.046875) scale(0.7)"/>
      </g>
     </g>
    </g>
    <g id="ytick_6">
     <g id="line2d_13">
      <defs>
       <path id="m88ac17753d" d="M 0 0 
L -2 0 
" style="stroke: #000000; stroke-width: 0.6"/>
      </defs>
      <g>
       <use xlink:href="#m88ac17753d" x="57.6" y="287.557076" style="stroke: #000000; stroke-width: 0.6"/>
      </g>
     </g>
    </g>
    <g id="ytick_7">
     <g id="line2d_14">
      <g>
       <use xlink:href="#m88ac17753d" x="57.6" y="275.842077" style="stroke: #000000; stroke-width: 0.6"/>
      </g>
     </g>
    </g>
    <g id="ytick_8">
     <g id="line2d_15">
      <g>
       <use xlink:href="#m88ac17753d" x="57.6" y="267.530153" style="stroke: #000000; stroke-width: 0.6"/>
      </g>
     </g>
    </g>
    <g id="ytick_9">
     <g id="line2d_16">
      <g>
       <use xlink:href="#m88ac17753d" x="57.6" y="261.082924" style="stroke: #000000; stroke-width: 0.6"/>
      </g>
     </g>
    </g>
    <g id="ytick_10">
     <g id="line2d_17">
      <g>
       <use xlink:href="#m88ac17753d" x="57.6" y="255.815154" style="stroke: #000000; stroke-width: 0.6"/>
      </g>
     </g>
    </g>
    <g id="ytick_11">
     <g id="line2d_18">
      <g>
       <use xlink:href="#m88ac17753d" x="57.6" y="251.361318" style="stroke: #000000; stroke-width: 0.6"/>
      </g>
     </g>
    </g>
    <g id="ytick_12">
     <g id="line2d_19">
      <g>
       <use xlink:href="#m88ac17753d" x="57.6" y="247.503229" style="stroke: #000000; stroke-width: 0.6"/>
      </g>
     </g>
    </g>
    <g id="ytick_13">
     <g id="line2d_20">
      <g>
       <use xlink:href="#m88ac17753d" x="57.6" y="244.100154" style="stroke: #000000; stroke-width: 0.6"/>
      </g>
     </g>
    </g>
    <g id="ytick_14">
     <g id="line2d_21">
      <g>
       <use xlink:href="#m88ac17753d" x="57.6" y="221.029076" style="stroke: #000000; stroke-width: 0.6"/>
      </g>
     </g>
    </g>
    <g id="ytick_15">
     <g id="line2d_22">
      <g>
       <use xlink:href="#m88ac17753d" x="57.6" y="209.314077" style="stroke: #000000; stroke-width: 0.6"/>
      </g>
     </g>
    </g>
    <g id="ytick_16">
     <g id="line2d_23">
      <g>
       <use xlink:href="#m88ac17753d" x="57.6" y="201.002153" style="stroke: #000000; stroke-width: 0.6"/>
      </g>
     </g>
    </g>
    <g id="ytick_17">
     <g id="line2d_24">
      <g>
       <use xlink:href="#m88ac17753d" x="57.6" y="194.554924" style="stroke: #000000; stroke-width: 0.6"/>
      </g>
     </g>
    </g>
    <g id="ytick_18">
     <g id="line2d_25">
      <g>
       <use xlink:href="#m88ac17753d" x="57.6" y="189.287154" style="stroke: #000000; stroke-width: 0.6"/>
      </g>
     </g>
    </g>
    <g id="ytick_19">
     <g id="line2d_26">
      <g>
       <use xlink:href="#m88ac17753d" x="57.6" y="184.833318" style="stroke: #000000; stroke-width: 0.6"/>
      </g>
     </g>
    </g>
    <g id="ytick_20">
     <g id="line2d_27">
      <g>
       <use xlink:href="#m88ac17753d" x="57.6" y="180.975229" style="stroke: #000000; stroke-width: 0.6"/>
      </g>
     </g>
    </g>
    <g id="ytick_21">
     <g id="line2d_28">
      <g>
       <use xlink:href="#m88ac17753d" x="57.6" y="177.572154" style="stroke: #000000; stroke-width: 0.6"/>
      </g>
     </g>
    </g>
    <g id="ytick_22">
     <g id="line2d_29">
      <g>
       <use xlink:href="#m88ac17753d" x="57.6" y="154.501076" style="stroke: #000000; stroke-width: 0.6"/>
      </g>
     </g>
    </g>
    <g id="ytick_23">
     <g id="line2d_30">
      <g>
       <use xlink:href="#m88ac17753d" x="57.6" y="142.786077" style="stroke: #000000; stroke-width: 0.6"/>
      </g>
     </g>
    </g>
    <g id="ytick_24">
     <g id="line2d_31">
      <g>
       <use xlink:href="#m88ac17753d" x="57.6" y="134.474153" style="stroke: #000000; stroke-width: 0.6"/>
      </g>
     </g>
    </g>
    <g id="ytick_25">
     <g id="line2d_32">
      <g>
       <use xlink:href="#m88ac17753d" x="57.6" y="128.026924" style="stroke: #000000; stroke-width: 0.6"/>
      </g>
     </g>
    </g>
    <g id="ytick_26">
     <g id="line2d_33">
      <g>
       <use xlink:href="#m88ac17753d" x="57.6" y="122.759154" style="stroke: #000000; stroke-width: 0.6"/>
      </g>
     </g>
    </g>
    <g id="ytick_27">
     <g id="line2d_34">
      <g>
       <use xlink:href="#m88ac17753d" x="57.6" y="118.305318" style="stroke: #000000; stroke-width: 0.6"/>
      </g>
     </g>
    </g>
    <g id="ytick_28">
     <g id="line2d_35">
      <g>
       <use xlink:href="#m88ac17753d" x="57.6" y="114.447229" style="stroke: #000000; stroke-width: 0.6"/>
      </g>
     </g>
    </g>
    <g id="ytick_29">
     <g id="line2d_36">
      <g>
       <use xlink:href="#m88ac17753d" x="57.6" y="111.044154" style="stroke: #000000; stroke-width: 0.6"/>
      </g>
     </g>
    </g>
    <g id="ytick_30">
     <g id="line2d_37">
      <g>
       <use xlink:href="#m88ac17753d" x="57.6" y="87.973076" style="stroke: #000000; stroke-width: 0.6"/>
      </g>
     </g>
    </g>
    <g id="ytick_31">
     <g id="line2d_38">
      <g>
       <use xlink:href="#m88ac17753d" x="57.6" y="76.258077" style="stroke: #000000; stroke-width: 0.6"/>
      </g>
     </g>
    </g>
    <g id="ytick_32">
     <g id="line2d_39">
      <g>
       <use xlink:href="#m88ac17753d" x="57.6" y="67.946153" style="stroke: #000000; stroke-width: 0.6"/>
      </g>
     </g>
    </g>
    <g id="ytick_33">
     <g id="line2d_40">
      <g>
       <use xlink:href="#m88ac17753d" x="57.6" y="61.498924" style="stroke: #000000; stroke-width: 0.6"/>
      </g>
     </g>
    </g>
    <g id="ytick_34">
     <g id="line2d_41">
      <g>
       <use xlink:href="#m88ac17753d" x="57.6" y="56.231154" style="stroke: #000000; stroke-width: 0.6"/>
      </g>
     </g>
    </g>
    <g id="ytick_35">
     <g id="line2d_42">
      <g>
       <use xlink:href="#m88ac17753d" x="57.6" y="51.777318" style="stroke: #000000; stroke-width: 0.6"/>
      </g>
     </g>
    </g>
    <g id="ytick_36">
     <g id="line2d_43">
      <g>
       <use xlink:href="#m88ac17753d" x="57.6" y="47.919229" style="stroke: #000000; stroke-width: 0.6"/>
      </g>
     </g>
    </g>
    <g id="ytick_37">
     <g id="line2d_44">
      <g>
       <use xlink:href="#m88ac17753d" x="57.6" y="44.516154" style="stroke: #000000; stroke-width: 0.6"/>
      </g>
     </g>
    </g>
    <g id="text_14">
     <!-- Leistung/Frequenz (V²/Hz) -->
     <g transform="translate(21.020312 239.182687) rotate(-90) scale(0.1 -0.1)">
      <defs>
       <path id="DejaVuSans-4c" d="M 628 4666 
L 1259 4666 
L 1259 531 
L 3531 531 
L 3531 0 
L 628 0 
L 628 4666 
z
" transform="scale(0.015625)"/>
       <path id="DejaVuSans-73" d="M 2834 3397 
L 2834 2853 
Q 2591 2978 2328 3040 
Q 2066 3103 1784 3103 
Q 1356 3103 1142 2972 
Q 928 2841 928 2578 
Q 928 2378 1081 2264 
Q 1234 2150 1697 2047 
L 1894 2003 
Q 2506 1872 2764 1633 
Q 3022 1394 3022 966 
Q 3022 478 2636 193 
Q 2250 -91 1575 -91 
Q 1294 -91 989 -36 
Q 684 19 347 128 
L 347 722 
Q 666 556 975 473 
Q 1284 391 1588 391 
Q 1994 391 2212 530 
Q 2431 669 2431 922 
Q 2431 1156 2273 1281 
Q 2116 1406 1581 1522 
L 1381 1569 
Q 847 1681 609 1914 
Q 372 2147 372 2553 
Q 372 3047 722 3315 
Q 1072 3584 1716 3584 
Q 2034 3584 2315 3537 
Q 2597 3491 2834 3397 
z
" transform="scale(0.015625)"/>
       <path id="DejaVuSans-74" d="M 1172 4494 
L 1172 3500 
L 2356 3500 
L 2356 3053 
L 1172 3053 
L 1172 1153 
Q 1172 725 1289 603 
Q 1406 481 1766 481 
L 2356 481 
L 2356 0 
L 1766 0 
Q 1100 0 847 248 
Q 594 497 594 1153 
L 594 3053 
L 172 3053 
L 172 3500 
L 594 3500 
L 594 4494 
L 1172 4494 
z
" transform="scale(0.015625)"/>
       <path id="DejaVuSans-67" d="M 2906 1791 
Q 2906 2416 2648 2759 
Q 2391 3103 1925 3103 
Q 1463 3103 1205 2759 
Q 947 2416 947 1791 
Q 947 1169 1205 825 
Q 1463 481 1925 481 
Q 2391 481 2648 825 
Q 2906 1169 2906 1791 
z
M 3481 434 
Q 3481 -459 3084 -895 
Q 2688 -1331 1869 -1331 
Q 1566 -1331 1297 -1286 
Q 1028 -1241 775 -1147 
L 775 -588 
Q 1028 -725 1275 -790 
Q 1522 -856 1778 -856 
Q 2344 -856 2625 -561 
Q 2906 -266 2906 331 
L 2906 616 
Q 2728 306 2450 153 
Q 2172 0 1784 0 
Q 1141 0 747 490 
Q 353 981 353 1791 
Q 353 2603 747 3093 
Q 1141 3584 1784 3584 
Q 2172 3584 2450 3431 
Q 2728 3278 2906 2969 
L 2906 3500 
L 3481 3500 
L 3481 434 
z
" transform="scale(0.015625)"/>
       <path id="DejaVuSans-2f" d="M 1625 4666 
L 2156 4666 
L 531 -594 
L 0 -594 
L 1625 4666 
z
" transform="scale(0.015625)"/>
       <path id="DejaVuSans-28" d="M 1984 4856 
Q 1566 4138 1362 3434 
Q 1159 2731 1159 2009 
Q 1159 1288 1364 580 
Q 1569 -128 1984 -844 
L 1484 -844 
Q 1016 -109 783 600 
Q 550 1309 550 2009 
Q 550 2706 781 3412 
Q 1013 4119 1484 4856 
L 1984 4856 
z
" transform="scale(0.015625)"/>
       <path id="DejaVuSans-56" d="M 1831 0 
L 50 4666 
L 709 4666 
L 2188 738 
L 3669 4666 
L 4325 4666 
L 2547 0 
L 1831 0 
z
" transform="scale(0.015625)"/>
       <path id="DejaVuSans-b2" d="M 838 2444 
L 2163 2444 
L 2163 2088 
L 294 2088 
L 294 2431 
Q 400 2528 597 2703 
Q 1672 3656 1672 3950 
Q 1672 4156 1509 4282 
Q 1347 4409 1081 4409 
Q 919 4409 728 4354 
Q 538 4300 313 4191 
L 313 4575 
Q 553 4663 761 4706 
Q 969 4750 1147 4750 
Q 1600 4750 1872 4544 
Q 2144 4338 2144 4000 
Q 2144 3566 1109 2678 
Q 934 2528 838 2444 
z
" transform="scale(0.015625)"/>
       <path id="DejaVuSans-29" d="M 513 4856 
L 1013 4856 
Q 1481 4119 1714 3412 
Q 1947 2706 1947 2009 
Q 1947 1309 1714 600 
Q 1481 -109 1013 -844 
L 513 -844 
Q 928 -128 1133 580 
Q 1338 1288 1338 2009 
Q 1338 2731 1133 3434 
Q 928 4138 513 4856 
z
" transform="scale(0.015625)"/>
      </defs>
      <use xlink:href="#DejaVuSans-4c"/>
      <use xlink:href="#DejaVuSans-65" transform="translate(53.962891 0)"/>
      <use xlink:href="#DejaVuSans-69" transform="translate(115.486328 0)"/>
      <use xlink:href="#DejaVuSans-73" transform="translate(143.269531 0)"/>
      <use xlink:href="#DejaVuSans-74" transform="translate(195.369141 0)"/>
      <use xlink:href="#DejaVuSans-75" transform="translate(234.578125 0)"/>
      <use xlink:href="#DejaVuSans-6e" transform="translate(297.957031 0)"/>
      <use xlink:href="#DejaVuSans-67" transform="translate(361.335938 0)"/>
      <use xlink:href="#DejaVuSans-2f" transform="translate(424.8125 0)"/>
      <use xlink:href="#DejaVuSans-46" transform="translate(458.503906 0)"/>
      <use xlink:href="#DejaVuSans-72" transform="translate(508.773438 0)"/>
      <use xlink:href="#DejaVuSans-65" transform="translate(547.636719 0)"/>
      <use xlink:href="#DejaVuSans-71" transform="translate(609.160156 0)"/>
      <use xlink:href="#DejaVuSans-75" transform="translate(672.636719 0)"/>
      <use xlink:href="#DejaVuSans-65" transform="translate(736.015625 0)"/>
      <use xlink:href="#DejaVuSans-6e" transform="translate(797.539062 0)"/>
      <use xlink:href="#DejaVuSans-7a" transform="translate(860.917969 0)"/>
      <use xlink:href="#DejaVuSans-20" transform="translate(913.408203 0)"/>
      <use xlink:href="#DejaVuSans-28" transform="translate(945.195312 0)"/>
      <use xlink:href="#DejaVuSans-56" transform="translate(984.208984 0)"/>
      <use xlink:href="#DejaVuSans-b2" transform="translate(1052.617188 0)"/>
      <use xlink:href="#DejaVuSans-2f" transform="translate(1092.705078 0)"/>
      <use xlink:href="#DejaVuSans-48" transform="translate(1126.396484 0)"/>
      <use xlink:href="#DejaVuSans-7a" transform="translate(1201.591797 0)"/>
      <use xlink:href="#DejaVuSans-29" transform="translate(1254.082031 0)"/>
     </g>
    </g>
   </g>
   <g id="line2d_45">
    <path d="M 73.832727 311.499285 
L 74.149773 339.294891 
L 74.466818 336.806245 
L 74.783864 228.700462 
L 75.100909 169.937745 
L 75.417955 154.001999 
L 76.052045 165.709502 
L 76.369091 169.840571 
L 77.003182 183.97688 
L 77.320227 187.537061 
L 77.637273 188.992315 
L 77.954318 191.668552 
L 78.588409 200.374379 
L 79.2225 208.245215 
L 79.539545 210.156979 
L 80.173636 219.276866 
L 80.490682 219.03429 
L 81.124773 227.306444 
L 81.441818 225.416877 
L 81.758864 228.351696 
L 82.075909 232.484678 
L 82.71 238.169213 
L 83.027045 237.46378 
L 83.344091 233.313326 
L 83.661136 235.966471 
L 83.978182 241.259633 
L 84.295227 241.410275 
L 84.612273 242.540847 
L 84.929318 245.867759 
L 85.246364 244.188657 
L 85.563409 246.305636 
L 85.880455 250.190104 
L 86.1975 247.412613 
L 86.514545 247.495075 
L 87.148636 249.09691 
L 87.465682 249.228198 
L 87.782727 251.938228 
L 88.099773 251.663545 
L 88.416818 251.739799 
L 88.733864 250.770902 
L 89.050909 253.153565 
L 89.367955 252.855718 
L 90.002045 246.861162 
L 90.319091 247.387187 
L 90.636136 249.420532 
L 90.953182 248.154219 
L 91.270227 245.912859 
L 91.587273 242.793477 
L 91.904318 242.027401 
L 92.221364 244.055776 
L 92.538409 242.997559 
L 92.855455 239.941618 
L 93.1725 238.554567 
L 93.489545 235.672369 
L 93.806591 234.07988 
L 94.123636 231.516475 
L 94.440682 227.26051 
L 94.757727 225.687319 
L 95.074773 226.823272 
L 95.391818 230.442377 
L 96.025909 222.550484 
L 96.342955 222.225247 
L 96.66 222.084862 
L 96.977045 222.975709 
L 97.294091 224.474788 
L 97.611136 224.701738 
L 97.928182 224.360613 
L 98.245227 221.599032 
L 98.562273 220.260335 
L 98.879318 220.646022 
L 99.196364 219.967193 
L 99.830455 214.707299 
L 100.1475 214.161873 
L 100.464545 213.057812 
L 100.781591 216.57019 
L 101.098636 218.371921 
L 101.732727 224.595389 
L 102.049773 226.619766 
L 102.366818 226.722015 
L 103.000909 231.418688 
L 103.317955 231.107695 
L 103.635 233.08409 
L 103.952045 237.176002 
L 104.269091 237.399619 
L 104.586136 238.198759 
L 104.903182 237.048234 
L 105.220227 237.856828 
L 105.537273 239.475064 
L 105.854318 239.517175 
L 106.488409 242.512175 
L 106.805455 242.028449 
L 107.1225 241.992434 
L 107.439545 242.074842 
L 107.756591 241.009376 
L 108.073636 241.268132 
L 108.390682 242.873091 
L 108.707727 242.921988 
L 109.024773 245.216543 
L 109.341818 246.225507 
L 109.975909 243.128716 
L 110.292955 247.701579 
L 110.61 245.722512 
L 110.927045 244.943275 
L 111.244091 241.34808 
L 111.561136 244.712118 
L 111.878182 245.776888 
L 112.195227 244.033378 
L 112.512273 244.075121 
L 112.829318 245.113974 
L 113.146364 241.988789 
L 113.463409 240.838539 
L 114.0975 245.873885 
L 114.414545 246.276203 
L 114.731591 247.758326 
L 115.048636 248.674253 
L 115.365682 249.083023 
L 115.682727 247.889143 
L 115.999773 247.378722 
L 116.316818 246.559551 
L 116.633864 247.001038 
L 116.950909 244.319563 
L 117.267955 245.345071 
L 117.585 249.101802 
L 117.902045 249.631767 
L 118.219091 249.23706 
L 118.536136 250.100462 
L 118.853182 250.495909 
L 119.170227 246.102231 
L 119.487273 246.771266 
L 119.804318 250.452657 
L 120.121364 248.573257 
L 120.438409 248.73978 
L 120.755455 248.440132 
L 121.0725 246.043347 
L 121.389545 247.384957 
L 121.706591 247.866207 
L 122.023636 248.689671 
L 122.340682 247.08991 
L 122.657727 247.456789 
L 122.974773 247.269466 
L 123.291818 246.022555 
L 123.608864 249.933875 
L 123.925909 248.575391 
L 124.56 246.545726 
L 124.877045 246.526083 
L 125.194091 247.302754 
L 125.511136 246.312674 
L 125.828182 246.55665 
L 126.145227 245.718517 
L 126.462273 246.196496 
L 126.779318 248.125037 
L 127.096364 247.44783 
L 127.413409 244.372561 
L 127.730455 248.483545 
L 128.0475 246.069119 
L 128.364545 248.202355 
L 128.681591 247.097635 
L 128.998636 248.248121 
L 129.315682 250.48765 
L 129.632727 248.931747 
L 130.266818 251.644818 
L 130.900909 250.947315 
L 131.217955 251.574532 
L 131.535 253.337563 
L 131.852045 251.75452 
L 132.169091 251.587586 
L 132.486136 254.576091 
L 132.803182 248.896444 
L 133.120227 247.945636 
L 133.437273 247.971506 
L 133.754318 252.025142 
L 134.071364 253.903973 
L 134.388409 253.157106 
L 134.705455 251.66601 
L 135.0225 250.816547 
L 135.339545 251.523433 
L 135.973636 248.386018 
L 136.924773 253.823476 
L 137.241818 253.176215 
L 137.558864 253.311624 
L 137.875909 254.865466 
L 138.192955 253.900441 
L 138.827045 251.006907 
L 139.144091 251.384144 
L 139.461136 250.50223 
L 139.778182 250.817566 
L 140.095227 254.198503 
L 140.412273 251.293165 
L 140.729318 250.716147 
L 141.046364 249.59945 
L 141.363409 246.286736 
L 141.9975 249.279622 
L 142.631591 250.099839 
L 142.948636 250.145257 
L 143.582727 248.173145 
L 143.899773 246.674458 
L 144.216818 246.523364 
L 144.533864 244.372818 
L 144.850909 245.539129 
L 145.167955 245.332853 
L 145.485 243.038159 
L 145.802045 242.314121 
L 146.119091 241.988524 
L 146.436136 244.723034 
L 146.753182 246.229052 
L 147.070227 243.48224 
L 147.387273 243.779969 
L 147.704318 247.474272 
L 148.021364 248.854249 
L 148.338409 247.467241 
L 148.655455 247.095522 
L 148.9725 248.033198 
L 149.289545 248.17394 
L 149.606591 245.843955 
L 149.923636 244.438852 
L 150.240682 244.147099 
L 150.557727 243.220804 
L 150.874773 241.760428 
L 151.508864 244.455572 
L 151.825909 244.179231 
L 152.142955 245.798163 
L 152.777045 244.821404 
L 153.094091 247.239915 
L 153.411136 251.017625 
L 153.728182 245.978253 
L 154.362273 244.839123 
L 154.679318 246.665472 
L 154.996364 246.137981 
L 155.630455 246.663203 
L 155.9475 244.426947 
L 156.264545 247.456828 
L 156.581591 247.39199 
L 156.898636 244.835336 
L 157.215682 243.506069 
L 157.532727 246.922516 
L 157.849773 245.822285 
L 158.166818 242.89327 
L 158.483864 242.992542 
L 158.800909 246.255279 
L 159.117955 247.345092 
L 159.435 251.569406 
L 159.752045 251.613248 
L 160.069091 250.658967 
L 160.386136 248.867091 
L 160.703182 248.929134 
L 161.020227 247.600247 
L 161.337273 244.504252 
L 161.654318 242.749035 
L 161.971364 243.237248 
L 162.288409 246.007402 
L 162.605455 245.660903 
L 162.9225 241.669163 
L 163.239545 243.688772 
L 163.556591 247.964436 
L 163.873636 247.334265 
L 164.190682 244.983336 
L 164.507727 245.286629 
L 164.824773 245.211357 
L 165.141818 245.74051 
L 165.458864 244.173153 
L 166.092955 247.958851 
L 166.41 246.990474 
L 166.727045 247.975585 
L 167.044091 246.152188 
L 167.361136 245.567533 
L 167.678182 244.241382 
L 167.995227 245.462348 
L 168.312273 243.028792 
L 168.629318 244.40527 
L 168.946364 246.964621 
L 169.263409 247.11583 
L 169.580455 246.754093 
L 169.8975 245.087033 
L 170.214545 245.084221 
L 170.531591 244.554953 
L 170.848636 243.16438 
L 171.165682 245.875445 
L 171.482727 244.022598 
L 171.799773 242.938808 
L 172.116818 243.163158 
L 172.433864 246.02551 
L 172.750909 245.760829 
L 173.067955 246.990464 
L 173.385 245.463039 
L 173.702045 245.388103 
L 174.019091 242.961 
L 174.336136 241.4506 
L 174.970227 243.73173 
L 175.287273 244.714598 
L 175.604318 246.78854 
L 175.921364 247.695012 
L 176.238409 247.577556 
L 176.555455 243.052206 
L 176.8725 244.436946 
L 177.189545 243.359894 
L 177.506591 243.50916 
L 177.823636 242.207226 
L 178.140682 240.19603 
L 178.457727 241.028722 
L 179.091818 239.952145 
L 179.408864 243.225762 
L 179.725909 241.335115 
L 180.042955 241.330734 
L 180.36 241.799383 
L 180.677045 242.911236 
L 180.994091 240.722612 
L 181.311136 239.576573 
L 181.628182 239.849401 
L 181.945227 243.012862 
L 182.262273 242.16716 
L 182.579318 242.118758 
L 182.896364 243.186722 
L 183.530455 240.022276 
L 183.8475 243.365163 
L 184.164545 243.885352 
L 184.481591 241.377717 
L 184.798636 241.384405 
L 185.115682 240.980355 
L 185.432727 240.212168 
L 185.749773 241.549179 
L 186.066818 243.391713 
L 186.700909 242.869947 
L 187.017955 243.241554 
L 187.652045 239.078562 
L 187.969091 241.017655 
L 188.286136 241.682523 
L 188.603182 241.597452 
L 188.920227 242.984222 
L 189.554318 241.815956 
L 189.871364 243.039752 
L 190.188409 242.701639 
L 190.505455 242.575653 
L 191.139545 241.2009 
L 191.456591 242.471684 
L 191.773636 241.36007 
L 192.090682 242.0123 
L 192.407727 241.74452 
L 192.724773 241.884752 
L 193.041818 243.234766 
L 193.358864 240.090838 
L 193.675909 240.303908 
L 193.992955 238.03896 
L 194.31 236.772469 
L 194.627045 236.559597 
L 194.944091 238.100533 
L 195.578182 242.697769 
L 195.895227 240.338542 
L 196.212273 236.083717 
L 196.846364 239.771359 
L 197.163409 239.321294 
L 197.480455 237.318687 
L 197.7975 240.248756 
L 198.114545 241.365414 
L 198.431591 236.110207 
L 198.748636 237.732643 
L 199.065682 237.926583 
L 199.382727 238.680421 
L 199.699773 241.51603 
L 200.016818 239.432318 
L 200.333864 238.168489 
L 200.650909 239.292753 
L 200.967955 238.079664 
L 201.285 236.379017 
L 201.602045 238.776074 
L 202.236136 241.33901 
L 202.553182 239.502157 
L 202.870227 236.592132 
L 203.187273 238.301648 
L 203.504318 237.77248 
L 203.821364 238.455528 
L 204.138409 237.69494 
L 204.455455 239.387628 
L 204.7725 236.33209 
L 205.089545 239.480912 
L 205.406591 240.357043 
L 205.723636 239.535344 
L 206.040682 240.649309 
L 206.357727 237.796219 
L 206.674773 237.343462 
L 206.991818 235.198985 
L 207.308864 235.941873 
L 207.625909 238.88924 
L 207.942955 238.983123 
L 208.26 237.324607 
L 208.577045 240.696139 
L 208.894091 238.843967 
L 209.528182 240.495797 
L 209.845227 240.164858 
L 210.162273 236.394933 
L 210.479318 234.010544 
L 211.113409 240.016946 
L 211.7475 236.3708 
L 212.064545 237.158691 
L 212.381591 240.901399 
L 212.698636 237.674324 
L 213.015682 233.259638 
L 213.332727 235.829794 
L 213.649773 235.608737 
L 213.966818 236.401657 
L 214.283864 238.295011 
L 214.917955 239.035095 
L 215.235 240.041274 
L 215.552045 236.990374 
L 215.869091 236.318219 
L 216.186136 234.358782 
L 216.503182 235.313228 
L 216.820227 237.524194 
L 217.137273 236.79638 
L 217.454318 234.817195 
L 217.771364 234.168589 
L 218.088409 236.409222 
L 218.405455 235.51549 
L 218.7225 234.27088 
L 219.039545 237.34524 
L 219.356591 236.17136 
L 219.673636 236.015988 
L 219.990682 237.788795 
L 220.307727 237.536659 
L 220.624773 236.099519 
L 220.941818 235.99961 
L 221.258864 237.57701 
L 221.575909 234.397538 
L 221.892955 233.247986 
L 222.21 235.308182 
L 222.527045 238.162238 
L 222.844091 236.106252 
L 223.161136 237.002984 
L 223.478182 233.844098 
L 223.795227 234.156988 
L 224.112273 235.694626 
L 224.429318 232.431044 
L 224.746364 235.38878 
L 225.063409 233.333506 
L 225.380455 237.263137 
L 225.6975 235.661554 
L 226.014545 236.006829 
L 226.331591 236.898903 
L 226.648636 236.064054 
L 226.965682 234.486885 
L 227.282727 235.530799 
L 227.599773 234.505191 
L 227.916818 235.17979 
L 228.550909 239.262885 
L 228.867955 236.104914 
L 229.185 236.644506 
L 229.502045 230.662389 
L 229.819091 229.356666 
L 230.136136 234.240991 
L 230.453182 233.311004 
L 230.770227 236.283012 
L 231.087273 236.236742 
L 231.404318 233.137242 
L 231.721364 232.786622 
L 232.038409 234.838113 
L 232.355455 233.702566 
L 232.6725 230.147308 
L 232.989545 233.646011 
L 233.306591 239.164456 
L 233.623636 237.790023 
L 233.940682 235.737136 
L 234.257727 236.373354 
L 234.574773 236.710509 
L 234.891818 236.51808 
L 235.208864 233.842481 
L 235.525909 232.851448 
L 235.842955 233.452269 
L 236.16 235.107152 
L 236.477045 233.128338 
L 237.111136 234.846028 
L 237.428182 232.663483 
L 237.745227 232.674233 
L 238.062273 232.029548 
L 238.379318 235.936753 
L 238.696364 234.147094 
L 239.6475 232.318111 
L 239.964545 235.784274 
L 240.281591 235.278732 
L 240.598636 235.080235 
L 240.915682 232.299213 
L 241.232727 232.190793 
L 241.549773 232.659636 
L 241.866818 234.787281 
L 242.183864 232.526402 
L 242.500909 232.219963 
L 242.817955 233.969143 
L 243.135 234.31309 
L 243.452045 231.247858 
L 243.769091 234.865491 
L 244.086136 236.070405 
L 244.403182 233.234448 
L 244.720227 232.836974 
L 245.354318 231.585076 
L 245.671364 235.720948 
L 245.988409 230.58583 
L 246.305455 230.163243 
L 246.6225 230.806753 
L 246.939545 232.245306 
L 247.256591 234.59951 
L 247.890682 231.115335 
L 248.207727 231.573037 
L 248.524773 229.662194 
L 248.841818 233.581056 
L 249.158864 230.257938 
L 249.475909 231.703152 
L 249.792955 234.529062 
L 250.11 230.265554 
L 250.427045 228.779284 
L 250.744091 229.796441 
L 251.061136 233.127751 
L 251.378182 231.708916 
L 251.695227 228.820194 
L 252.012273 229.953912 
L 252.329318 228.320234 
L 252.646364 229.628997 
L 252.963409 228.935432 
L 253.280455 233.415877 
L 253.5975 234.983312 
L 253.914545 232.762807 
L 254.231591 232.4337 
L 254.548636 232.330848 
L 254.865682 231.651013 
L 255.182727 230.166737 
L 255.499773 229.849298 
L 255.816818 231.221031 
L 256.133864 230.985629 
L 256.450909 230.943947 
L 256.767955 231.529239 
L 257.085 228.678157 
L 258.036136 231.281582 
L 258.353182 230.376405 
L 258.670227 228.690284 
L 258.987273 230.579661 
L 259.304318 230.851716 
L 259.621364 228.891381 
L 259.938409 232.092171 
L 260.255455 230.0692 
L 260.5725 229.406679 
L 260.889545 231.336985 
L 261.206591 229.135851 
L 261.840682 233.378888 
L 262.157727 234.78557 
L 262.474773 230.030023 
L 262.791818 230.340181 
L 263.108864 231.219547 
L 263.425909 229.547548 
L 263.742955 226.715103 
L 264.06 230.606807 
L 264.377045 231.679518 
L 265.011136 229.567056 
L 265.328182 229.902112 
L 265.645227 229.452477 
L 266.279318 229.290798 
L 266.913409 227.322244 
L 267.230455 231.056036 
L 267.5475 231.52665 
L 268.181591 229.931694 
L 268.498636 231.47969 
L 268.815682 235.604633 
L 269.132727 230.89139 
L 269.449773 228.064239 
L 269.766818 229.702428 
L 270.083864 230.630765 
L 270.400909 226.805301 
L 270.717955 224.539914 
L 271.035 226.755363 
L 271.352045 230.714778 
L 271.669091 228.58647 
L 271.986136 229.490543 
L 272.303182 228.636427 
L 272.620227 228.856917 
L 272.937273 228.189906 
L 273.254318 228.205767 
L 273.571364 230.858059 
L 273.888409 230.96362 
L 274.5225 230.02132 
L 274.839545 230.000441 
L 275.156591 229.43281 
L 275.473636 227.380836 
L 275.790682 230.665141 
L 276.424773 227.15369 
L 276.741818 229.123774 
L 277.058864 227.625873 
L 277.375909 231.261136 
L 277.692955 232.899826 
L 278.327045 230.213911 
L 278.644091 231.324482 
L 278.961136 231.828343 
L 279.278182 231.362344 
L 279.595227 230.184174 
L 280.229318 229.117568 
L 280.546364 227.768052 
L 280.863409 228.048351 
L 281.180455 228.620536 
L 281.4975 227.745317 
L 281.814545 227.664514 
L 282.448636 231.053765 
L 282.765682 227.836891 
L 283.082727 226.489322 
L 283.399773 226.352577 
L 283.716818 227.513582 
L 284.033864 225.151755 
L 284.350909 225.018992 
L 284.667955 231.448833 
L 284.985 231.56289 
L 285.302045 229.152996 
L 285.619091 229.996005 
L 285.936136 231.713323 
L 286.253182 230.672115 
L 286.570227 231.565458 
L 286.887273 228.454731 
L 287.204318 229.600521 
L 287.521364 229.433069 
L 288.155455 233.683439 
L 288.4725 231.516327 
L 288.789545 228.14149 
L 289.106591 227.919169 
L 289.423636 227.378877 
L 289.740682 229.409677 
L 290.057727 230.372377 
L 290.374773 228.555185 
L 290.691818 227.535655 
L 291.008864 229.048095 
L 291.325909 231.476521 
L 291.642955 231.812193 
L 292.277045 229.930156 
L 292.594091 227.051747 
L 292.911136 226.490058 
L 293.862273 229.985176 
L 294.179318 233.769583 
L 294.496364 231.120012 
L 294.813409 225.326844 
L 295.4475 228.769936 
L 295.764545 228.79178 
L 296.081591 229.209808 
L 296.398636 227.180388 
L 296.715682 228.328718 
L 297.032727 230.219675 
L 297.349773 231.16476 
L 297.666818 232.541681 
L 298.617955 224.132891 
L 298.935 225.158573 
L 299.252045 227.850992 
L 299.569091 228.439505 
L 299.886136 229.769295 
L 300.520227 225.05566 
L 301.471364 229.80223 
L 301.788409 226.297664 
L 302.105455 224.264559 
L 302.4225 225.748945 
L 302.739545 226.480953 
L 303.056591 230.16986 
L 303.373636 230.842419 
L 303.690682 229.721249 
L 304.007727 229.881215 
L 304.324773 228.502242 
L 304.641818 224.563494 
L 304.958864 224.977502 
L 305.275909 224.328466 
L 305.592955 225.840597 
L 305.91 224.990521 
L 306.227045 223.565911 
L 306.544091 223.708669 
L 306.861136 224.797669 
L 307.178182 223.501598 
L 307.495227 225.472073 
L 307.812273 226.728119 
L 308.129318 225.479027 
L 308.446364 225.65233 
L 308.763409 222.856486 
L 309.3975 227.636254 
L 309.714545 224.995891 
L 310.031591 225.409356 
L 310.665682 225.688014 
L 310.982727 224.862077 
L 311.299773 226.337901 
L 311.616818 230.327071 
L 311.933864 227.021858 
L 312.250909 226.441453 
L 312.567955 226.541653 
L 313.202045 230.714324 
L 313.836136 224.043108 
L 314.153182 225.455148 
L 314.470227 227.833334 
L 314.787273 227.797012 
L 315.104318 228.18864 
L 315.738409 225.552419 
L 316.3725 232.786159 
L 316.689545 229.38571 
L 317.006591 229.655119 
L 317.323636 229.126293 
L 317.640682 224.911727 
L 317.957727 224.487569 
L 318.274773 227.526829 
L 318.591818 227.371058 
L 319.225909 221.275823 
L 319.542955 223.396203 
L 319.86 228.804693 
L 320.177045 230.159163 
L 320.494091 228.80812 
L 320.811136 223.739221 
L 321.128182 222.257295 
L 321.445227 222.687421 
L 321.762273 229.532732 
L 322.079318 228.682024 
L 322.396364 225.404633 
L 322.713409 225.885523 
L 323.030455 227.018995 
L 323.3475 225.212558 
L 323.664545 224.13401 
L 323.981591 225.312606 
L 324.298636 223.384714 
L 324.615682 223.536191 
L 324.932727 224.212916 
L 325.249773 225.556235 
L 325.566818 225.157296 
L 325.883864 226.568325 
L 326.200909 224.649654 
L 326.517955 221.105377 
L 326.835 222.184785 
L 327.152045 222.103244 
L 327.469091 224.389971 
L 327.786136 222.379827 
L 328.103182 223.17985 
L 328.420227 225.805928 
L 329.054318 223.88627 
L 329.371364 224.13552 
L 329.688409 226.702327 
L 330.005455 226.984941 
L 330.3225 225.50166 
L 330.639545 226.143278 
L 330.956591 225.012521 
L 331.273636 224.419636 
L 331.590682 223.230241 
L 331.907727 227.298258 
L 332.224773 227.907632 
L 332.541818 230.033425 
L 332.858864 226.559605 
L 333.175909 224.887351 
L 333.492955 226.824398 
L 333.81 227.123395 
L 334.127045 225.25836 
L 334.444091 229.529704 
L 334.761136 228.143561 
L 335.078182 224.381563 
L 335.395227 226.019427 
L 335.712273 224.811015 
L 336.029318 225.760015 
L 336.346364 226.237914 
L 336.663409 229.536866 
L 336.980455 230.412587 
L 337.2975 229.932182 
L 337.614545 227.884572 
L 337.931591 224.068441 
L 338.565682 228.917946 
L 338.882727 224.796767 
L 339.199773 224.274285 
L 339.516818 225.346309 
L 339.833864 225.920754 
L 340.150909 228.09401 
L 340.467955 227.439982 
L 340.785 227.767556 
L 341.102045 227.763376 
L 341.419091 227.387739 
L 341.736136 228.932792 
L 342.053182 228.932595 
L 342.687273 232.351563 
L 343.004318 231.549278 
L 343.321364 232.53362 
L 343.638409 232.821323 
L 343.955455 231.520268 
L 344.2725 233.417581 
L 344.589545 231.53596 
L 344.906591 228.006987 
L 345.223636 229.426509 
L 345.540682 229.082374 
L 345.857727 227.952864 
L 346.174773 231.419449 
L 346.491818 232.818273 
L 346.808864 229.856273 
L 347.125909 229.061475 
L 347.76 232.925897 
L 348.077045 234.8152 
L 348.394091 231.343153 
L 348.711136 231.587328 
L 349.028182 236.993097 
L 349.345227 239.144439 
L 349.662273 234.272135 
L 349.979318 233.573149 
L 350.296364 237.922436 
L 350.613409 238.208748 
L 350.930455 238.019599 
L 351.2475 236.937395 
L 352.198636 239.666633 
L 352.515682 240.272202 
L 352.832727 235.236071 
L 353.149773 239.126299 
L 353.466818 240.539716 
L 353.783864 240.723183 
L 354.100909 241.121238 
L 354.417955 239.141948 
L 354.735 241.968841 
L 355.052045 243.746595 
L 355.369091 243.328237 
L 355.686136 243.74526 
L 356.003182 242.74063 
L 356.320227 243.731422 
L 356.637273 245.682692 
L 356.954318 243.868417 
L 357.271364 243.51487 
L 357.905455 245.310237 
L 358.2225 244.766891 
L 358.539545 247.248336 
L 358.856591 248.179844 
L 359.173636 247.166655 
L 359.490682 246.672614 
L 359.807727 248.212544 
L 360.124773 251.927963 
L 360.758864 249.713372 
L 361.075909 249.196568 
L 361.71 252.638521 
L 362.027045 251.768043 
L 362.661136 260.239579 
L 362.978182 261.137969 
L 363.295227 260.027186 
L 363.612273 260.379345 
L 363.929318 258.723043 
L 364.246364 259.166527 
L 364.563409 258.340668 
L 364.880455 259.728241 
L 365.1975 261.998405 
L 365.514545 263.089033 
L 365.831591 263.147501 
L 366.465682 261.282788 
L 366.782727 261.346801 
L 367.099773 265.107112 
L 367.733864 269.53534 
L 368.050909 268.360966 
L 368.367955 270.699429 
L 368.685 268.375385 
L 369.319091 272.358186 
L 369.636136 273.053367 
L 369.953182 273.297524 
L 370.270227 274.269392 
L 370.587273 275.938326 
L 370.904318 275.681116 
L 371.221364 273.391375 
L 371.538409 277.72249 
L 371.855455 279.151602 
L 372.1725 277.275346 
L 372.489545 278.775367 
L 372.806591 278.259378 
L 373.123636 278.564645 
L 373.440682 280.251066 
L 373.757727 278.30915 
L 374.074773 281.552716 
L 374.391818 283.269199 
L 374.708864 281.570177 
L 375.025909 285.663336 
L 375.342955 285.648082 
L 375.66 285.068843 
L 375.977045 287.525752 
L 376.294091 287.628031 
L 376.611136 291.83591 
L 377.245227 289.560602 
L 377.562273 291.614452 
L 377.879318 291.965562 
L 378.196364 293.303858 
L 378.513409 295.57188 
L 378.830455 296.459293 
L 379.1475 295.503617 
L 379.781591 297.318188 
L 380.098636 300.934982 
L 380.415682 300.211195 
L 380.732727 297.033511 
L 381.049773 298.868862 
L 381.366818 297.112752 
L 381.683864 301.584953 
L 382.317955 302.598171 
L 382.635 300.273523 
L 383.269091 302.590672 
L 383.586136 302.87638 
L 383.903182 303.348695 
L 384.220227 302.592721 
L 384.537273 307.908525 
L 384.854318 308.232975 
L 385.171364 308.026399 
L 385.488409 313.442709 
L 385.805455 310.403405 
L 386.1225 306.225737 
L 386.439545 307.858731 
L 386.756591 313.847391 
L 387.073636 315.275359 
L 387.390682 314.743095 
L 387.707727 316.19717 
L 388.024773 316.762983 
L 388.341818 317.000521 
L 388.658864 318.196485 
L 388.975909 313.914568 
L 389.292955 311.495423 
L 389.61 314.585294 
L 389.927045 316.259588 
L 390.244091 316.556911 
L 390.561136 318.16146 
L 391.195227 316.610935 
L 391.829318 319.660004 
L 392.146364 318.918804 
L 392.463409 319.338504 
L 392.780455 320.595787 
L 393.0975 317.913288 
L 393.414545 321.715738 
L 393.731591 319.765475 
L 394.048636 322.436245 
L 394.365682 323.687673 
L 394.682727 326.444574 
L 394.999773 326.034985 
L 395.316818 323.125867 
L 395.633864 323.709431 
L 395.950909 327.013727 
L 396.267955 327.56444 
L 396.585 326.534499 
L 397.219091 320.581573 
L 397.853182 324.480786 
L 398.196605 346.6 
L 398.196605 346.6 
" clip-path="url(#p3e4dd256d8)" style="fill: none; stroke: #1f77b4; stroke-width: 1.5; stroke-linecap: square"/>
   </g>
   <g id="patch_3">
    <path d="M 57.6 307.584 
L 57.6 41.472 
" style="fill: none; stroke: #000000; stroke-width: 0.8; stroke-linejoin: miter; stroke-linecap: square"/>
   </g>
   <g id="patch_4">
    <path d="M 414.72 307.584 
L 414.72 41.472 
" style="fill: none; stroke: #000000; stroke-width: 0.8; stroke-linejoin: miter; stroke-linecap: square"/>
   </g>
   <g id="patch_5">
    <path d="M 57.6 307.584 
L 414.72 307.584 
" style="fill: none; stroke: #000000; stroke-width: 0.8; stroke-linejoin: miter; stroke-linecap: square"/>
   </g>
   <g id="patch_6">
    <path d="M 57.6 41.472 
L 414.72 41.472 
" style="fill: none; stroke: #000000; stroke-width: 0.8; stroke-linejoin: miter; stroke-linecap: square"/>
   </g>
   <g id="text_15">
    <!-- Power Spektrum des EEG Signals von Kanal F7-T3 -->
    <g transform="translate(86.964375 35.472) scale(0.12 -0.12)">
     <defs>
      <path id="DejaVuSans-50" d="M 1259 4147 
L 1259 2394 
L 2053 2394 
Q 2494 2394 2734 2622 
Q 2975 2850 2975 3272 
Q 2975 3691 2734 3919 
Q 2494 4147 2053 4147 
L 1259 4147 
z
M 628 4666 
L 2053 4666 
Q 2838 4666 3239 4311 
Q 3641 3956 3641 3272 
Q 3641 2581 3239 2228 
Q 2838 1875 2053 1875 
L 1259 1875 
L 1259 0 
L 628 0 
L 628 4666 
z
" transform="scale(0.015625)"/>
      <path id="DejaVuSans-6f" d="M 1959 3097 
Q 1497 3097 1228 2736 
Q 959 2375 959 1747 
Q 959 1119 1226 758 
Q 1494 397 1959 397 
Q 2419 397 2687 759 
Q 2956 1122 2956 1747 
Q 2956 2369 2687 2733 
Q 2419 3097 1959 3097 
z
M 1959 3584 
Q 2709 3584 3137 3096 
Q 3566 2609 3566 1747 
Q 3566 888 3137 398 
Q 2709 -91 1959 -91 
Q 1206 -91 779 398 
Q 353 888 353 1747 
Q 353 2609 779 3096 
Q 1206 3584 1959 3584 
z
" transform="scale(0.015625)"/>
      <path id="DejaVuSans-77" d="M 269 3500 
L 844 3500 
L 1563 769 
L 2278 3500 
L 2956 3500 
L 3675 769 
L 4391 3500 
L 4966 3500 
L 4050 0 
L 3372 0 
L 2619 2869 
L 1863 0 
L 1184 0 
L 269 3500 
z
" transform="scale(0.015625)"/>
      <path id="DejaVuSans-53" d="M 3425 4513 
L 3425 3897 
Q 3066 4069 2747 4153 
Q 2428 4238 2131 4238 
Q 1616 4238 1336 4038 
Q 1056 3838 1056 3469 
Q 1056 3159 1242 3001 
Q 1428 2844 1947 2747 
L 2328 2669 
Q 3034 2534 3370 2195 
Q 3706 1856 3706 1288 
Q 3706 609 3251 259 
Q 2797 -91 1919 -91 
Q 1588 -91 1214 -16 
Q 841 59 441 206 
L 441 856 
Q 825 641 1194 531 
Q 1563 422 1919 422 
Q 2459 422 2753 634 
Q 3047 847 3047 1241 
Q 3047 1584 2836 1778 
Q 2625 1972 2144 2069 
L 1759 2144 
Q 1053 2284 737 2584 
Q 422 2884 422 3419 
Q 422 4038 858 4394 
Q 1294 4750 2059 4750 
Q 2388 4750 2728 4690 
Q 3069 4631 3425 4513 
z
" transform="scale(0.015625)"/>
      <path id="DejaVuSans-70" d="M 1159 525 
L 1159 -1331 
L 581 -1331 
L 581 3500 
L 1159 3500 
L 1159 2969 
Q 1341 3281 1617 3432 
Q 1894 3584 2278 3584 
Q 2916 3584 3314 3078 
Q 3713 2572 3713 1747 
Q 3713 922 3314 415 
Q 2916 -91 2278 -91 
Q 1894 -91 1617 61 
Q 1341 213 1159 525 
z
M 3116 1747 
Q 3116 2381 2855 2742 
Q 2594 3103 2138 3103 
Q 1681 3103 1420 2742 
Q 1159 2381 1159 1747 
Q 1159 1113 1420 752 
Q 1681 391 2138 391 
Q 2594 391 2855 752 
Q 3116 1113 3116 1747 
z
" transform="scale(0.015625)"/>
      <path id="DejaVuSans-6b" d="M 581 4863 
L 1159 4863 
L 1159 1991 
L 2875 3500 
L 3609 3500 
L 1753 1863 
L 3688 0 
L 2938 0 
L 1159 1709 
L 1159 0 
L 581 0 
L 581 4863 
z
" transform="scale(0.015625)"/>
      <path id="DejaVuSans-6d" d="M 3328 2828 
Q 3544 3216 3844 3400 
Q 4144 3584 4550 3584 
Q 5097 3584 5394 3201 
Q 5691 2819 5691 2113 
L 5691 0 
L 5113 0 
L 5113 2094 
Q 5113 2597 4934 2840 
Q 4756 3084 4391 3084 
Q 3944 3084 3684 2787 
Q 3425 2491 3425 1978 
L 3425 0 
L 2847 0 
L 2847 2094 
Q 2847 2600 2669 2842 
Q 2491 3084 2119 3084 
Q 1678 3084 1418 2786 
Q 1159 2488 1159 1978 
L 1159 0 
L 581 0 
L 581 3500 
L 1159 3500 
L 1159 2956 
Q 1356 3278 1631 3431 
Q 1906 3584 2284 3584 
Q 2666 3584 2933 3390 
Q 3200 3197 3328 2828 
z
" transform="scale(0.015625)"/>
      <path id="DejaVuSans-64" d="M 2906 2969 
L 2906 4863 
L 3481 4863 
L 3481 0 
L 2906 0 
L 2906 525 
Q 2725 213 2448 61 
Q 2172 -91 1784 -91 
Q 1150 -91 751 415 
Q 353 922 353 1747 
Q 353 2572 751 3078 
Q 1150 3584 1784 3584 
Q 2172 3584 2448 3432 
Q 2725 3281 2906 2969 
z
M 947 1747 
Q 947 1113 1208 752 
Q 1469 391 1925 391 
Q 2381 391 2643 752 
Q 2906 1113 2906 1747 
Q 2906 2381 2643 2742 
Q 2381 3103 1925 3103 
Q 1469 3103 1208 2742 
Q 947 2381 947 1747 
z
" transform="scale(0.015625)"/>
      <path id="DejaVuSans-45" d="M 628 4666 
L 3578 4666 
L 3578 4134 
L 1259 4134 
L 1259 2753 
L 3481 2753 
L 3481 2222 
L 1259 2222 
L 1259 531 
L 3634 531 
L 3634 0 
L 628 0 
L 628 4666 
z
" transform="scale(0.015625)"/>
      <path id="DejaVuSans-47" d="M 3809 666 
L 3809 1919 
L 2778 1919 
L 2778 2438 
L 4434 2438 
L 4434 434 
Q 4069 175 3628 42 
Q 3188 -91 2688 -91 
Q 1594 -91 976 548 
Q 359 1188 359 2328 
Q 359 3472 976 4111 
Q 1594 4750 2688 4750 
Q 3144 4750 3555 4637 
Q 3966 4525 4313 4306 
L 4313 3634 
Q 3963 3931 3569 4081 
Q 3175 4231 2741 4231 
Q 1884 4231 1454 3753 
Q 1025 3275 1025 2328 
Q 1025 1384 1454 906 
Q 1884 428 2741 428 
Q 3075 428 3337 486 
Q 3600 544 3809 666 
z
" transform="scale(0.015625)"/>
      <path id="DejaVuSans-61" d="M 2194 1759 
Q 1497 1759 1228 1600 
Q 959 1441 959 1056 
Q 959 750 1161 570 
Q 1363 391 1709 391 
Q 2188 391 2477 730 
Q 2766 1069 2766 1631 
L 2766 1759 
L 2194 1759 
z
M 3341 1997 
L 3341 0 
L 2766 0 
L 2766 531 
Q 2569 213 2275 61 
Q 1981 -91 1556 -91 
Q 1019 -91 701 211 
Q 384 513 384 1019 
Q 384 1609 779 1909 
Q 1175 2209 1959 2209 
L 2766 2209 
L 2766 2266 
Q 2766 2663 2505 2880 
Q 2244 3097 1772 3097 
Q 1472 3097 1187 3025 
Q 903 2953 641 2809 
L 641 3341 
Q 956 3463 1253 3523 
Q 1550 3584 1831 3584 
Q 2591 3584 2966 3190 
Q 3341 2797 3341 1997 
z
" transform="scale(0.015625)"/>
      <path id="DejaVuSans-6c" d="M 603 4863 
L 1178 4863 
L 1178 0 
L 603 0 
L 603 4863 
z
" transform="scale(0.015625)"/>
      <path id="DejaVuSans-76" d="M 191 3500 
L 800 3500 
L 1894 563 
L 2988 3500 
L 3597 3500 
L 2284 0 
L 1503 0 
L 191 3500 
z
" transform="scale(0.015625)"/>
      <path id="DejaVuSans-4b" d="M 628 4666 
L 1259 4666 
L 1259 2694 
L 3353 4666 
L 4166 4666 
L 1850 2491 
L 4331 0 
L 3500 0 
L 1259 2247 
L 1259 0 
L 628 0 
L 628 4666 
z
" transform="scale(0.015625)"/>
      <path id="DejaVuSans-37" d="M 525 4666 
L 3525 4666 
L 3525 4397 
L 1831 0 
L 1172 0 
L 2766 4134 
L 525 4134 
L 525 4666 
z
" transform="scale(0.015625)"/>
      <path id="DejaVuSans-2d" d="M 313 2009 
L 1997 2009 
L 1997 1497 
L 313 1497 
L 313 2009 
z
" transform="scale(0.015625)"/>
      <path id="DejaVuSans-54" d="M -19 4666 
L 3928 4666 
L 3928 4134 
L 2272 4134 
L 2272 0 
L 1638 0 
L 1638 4134 
L -19 4134 
L -19 4666 
z
" transform="scale(0.015625)"/>
     </defs>
     <use xlink:href="#DejaVuSans-50"/>
     <use xlink:href="#DejaVuSans-6f" transform="translate(56.677734 0)"/>
     <use xlink:href="#DejaVuSans-77" transform="translate(117.859375 0)"/>
     <use xlink:href="#DejaVuSans-65" transform="translate(199.646484 0)"/>
     <use xlink:href="#DejaVuSans-72" transform="translate(261.169922 0)"/>
     <use xlink:href="#DejaVuSans-20" transform="translate(302.283203 0)"/>
     <use xlink:href="#DejaVuSans-53" transform="translate(334.070312 0)"/>
     <use xlink:href="#DejaVuSans-70" transform="translate(397.546875 0)"/>
     <use xlink:href="#DejaVuSans-65" transform="translate(461.023438 0)"/>
     <use xlink:href="#DejaVuSans-6b" transform="translate(522.546875 0)"/>
     <use xlink:href="#DejaVuSans-74" transform="translate(580.457031 0)"/>
     <use xlink:href="#DejaVuSans-72" transform="translate(619.666016 0)"/>
     <use xlink:href="#DejaVuSans-75" transform="translate(660.779297 0)"/>
     <use xlink:href="#DejaVuSans-6d" transform="translate(724.158203 0)"/>
     <use xlink:href="#DejaVuSans-20" transform="translate(821.570312 0)"/>
     <use xlink:href="#DejaVuSans-64" transform="translate(853.357422 0)"/>
     <use xlink:href="#DejaVuSans-65" transform="translate(916.833984 0)"/>
     <use xlink:href="#DejaVuSans-73" transform="translate(978.357422 0)"/>
     <use xlink:href="#DejaVuSans-20" transform="translate(1030.457031 0)"/>
     <use xlink:href="#DejaVuSans-45" transform="translate(1062.244141 0)"/>
     <use xlink:href="#DejaVuSans-45" transform="translate(1125.427734 0)"/>
     <use xlink:href="#DejaVuSans-47" transform="translate(1188.611328 0)"/>
     <use xlink:href="#DejaVuSans-20" transform="translate(1266.101562 0)"/>
     <use xlink:href="#DejaVuSans-53" transform="translate(1297.888672 0)"/>
     <use xlink:href="#DejaVuSans-69" transform="translate(1361.365234 0)"/>
     <use xlink:href="#DejaVuSans-67" transform="translate(1389.148438 0)"/>
     <use xlink:href="#DejaVuSans-6e" transform="translate(1452.625 0)"/>
     <use xlink:href="#DejaVuSans-61" transform="translate(1516.003906 0)"/>
     <use xlink:href="#DejaVuSans-6c" transform="translate(1577.283203 0)"/>
     <use xlink:href="#DejaVuSans-73" transform="translate(1605.066406 0)"/>
     <use xlink:href="#DejaVuSans-20" transform="translate(1657.166016 0)"/>
     <use xlink:href="#DejaVuSans-76" transform="translate(1688.953125 0)"/>
     <use xlink:href="#DejaVuSans-6f" transform="translate(1748.132812 0)"/>
     <use xlink:href="#DejaVuSans-6e" transform="translate(1809.314453 0)"/>
     <use xlink:href="#DejaVuSans-20" transform="translate(1872.693359 0)"/>
     <use xlink:href="#DejaVuSans-4b" transform="translate(1904.480469 0)"/>
     <use xlink:href="#DejaVuSans-61" transform="translate(1968.306641 0)"/>
     <use xlink:href="#DejaVuSans-6e" transform="translate(2029.585938 0)"/>
     <use xlink:href="#DejaVuSans-61" transform="translate(2092.964844 0)"/>
     <use xlink:href="#DejaVuSans-6c" transform="translate(2154.244141 0)"/>
     <use xlink:href="#DejaVuSans-20" transform="translate(2182.027344 0)"/>
     <use xlink:href="#DejaVuSans-46" transform="translate(2213.814453 0)"/>
     <use xlink:href="#DejaVuSans-37" transform="translate(2271.333984 0)"/>
     <use xlink:href="#DejaVuSans-2d" transform="translate(2334.957031 0)"/>
     <use xlink:href="#DejaVuSans-54" transform="translate(2361.916016 0)"/>
     <use xlink:href="#DejaVuSans-33" transform="translate(2423 0)"/>
    </g>
   </g>
  </g>
 </g>
 <defs>
  <clipPath id="p3e4dd256d8">
   <rect x="57.6" y="41.472" width="357.12" height="266.112"/>
  </clipPath>
 </defs>
</svg>
