<?xml version="1.0" encoding="utf-8" standalone="no"?>
<!DOCTYPE svg PUBLIC "-//W3C//DTD SVG 1.1//EN"
  "http://www.w3.org/Graphics/SVG/1.1/DTD/svg11.dtd">
<svg xmlns:xlink="http://www.w3.org/1999/xlink" width="460.8pt" height="345.6pt" viewBox="0 0 460.8 345.6" xmlns="http://www.w3.org/2000/svg" version="1.1">
 <metadata>
  <rdf:RDF xmlns:dc="http://purl.org/dc/elements/1.1/" xmlns:cc="http://creativecommons.org/ns#" xmlns:rdf="http://www.w3.org/1999/02/22-rdf-syntax-ns#">
   <cc:Work>
    <dc:type rdf:resource="http://purl.org/dc/dcmitype/StillImage"/>
    <dc:date>2025-10-31T17:24:08.577671</dc:date>
    <dc:format>image/svg+xml</dc:format>
    <dc:creator>
     <cc:Agent>
      <dc:title>Matplotlib v3.10.7, https://matplotlib.org/</dc:title>
     </cc:Agent>
    </dc:creator>
   </cc:Work>
  </rdf:RDF>
 </metadata>
 <defs>
  <style type="text/css">*{stroke-linejoin: round; stroke-linecap: butt}</style>
 </defs>
 <g id="figure_1">
  <g id="patch_1">
   <path d="M 0 345.6 
L 460.8 345.6 
L 460.8 0 
L 0 0 
z
" style="fill: #ffffff"/>
  </g>
  <g id="axes_1">
   <g id="patch_2">
    <path d="M 57.6 307.584 
L 414.72 307.584 
L 414.72 41.472 
L 57.6 41.472 
z
" style="fill: #ffffff"/>
   </g>
   <g id="matplotlib.axis_1">
    <g id="xtick_1">
     <g id="line2d_1">
      <defs>
       <path id="ma5429ff72c" d="M 0 0 
L 0 3.5 
" style="stroke: #000000; stroke-width: 0.8"/>
      </defs>
      <g>
       <use xlink:href="#ma5429ff72c" x="73.832727" y="307.584" style="stroke: #000000; stroke-width: 0.8"/>
      </g>
     </g>
     <g id="text_1">
      <!-- 0 -->
      <g transform="translate(70.651477 322.182437) scale(0.1 -0.1)">
       <defs>
        <path id="DejaVuSans-30" d="M 2034 4250 
Q 1547 4250 1301 3770 
Q 1056 3291 1056 2328 
Q 1056 1369 1301 889 
Q 1547 409 2034 409 
Q 2525 409 2770 889 
Q 3016 1369 3016 2328 
Q 3016 3291 2770 3770 
Q 2525 4250 2034 4250 
z
M 2034 4750 
Q 2819 4750 3233 4129 
Q 3647 3509 3647 2328 
Q 3647 1150 3233 529 
Q 2819 -91 2034 -91 
Q 1250 -91 836 529 
Q 422 1150 422 2328 
Q 422 3509 836 4129 
Q 1250 4750 2034 4750 
z
" transform="scale(0.015625)"/>
       </defs>
       <use xlink:href="#DejaVuSans-30"/>
      </g>
     </g>
    </g>
    <g id="xtick_2">
     <g id="line2d_2">
      <g>
       <use xlink:href="#ma5429ff72c" x="125.777455" y="307.584" style="stroke: #000000; stroke-width: 0.8"/>
      </g>
     </g>
     <g id="text_2">
      <!-- 20 -->
      <g transform="translate(119.414955 322.182437) scale(0.1 -0.1)">
       <defs>
        <path id="DejaVuSans-32" d="M 1228 531 
L 3431 531 
L 3431 0 
L 469 0 
L 469 531 
Q 828 903 1448 1529 
Q 2069 2156 2228 2338 
Q 2531 2678 2651 2914 
Q 2772 3150 2772 3378 
Q 2772 3750 2511 3984 
Q 2250 4219 1831 4219 
Q 1534 4219 1204 4116 
Q 875 4013 500 3803 
L 500 4441 
Q 881 4594 1212 4672 
Q 1544 4750 1819 4750 
Q 2544 4750 2975 4387 
Q 3406 4025 3406 3419 
Q 3406 3131 3298 2873 
Q 3191 2616 2906 2266 
Q 2828 2175 2409 1742 
Q 1991 1309 1228 531 
z
" transform="scale(0.015625)"/>
       </defs>
       <use xlink:href="#DejaVuSans-32"/>
       <use xlink:href="#DejaVuSans-30" transform="translate(63.623047 0)"/>
      </g>
     </g>
    </g>
    <g id="xtick_3">
     <g id="line2d_3">
      <g>
       <use xlink:href="#ma5429ff72c" x="177.722182" y="307.584" style="stroke: #000000; stroke-width: 0.8"/>
      </g>
     </g>
     <g id="text_3">
      <!-- 40 -->
      <g transform="translate(171.359682 322.182437) scale(0.1 -0.1)">
       <defs>
        <path id="DejaVuSans-34" d="M 2419 4116 
L 825 1625 
L 2419 1625 
L 2419 4116 
z
M 2253 4666 
L 3047 4666 
L 3047 1625 
L 3713 1625 
L 3713 1100 
L 3047 1100 
L 3047 0 
L 2419 0 
L 2419 1100 
L 313 1100 
L 313 1709 
L 2253 4666 
z
" transform="scale(0.015625)"/>
       </defs>
       <use xlink:href="#DejaVuSans-34"/>
       <use xlink:href="#DejaVuSans-30" transform="translate(63.623047 0)"/>
      </g>
     </g>
    </g>
    <g id="xtick_4">
     <g id="line2d_4">
      <g>
       <use xlink:href="#ma5429ff72c" x="229.666909" y="307.584" style="stroke: #000000; stroke-width: 0.8"/>
      </g>
     </g>
     <g id="text_4">
      <!-- 60 -->
      <g transform="translate(223.304409 322.182437) scale(0.1 -0.1)">
       <defs>
        <path id="DejaVuSans-36" d="M 2113 2584 
Q 1688 2584 1439 2293 
Q 1191 2003 1191 1497 
Q 1191 994 1439 701 
Q 1688 409 2113 409 
Q 2538 409 2786 701 
Q 3034 994 3034 1497 
Q 3034 2003 2786 2293 
Q 2538 2584 2113 2584 
z
M 3366 4563 
L 3366 3988 
Q 3128 4100 2886 4159 
Q 2644 4219 2406 4219 
Q 1781 4219 1451 3797 
Q 1122 3375 1075 2522 
Q 1259 2794 1537 2939 
Q 1816 3084 2150 3084 
Q 2853 3084 3261 2657 
Q 3669 2231 3669 1497 
Q 3669 778 3244 343 
Q 2819 -91 2113 -91 
Q 1303 -91 875 529 
Q 447 1150 447 2328 
Q 447 3434 972 4092 
Q 1497 4750 2381 4750 
Q 2619 4750 2861 4703 
Q 3103 4656 3366 4563 
z
" transform="scale(0.015625)"/>
       </defs>
       <use xlink:href="#DejaVuSans-36"/>
       <use xlink:href="#DejaVuSans-30" transform="translate(63.623047 0)"/>
      </g>
     </g>
    </g>
    <g id="xtick_5">
     <g id="line2d_5">
      <g>
       <use xlink:href="#ma5429ff72c" x="281.611636" y="307.584" style="stroke: #000000; stroke-width: 0.8"/>
      </g>
     </g>
     <g id="text_5">
      <!-- 80 -->
      <g transform="translate(275.249136 322.182437) scale(0.1 -0.1)">
       <defs>
        <path id="DejaVuSans-38" d="M 2034 2216 
Q 1584 2216 1326 1975 
Q 1069 1734 1069 1313 
Q 1069 891 1326 650 
Q 1584 409 2034 409 
Q 2484 409 2743 651 
Q 3003 894 3003 1313 
Q 3003 1734 2745 1975 
Q 2488 2216 2034 2216 
z
M 1403 2484 
Q 997 2584 770 2862 
Q 544 3141 544 3541 
Q 544 4100 942 4425 
Q 1341 4750 2034 4750 
Q 2731 4750 3128 4425 
Q 3525 4100 3525 3541 
Q 3525 3141 3298 2862 
Q 3072 2584 2669 2484 
Q 3125 2378 3379 2068 
Q 3634 1759 3634 1313 
Q 3634 634 3220 271 
Q 2806 -91 2034 -91 
Q 1263 -91 848 271 
Q 434 634 434 1313 
Q 434 1759 690 2068 
Q 947 2378 1403 2484 
z
M 1172 3481 
Q 1172 3119 1398 2916 
Q 1625 2713 2034 2713 
Q 2441 2713 2670 2916 
Q 2900 3119 2900 3481 
Q 2900 3844 2670 4047 
Q 2441 4250 2034 4250 
Q 1625 4250 1398 4047 
Q 1172 3844 1172 3481 
z
" transform="scale(0.015625)"/>
       </defs>
       <use xlink:href="#DejaVuSans-38"/>
       <use xlink:href="#DejaVuSans-30" transform="translate(63.623047 0)"/>
      </g>
     </g>
    </g>
    <g id="xtick_6">
     <g id="line2d_6">
      <g>
       <use xlink:href="#ma5429ff72c" x="333.556364" y="307.584" style="stroke: #000000; stroke-width: 0.8"/>
      </g>
     </g>
     <g id="text_6">
      <!-- 100 -->
      <g transform="translate(324.012614 322.182437) scale(0.1 -0.1)">
       <defs>
        <path id="DejaVuSans-31" d="M 794 531 
L 1825 531 
L 1825 4091 
L 703 3866 
L 703 4441 
L 1819 4666 
L 2450 4666 
L 2450 531 
L 3481 531 
L 3481 0 
L 794 0 
L 794 531 
z
" transform="scale(0.015625)"/>
       </defs>
       <use xlink:href="#DejaVuSans-31"/>
       <use xlink:href="#DejaVuSans-30" transform="translate(63.623047 0)"/>
       <use xlink:href="#DejaVuSans-30" transform="translate(127.246094 0)"/>
      </g>
     </g>
    </g>
    <g id="xtick_7">
     <g id="line2d_7">
      <g>
       <use xlink:href="#ma5429ff72c" x="385.501091" y="307.584" style="stroke: #000000; stroke-width: 0.8"/>
      </g>
     </g>
     <g id="text_7">
      <!-- 120 -->
      <g transform="translate(375.957341 322.182437) scale(0.1 -0.1)">
       <use xlink:href="#DejaVuSans-31"/>
       <use xlink:href="#DejaVuSans-32" transform="translate(63.623047 0)"/>
       <use xlink:href="#DejaVuSans-30" transform="translate(127.246094 0)"/>
      </g>
     </g>
    </g>
    <g id="text_8">
     <!-- Frequenz in Hz -->
     <g transform="translate(199.294375 335.860562) scale(0.1 -0.1)">
      <defs>
       <path id="DejaVuSans-46" d="M 628 4666 
L 3309 4666 
L 3309 4134 
L 1259 4134 
L 1259 2759 
L 3109 2759 
L 3109 2228 
L 1259 2228 
L 1259 0 
L 628 0 
L 628 4666 
z
" transform="scale(0.015625)"/>
       <path id="DejaVuSans-72" d="M 2631 2963 
Q 2534 3019 2420 3045 
Q 2306 3072 2169 3072 
Q 1681 3072 1420 2755 
Q 1159 2438 1159 1844 
L 1159 0 
L 581 0 
L 581 3500 
L 1159 3500 
L 1159 2956 
Q 1341 3275 1631 3429 
Q 1922 3584 2338 3584 
Q 2397 3584 2469 3576 
Q 2541 3569 2628 3553 
L 2631 2963 
z
" transform="scale(0.015625)"/>
       <path id="DejaVuSans-65" d="M 3597 1894 
L 3597 1613 
L 953 1613 
Q 991 1019 1311 708 
Q 1631 397 2203 397 
Q 2534 397 2845 478 
Q 3156 559 3463 722 
L 3463 178 
Q 3153 47 2828 -22 
Q 2503 -91 2169 -91 
Q 1331 -91 842 396 
Q 353 884 353 1716 
Q 353 2575 817 3079 
Q 1281 3584 2069 3584 
Q 2775 3584 3186 3129 
Q 3597 2675 3597 1894 
z
M 3022 2063 
Q 3016 2534 2758 2815 
Q 2500 3097 2075 3097 
Q 1594 3097 1305 2825 
Q 1016 2553 972 2059 
L 3022 2063 
z
" transform="scale(0.015625)"/>
       <path id="DejaVuSans-71" d="M 947 1747 
Q 947 1113 1208 752 
Q 1469 391 1925 391 
Q 2381 391 2643 752 
Q 2906 1113 2906 1747 
Q 2906 2381 2643 2742 
Q 2381 3103 1925 3103 
Q 1469 3103 1208 2742 
Q 947 2381 947 1747 
z
M 2906 525 
Q 2725 213 2448 61 
Q 2172 -91 1784 -91 
Q 1150 -91 751 415 
Q 353 922 353 1747 
Q 353 2572 751 3078 
Q 1150 3584 1784 3584 
Q 2172 3584 2448 3432 
Q 2725 3281 2906 2969 
L 2906 3500 
L 3481 3500 
L 3481 -1331 
L 2906 -1331 
L 2906 525 
z
" transform="scale(0.015625)"/>
       <path id="DejaVuSans-75" d="M 544 1381 
L 544 3500 
L 1119 3500 
L 1119 1403 
Q 1119 906 1312 657 
Q 1506 409 1894 409 
Q 2359 409 2629 706 
Q 2900 1003 2900 1516 
L 2900 3500 
L 3475 3500 
L 3475 0 
L 2900 0 
L 2900 538 
Q 2691 219 2414 64 
Q 2138 -91 1772 -91 
Q 1169 -91 856 284 
Q 544 659 544 1381 
z
M 1991 3584 
L 1991 3584 
z
" transform="scale(0.015625)"/>
       <path id="DejaVuSans-6e" d="M 3513 2113 
L 3513 0 
L 2938 0 
L 2938 2094 
Q 2938 2591 2744 2837 
Q 2550 3084 2163 3084 
Q 1697 3084 1428 2787 
Q 1159 2491 1159 1978 
L 1159 0 
L 581 0 
L 581 3500 
L 1159 3500 
L 1159 2956 
Q 1366 3272 1645 3428 
Q 1925 3584 2291 3584 
Q 2894 3584 3203 3211 
Q 3513 2838 3513 2113 
z
" transform="scale(0.015625)"/>
       <path id="DejaVuSans-7a" d="M 353 3500 
L 3084 3500 
L 3084 2975 
L 922 459 
L 3084 459 
L 3084 0 
L 275 0 
L 275 525 
L 2438 3041 
L 353 3041 
L 353 3500 
z
" transform="scale(0.015625)"/>
       <path id="DejaVuSans-20" transform="scale(0.015625)"/>
       <path id="DejaVuSans-69" d="M 603 3500 
L 1178 3500 
L 1178 0 
L 603 0 
L 603 3500 
z
M 603 4863 
L 1178 4863 
L 1178 4134 
L 603 4134 
L 603 4863 
z
" transform="scale(0.015625)"/>
       <path id="DejaVuSans-48" d="M 628 4666 
L 1259 4666 
L 1259 2753 
L 3553 2753 
L 3553 4666 
L 4184 4666 
L 4184 0 
L 3553 0 
L 3553 2222 
L 1259 2222 
L 1259 0 
L 628 0 
L 628 4666 
z
" transform="scale(0.015625)"/>
      </defs>
      <use xlink:href="#DejaVuSans-46"/>
      <use xlink:href="#DejaVuSans-72" transform="translate(50.269531 0)"/>
      <use xlink:href="#DejaVuSans-65" transform="translate(89.132812 0)"/>
      <use xlink:href="#DejaVuSans-71" transform="translate(150.65625 0)"/>
      <use xlink:href="#DejaVuSans-75" transform="translate(214.132812 0)"/>
      <use xlink:href="#DejaVuSans-65" transform="translate(277.511719 0)"/>
      <use xlink:href="#DejaVuSans-6e" transform="translate(339.035156 0)"/>
      <use xlink:href="#DejaVuSans-7a" transform="translate(402.414062 0)"/>
      <use xlink:href="#DejaVuSans-20" transform="translate(454.904297 0)"/>
      <use xlink:href="#DejaVuSans-69" transform="translate(486.691406 0)"/>
      <use xlink:href="#DejaVuSans-6e" transform="translate(514.474609 0)"/>
      <use xlink:href="#DejaVuSans-20" transform="translate(577.853516 0)"/>
      <use xlink:href="#DejaVuSans-48" transform="translate(609.640625 0)"/>
      <use xlink:href="#DejaVuSans-7a" transform="translate(684.835938 0)"/>
     </g>
    </g>
   </g>
   <g id="matplotlib.axis_2">
    <g id="ytick_1">
     <g id="line2d_8">
      <defs>
       <path id="m94d98f7d41" d="M 0 0 
L -3.5 0 
" style="stroke: #000000; stroke-width: 0.8"/>
      </defs>
      <g>
       <use xlink:href="#m94d98f7d41" x="57.6" y="307.584" style="stroke: #000000; stroke-width: 0.8"/>
      </g>
     </g>
     <g id="text_9">
      <!-- $\mathdefault{10^{-1}}$ -->
      <g transform="translate(27.1 311.383219) scale(0.1 -0.1)">
       <defs>
        <path id="DejaVuSans-2212" d="M 678 2272 
L 4684 2272 
L 4684 1741 
L 678 1741 
L 678 2272 
z
" transform="scale(0.015625)"/>
       </defs>
       <use xlink:href="#DejaVuSans-31" transform="translate(0 0.684375)"/>
       <use xlink:href="#DejaVuSans-30" transform="translate(63.623047 0.684375)"/>
       <use xlink:href="#DejaVuSans-2212" transform="translate(128.203125 38.965625) scale(0.7)"/>
       <use xlink:href="#DejaVuSans-31" transform="translate(186.855469 38.965625) scale(0.7)"/>
      </g>
     </g>
    </g>
    <g id="ytick_2">
     <g id="line2d_9">
      <g>
       <use xlink:href="#m94d98f7d41" x="57.6" y="241.056" style="stroke: #000000; stroke-width: 0.8"/>
      </g>
     </g>
     <g id="text_10">
      <!-- $\mathdefault{10^{0}}$ -->
      <g transform="translate(33 244.855219) scale(0.1 -0.1)">
       <use xlink:href="#DejaVuSans-31" transform="translate(0 0.765625)"/>
       <use xlink:href="#DejaVuSans-30" transform="translate(63.623047 0.765625)"/>
       <use xlink:href="#DejaVuSans-30" transform="translate(128.203125 39.046875) scale(0.7)"/>
      </g>
     </g>
    </g>
    <g id="ytick_3">
     <g id="line2d_10">
      <g>
       <use xlink:href="#m94d98f7d41" x="57.6" y="174.528" style="stroke: #000000; stroke-width: 0.8"/>
      </g>
     </g>
     <g id="text_11">
      <!-- $\mathdefault{10^{1}}$ -->
      <g transform="translate(33 178.327219) scale(0.1 -0.1)">
       <use xlink:href="#DejaVuSans-31" transform="translate(0 0.684375)"/>
       <use xlink:href="#DejaVuSans-30" transform="translate(63.623047 0.684375)"/>
       <use xlink:href="#DejaVuSans-31" transform="translate(128.203125 38.965625) scale(0.7)"/>
      </g>
     </g>
    </g>
    <g id="ytick_4">
     <g id="line2d_11">
      <g>
       <use xlink:href="#m94d98f7d41" x="57.6" y="108" style="stroke: #000000; stroke-width: 0.8"/>
      </g>
     </g>
     <g id="text_12">
      <!-- $\mathdefault{10^{2}}$ -->
      <g transform="translate(33 111.799219) scale(0.1 -0.1)">
       <use xlink:href="#DejaVuSans-31" transform="translate(0 0.765625)"/>
       <use xlink:href="#DejaVuSans-30" transform="translate(63.623047 0.765625)"/>
       <use xlink:href="#DejaVuSans-32" transform="translate(128.203125 39.046875) scale(0.7)"/>
      </g>
     </g>
    </g>
    <g id="ytick_5">
     <g id="line2d_12">
      <g>
       <use xlink:href="#m94d98f7d41" x="57.6" y="41.472" style="stroke: #000000; stroke-width: 0.8"/>
      </g>
     </g>
     <g id="text_13">
      <!-- $\mathdefault{10^{3}}$ -->
      <g transform="translate(33 45.271219) scale(0.1 -0.1)">
       <defs>
        <path id="DejaVuSans-33" d="M 2597 2516 
Q 3050 2419 3304 2112 
Q 3559 1806 3559 1356 
Q 3559 666 3084 287 
Q 2609 -91 1734 -91 
Q 1441 -91 1130 -33 
Q 819 25 488 141 
L 488 750 
Q 750 597 1062 519 
Q 1375 441 1716 441 
Q 2309 441 2620 675 
Q 2931 909 2931 1356 
Q 2931 1769 2642 2001 
Q 2353 2234 1838 2234 
L 1294 2234 
L 1294 2753 
L 1863 2753 
Q 2328 2753 2575 2939 
Q 2822 3125 2822 3475 
Q 2822 3834 2567 4026 
Q 2313 4219 1838 4219 
Q 1578 4219 1281 4162 
Q 984 4106 628 3988 
L 628 4550 
Q 988 4650 1302 4700 
Q 1616 4750 1894 4750 
Q 2613 4750 3031 4423 
Q 3450 4097 3450 3541 
Q 3450 3153 3228 2886 
Q 3006 2619 2597 2516 
z
" transform="scale(0.015625)"/>
       </defs>
       <use xlink:href="#DejaVuSans-31" transform="translate(0 0.765625)"/>
       <use xlink:href="#DejaVuSans-30" transform="translate(63.623047 0.765625)"/>
       <use xlink:href="#DejaVuSans-33" transform="translate(128.203125 39.046875) scale(0.7)"/>
      </g>
     </g>
    </g>
    <g id="ytick_6">
     <g id="line2d_13">
      <defs>
       <path id="m7cb88eb4cd" d="M 0 0 
L -2 0 
" style="stroke: #000000; stroke-width: 0.6"/>
      </defs>
      <g>
       <use xlink:href="#m7cb88eb4cd" x="57.6" y="287.557076" style="stroke: #000000; stroke-width: 0.6"/>
      </g>
     </g>
    </g>
    <g id="ytick_7">
     <g id="line2d_14">
      <g>
       <use xlink:href="#m7cb88eb4cd" x="57.6" y="275.842077" style="stroke: #000000; stroke-width: 0.6"/>
      </g>
     </g>
    </g>
    <g id="ytick_8">
     <g id="line2d_15">
      <g>
       <use xlink:href="#m7cb88eb4cd" x="57.6" y="267.530153" style="stroke: #000000; stroke-width: 0.6"/>
      </g>
     </g>
    </g>
    <g id="ytick_9">
     <g id="line2d_16">
      <g>
       <use xlink:href="#m7cb88eb4cd" x="57.6" y="261.082924" style="stroke: #000000; stroke-width: 0.6"/>
      </g>
     </g>
    </g>
    <g id="ytick_10">
     <g id="line2d_17">
      <g>
       <use xlink:href="#m7cb88eb4cd" x="57.6" y="255.815154" style="stroke: #000000; stroke-width: 0.6"/>
      </g>
     </g>
    </g>
    <g id="ytick_11">
     <g id="line2d_18">
      <g>
       <use xlink:href="#m7cb88eb4cd" x="57.6" y="251.361318" style="stroke: #000000; stroke-width: 0.6"/>
      </g>
     </g>
    </g>
    <g id="ytick_12">
     <g id="line2d_19">
      <g>
       <use xlink:href="#m7cb88eb4cd" x="57.6" y="247.503229" style="stroke: #000000; stroke-width: 0.6"/>
      </g>
     </g>
    </g>
    <g id="ytick_13">
     <g id="line2d_20">
      <g>
       <use xlink:href="#m7cb88eb4cd" x="57.6" y="244.100154" style="stroke: #000000; stroke-width: 0.6"/>
      </g>
     </g>
    </g>
    <g id="ytick_14">
     <g id="line2d_21">
      <g>
       <use xlink:href="#m7cb88eb4cd" x="57.6" y="221.029076" style="stroke: #000000; stroke-width: 0.6"/>
      </g>
     </g>
    </g>
    <g id="ytick_15">
     <g id="line2d_22">
      <g>
       <use xlink:href="#m7cb88eb4cd" x="57.6" y="209.314077" style="stroke: #000000; stroke-width: 0.6"/>
      </g>
     </g>
    </g>
    <g id="ytick_16">
     <g id="line2d_23">
      <g>
       <use xlink:href="#m7cb88eb4cd" x="57.6" y="201.002153" style="stroke: #000000; stroke-width: 0.6"/>
      </g>
     </g>
    </g>
    <g id="ytick_17">
     <g id="line2d_24">
      <g>
       <use xlink:href="#m7cb88eb4cd" x="57.6" y="194.554924" style="stroke: #000000; stroke-width: 0.6"/>
      </g>
     </g>
    </g>
    <g id="ytick_18">
     <g id="line2d_25">
      <g>
       <use xlink:href="#m7cb88eb4cd" x="57.6" y="189.287154" style="stroke: #000000; stroke-width: 0.6"/>
      </g>
     </g>
    </g>
    <g id="ytick_19">
     <g id="line2d_26">
      <g>
       <use xlink:href="#m7cb88eb4cd" x="57.6" y="184.833318" style="stroke: #000000; stroke-width: 0.6"/>
      </g>
     </g>
    </g>
    <g id="ytick_20">
     <g id="line2d_27">
      <g>
       <use xlink:href="#m7cb88eb4cd" x="57.6" y="180.975229" style="stroke: #000000; stroke-width: 0.6"/>
      </g>
     </g>
    </g>
    <g id="ytick_21">
     <g id="line2d_28">
      <g>
       <use xlink:href="#m7cb88eb4cd" x="57.6" y="177.572154" style="stroke: #000000; stroke-width: 0.6"/>
      </g>
     </g>
    </g>
    <g id="ytick_22">
     <g id="line2d_29">
      <g>
       <use xlink:href="#m7cb88eb4cd" x="57.6" y="154.501076" style="stroke: #000000; stroke-width: 0.6"/>
      </g>
     </g>
    </g>
    <g id="ytick_23">
     <g id="line2d_30">
      <g>
       <use xlink:href="#m7cb88eb4cd" x="57.6" y="142.786077" style="stroke: #000000; stroke-width: 0.6"/>
      </g>
     </g>
    </g>
    <g id="ytick_24">
     <g id="line2d_31">
      <g>
       <use xlink:href="#m7cb88eb4cd" x="57.6" y="134.474153" style="stroke: #000000; stroke-width: 0.6"/>
      </g>
     </g>
    </g>
    <g id="ytick_25">
     <g id="line2d_32">
      <g>
       <use xlink:href="#m7cb88eb4cd" x="57.6" y="128.026924" style="stroke: #000000; stroke-width: 0.6"/>
      </g>
     </g>
    </g>
    <g id="ytick_26">
     <g id="line2d_33">
      <g>
       <use xlink:href="#m7cb88eb4cd" x="57.6" y="122.759154" style="stroke: #000000; stroke-width: 0.6"/>
      </g>
     </g>
    </g>
    <g id="ytick_27">
     <g id="line2d_34">
      <g>
       <use xlink:href="#m7cb88eb4cd" x="57.6" y="118.305318" style="stroke: #000000; stroke-width: 0.6"/>
      </g>
     </g>
    </g>
    <g id="ytick_28">
     <g id="line2d_35">
      <g>
       <use xlink:href="#m7cb88eb4cd" x="57.6" y="114.447229" style="stroke: #000000; stroke-width: 0.6"/>
      </g>
     </g>
    </g>
    <g id="ytick_29">
     <g id="line2d_36">
      <g>
       <use xlink:href="#m7cb88eb4cd" x="57.6" y="111.044154" style="stroke: #000000; stroke-width: 0.6"/>
      </g>
     </g>
    </g>
    <g id="ytick_30">
     <g id="line2d_37">
      <g>
       <use xlink:href="#m7cb88eb4cd" x="57.6" y="87.973076" style="stroke: #000000; stroke-width: 0.6"/>
      </g>
     </g>
    </g>
    <g id="ytick_31">
     <g id="line2d_38">
      <g>
       <use xlink:href="#m7cb88eb4cd" x="57.6" y="76.258077" style="stroke: #000000; stroke-width: 0.6"/>
      </g>
     </g>
    </g>
    <g id="ytick_32">
     <g id="line2d_39">
      <g>
       <use xlink:href="#m7cb88eb4cd" x="57.6" y="67.946153" style="stroke: #000000; stroke-width: 0.6"/>
      </g>
     </g>
    </g>
    <g id="ytick_33">
     <g id="line2d_40">
      <g>
       <use xlink:href="#m7cb88eb4cd" x="57.6" y="61.498924" style="stroke: #000000; stroke-width: 0.6"/>
      </g>
     </g>
    </g>
    <g id="ytick_34">
     <g id="line2d_41">
      <g>
       <use xlink:href="#m7cb88eb4cd" x="57.6" y="56.231154" style="stroke: #000000; stroke-width: 0.6"/>
      </g>
     </g>
    </g>
    <g id="ytick_35">
     <g id="line2d_42">
      <g>
       <use xlink:href="#m7cb88eb4cd" x="57.6" y="51.777318" style="stroke: #000000; stroke-width: 0.6"/>
      </g>
     </g>
    </g>
    <g id="ytick_36">
     <g id="line2d_43">
      <g>
       <use xlink:href="#m7cb88eb4cd" x="57.6" y="47.919229" style="stroke: #000000; stroke-width: 0.6"/>
      </g>
     </g>
    </g>
    <g id="ytick_37">
     <g id="line2d_44">
      <g>
       <use xlink:href="#m7cb88eb4cd" x="57.6" y="44.516154" style="stroke: #000000; stroke-width: 0.6"/>
      </g>
     </g>
    </g>
    <g id="text_14">
     <!-- Leistung/Frequenz (V²/Hz) -->
     <g transform="translate(21.020312 239.182687) rotate(-90) scale(0.1 -0.1)">
      <defs>
       <path id="DejaVuSans-4c" d="M 628 4666 
L 1259 4666 
L 1259 531 
L 3531 531 
L 3531 0 
L 628 0 
L 628 4666 
z
" transform="scale(0.015625)"/>
       <path id="DejaVuSans-73" d="M 2834 3397 
L 2834 2853 
Q 2591 2978 2328 3040 
Q 2066 3103 1784 3103 
Q 1356 3103 1142 2972 
Q 928 2841 928 2578 
Q 928 2378 1081 2264 
Q 1234 2150 1697 2047 
L 1894 2003 
Q 2506 1872 2764 1633 
Q 3022 1394 3022 966 
Q 3022 478 2636 193 
Q 2250 -91 1575 -91 
Q 1294 -91 989 -36 
Q 684 19 347 128 
L 347 722 
Q 666 556 975 473 
Q 1284 391 1588 391 
Q 1994 391 2212 530 
Q 2431 669 2431 922 
Q 2431 1156 2273 1281 
Q 2116 1406 1581 1522 
L 1381 1569 
Q 847 1681 609 1914 
Q 372 2147 372 2553 
Q 372 3047 722 3315 
Q 1072 3584 1716 3584 
Q 2034 3584 2315 3537 
Q 2597 3491 2834 3397 
z
" transform="scale(0.015625)"/>
       <path id="DejaVuSans-74" d="M 1172 4494 
L 1172 3500 
L 2356 3500 
L 2356 3053 
L 1172 3053 
L 1172 1153 
Q 1172 725 1289 603 
Q 1406 481 1766 481 
L 2356 481 
L 2356 0 
L 1766 0 
Q 1100 0 847 248 
Q 594 497 594 1153 
L 594 3053 
L 172 3053 
L 172 3500 
L 594 3500 
L 594 4494 
L 1172 4494 
z
" transform="scale(0.015625)"/>
       <path id="DejaVuSans-67" d="M 2906 1791 
Q 2906 2416 2648 2759 
Q 2391 3103 1925 3103 
Q 1463 3103 1205 2759 
Q 947 2416 947 1791 
Q 947 1169 1205 825 
Q 1463 481 1925 481 
Q 2391 481 2648 825 
Q 2906 1169 2906 1791 
z
M 3481 434 
Q 3481 -459 3084 -895 
Q 2688 -1331 1869 -1331 
Q 1566 -1331 1297 -1286 
Q 1028 -1241 775 -1147 
L 775 -588 
Q 1028 -725 1275 -790 
Q 1522 -856 1778 -856 
Q 2344 -856 2625 -561 
Q 2906 -266 2906 331 
L 2906 616 
Q 2728 306 2450 153 
Q 2172 0 1784 0 
Q 1141 0 747 490 
Q 353 981 353 1791 
Q 353 2603 747 3093 
Q 1141 3584 1784 3584 
Q 2172 3584 2450 3431 
Q 2728 3278 2906 2969 
L 2906 3500 
L 3481 3500 
L 3481 434 
z
" transform="scale(0.015625)"/>
       <path id="DejaVuSans-2f" d="M 1625 4666 
L 2156 4666 
L 531 -594 
L 0 -594 
L 1625 4666 
z
" transform="scale(0.015625)"/>
       <path id="DejaVuSans-28" d="M 1984 4856 
Q 1566 4138 1362 3434 
Q 1159 2731 1159 2009 
Q 1159 1288 1364 580 
Q 1569 -128 1984 -844 
L 1484 -844 
Q 1016 -109 783 600 
Q 550 1309 550 2009 
Q 550 2706 781 3412 
Q 1013 4119 1484 4856 
L 1984 4856 
z
" transform="scale(0.015625)"/>
       <path id="DejaVuSans-56" d="M 1831 0 
L 50 4666 
L 709 4666 
L 2188 738 
L 3669 4666 
L 4325 4666 
L 2547 0 
L 1831 0 
z
" transform="scale(0.015625)"/>
       <path id="DejaVuSans-b2" d="M 838 2444 
L 2163 2444 
L 2163 2088 
L 294 2088 
L 294 2431 
Q 400 2528 597 2703 
Q 1672 3656 1672 3950 
Q 1672 4156 1509 4282 
Q 1347 4409 1081 4409 
Q 919 4409 728 4354 
Q 538 4300 313 4191 
L 313 4575 
Q 553 4663 761 4706 
Q 969 4750 1147 4750 
Q 1600 4750 1872 4544 
Q 2144 4338 2144 4000 
Q 2144 3566 1109 2678 
Q 934 2528 838 2444 
z
" transform="scale(0.015625)"/>
       <path id="DejaVuSans-29" d="M 513 4856 
L 1013 4856 
Q 1481 4119 1714 3412 
Q 1947 2706 1947 2009 
Q 1947 1309 1714 600 
Q 1481 -109 1013 -844 
L 513 -844 
Q 928 -128 1133 580 
Q 1338 1288 1338 2009 
Q 1338 2731 1133 3434 
Q 928 4138 513 4856 
z
" transform="scale(0.015625)"/>
      </defs>
      <use xlink:href="#DejaVuSans-4c"/>
      <use xlink:href="#DejaVuSans-65" transform="translate(53.962891 0)"/>
      <use xlink:href="#DejaVuSans-69" transform="translate(115.486328 0)"/>
      <use xlink:href="#DejaVuSans-73" transform="translate(143.269531 0)"/>
      <use xlink:href="#DejaVuSans-74" transform="translate(195.369141 0)"/>
      <use xlink:href="#DejaVuSans-75" transform="translate(234.578125 0)"/>
      <use xlink:href="#DejaVuSans-6e" transform="translate(297.957031 0)"/>
      <use xlink:href="#DejaVuSans-67" transform="translate(361.335938 0)"/>
      <use xlink:href="#DejaVuSans-2f" transform="translate(424.8125 0)"/>
      <use xlink:href="#DejaVuSans-46" transform="translate(458.503906 0)"/>
      <use xlink:href="#DejaVuSans-72" transform="translate(508.773438 0)"/>
      <use xlink:href="#DejaVuSans-65" transform="translate(547.636719 0)"/>
      <use xlink:href="#DejaVuSans-71" transform="translate(609.160156 0)"/>
      <use xlink:href="#DejaVuSans-75" transform="translate(672.636719 0)"/>
      <use xlink:href="#DejaVuSans-65" transform="translate(736.015625 0)"/>
      <use xlink:href="#DejaVuSans-6e" transform="translate(797.539062 0)"/>
      <use xlink:href="#DejaVuSans-7a" transform="translate(860.917969 0)"/>
      <use xlink:href="#DejaVuSans-20" transform="translate(913.408203 0)"/>
      <use xlink:href="#DejaVuSans-28" transform="translate(945.195312 0)"/>
      <use xlink:href="#DejaVuSans-56" transform="translate(984.208984 0)"/>
      <use xlink:href="#DejaVuSans-b2" transform="translate(1052.617188 0)"/>
      <use xlink:href="#DejaVuSans-2f" transform="translate(1092.705078 0)"/>
      <use xlink:href="#DejaVuSans-48" transform="translate(1126.396484 0)"/>
      <use xlink:href="#DejaVuSans-7a" transform="translate(1201.591797 0)"/>
      <use xlink:href="#DejaVuSans-29" transform="translate(1254.082031 0)"/>
     </g>
    </g>
   </g>
   <g id="line2d_45">
    <path d="M 73.832727 104.962086 
L 74.149773 64.769455 
L 74.466818 76.06672 
L 75.100909 125.649686 
L 76.052045 165.298092 
L 76.369091 169.716904 
L 77.003182 183.963494 
L 77.320227 187.52652 
L 77.637273 188.990115 
L 77.954318 191.671452 
L 78.588409 200.366352 
L 79.2225 208.242274 
L 79.539545 210.159795 
L 80.173636 219.27479 
L 80.490682 219.034234 
L 81.124773 227.306874 
L 81.441818 225.413032 
L 81.758864 228.353574 
L 82.075909 232.485063 
L 82.71 238.169207 
L 83.027045 237.463648 
L 83.344091 233.313984 
L 83.661136 235.965148 
L 83.978182 241.258408 
L 84.295227 241.410115 
L 84.612273 242.541107 
L 84.929318 245.867597 
L 85.246364 244.187602 
L 85.563409 246.304321 
L 85.880455 250.189378 
L 86.1975 247.410963 
L 86.514545 247.495553 
L 87.148636 249.096535 
L 87.465682 249.226916 
L 87.782727 251.937243 
L 88.099773 251.663316 
L 88.416818 251.738511 
L 88.733864 250.769643 
L 89.050909 253.152863 
L 89.367955 252.854733 
L 90.002045 246.860642 
L 90.319091 247.386472 
L 90.636136 249.420072 
L 90.953182 248.153662 
L 91.270227 245.912487 
L 91.587273 242.793279 
L 91.904318 242.026873 
L 92.221364 244.055201 
L 92.538409 242.99696 
L 92.855455 239.940212 
L 93.1725 238.553633 
L 93.489545 235.671671 
L 93.806591 234.079073 
L 94.123636 231.515704 
L 94.440682 227.259734 
L 94.757727 225.687024 
L 95.074773 226.822962 
L 95.391818 230.442187 
L 96.025909 222.550159 
L 96.342955 222.22511 
L 96.66 222.084151 
L 96.977045 222.974766 
L 97.294091 224.47402 
L 97.611136 224.701296 
L 97.928182 224.360317 
L 98.245227 221.598384 
L 98.562273 220.259894 
L 98.879318 220.64581 
L 99.196364 219.96659 
L 99.830455 214.706964 
L 100.1475 214.161647 
L 100.464545 213.057361 
L 100.781591 216.570053 
L 101.098636 218.371967 
L 101.732727 224.59483 
L 102.049773 226.619253 
L 102.366818 226.721608 
L 103.000909 231.418651 
L 103.317955 231.107221 
L 103.635 233.08399 
L 103.952045 237.175686 
L 104.269091 237.398981 
L 104.586136 238.198476 
L 104.903182 237.047982 
L 105.220227 237.856647 
L 105.537273 239.474802 
L 105.854318 239.517008 
L 106.488409 242.510823 
L 106.805455 242.027686 
L 107.1225 241.992106 
L 107.439545 242.075048 
L 107.756591 241.008842 
L 108.073636 241.267694 
L 108.390682 242.872772 
L 108.707727 242.921561 
L 109.024773 245.216682 
L 109.341818 246.225849 
L 109.975909 243.127675 
L 110.292955 247.700211 
L 110.61 245.722094 
L 110.927045 244.943426 
L 111.244091 241.348216 
L 111.561136 244.712169 
L 111.878182 245.77672 
L 112.195227 244.032803 
L 112.512273 244.074901 
L 112.829318 245.113808 
L 113.146364 241.98764 
L 113.463409 240.837461 
L 114.0975 245.87384 
L 114.414545 246.276488 
L 114.731591 247.758227 
L 115.048636 248.674449 
L 115.365682 249.082538 
L 115.682727 247.889106 
L 115.999773 247.378309 
L 116.316818 246.558227 
L 116.633864 246.99999 
L 116.950909 244.319288 
L 117.267955 245.344613 
L 117.585 249.101041 
L 117.902045 249.631501 
L 118.219091 249.2366 
L 118.536136 250.100081 
L 118.853182 250.495858 
L 119.170227 246.102485 
L 119.487273 246.771721 
L 119.804318 250.45199 
L 120.121364 248.572403 
L 120.438409 248.739551 
L 120.755455 248.440383 
L 121.0725 246.043678 
L 121.389545 247.385685 
L 121.706591 247.866899 
L 122.023636 248.68947 
L 122.340682 247.089307 
L 122.657727 247.456087 
L 122.974773 247.268784 
L 123.291818 246.020875 
L 123.608864 249.93223 
L 123.925909 248.574222 
L 124.56 246.544778 
L 124.877045 246.525447 
L 125.194091 247.302325 
L 125.511136 246.312073 
L 125.828182 246.556262 
L 126.145227 245.718165 
L 126.462273 246.196082 
L 126.779318 248.124463 
L 127.096364 247.447866 
L 127.413409 244.372394 
L 127.730455 248.482961 
L 128.0475 246.069004 
L 128.364545 248.202302 
L 128.681591 247.097841 
L 128.998636 248.248048 
L 129.315682 250.487899 
L 129.632727 248.931583 
L 130.266818 251.644004 
L 130.900909 250.947606 
L 131.217955 251.574783 
L 131.535 253.337477 
L 131.852045 251.754329 
L 132.169091 251.587569 
L 132.486136 254.575523 
L 132.803182 248.895845 
L 133.120227 247.945291 
L 133.437273 247.970772 
L 133.754318 252.024531 
L 134.071364 253.903534 
L 134.388409 253.156489 
L 134.705455 251.66529 
L 135.0225 250.816296 
L 135.339545 251.52324 
L 135.973636 248.385144 
L 136.924773 253.822906 
L 137.241818 253.175632 
L 137.558864 253.310877 
L 137.875909 254.864725 
L 138.192955 253.900235 
L 138.827045 251.005811 
L 139.144091 251.383215 
L 139.461136 250.501727 
L 139.778182 250.817441 
L 140.095227 254.198417 
L 140.412273 251.293215 
L 140.729318 250.716198 
L 141.046364 249.599522 
L 141.363409 246.286321 
L 141.9975 249.279636 
L 142.631591 250.100145 
L 142.948636 250.144777 
L 143.582727 248.172893 
L 143.899773 246.674292 
L 144.216818 246.523412 
L 144.533864 244.372885 
L 144.850909 245.539536 
L 145.167955 245.332612 
L 145.485 243.03656 
L 145.802045 242.312772 
L 146.119091 241.987872 
L 146.436136 244.722578 
L 146.753182 246.227955 
L 147.070227 243.48126 
L 147.387273 243.779172 
L 147.704318 247.474213 
L 148.021364 248.853103 
L 148.338409 247.466199 
L 148.655455 247.095156 
L 148.9725 248.032491 
L 149.289545 248.173092 
L 149.606591 245.843394 
L 149.923636 244.438714 
L 150.240682 244.146745 
L 150.557727 243.220315 
L 150.874773 241.760014 
L 151.508864 244.45513 
L 151.825909 244.178308 
L 152.142955 245.796732 
L 152.777045 244.820524 
L 153.094091 247.239246 
L 153.411136 251.01663 
L 153.728182 245.977627 
L 154.362273 244.838197 
L 154.679318 246.664117 
L 154.996364 246.136552 
L 155.630455 246.662359 
L 155.9475 244.425998 
L 156.264545 247.455425 
L 156.581591 247.390917 
L 156.898636 244.834504 
L 157.215682 243.504568 
L 157.532727 246.920769 
L 157.849773 245.821607 
L 158.166818 242.892701 
L 158.483864 242.991357 
L 158.800909 246.254268 
L 159.117955 247.344515 
L 159.435 251.568566 
L 159.752045 251.611929 
L 160.069091 250.658438 
L 160.386136 248.866982 
L 160.703182 248.928875 
L 161.020227 247.600159 
L 161.337273 244.50401 
L 161.654318 242.748294 
L 161.971364 243.236242 
L 162.288409 246.006536 
L 162.605455 245.660617 
L 162.9225 241.668875 
L 163.239545 243.688301 
L 163.556591 247.963454 
L 163.873636 247.332779 
L 164.190682 244.982571 
L 164.507727 245.285925 
L 164.824773 245.210824 
L 165.141818 245.740375 
L 165.458864 244.172532 
L 166.092955 247.958579 
L 166.41 246.990259 
L 166.727045 247.974863 
L 167.044091 246.151835 
L 167.361136 245.566753 
L 167.678182 244.240757 
L 167.995227 245.46159 
L 168.312273 243.027927 
L 168.629318 244.404258 
L 168.946364 246.964597 
L 169.263409 247.116119 
L 169.580455 246.753794 
L 169.8975 245.086217 
L 170.214545 245.083765 
L 170.531591 244.554493 
L 170.848636 243.163123 
L 171.165682 245.874672 
L 171.482727 244.022228 
L 171.799773 242.937901 
L 172.116818 243.162522 
L 172.433864 246.024425 
L 172.750909 245.760272 
L 173.067955 246.989572 
L 173.385 245.461525 
L 173.702045 245.386971 
L 174.019091 242.96005 
L 174.336136 241.449453 
L 174.970227 243.731179 
L 175.287273 244.713571 
L 175.604318 246.78744 
L 175.921364 247.694133 
L 176.238409 247.576734 
L 176.555455 243.051741 
L 176.8725 244.43624 
L 177.189545 243.35921 
L 177.506591 243.508097 
L 177.823636 242.204831 
L 178.140682 240.194592 
L 178.457727 241.028446 
L 179.091818 239.950959 
L 179.408864 243.224762 
L 179.725909 241.334336 
L 180.042955 241.329385 
L 180.36 241.797909 
L 180.677045 242.910717 
L 180.994091 240.722158 
L 181.311136 239.576123 
L 181.628182 239.848741 
L 181.945227 243.011597 
L 182.262273 242.166122 
L 182.579318 242.117984 
L 182.896364 243.185667 
L 183.530455 240.021701 
L 183.8475 243.364213 
L 184.164545 243.885066 
L 184.481591 241.376589 
L 184.798636 241.383435 
L 185.115682 240.979675 
L 185.432727 240.210913 
L 185.749773 241.548085 
L 186.066818 243.390347 
L 186.700909 242.869744 
L 187.017955 243.241191 
L 187.652045 239.077608 
L 187.969091 241.016631 
L 188.286136 241.681588 
L 188.603182 241.596555 
L 188.920227 242.983233 
L 189.554318 241.815495 
L 189.871364 243.039095 
L 190.188409 242.700877 
L 190.505455 242.575073 
L 191.139545 241.200223 
L 191.456591 242.470904 
L 191.773636 241.35937 
L 192.090682 242.01169 
L 192.407727 241.744329 
L 192.724773 241.883741 
L 193.041818 243.233512 
L 193.358864 240.089406 
L 193.675909 240.302705 
L 193.992955 238.037828 
L 194.31 236.771428 
L 194.627045 236.558147 
L 194.944091 238.099157 
L 195.578182 242.696557 
L 195.895227 240.337731 
L 196.212273 236.082441 
L 196.846364 239.770646 
L 197.163409 239.320349 
L 197.480455 237.317906 
L 197.7975 240.247734 
L 198.114545 241.364797 
L 198.431591 236.109663 
L 198.748636 237.731463 
L 199.065682 237.925408 
L 199.382727 238.680274 
L 199.699773 241.515492 
L 200.016818 239.431895 
L 200.333864 238.168359 
L 200.650909 239.292285 
L 200.967955 238.078975 
L 201.285 236.378308 
L 201.602045 238.775405 
L 202.236136 241.338055 
L 202.553182 239.501973 
L 202.870227 236.592317 
L 203.187273 238.301625 
L 203.504318 237.771953 
L 203.821364 238.454499 
L 204.138409 237.693738 
L 204.455455 239.38628 
L 204.7725 236.33099 
L 205.089545 239.480218 
L 205.406591 240.356509 
L 205.723636 239.534094 
L 206.040682 240.64826 
L 206.357727 237.795433 
L 206.674773 237.342669 
L 206.991818 235.198501 
L 207.308864 235.940046 
L 207.625909 238.887213 
L 207.942955 238.981609 
L 208.26 237.323993 
L 208.577045 240.696444 
L 208.894091 238.843618 
L 209.528182 240.494766 
L 209.845227 240.164065 
L 210.162273 236.394311 
L 210.479318 234.009932 
L 211.113409 240.015593 
L 211.7475 236.370402 
L 212.064545 237.158243 
L 212.381591 240.900963 
L 212.698636 237.674244 
L 213.015682 233.259036 
L 213.332727 235.828472 
L 213.649773 235.60802 
L 213.966818 236.400409 
L 214.283864 238.293871 
L 214.917955 239.034579 
L 215.235 240.040763 
L 215.552045 236.989467 
L 215.869091 236.317384 
L 216.186136 234.358184 
L 216.503182 235.313264 
L 216.820227 237.523079 
L 217.137273 236.794908 
L 217.454318 234.815971 
L 217.771364 234.167273 
L 218.088409 236.407896 
L 218.405455 235.514266 
L 218.7225 234.269698 
L 219.039545 237.344361 
L 219.356591 236.170748 
L 219.673636 236.014645 
L 219.990682 237.788045 
L 220.307727 237.535502 
L 220.624773 236.098472 
L 220.941818 235.998395 
L 221.258864 237.576202 
L 221.575909 234.396733 
L 221.892955 233.247129 
L 222.21 235.307651 
L 222.527045 238.1614 
L 222.844091 236.105518 
L 223.161136 237.002465 
L 223.478182 233.843579 
L 223.795227 234.155916 
L 224.112273 235.693514 
L 224.429318 232.43027 
L 224.746364 235.38782 
L 225.063409 233.332206 
L 225.380455 237.262122 
L 225.6975 235.661436 
L 226.014545 236.006165 
L 226.331591 236.897231 
L 226.648636 236.062198 
L 226.965682 234.485344 
L 227.282727 235.52952 
L 227.599773 234.504215 
L 227.916818 235.178564 
L 228.550909 239.26191 
L 228.867955 236.104275 
L 229.185 236.643586 
L 229.502045 230.661588 
L 229.819091 229.356122 
L 230.136136 234.240081 
L 230.453182 233.309846 
L 230.770227 236.282087 
L 231.087273 236.235979 
L 231.404318 233.136358 
L 231.721364 232.786141 
L 232.038409 234.837277 
L 232.355455 233.701181 
L 232.6725 230.145975 
L 232.989545 233.64553 
L 233.306591 239.16353 
L 233.623636 237.789072 
L 233.940682 235.736225 
L 234.257727 236.372624 
L 234.574773 236.709284 
L 234.891818 236.517334 
L 235.208864 233.841614 
L 235.525909 232.850396 
L 235.842955 233.451807 
L 236.16 235.10643 
L 236.477045 233.127169 
L 237.111136 234.845012 
L 237.428182 232.662861 
L 237.745227 232.673002 
L 238.062273 232.028627 
L 238.379318 235.936295 
L 238.696364 234.145966 
L 239.6475 232.317314 
L 239.964545 235.783367 
L 240.281591 235.277984 
L 240.598636 235.079284 
L 240.915682 232.298348 
L 241.232727 232.189595 
L 241.549773 232.6585 
L 241.866818 234.786547 
L 242.183864 232.52545 
L 242.500909 232.218913 
L 242.817955 233.967925 
L 243.135 234.312417 
L 243.452045 231.247035 
L 243.769091 234.864705 
L 244.086136 236.070064 
L 244.403182 233.234313 
L 244.720227 232.836453 
L 245.354318 231.584025 
L 245.671364 235.719837 
L 245.988409 230.58489 
L 246.305455 230.16219 
L 246.6225 230.805707 
L 246.939545 232.244256 
L 247.256591 234.597949 
L 247.890682 231.114524 
L 248.207727 231.572667 
L 248.524773 229.661615 
L 248.841818 233.579987 
L 249.158864 230.256487 
L 249.475909 231.702342 
L 249.792955 234.528186 
L 250.11 230.264503 
L 250.427045 228.778444 
L 250.744091 229.796019 
L 251.061136 233.127321 
L 251.378182 231.708153 
L 251.695227 228.819434 
L 252.012273 229.952793 
L 252.329318 228.319611 
L 252.646364 229.628483 
L 252.963409 228.934446 
L 253.280455 233.415064 
L 253.5975 234.982577 
L 253.914545 232.762512 
L 254.231591 232.432887 
L 254.548636 232.329861 
L 254.865682 231.650232 
L 255.182727 230.165929 
L 255.499773 229.847983 
L 255.816818 231.220621 
L 256.133864 230.984466 
L 256.450909 230.94278 
L 256.767955 231.528481 
L 257.085 228.677387 
L 258.036136 231.280833 
L 258.353182 230.375979 
L 258.670227 228.689168 
L 258.987273 230.578332 
L 259.304318 230.850751 
L 259.621364 228.890484 
L 259.938409 232.091237 
L 260.255455 230.068517 
L 260.5725 229.405972 
L 260.889545 231.336066 
L 261.206591 229.134775 
L 261.840682 233.377913 
L 262.157727 234.784784 
L 262.474773 230.029457 
L 262.791818 230.339949 
L 263.108864 231.219051 
L 263.425909 229.546779 
L 263.742955 226.71388 
L 264.06 230.605549 
L 264.377045 231.678401 
L 265.011136 229.565284 
L 265.328182 229.900309 
L 265.645227 229.451178 
L 266.279318 229.289176 
L 266.913409 227.321436 
L 267.230455 231.055124 
L 267.5475 231.525707 
L 268.181591 229.930628 
L 268.498636 231.478566 
L 268.815682 235.603552 
L 269.132727 230.890623 
L 269.449773 228.063508 
L 269.766818 229.70191 
L 270.083864 230.629984 
L 270.400909 226.804492 
L 270.717955 224.538742 
L 271.035 226.754019 
L 271.352045 230.713969 
L 271.669091 228.585599 
L 271.986136 229.48944 
L 272.303182 228.635899 
L 272.620227 228.856295 
L 272.937273 228.188884 
L 273.254318 228.204904 
L 273.571364 230.857138 
L 273.888409 230.962439 
L 274.5225 230.020367 
L 274.839545 229.999967 
L 275.156591 229.432218 
L 275.473636 227.380439 
L 275.790682 230.664621 
L 276.424773 227.152705 
L 276.741818 229.122531 
L 277.058864 227.625255 
L 277.375909 231.260507 
L 277.692955 232.89919 
L 278.327045 230.213282 
L 278.644091 231.323922 
L 278.961136 231.827412 
L 279.278182 231.361756 
L 279.595227 230.183437 
L 280.229318 229.117471 
L 280.546364 227.767125 
L 280.863409 228.046891 
L 281.180455 228.618772 
L 281.4975 227.744227 
L 281.814545 227.663699 
L 282.448636 231.053747 
L 282.765682 227.83659 
L 283.082727 226.488479 
L 283.399773 226.351451 
L 283.716818 227.51228 
L 284.033864 225.150228 
L 284.350909 225.017927 
L 284.667955 231.448077 
L 284.985 231.562453 
L 285.302045 229.152129 
L 285.619091 229.994965 
L 285.936136 231.712235 
L 286.253182 230.671511 
L 286.570227 231.564205 
L 286.887273 228.453571 
L 287.204318 229.599778 
L 287.521364 229.432232 
L 288.155455 233.682991 
L 288.4725 231.515336 
L 288.789545 228.140575 
L 289.106591 227.918392 
L 289.423636 227.377945 
L 289.740682 229.408645 
L 290.057727 230.371622 
L 290.374773 228.554846 
L 290.691818 227.534659 
L 291.008864 229.047033 
L 291.325909 231.476131 
L 291.642955 231.811831 
L 292.277045 229.929496 
L 292.594091 227.050992 
L 292.911136 226.489237 
L 293.862273 229.984327 
L 294.179318 233.768534 
L 294.496364 231.119351 
L 294.813409 225.326255 
L 295.4475 228.769275 
L 295.764545 228.790671 
L 296.081591 229.20885 
L 296.398636 227.179734 
L 296.715682 228.327505 
L 297.032727 230.218659 
L 297.349773 231.164541 
L 297.666818 232.541062 
L 298.617955 224.131787 
L 298.935 225.157414 
L 299.252045 227.85062 
L 299.569091 228.43902 
L 299.886136 229.768782 
L 300.520227 225.054856 
L 301.471364 229.801469 
L 301.788409 226.29664 
L 302.105455 224.26339 
L 302.4225 225.747806 
L 302.739545 226.479914 
L 303.056591 230.169252 
L 303.373636 230.841696 
L 303.690682 229.720328 
L 304.007727 229.87994 
L 304.324773 228.500803 
L 304.641818 224.562607 
L 304.958864 224.976595 
L 305.275909 224.327666 
L 305.592955 225.840095 
L 305.91 224.99003 
L 306.227045 223.565242 
L 306.544091 223.708162 
L 306.861136 224.796642 
L 307.178182 223.500448 
L 307.495227 225.47113 
L 307.812273 226.727524 
L 308.129318 225.478516 
L 308.446364 225.651419 
L 308.763409 222.855526 
L 309.3975 227.634824 
L 309.714545 224.994554 
L 310.031591 225.408821 
L 310.665682 225.687042 
L 310.982727 224.860866 
L 311.299773 226.337008 
L 311.616818 230.326366 
L 311.933864 227.020999 
L 312.250909 226.440693 
L 312.567955 226.540776 
L 313.202045 230.713282 
L 313.836136 224.04242 
L 314.153182 225.454388 
L 314.470227 227.832421 
L 314.787273 227.796349 
L 315.104318 228.187662 
L 315.738409 225.551386 
L 316.3725 232.785475 
L 316.689545 229.385145 
L 317.006591 229.654448 
L 317.323636 229.12544 
L 317.640682 224.910958 
L 317.957727 224.487229 
L 318.274773 227.526287 
L 318.591818 227.370696 
L 319.225909 221.274933 
L 319.542955 223.395792 
L 319.86 228.804263 
L 320.177045 230.158075 
L 320.494091 228.807302 
L 320.811136 223.738258 
L 321.128182 222.256395 
L 321.445227 222.686686 
L 321.762273 229.531984 
L 322.079318 228.68115 
L 322.396364 225.403955 
L 322.713409 225.884755 
L 323.030455 227.018395 
L 323.3475 225.211393 
L 323.664545 224.132934 
L 323.981591 225.311973 
L 324.298636 223.384236 
L 324.615682 223.535209 
L 324.932727 224.211731 
L 325.249773 225.55519 
L 325.566818 225.15639 
L 325.883864 226.567489 
L 326.200909 224.648833 
L 326.517955 221.104641 
L 326.835 222.183938 
L 327.152045 222.102547 
L 327.469091 224.389053 
L 327.786136 222.378631 
L 328.103182 223.179335 
L 328.420227 225.805243 
L 329.054318 223.885338 
L 329.371364 224.134987 
L 329.688409 226.701611 
L 330.005455 226.984125 
L 330.3225 225.5007 
L 330.639545 226.142245 
L 330.956591 225.011627 
L 331.273636 224.419407 
L 331.590682 223.23029 
L 331.907727 227.297794 
L 332.224773 227.906575 
L 332.541818 230.0325 
L 332.858864 226.558959 
L 333.175909 224.887178 
L 333.492955 226.823673 
L 333.81 227.121847 
L 334.127045 225.257501 
L 334.444091 229.528632 
L 334.761136 228.142751 
L 335.078182 224.380663 
L 335.395227 226.01874 
L 335.712273 224.810448 
L 336.029318 225.759061 
L 336.346364 226.236846 
L 336.663409 229.536116 
L 336.980455 230.412559 
L 337.2975 229.93179 
L 337.614545 227.883754 
L 337.931591 224.067516 
L 338.565682 228.917095 
L 338.882727 224.795904 
L 339.199773 224.273527 
L 339.516818 225.345763 
L 339.833864 225.92035 
L 340.150909 228.093849 
L 340.467955 227.439282 
L 340.785 227.766554 
L 341.102045 227.762404 
L 341.419091 227.386912 
L 341.736136 228.931541 
L 342.053182 228.931438 
L 342.687273 232.350801 
L 343.004318 231.548611 
L 343.321364 232.533027 
L 343.638409 232.820896 
L 343.955455 231.52004 
L 344.2725 233.416917 
L 344.589545 231.535461 
L 344.906591 228.006972 
L 345.223636 229.425794 
L 345.540682 229.081578 
L 345.857727 227.952308 
L 346.174773 231.41889 
L 346.491818 232.817571 
L 346.808864 229.855784 
L 347.125909 229.060519 
L 347.76 232.925365 
L 348.077045 234.814094 
L 348.394091 231.342122 
L 348.711136 231.586608 
L 349.028182 236.992924 
L 349.345227 239.14361 
L 349.662273 234.271089 
L 349.979318 233.57214 
L 350.296364 237.921745 
L 350.613409 238.208247 
L 350.930455 238.018185 
L 351.2475 236.936367 
L 352.198636 239.666053 
L 352.515682 240.271289 
L 352.832727 235.234586 
L 353.149773 239.124932 
L 353.466818 240.53871 
L 353.783864 240.721814 
L 354.100909 241.119502 
L 354.417955 239.141091 
L 354.735 241.968456 
L 355.052045 243.745932 
L 355.369091 243.327271 
L 355.686136 243.74387 
L 356.003182 242.73976 
L 356.320227 243.73083 
L 356.637273 245.681761 
L 356.954318 243.867196 
L 357.271364 243.51387 
L 357.905455 245.308796 
L 358.2225 244.765331 
L 358.539545 247.247255 
L 358.856591 248.178813 
L 359.173636 247.165895 
L 359.490682 246.671427 
L 359.807727 248.211392 
L 360.124773 251.926452 
L 360.758864 249.711725 
L 361.075909 249.194934 
L 361.71 252.636165 
L 362.027045 251.766357 
L 362.661136 260.238796 
L 362.978182 261.136952 
L 363.295227 260.026479 
L 363.612273 260.378638 
L 363.929318 258.722479 
L 364.246364 259.16552 
L 364.563409 258.339269 
L 364.880455 259.727373 
L 365.1975 261.9966 
L 365.514545 263.087876 
L 365.831591 263.147237 
L 366.465682 261.282034 
L 366.782727 261.34473 
L 367.099773 265.104755 
L 367.733864 269.533001 
L 368.050909 268.35944 
L 368.367955 270.697827 
L 368.685 268.37425 
L 369.319091 272.356398 
L 369.636136 273.051193 
L 369.953182 273.295403 
L 370.270227 274.268197 
L 370.587273 275.938092 
L 370.904318 275.680177 
L 371.221364 273.390837 
L 371.538409 277.721636 
L 371.855455 279.149915 
L 372.1725 277.274446 
L 372.489545 278.775751 
L 372.806591 278.259551 
L 373.123636 278.562744 
L 373.440682 280.248953 
L 373.757727 278.30708 
L 374.074773 281.551064 
L 374.391818 283.267643 
L 374.708864 281.56814 
L 375.025909 285.662202 
L 375.342955 285.647736 
L 375.66 285.067698 
L 375.977045 287.524518 
L 376.294091 287.626737 
L 376.611136 291.835173 
L 377.245227 289.559175 
L 377.562273 291.613488 
L 377.879318 291.964425 
L 378.196364 293.303402 
L 378.513409 295.570592 
L 378.830455 296.457617 
L 379.1475 295.502911 
L 379.781591 297.31577 
L 380.098636 300.933702 
L 380.415682 300.209083 
L 380.732727 297.030054 
L 381.049773 298.866295 
L 381.366818 297.109633 
L 381.683864 301.581713 
L 382.317955 302.594989 
L 382.635 300.271649 
L 383.269091 302.589113 
L 383.586136 302.873804 
L 383.903182 303.345124 
L 384.220227 302.590077 
L 384.537273 307.906725 
L 384.854318 308.231108 
L 385.171364 308.024369 
L 385.488409 313.440393 
L 385.805455 310.401173 
L 386.1225 306.223956 
L 386.439545 307.855406 
L 386.756591 313.84505 
L 387.073636 315.275618 
L 387.390682 314.742522 
L 387.707727 316.194233 
L 388.024773 316.762612 
L 388.341818 316.996983 
L 388.658864 318.194018 
L 388.975909 313.912469 
L 389.292955 311.491839 
L 389.61 314.580572 
L 389.927045 316.255282 
L 390.244091 316.554052 
L 390.561136 318.159225 
L 391.195227 316.607409 
L 391.829318 319.658057 
L 392.146364 318.91543 
L 392.463409 319.334904 
L 392.780455 320.591485 
L 393.0975 317.907686 
L 393.414545 321.711149 
L 393.731591 319.760928 
L 394.048636 322.431467 
L 394.365682 323.683888 
L 394.682727 326.439625 
L 394.999773 326.02877 
L 395.316818 323.121898 
L 395.633864 323.704605 
L 395.950909 327.010225 
L 396.267955 327.563341 
L 396.585 326.527185 
L 397.219091 320.567176 
L 397.536136 322.580272 
L 398.170227 324.657134 
L 398.487273 345.555166 
L 398.487273 345.555166 
" clip-path="url(#p03c26230f2)" style="fill: none; stroke: #1f77b4; stroke-width: 1.5; stroke-linecap: square"/>
   </g>
   <g id="patch_3">
    <path d="M 57.6 307.584 
L 57.6 41.472 
" style="fill: none; stroke: #000000; stroke-width: 0.8; stroke-linejoin: miter; stroke-linecap: square"/>
   </g>
   <g id="patch_4">
    <path d="M 414.72 307.584 
L 414.72 41.472 
" style="fill: none; stroke: #000000; stroke-width: 0.8; stroke-linejoin: miter; stroke-linecap: square"/>
   </g>
   <g id="patch_5">
    <path d="M 57.6 307.584 
L 414.72 307.584 
" style="fill: none; stroke: #000000; stroke-width: 0.8; stroke-linejoin: miter; stroke-linecap: square"/>
   </g>
   <g id="patch_6">
    <path d="M 57.6 41.472 
L 414.72 41.472 
" style="fill: none; stroke: #000000; stroke-width: 0.8; stroke-linejoin: miter; stroke-linecap: square"/>
   </g>
   <g id="text_15">
    <!-- Power Spektrum des EEG Signals von Kanal F7-T3 -->
    <g transform="translate(86.964375 35.472) scale(0.12 -0.12)">
     <defs>
      <path id="DejaVuSans-50" d="M 1259 4147 
L 1259 2394 
L 2053 2394 
Q 2494 2394 2734 2622 
Q 2975 2850 2975 3272 
Q 2975 3691 2734 3919 
Q 2494 4147 2053 4147 
L 1259 4147 
z
M 628 4666 
L 2053 4666 
Q 2838 4666 3239 4311 
Q 3641 3956 3641 3272 
Q 3641 2581 3239 2228 
Q 2838 1875 2053 1875 
L 1259 1875 
L 1259 0 
L 628 0 
L 628 4666 
z
" transform="scale(0.015625)"/>
      <path id="DejaVuSans-6f" d="M 1959 3097 
Q 1497 3097 1228 2736 
Q 959 2375 959 1747 
Q 959 1119 1226 758 
Q 1494 397 1959 397 
Q 2419 397 2687 759 
Q 2956 1122 2956 1747 
Q 2956 2369 2687 2733 
Q 2419 3097 1959 3097 
z
M 1959 3584 
Q 2709 3584 3137 3096 
Q 3566 2609 3566 1747 
Q 3566 888 3137 398 
Q 2709 -91 1959 -91 
Q 1206 -91 779 398 
Q 353 888 353 1747 
Q 353 2609 779 3096 
Q 1206 3584 1959 3584 
z
" transform="scale(0.015625)"/>
      <path id="DejaVuSans-77" d="M 269 3500 
L 844 3500 
L 1563 769 
L 2278 3500 
L 2956 3500 
L 3675 769 
L 4391 3500 
L 4966 3500 
L 4050 0 
L 3372 0 
L 2619 2869 
L 1863 0 
L 1184 0 
L 269 3500 
z
" transform="scale(0.015625)"/>
      <path id="DejaVuSans-53" d="M 3425 4513 
L 3425 3897 
Q 3066 4069 2747 4153 
Q 2428 4238 2131 4238 
Q 1616 4238 1336 4038 
Q 1056 3838 1056 3469 
Q 1056 3159 1242 3001 
Q 1428 2844 1947 2747 
L 2328 2669 
Q 3034 2534 3370 2195 
Q 3706 1856 3706 1288 
Q 3706 609 3251 259 
Q 2797 -91 1919 -91 
Q 1588 -91 1214 -16 
Q 841 59 441 206 
L 441 856 
Q 825 641 1194 531 
Q 1563 422 1919 422 
Q 2459 422 2753 634 
Q 3047 847 3047 1241 
Q 3047 1584 2836 1778 
Q 2625 1972 2144 2069 
L 1759 2144 
Q 1053 2284 737 2584 
Q 422 2884 422 3419 
Q 422 4038 858 4394 
Q 1294 4750 2059 4750 
Q 2388 4750 2728 4690 
Q 3069 4631 3425 4513 
z
" transform="scale(0.015625)"/>
      <path id="DejaVuSans-70" d="M 1159 525 
L 1159 -1331 
L 581 -1331 
L 581 3500 
L 1159 3500 
L 1159 2969 
Q 1341 3281 1617 3432 
Q 1894 3584 2278 3584 
Q 2916 3584 3314 3078 
Q 3713 2572 3713 1747 
Q 3713 922 3314 415 
Q 2916 -91 2278 -91 
Q 1894 -91 1617 61 
Q 1341 213 1159 525 
z
M 3116 1747 
Q 3116 2381 2855 2742 
Q 2594 3103 2138 3103 
Q 1681 3103 1420 2742 
Q 1159 2381 1159 1747 
Q 1159 1113 1420 752 
Q 1681 391 2138 391 
Q 2594 391 2855 752 
Q 3116 1113 3116 1747 
z
" transform="scale(0.015625)"/>
      <path id="DejaVuSans-6b" d="M 581 4863 
L 1159 4863 
L 1159 1991 
L 2875 3500 
L 3609 3500 
L 1753 1863 
L 3688 0 
L 2938 0 
L 1159 1709 
L 1159 0 
L 581 0 
L 581 4863 
z
" transform="scale(0.015625)"/>
      <path id="DejaVuSans-6d" d="M 3328 2828 
Q 3544 3216 3844 3400 
Q 4144 3584 4550 3584 
Q 5097 3584 5394 3201 
Q 5691 2819 5691 2113 
L 5691 0 
L 5113 0 
L 5113 2094 
Q 5113 2597 4934 2840 
Q 4756 3084 4391 3084 
Q 3944 3084 3684 2787 
Q 3425 2491 3425 1978 
L 3425 0 
L 2847 0 
L 2847 2094 
Q 2847 2600 2669 2842 
Q 2491 3084 2119 3084 
Q 1678 3084 1418 2786 
Q 1159 2488 1159 1978 
L 1159 0 
L 581 0 
L 581 3500 
L 1159 3500 
L 1159 2956 
Q 1356 3278 1631 3431 
Q 1906 3584 2284 3584 
Q 2666 3584 2933 3390 
Q 3200 3197 3328 2828 
z
" transform="scale(0.015625)"/>
      <path id="DejaVuSans-64" d="M 2906 2969 
L 2906 4863 
L 3481 4863 
L 3481 0 
L 2906 0 
L 2906 525 
Q 2725 213 2448 61 
Q 2172 -91 1784 -91 
Q 1150 -91 751 415 
Q 353 922 353 1747 
Q 353 2572 751 3078 
Q 1150 3584 1784 3584 
Q 2172 3584 2448 3432 
Q 2725 3281 2906 2969 
z
M 947 1747 
Q 947 1113 1208 752 
Q 1469 391 1925 391 
Q 2381 391 2643 752 
Q 2906 1113 2906 1747 
Q 2906 2381 2643 2742 
Q 2381 3103 1925 3103 
Q 1469 3103 1208 2742 
Q 947 2381 947 1747 
z
" transform="scale(0.015625)"/>
      <path id="DejaVuSans-45" d="M 628 4666 
L 3578 4666 
L 3578 4134 
L 1259 4134 
L 1259 2753 
L 3481 2753 
L 3481 2222 
L 1259 2222 
L 1259 531 
L 3634 531 
L 3634 0 
L 628 0 
L 628 4666 
z
" transform="scale(0.015625)"/>
      <path id="DejaVuSans-47" d="M 3809 666 
L 3809 1919 
L 2778 1919 
L 2778 2438 
L 4434 2438 
L 4434 434 
Q 4069 175 3628 42 
Q 3188 -91 2688 -91 
Q 1594 -91 976 548 
Q 359 1188 359 2328 
Q 359 3472 976 4111 
Q 1594 4750 2688 4750 
Q 3144 4750 3555 4637 
Q 3966 4525 4313 4306 
L 4313 3634 
Q 3963 3931 3569 4081 
Q 3175 4231 2741 4231 
Q 1884 4231 1454 3753 
Q 1025 3275 1025 2328 
Q 1025 1384 1454 906 
Q 1884 428 2741 428 
Q 3075 428 3337 486 
Q 3600 544 3809 666 
z
" transform="scale(0.015625)"/>
      <path id="DejaVuSans-61" d="M 2194 1759 
Q 1497 1759 1228 1600 
Q 959 1441 959 1056 
Q 959 750 1161 570 
Q 1363 391 1709 391 
Q 2188 391 2477 730 
Q 2766 1069 2766 1631 
L 2766 1759 
L 2194 1759 
z
M 3341 1997 
L 3341 0 
L 2766 0 
L 2766 531 
Q 2569 213 2275 61 
Q 1981 -91 1556 -91 
Q 1019 -91 701 211 
Q 384 513 384 1019 
Q 384 1609 779 1909 
Q 1175 2209 1959 2209 
L 2766 2209 
L 2766 2266 
Q 2766 2663 2505 2880 
Q 2244 3097 1772 3097 
Q 1472 3097 1187 3025 
Q 903 2953 641 2809 
L 641 3341 
Q 956 3463 1253 3523 
Q 1550 3584 1831 3584 
Q 2591 3584 2966 3190 
Q 3341 2797 3341 1997 
z
" transform="scale(0.015625)"/>
      <path id="DejaVuSans-6c" d="M 603 4863 
L 1178 4863 
L 1178 0 
L 603 0 
L 603 4863 
z
" transform="scale(0.015625)"/>
      <path id="DejaVuSans-76" d="M 191 3500 
L 800 3500 
L 1894 563 
L 2988 3500 
L 3597 3500 
L 2284 0 
L 1503 0 
L 191 3500 
z
" transform="scale(0.015625)"/>
      <path id="DejaVuSans-4b" d="M 628 4666 
L 1259 4666 
L 1259 2694 
L 3353 4666 
L 4166 4666 
L 1850 2491 
L 4331 0 
L 3500 0 
L 1259 2247 
L 1259 0 
L 628 0 
L 628 4666 
z
" transform="scale(0.015625)"/>
      <path id="DejaVuSans-37" d="M 525 4666 
L 3525 4666 
L 3525 4397 
L 1831 0 
L 1172 0 
L 2766 4134 
L 525 4134 
L 525 4666 
z
" transform="scale(0.015625)"/>
      <path id="DejaVuSans-2d" d="M 313 2009 
L 1997 2009 
L 1997 1497 
L 313 1497 
L 313 2009 
z
" transform="scale(0.015625)"/>
      <path id="DejaVuSans-54" d="M -19 4666 
L 3928 4666 
L 3928 4134 
L 2272 4134 
L 2272 0 
L 1638 0 
L 1638 4134 
L -19 4134 
L -19 4666 
z
" transform="scale(0.015625)"/>
     </defs>
     <use xlink:href="#DejaVuSans-50"/>
     <use xlink:href="#DejaVuSans-6f" transform="translate(56.677734 0)"/>
     <use xlink:href="#DejaVuSans-77" transform="translate(117.859375 0)"/>
     <use xlink:href="#DejaVuSans-65" transform="translate(199.646484 0)"/>
     <use xlink:href="#DejaVuSans-72" transform="translate(261.169922 0)"/>
     <use xlink:href="#DejaVuSans-20" transform="translate(302.283203 0)"/>
     <use xlink:href="#DejaVuSans-53" transform="translate(334.070312 0)"/>
     <use xlink:href="#DejaVuSans-70" transform="translate(397.546875 0)"/>
     <use xlink:href="#DejaVuSans-65" transform="translate(461.023438 0)"/>
     <use xlink:href="#DejaVuSans-6b" transform="translate(522.546875 0)"/>
     <use xlink:href="#DejaVuSans-74" transform="translate(580.457031 0)"/>
     <use xlink:href="#DejaVuSans-72" transform="translate(619.666016 0)"/>
     <use xlink:href="#DejaVuSans-75" transform="translate(660.779297 0)"/>
     <use xlink:href="#DejaVuSans-6d" transform="translate(724.158203 0)"/>
     <use xlink:href="#DejaVuSans-20" transform="translate(821.570312 0)"/>
     <use xlink:href="#DejaVuSans-64" transform="translate(853.357422 0)"/>
     <use xlink:href="#DejaVuSans-65" transform="translate(916.833984 0)"/>
     <use xlink:href="#DejaVuSans-73" transform="translate(978.357422 0)"/>
     <use xlink:href="#DejaVuSans-20" transform="translate(1030.457031 0)"/>
     <use xlink:href="#DejaVuSans-45" transform="translate(1062.244141 0)"/>
     <use xlink:href="#DejaVuSans-45" transform="translate(1125.427734 0)"/>
     <use xlink:href="#DejaVuSans-47" transform="translate(1188.611328 0)"/>
     <use xlink:href="#DejaVuSans-20" transform="translate(1266.101562 0)"/>
     <use xlink:href="#DejaVuSans-53" transform="translate(1297.888672 0)"/>
     <use xlink:href="#DejaVuSans-69" transform="translate(1361.365234 0)"/>
     <use xlink:href="#DejaVuSans-67" transform="translate(1389.148438 0)"/>
     <use xlink:href="#DejaVuSans-6e" transform="translate(1452.625 0)"/>
     <use xlink:href="#DejaVuSans-61" transform="translate(1516.003906 0)"/>
     <use xlink:href="#DejaVuSans-6c" transform="translate(1577.283203 0)"/>
     <use xlink:href="#DejaVuSans-73" transform="translate(1605.066406 0)"/>
     <use xlink:href="#DejaVuSans-20" transform="translate(1657.166016 0)"/>
     <use xlink:href="#DejaVuSans-76" transform="translate(1688.953125 0)"/>
     <use xlink:href="#DejaVuSans-6f" transform="translate(1748.132812 0)"/>
     <use xlink:href="#DejaVuSans-6e" transform="translate(1809.314453 0)"/>
     <use xlink:href="#DejaVuSans-20" transform="translate(1872.693359 0)"/>
     <use xlink:href="#DejaVuSans-4b" transform="translate(1904.480469 0)"/>
     <use xlink:href="#DejaVuSans-61" transform="translate(1968.306641 0)"/>
     <use xlink:href="#DejaVuSans-6e" transform="translate(2029.585938 0)"/>
     <use xlink:href="#DejaVuSans-61" transform="translate(2092.964844 0)"/>
     <use xlink:href="#DejaVuSans-6c" transform="translate(2154.244141 0)"/>
     <use xlink:href="#DejaVuSans-20" transform="translate(2182.027344 0)"/>
     <use xlink:href="#DejaVuSans-46" transform="translate(2213.814453 0)"/>
     <use xlink:href="#DejaVuSans-37" transform="translate(2271.333984 0)"/>
     <use xlink:href="#DejaVuSans-2d" transform="translate(2334.957031 0)"/>
     <use xlink:href="#DejaVuSans-54" transform="translate(2361.916016 0)"/>
     <use xlink:href="#DejaVuSans-33" transform="translate(2423 0)"/>
    </g>
   </g>
  </g>
 </g>
 <defs>
  <clipPath id="p03c26230f2">
   <rect x="57.6" y="41.472" width="357.12" height="266.112"/>
  </clipPath>
 </defs>
</svg>
