<?xml version="1.0" encoding="utf-8" standalone="no"?>
<!DOCTYPE svg PUBLIC "-//W3C//DTD SVG 1.1//EN"
  "http://www.w3.org/Graphics/SVG/1.1/DTD/svg11.dtd">
<svg xmlns:xlink="http://www.w3.org/1999/xlink" width="460.8pt" height="345.6pt" viewBox="0 0 460.8 345.6" xmlns="http://www.w3.org/2000/svg" version="1.1">
 <metadata>
  <rdf:RDF xmlns:dc="http://purl.org/dc/elements/1.1/" xmlns:cc="http://creativecommons.org/ns#" xmlns:rdf="http://www.w3.org/1999/02/22-rdf-syntax-ns#">
   <cc:Work>
    <dc:type rdf:resource="http://purl.org/dc/dcmitype/StillImage"/>
    <dc:date>2025-11-03T14:05:19.026403</dc:date>
    <dc:format>image/svg+xml</dc:format>
    <dc:creator>
     <cc:Agent>
      <dc:title>Matplotlib v3.10.7, https://matplotlib.org/</dc:title>
     </cc:Agent>
    </dc:creator>
   </cc:Work>
  </rdf:RDF>
 </metadata>
 <defs>
  <style type="text/css">*{stroke-linejoin: round; stroke-linecap: butt}</style>
 </defs>
 <g id="figure_1">
  <g id="patch_1">
   <path d="M 0 345.6 
L 460.8 345.6 
L 460.8 0 
L 0 0 
z
" style="fill: #ffffff"/>
  </g>
  <g id="axes_1">
   <g id="patch_2">
    <path d="M 57.6 307.584 
L 414.72 307.584 
L 414.72 41.472 
L 57.6 41.472 
z
" style="fill: #ffffff"/>
   </g>
   <g id="matplotlib.axis_1">
    <g id="xtick_1">
     <g id="line2d_1">
      <defs>
       <path id="mf87b0ecdfd" d="M 0 0 
L 0 3.5 
" style="stroke: #000000; stroke-width: 0.8"/>
      </defs>
      <g>
       <use xlink:href="#mf87b0ecdfd" x="73.832727" y="307.584" style="stroke: #000000; stroke-width: 0.8"/>
      </g>
     </g>
     <g id="text_1">
      <!-- 0 -->
      <g transform="translate(70.651477 322.182437) scale(0.1 -0.1)">
       <defs>
        <path id="DejaVuSans-30" d="M 2034 4250 
Q 1547 4250 1301 3770 
Q 1056 3291 1056 2328 
Q 1056 1369 1301 889 
Q 1547 409 2034 409 
Q 2525 409 2770 889 
Q 3016 1369 3016 2328 
Q 3016 3291 2770 3770 
Q 2525 4250 2034 4250 
z
M 2034 4750 
Q 2819 4750 3233 4129 
Q 3647 3509 3647 2328 
Q 3647 1150 3233 529 
Q 2819 -91 2034 -91 
Q 1250 -91 836 529 
Q 422 1150 422 2328 
Q 422 3509 836 4129 
Q 1250 4750 2034 4750 
z
" transform="scale(0.015625)"/>
       </defs>
       <use xlink:href="#DejaVuSans-30"/>
      </g>
     </g>
    </g>
    <g id="xtick_2">
     <g id="line2d_2">
      <g>
       <use xlink:href="#mf87b0ecdfd" x="124.56" y="307.584" style="stroke: #000000; stroke-width: 0.8"/>
      </g>
     </g>
     <g id="text_2">
      <!-- 20 -->
      <g transform="translate(118.1975 322.182437) scale(0.1 -0.1)">
       <defs>
        <path id="DejaVuSans-32" d="M 1228 531 
L 3431 531 
L 3431 0 
L 469 0 
L 469 531 
Q 828 903 1448 1529 
Q 2069 2156 2228 2338 
Q 2531 2678 2651 2914 
Q 2772 3150 2772 3378 
Q 2772 3750 2511 3984 
Q 2250 4219 1831 4219 
Q 1534 4219 1204 4116 
Q 875 4013 500 3803 
L 500 4441 
Q 881 4594 1212 4672 
Q 1544 4750 1819 4750 
Q 2544 4750 2975 4387 
Q 3406 4025 3406 3419 
Q 3406 3131 3298 2873 
Q 3191 2616 2906 2266 
Q 2828 2175 2409 1742 
Q 1991 1309 1228 531 
z
" transform="scale(0.015625)"/>
       </defs>
       <use xlink:href="#DejaVuSans-32"/>
       <use xlink:href="#DejaVuSans-30" transform="translate(63.623047 0)"/>
      </g>
     </g>
    </g>
    <g id="xtick_3">
     <g id="line2d_3">
      <g>
       <use xlink:href="#mf87b0ecdfd" x="175.287273" y="307.584" style="stroke: #000000; stroke-width: 0.8"/>
      </g>
     </g>
     <g id="text_3">
      <!-- 40 -->
      <g transform="translate(168.924773 322.182437) scale(0.1 -0.1)">
       <defs>
        <path id="DejaVuSans-34" d="M 2419 4116 
L 825 1625 
L 2419 1625 
L 2419 4116 
z
M 2253 4666 
L 3047 4666 
L 3047 1625 
L 3713 1625 
L 3713 1100 
L 3047 1100 
L 3047 0 
L 2419 0 
L 2419 1100 
L 313 1100 
L 313 1709 
L 2253 4666 
z
" transform="scale(0.015625)"/>
       </defs>
       <use xlink:href="#DejaVuSans-34"/>
       <use xlink:href="#DejaVuSans-30" transform="translate(63.623047 0)"/>
      </g>
     </g>
    </g>
    <g id="xtick_4">
     <g id="line2d_4">
      <g>
       <use xlink:href="#mf87b0ecdfd" x="226.014545" y="307.584" style="stroke: #000000; stroke-width: 0.8"/>
      </g>
     </g>
     <g id="text_4">
      <!-- 60 -->
      <g transform="translate(219.652045 322.182437) scale(0.1 -0.1)">
       <defs>
        <path id="DejaVuSans-36" d="M 2113 2584 
Q 1688 2584 1439 2293 
Q 1191 2003 1191 1497 
Q 1191 994 1439 701 
Q 1688 409 2113 409 
Q 2538 409 2786 701 
Q 3034 994 3034 1497 
Q 3034 2003 2786 2293 
Q 2538 2584 2113 2584 
z
M 3366 4563 
L 3366 3988 
Q 3128 4100 2886 4159 
Q 2644 4219 2406 4219 
Q 1781 4219 1451 3797 
Q 1122 3375 1075 2522 
Q 1259 2794 1537 2939 
Q 1816 3084 2150 3084 
Q 2853 3084 3261 2657 
Q 3669 2231 3669 1497 
Q 3669 778 3244 343 
Q 2819 -91 2113 -91 
Q 1303 -91 875 529 
Q 447 1150 447 2328 
Q 447 3434 972 4092 
Q 1497 4750 2381 4750 
Q 2619 4750 2861 4703 
Q 3103 4656 3366 4563 
z
" transform="scale(0.015625)"/>
       </defs>
       <use xlink:href="#DejaVuSans-36"/>
       <use xlink:href="#DejaVuSans-30" transform="translate(63.623047 0)"/>
      </g>
     </g>
    </g>
    <g id="xtick_5">
     <g id="line2d_5">
      <g>
       <use xlink:href="#mf87b0ecdfd" x="276.741818" y="307.584" style="stroke: #000000; stroke-width: 0.8"/>
      </g>
     </g>
     <g id="text_5">
      <!-- 80 -->
      <g transform="translate(270.379318 322.182437) scale(0.1 -0.1)">
       <defs>
        <path id="DejaVuSans-38" d="M 2034 2216 
Q 1584 2216 1326 1975 
Q 1069 1734 1069 1313 
Q 1069 891 1326 650 
Q 1584 409 2034 409 
Q 2484 409 2743 651 
Q 3003 894 3003 1313 
Q 3003 1734 2745 1975 
Q 2488 2216 2034 2216 
z
M 1403 2484 
Q 997 2584 770 2862 
Q 544 3141 544 3541 
Q 544 4100 942 4425 
Q 1341 4750 2034 4750 
Q 2731 4750 3128 4425 
Q 3525 4100 3525 3541 
Q 3525 3141 3298 2862 
Q 3072 2584 2669 2484 
Q 3125 2378 3379 2068 
Q 3634 1759 3634 1313 
Q 3634 634 3220 271 
Q 2806 -91 2034 -91 
Q 1263 -91 848 271 
Q 434 634 434 1313 
Q 434 1759 690 2068 
Q 947 2378 1403 2484 
z
M 1172 3481 
Q 1172 3119 1398 2916 
Q 1625 2713 2034 2713 
Q 2441 2713 2670 2916 
Q 2900 3119 2900 3481 
Q 2900 3844 2670 4047 
Q 2441 4250 2034 4250 
Q 1625 4250 1398 4047 
Q 1172 3844 1172 3481 
z
" transform="scale(0.015625)"/>
       </defs>
       <use xlink:href="#DejaVuSans-38"/>
       <use xlink:href="#DejaVuSans-30" transform="translate(63.623047 0)"/>
      </g>
     </g>
    </g>
    <g id="xtick_6">
     <g id="line2d_6">
      <g>
       <use xlink:href="#mf87b0ecdfd" x="327.469091" y="307.584" style="stroke: #000000; stroke-width: 0.8"/>
      </g>
     </g>
     <g id="text_6">
      <!-- 100 -->
      <g transform="translate(317.925341 322.182437) scale(0.1 -0.1)">
       <defs>
        <path id="DejaVuSans-31" d="M 794 531 
L 1825 531 
L 1825 4091 
L 703 3866 
L 703 4441 
L 1819 4666 
L 2450 4666 
L 2450 531 
L 3481 531 
L 3481 0 
L 794 0 
L 794 531 
z
" transform="scale(0.015625)"/>
       </defs>
       <use xlink:href="#DejaVuSans-31"/>
       <use xlink:href="#DejaVuSans-30" transform="translate(63.623047 0)"/>
       <use xlink:href="#DejaVuSans-30" transform="translate(127.246094 0)"/>
      </g>
     </g>
    </g>
    <g id="xtick_7">
     <g id="line2d_7">
      <g>
       <use xlink:href="#mf87b0ecdfd" x="378.196364" y="307.584" style="stroke: #000000; stroke-width: 0.8"/>
      </g>
     </g>
     <g id="text_7">
      <!-- 120 -->
      <g transform="translate(368.652614 322.182437) scale(0.1 -0.1)">
       <use xlink:href="#DejaVuSans-31"/>
       <use xlink:href="#DejaVuSans-32" transform="translate(63.623047 0)"/>
       <use xlink:href="#DejaVuSans-30" transform="translate(127.246094 0)"/>
      </g>
     </g>
    </g>
    <g id="text_8">
     <!-- Frequenz in Hz -->
     <g transform="translate(199.294375 335.860562) scale(0.1 -0.1)">
      <defs>
       <path id="DejaVuSans-46" d="M 628 4666 
L 3309 4666 
L 3309 4134 
L 1259 4134 
L 1259 2759 
L 3109 2759 
L 3109 2228 
L 1259 2228 
L 1259 0 
L 628 0 
L 628 4666 
z
" transform="scale(0.015625)"/>
       <path id="DejaVuSans-72" d="M 2631 2963 
Q 2534 3019 2420 3045 
Q 2306 3072 2169 3072 
Q 1681 3072 1420 2755 
Q 1159 2438 1159 1844 
L 1159 0 
L 581 0 
L 581 3500 
L 1159 3500 
L 1159 2956 
Q 1341 3275 1631 3429 
Q 1922 3584 2338 3584 
Q 2397 3584 2469 3576 
Q 2541 3569 2628 3553 
L 2631 2963 
z
" transform="scale(0.015625)"/>
       <path id="DejaVuSans-65" d="M 3597 1894 
L 3597 1613 
L 953 1613 
Q 991 1019 1311 708 
Q 1631 397 2203 397 
Q 2534 397 2845 478 
Q 3156 559 3463 722 
L 3463 178 
Q 3153 47 2828 -22 
Q 2503 -91 2169 -91 
Q 1331 -91 842 396 
Q 353 884 353 1716 
Q 353 2575 817 3079 
Q 1281 3584 2069 3584 
Q 2775 3584 3186 3129 
Q 3597 2675 3597 1894 
z
M 3022 2063 
Q 3016 2534 2758 2815 
Q 2500 3097 2075 3097 
Q 1594 3097 1305 2825 
Q 1016 2553 972 2059 
L 3022 2063 
z
" transform="scale(0.015625)"/>
       <path id="DejaVuSans-71" d="M 947 1747 
Q 947 1113 1208 752 
Q 1469 391 1925 391 
Q 2381 391 2643 752 
Q 2906 1113 2906 1747 
Q 2906 2381 2643 2742 
Q 2381 3103 1925 3103 
Q 1469 3103 1208 2742 
Q 947 2381 947 1747 
z
M 2906 525 
Q 2725 213 2448 61 
Q 2172 -91 1784 -91 
Q 1150 -91 751 415 
Q 353 922 353 1747 
Q 353 2572 751 3078 
Q 1150 3584 1784 3584 
Q 2172 3584 2448 3432 
Q 2725 3281 2906 2969 
L 2906 3500 
L 3481 3500 
L 3481 -1331 
L 2906 -1331 
L 2906 525 
z
" transform="scale(0.015625)"/>
       <path id="DejaVuSans-75" d="M 544 1381 
L 544 3500 
L 1119 3500 
L 1119 1403 
Q 1119 906 1312 657 
Q 1506 409 1894 409 
Q 2359 409 2629 706 
Q 2900 1003 2900 1516 
L 2900 3500 
L 3475 3500 
L 3475 0 
L 2900 0 
L 2900 538 
Q 2691 219 2414 64 
Q 2138 -91 1772 -91 
Q 1169 -91 856 284 
Q 544 659 544 1381 
z
M 1991 3584 
L 1991 3584 
z
" transform="scale(0.015625)"/>
       <path id="DejaVuSans-6e" d="M 3513 2113 
L 3513 0 
L 2938 0 
L 2938 2094 
Q 2938 2591 2744 2837 
Q 2550 3084 2163 3084 
Q 1697 3084 1428 2787 
Q 1159 2491 1159 1978 
L 1159 0 
L 581 0 
L 581 3500 
L 1159 3500 
L 1159 2956 
Q 1366 3272 1645 3428 
Q 1925 3584 2291 3584 
Q 2894 3584 3203 3211 
Q 3513 2838 3513 2113 
z
" transform="scale(0.015625)"/>
       <path id="DejaVuSans-7a" d="M 353 3500 
L 3084 3500 
L 3084 2975 
L 922 459 
L 3084 459 
L 3084 0 
L 275 0 
L 275 525 
L 2438 3041 
L 353 3041 
L 353 3500 
z
" transform="scale(0.015625)"/>
       <path id="DejaVuSans-20" transform="scale(0.015625)"/>
       <path id="DejaVuSans-69" d="M 603 3500 
L 1178 3500 
L 1178 0 
L 603 0 
L 603 3500 
z
M 603 4863 
L 1178 4863 
L 1178 4134 
L 603 4134 
L 603 4863 
z
" transform="scale(0.015625)"/>
       <path id="DejaVuSans-48" d="M 628 4666 
L 1259 4666 
L 1259 2753 
L 3553 2753 
L 3553 4666 
L 4184 4666 
L 4184 0 
L 3553 0 
L 3553 2222 
L 1259 2222 
L 1259 0 
L 628 0 
L 628 4666 
z
" transform="scale(0.015625)"/>
      </defs>
      <use xlink:href="#DejaVuSans-46"/>
      <use xlink:href="#DejaVuSans-72" transform="translate(50.269531 0)"/>
      <use xlink:href="#DejaVuSans-65" transform="translate(89.132812 0)"/>
      <use xlink:href="#DejaVuSans-71" transform="translate(150.65625 0)"/>
      <use xlink:href="#DejaVuSans-75" transform="translate(214.132812 0)"/>
      <use xlink:href="#DejaVuSans-65" transform="translate(277.511719 0)"/>
      <use xlink:href="#DejaVuSans-6e" transform="translate(339.035156 0)"/>
      <use xlink:href="#DejaVuSans-7a" transform="translate(402.414062 0)"/>
      <use xlink:href="#DejaVuSans-20" transform="translate(454.904297 0)"/>
      <use xlink:href="#DejaVuSans-69" transform="translate(486.691406 0)"/>
      <use xlink:href="#DejaVuSans-6e" transform="translate(514.474609 0)"/>
      <use xlink:href="#DejaVuSans-20" transform="translate(577.853516 0)"/>
      <use xlink:href="#DejaVuSans-48" transform="translate(609.640625 0)"/>
      <use xlink:href="#DejaVuSans-7a" transform="translate(684.835938 0)"/>
     </g>
    </g>
   </g>
   <g id="matplotlib.axis_2">
    <g id="ytick_1">
     <g id="line2d_8">
      <defs>
       <path id="m97ca80be72" d="M 0 0 
L -3.5 0 
" style="stroke: #000000; stroke-width: 0.8"/>
      </defs>
      <g>
       <use xlink:href="#m97ca80be72" x="57.6" y="268.626631" style="stroke: #000000; stroke-width: 0.8"/>
      </g>
     </g>
     <g id="text_9">
      <!-- $\mathdefault{10^{-3}}$ -->
      <g transform="translate(27.1 272.42585) scale(0.1 -0.1)">
       <defs>
        <path id="DejaVuSans-2212" d="M 678 2272 
L 4684 2272 
L 4684 1741 
L 678 1741 
L 678 2272 
z
" transform="scale(0.015625)"/>
        <path id="DejaVuSans-33" d="M 2597 2516 
Q 3050 2419 3304 2112 
Q 3559 1806 3559 1356 
Q 3559 666 3084 287 
Q 2609 -91 1734 -91 
Q 1441 -91 1130 -33 
Q 819 25 488 141 
L 488 750 
Q 750 597 1062 519 
Q 1375 441 1716 441 
Q 2309 441 2620 675 
Q 2931 909 2931 1356 
Q 2931 1769 2642 2001 
Q 2353 2234 1838 2234 
L 1294 2234 
L 1294 2753 
L 1863 2753 
Q 2328 2753 2575 2939 
Q 2822 3125 2822 3475 
Q 2822 3834 2567 4026 
Q 2313 4219 1838 4219 
Q 1578 4219 1281 4162 
Q 984 4106 628 3988 
L 628 4550 
Q 988 4650 1302 4700 
Q 1616 4750 1894 4750 
Q 2613 4750 3031 4423 
Q 3450 4097 3450 3541 
Q 3450 3153 3228 2886 
Q 3006 2619 2597 2516 
z
" transform="scale(0.015625)"/>
       </defs>
       <use xlink:href="#DejaVuSans-31" transform="translate(0 0.765625)"/>
       <use xlink:href="#DejaVuSans-30" transform="translate(63.623047 0.765625)"/>
       <use xlink:href="#DejaVuSans-2212" transform="translate(128.203125 39.046875) scale(0.7)"/>
       <use xlink:href="#DejaVuSans-33" transform="translate(186.855469 39.046875) scale(0.7)"/>
      </g>
     </g>
    </g>
    <g id="ytick_2">
     <g id="line2d_9">
      <g>
       <use xlink:href="#m97ca80be72" x="57.6" y="217.919259" style="stroke: #000000; stroke-width: 0.8"/>
      </g>
     </g>
     <g id="text_10">
      <!-- $\mathdefault{10^{-2}}$ -->
      <g transform="translate(27.1 221.718478) scale(0.1 -0.1)">
       <use xlink:href="#DejaVuSans-31" transform="translate(0 0.765625)"/>
       <use xlink:href="#DejaVuSans-30" transform="translate(63.623047 0.765625)"/>
       <use xlink:href="#DejaVuSans-2212" transform="translate(128.203125 39.046875) scale(0.7)"/>
       <use xlink:href="#DejaVuSans-32" transform="translate(186.855469 39.046875) scale(0.7)"/>
      </g>
     </g>
    </g>
    <g id="ytick_3">
     <g id="line2d_10">
      <g>
       <use xlink:href="#m97ca80be72" x="57.6" y="167.211887" style="stroke: #000000; stroke-width: 0.8"/>
      </g>
     </g>
     <g id="text_11">
      <!-- $\mathdefault{10^{-1}}$ -->
      <g transform="translate(27.1 171.011106) scale(0.1 -0.1)">
       <use xlink:href="#DejaVuSans-31" transform="translate(0 0.684375)"/>
       <use xlink:href="#DejaVuSans-30" transform="translate(63.623047 0.684375)"/>
       <use xlink:href="#DejaVuSans-2212" transform="translate(128.203125 38.965625) scale(0.7)"/>
       <use xlink:href="#DejaVuSans-31" transform="translate(186.855469 38.965625) scale(0.7)"/>
      </g>
     </g>
    </g>
    <g id="ytick_4">
     <g id="line2d_11">
      <g>
       <use xlink:href="#m97ca80be72" x="57.6" y="116.504515" style="stroke: #000000; stroke-width: 0.8"/>
      </g>
     </g>
     <g id="text_12">
      <!-- $\mathdefault{10^{0}}$ -->
      <g transform="translate(33 120.303733) scale(0.1 -0.1)">
       <use xlink:href="#DejaVuSans-31" transform="translate(0 0.765625)"/>
       <use xlink:href="#DejaVuSans-30" transform="translate(63.623047 0.765625)"/>
       <use xlink:href="#DejaVuSans-30" transform="translate(128.203125 39.046875) scale(0.7)"/>
      </g>
     </g>
    </g>
    <g id="ytick_5">
     <g id="line2d_12">
      <g>
       <use xlink:href="#m97ca80be72" x="57.6" y="65.797143" style="stroke: #000000; stroke-width: 0.8"/>
      </g>
     </g>
     <g id="text_13">
      <!-- $\mathdefault{10^{1}}$ -->
      <g transform="translate(33 69.596361) scale(0.1 -0.1)">
       <use xlink:href="#DejaVuSans-31" transform="translate(0 0.684375)"/>
       <use xlink:href="#DejaVuSans-30" transform="translate(63.623047 0.684375)"/>
       <use xlink:href="#DejaVuSans-31" transform="translate(128.203125 38.965625) scale(0.7)"/>
      </g>
     </g>
    </g>
    <g id="ytick_6">
     <g id="line2d_13">
      <defs>
       <path id="m665eeff7f8" d="M 0 0 
L -2 0 
" style="stroke: #000000; stroke-width: 0.6"/>
      </defs>
      <g>
       <use xlink:href="#m665eeff7f8" x="57.6" y="304.069563" style="stroke: #000000; stroke-width: 0.6"/>
      </g>
     </g>
    </g>
    <g id="ytick_7">
     <g id="line2d_14">
      <g>
       <use xlink:href="#m665eeff7f8" x="57.6" y="295.140438" style="stroke: #000000; stroke-width: 0.6"/>
      </g>
     </g>
    </g>
    <g id="ytick_8">
     <g id="line2d_15">
      <g>
       <use xlink:href="#m665eeff7f8" x="57.6" y="288.805123" style="stroke: #000000; stroke-width: 0.6"/>
      </g>
     </g>
    </g>
    <g id="ytick_9">
     <g id="line2d_16">
      <g>
       <use xlink:href="#m665eeff7f8" x="57.6" y="283.891071" style="stroke: #000000; stroke-width: 0.6"/>
      </g>
     </g>
    </g>
    <g id="ytick_10">
     <g id="line2d_17">
      <g>
       <use xlink:href="#m665eeff7f8" x="57.6" y="279.875998" style="stroke: #000000; stroke-width: 0.6"/>
      </g>
     </g>
    </g>
    <g id="ytick_11">
     <g id="line2d_18">
      <g>
       <use xlink:href="#m665eeff7f8" x="57.6" y="276.481303" style="stroke: #000000; stroke-width: 0.6"/>
      </g>
     </g>
    </g>
    <g id="ytick_12">
     <g id="line2d_19">
      <g>
       <use xlink:href="#m665eeff7f8" x="57.6" y="273.540683" style="stroke: #000000; stroke-width: 0.6"/>
      </g>
     </g>
    </g>
    <g id="ytick_13">
     <g id="line2d_20">
      <g>
       <use xlink:href="#m665eeff7f8" x="57.6" y="270.946873" style="stroke: #000000; stroke-width: 0.6"/>
      </g>
     </g>
    </g>
    <g id="ytick_14">
     <g id="line2d_21">
      <g>
       <use xlink:href="#m665eeff7f8" x="57.6" y="253.362191" style="stroke: #000000; stroke-width: 0.6"/>
      </g>
     </g>
    </g>
    <g id="ytick_15">
     <g id="line2d_22">
      <g>
       <use xlink:href="#m665eeff7f8" x="57.6" y="244.433066" style="stroke: #000000; stroke-width: 0.6"/>
      </g>
     </g>
    </g>
    <g id="ytick_16">
     <g id="line2d_23">
      <g>
       <use xlink:href="#m665eeff7f8" x="57.6" y="238.097751" style="stroke: #000000; stroke-width: 0.6"/>
      </g>
     </g>
    </g>
    <g id="ytick_17">
     <g id="line2d_24">
      <g>
       <use xlink:href="#m665eeff7f8" x="57.6" y="233.183699" style="stroke: #000000; stroke-width: 0.6"/>
      </g>
     </g>
    </g>
    <g id="ytick_18">
     <g id="line2d_25">
      <g>
       <use xlink:href="#m665eeff7f8" x="57.6" y="229.168626" style="stroke: #000000; stroke-width: 0.6"/>
      </g>
     </g>
    </g>
    <g id="ytick_19">
     <g id="line2d_26">
      <g>
       <use xlink:href="#m665eeff7f8" x="57.6" y="225.77393" style="stroke: #000000; stroke-width: 0.6"/>
      </g>
     </g>
    </g>
    <g id="ytick_20">
     <g id="line2d_27">
      <g>
       <use xlink:href="#m665eeff7f8" x="57.6" y="222.833311" style="stroke: #000000; stroke-width: 0.6"/>
      </g>
     </g>
    </g>
    <g id="ytick_21">
     <g id="line2d_28">
      <g>
       <use xlink:href="#m665eeff7f8" x="57.6" y="220.239501" style="stroke: #000000; stroke-width: 0.6"/>
      </g>
     </g>
    </g>
    <g id="ytick_22">
     <g id="line2d_29">
      <g>
       <use xlink:href="#m665eeff7f8" x="57.6" y="202.654819" style="stroke: #000000; stroke-width: 0.6"/>
      </g>
     </g>
    </g>
    <g id="ytick_23">
     <g id="line2d_30">
      <g>
       <use xlink:href="#m665eeff7f8" x="57.6" y="193.725694" style="stroke: #000000; stroke-width: 0.6"/>
      </g>
     </g>
    </g>
    <g id="ytick_24">
     <g id="line2d_31">
      <g>
       <use xlink:href="#m665eeff7f8" x="57.6" y="187.390379" style="stroke: #000000; stroke-width: 0.6"/>
      </g>
     </g>
    </g>
    <g id="ytick_25">
     <g id="line2d_32">
      <g>
       <use xlink:href="#m665eeff7f8" x="57.6" y="182.476327" style="stroke: #000000; stroke-width: 0.6"/>
      </g>
     </g>
    </g>
    <g id="ytick_26">
     <g id="line2d_33">
      <g>
       <use xlink:href="#m665eeff7f8" x="57.6" y="178.461254" style="stroke: #000000; stroke-width: 0.6"/>
      </g>
     </g>
    </g>
    <g id="ytick_27">
     <g id="line2d_34">
      <g>
       <use xlink:href="#m665eeff7f8" x="57.6" y="175.066558" style="stroke: #000000; stroke-width: 0.6"/>
      </g>
     </g>
    </g>
    <g id="ytick_28">
     <g id="line2d_35">
      <g>
       <use xlink:href="#m665eeff7f8" x="57.6" y="172.125939" style="stroke: #000000; stroke-width: 0.6"/>
      </g>
     </g>
    </g>
    <g id="ytick_29">
     <g id="line2d_36">
      <g>
       <use xlink:href="#m665eeff7f8" x="57.6" y="169.532129" style="stroke: #000000; stroke-width: 0.6"/>
      </g>
     </g>
    </g>
    <g id="ytick_30">
     <g id="line2d_37">
      <g>
       <use xlink:href="#m665eeff7f8" x="57.6" y="151.947447" style="stroke: #000000; stroke-width: 0.6"/>
      </g>
     </g>
    </g>
    <g id="ytick_31">
     <g id="line2d_38">
      <g>
       <use xlink:href="#m665eeff7f8" x="57.6" y="143.018322" style="stroke: #000000; stroke-width: 0.6"/>
      </g>
     </g>
    </g>
    <g id="ytick_32">
     <g id="line2d_39">
      <g>
       <use xlink:href="#m665eeff7f8" x="57.6" y="136.683007" style="stroke: #000000; stroke-width: 0.6"/>
      </g>
     </g>
    </g>
    <g id="ytick_33">
     <g id="line2d_40">
      <g>
       <use xlink:href="#m665eeff7f8" x="57.6" y="131.768955" style="stroke: #000000; stroke-width: 0.6"/>
      </g>
     </g>
    </g>
    <g id="ytick_34">
     <g id="line2d_41">
      <g>
       <use xlink:href="#m665eeff7f8" x="57.6" y="127.753882" style="stroke: #000000; stroke-width: 0.6"/>
      </g>
     </g>
    </g>
    <g id="ytick_35">
     <g id="line2d_42">
      <g>
       <use xlink:href="#m665eeff7f8" x="57.6" y="124.359186" style="stroke: #000000; stroke-width: 0.6"/>
      </g>
     </g>
    </g>
    <g id="ytick_36">
     <g id="line2d_43">
      <g>
       <use xlink:href="#m665eeff7f8" x="57.6" y="121.418567" style="stroke: #000000; stroke-width: 0.6"/>
      </g>
     </g>
    </g>
    <g id="ytick_37">
     <g id="line2d_44">
      <g>
       <use xlink:href="#m665eeff7f8" x="57.6" y="118.824757" style="stroke: #000000; stroke-width: 0.6"/>
      </g>
     </g>
    </g>
    <g id="ytick_38">
     <g id="line2d_45">
      <g>
       <use xlink:href="#m665eeff7f8" x="57.6" y="101.240075" style="stroke: #000000; stroke-width: 0.6"/>
      </g>
     </g>
    </g>
    <g id="ytick_39">
     <g id="line2d_46">
      <g>
       <use xlink:href="#m665eeff7f8" x="57.6" y="92.31095" style="stroke: #000000; stroke-width: 0.6"/>
      </g>
     </g>
    </g>
    <g id="ytick_40">
     <g id="line2d_47">
      <g>
       <use xlink:href="#m665eeff7f8" x="57.6" y="85.975635" style="stroke: #000000; stroke-width: 0.6"/>
      </g>
     </g>
    </g>
    <g id="ytick_41">
     <g id="line2d_48">
      <g>
       <use xlink:href="#m665eeff7f8" x="57.6" y="81.061583" style="stroke: #000000; stroke-width: 0.6"/>
      </g>
     </g>
    </g>
    <g id="ytick_42">
     <g id="line2d_49">
      <g>
       <use xlink:href="#m665eeff7f8" x="57.6" y="77.04651" style="stroke: #000000; stroke-width: 0.6"/>
      </g>
     </g>
    </g>
    <g id="ytick_43">
     <g id="line2d_50">
      <g>
       <use xlink:href="#m665eeff7f8" x="57.6" y="73.651814" style="stroke: #000000; stroke-width: 0.6"/>
      </g>
     </g>
    </g>
    <g id="ytick_44">
     <g id="line2d_51">
      <g>
       <use xlink:href="#m665eeff7f8" x="57.6" y="70.711195" style="stroke: #000000; stroke-width: 0.6"/>
      </g>
     </g>
    </g>
    <g id="ytick_45">
     <g id="line2d_52">
      <g>
       <use xlink:href="#m665eeff7f8" x="57.6" y="68.117385" style="stroke: #000000; stroke-width: 0.6"/>
      </g>
     </g>
    </g>
    <g id="ytick_46">
     <g id="line2d_53">
      <g>
       <use xlink:href="#m665eeff7f8" x="57.6" y="50.532703" style="stroke: #000000; stroke-width: 0.6"/>
      </g>
     </g>
    </g>
    <g id="ytick_47">
     <g id="line2d_54">
      <g>
       <use xlink:href="#m665eeff7f8" x="57.6" y="41.603578" style="stroke: #000000; stroke-width: 0.6"/>
      </g>
     </g>
    </g>
    <g id="text_14">
     <!-- Leistung/Frequenz (V²/Hz) -->
     <g transform="translate(21.020312 239.182687) rotate(-90) scale(0.1 -0.1)">
      <defs>
       <path id="DejaVuSans-4c" d="M 628 4666 
L 1259 4666 
L 1259 531 
L 3531 531 
L 3531 0 
L 628 0 
L 628 4666 
z
" transform="scale(0.015625)"/>
       <path id="DejaVuSans-73" d="M 2834 3397 
L 2834 2853 
Q 2591 2978 2328 3040 
Q 2066 3103 1784 3103 
Q 1356 3103 1142 2972 
Q 928 2841 928 2578 
Q 928 2378 1081 2264 
Q 1234 2150 1697 2047 
L 1894 2003 
Q 2506 1872 2764 1633 
Q 3022 1394 3022 966 
Q 3022 478 2636 193 
Q 2250 -91 1575 -91 
Q 1294 -91 989 -36 
Q 684 19 347 128 
L 347 722 
Q 666 556 975 473 
Q 1284 391 1588 391 
Q 1994 391 2212 530 
Q 2431 669 2431 922 
Q 2431 1156 2273 1281 
Q 2116 1406 1581 1522 
L 1381 1569 
Q 847 1681 609 1914 
Q 372 2147 372 2553 
Q 372 3047 722 3315 
Q 1072 3584 1716 3584 
Q 2034 3584 2315 3537 
Q 2597 3491 2834 3397 
z
" transform="scale(0.015625)"/>
       <path id="DejaVuSans-74" d="M 1172 4494 
L 1172 3500 
L 2356 3500 
L 2356 3053 
L 1172 3053 
L 1172 1153 
Q 1172 725 1289 603 
Q 1406 481 1766 481 
L 2356 481 
L 2356 0 
L 1766 0 
Q 1100 0 847 248 
Q 594 497 594 1153 
L 594 3053 
L 172 3053 
L 172 3500 
L 594 3500 
L 594 4494 
L 1172 4494 
z
" transform="scale(0.015625)"/>
       <path id="DejaVuSans-67" d="M 2906 1791 
Q 2906 2416 2648 2759 
Q 2391 3103 1925 3103 
Q 1463 3103 1205 2759 
Q 947 2416 947 1791 
Q 947 1169 1205 825 
Q 1463 481 1925 481 
Q 2391 481 2648 825 
Q 2906 1169 2906 1791 
z
M 3481 434 
Q 3481 -459 3084 -895 
Q 2688 -1331 1869 -1331 
Q 1566 -1331 1297 -1286 
Q 1028 -1241 775 -1147 
L 775 -588 
Q 1028 -725 1275 -790 
Q 1522 -856 1778 -856 
Q 2344 -856 2625 -561 
Q 2906 -266 2906 331 
L 2906 616 
Q 2728 306 2450 153 
Q 2172 0 1784 0 
Q 1141 0 747 490 
Q 353 981 353 1791 
Q 353 2603 747 3093 
Q 1141 3584 1784 3584 
Q 2172 3584 2450 3431 
Q 2728 3278 2906 2969 
L 2906 3500 
L 3481 3500 
L 3481 434 
z
" transform="scale(0.015625)"/>
       <path id="DejaVuSans-2f" d="M 1625 4666 
L 2156 4666 
L 531 -594 
L 0 -594 
L 1625 4666 
z
" transform="scale(0.015625)"/>
       <path id="DejaVuSans-28" d="M 1984 4856 
Q 1566 4138 1362 3434 
Q 1159 2731 1159 2009 
Q 1159 1288 1364 580 
Q 1569 -128 1984 -844 
L 1484 -844 
Q 1016 -109 783 600 
Q 550 1309 550 2009 
Q 550 2706 781 3412 
Q 1013 4119 1484 4856 
L 1984 4856 
z
" transform="scale(0.015625)"/>
       <path id="DejaVuSans-56" d="M 1831 0 
L 50 4666 
L 709 4666 
L 2188 738 
L 3669 4666 
L 4325 4666 
L 2547 0 
L 1831 0 
z
" transform="scale(0.015625)"/>
       <path id="DejaVuSans-b2" d="M 838 2444 
L 2163 2444 
L 2163 2088 
L 294 2088 
L 294 2431 
Q 400 2528 597 2703 
Q 1672 3656 1672 3950 
Q 1672 4156 1509 4282 
Q 1347 4409 1081 4409 
Q 919 4409 728 4354 
Q 538 4300 313 4191 
L 313 4575 
Q 553 4663 761 4706 
Q 969 4750 1147 4750 
Q 1600 4750 1872 4544 
Q 2144 4338 2144 4000 
Q 2144 3566 1109 2678 
Q 934 2528 838 2444 
z
" transform="scale(0.015625)"/>
       <path id="DejaVuSans-29" d="M 513 4856 
L 1013 4856 
Q 1481 4119 1714 3412 
Q 1947 2706 1947 2009 
Q 1947 1309 1714 600 
Q 1481 -109 1013 -844 
L 513 -844 
Q 928 -128 1133 580 
Q 1338 1288 1338 2009 
Q 1338 2731 1133 3434 
Q 928 4138 513 4856 
z
" transform="scale(0.015625)"/>
      </defs>
      <use xlink:href="#DejaVuSans-4c"/>
      <use xlink:href="#DejaVuSans-65" transform="translate(53.962891 0)"/>
      <use xlink:href="#DejaVuSans-69" transform="translate(115.486328 0)"/>
      <use xlink:href="#DejaVuSans-73" transform="translate(143.269531 0)"/>
      <use xlink:href="#DejaVuSans-74" transform="translate(195.369141 0)"/>
      <use xlink:href="#DejaVuSans-75" transform="translate(234.578125 0)"/>
      <use xlink:href="#DejaVuSans-6e" transform="translate(297.957031 0)"/>
      <use xlink:href="#DejaVuSans-67" transform="translate(361.335938 0)"/>
      <use xlink:href="#DejaVuSans-2f" transform="translate(424.8125 0)"/>
      <use xlink:href="#DejaVuSans-46" transform="translate(458.503906 0)"/>
      <use xlink:href="#DejaVuSans-72" transform="translate(508.773438 0)"/>
      <use xlink:href="#DejaVuSans-65" transform="translate(547.636719 0)"/>
      <use xlink:href="#DejaVuSans-71" transform="translate(609.160156 0)"/>
      <use xlink:href="#DejaVuSans-75" transform="translate(672.636719 0)"/>
      <use xlink:href="#DejaVuSans-65" transform="translate(736.015625 0)"/>
      <use xlink:href="#DejaVuSans-6e" transform="translate(797.539062 0)"/>
      <use xlink:href="#DejaVuSans-7a" transform="translate(860.917969 0)"/>
      <use xlink:href="#DejaVuSans-20" transform="translate(913.408203 0)"/>
      <use xlink:href="#DejaVuSans-28" transform="translate(945.195312 0)"/>
      <use xlink:href="#DejaVuSans-56" transform="translate(984.208984 0)"/>
      <use xlink:href="#DejaVuSans-b2" transform="translate(1052.617188 0)"/>
      <use xlink:href="#DejaVuSans-2f" transform="translate(1092.705078 0)"/>
      <use xlink:href="#DejaVuSans-48" transform="translate(1126.396484 0)"/>
      <use xlink:href="#DejaVuSans-7a" transform="translate(1201.591797 0)"/>
      <use xlink:href="#DejaVuSans-29" transform="translate(1254.082031 0)"/>
     </g>
    </g>
   </g>
   <g id="line2d_55">
    <path d="M 73.832727 88.139088 
L 74.149773 53.568 
L 74.466818 53.746959 
L 74.783864 70.933495 
L 75.100909 80.839778 
L 75.417955 83.186771 
L 75.735 80.258704 
L 76.369091 93.771515 
L 77.003182 76.641514 
L 77.637273 109.234603 
L 77.954318 114.155497 
L 78.271364 115.393401 
L 78.588409 117.166022 
L 78.905455 109.599041 
L 79.2225 114.106955 
L 79.539545 116.382105 
L 79.856591 114.081066 
L 80.173636 117.050809 
L 80.490682 128.176995 
L 80.807727 128.050719 
L 81.124773 127.216742 
L 82.392955 135.15884 
L 82.71 139.071039 
L 83.027045 135.761527 
L 83.344091 134.284335 
L 83.661136 139.192599 
L 83.978182 138.753197 
L 84.295227 139.694853 
L 84.612273 138.204823 
L 84.929318 138.959673 
L 85.246364 136.510653 
L 85.563409 141.791533 
L 85.880455 145.187898 
L 86.1975 139.494282 
L 86.514545 143.175913 
L 86.831591 145.302466 
L 87.148636 144.007575 
L 87.465682 150.290775 
L 87.782727 154.149364 
L 88.099773 153.458117 
L 88.416818 150.690091 
L 88.733864 151.142978 
L 89.050909 148.263791 
L 89.367955 143.334335 
L 89.685 148.23846 
L 90.319091 153.450291 
L 90.636136 146.72153 
L 90.953182 148.380757 
L 91.270227 151.226969 
L 91.904318 147.662668 
L 92.221364 148.997715 
L 92.538409 148.847103 
L 92.855455 148.217346 
L 93.1725 141.281734 
L 93.489545 145.611133 
L 93.806591 143.452511 
L 94.123636 137.774925 
L 94.440682 138.626562 
L 94.757727 134.051302 
L 95.074773 133.562327 
L 95.391818 130.351018 
L 95.708864 129.271575 
L 96.025909 125.708841 
L 96.342955 131.466308 
L 96.66 125.918709 
L 96.977045 129.395635 
L 97.294091 123.385905 
L 98.245227 129.12199 
L 98.562273 130.630171 
L 99.513409 141.237152 
L 99.830455 139.362713 
L 100.1475 139.939791 
L 100.464545 140.916541 
L 100.781591 141.28077 
L 101.098636 142.521492 
L 101.732727 136.339647 
L 102.366818 143.868242 
L 103.000909 148.561696 
L 103.635 145.903287 
L 103.952045 148.574575 
L 104.269091 146.317788 
L 104.586136 147.837701 
L 104.903182 145.580384 
L 105.220227 149.365123 
L 105.537273 149.155015 
L 105.854318 147.705928 
L 106.171364 150.316947 
L 106.488409 157.484336 
L 106.805455 157.603396 
L 107.1225 155.744282 
L 107.439545 164.628287 
L 107.756591 159.651039 
L 108.073636 159.801383 
L 108.390682 166.102491 
L 108.707727 159.799409 
L 109.024773 157.81489 
L 109.341818 161.986769 
L 109.658864 154.917324 
L 109.975909 152.369784 
L 110.292955 156.05535 
L 110.61 155.865902 
L 110.927045 158.731534 
L 111.244091 155.26663 
L 111.561136 150.46955 
L 112.195227 162.440819 
L 112.512273 160.399101 
L 112.829318 155.442434 
L 113.146364 162.556127 
L 113.463409 164.918063 
L 113.780455 161.927156 
L 114.0975 160.810549 
L 114.414545 163.731695 
L 114.731591 163.941302 
L 115.048636 161.939616 
L 115.365682 167.148652 
L 115.682727 163.921892 
L 115.999773 163.158113 
L 116.316818 156.677468 
L 116.633864 157.453381 
L 117.267955 167.099579 
L 117.585 163.634688 
L 117.902045 163.003299 
L 118.219091 159.120349 
L 118.536136 157.429463 
L 119.170227 160.983291 
L 119.487273 154.76597 
L 119.804318 155.526697 
L 120.438409 163.500585 
L 120.755455 161.863004 
L 121.389545 169.114169 
L 121.706591 164.844096 
L 122.023636 163.301071 
L 122.340682 164.57032 
L 122.657727 161.193909 
L 122.974773 168.720526 
L 123.608864 166.313498 
L 123.925909 166.098541 
L 124.242955 162.67717 
L 124.56 164.527408 
L 124.877045 160.623658 
L 125.194091 161.399464 
L 125.511136 164.235874 
L 125.828182 165.069988 
L 126.145227 164.540068 
L 126.779318 170.761124 
L 127.096364 169.458031 
L 127.413409 165.763443 
L 127.730455 167.086185 
L 128.0475 169.249989 
L 128.364545 166.250529 
L 129.315682 169.034281 
L 129.632727 162.745963 
L 129.949773 163.547539 
L 130.266818 167.376761 
L 130.583864 167.969283 
L 130.900909 166.389222 
L 131.535 168.940471 
L 131.852045 166.218069 
L 132.169091 160.807106 
L 132.486136 163.067357 
L 132.803182 169.396309 
L 133.120227 167.627737 
L 133.437273 164.19336 
L 133.754318 167.098713 
L 134.071364 168.346639 
L 134.388409 172.161483 
L 134.705455 171.012692 
L 135.0225 173.399212 
L 135.339545 174.777111 
L 135.656591 175.01115 
L 135.973636 168.278188 
L 136.290682 169.202628 
L 136.607727 170.628242 
L 136.924773 167.087314 
L 137.241818 166.883829 
L 137.558864 171.834296 
L 137.875909 173.577053 
L 138.192955 172.35725 
L 138.51 169.542663 
L 138.827045 177.177988 
L 139.144091 173.990417 
L 139.461136 173.376811 
L 139.778182 175.342599 
L 140.412273 166.744919 
L 140.729318 170.978068 
L 141.046364 171.949536 
L 141.680455 165.082249 
L 141.9975 176.212003 
L 142.314545 175.627428 
L 142.631591 176.428085 
L 142.948636 180.447878 
L 143.265682 179.396797 
L 143.582727 177.587138 
L 143.899773 179.494006 
L 144.216818 171.738405 
L 144.533864 172.336263 
L 144.850909 174.657167 
L 145.167955 179.048503 
L 145.802045 168.97006 
L 146.119091 168.480352 
L 146.436136 172.656548 
L 146.753182 174.291124 
L 147.387273 168.639867 
L 147.704318 170.146162 
L 148.021364 176.808515 
L 148.338409 175.752482 
L 148.9725 171.867415 
L 149.289545 172.787925 
L 149.606591 176.094221 
L 149.923636 176.501358 
L 150.240682 176.632853 
L 150.557727 176.542439 
L 150.874773 177.10481 
L 151.191818 173.322863 
L 151.508864 172.287583 
L 152.142955 176.354177 
L 152.46 176.641778 
L 152.777045 174.625927 
L 153.094091 177.987629 
L 153.411136 177.806247 
L 153.728182 169.71444 
L 154.362273 172.953478 
L 154.679318 171.525466 
L 154.996364 173.38813 
L 155.313409 179.719953 
L 155.630455 181.434115 
L 155.9475 178.14187 
L 156.264545 178.235665 
L 156.581591 180.038765 
L 156.898636 181.000725 
L 157.215682 167.887448 
L 157.532727 164.233523 
L 158.166818 185.594786 
L 158.483864 179.647604 
L 158.800909 179.179429 
L 159.435 173.35748 
L 159.752045 176.401682 
L 160.069091 171.437919 
L 160.386136 175.069519 
L 160.703182 176.827316 
L 161.020227 174.522376 
L 161.654318 187.523662 
L 161.971364 186.747975 
L 162.288409 180.667711 
L 162.605455 185.082161 
L 162.9225 182.402593 
L 163.239545 173.999559 
L 163.556591 170.208141 
L 163.873636 170.126603 
L 164.190682 170.205776 
L 164.507727 175.311197 
L 164.824773 174.220066 
L 165.141818 179.305936 
L 165.775909 184.890444 
L 166.092955 179.548297 
L 166.41 180.695694 
L 166.727045 175.203453 
L 167.044091 175.096838 
L 167.361136 172.392858 
L 167.678182 174.267817 
L 167.995227 174.046509 
L 168.312273 170.233433 
L 168.946364 181.457137 
L 169.263409 181.084638 
L 169.580455 181.191599 
L 169.8975 184.787786 
L 170.214545 182.902616 
L 170.531591 186.177276 
L 170.848636 192.69652 
L 171.165682 189.193472 
L 171.482727 182.573034 
L 172.116818 177.376348 
L 172.433864 171.462019 
L 172.750909 171.55315 
L 173.067955 177.57712 
L 173.385 186.156399 
L 173.702045 183.988336 
L 174.019091 183.029404 
L 174.336136 185.50632 
L 174.653182 184.16365 
L 174.970227 178.64193 
L 175.287273 176.613456 
L 175.604318 179.466124 
L 175.921364 178.480894 
L 176.555455 186.408867 
L 176.8725 184.631212 
L 177.189545 181.377124 
L 177.506591 183.055852 
L 177.823636 180.47202 
L 178.140682 182.906282 
L 178.774773 183.013555 
L 179.091818 181.337525 
L 179.408864 179.037693 
L 180.042955 186.97451 
L 180.36 187.607035 
L 180.677045 184.654175 
L 181.311136 188.601305 
L 181.628182 187.211923 
L 181.945227 182.912621 
L 182.262273 182.657416 
L 182.579318 182.781536 
L 182.896364 184.99402 
L 183.530455 181.236795 
L 183.8475 180.586273 
L 184.481591 180.402557 
L 184.798636 184.012666 
L 185.115682 186.289479 
L 185.749773 184.523521 
L 186.066818 187.494345 
L 186.383864 186.153747 
L 186.700909 191.051654 
L 187.335 177.210396 
L 187.652045 176.919641 
L 187.969091 176.456958 
L 188.286136 178.042786 
L 189.237273 188.385478 
L 189.554318 185.443153 
L 189.871364 185.456896 
L 190.188409 185.625896 
L 190.505455 184.118166 
L 190.8225 184.433312 
L 191.139545 187.304586 
L 191.456591 174.875751 
L 191.773636 178.082434 
L 192.090682 179.020549 
L 192.407727 186.986236 
L 192.724773 190.871019 
L 193.041818 183.593816 
L 193.358864 183.395849 
L 193.675909 191.227468 
L 193.992955 189.005841 
L 194.31 184.164446 
L 194.627045 186.390518 
L 194.944091 190.431378 
L 195.261136 189.099865 
L 195.578182 185.10544 
L 195.895227 183.490059 
L 196.212273 185.348644 
L 196.529318 182.453713 
L 196.846364 182.053935 
L 197.163409 186.456508 
L 197.480455 186.382281 
L 197.7975 184.673368 
L 198.114545 186.84302 
L 198.431591 185.067924 
L 198.748636 188.107056 
L 199.065682 184.722067 
L 199.382727 184.010138 
L 199.699773 186.143133 
L 200.016818 180.675294 
L 200.333864 185.749197 
L 201.285 192.992566 
L 201.602045 188.520379 
L 201.919091 187.951498 
L 202.236136 184.409864 
L 202.553182 183.201614 
L 202.870227 187.207914 
L 203.187273 189.742521 
L 203.504318 188.461124 
L 203.821364 191.550574 
L 204.138409 189.071981 
L 204.455455 187.948089 
L 204.7725 185.55749 
L 205.089545 184.927121 
L 205.406591 191.368797 
L 205.723636 184.56306 
L 206.674773 192.325655 
L 206.991818 189.274513 
L 207.308864 182.430055 
L 207.625909 179.890177 
L 207.942955 185.920024 
L 208.26 186.536615 
L 208.577045 185.764973 
L 208.894091 188.820162 
L 209.211136 185.093706 
L 209.528182 184.456893 
L 209.845227 186.05062 
L 210.162273 186.297606 
L 210.479318 187.671156 
L 210.796364 190.138457 
L 211.113409 186.635107 
L 211.430455 190.132081 
L 211.7475 187.132594 
L 212.064545 185.886478 
L 212.381591 183.397107 
L 212.698636 185.769954 
L 213.015682 192.667137 
L 213.332727 191.618483 
L 213.649773 189.595292 
L 214.600909 194.442854 
L 214.917955 190.156541 
L 215.552045 188.195042 
L 216.186136 189.374087 
L 216.503182 193.694256 
L 216.820227 191.94578 
L 217.137273 192.203089 
L 217.454318 195.658083 
L 217.771364 190.854278 
L 218.088409 190.104204 
L 218.405455 191.399943 
L 218.7225 193.953913 
L 219.039545 193.059142 
L 219.356591 189.428719 
L 219.673636 194.002623 
L 219.990682 196.0654 
L 220.307727 190.898803 
L 220.624773 191.125314 
L 220.941818 191.762487 
L 221.258864 191.405207 
L 221.575909 188.847012 
L 222.21 190.234802 
L 222.527045 193.641689 
L 223.478182 190.777793 
L 223.795227 200.324091 
L 224.112273 196.241852 
L 224.429318 196.204767 
L 224.746364 194.076651 
L 225.063409 188.670447 
L 225.380455 188.177471 
L 226.014545 148.463434 
L 226.331591 178.290303 
L 226.648636 193.248256 
L 226.965682 191.438475 
L 227.282727 193.131182 
L 227.599773 193.048998 
L 227.916818 197.726077 
L 228.233864 193.761834 
L 228.550909 192.801419 
L 228.867955 193.445074 
L 229.185 191.014202 
L 229.502045 197.804653 
L 229.819091 200.952218 
L 230.136136 194.897134 
L 230.453182 195.371044 
L 230.770227 201.552429 
L 231.087273 191.789468 
L 231.404318 197.404043 
L 231.721364 189.715258 
L 232.038409 187.895266 
L 232.355455 188.668455 
L 232.6725 195.195998 
L 232.989545 193.955053 
L 233.306591 194.436486 
L 233.623636 197.044074 
L 233.940682 196.466531 
L 234.574773 197.366971 
L 235.208864 199.387334 
L 235.525909 201.578372 
L 235.842955 195.816148 
L 236.16 193.976892 
L 236.477045 198.784076 
L 236.794091 199.040265 
L 237.111136 197.489961 
L 237.428182 199.609406 
L 238.062273 195.359489 
L 238.379318 199.960552 
L 238.696364 197.331163 
L 239.013409 200.41439 
L 239.330455 196.88737 
L 239.6475 188.693679 
L 240.598636 199.115514 
L 240.915682 195.062907 
L 241.232727 197.197221 
L 241.866818 194.88871 
L 242.500909 191.922501 
L 242.817955 196.973115 
L 243.135 197.794849 
L 243.452045 194.840937 
L 243.769091 193.447089 
L 244.086136 195.23759 
L 244.403182 198.183945 
L 244.720227 199.443315 
L 245.037273 197.281649 
L 245.354318 191.154417 
L 245.671364 195.961655 
L 245.988409 197.341241 
L 246.6225 194.157155 
L 247.256591 193.523072 
L 247.573636 198.374597 
L 247.890682 200.50894 
L 248.207727 197.897386 
L 248.524773 200.564118 
L 248.841818 196.072494 
L 249.158864 193.837235 
L 249.475909 193.204151 
L 249.792955 199.404097 
L 250.11 200.372943 
L 250.427045 197.008619 
L 250.744091 199.761204 
L 251.061136 199.68261 
L 251.378182 196.914539 
L 251.695227 199.29493 
L 252.012273 195.749894 
L 252.329318 194.628883 
L 252.646364 195.502987 
L 252.963409 197.693593 
L 253.280455 197.157553 
L 253.914545 193.456957 
L 254.231591 194.895217 
L 254.548636 196.860539 
L 254.865682 204.890646 
L 255.499773 196.355997 
L 255.816818 197.907821 
L 256.133864 198.36815 
L 256.450909 201.340991 
L 256.767955 200.373479 
L 257.085 201.05219 
L 257.719091 197.527497 
L 258.036136 204.221372 
L 258.353182 204.524815 
L 258.670227 206.143028 
L 258.987273 197.796453 
L 259.304318 195.484395 
L 259.621364 197.76004 
L 259.938409 191.032492 
L 260.255455 192.194262 
L 260.5725 198.961533 
L 261.523636 201.249664 
L 262.157727 199.409844 
L 262.474773 204.190625 
L 262.791818 207.246219 
L 263.425909 197.500315 
L 263.742955 199.689738 
L 264.06 204.02084 
L 265.011136 196.125817 
L 265.645227 206.285797 
L 266.279318 203.079191 
L 266.596364 199.268674 
L 266.913409 202.185881 
L 267.230455 206.359968 
L 267.5475 200.495617 
L 267.864545 204.111243 
L 268.181591 210.05864 
L 269.449773 205.27994 
L 269.766818 206.427037 
L 270.400909 200.296813 
L 270.717955 203.441065 
L 271.035 204.82902 
L 271.352045 202.332344 
L 271.669091 202.97459 
L 271.986136 206.442988 
L 272.303182 198.281045 
L 272.937273 203.163839 
L 273.254318 200.586252 
L 273.571364 200.833983 
L 273.888409 202.149729 
L 274.205455 202.591138 
L 274.5225 202.246101 
L 274.839545 206.375446 
L 275.156591 207.840618 
L 275.473636 211.6184 
L 275.790682 213.734722 
L 276.424773 205.546942 
L 277.058864 210.803349 
L 277.375909 209.707602 
L 277.692955 209.763801 
L 278.01 205.630092 
L 278.327045 207.782834 
L 278.961136 201.83495 
L 279.278182 205.198702 
L 279.595227 206.812289 
L 279.912273 206.901304 
L 280.229318 204.694939 
L 280.546364 205.124967 
L 280.863409 215.42523 
L 281.180455 209.144593 
L 281.4975 210.320859 
L 281.814545 207.086894 
L 282.131591 200.452784 
L 282.448636 199.317687 
L 282.765682 204.252305 
L 283.082727 205.788973 
L 283.716818 199.124248 
L 284.033864 204.431988 
L 284.350909 203.011064 
L 284.985 208.288492 
L 285.619091 204.069642 
L 285.936136 209.601319 
L 286.570227 207.184214 
L 287.204318 215.05357 
L 287.521364 214.270053 
L 287.838409 206.977774 
L 288.155455 206.833653 
L 288.4725 207.395901 
L 288.789545 204.447719 
L 289.106591 207.753836 
L 289.423636 213.428291 
L 289.740682 206.908142 
L 290.057727 210.320428 
L 290.374773 212.490825 
L 291.325909 203.124197 
L 291.642955 203.86529 
L 291.96 210.416574 
L 292.277045 211.511052 
L 292.594091 213.58052 
L 292.911136 211.337297 
L 293.545227 213.509952 
L 294.179318 209.645562 
L 294.496364 204.6824 
L 294.813409 207.705273 
L 295.130455 207.673144 
L 295.764545 211.813285 
L 296.081591 212.450895 
L 296.398636 212.659953 
L 296.715682 212.241019 
L 297.032727 206.803996 
L 297.349773 210.451607 
L 297.666818 216.562702 
L 297.983864 215.620798 
L 298.300909 214.002775 
L 298.617955 213.83909 
L 299.252045 213.188054 
L 299.569091 211.042112 
L 300.203182 209.825129 
L 300.520227 207.848593 
L 300.837273 208.533647 
L 301.154318 210.530047 
L 301.471364 218.242497 
L 301.788409 214.079507 
L 302.105455 213.244261 
L 302.4225 209.735893 
L 302.739545 211.009365 
L 303.056591 213.658419 
L 303.373636 213.185517 
L 303.690682 214.528407 
L 304.324773 213.16765 
L 304.641818 213.586418 
L 304.958864 216.689848 
L 305.592955 208.894226 
L 305.91 209.345008 
L 306.227045 209.26198 
L 306.544091 210.127805 
L 306.861136 210.317655 
L 307.178182 208.105886 
L 307.812273 214.480461 
L 308.129318 209.500695 
L 308.446364 212.240021 
L 308.763409 220.000803 
L 309.080455 211.591255 
L 309.3975 211.879303 
L 309.714545 219.257866 
L 310.031591 213.821558 
L 310.348636 214.35633 
L 310.665682 216.232212 
L 310.982727 216.379161 
L 311.299773 216.246198 
L 311.616818 214.1299 
L 311.933864 213.673246 
L 312.250909 222.522994 
L 312.567955 223.779351 
L 312.885 219.55473 
L 313.202045 220.415594 
L 313.836136 210.460094 
L 314.470227 221.11923 
L 315.104318 210.53787 
L 315.738409 222.057777 
L 316.055455 218.468309 
L 316.3725 213.291022 
L 316.689545 211.364747 
L 317.006591 219.138491 
L 317.323636 221.793843 
L 317.640682 219.487433 
L 317.957727 219.073503 
L 318.274773 219.169388 
L 318.591818 221.874135 
L 318.908864 220.254163 
L 319.225909 217.131179 
L 319.542955 219.064941 
L 319.86 214.79446 
L 320.177045 218.015748 
L 320.494091 216.837609 
L 320.811136 216.907649 
L 321.128182 215.757156 
L 321.445227 218.002814 
L 321.762273 223.646306 
L 322.396364 212.320267 
L 322.713409 214.182812 
L 323.030455 214.199036 
L 323.3475 214.776762 
L 323.664545 213.053474 
L 323.981591 213.211323 
L 324.298636 211.598012 
L 324.615682 219.391437 
L 324.932727 221.607156 
L 325.249773 218.039041 
L 325.566818 217.796118 
L 325.883864 222.402553 
L 326.200909 223.85062 
L 326.517955 215.451824 
L 327.469091 220.626768 
L 327.786136 220.923476 
L 328.103182 219.216949 
L 328.420227 219.08905 
L 328.737273 220.355016 
L 329.054318 225.104937 
L 329.371364 221.744187 
L 329.688409 223.083457 
L 330.005455 220.421946 
L 330.3225 222.849101 
L 330.639545 223.088837 
L 330.956591 220.722035 
L 331.273636 223.01492 
L 331.907727 218.679999 
L 332.541818 224.985456 
L 332.858864 223.272899 
L 333.175909 226.040985 
L 333.492955 225.240574 
L 333.81 220.193463 
L 334.127045 221.764449 
L 334.444091 218.488865 
L 334.761136 219.140722 
L 335.078182 224.039392 
L 335.395227 220.625586 
L 335.712273 221.043255 
L 336.029318 216.378345 
L 336.663409 216.526208 
L 336.980455 220.75378 
L 337.2975 221.677658 
L 337.614545 223.575781 
L 337.931591 219.036999 
L 338.248636 223.833047 
L 338.565682 221.111585 
L 338.882727 216.592627 
L 339.199773 219.507462 
L 339.516818 225.533593 
L 339.833864 226.751959 
L 340.150909 226.671136 
L 340.467955 226.716723 
L 340.785 224.452183 
L 341.102045 223.47962 
L 341.419091 223.210566 
L 341.736136 227.608833 
L 342.053182 228.240473 
L 342.687273 220.974728 
L 343.004318 219.220721 
L 343.321364 224.807066 
L 343.955455 215.915165 
L 344.2725 224.312151 
L 344.906591 229.777919 
L 345.223636 226.387497 
L 345.540682 221.128757 
L 345.857727 222.298579 
L 346.174773 217.829522 
L 346.491818 223.291113 
L 346.808864 223.572502 
L 347.125909 221.935647 
L 347.442955 219.045239 
L 348.077045 235.124479 
L 348.394091 231.477935 
L 348.711136 225.566089 
L 349.028182 221.945716 
L 349.345227 222.213309 
L 349.662273 226.198886 
L 350.296364 221.030437 
L 350.613409 221.104381 
L 350.930455 224.38466 
L 351.2475 222.575656 
L 351.564545 219.868185 
L 351.881591 226.370215 
L 352.198636 229.57163 
L 352.515682 229.867806 
L 353.149773 236.84335 
L 353.466818 236.636059 
L 353.783864 233.834297 
L 354.100909 223.640885 
L 354.417955 221.329898 
L 354.735 231.027942 
L 355.052045 229.963148 
L 355.369091 225.946836 
L 355.686136 225.696614 
L 356.003182 232.520906 
L 356.320227 234.506976 
L 356.637273 227.470774 
L 356.954318 229.539332 
L 357.271364 237.048247 
L 357.588409 236.516457 
L 357.905455 235.296136 
L 358.2225 227.997066 
L 358.539545 227.082076 
L 358.856591 230.595845 
L 359.173636 229.248027 
L 359.490682 228.731984 
L 360.124773 232.547018 
L 360.441818 232.623742 
L 360.758864 222.966139 
L 361.075909 226.820781 
L 361.392955 234.990509 
L 361.71 232.509554 
L 362.027045 228.319898 
L 362.344091 227.969006 
L 362.978182 231.011518 
L 363.295227 227.746445 
L 363.612273 226.003525 
L 363.929318 232.454796 
L 364.246364 232.39414 
L 364.563409 230.090268 
L 364.880455 233.073972 
L 365.1975 234.429119 
L 365.514545 227.454271 
L 365.831591 226.663256 
L 366.148636 228.901256 
L 366.465682 227.827405 
L 366.782727 229.898512 
L 367.099773 229.74005 
L 367.416818 232.845603 
L 367.733864 231.752871 
L 368.050909 228.587872 
L 368.367955 229.052055 
L 368.685 232.652872 
L 369.002045 234.836559 
L 369.319091 234.985868 
L 369.636136 232.270629 
L 369.953182 233.46127 
L 370.270227 236.326934 
L 370.904318 233.395273 
L 371.221364 231.06852 
L 371.538409 236.412075 
L 371.855455 237.628887 
L 372.1725 236.186037 
L 372.489545 236.59256 
L 372.806591 231.599293 
L 373.123636 232.385142 
L 373.440682 235.979118 
L 373.757727 235.230742 
L 374.074773 236.480962 
L 374.391818 232.872316 
L 374.708864 231.348717 
L 375.025909 232.962846 
L 375.342955 232.552992 
L 375.66 227.703728 
L 375.977045 224.892696 
L 376.294091 226.626604 
L 376.611136 225.913248 
L 377.245227 230.622492 
L 377.562273 228.976555 
L 377.879318 231.611153 
L 378.196364 225.532365 
L 378.513409 226.387895 
L 378.830455 235.399822 
L 379.1475 232.918293 
L 379.464545 228.905728 
L 379.781591 234.600594 
L 380.098636 231.946421 
L 380.415682 225.211232 
L 380.732727 230.808045 
L 381.049773 239.611452 
L 381.366818 235.892112 
L 381.683864 225.250561 
L 382.000909 226.797411 
L 382.317955 232.107535 
L 382.635 240.468382 
L 382.952045 239.979255 
L 383.269091 234.246548 
L 383.586136 234.013145 
L 384.220227 235.390831 
L 384.854318 243.101726 
L 385.171364 232.371812 
L 385.488409 229.961249 
L 385.805455 229.922108 
L 386.1225 232.026605 
L 386.439545 229.553622 
L 386.756591 225.831459 
L 387.073636 234.85016 
L 387.390682 235.906147 
L 387.707727 231.316132 
L 388.024773 233.655686 
L 388.341818 228.823865 
L 388.658864 228.089745 
L 388.975909 233.014635 
L 389.292955 223.667402 
L 389.61 222.732768 
L 389.927045 226.204286 
L 390.244091 228.112872 
L 390.561136 228.864761 
L 390.878182 226.040757 
L 391.512273 232.237481 
L 391.829318 230.564919 
L 392.146364 226.239225 
L 392.463409 229.75537 
L 392.780455 230.829561 
L 393.0975 233.628662 
L 393.414545 233.876475 
L 393.731591 234.37851 
L 394.048636 239.853961 
L 394.365682 233.317716 
L 394.682727 229.12695 
L 394.999773 232.821562 
L 395.316818 229.666916 
L 395.633864 231.029163 
L 395.950909 233.425123 
L 396.267955 233.847573 
L 396.585 235.739388 
L 396.902045 236.062903 
L 397.219091 232.928506 
L 397.536136 234.79846 
L 397.853182 237.794671 
L 398.170227 233.328375 
L 398.487273 243.609307 
L 398.487273 243.609307 
" clip-path="url(#p4f62a64d52)" style="fill: none; stroke: #0000ff; stroke-width: 1.5; stroke-linecap: square"/>
   </g>
   <g id="line2d_56">
    <path d="M 73.832727 195.634219 
L 74.451957 240.978114 
L 74.761571 157.369771 
L 75.380801 88.584917 
L 75.690415 79.954318 
L 76.309645 95.409023 
L 76.61926 87.95313 
L 76.928874 75.639315 
L 77.857718 114.304141 
L 78.167333 113.073033 
L 78.476948 115.044603 
L 78.786563 110.962003 
L 79.096177 110.920015 
L 79.405792 113.497171 
L 80.025021 115.351044 
L 80.644251 126.483258 
L 80.953865 125.857799 
L 81.26348 126.455299 
L 81.88271 132.334498 
L 82.192324 133.636853 
L 82.501939 136.591878 
L 82.811554 136.373716 
L 83.121168 132.759048 
L 83.430783 135.074188 
L 83.740398 138.271151 
L 84.050012 136.652897 
L 84.359627 140.017942 
L 84.669242 136.971142 
L 84.978857 136.811612 
L 85.288471 136.046382 
L 85.598086 141.774365 
L 85.907701 142.823426 
L 86.217315 139.965734 
L 86.52693 143.137515 
L 86.836545 143.616217 
L 87.146159 143.812309 
L 87.765389 153.945933 
L 88.075004 154.093012 
L 88.384618 149.906016 
L 88.694233 150.035431 
L 89.003848 145.425354 
L 89.313462 142.873286 
L 89.623077 146.314852 
L 89.932692 152.524503 
L 90.242306 152.011057 
L 90.551921 148.327641 
L 90.861536 146.809911 
L 91.171151 152.962048 
L 91.79038 147.759744 
L 92.099995 148.487837 
L 92.409609 148.748134 
L 92.719224 147.945525 
L 93.028839 141.796088 
L 93.338453 142.416437 
L 93.648068 146.367749 
L 94.267298 135.851538 
L 94.576912 137.290547 
L 94.886527 133.881155 
L 95.196142 132.613963 
L 95.505756 132.008077 
L 95.815371 126.716987 
L 96.124986 126.981522 
L 96.4346 128.632075 
L 96.744215 126.555783 
L 97.05383 128.348064 
L 97.363445 123.457451 
L 97.982674 128.482345 
L 98.601903 130.71252 
L 99.221133 137.659276 
L 99.530748 140.059276 
L 99.840362 139.239628 
L 100.459592 143.444248 
L 100.769206 143.660106 
L 101.078821 144.383388 
L 101.69805 135.53832 
L 102.007665 139.654174 
L 102.31728 146.07014 
L 102.626895 145.223762 
L 102.936509 147.873355 
L 103.246124 145.971962 
L 103.555739 146.062267 
L 103.865353 147.736539 
L 104.174968 148.476532 
L 104.484583 149.674209 
L 104.794197 143.711484 
L 105.413427 150.716796 
L 106.032656 149.093934 
L 106.342271 155.000042 
L 106.651886 158.420274 
L 106.9615 154.187908 
L 107.271115 157.602913 
L 107.58073 165.092577 
L 107.890344 158.680377 
L 108.199959 162.351921 
L 108.509574 162.221273 
L 108.819189 158.555244 
L 109.128803 158.264877 
L 109.438418 160.852356 
L 109.748033 153.499992 
L 110.057647 156.804743 
L 110.367262 153.847163 
L 110.676877 155.524662 
L 110.986491 159.216957 
L 111.605721 150.501893 
L 112.22495 163.723622 
L 112.534565 159.016997 
L 112.84418 157.257035 
L 113.153794 163.368857 
L 113.463409 165.774943 
L 113.773024 159.266542 
L 114.082638 159.261706 
L 114.701868 167.84251 
L 115.011483 162.616633 
L 115.321097 167.944791 
L 115.630712 164.680852 
L 115.940327 165.759731 
L 116.249941 158.912132 
L 116.559556 157.717869 
L 116.869171 160.310787 
L 117.178786 164.669154 
L 117.4884 166.470415 
L 117.798015 162.679772 
L 118.10763 161.197884 
L 118.417244 156.714524 
L 118.726859 159.847047 
L 119.036474 159.488844 
L 119.346088 156.114577 
L 119.655703 154.446703 
L 120.274933 160.963805 
L 120.584547 163.844535 
L 120.894162 163.094618 
L 121.203777 168.772322 
L 121.513391 168.179478 
L 121.823006 164.825533 
L 122.132621 164.738753 
L 122.75185 162.085694 
L 123.061465 171.998326 
L 123.680694 165.282328 
L 123.990309 167.686207 
L 124.299924 162.907126 
L 124.609538 163.898764 
L 124.919153 160.04684 
L 125.228768 161.576206 
L 125.538382 164.458906 
L 126.157612 166.43958 
L 126.776841 171.839491 
L 127.396071 166.70404 
L 127.705685 167.764277 
L 128.0153 169.688568 
L 128.324915 167.482838 
L 128.634529 166.573679 
L 128.944144 169.064362 
L 129.253759 168.46256 
L 129.563374 163.376056 
L 130.182603 167.393664 
L 130.492218 168.282663 
L 130.801832 168.059751 
L 131.111447 168.633998 
L 131.730676 166.721972 
L 132.349906 162.721461 
L 132.659521 168.595397 
L 132.969135 169.186698 
L 133.27875 165.198039 
L 133.588365 165.054199 
L 133.897979 168.109763 
L 134.207594 169.676393 
L 134.517209 173.387621 
L 134.826824 169.910323 
L 135.136438 170.987485 
L 135.446053 178.384757 
L 135.755668 172.994881 
L 136.065282 165.259342 
L 136.374897 171.65521 
L 136.684512 170.496792 
L 136.994126 165.731451 
L 137.303741 168.017333 
L 137.613356 172.945084 
L 137.922971 172.928487 
L 138.232585 171.672174 
L 138.5422 169.231651 
L 138.851815 176.423015 
L 139.161429 173.475891 
L 139.471044 174.622302 
L 139.780659 176.895873 
L 140.399888 165.678981 
L 141.019118 173.803189 
L 141.328732 168.380351 
L 141.638347 165.73873 
L 142.257576 176.775612 
L 142.567191 176.397348 
L 142.876806 177.685074 
L 143.18642 177.901547 
L 143.496035 177.369528 
L 143.80565 180.562026 
L 144.115265 172.360986 
L 144.424879 170.371082 
L 144.734494 170.794004 
L 145.044109 176.776599 
L 145.353723 176.437487 
L 145.663338 171.403088 
L 145.972953 168.302041 
L 146.282567 169.715194 
L 146.592182 175.330667 
L 147.521026 166.172081 
L 148.140256 176.036532 
L 148.44987 174.633642 
L 148.759485 172.512361 
L 149.0691 171.211733 
L 149.378714 173.680177 
L 149.688329 178.036985 
L 149.997944 175.668058 
L 150.307559 176.192299 
L 150.617173 175.757503 
L 150.926788 177.06971 
L 151.236403 173.345432 
L 151.546017 171.206163 
L 151.855632 175.274608 
L 152.165247 174.455045 
L 152.474862 174.814018 
L 152.784476 174.849928 
L 153.094091 181.210569 
L 153.403706 178.820404 
L 153.71332 168.699301 
L 154.022935 171.912684 
L 154.33255 173.464614 
L 154.642164 171.067882 
L 154.951779 172.736469 
L 155.261394 178.608762 
L 155.571009 178.057614 
L 155.880623 178.326462 
L 156.190238 177.327066 
L 156.809467 181.115895 
L 157.119082 169.635055 
L 157.428697 165.412007 
L 157.738311 168.416049 
L 158.047926 179.786082 
L 158.357541 181.068379 
L 158.667156 179.198584 
L 158.97677 179.365967 
L 159.286385 175.059908 
L 159.596 175.359589 
L 159.905614 171.466579 
L 160.215229 172.167484 
L 160.524844 176.937042 
L 160.834458 176.376627 
L 161.144073 177.537626 
L 161.453688 186.602816 
L 161.763303 190.389045 
L 162.382532 178.787718 
L 162.692147 185.552856 
L 163.001761 181.906372 
L 163.311376 171.739844 
L 163.620991 169.819495 
L 163.930605 169.034291 
L 164.24022 170.281287 
L 164.549835 175.377375 
L 164.85945 174.344455 
L 165.788294 185.701012 
L 166.097908 180.320689 
L 166.407523 179.344067 
L 166.717138 174.798293 
L 167.026752 177.017989 
L 167.336367 171.761174 
L 167.645982 172.298548 
L 167.955597 173.491422 
L 168.265211 169.323684 
L 168.884441 182.425438 
L 169.194055 182.851331 
L 169.50367 179.311502 
L 169.813285 181.831338 
L 170.432514 183.342999 
L 170.742129 190.155841 
L 171.051744 192.478388 
L 171.670973 179.916717 
L 171.980588 182.078918 
L 172.290202 174.030282 
L 172.599817 171.41818 
L 172.909432 172.569793 
L 173.219047 181.344752 
L 173.528661 185.887399 
L 173.838276 182.53993 
L 174.147891 185.045453 
L 174.457505 185.833154 
L 175.076735 179.089749 
L 175.386349 178.377389 
L 175.695964 181.219973 
L 176.005579 177.966337 
L 176.624808 187.063288 
L 176.934423 185.780383 
L 177.244038 181.949034 
L 177.553652 182.027499 
L 177.863267 181.102348 
L 178.172882 183.916642 
L 179.101726 181.107972 
L 179.411341 178.579025 
L 179.720955 181.697391 
L 180.03057 186.392878 
L 180.340185 184.823754 
L 180.649799 185.811867 
L 180.959414 188.359799 
L 181.269029 189.525843 
L 181.578643 190.173434 
L 181.888258 182.655345 
L 182.197873 182.728331 
L 182.507488 182.330796 
L 182.817102 185.794362 
L 183.126717 184.521055 
L 183.436332 181.393425 
L 183.745946 179.866348 
L 184.055561 182.833164 
L 184.365176 179.910911 
L 184.67479 183.554305 
L 184.984405 185.799572 
L 185.29402 183.59733 
L 185.603635 183.218134 
L 186.222864 188.007299 
L 186.532479 188.753469 
L 186.842093 191.206473 
L 187.151708 181.291861 
L 187.461323 175.224811 
L 188.080552 177.838572 
L 188.390167 178.178492 
L 189.009396 187.841728 
L 189.319011 188.759204 
L 189.628626 182.788436 
L 189.93824 184.52076 
L 190.247855 184.260215 
L 190.55747 182.674198 
L 190.867085 186.653176 
L 191.176699 185.824071 
L 191.486314 175.814448 
L 191.795929 179.362091 
L 192.105543 179.563961 
L 192.415158 187.541384 
L 192.724773 191.579597 
L 193.034387 182.969286 
L 193.344002 182.025039 
L 193.653617 188.946173 
L 193.963232 187.954204 
L 194.272846 184.424356 
L 194.582461 184.013546 
L 195.20169 191.834717 
L 195.511305 185.519362 
L 195.82092 182.4663 
L 196.130534 183.522688 
L 196.440149 183.610416 
L 196.749764 182.204532 
L 197.059379 184.449222 
L 197.368993 187.668637 
L 197.678608 185.163802 
L 197.988223 185.255527 
L 198.297837 184.360542 
L 198.607452 184.695053 
L 198.917067 185.317602 
L 199.226681 183.986525 
L 199.536296 186.589587 
L 199.845911 184.03823 
L 200.155526 179.071277 
L 200.46514 185.757219 
L 200.774755 188.213243 
L 201.08437 193.978286 
L 201.393984 191.326394 
L 201.703599 186.949889 
L 202.013214 187.293123 
L 202.322828 183.570055 
L 202.632443 183.018854 
L 203.251673 191.427789 
L 203.561287 189.624288 
L 203.870902 191.903933 
L 204.180517 190.339222 
L 204.490131 188.197122 
L 204.799746 183.383868 
L 205.109361 185.78651 
L 205.418975 189.419344 
L 205.72859 182.76703 
L 206.038205 186.708362 
L 206.34782 188.871181 
L 206.657434 192.491981 
L 206.967049 191.822258 
L 207.276664 182.873022 
L 207.586278 178.802653 
L 208.205508 187.528478 
L 208.515123 183.658214 
L 208.824737 187.291164 
L 209.443967 184.309152 
L 209.753581 185.671693 
L 210.063196 185.156356 
L 210.682425 191.442184 
L 210.99204 187.643578 
L 211.301655 186.724211 
L 211.61127 190.312395 
L 211.920884 184.963733 
L 212.230499 182.437978 
L 213.159343 193.130641 
L 213.468958 190.286966 
L 213.778572 190.155298 
L 214.088187 191.458885 
L 214.397802 193.470097 
L 214.707417 190.083159 
L 215.017031 189.643303 
L 215.326646 188.246798 
L 215.636261 188.215696 
L 215.945875 188.803013 
L 216.25549 188.553769 
L 216.565105 191.355181 
L 216.874719 189.26583 
L 217.184334 192.441953 
L 217.803564 191.718598 
L 218.113178 193.082641 
L 218.732408 191.751528 
L 219.042022 194.716347 
L 219.351637 189.548749 
L 219.970866 197.238065 
L 220.590096 191.05002 
L 220.899711 191.315989 
L 221.51894 188.743081 
L 221.828555 188.523975 
L 222.447784 192.248615 
L 222.757399 193.623231 
L 223.067013 192.158678 
L 223.376628 190.08461 
L 223.686243 198.213908 
L 223.995858 198.408841 
L 224.305472 195.759605 
L 224.615087 195.117611 
L 224.924702 189.484044 
L 225.234316 188.717824 
L 225.543931 181.312514 
L 225.853546 151.340753 
L 226.163161 157.493595 
L 226.472775 196.447236 
L 226.78239 189.834158 
L 227.092005 193.371529 
L 227.401619 192.020169 
L 227.711234 194.541201 
L 228.020849 196.124701 
L 228.330463 189.868627 
L 228.640078 194.488547 
L 229.259308 192.239542 
L 229.568922 198.82666 
L 229.878537 199.376104 
L 230.188152 194.147153 
L 230.497766 196.051587 
L 230.807381 197.067398 
L 231.116996 191.399388 
L 231.42661 196.237565 
L 231.736225 190.231525 
L 232.04584 187.92282 
L 232.355455 188.970925 
L 232.665069 194.877063 
L 232.974684 195.818453 
L 233.284299 194.858855 
L 233.593913 196.148848 
L 233.903528 196.362046 
L 234.213143 196.187649 
L 234.522757 198.413565 
L 234.832372 198.496428 
L 235.141987 200.141063 
L 235.451602 200.614082 
L 236.070831 191.946077 
L 236.380446 198.770175 
L 236.69006 199.168734 
L 236.999675 197.480962 
L 237.30929 198.671903 
L 237.618904 198.904905 
L 237.928519 194.989947 
L 238.238134 197.308597 
L 238.547749 201.321934 
L 238.857363 197.666627 
L 239.166978 200.495951 
L 239.476593 191.740946 
L 239.786207 190.600683 
L 240.095822 191.62396 
L 240.405437 197.388887 
L 240.715051 197.051536 
L 241.024666 195.363629 
L 241.334281 197.698957 
L 241.643896 196.14918 
L 241.95351 194.021214 
L 242.263125 192.718884 
L 242.57274 192.059809 
L 242.882354 197.58346 
L 243.191969 197.80275 
L 243.501584 196.547861 
L 243.811199 194.486048 
L 244.120813 195.117221 
L 244.430428 200.745006 
L 244.740043 199.386749 
L 245.049657 196.030106 
L 245.359272 190.820694 
L 245.668887 195.624412 
L 245.978501 197.166144 
L 246.597731 194.095535 
L 246.907346 193.203416 
L 247.21696 194.099728 
L 247.83619 200.026423 
L 248.145804 197.156087 
L 248.455419 198.085543 
L 248.765034 196.153182 
L 249.074648 195.489766 
L 249.384263 192.323427 
L 249.693878 199.048095 
L 250.003493 200.982978 
L 250.313107 197.10441 
L 250.622722 197.676931 
L 250.932337 199.701865 
L 251.241951 198.612407 
L 251.551566 200.478765 
L 251.861181 196.929049 
L 252.170795 195.506036 
L 252.48041 195.224997 
L 253.09964 197.570182 
L 253.409254 196.373143 
L 253.718869 195.857508 
L 254.028484 194.928778 
L 254.338098 195.105282 
L 254.647713 198.336414 
L 254.957328 203.362337 
L 255.266942 196.929574 
L 255.576557 195.277685 
L 255.886172 196.353452 
L 256.505401 201.89544 
L 256.815016 200.021443 
L 257.124631 201.418203 
L 257.74386 195.554584 
L 258.053475 202.525101 
L 258.363089 203.412114 
L 258.672704 202.385449 
L 258.982319 196.698688 
L 259.291934 194.301895 
L 259.601548 194.759176 
L 259.911163 190.637411 
L 260.220778 190.758882 
L 260.530392 198.325156 
L 260.840007 197.674094 
L 261.459237 200.343304 
L 261.768851 202.020933 
L 262.078466 200.728859 
L 262.388081 203.05825 
L 262.697695 206.409493 
L 263.00731 203.546906 
L 263.316925 197.28313 
L 263.626539 196.825822 
L 263.936154 200.131672 
L 264.245769 201.153156 
L 264.555384 200.335675 
L 264.864998 197.094614 
L 265.174613 197.709433 
L 265.484228 203.267327 
L 265.793842 204.353873 
L 266.103457 202.75995 
L 266.413072 200.3793 
L 266.722686 200.101451 
L 267.032301 205.557805 
L 267.341916 205.795457 
L 267.651531 199.717052 
L 267.961145 204.382466 
L 268.27076 210.867971 
L 268.580375 209.601445 
L 268.889989 206.506344 
L 269.199604 205.074973 
L 269.509219 207.614069 
L 269.818833 208.130195 
L 270.438063 199.407767 
L 270.747678 205.262121 
L 271.057292 203.007946 
L 271.366907 202.348792 
L 271.676522 203.172514 
L 271.986136 204.540463 
L 272.295751 196.453107 
L 272.91498 204.764532 
L 273.224595 200.052667 
L 273.53421 200.79985 
L 273.843825 199.619006 
L 274.153439 200.090149 
L 274.463054 200.877511 
L 274.772669 204.268328 
L 275.082283 206.057393 
L 275.701513 213.429178 
L 276.011127 212.129186 
L 276.320742 206.207723 
L 276.630357 206.47485 
L 276.939972 209.442065 
L 277.249586 210.965329 
L 277.559201 211.228747 
L 277.868816 206.974034 
L 278.17843 207.958618 
L 278.488045 208.077452 
L 278.79766 203.554735 
L 279.107275 202.875454 
L 279.416889 209.002981 
L 279.726504 206.629407 
L 280.036119 207.551293 
L 280.345733 203.561288 
L 280.655348 211.457304 
L 280.964963 212.691017 
L 281.274577 208.909437 
L 281.584192 211.537713 
L 282.203422 201.326623 
L 282.513036 199.80695 
L 282.822651 203.821576 
L 283.132266 205.080698 
L 283.44188 200.315551 
L 283.751495 197.888368 
L 284.06111 201.921004 
L 284.370724 202.553337 
L 284.680339 208.277477 
L 284.989954 207.87328 
L 285.299569 206.380342 
L 285.609183 202.315159 
L 285.918798 206.741122 
L 286.228413 208.598258 
L 286.538027 205.667691 
L 287.157257 212.704613 
L 287.466871 215.868387 
L 287.776486 209.564618 
L 288.086101 205.715183 
L 288.395716 208.856691 
L 288.70533 203.977518 
L 289.014945 203.819609 
L 289.32456 214.369736 
L 289.634174 207.727363 
L 289.943789 207.996668 
L 290.253404 212.806803 
L 290.563018 212.831117 
L 290.872633 206.556834 
L 291.182248 202.778067 
L 291.491863 202.535686 
L 292.111092 210.768945 
L 292.420707 212.156158 
L 292.730321 214.733863 
L 293.039936 210.975954 
L 293.349551 213.237029 
L 293.659165 213.021594 
L 293.96878 209.702008 
L 294.278395 207.877076 
L 294.58801 205.154217 
L 295.207239 207.375946 
L 296.136083 213.97447 
L 296.445698 213.897861 
L 296.755313 212.991601 
L 297.064927 207.294443 
L 297.374542 208.643369 
L 297.684157 215.110273 
L 297.993771 214.671388 
L 298.303386 213.399274 
L 298.613001 214.80042 
L 299.23223 213.388438 
L 299.541845 211.758305 
L 300.161074 210.562175 
L 300.470689 208.047948 
L 300.780304 209.695672 
L 301.089918 209.069806 
L 301.399533 216.96167 
L 302.018762 214.253272 
L 302.328377 212.219217 
L 302.637992 209.328346 
L 302.947607 211.166302 
L 303.257221 210.942258 
L 303.566836 212.920945 
L 303.876451 211.817057 
L 304.186065 212.711119 
L 304.49568 209.929779 
L 305.114909 217.539803 
L 305.424524 209.123171 
L 305.734139 206.552237 
L 306.043754 210.009503 
L 306.353368 208.911341 
L 306.662983 208.598485 
L 306.972598 209.080529 
L 307.282212 208.774362 
L 307.591827 211.873552 
L 307.901442 212.816267 
L 308.211056 210.077576 
L 308.520671 214.117823 
L 308.830286 221.387798 
L 309.139901 210.47455 
L 309.75913 219.686249 
L 310.068745 212.384136 
L 310.378359 213.942426 
L 310.687974 217.318829 
L 310.997589 215.796851 
L 311.307203 217.197846 
L 311.616818 213.266633 
L 311.926433 214.078195 
L 312.236048 221.673474 
L 312.545662 223.94945 
L 313.164892 219.913334 
L 313.474506 217.806652 
L 313.784121 209.500859 
L 314.093736 212.222817 
L 314.40335 219.355634 
L 315.02258 211.7396 
L 315.332195 213.321448 
L 315.641809 220.440027 
L 315.951424 220.298529 
L 316.570653 210.555937 
L 316.880268 213.761904 
L 317.189883 222.061481 
L 317.499498 221.317601 
L 317.809112 220.999051 
L 318.118727 218.279507 
L 318.428342 224.891227 
L 319.047571 216.169249 
L 319.357186 216.230046 
L 319.6668 216.599312 
L 319.976415 216.024737 
L 320.28603 219.802582 
L 320.905259 214.497282 
L 321.214874 215.849011 
L 321.834103 222.85093 
L 322.143718 215.856858 
L 322.453333 211.722407 
L 322.762947 214.69001 
L 323.072562 212.643347 
L 323.382177 214.883113 
L 323.691792 212.721391 
L 324.001406 211.608118 
L 324.311021 211.298738 
L 324.620636 219.242491 
L 324.93025 223.455814 
L 325.239865 217.377035 
L 325.54948 218.09559 
L 325.859094 223.124525 
L 326.168709 220.216848 
L 326.478324 213.32068 
L 326.787939 213.911706 
L 327.097553 219.643638 
L 327.407168 221.2975 
L 327.716783 219.380805 
L 328.026397 218.351585 
L 328.336012 218.479822 
L 328.645627 219.985848 
L 328.955241 225.665098 
L 329.264856 222.071306 
L 329.574471 219.978758 
L 329.884086 220.293924 
L 330.1937 219.509801 
L 330.503315 223.66283 
L 330.81293 220.377524 
L 331.432159 221.838804 
L 331.741774 219.146831 
L 332.051388 220.677212 
L 332.361003 224.71709 
L 332.670618 225.326612 
L 332.980233 222.793556 
L 333.289847 222.169342 
L 333.599462 224.980171 
L 333.909077 220.386118 
L 334.528306 217.488607 
L 334.837921 221.004949 
L 335.147536 222.781149 
L 335.45715 221.639371 
L 335.766765 224.109605 
L 336.07638 215.704738 
L 336.385994 215.111706 
L 336.695609 217.489012 
L 337.005224 221.544433 
L 337.314838 223.488605 
L 337.624453 224.131574 
L 337.934068 217.065918 
L 338.243683 224.166373 
L 338.862912 216.460476 
L 339.172527 217.754593 
L 339.482141 226.779109 
L 339.791756 226.550252 
L 340.101371 227.202219 
L 340.410985 226.165065 
L 341.030215 222.369524 
L 341.649444 224.818689 
L 341.959059 228.48444 
L 342.268674 225.948202 
L 342.578288 220.605597 
L 342.887903 218.334772 
L 343.197518 221.815807 
L 343.507132 220.976823 
L 343.816747 215.24962 
L 344.126362 217.814728 
L 344.435977 226.585682 
L 344.745591 230.866494 
L 345.055206 228.634117 
L 345.674435 221.127578 
L 345.98405 219.195117 
L 346.293665 220.094781 
L 346.603279 224.103281 
L 346.912894 223.798143 
L 347.222509 219.668749 
L 347.532124 221.751553 
L 348.151353 236.17965 
L 348.460968 229.365996 
L 349.080197 220.680974 
L 349.389812 223.344219 
L 349.699426 229.491578 
L 350.009041 227.23191 
L 350.318656 223.630968 
L 350.937885 225.20228 
L 351.2475 221.744631 
L 351.557115 220.948649 
L 351.866729 226.692606 
L 352.176344 229.913222 
L 352.485959 231.281667 
L 352.795574 233.163904 
L 353.105188 237.397696 
L 353.414803 238.594148 
L 353.724418 238.246711 
L 354.034032 229.335892 
L 354.343647 223.957218 
L 354.653262 229.973221 
L 354.962876 231.58178 
L 355.272491 230.495366 
L 355.582106 227.778406 
L 355.891721 232.094808 
L 356.201335 241.791731 
L 356.51095 233.828093 
L 356.820565 230.517869 
L 357.130179 236.78591 
L 357.439794 240.745992 
L 357.749409 238.572646 
L 358.059023 234.899584 
L 358.368638 229.901892 
L 358.678253 235.310629 
L 358.987868 235.143149 
L 359.297482 231.737163 
L 359.607097 232.113041 
L 359.916712 233.242798 
L 360.226326 234.914078 
L 360.535941 233.190178 
L 360.845556 225.991033 
L 361.15517 234.495787 
L 361.464785 239.501879 
L 362.084015 231.093412 
L 362.393629 232.616631 
L 363.012859 240.448034 
L 363.322473 233.976189 
L 363.632088 231.274132 
L 363.941703 237.109762 
L 364.251317 236.771306 
L 364.560932 232.573448 
L 364.870547 238.908015 
L 365.180162 239.290497 
L 365.489776 231.091382 
L 365.799391 231.211872 
L 366.109006 230.979683 
L 366.41862 232.565135 
L 366.728235 234.743911 
L 367.03785 237.960295 
L 367.347464 239.306094 
L 367.966694 237.669917 
L 368.276309 235.052708 
L 368.585923 239.638279 
L 368.895538 240.974011 
L 369.205153 240.918033 
L 369.824382 236.558513 
L 370.133997 242.314532 
L 370.443612 242.8084 
L 370.753226 240.190043 
L 371.062841 239.332687 
L 371.68207 245.165566 
L 371.991685 246.447724 
L 372.3013 244.347671 
L 372.610914 244.407388 
L 373.230144 239.978705 
L 373.539759 240.419921 
L 373.849373 246.133518 
L 374.158988 241.124629 
L 374.468603 239.333995 
L 374.778217 244.869331 
L 375.087832 247.110014 
L 375.397447 244.775845 
L 376.016676 238.115988 
L 376.326291 240.340528 
L 376.635906 239.276336 
L 377.255135 245.100183 
L 377.56475 242.532821 
L 377.874364 244.336354 
L 378.183979 239.707703 
L 378.493594 240.702886 
L 378.803208 249.582156 
L 379.422438 243.599652 
L 379.732053 247.947801 
L 380.041667 250.268002 
L 380.351282 242.61937 
L 380.660897 249.091149 
L 380.970511 258.45867 
L 381.280126 256.641729 
L 381.589741 245.686202 
L 381.899355 244.767462 
L 382.20897 247.916908 
L 382.8282 259.623191 
L 383.137814 256.475206 
L 383.447429 255.042377 
L 383.757044 255.83335 
L 384.066658 255.469179 
L 384.685888 261.852071 
L 384.995502 260.075185 
L 385.305117 253.78662 
L 385.614732 253.470773 
L 385.924347 254.285011 
L 386.233961 259.149691 
L 386.543576 252.222238 
L 386.853191 251.773568 
L 387.162805 259.29695 
L 387.47242 260.467478 
L 387.782035 258.383883 
L 388.09165 262.603246 
L 388.401264 258.387401 
L 388.710879 259.070004 
L 389.020494 263.793288 
L 389.330108 257.735739 
L 389.639723 259.932248 
L 390.258952 278.772911 
L 390.568567 281.32347 
L 390.878182 295.488 
L 390.878182 295.488 
" clip-path="url(#p4f62a64d52)" style="fill: none; stroke: #ffa500; stroke-width: 1.5; stroke-linecap: square"/>
   </g>
   <g id="patch_3">
    <path d="M 57.6 307.584 
L 57.6 41.472 
" style="fill: none; stroke: #000000; stroke-width: 0.8; stroke-linejoin: miter; stroke-linecap: square"/>
   </g>
   <g id="patch_4">
    <path d="M 414.72 307.584 
L 414.72 41.472 
" style="fill: none; stroke: #000000; stroke-width: 0.8; stroke-linejoin: miter; stroke-linecap: square"/>
   </g>
   <g id="patch_5">
    <path d="M 57.6 307.584 
L 414.72 307.584 
" style="fill: none; stroke: #000000; stroke-width: 0.8; stroke-linejoin: miter; stroke-linecap: square"/>
   </g>
   <g id="patch_6">
    <path d="M 57.6 41.472 
L 414.72 41.472 
" style="fill: none; stroke: #000000; stroke-width: 0.8; stroke-linejoin: miter; stroke-linecap: square"/>
   </g>
   <g id="text_15">
    <!-- Power Spektrum des EEG Signals von Kanal P4-O2 -->
    <g transform="translate(85.026563 35.472) scale(0.12 -0.12)">
     <defs>
      <path id="DejaVuSans-50" d="M 1259 4147 
L 1259 2394 
L 2053 2394 
Q 2494 2394 2734 2622 
Q 2975 2850 2975 3272 
Q 2975 3691 2734 3919 
Q 2494 4147 2053 4147 
L 1259 4147 
z
M 628 4666 
L 2053 4666 
Q 2838 4666 3239 4311 
Q 3641 3956 3641 3272 
Q 3641 2581 3239 2228 
Q 2838 1875 2053 1875 
L 1259 1875 
L 1259 0 
L 628 0 
L 628 4666 
z
" transform="scale(0.015625)"/>
      <path id="DejaVuSans-6f" d="M 1959 3097 
Q 1497 3097 1228 2736 
Q 959 2375 959 1747 
Q 959 1119 1226 758 
Q 1494 397 1959 397 
Q 2419 397 2687 759 
Q 2956 1122 2956 1747 
Q 2956 2369 2687 2733 
Q 2419 3097 1959 3097 
z
M 1959 3584 
Q 2709 3584 3137 3096 
Q 3566 2609 3566 1747 
Q 3566 888 3137 398 
Q 2709 -91 1959 -91 
Q 1206 -91 779 398 
Q 353 888 353 1747 
Q 353 2609 779 3096 
Q 1206 3584 1959 3584 
z
" transform="scale(0.015625)"/>
      <path id="DejaVuSans-77" d="M 269 3500 
L 844 3500 
L 1563 769 
L 2278 3500 
L 2956 3500 
L 3675 769 
L 4391 3500 
L 4966 3500 
L 4050 0 
L 3372 0 
L 2619 2869 
L 1863 0 
L 1184 0 
L 269 3500 
z
" transform="scale(0.015625)"/>
      <path id="DejaVuSans-53" d="M 3425 4513 
L 3425 3897 
Q 3066 4069 2747 4153 
Q 2428 4238 2131 4238 
Q 1616 4238 1336 4038 
Q 1056 3838 1056 3469 
Q 1056 3159 1242 3001 
Q 1428 2844 1947 2747 
L 2328 2669 
Q 3034 2534 3370 2195 
Q 3706 1856 3706 1288 
Q 3706 609 3251 259 
Q 2797 -91 1919 -91 
Q 1588 -91 1214 -16 
Q 841 59 441 206 
L 441 856 
Q 825 641 1194 531 
Q 1563 422 1919 422 
Q 2459 422 2753 634 
Q 3047 847 3047 1241 
Q 3047 1584 2836 1778 
Q 2625 1972 2144 2069 
L 1759 2144 
Q 1053 2284 737 2584 
Q 422 2884 422 3419 
Q 422 4038 858 4394 
Q 1294 4750 2059 4750 
Q 2388 4750 2728 4690 
Q 3069 4631 3425 4513 
z
" transform="scale(0.015625)"/>
      <path id="DejaVuSans-70" d="M 1159 525 
L 1159 -1331 
L 581 -1331 
L 581 3500 
L 1159 3500 
L 1159 2969 
Q 1341 3281 1617 3432 
Q 1894 3584 2278 3584 
Q 2916 3584 3314 3078 
Q 3713 2572 3713 1747 
Q 3713 922 3314 415 
Q 2916 -91 2278 -91 
Q 1894 -91 1617 61 
Q 1341 213 1159 525 
z
M 3116 1747 
Q 3116 2381 2855 2742 
Q 2594 3103 2138 3103 
Q 1681 3103 1420 2742 
Q 1159 2381 1159 1747 
Q 1159 1113 1420 752 
Q 1681 391 2138 391 
Q 2594 391 2855 752 
Q 3116 1113 3116 1747 
z
" transform="scale(0.015625)"/>
      <path id="DejaVuSans-6b" d="M 581 4863 
L 1159 4863 
L 1159 1991 
L 2875 3500 
L 3609 3500 
L 1753 1863 
L 3688 0 
L 2938 0 
L 1159 1709 
L 1159 0 
L 581 0 
L 581 4863 
z
" transform="scale(0.015625)"/>
      <path id="DejaVuSans-6d" d="M 3328 2828 
Q 3544 3216 3844 3400 
Q 4144 3584 4550 3584 
Q 5097 3584 5394 3201 
Q 5691 2819 5691 2113 
L 5691 0 
L 5113 0 
L 5113 2094 
Q 5113 2597 4934 2840 
Q 4756 3084 4391 3084 
Q 3944 3084 3684 2787 
Q 3425 2491 3425 1978 
L 3425 0 
L 2847 0 
L 2847 2094 
Q 2847 2600 2669 2842 
Q 2491 3084 2119 3084 
Q 1678 3084 1418 2786 
Q 1159 2488 1159 1978 
L 1159 0 
L 581 0 
L 581 3500 
L 1159 3500 
L 1159 2956 
Q 1356 3278 1631 3431 
Q 1906 3584 2284 3584 
Q 2666 3584 2933 3390 
Q 3200 3197 3328 2828 
z
" transform="scale(0.015625)"/>
      <path id="DejaVuSans-64" d="M 2906 2969 
L 2906 4863 
L 3481 4863 
L 3481 0 
L 2906 0 
L 2906 525 
Q 2725 213 2448 61 
Q 2172 -91 1784 -91 
Q 1150 -91 751 415 
Q 353 922 353 1747 
Q 353 2572 751 3078 
Q 1150 3584 1784 3584 
Q 2172 3584 2448 3432 
Q 2725 3281 2906 2969 
z
M 947 1747 
Q 947 1113 1208 752 
Q 1469 391 1925 391 
Q 2381 391 2643 752 
Q 2906 1113 2906 1747 
Q 2906 2381 2643 2742 
Q 2381 3103 1925 3103 
Q 1469 3103 1208 2742 
Q 947 2381 947 1747 
z
" transform="scale(0.015625)"/>
      <path id="DejaVuSans-45" d="M 628 4666 
L 3578 4666 
L 3578 4134 
L 1259 4134 
L 1259 2753 
L 3481 2753 
L 3481 2222 
L 1259 2222 
L 1259 531 
L 3634 531 
L 3634 0 
L 628 0 
L 628 4666 
z
" transform="scale(0.015625)"/>
      <path id="DejaVuSans-47" d="M 3809 666 
L 3809 1919 
L 2778 1919 
L 2778 2438 
L 4434 2438 
L 4434 434 
Q 4069 175 3628 42 
Q 3188 -91 2688 -91 
Q 1594 -91 976 548 
Q 359 1188 359 2328 
Q 359 3472 976 4111 
Q 1594 4750 2688 4750 
Q 3144 4750 3555 4637 
Q 3966 4525 4313 4306 
L 4313 3634 
Q 3963 3931 3569 4081 
Q 3175 4231 2741 4231 
Q 1884 4231 1454 3753 
Q 1025 3275 1025 2328 
Q 1025 1384 1454 906 
Q 1884 428 2741 428 
Q 3075 428 3337 486 
Q 3600 544 3809 666 
z
" transform="scale(0.015625)"/>
      <path id="DejaVuSans-61" d="M 2194 1759 
Q 1497 1759 1228 1600 
Q 959 1441 959 1056 
Q 959 750 1161 570 
Q 1363 391 1709 391 
Q 2188 391 2477 730 
Q 2766 1069 2766 1631 
L 2766 1759 
L 2194 1759 
z
M 3341 1997 
L 3341 0 
L 2766 0 
L 2766 531 
Q 2569 213 2275 61 
Q 1981 -91 1556 -91 
Q 1019 -91 701 211 
Q 384 513 384 1019 
Q 384 1609 779 1909 
Q 1175 2209 1959 2209 
L 2766 2209 
L 2766 2266 
Q 2766 2663 2505 2880 
Q 2244 3097 1772 3097 
Q 1472 3097 1187 3025 
Q 903 2953 641 2809 
L 641 3341 
Q 956 3463 1253 3523 
Q 1550 3584 1831 3584 
Q 2591 3584 2966 3190 
Q 3341 2797 3341 1997 
z
" transform="scale(0.015625)"/>
      <path id="DejaVuSans-6c" d="M 603 4863 
L 1178 4863 
L 1178 0 
L 603 0 
L 603 4863 
z
" transform="scale(0.015625)"/>
      <path id="DejaVuSans-76" d="M 191 3500 
L 800 3500 
L 1894 563 
L 2988 3500 
L 3597 3500 
L 2284 0 
L 1503 0 
L 191 3500 
z
" transform="scale(0.015625)"/>
      <path id="DejaVuSans-4b" d="M 628 4666 
L 1259 4666 
L 1259 2694 
L 3353 4666 
L 4166 4666 
L 1850 2491 
L 4331 0 
L 3500 0 
L 1259 2247 
L 1259 0 
L 628 0 
L 628 4666 
z
" transform="scale(0.015625)"/>
      <path id="DejaVuSans-2d" d="M 313 2009 
L 1997 2009 
L 1997 1497 
L 313 1497 
L 313 2009 
z
" transform="scale(0.015625)"/>
      <path id="DejaVuSans-4f" d="M 2522 4238 
Q 1834 4238 1429 3725 
Q 1025 3213 1025 2328 
Q 1025 1447 1429 934 
Q 1834 422 2522 422 
Q 3209 422 3611 934 
Q 4013 1447 4013 2328 
Q 4013 3213 3611 3725 
Q 3209 4238 2522 4238 
z
M 2522 4750 
Q 3503 4750 4090 4092 
Q 4678 3434 4678 2328 
Q 4678 1225 4090 567 
Q 3503 -91 2522 -91 
Q 1538 -91 948 565 
Q 359 1222 359 2328 
Q 359 3434 948 4092 
Q 1538 4750 2522 4750 
z
" transform="scale(0.015625)"/>
     </defs>
     <use xlink:href="#DejaVuSans-50"/>
     <use xlink:href="#DejaVuSans-6f" transform="translate(56.677734 0)"/>
     <use xlink:href="#DejaVuSans-77" transform="translate(117.859375 0)"/>
     <use xlink:href="#DejaVuSans-65" transform="translate(199.646484 0)"/>
     <use xlink:href="#DejaVuSans-72" transform="translate(261.169922 0)"/>
     <use xlink:href="#DejaVuSans-20" transform="translate(302.283203 0)"/>
     <use xlink:href="#DejaVuSans-53" transform="translate(334.070312 0)"/>
     <use xlink:href="#DejaVuSans-70" transform="translate(397.546875 0)"/>
     <use xlink:href="#DejaVuSans-65" transform="translate(461.023438 0)"/>
     <use xlink:href="#DejaVuSans-6b" transform="translate(522.546875 0)"/>
     <use xlink:href="#DejaVuSans-74" transform="translate(580.457031 0)"/>
     <use xlink:href="#DejaVuSans-72" transform="translate(619.666016 0)"/>
     <use xlink:href="#DejaVuSans-75" transform="translate(660.779297 0)"/>
     <use xlink:href="#DejaVuSans-6d" transform="translate(724.158203 0)"/>
     <use xlink:href="#DejaVuSans-20" transform="translate(821.570312 0)"/>
     <use xlink:href="#DejaVuSans-64" transform="translate(853.357422 0)"/>
     <use xlink:href="#DejaVuSans-65" transform="translate(916.833984 0)"/>
     <use xlink:href="#DejaVuSans-73" transform="translate(978.357422 0)"/>
     <use xlink:href="#DejaVuSans-20" transform="translate(1030.457031 0)"/>
     <use xlink:href="#DejaVuSans-45" transform="translate(1062.244141 0)"/>
     <use xlink:href="#DejaVuSans-45" transform="translate(1125.427734 0)"/>
     <use xlink:href="#DejaVuSans-47" transform="translate(1188.611328 0)"/>
     <use xlink:href="#DejaVuSans-20" transform="translate(1266.101562 0)"/>
     <use xlink:href="#DejaVuSans-53" transform="translate(1297.888672 0)"/>
     <use xlink:href="#DejaVuSans-69" transform="translate(1361.365234 0)"/>
     <use xlink:href="#DejaVuSans-67" transform="translate(1389.148438 0)"/>
     <use xlink:href="#DejaVuSans-6e" transform="translate(1452.625 0)"/>
     <use xlink:href="#DejaVuSans-61" transform="translate(1516.003906 0)"/>
     <use xlink:href="#DejaVuSans-6c" transform="translate(1577.283203 0)"/>
     <use xlink:href="#DejaVuSans-73" transform="translate(1605.066406 0)"/>
     <use xlink:href="#DejaVuSans-20" transform="translate(1657.166016 0)"/>
     <use xlink:href="#DejaVuSans-76" transform="translate(1688.953125 0)"/>
     <use xlink:href="#DejaVuSans-6f" transform="translate(1748.132812 0)"/>
     <use xlink:href="#DejaVuSans-6e" transform="translate(1809.314453 0)"/>
     <use xlink:href="#DejaVuSans-20" transform="translate(1872.693359 0)"/>
     <use xlink:href="#DejaVuSans-4b" transform="translate(1904.480469 0)"/>
     <use xlink:href="#DejaVuSans-61" transform="translate(1968.306641 0)"/>
     <use xlink:href="#DejaVuSans-6e" transform="translate(2029.585938 0)"/>
     <use xlink:href="#DejaVuSans-61" transform="translate(2092.964844 0)"/>
     <use xlink:href="#DejaVuSans-6c" transform="translate(2154.244141 0)"/>
     <use xlink:href="#DejaVuSans-20" transform="translate(2182.027344 0)"/>
     <use xlink:href="#DejaVuSans-50" transform="translate(2213.814453 0)"/>
     <use xlink:href="#DejaVuSans-34" transform="translate(2274.117188 0)"/>
     <use xlink:href="#DejaVuSans-2d" transform="translate(2337.740234 0)"/>
     <use xlink:href="#DejaVuSans-4f" transform="translate(2376.574219 0)"/>
     <use xlink:href="#DejaVuSans-32" transform="translate(2455.285156 0)"/>
    </g>
   </g>
   <g id="legend_1">
    <g id="patch_7">
     <path d="M 266.196563 78.82825 
L 407.72 78.82825 
Q 409.72 78.82825 409.72 76.82825 
L 409.72 48.472 
Q 409.72 46.472 407.72 46.472 
L 266.196563 46.472 
Q 264.196563 46.472 264.196563 48.472 
L 264.196563 76.82825 
Q 264.196563 78.82825 266.196563 78.82825 
z
" style="fill: #ffffff; opacity: 0.8; stroke: #cccccc; stroke-linejoin: miter"/>
    </g>
    <g id="line2d_57">
     <path d="M 268.196563 54.570437 
L 278.196563 54.570437 
L 288.196563 54.570437 
" style="fill: none; stroke: #0000ff; stroke-width: 1.5; stroke-linecap: square"/>
    </g>
    <g id="text_16">
     <!-- Original -->
     <g transform="translate(296.196563 58.070437) scale(0.1 -0.1)">
      <use xlink:href="#DejaVuSans-4f"/>
      <use xlink:href="#DejaVuSans-72" transform="translate(78.710938 0)"/>
      <use xlink:href="#DejaVuSans-69" transform="translate(119.824219 0)"/>
      <use xlink:href="#DejaVuSans-67" transform="translate(147.607422 0)"/>
      <use xlink:href="#DejaVuSans-69" transform="translate(211.083984 0)"/>
      <use xlink:href="#DejaVuSans-6e" transform="translate(238.867188 0)"/>
      <use xlink:href="#DejaVuSans-61" transform="translate(302.246094 0)"/>
      <use xlink:href="#DejaVuSans-6c" transform="translate(363.525391 0)"/>
     </g>
    </g>
    <g id="line2d_58">
     <path d="M 268.196563 69.248562 
L 278.196563 69.248562 
L 288.196563 69.248562 
" style="fill: none; stroke: #ffa500; stroke-width: 1.5; stroke-linecap: square"/>
    </g>
    <g id="text_17">
     <!-- After resampling/filter -->
     <g transform="translate(296.196563 72.748562) scale(0.1 -0.1)">
      <defs>
       <path id="DejaVuSans-41" d="M 2188 4044 
L 1331 1722 
L 3047 1722 
L 2188 4044 
z
M 1831 4666 
L 2547 4666 
L 4325 0 
L 3669 0 
L 3244 1197 
L 1141 1197 
L 716 0 
L 50 0 
L 1831 4666 
z
" transform="scale(0.015625)"/>
       <path id="DejaVuSans-66" d="M 2375 4863 
L 2375 4384 
L 1825 4384 
Q 1516 4384 1395 4259 
Q 1275 4134 1275 3809 
L 1275 3500 
L 2222 3500 
L 2222 3053 
L 1275 3053 
L 1275 0 
L 697 0 
L 697 3053 
L 147 3053 
L 147 3500 
L 697 3500 
L 697 3744 
Q 697 4328 969 4595 
Q 1241 4863 1831 4863 
L 2375 4863 
z
" transform="scale(0.015625)"/>
      </defs>
      <use xlink:href="#DejaVuSans-41"/>
      <use xlink:href="#DejaVuSans-66" transform="translate(64.783203 0)"/>
      <use xlink:href="#DejaVuSans-74" transform="translate(98.238281 0)"/>
      <use xlink:href="#DejaVuSans-65" transform="translate(137.447266 0)"/>
      <use xlink:href="#DejaVuSans-72" transform="translate(198.970703 0)"/>
      <use xlink:href="#DejaVuSans-20" transform="translate(240.083984 0)"/>
      <use xlink:href="#DejaVuSans-72" transform="translate(271.871094 0)"/>
      <use xlink:href="#DejaVuSans-65" transform="translate(310.734375 0)"/>
      <use xlink:href="#DejaVuSans-73" transform="translate(372.257812 0)"/>
      <use xlink:href="#DejaVuSans-61" transform="translate(424.357422 0)"/>
      <use xlink:href="#DejaVuSans-6d" transform="translate(485.636719 0)"/>
      <use xlink:href="#DejaVuSans-70" transform="translate(583.048828 0)"/>
      <use xlink:href="#DejaVuSans-6c" transform="translate(646.525391 0)"/>
      <use xlink:href="#DejaVuSans-69" transform="translate(674.308594 0)"/>
      <use xlink:href="#DejaVuSans-6e" transform="translate(702.091797 0)"/>
      <use xlink:href="#DejaVuSans-67" transform="translate(765.470703 0)"/>
      <use xlink:href="#DejaVuSans-2f" transform="translate(828.947266 0)"/>
      <use xlink:href="#DejaVuSans-66" transform="translate(862.638672 0)"/>
      <use xlink:href="#DejaVuSans-69" transform="translate(897.84375 0)"/>
      <use xlink:href="#DejaVuSans-6c" transform="translate(925.626953 0)"/>
      <use xlink:href="#DejaVuSans-74" transform="translate(953.410156 0)"/>
      <use xlink:href="#DejaVuSans-65" transform="translate(992.619141 0)"/>
      <use xlink:href="#DejaVuSans-72" transform="translate(1054.142578 0)"/>
     </g>
    </g>
   </g>
  </g>
 </g>
 <defs>
  <clipPath id="p4f62a64d52">
   <rect x="57.6" y="41.472" width="357.12" height="266.112"/>
  </clipPath>
 </defs>
</svg>
