<?xml version="1.0" encoding="utf-8" standalone="no"?>
<!DOCTYPE svg PUBLIC "-//W3C//DTD SVG 1.1//EN"
  "http://www.w3.org/Graphics/SVG/1.1/DTD/svg11.dtd">
<svg xmlns:xlink="http://www.w3.org/1999/xlink" width="460.8pt" height="345.6pt" viewBox="0 0 460.8 345.6" xmlns="http://www.w3.org/2000/svg" version="1.1">
 <metadata>
  <rdf:RDF xmlns:dc="http://purl.org/dc/elements/1.1/" xmlns:cc="http://creativecommons.org/ns#" xmlns:rdf="http://www.w3.org/1999/02/22-rdf-syntax-ns#">
   <cc:Work>
    <dc:type rdf:resource="http://purl.org/dc/dcmitype/StillImage"/>
    <dc:date>2025-10-31T11:53:50.448017</dc:date>
    <dc:format>image/svg+xml</dc:format>
    <dc:creator>
     <cc:Agent>
      <dc:title>Matplotlib v3.10.7, https://matplotlib.org/</dc:title>
     </cc:Agent>
    </dc:creator>
   </cc:Work>
  </rdf:RDF>
 </metadata>
 <defs>
  <style type="text/css">*{stroke-linejoin: round; stroke-linecap: butt}</style>
 </defs>
 <g id="figure_1">
  <g id="patch_1">
   <path d="M 0 345.6 
L 460.8 345.6 
L 460.8 0 
L 0 0 
z
" style="fill: #ffffff"/>
  </g>
  <g id="axes_1">
   <g id="patch_2">
    <path d="M 57.6 307.584 
L 414.72 307.584 
L 414.72 41.472 
L 57.6 41.472 
z
" style="fill: #ffffff"/>
   </g>
   <g id="matplotlib.axis_1">
    <g id="xtick_1">
     <g id="line2d_1">
      <defs>
       <path id="m0ed8c6a4d4" d="M 0 0 
L 0 3.5 
" style="stroke: #000000; stroke-width: 0.8"/>
      </defs>
      <g>
       <use xlink:href="#m0ed8c6a4d4" x="73.832727" y="307.584" style="stroke: #000000; stroke-width: 0.8"/>
      </g>
     </g>
     <g id="text_1">
      <!-- 0 -->
      <g transform="translate(70.651477 322.182437) scale(0.1 -0.1)">
       <defs>
        <path id="DejaVuSans-30" d="M 2034 4250 
Q 1547 4250 1301 3770 
Q 1056 3291 1056 2328 
Q 1056 1369 1301 889 
Q 1547 409 2034 409 
Q 2525 409 2770 889 
Q 3016 1369 3016 2328 
Q 3016 3291 2770 3770 
Q 2525 4250 2034 4250 
z
M 2034 4750 
Q 2819 4750 3233 4129 
Q 3647 3509 3647 2328 
Q 3647 1150 3233 529 
Q 2819 -91 2034 -91 
Q 1250 -91 836 529 
Q 422 1150 422 2328 
Q 422 3509 836 4129 
Q 1250 4750 2034 4750 
z
" transform="scale(0.015625)"/>
       </defs>
       <use xlink:href="#DejaVuSans-30"/>
      </g>
     </g>
    </g>
    <g id="xtick_2">
     <g id="line2d_2">
      <g>
       <use xlink:href="#m0ed8c6a4d4" x="124.56" y="307.584" style="stroke: #000000; stroke-width: 0.8"/>
      </g>
     </g>
     <g id="text_2">
      <!-- 20 -->
      <g transform="translate(118.1975 322.182437) scale(0.1 -0.1)">
       <defs>
        <path id="DejaVuSans-32" d="M 1228 531 
L 3431 531 
L 3431 0 
L 469 0 
L 469 531 
Q 828 903 1448 1529 
Q 2069 2156 2228 2338 
Q 2531 2678 2651 2914 
Q 2772 3150 2772 3378 
Q 2772 3750 2511 3984 
Q 2250 4219 1831 4219 
Q 1534 4219 1204 4116 
Q 875 4013 500 3803 
L 500 4441 
Q 881 4594 1212 4672 
Q 1544 4750 1819 4750 
Q 2544 4750 2975 4387 
Q 3406 4025 3406 3419 
Q 3406 3131 3298 2873 
Q 3191 2616 2906 2266 
Q 2828 2175 2409 1742 
Q 1991 1309 1228 531 
z
" transform="scale(0.015625)"/>
       </defs>
       <use xlink:href="#DejaVuSans-32"/>
       <use xlink:href="#DejaVuSans-30" transform="translate(63.623047 0)"/>
      </g>
     </g>
    </g>
    <g id="xtick_3">
     <g id="line2d_3">
      <g>
       <use xlink:href="#m0ed8c6a4d4" x="175.287273" y="307.584" style="stroke: #000000; stroke-width: 0.8"/>
      </g>
     </g>
     <g id="text_3">
      <!-- 40 -->
      <g transform="translate(168.924773 322.182437) scale(0.1 -0.1)">
       <defs>
        <path id="DejaVuSans-34" d="M 2419 4116 
L 825 1625 
L 2419 1625 
L 2419 4116 
z
M 2253 4666 
L 3047 4666 
L 3047 1625 
L 3713 1625 
L 3713 1100 
L 3047 1100 
L 3047 0 
L 2419 0 
L 2419 1100 
L 313 1100 
L 313 1709 
L 2253 4666 
z
" transform="scale(0.015625)"/>
       </defs>
       <use xlink:href="#DejaVuSans-34"/>
       <use xlink:href="#DejaVuSans-30" transform="translate(63.623047 0)"/>
      </g>
     </g>
    </g>
    <g id="xtick_4">
     <g id="line2d_4">
      <g>
       <use xlink:href="#m0ed8c6a4d4" x="226.014545" y="307.584" style="stroke: #000000; stroke-width: 0.8"/>
      </g>
     </g>
     <g id="text_4">
      <!-- 60 -->
      <g transform="translate(219.652045 322.182437) scale(0.1 -0.1)">
       <defs>
        <path id="DejaVuSans-36" d="M 2113 2584 
Q 1688 2584 1439 2293 
Q 1191 2003 1191 1497 
Q 1191 994 1439 701 
Q 1688 409 2113 409 
Q 2538 409 2786 701 
Q 3034 994 3034 1497 
Q 3034 2003 2786 2293 
Q 2538 2584 2113 2584 
z
M 3366 4563 
L 3366 3988 
Q 3128 4100 2886 4159 
Q 2644 4219 2406 4219 
Q 1781 4219 1451 3797 
Q 1122 3375 1075 2522 
Q 1259 2794 1537 2939 
Q 1816 3084 2150 3084 
Q 2853 3084 3261 2657 
Q 3669 2231 3669 1497 
Q 3669 778 3244 343 
Q 2819 -91 2113 -91 
Q 1303 -91 875 529 
Q 447 1150 447 2328 
Q 447 3434 972 4092 
Q 1497 4750 2381 4750 
Q 2619 4750 2861 4703 
Q 3103 4656 3366 4563 
z
" transform="scale(0.015625)"/>
       </defs>
       <use xlink:href="#DejaVuSans-36"/>
       <use xlink:href="#DejaVuSans-30" transform="translate(63.623047 0)"/>
      </g>
     </g>
    </g>
    <g id="xtick_5">
     <g id="line2d_5">
      <g>
       <use xlink:href="#m0ed8c6a4d4" x="276.741818" y="307.584" style="stroke: #000000; stroke-width: 0.8"/>
      </g>
     </g>
     <g id="text_5">
      <!-- 80 -->
      <g transform="translate(270.379318 322.182437) scale(0.1 -0.1)">
       <defs>
        <path id="DejaVuSans-38" d="M 2034 2216 
Q 1584 2216 1326 1975 
Q 1069 1734 1069 1313 
Q 1069 891 1326 650 
Q 1584 409 2034 409 
Q 2484 409 2743 651 
Q 3003 894 3003 1313 
Q 3003 1734 2745 1975 
Q 2488 2216 2034 2216 
z
M 1403 2484 
Q 997 2584 770 2862 
Q 544 3141 544 3541 
Q 544 4100 942 4425 
Q 1341 4750 2034 4750 
Q 2731 4750 3128 4425 
Q 3525 4100 3525 3541 
Q 3525 3141 3298 2862 
Q 3072 2584 2669 2484 
Q 3125 2378 3379 2068 
Q 3634 1759 3634 1313 
Q 3634 634 3220 271 
Q 2806 -91 2034 -91 
Q 1263 -91 848 271 
Q 434 634 434 1313 
Q 434 1759 690 2068 
Q 947 2378 1403 2484 
z
M 1172 3481 
Q 1172 3119 1398 2916 
Q 1625 2713 2034 2713 
Q 2441 2713 2670 2916 
Q 2900 3119 2900 3481 
Q 2900 3844 2670 4047 
Q 2441 4250 2034 4250 
Q 1625 4250 1398 4047 
Q 1172 3844 1172 3481 
z
" transform="scale(0.015625)"/>
       </defs>
       <use xlink:href="#DejaVuSans-38"/>
       <use xlink:href="#DejaVuSans-30" transform="translate(63.623047 0)"/>
      </g>
     </g>
    </g>
    <g id="xtick_6">
     <g id="line2d_6">
      <g>
       <use xlink:href="#m0ed8c6a4d4" x="327.469091" y="307.584" style="stroke: #000000; stroke-width: 0.8"/>
      </g>
     </g>
     <g id="text_6">
      <!-- 100 -->
      <g transform="translate(317.925341 322.182437) scale(0.1 -0.1)">
       <defs>
        <path id="DejaVuSans-31" d="M 794 531 
L 1825 531 
L 1825 4091 
L 703 3866 
L 703 4441 
L 1819 4666 
L 2450 4666 
L 2450 531 
L 3481 531 
L 3481 0 
L 794 0 
L 794 531 
z
" transform="scale(0.015625)"/>
       </defs>
       <use xlink:href="#DejaVuSans-31"/>
       <use xlink:href="#DejaVuSans-30" transform="translate(63.623047 0)"/>
       <use xlink:href="#DejaVuSans-30" transform="translate(127.246094 0)"/>
      </g>
     </g>
    </g>
    <g id="xtick_7">
     <g id="line2d_7">
      <g>
       <use xlink:href="#m0ed8c6a4d4" x="378.196364" y="307.584" style="stroke: #000000; stroke-width: 0.8"/>
      </g>
     </g>
     <g id="text_7">
      <!-- 120 -->
      <g transform="translate(368.652614 322.182437) scale(0.1 -0.1)">
       <use xlink:href="#DejaVuSans-31"/>
       <use xlink:href="#DejaVuSans-32" transform="translate(63.623047 0)"/>
       <use xlink:href="#DejaVuSans-30" transform="translate(127.246094 0)"/>
      </g>
     </g>
    </g>
    <g id="text_8">
     <!-- Frequenz in Hz -->
     <g transform="translate(199.294375 335.860562) scale(0.1 -0.1)">
      <defs>
       <path id="DejaVuSans-46" d="M 628 4666 
L 3309 4666 
L 3309 4134 
L 1259 4134 
L 1259 2759 
L 3109 2759 
L 3109 2228 
L 1259 2228 
L 1259 0 
L 628 0 
L 628 4666 
z
" transform="scale(0.015625)"/>
       <path id="DejaVuSans-72" d="M 2631 2963 
Q 2534 3019 2420 3045 
Q 2306 3072 2169 3072 
Q 1681 3072 1420 2755 
Q 1159 2438 1159 1844 
L 1159 0 
L 581 0 
L 581 3500 
L 1159 3500 
L 1159 2956 
Q 1341 3275 1631 3429 
Q 1922 3584 2338 3584 
Q 2397 3584 2469 3576 
Q 2541 3569 2628 3553 
L 2631 2963 
z
" transform="scale(0.015625)"/>
       <path id="DejaVuSans-65" d="M 3597 1894 
L 3597 1613 
L 953 1613 
Q 991 1019 1311 708 
Q 1631 397 2203 397 
Q 2534 397 2845 478 
Q 3156 559 3463 722 
L 3463 178 
Q 3153 47 2828 -22 
Q 2503 -91 2169 -91 
Q 1331 -91 842 396 
Q 353 884 353 1716 
Q 353 2575 817 3079 
Q 1281 3584 2069 3584 
Q 2775 3584 3186 3129 
Q 3597 2675 3597 1894 
z
M 3022 2063 
Q 3016 2534 2758 2815 
Q 2500 3097 2075 3097 
Q 1594 3097 1305 2825 
Q 1016 2553 972 2059 
L 3022 2063 
z
" transform="scale(0.015625)"/>
       <path id="DejaVuSans-71" d="M 947 1747 
Q 947 1113 1208 752 
Q 1469 391 1925 391 
Q 2381 391 2643 752 
Q 2906 1113 2906 1747 
Q 2906 2381 2643 2742 
Q 2381 3103 1925 3103 
Q 1469 3103 1208 2742 
Q 947 2381 947 1747 
z
M 2906 525 
Q 2725 213 2448 61 
Q 2172 -91 1784 -91 
Q 1150 -91 751 415 
Q 353 922 353 1747 
Q 353 2572 751 3078 
Q 1150 3584 1784 3584 
Q 2172 3584 2448 3432 
Q 2725 3281 2906 2969 
L 2906 3500 
L 3481 3500 
L 3481 -1331 
L 2906 -1331 
L 2906 525 
z
" transform="scale(0.015625)"/>
       <path id="DejaVuSans-75" d="M 544 1381 
L 544 3500 
L 1119 3500 
L 1119 1403 
Q 1119 906 1312 657 
Q 1506 409 1894 409 
Q 2359 409 2629 706 
Q 2900 1003 2900 1516 
L 2900 3500 
L 3475 3500 
L 3475 0 
L 2900 0 
L 2900 538 
Q 2691 219 2414 64 
Q 2138 -91 1772 -91 
Q 1169 -91 856 284 
Q 544 659 544 1381 
z
M 1991 3584 
L 1991 3584 
z
" transform="scale(0.015625)"/>
       <path id="DejaVuSans-6e" d="M 3513 2113 
L 3513 0 
L 2938 0 
L 2938 2094 
Q 2938 2591 2744 2837 
Q 2550 3084 2163 3084 
Q 1697 3084 1428 2787 
Q 1159 2491 1159 1978 
L 1159 0 
L 581 0 
L 581 3500 
L 1159 3500 
L 1159 2956 
Q 1366 3272 1645 3428 
Q 1925 3584 2291 3584 
Q 2894 3584 3203 3211 
Q 3513 2838 3513 2113 
z
" transform="scale(0.015625)"/>
       <path id="DejaVuSans-7a" d="M 353 3500 
L 3084 3500 
L 3084 2975 
L 922 459 
L 3084 459 
L 3084 0 
L 275 0 
L 275 525 
L 2438 3041 
L 353 3041 
L 353 3500 
z
" transform="scale(0.015625)"/>
       <path id="DejaVuSans-20" transform="scale(0.015625)"/>
       <path id="DejaVuSans-69" d="M 603 3500 
L 1178 3500 
L 1178 0 
L 603 0 
L 603 3500 
z
M 603 4863 
L 1178 4863 
L 1178 4134 
L 603 4134 
L 603 4863 
z
" transform="scale(0.015625)"/>
       <path id="DejaVuSans-48" d="M 628 4666 
L 1259 4666 
L 1259 2753 
L 3553 2753 
L 3553 4666 
L 4184 4666 
L 4184 0 
L 3553 0 
L 3553 2222 
L 1259 2222 
L 1259 0 
L 628 0 
L 628 4666 
z
" transform="scale(0.015625)"/>
      </defs>
      <use xlink:href="#DejaVuSans-46"/>
      <use xlink:href="#DejaVuSans-72" transform="translate(50.269531 0)"/>
      <use xlink:href="#DejaVuSans-65" transform="translate(89.132812 0)"/>
      <use xlink:href="#DejaVuSans-71" transform="translate(150.65625 0)"/>
      <use xlink:href="#DejaVuSans-75" transform="translate(214.132812 0)"/>
      <use xlink:href="#DejaVuSans-65" transform="translate(277.511719 0)"/>
      <use xlink:href="#DejaVuSans-6e" transform="translate(339.035156 0)"/>
      <use xlink:href="#DejaVuSans-7a" transform="translate(402.414062 0)"/>
      <use xlink:href="#DejaVuSans-20" transform="translate(454.904297 0)"/>
      <use xlink:href="#DejaVuSans-69" transform="translate(486.691406 0)"/>
      <use xlink:href="#DejaVuSans-6e" transform="translate(514.474609 0)"/>
      <use xlink:href="#DejaVuSans-20" transform="translate(577.853516 0)"/>
      <use xlink:href="#DejaVuSans-48" transform="translate(609.640625 0)"/>
      <use xlink:href="#DejaVuSans-7a" transform="translate(684.835938 0)"/>
     </g>
    </g>
   </g>
   <g id="matplotlib.axis_2">
    <g id="ytick_1">
     <g id="line2d_8">
      <defs>
       <path id="m42a4a17875" d="M 0 0 
L -3.5 0 
" style="stroke: #000000; stroke-width: 0.8"/>
      </defs>
      <g>
       <use xlink:href="#m42a4a17875" x="57.6" y="307.584" style="stroke: #000000; stroke-width: 0.8"/>
      </g>
     </g>
     <g id="text_9">
      <!-- $\mathdefault{10^{-3}}$ -->
      <g transform="translate(27.1 311.383219) scale(0.1 -0.1)">
       <defs>
        <path id="DejaVuSans-2212" d="M 678 2272 
L 4684 2272 
L 4684 1741 
L 678 1741 
L 678 2272 
z
" transform="scale(0.015625)"/>
        <path id="DejaVuSans-33" d="M 2597 2516 
Q 3050 2419 3304 2112 
Q 3559 1806 3559 1356 
Q 3559 666 3084 287 
Q 2609 -91 1734 -91 
Q 1441 -91 1130 -33 
Q 819 25 488 141 
L 488 750 
Q 750 597 1062 519 
Q 1375 441 1716 441 
Q 2309 441 2620 675 
Q 2931 909 2931 1356 
Q 2931 1769 2642 2001 
Q 2353 2234 1838 2234 
L 1294 2234 
L 1294 2753 
L 1863 2753 
Q 2328 2753 2575 2939 
Q 2822 3125 2822 3475 
Q 2822 3834 2567 4026 
Q 2313 4219 1838 4219 
Q 1578 4219 1281 4162 
Q 984 4106 628 3988 
L 628 4550 
Q 988 4650 1302 4700 
Q 1616 4750 1894 4750 
Q 2613 4750 3031 4423 
Q 3450 4097 3450 3541 
Q 3450 3153 3228 2886 
Q 3006 2619 2597 2516 
z
" transform="scale(0.015625)"/>
       </defs>
       <use xlink:href="#DejaVuSans-31" transform="translate(0 0.765625)"/>
       <use xlink:href="#DejaVuSans-30" transform="translate(63.623047 0.765625)"/>
       <use xlink:href="#DejaVuSans-2212" transform="translate(128.203125 39.046875) scale(0.7)"/>
       <use xlink:href="#DejaVuSans-33" transform="translate(186.855469 39.046875) scale(0.7)"/>
      </g>
     </g>
    </g>
    <g id="ytick_2">
     <g id="line2d_9">
      <g>
       <use xlink:href="#m42a4a17875" x="57.6" y="263.232" style="stroke: #000000; stroke-width: 0.8"/>
      </g>
     </g>
     <g id="text_10">
      <!-- $\mathdefault{10^{-2}}$ -->
      <g transform="translate(27.1 267.031219) scale(0.1 -0.1)">
       <use xlink:href="#DejaVuSans-31" transform="translate(0 0.765625)"/>
       <use xlink:href="#DejaVuSans-30" transform="translate(63.623047 0.765625)"/>
       <use xlink:href="#DejaVuSans-2212" transform="translate(128.203125 39.046875) scale(0.7)"/>
       <use xlink:href="#DejaVuSans-32" transform="translate(186.855469 39.046875) scale(0.7)"/>
      </g>
     </g>
    </g>
    <g id="ytick_3">
     <g id="line2d_10">
      <g>
       <use xlink:href="#m42a4a17875" x="57.6" y="218.88" style="stroke: #000000; stroke-width: 0.8"/>
      </g>
     </g>
     <g id="text_11">
      <!-- $\mathdefault{10^{-1}}$ -->
      <g transform="translate(27.1 222.679219) scale(0.1 -0.1)">
       <use xlink:href="#DejaVuSans-31" transform="translate(0 0.684375)"/>
       <use xlink:href="#DejaVuSans-30" transform="translate(63.623047 0.684375)"/>
       <use xlink:href="#DejaVuSans-2212" transform="translate(128.203125 38.965625) scale(0.7)"/>
       <use xlink:href="#DejaVuSans-31" transform="translate(186.855469 38.965625) scale(0.7)"/>
      </g>
     </g>
    </g>
    <g id="ytick_4">
     <g id="line2d_11">
      <g>
       <use xlink:href="#m42a4a17875" x="57.6" y="174.528" style="stroke: #000000; stroke-width: 0.8"/>
      </g>
     </g>
     <g id="text_12">
      <!-- $\mathdefault{10^{0}}$ -->
      <g transform="translate(33 178.327219) scale(0.1 -0.1)">
       <use xlink:href="#DejaVuSans-31" transform="translate(0 0.765625)"/>
       <use xlink:href="#DejaVuSans-30" transform="translate(63.623047 0.765625)"/>
       <use xlink:href="#DejaVuSans-30" transform="translate(128.203125 39.046875) scale(0.7)"/>
      </g>
     </g>
    </g>
    <g id="ytick_5">
     <g id="line2d_12">
      <g>
       <use xlink:href="#m42a4a17875" x="57.6" y="130.176" style="stroke: #000000; stroke-width: 0.8"/>
      </g>
     </g>
     <g id="text_13">
      <!-- $\mathdefault{10^{1}}$ -->
      <g transform="translate(33 133.975219) scale(0.1 -0.1)">
       <use xlink:href="#DejaVuSans-31" transform="translate(0 0.684375)"/>
       <use xlink:href="#DejaVuSans-30" transform="translate(63.623047 0.684375)"/>
       <use xlink:href="#DejaVuSans-31" transform="translate(128.203125 38.965625) scale(0.7)"/>
      </g>
     </g>
    </g>
    <g id="ytick_6">
     <g id="line2d_13">
      <g>
       <use xlink:href="#m42a4a17875" x="57.6" y="85.824" style="stroke: #000000; stroke-width: 0.8"/>
      </g>
     </g>
     <g id="text_14">
      <!-- $\mathdefault{10^{2}}$ -->
      <g transform="translate(33 89.623219) scale(0.1 -0.1)">
       <use xlink:href="#DejaVuSans-31" transform="translate(0 0.765625)"/>
       <use xlink:href="#DejaVuSans-30" transform="translate(63.623047 0.765625)"/>
       <use xlink:href="#DejaVuSans-32" transform="translate(128.203125 39.046875) scale(0.7)"/>
      </g>
     </g>
    </g>
    <g id="ytick_7">
     <g id="line2d_14">
      <g>
       <use xlink:href="#m42a4a17875" x="57.6" y="41.472" style="stroke: #000000; stroke-width: 0.8"/>
      </g>
     </g>
     <g id="text_15">
      <!-- $\mathdefault{10^{3}}$ -->
      <g transform="translate(33 45.271219) scale(0.1 -0.1)">
       <use xlink:href="#DejaVuSans-31" transform="translate(0 0.765625)"/>
       <use xlink:href="#DejaVuSans-30" transform="translate(63.623047 0.765625)"/>
       <use xlink:href="#DejaVuSans-33" transform="translate(128.203125 39.046875) scale(0.7)"/>
      </g>
     </g>
    </g>
    <g id="ytick_8">
     <g id="line2d_15">
      <defs>
       <path id="mf3301b72ad" d="M 0 0 
L -2 0 
" style="stroke: #000000; stroke-width: 0.6"/>
      </defs>
      <g>
       <use xlink:href="#mf3301b72ad" x="57.6" y="294.232718" style="stroke: #000000; stroke-width: 0.6"/>
      </g>
     </g>
    </g>
    <g id="ytick_9">
     <g id="line2d_16">
      <g>
       <use xlink:href="#mf3301b72ad" x="57.6" y="286.422718" style="stroke: #000000; stroke-width: 0.6"/>
      </g>
     </g>
    </g>
    <g id="ytick_10">
     <g id="line2d_17">
      <g>
       <use xlink:href="#mf3301b72ad" x="57.6" y="280.881435" style="stroke: #000000; stroke-width: 0.6"/>
      </g>
     </g>
    </g>
    <g id="ytick_11">
     <g id="line2d_18">
      <g>
       <use xlink:href="#mf3301b72ad" x="57.6" y="276.583282" style="stroke: #000000; stroke-width: 0.6"/>
      </g>
     </g>
    </g>
    <g id="ytick_12">
     <g id="line2d_19">
      <g>
       <use xlink:href="#mf3301b72ad" x="57.6" y="273.071436" style="stroke: #000000; stroke-width: 0.6"/>
      </g>
     </g>
    </g>
    <g id="ytick_13">
     <g id="line2d_20">
      <g>
       <use xlink:href="#mf3301b72ad" x="57.6" y="270.102212" style="stroke: #000000; stroke-width: 0.6"/>
      </g>
     </g>
    </g>
    <g id="ytick_14">
     <g id="line2d_21">
      <g>
       <use xlink:href="#mf3301b72ad" x="57.6" y="267.530153" style="stroke: #000000; stroke-width: 0.6"/>
      </g>
     </g>
    </g>
    <g id="ytick_15">
     <g id="line2d_22">
      <g>
       <use xlink:href="#mf3301b72ad" x="57.6" y="265.261436" style="stroke: #000000; stroke-width: 0.6"/>
      </g>
     </g>
    </g>
    <g id="ytick_16">
     <g id="line2d_23">
      <g>
       <use xlink:href="#mf3301b72ad" x="57.6" y="249.880718" style="stroke: #000000; stroke-width: 0.6"/>
      </g>
     </g>
    </g>
    <g id="ytick_17">
     <g id="line2d_24">
      <g>
       <use xlink:href="#mf3301b72ad" x="57.6" y="242.070718" style="stroke: #000000; stroke-width: 0.6"/>
      </g>
     </g>
    </g>
    <g id="ytick_18">
     <g id="line2d_25">
      <g>
       <use xlink:href="#mf3301b72ad" x="57.6" y="236.529435" style="stroke: #000000; stroke-width: 0.6"/>
      </g>
     </g>
    </g>
    <g id="ytick_19">
     <g id="line2d_26">
      <g>
       <use xlink:href="#mf3301b72ad" x="57.6" y="232.231282" style="stroke: #000000; stroke-width: 0.6"/>
      </g>
     </g>
    </g>
    <g id="ytick_20">
     <g id="line2d_27">
      <g>
       <use xlink:href="#mf3301b72ad" x="57.6" y="228.719436" style="stroke: #000000; stroke-width: 0.6"/>
      </g>
     </g>
    </g>
    <g id="ytick_21">
     <g id="line2d_28">
      <g>
       <use xlink:href="#mf3301b72ad" x="57.6" y="225.750212" style="stroke: #000000; stroke-width: 0.6"/>
      </g>
     </g>
    </g>
    <g id="ytick_22">
     <g id="line2d_29">
      <g>
       <use xlink:href="#mf3301b72ad" x="57.6" y="223.178153" style="stroke: #000000; stroke-width: 0.6"/>
      </g>
     </g>
    </g>
    <g id="ytick_23">
     <g id="line2d_30">
      <g>
       <use xlink:href="#mf3301b72ad" x="57.6" y="220.909436" style="stroke: #000000; stroke-width: 0.6"/>
      </g>
     </g>
    </g>
    <g id="ytick_24">
     <g id="line2d_31">
      <g>
       <use xlink:href="#mf3301b72ad" x="57.6" y="205.528718" style="stroke: #000000; stroke-width: 0.6"/>
      </g>
     </g>
    </g>
    <g id="ytick_25">
     <g id="line2d_32">
      <g>
       <use xlink:href="#mf3301b72ad" x="57.6" y="197.718718" style="stroke: #000000; stroke-width: 0.6"/>
      </g>
     </g>
    </g>
    <g id="ytick_26">
     <g id="line2d_33">
      <g>
       <use xlink:href="#mf3301b72ad" x="57.6" y="192.177435" style="stroke: #000000; stroke-width: 0.6"/>
      </g>
     </g>
    </g>
    <g id="ytick_27">
     <g id="line2d_34">
      <g>
       <use xlink:href="#mf3301b72ad" x="57.6" y="187.879282" style="stroke: #000000; stroke-width: 0.6"/>
      </g>
     </g>
    </g>
    <g id="ytick_28">
     <g id="line2d_35">
      <g>
       <use xlink:href="#mf3301b72ad" x="57.6" y="184.367436" style="stroke: #000000; stroke-width: 0.6"/>
      </g>
     </g>
    </g>
    <g id="ytick_29">
     <g id="line2d_36">
      <g>
       <use xlink:href="#mf3301b72ad" x="57.6" y="181.398212" style="stroke: #000000; stroke-width: 0.6"/>
      </g>
     </g>
    </g>
    <g id="ytick_30">
     <g id="line2d_37">
      <g>
       <use xlink:href="#mf3301b72ad" x="57.6" y="178.826153" style="stroke: #000000; stroke-width: 0.6"/>
      </g>
     </g>
    </g>
    <g id="ytick_31">
     <g id="line2d_38">
      <g>
       <use xlink:href="#mf3301b72ad" x="57.6" y="176.557436" style="stroke: #000000; stroke-width: 0.6"/>
      </g>
     </g>
    </g>
    <g id="ytick_32">
     <g id="line2d_39">
      <g>
       <use xlink:href="#mf3301b72ad" x="57.6" y="161.176718" style="stroke: #000000; stroke-width: 0.6"/>
      </g>
     </g>
    </g>
    <g id="ytick_33">
     <g id="line2d_40">
      <g>
       <use xlink:href="#mf3301b72ad" x="57.6" y="153.366718" style="stroke: #000000; stroke-width: 0.6"/>
      </g>
     </g>
    </g>
    <g id="ytick_34">
     <g id="line2d_41">
      <g>
       <use xlink:href="#mf3301b72ad" x="57.6" y="147.825435" style="stroke: #000000; stroke-width: 0.6"/>
      </g>
     </g>
    </g>
    <g id="ytick_35">
     <g id="line2d_42">
      <g>
       <use xlink:href="#mf3301b72ad" x="57.6" y="143.527282" style="stroke: #000000; stroke-width: 0.6"/>
      </g>
     </g>
    </g>
    <g id="ytick_36">
     <g id="line2d_43">
      <g>
       <use xlink:href="#mf3301b72ad" x="57.6" y="140.015436" style="stroke: #000000; stroke-width: 0.6"/>
      </g>
     </g>
    </g>
    <g id="ytick_37">
     <g id="line2d_44">
      <g>
       <use xlink:href="#mf3301b72ad" x="57.6" y="137.046212" style="stroke: #000000; stroke-width: 0.6"/>
      </g>
     </g>
    </g>
    <g id="ytick_38">
     <g id="line2d_45">
      <g>
       <use xlink:href="#mf3301b72ad" x="57.6" y="134.474153" style="stroke: #000000; stroke-width: 0.6"/>
      </g>
     </g>
    </g>
    <g id="ytick_39">
     <g id="line2d_46">
      <g>
       <use xlink:href="#mf3301b72ad" x="57.6" y="132.205436" style="stroke: #000000; stroke-width: 0.6"/>
      </g>
     </g>
    </g>
    <g id="ytick_40">
     <g id="line2d_47">
      <g>
       <use xlink:href="#mf3301b72ad" x="57.6" y="116.824718" style="stroke: #000000; stroke-width: 0.6"/>
      </g>
     </g>
    </g>
    <g id="ytick_41">
     <g id="line2d_48">
      <g>
       <use xlink:href="#mf3301b72ad" x="57.6" y="109.014718" style="stroke: #000000; stroke-width: 0.6"/>
      </g>
     </g>
    </g>
    <g id="ytick_42">
     <g id="line2d_49">
      <g>
       <use xlink:href="#mf3301b72ad" x="57.6" y="103.473435" style="stroke: #000000; stroke-width: 0.6"/>
      </g>
     </g>
    </g>
    <g id="ytick_43">
     <g id="line2d_50">
      <g>
       <use xlink:href="#mf3301b72ad" x="57.6" y="99.175282" style="stroke: #000000; stroke-width: 0.6"/>
      </g>
     </g>
    </g>
    <g id="ytick_44">
     <g id="line2d_51">
      <g>
       <use xlink:href="#mf3301b72ad" x="57.6" y="95.663436" style="stroke: #000000; stroke-width: 0.6"/>
      </g>
     </g>
    </g>
    <g id="ytick_45">
     <g id="line2d_52">
      <g>
       <use xlink:href="#mf3301b72ad" x="57.6" y="92.694212" style="stroke: #000000; stroke-width: 0.6"/>
      </g>
     </g>
    </g>
    <g id="ytick_46">
     <g id="line2d_53">
      <g>
       <use xlink:href="#mf3301b72ad" x="57.6" y="90.122153" style="stroke: #000000; stroke-width: 0.6"/>
      </g>
     </g>
    </g>
    <g id="ytick_47">
     <g id="line2d_54">
      <g>
       <use xlink:href="#mf3301b72ad" x="57.6" y="87.853436" style="stroke: #000000; stroke-width: 0.6"/>
      </g>
     </g>
    </g>
    <g id="ytick_48">
     <g id="line2d_55">
      <g>
       <use xlink:href="#mf3301b72ad" x="57.6" y="72.472718" style="stroke: #000000; stroke-width: 0.6"/>
      </g>
     </g>
    </g>
    <g id="ytick_49">
     <g id="line2d_56">
      <g>
       <use xlink:href="#mf3301b72ad" x="57.6" y="64.662718" style="stroke: #000000; stroke-width: 0.6"/>
      </g>
     </g>
    </g>
    <g id="ytick_50">
     <g id="line2d_57">
      <g>
       <use xlink:href="#mf3301b72ad" x="57.6" y="59.121435" style="stroke: #000000; stroke-width: 0.6"/>
      </g>
     </g>
    </g>
    <g id="ytick_51">
     <g id="line2d_58">
      <g>
       <use xlink:href="#mf3301b72ad" x="57.6" y="54.823282" style="stroke: #000000; stroke-width: 0.6"/>
      </g>
     </g>
    </g>
    <g id="ytick_52">
     <g id="line2d_59">
      <g>
       <use xlink:href="#mf3301b72ad" x="57.6" y="51.311436" style="stroke: #000000; stroke-width: 0.6"/>
      </g>
     </g>
    </g>
    <g id="ytick_53">
     <g id="line2d_60">
      <g>
       <use xlink:href="#mf3301b72ad" x="57.6" y="48.342212" style="stroke: #000000; stroke-width: 0.6"/>
      </g>
     </g>
    </g>
    <g id="ytick_54">
     <g id="line2d_61">
      <g>
       <use xlink:href="#mf3301b72ad" x="57.6" y="45.770153" style="stroke: #000000; stroke-width: 0.6"/>
      </g>
     </g>
    </g>
    <g id="ytick_55">
     <g id="line2d_62">
      <g>
       <use xlink:href="#mf3301b72ad" x="57.6" y="43.501436" style="stroke: #000000; stroke-width: 0.6"/>
      </g>
     </g>
    </g>
    <g id="text_16">
     <!-- Leistung/Frequenz (V²/Hz) -->
     <g transform="translate(21.020312 239.182687) rotate(-90) scale(0.1 -0.1)">
      <defs>
       <path id="DejaVuSans-4c" d="M 628 4666 
L 1259 4666 
L 1259 531 
L 3531 531 
L 3531 0 
L 628 0 
L 628 4666 
z
" transform="scale(0.015625)"/>
       <path id="DejaVuSans-73" d="M 2834 3397 
L 2834 2853 
Q 2591 2978 2328 3040 
Q 2066 3103 1784 3103 
Q 1356 3103 1142 2972 
Q 928 2841 928 2578 
Q 928 2378 1081 2264 
Q 1234 2150 1697 2047 
L 1894 2003 
Q 2506 1872 2764 1633 
Q 3022 1394 3022 966 
Q 3022 478 2636 193 
Q 2250 -91 1575 -91 
Q 1294 -91 989 -36 
Q 684 19 347 128 
L 347 722 
Q 666 556 975 473 
Q 1284 391 1588 391 
Q 1994 391 2212 530 
Q 2431 669 2431 922 
Q 2431 1156 2273 1281 
Q 2116 1406 1581 1522 
L 1381 1569 
Q 847 1681 609 1914 
Q 372 2147 372 2553 
Q 372 3047 722 3315 
Q 1072 3584 1716 3584 
Q 2034 3584 2315 3537 
Q 2597 3491 2834 3397 
z
" transform="scale(0.015625)"/>
       <path id="DejaVuSans-74" d="M 1172 4494 
L 1172 3500 
L 2356 3500 
L 2356 3053 
L 1172 3053 
L 1172 1153 
Q 1172 725 1289 603 
Q 1406 481 1766 481 
L 2356 481 
L 2356 0 
L 1766 0 
Q 1100 0 847 248 
Q 594 497 594 1153 
L 594 3053 
L 172 3053 
L 172 3500 
L 594 3500 
L 594 4494 
L 1172 4494 
z
" transform="scale(0.015625)"/>
       <path id="DejaVuSans-67" d="M 2906 1791 
Q 2906 2416 2648 2759 
Q 2391 3103 1925 3103 
Q 1463 3103 1205 2759 
Q 947 2416 947 1791 
Q 947 1169 1205 825 
Q 1463 481 1925 481 
Q 2391 481 2648 825 
Q 2906 1169 2906 1791 
z
M 3481 434 
Q 3481 -459 3084 -895 
Q 2688 -1331 1869 -1331 
Q 1566 -1331 1297 -1286 
Q 1028 -1241 775 -1147 
L 775 -588 
Q 1028 -725 1275 -790 
Q 1522 -856 1778 -856 
Q 2344 -856 2625 -561 
Q 2906 -266 2906 331 
L 2906 616 
Q 2728 306 2450 153 
Q 2172 0 1784 0 
Q 1141 0 747 490 
Q 353 981 353 1791 
Q 353 2603 747 3093 
Q 1141 3584 1784 3584 
Q 2172 3584 2450 3431 
Q 2728 3278 2906 2969 
L 2906 3500 
L 3481 3500 
L 3481 434 
z
" transform="scale(0.015625)"/>
       <path id="DejaVuSans-2f" d="M 1625 4666 
L 2156 4666 
L 531 -594 
L 0 -594 
L 1625 4666 
z
" transform="scale(0.015625)"/>
       <path id="DejaVuSans-28" d="M 1984 4856 
Q 1566 4138 1362 3434 
Q 1159 2731 1159 2009 
Q 1159 1288 1364 580 
Q 1569 -128 1984 -844 
L 1484 -844 
Q 1016 -109 783 600 
Q 550 1309 550 2009 
Q 550 2706 781 3412 
Q 1013 4119 1484 4856 
L 1984 4856 
z
" transform="scale(0.015625)"/>
       <path id="DejaVuSans-56" d="M 1831 0 
L 50 4666 
L 709 4666 
L 2188 738 
L 3669 4666 
L 4325 4666 
L 2547 0 
L 1831 0 
z
" transform="scale(0.015625)"/>
       <path id="DejaVuSans-b2" d="M 838 2444 
L 2163 2444 
L 2163 2088 
L 294 2088 
L 294 2431 
Q 400 2528 597 2703 
Q 1672 3656 1672 3950 
Q 1672 4156 1509 4282 
Q 1347 4409 1081 4409 
Q 919 4409 728 4354 
Q 538 4300 313 4191 
L 313 4575 
Q 553 4663 761 4706 
Q 969 4750 1147 4750 
Q 1600 4750 1872 4544 
Q 2144 4338 2144 4000 
Q 2144 3566 1109 2678 
Q 934 2528 838 2444 
z
" transform="scale(0.015625)"/>
       <path id="DejaVuSans-29" d="M 513 4856 
L 1013 4856 
Q 1481 4119 1714 3412 
Q 1947 2706 1947 2009 
Q 1947 1309 1714 600 
Q 1481 -109 1013 -844 
L 513 -844 
Q 928 -128 1133 580 
Q 1338 1288 1338 2009 
Q 1338 2731 1133 3434 
Q 928 4138 513 4856 
z
" transform="scale(0.015625)"/>
      </defs>
      <use xlink:href="#DejaVuSans-4c"/>
      <use xlink:href="#DejaVuSans-65" transform="translate(53.962891 0)"/>
      <use xlink:href="#DejaVuSans-69" transform="translate(115.486328 0)"/>
      <use xlink:href="#DejaVuSans-73" transform="translate(143.269531 0)"/>
      <use xlink:href="#DejaVuSans-74" transform="translate(195.369141 0)"/>
      <use xlink:href="#DejaVuSans-75" transform="translate(234.578125 0)"/>
      <use xlink:href="#DejaVuSans-6e" transform="translate(297.957031 0)"/>
      <use xlink:href="#DejaVuSans-67" transform="translate(361.335938 0)"/>
      <use xlink:href="#DejaVuSans-2f" transform="translate(424.8125 0)"/>
      <use xlink:href="#DejaVuSans-46" transform="translate(458.503906 0)"/>
      <use xlink:href="#DejaVuSans-72" transform="translate(508.773438 0)"/>
      <use xlink:href="#DejaVuSans-65" transform="translate(547.636719 0)"/>
      <use xlink:href="#DejaVuSans-71" transform="translate(609.160156 0)"/>
      <use xlink:href="#DejaVuSans-75" transform="translate(672.636719 0)"/>
      <use xlink:href="#DejaVuSans-65" transform="translate(736.015625 0)"/>
      <use xlink:href="#DejaVuSans-6e" transform="translate(797.539062 0)"/>
      <use xlink:href="#DejaVuSans-7a" transform="translate(860.917969 0)"/>
      <use xlink:href="#DejaVuSans-20" transform="translate(913.408203 0)"/>
      <use xlink:href="#DejaVuSans-28" transform="translate(945.195312 0)"/>
      <use xlink:href="#DejaVuSans-56" transform="translate(984.208984 0)"/>
      <use xlink:href="#DejaVuSans-b2" transform="translate(1052.617188 0)"/>
      <use xlink:href="#DejaVuSans-2f" transform="translate(1092.705078 0)"/>
      <use xlink:href="#DejaVuSans-48" transform="translate(1126.396484 0)"/>
      <use xlink:href="#DejaVuSans-7a" transform="translate(1201.591797 0)"/>
      <use xlink:href="#DejaVuSans-29" transform="translate(1254.082031 0)"/>
     </g>
    </g>
   </g>
   <g id="line2d_63">
    <path d="M 73.832727 149.717734 
L 74.149773 119.479588 
L 74.466818 119.636117 
L 74.783864 134.668591 
L 75.100909 143.333277 
L 75.417955 145.386112 
L 75.735 142.825032 
L 76.369091 154.644224 
L 77.003182 139.6612 
L 77.637273 168.169258 
L 77.954318 172.473395 
L 78.271364 173.556147 
L 78.588409 175.106597 
L 78.905455 168.488019 
L 79.2225 172.430937 
L 79.539545 174.420932 
L 79.856591 172.408292 
L 80.173636 175.005825 
L 80.490682 184.737518 
L 80.807727 184.627069 
L 81.124773 183.897618 
L 82.392955 190.844299 
L 82.71 194.266165 
L 83.027045 191.371449 
L 83.344091 190.079399 
L 83.661136 194.37249 
L 83.978182 193.988159 
L 84.295227 194.811794 
L 84.612273 193.508515 
L 84.929318 194.168757 
L 85.246364 192.026683 
L 85.563409 196.645688 
L 85.880455 199.616372 
L 86.1975 194.636361 
L 86.514545 197.856558 
L 86.831591 199.716581 
L 87.148636 198.583984 
L 87.465682 204.079684 
L 87.782727 207.454659 
L 88.099773 206.850049 
L 88.416818 204.428952 
L 88.733864 204.825076 
L 89.050909 202.30675 
L 89.367955 197.995124 
L 89.685 202.284594 
L 90.319091 206.843204 
L 90.636136 200.957787 
L 90.953182 202.409057 
L 91.270227 204.89854 
L 91.904318 201.780968 
L 92.221364 202.948688 
L 92.538409 202.816953 
L 92.855455 202.266126 
L 93.1725 196.199784 
L 93.489545 199.986561 
L 93.806591 198.098488 
L 94.123636 193.132499 
L 94.440682 193.877396 
L 94.757727 189.875574 
L 95.074773 189.447883 
L 95.391818 186.639061 
L 95.708864 185.69491 
L 96.025909 182.578709 
L 96.342955 187.614568 
L 96.66 182.762273 
L 96.977045 185.803421 
L 97.294091 180.546917 
L 98.245227 185.564073 
L 98.562273 186.883227 
L 99.513409 196.160789 
L 99.830455 194.521282 
L 100.1475 195.026033 
L 100.464545 195.880363 
L 100.781591 196.198941 
L 101.098636 197.284158 
L 101.732727 191.87711 
L 102.366818 198.462114 
L 103.000909 202.567317 
L 103.635 200.242098 
L 103.952045 202.578582 
L 104.269091 200.604648 
L 104.586136 201.934064 
L 104.903182 199.959666 
L 105.220227 203.270048 
L 105.537273 203.086274 
L 105.854318 201.818807 
L 106.171364 204.102575 
L 106.488409 210.371645 
L 106.805455 210.475782 
L 107.1225 208.849679 
L 107.439545 216.620214 
L 107.756591 212.266785 
L 108.073636 212.398286 
L 108.390682 217.909649 
L 108.707727 212.396559 
L 109.024773 210.660769 
L 109.341818 214.309768 
L 109.658864 208.126368 
L 109.975909 205.898121 
L 110.292955 209.12176 
L 110.61 208.956056 
L 110.927045 211.462526 
L 111.244091 208.431893 
L 111.561136 204.236052 
L 112.195227 214.706911 
L 112.512273 212.921089 
L 112.829318 208.585663 
L 113.146364 214.807766 
L 113.463409 216.873671 
L 113.780455 214.257627 
L 114.0975 213.28097 
L 114.414545 215.835996 
L 114.731591 216.019332 
L 115.048636 214.268526 
L 115.365682 218.82469 
L 115.682727 216.002354 
L 115.999773 215.334303 
L 116.316818 209.665905 
L 116.633864 210.34457 
L 117.267955 218.781768 
L 117.585 215.751147 
L 117.902045 215.198893 
L 118.219091 211.802609 
L 118.536136 210.323649 
L 119.170227 213.432061 
L 119.487273 207.993983 
L 119.804318 208.659365 
L 120.438409 215.633852 
L 120.755455 214.201516 
L 121.389545 220.543861 
L 121.706591 216.808975 
L 122.023636 215.459344 
L 122.340682 216.569512 
L 122.657727 213.616281 
L 122.974773 220.199555 
L 123.608864 218.09421 
L 123.925909 217.906194 
L 124.242955 214.913638 
L 124.56 216.531979 
L 124.877045 213.117502 
L 125.194091 213.796073 
L 125.511136 216.276983 
L 125.828182 217.006554 
L 126.145227 216.543052 
L 126.779318 221.984396 
L 127.096364 220.844625 
L 127.413409 217.613096 
L 127.730455 218.770053 
L 128.0475 220.662658 
L 128.364545 218.039133 
L 129.315682 220.473986 
L 129.632727 214.97381 
L 129.949773 215.674921 
L 130.266818 219.02421 
L 130.583864 219.542468 
L 130.900909 218.160443 
L 131.535 220.391933 
L 131.852045 218.010742 
L 132.169091 213.277958 
L 132.486136 215.254922 
L 132.803182 220.790639 
L 133.120227 219.24373 
L 133.437273 216.239798 
L 133.754318 218.78101 
L 134.071364 219.872529 
L 134.388409 223.209242 
L 134.705455 222.204434 
L 135.0225 224.291841 
L 135.339545 225.497042 
L 135.656591 225.701748 
L 135.973636 219.812657 
L 136.290682 220.621233 
L 136.607727 221.868169 
L 136.924773 218.771041 
L 137.241818 218.593059 
L 137.558864 222.923063 
L 137.875909 224.447393 
L 138.192955 223.380473 
L 138.51 220.91865 
L 138.827045 227.597007 
L 139.144091 224.808948 
L 139.461136 224.272248 
L 139.778182 225.991655 
L 140.412273 218.471559 
L 140.729318 222.174149 
L 141.046364 223.023859 
L 141.680455 217.017278 
L 141.9975 226.752093 
L 142.314545 226.240785 
L 142.631591 226.941093 
L 142.948636 230.457068 
L 143.265682 229.537723 
L 143.582727 227.954877 
L 143.899773 229.622748 
L 144.216818 222.83919 
L 144.533864 223.362116 
L 144.850909 225.392132 
L 145.167955 229.233083 
L 145.802045 220.417813 
L 146.119091 219.989483 
L 146.436136 223.642259 
L 146.753182 225.071966 
L 147.387273 220.129006 
L 147.704318 221.44651 
L 148.021364 227.273841 
L 148.338409 226.350166 
L 148.9725 222.952031 
L 149.289545 223.75717 
L 149.606591 226.649073 
L 149.923636 227.005182 
L 150.240682 227.120196 
L 150.557727 227.041114 
L 150.874773 227.533 
L 151.191818 224.225061 
L 151.508864 223.319537 
L 152.142955 226.876448 
L 152.46 227.128003 
L 152.777045 225.364807 
L 153.094091 228.305172 
L 153.411136 228.146524 
L 153.728182 221.068898 
L 154.362273 223.901972 
L 154.679318 222.65294 
L 154.996364 224.282148 
L 155.313409 229.820376 
L 155.630455 231.319696 
L 155.9475 228.440081 
L 156.264545 228.52212 
L 156.581591 230.099231 
L 156.898636 230.940624 
L 157.215682 219.47089 
L 157.532727 216.274928 
L 158.166818 234.958892 
L 158.483864 229.757095 
L 158.800909 229.347599 
L 159.435 224.255339 
L 159.752045 226.917998 
L 160.069091 222.576365 
L 160.386136 225.752802 
L 160.703182 227.290286 
L 161.020227 225.274234 
L 161.654318 236.646013 
L 161.971364 235.967546 
L 162.288409 230.649348 
L 162.605455 234.510516 
L 162.9225 232.16679 
L 163.239545 224.816944 
L 163.556591 221.500721 
L 163.873636 221.429402 
L 164.190682 221.498652 
L 164.507727 225.964189 
L 164.824773 225.009814 
L 165.141818 229.45825 
L 165.775909 234.342827 
L 166.092955 229.670235 
L 166.41 230.673824 
L 166.727045 225.869949 
L 167.044091 225.776697 
L 167.361136 223.411618 
L 167.678182 225.05158 
L 167.995227 224.858009 
L 168.312273 221.522843 
L 168.946364 231.339832 
L 169.263409 231.01402 
L 169.580455 231.107575 
L 169.8975 234.253037 
L 170.214545 232.604143 
L 170.531591 235.468376 
L 170.848636 241.170535 
L 171.165682 238.106539 
L 171.482727 232.315869 
L 172.116818 227.770505 
L 172.433864 222.597445 
L 172.750909 222.677154 
L 173.067955 227.946114 
L 173.385 235.450115 
L 173.702045 233.553785 
L 174.019091 232.71504 
L 174.336136 234.881513 
L 174.653182 233.707126 
L 174.970227 228.877466 
L 175.287273 227.10323 
L 175.604318 229.598361 
L 175.921364 228.736614 
L 176.555455 235.67094 
L 176.8725 234.116087 
L 177.189545 231.269847 
L 177.506591 232.738173 
L 177.823636 230.478184 
L 178.140682 232.607349 
L 178.774773 232.701177 
L 179.091818 231.235211 
L 179.408864 229.223627 
L 180.042955 236.165689 
L 180.36 236.718937 
L 180.677045 234.136171 
L 181.311136 237.588591 
L 181.628182 236.373346 
L 181.945227 232.612894 
L 182.262273 232.389675 
L 182.579318 232.498239 
L 182.896364 234.433422 
L 183.530455 231.147106 
L 183.8475 230.578117 
L 184.481591 230.417427 
L 184.798636 233.575065 
L 185.115682 235.566516 
L 185.749773 234.021893 
L 186.066818 236.62037 
L 186.383864 235.447795 
L 186.700909 239.731827 
L 187.335 227.625353 
L 187.652045 227.37104 
L 187.969091 226.966347 
L 188.286136 228.353416 
L 189.237273 237.399814 
L 189.554318 234.826263 
L 189.871364 234.838284 
L 190.188409 234.986103 
L 190.505455 233.667343 
L 190.8225 233.94299 
L 191.139545 236.454395 
L 191.456591 225.583319 
L 191.773636 228.388095 
L 192.090682 229.208632 
L 192.407727 236.175945 
L 192.724773 239.573832 
L 193.041818 233.208712 
L 193.358864 233.035557 
L 193.675909 239.885605 
L 193.992955 237.942425 
L 194.31 233.707822 
L 194.627045 235.654891 
L 194.944091 239.189293 
L 195.261136 238.024664 
L 195.578182 234.530878 
L 195.895227 233.117959 
L 196.212273 234.7436 
L 196.529318 232.211503 
L 196.846364 231.86183 
L 197.163409 235.71261 
L 197.480455 235.647687 
L 197.7975 234.152959 
L 198.114545 236.050679 
L 198.431591 234.498063 
L 198.748636 237.156288 
L 199.065682 234.195554 
L 199.382727 233.572854 
L 199.699773 235.438512 
L 200.016818 230.65598 
L 200.333864 235.09395 
L 201.285 241.429476 
L 201.602045 237.517808 
L 201.919091 237.020227 
L 202.236136 233.922481 
L 202.553182 232.865666 
L 202.870227 236.36984 
L 203.187273 238.586773 
L 203.504318 237.465979 
L 203.821364 240.168216 
L 204.138409 238.000275 
L 204.455455 237.017245 
L 204.7725 234.92627 
L 205.089545 234.374907 
L 205.406591 240.009221 
L 205.723636 234.056476 
L 206.674773 240.846152 
L 206.991818 238.177422 
L 207.308864 232.19081 
L 207.625909 229.969265 
L 207.942955 235.243366 
L 208.26 235.782677 
L 208.577045 235.107749 
L 208.894091 237.780018 
L 209.211136 234.520615 
L 209.528182 233.963615 
L 209.845227 235.357594 
L 210.162273 235.573624 
L 210.479318 236.775022 
L 210.796364 238.933084 
L 211.113409 235.868825 
L 211.430455 238.927508 
L 211.7475 236.30396 
L 212.064545 235.214024 
L 212.381591 233.036657 
L 212.698636 235.112105 
L 213.015682 241.144835 
L 213.332727 240.227613 
L 213.649773 238.457997 
L 214.600909 242.697993 
L 214.917955 238.948902 
L 215.552045 237.233246 
L 216.186136 238.264517 
L 216.503182 242.04322 
L 216.820227 240.513888 
L 217.137273 240.738947 
L 217.454318 243.760912 
L 217.771364 239.559189 
L 218.088409 238.903125 
L 218.405455 240.036463 
L 218.7225 242.270334 
L 219.039545 241.487708 
L 219.356591 238.312301 
L 219.673636 242.312938 
L 219.990682 244.117178 
L 220.307727 239.598134 
L 220.624773 239.796255 
L 220.941818 240.353568 
L 221.258864 240.041068 
L 221.575909 237.803502 
L 222.21 239.017355 
L 222.527045 241.997242 
L 223.478182 239.49229 
L 223.795227 247.84211 
L 224.112273 244.271515 
L 224.429318 244.239078 
L 224.746364 242.377688 
L 225.063409 237.649066 
L 225.380455 237.217877 
L 226.014545 202.481371 
L 226.331591 228.569911 
L 226.648636 241.653119 
L 226.965682 240.070166 
L 227.282727 241.550719 
L 227.599773 241.478836 
L 227.916818 245.569716 
L 228.233864 242.102329 
L 228.550909 241.262287 
L 228.867955 241.82527 
L 229.185 239.699069 
L 229.502045 245.638444 
L 229.819091 248.39151 
L 230.136136 243.095337 
L 230.453182 243.509849 
L 230.770227 248.916494 
L 231.087273 240.377168 
L 231.404318 245.288044 
L 231.721364 238.562927 
L 232.038409 236.971043 
L 232.355455 237.647325 
L 232.6725 243.356743 
L 232.989545 242.27133 
L 233.306591 242.692424 
L 233.623636 244.973192 
L 233.940682 244.468035 
L 234.574773 245.255618 
L 235.208864 247.022761 
L 235.525909 248.939186 
L 235.842955 243.899167 
L 236.16 242.290432 
L 236.477045 246.495111 
L 236.794091 246.719191 
L 237.111136 245.363194 
L 237.428182 247.216999 
L 238.062273 243.499743 
L 238.379318 247.524135 
L 238.696364 245.224298 
L 239.013409 247.921091 
L 239.330455 244.836128 
L 239.6475 237.669387 
L 240.598636 246.785009 
L 240.915682 243.240332 
L 241.232727 245.107144 
L 241.866818 243.087968 
L 242.500909 240.493527 
L 242.817955 244.911126 
L 243.135 245.629868 
L 243.452045 243.046183 
L 243.769091 241.827031 
L 244.086136 243.393121 
L 244.403182 245.970198 
L 244.720227 247.071725 
L 245.037273 245.18099 
L 245.354318 239.82171 
L 245.671364 244.026436 
L 245.988409 245.233113 
L 246.6225 242.448102 
L 247.256591 241.893491 
L 247.573636 246.136954 
L 247.890682 248.003791 
L 248.207727 245.719554 
L 248.524773 248.052053 
L 248.841818 244.123384 
L 249.158864 242.16828 
L 249.475909 241.614543 
L 249.792955 247.037423 
L 250.11 247.884839 
L 250.427045 244.94218 
L 250.744091 247.349772 
L 251.061136 247.281028 
L 251.378182 244.859892 
L 251.695227 246.941938 
L 252.012273 243.841216 
L 252.329318 242.860707 
L 252.646364 243.625255 
L 252.963409 245.541304 
L 253.280455 245.072447 
L 253.914545 241.835663 
L 254.231591 243.09366 
L 254.548636 244.812659 
L 254.865682 251.836319 
L 255.499773 244.371354 
L 255.816818 245.728681 
L 256.133864 246.131315 
L 256.450909 248.731557 
L 256.767955 247.885308 
L 257.085 248.478953 
L 257.719091 245.396025 
L 258.036136 251.250928 
L 258.353182 251.516339 
L 258.670227 252.931734 
L 258.987273 245.631272 
L 259.304318 243.608993 
L 259.621364 245.599422 
L 259.938409 239.715066 
L 260.255455 240.731227 
L 260.5725 246.650327 
L 261.523636 248.651677 
L 262.157727 247.042449 
L 262.474773 251.224034 
L 262.791818 253.896658 
L 263.425909 245.37225 
L 263.742955 247.287263 
L 264.06 251.07553 
L 265.011136 244.170023 
L 265.645227 253.05661 
L 266.279318 250.251901 
L 266.596364 246.918973 
L 266.913409 249.470554 
L 267.230455 253.121485 
L 267.5475 247.992137 
L 267.864545 251.154601 
L 268.181591 256.356586 
L 269.449773 252.176821 
L 269.766818 253.180147 
L 270.400909 247.81825 
L 270.717955 250.56842 
L 271.035 251.782417 
L 271.352045 249.59866 
L 271.669091 250.16041 
L 271.986136 253.194099 
L 272.303182 246.055128 
L 272.937273 250.32594 
L 273.254318 248.071413 
L 273.571364 248.288094 
L 273.888409 249.438932 
L 274.205455 249.825018 
L 274.5225 249.523226 
L 274.839545 253.135023 
L 275.156591 254.416558 
L 275.473636 257.720855 
L 275.790682 259.571929 
L 276.424773 252.410358 
L 277.058864 257.007957 
L 277.375909 256.049545 
L 277.692955 256.0987 
L 278.01 252.483087 
L 278.327045 254.366016 
L 278.961136 249.163607 
L 279.278182 252.105765 
L 279.595227 253.517114 
L 279.912273 253.594972 
L 280.229318 251.665141 
L 280.546364 252.041272 
L 280.863409 261.050559 
L 281.180455 255.5571 
L 281.4975 256.58594 
L 281.814545 253.757301 
L 282.131591 247.954673 
L 282.448636 246.961843 
L 282.765682 251.277984 
L 283.082727 252.622055 
L 283.716818 246.792648 
L 284.033864 251.435146 
L 284.350909 250.192313 
L 284.985 254.808298 
L 285.619091 251.118214 
L 285.936136 255.956583 
L 286.570227 253.842424 
L 287.204318 260.72548 
L 287.521364 260.040165 
L 287.838409 253.661858 
L 288.155455 253.5358 
L 288.4725 254.02758 
L 288.789545 251.448906 
L 289.106591 254.340653 
L 289.423636 259.303904 
L 289.740682 253.600954 
L 290.057727 256.585563 
L 290.374773 258.483935 
L 291.325909 250.291267 
L 291.642955 250.939475 
L 291.96 256.669659 
L 292.277045 257.626961 
L 292.594091 259.437054 
L 292.911136 257.474983 
L 293.545227 259.37533 
L 294.179318 255.995281 
L 294.496364 251.654173 
L 294.813409 254.298177 
L 295.130455 254.270074 
L 295.764545 257.891314 
L 296.081591 258.44901 
L 296.398636 258.631865 
L 296.715682 258.265438 
L 297.032727 253.50986 
L 297.349773 256.700301 
L 297.666818 262.045466 
L 297.983864 261.221615 
L 298.300909 259.806386 
L 298.617955 259.663216 
L 299.252045 259.093777 
L 299.569091 257.216795 
L 300.203182 256.152342 
L 300.520227 254.423534 
L 300.837273 255.022726 
L 301.154318 256.76891 
L 301.471364 263.514725 
L 301.788409 259.8735 
L 302.105455 259.142939 
L 302.4225 256.07429 
L 302.739545 257.188153 
L 303.056591 259.505189 
L 303.373636 259.091558 
L 303.690682 260.266138 
L 304.324773 259.07593 
L 304.641818 259.442212 
L 304.958864 262.156677 
L 305.592955 255.338113 
L 305.91 255.732397 
L 306.227045 255.659774 
L 306.544091 256.417082 
L 306.861136 256.583137 
L 307.178182 254.648579 
L 307.812273 260.224201 
L 308.129318 255.86857 
L 308.446364 258.264565 
L 308.763409 265.052655 
L 309.080455 257.697111 
L 309.3975 257.949058 
L 309.714545 264.402833 
L 310.031591 259.647881 
L 310.348636 260.115628 
L 310.665682 261.756398 
L 310.982727 261.884929 
L 311.299773 261.768631 
L 311.616818 259.917578 
L 311.933864 259.518158 
L 312.250909 267.258729 
L 312.567955 268.357622 
L 312.885 264.66249 
L 313.202045 265.415458 
L 313.836136 256.707724 
L 314.470227 266.030905 
L 315.104318 256.775752 
L 315.738409 266.85182 
L 316.055455 263.712235 
L 316.3725 259.18384 
L 316.689545 257.498993 
L 317.006591 264.29842 
L 317.323636 266.620966 
L 317.640682 264.603628 
L 317.957727 264.241577 
L 318.274773 264.325445 
L 318.591818 266.691195 
L 318.908864 265.27426 
L 319.225909 262.542694 
L 319.542955 264.234089 
L 319.86 260.498845 
L 320.177045 263.316395 
L 320.494091 262.285918 
L 320.811136 262.347179 
L 321.128182 261.340882 
L 321.445227 263.305083 
L 321.762273 268.241251 
L 322.396364 258.334754 
L 322.713409 259.963858 
L 323.030455 259.978048 
L 323.3475 260.483366 
L 323.664545 258.976065 
L 323.981591 259.11413 
L 324.298636 257.703022 
L 324.615682 264.519664 
L 324.932727 266.457677 
L 325.249773 263.336769 
L 325.566818 263.124293 
L 325.883864 267.153383 
L 326.200909 268.419958 
L 326.517955 261.073819 
L 327.469091 265.600166 
L 327.786136 265.859685 
L 328.103182 264.367045 
L 328.420227 264.255176 
L 328.737273 265.362473 
L 329.054318 269.517066 
L 329.371364 266.577533 
L 329.688409 267.748947 
L 330.005455 265.421014 
L 330.3225 267.543963 
L 330.639545 267.753653 
L 330.956591 265.683492 
L 331.273636 267.689 
L 331.907727 263.897393 
L 332.541818 269.412561 
L 332.858864 267.914646 
L 333.175909 270.335796 
L 333.492955 269.635703 
L 333.81 265.221168 
L 334.127045 266.595256 
L 334.444091 263.730214 
L 334.761136 264.300371 
L 335.078182 268.585071 
L 335.395227 265.599131 
L 335.712273 265.964452 
L 336.029318 261.884215 
L 336.663409 262.013546 
L 336.980455 265.711259 
L 337.2975 266.519342 
L 337.614545 268.179566 
L 337.931591 264.209649 
L 338.248636 268.404588 
L 338.565682 266.024218 
L 338.882727 262.07164 
L 339.199773 264.621146 
L 339.516818 269.891997 
L 339.833864 270.95766 
L 340.467955 270.92684 
L 340.785 268.946125 
L 341.102045 268.095457 
L 341.419091 267.860125 
L 341.736136 271.707138 
L 342.053182 272.259612 
L 342.687273 265.904514 
L 343.004318 264.370344 
L 343.321364 269.256529 
L 343.955455 261.479087 
L 344.2725 268.823643 
L 344.906591 273.604363 
L 345.223636 270.638878 
L 345.540682 266.039238 
L 345.857727 267.062441 
L 346.174773 263.15351 
L 346.491818 267.930577 
L 346.808864 268.176697 
L 347.125909 266.744997 
L 347.442955 264.216856 
L 348.077045 278.280816 
L 348.394091 275.091309 
L 348.711136 269.92042 
L 349.028182 266.753804 
L 349.345227 266.987858 
L 349.662273 270.473906 
L 350.296364 265.95324 
L 350.613409 266.017917 
L 350.930455 268.887065 
L 351.2475 267.304791 
L 351.564545 264.936659 
L 351.881591 270.623761 
L 352.198636 273.42393 
L 352.515682 273.682984 
L 353.149773 279.784253 
L 353.466818 279.602943 
L 353.783864 277.152338 
L 354.100909 268.23651 
L 354.417955 266.215169 
L 354.735 274.697715 
L 355.052045 273.766377 
L 355.369091 270.253446 
L 355.686136 270.034586 
L 356.003182 276.00356 
L 356.320227 277.740707 
L 356.637273 271.586383 
L 356.954318 273.395679 
L 357.271364 279.96347 
L 357.588409 279.498331 
L 357.905455 278.430958 
L 358.2225 272.046712 
L 358.539545 271.246402 
L 358.856591 274.319775 
L 359.173636 273.140885 
L 359.490682 272.68952 
L 360.124773 276.026399 
L 360.441818 276.093507 
L 360.758864 267.646333 
L 361.075909 271.017856 
L 361.392955 278.163637 
L 361.71 275.993631 
L 362.027045 272.329082 
L 362.344091 272.022169 
L 362.978182 274.68335 
L 363.295227 271.827503 
L 363.612273 270.30303 
L 363.929318 275.945736 
L 364.246364 275.892682 
L 364.563409 273.877564 
L 364.880455 276.487308 
L 365.1975 277.672608 
L 365.514545 271.571948 
L 365.831591 270.880074 
L 366.148636 272.837576 
L 366.465682 271.898315 
L 366.782727 273.709841 
L 367.099773 273.57124 
L 367.416818 276.287561 
L 367.733864 275.331786 
L 368.050909 272.56347 
L 368.367955 272.969475 
L 368.685 276.118986 
L 369.002045 278.028982 
L 369.319091 278.159578 
L 369.636136 275.784651 
L 369.953182 276.826064 
L 370.270227 279.332562 
L 370.904318 276.768339 
L 371.221364 274.733207 
L 371.538409 279.407032 
L 371.855455 280.471336 
L 372.1725 279.209324 
L 372.489545 279.564896 
L 372.806591 275.197456 
L 373.123636 275.884812 
L 373.440682 279.02834 
L 373.757727 278.37376 
L 374.074773 279.467285 
L 374.391818 276.310926 
L 374.708864 274.978287 
L 375.025909 276.39011 
L 375.342955 276.031624 
L 375.66 271.79014 
L 375.977045 269.331426 
L 376.294091 270.848016 
L 376.611136 270.224068 
L 377.245227 274.343082 
L 377.562273 272.903438 
L 377.879318 275.207831 
L 378.196364 269.890923 
L 378.513409 270.639225 
L 378.830455 278.521649 
L 379.1475 276.351141 
L 379.464545 272.841488 
L 379.781591 277.822592 
L 380.098636 275.501077 
L 380.415682 269.610039 
L 380.732727 274.505379 
L 381.049773 282.205417 
L 381.366818 278.952238 
L 381.683864 269.644439 
L 382.000909 270.997415 
L 382.317955 275.641999 
L 382.635 282.954945 
L 382.952045 282.527122 
L 383.269091 277.51292 
L 383.586136 277.30877 
L 384.220227 278.513785 
L 384.854318 285.25824 
L 385.171364 275.873153 
L 385.488409 273.764716 
L 385.805455 273.73048 
L 386.1225 275.571212 
L 386.439545 273.408178 
L 386.756591 270.15253 
L 387.073636 278.040879 
L 387.390682 278.964514 
L 387.707727 274.949785 
L 388.024773 276.996114 
L 388.341818 272.769885 
L 388.658864 272.127775 
L 388.975909 276.435408 
L 389.292955 268.259703 
L 389.61 267.442211 
L 389.927045 270.478629 
L 390.244091 272.148004 
L 390.561136 272.805655 
L 390.878182 270.335596 
L 391.512273 275.755658 
L 391.829318 274.292725 
L 392.146364 270.509189 
L 392.463409 273.58464 
L 392.780455 274.524198 
L 393.0975 276.972476 
L 393.414545 277.18923 
L 393.731591 277.628342 
L 394.048636 282.417532 
L 394.365682 276.700502 
L 394.682727 273.034983 
L 394.999773 276.266533 
L 395.316818 273.507273 
L 395.633864 274.698783 
L 395.950909 276.794448 
L 396.267955 277.16395 
L 396.585 278.818656 
L 396.902045 279.101624 
L 397.219091 276.360074 
L 397.536136 277.995658 
L 397.853182 280.616341 
L 398.170227 276.709825 
L 398.487273 285.702204 
L 398.487273 285.702204 
" clip-path="url(#pbd9fb0367d)" style="fill: none; stroke: #1f77b4; stroke-width: 1.5; stroke-linecap: square"/>
   </g>
   <g id="patch_3">
    <path d="M 57.6 307.584 
L 57.6 41.472 
" style="fill: none; stroke: #000000; stroke-width: 0.8; stroke-linejoin: miter; stroke-linecap: square"/>
   </g>
   <g id="patch_4">
    <path d="M 414.72 307.584 
L 414.72 41.472 
" style="fill: none; stroke: #000000; stroke-width: 0.8; stroke-linejoin: miter; stroke-linecap: square"/>
   </g>
   <g id="patch_5">
    <path d="M 57.6 307.584 
L 414.72 307.584 
" style="fill: none; stroke: #000000; stroke-width: 0.8; stroke-linejoin: miter; stroke-linecap: square"/>
   </g>
   <g id="patch_6">
    <path d="M 57.6 41.472 
L 414.72 41.472 
" style="fill: none; stroke: #000000; stroke-width: 0.8; stroke-linejoin: miter; stroke-linecap: square"/>
   </g>
   <g id="text_17">
    <!-- Power Spektrum des EEG Signals von Kanal P4-O2 -->
    <g transform="translate(85.026563 35.472) scale(0.12 -0.12)">
     <defs>
      <path id="DejaVuSans-50" d="M 1259 4147 
L 1259 2394 
L 2053 2394 
Q 2494 2394 2734 2622 
Q 2975 2850 2975 3272 
Q 2975 3691 2734 3919 
Q 2494 4147 2053 4147 
L 1259 4147 
z
M 628 4666 
L 2053 4666 
Q 2838 4666 3239 4311 
Q 3641 3956 3641 3272 
Q 3641 2581 3239 2228 
Q 2838 1875 2053 1875 
L 1259 1875 
L 1259 0 
L 628 0 
L 628 4666 
z
" transform="scale(0.015625)"/>
      <path id="DejaVuSans-6f" d="M 1959 3097 
Q 1497 3097 1228 2736 
Q 959 2375 959 1747 
Q 959 1119 1226 758 
Q 1494 397 1959 397 
Q 2419 397 2687 759 
Q 2956 1122 2956 1747 
Q 2956 2369 2687 2733 
Q 2419 3097 1959 3097 
z
M 1959 3584 
Q 2709 3584 3137 3096 
Q 3566 2609 3566 1747 
Q 3566 888 3137 398 
Q 2709 -91 1959 -91 
Q 1206 -91 779 398 
Q 353 888 353 1747 
Q 353 2609 779 3096 
Q 1206 3584 1959 3584 
z
" transform="scale(0.015625)"/>
      <path id="DejaVuSans-77" d="M 269 3500 
L 844 3500 
L 1563 769 
L 2278 3500 
L 2956 3500 
L 3675 769 
L 4391 3500 
L 4966 3500 
L 4050 0 
L 3372 0 
L 2619 2869 
L 1863 0 
L 1184 0 
L 269 3500 
z
" transform="scale(0.015625)"/>
      <path id="DejaVuSans-53" d="M 3425 4513 
L 3425 3897 
Q 3066 4069 2747 4153 
Q 2428 4238 2131 4238 
Q 1616 4238 1336 4038 
Q 1056 3838 1056 3469 
Q 1056 3159 1242 3001 
Q 1428 2844 1947 2747 
L 2328 2669 
Q 3034 2534 3370 2195 
Q 3706 1856 3706 1288 
Q 3706 609 3251 259 
Q 2797 -91 1919 -91 
Q 1588 -91 1214 -16 
Q 841 59 441 206 
L 441 856 
Q 825 641 1194 531 
Q 1563 422 1919 422 
Q 2459 422 2753 634 
Q 3047 847 3047 1241 
Q 3047 1584 2836 1778 
Q 2625 1972 2144 2069 
L 1759 2144 
Q 1053 2284 737 2584 
Q 422 2884 422 3419 
Q 422 4038 858 4394 
Q 1294 4750 2059 4750 
Q 2388 4750 2728 4690 
Q 3069 4631 3425 4513 
z
" transform="scale(0.015625)"/>
      <path id="DejaVuSans-70" d="M 1159 525 
L 1159 -1331 
L 581 -1331 
L 581 3500 
L 1159 3500 
L 1159 2969 
Q 1341 3281 1617 3432 
Q 1894 3584 2278 3584 
Q 2916 3584 3314 3078 
Q 3713 2572 3713 1747 
Q 3713 922 3314 415 
Q 2916 -91 2278 -91 
Q 1894 -91 1617 61 
Q 1341 213 1159 525 
z
M 3116 1747 
Q 3116 2381 2855 2742 
Q 2594 3103 2138 3103 
Q 1681 3103 1420 2742 
Q 1159 2381 1159 1747 
Q 1159 1113 1420 752 
Q 1681 391 2138 391 
Q 2594 391 2855 752 
Q 3116 1113 3116 1747 
z
" transform="scale(0.015625)"/>
      <path id="DejaVuSans-6b" d="M 581 4863 
L 1159 4863 
L 1159 1991 
L 2875 3500 
L 3609 3500 
L 1753 1863 
L 3688 0 
L 2938 0 
L 1159 1709 
L 1159 0 
L 581 0 
L 581 4863 
z
" transform="scale(0.015625)"/>
      <path id="DejaVuSans-6d" d="M 3328 2828 
Q 3544 3216 3844 3400 
Q 4144 3584 4550 3584 
Q 5097 3584 5394 3201 
Q 5691 2819 5691 2113 
L 5691 0 
L 5113 0 
L 5113 2094 
Q 5113 2597 4934 2840 
Q 4756 3084 4391 3084 
Q 3944 3084 3684 2787 
Q 3425 2491 3425 1978 
L 3425 0 
L 2847 0 
L 2847 2094 
Q 2847 2600 2669 2842 
Q 2491 3084 2119 3084 
Q 1678 3084 1418 2786 
Q 1159 2488 1159 1978 
L 1159 0 
L 581 0 
L 581 3500 
L 1159 3500 
L 1159 2956 
Q 1356 3278 1631 3431 
Q 1906 3584 2284 3584 
Q 2666 3584 2933 3390 
Q 3200 3197 3328 2828 
z
" transform="scale(0.015625)"/>
      <path id="DejaVuSans-64" d="M 2906 2969 
L 2906 4863 
L 3481 4863 
L 3481 0 
L 2906 0 
L 2906 525 
Q 2725 213 2448 61 
Q 2172 -91 1784 -91 
Q 1150 -91 751 415 
Q 353 922 353 1747 
Q 353 2572 751 3078 
Q 1150 3584 1784 3584 
Q 2172 3584 2448 3432 
Q 2725 3281 2906 2969 
z
M 947 1747 
Q 947 1113 1208 752 
Q 1469 391 1925 391 
Q 2381 391 2643 752 
Q 2906 1113 2906 1747 
Q 2906 2381 2643 2742 
Q 2381 3103 1925 3103 
Q 1469 3103 1208 2742 
Q 947 2381 947 1747 
z
" transform="scale(0.015625)"/>
      <path id="DejaVuSans-45" d="M 628 4666 
L 3578 4666 
L 3578 4134 
L 1259 4134 
L 1259 2753 
L 3481 2753 
L 3481 2222 
L 1259 2222 
L 1259 531 
L 3634 531 
L 3634 0 
L 628 0 
L 628 4666 
z
" transform="scale(0.015625)"/>
      <path id="DejaVuSans-47" d="M 3809 666 
L 3809 1919 
L 2778 1919 
L 2778 2438 
L 4434 2438 
L 4434 434 
Q 4069 175 3628 42 
Q 3188 -91 2688 -91 
Q 1594 -91 976 548 
Q 359 1188 359 2328 
Q 359 3472 976 4111 
Q 1594 4750 2688 4750 
Q 3144 4750 3555 4637 
Q 3966 4525 4313 4306 
L 4313 3634 
Q 3963 3931 3569 4081 
Q 3175 4231 2741 4231 
Q 1884 4231 1454 3753 
Q 1025 3275 1025 2328 
Q 1025 1384 1454 906 
Q 1884 428 2741 428 
Q 3075 428 3337 486 
Q 3600 544 3809 666 
z
" transform="scale(0.015625)"/>
      <path id="DejaVuSans-61" d="M 2194 1759 
Q 1497 1759 1228 1600 
Q 959 1441 959 1056 
Q 959 750 1161 570 
Q 1363 391 1709 391 
Q 2188 391 2477 730 
Q 2766 1069 2766 1631 
L 2766 1759 
L 2194 1759 
z
M 3341 1997 
L 3341 0 
L 2766 0 
L 2766 531 
Q 2569 213 2275 61 
Q 1981 -91 1556 -91 
Q 1019 -91 701 211 
Q 384 513 384 1019 
Q 384 1609 779 1909 
Q 1175 2209 1959 2209 
L 2766 2209 
L 2766 2266 
Q 2766 2663 2505 2880 
Q 2244 3097 1772 3097 
Q 1472 3097 1187 3025 
Q 903 2953 641 2809 
L 641 3341 
Q 956 3463 1253 3523 
Q 1550 3584 1831 3584 
Q 2591 3584 2966 3190 
Q 3341 2797 3341 1997 
z
" transform="scale(0.015625)"/>
      <path id="DejaVuSans-6c" d="M 603 4863 
L 1178 4863 
L 1178 0 
L 603 0 
L 603 4863 
z
" transform="scale(0.015625)"/>
      <path id="DejaVuSans-76" d="M 191 3500 
L 800 3500 
L 1894 563 
L 2988 3500 
L 3597 3500 
L 2284 0 
L 1503 0 
L 191 3500 
z
" transform="scale(0.015625)"/>
      <path id="DejaVuSans-4b" d="M 628 4666 
L 1259 4666 
L 1259 2694 
L 3353 4666 
L 4166 4666 
L 1850 2491 
L 4331 0 
L 3500 0 
L 1259 2247 
L 1259 0 
L 628 0 
L 628 4666 
z
" transform="scale(0.015625)"/>
      <path id="DejaVuSans-2d" d="M 313 2009 
L 1997 2009 
L 1997 1497 
L 313 1497 
L 313 2009 
z
" transform="scale(0.015625)"/>
      <path id="DejaVuSans-4f" d="M 2522 4238 
Q 1834 4238 1429 3725 
Q 1025 3213 1025 2328 
Q 1025 1447 1429 934 
Q 1834 422 2522 422 
Q 3209 422 3611 934 
Q 4013 1447 4013 2328 
Q 4013 3213 3611 3725 
Q 3209 4238 2522 4238 
z
M 2522 4750 
Q 3503 4750 4090 4092 
Q 4678 3434 4678 2328 
Q 4678 1225 4090 567 
Q 3503 -91 2522 -91 
Q 1538 -91 948 565 
Q 359 1222 359 2328 
Q 359 3434 948 4092 
Q 1538 4750 2522 4750 
z
" transform="scale(0.015625)"/>
     </defs>
     <use xlink:href="#DejaVuSans-50"/>
     <use xlink:href="#DejaVuSans-6f" transform="translate(56.677734 0)"/>
     <use xlink:href="#DejaVuSans-77" transform="translate(117.859375 0)"/>
     <use xlink:href="#DejaVuSans-65" transform="translate(199.646484 0)"/>
     <use xlink:href="#DejaVuSans-72" transform="translate(261.169922 0)"/>
     <use xlink:href="#DejaVuSans-20" transform="translate(302.283203 0)"/>
     <use xlink:href="#DejaVuSans-53" transform="translate(334.070312 0)"/>
     <use xlink:href="#DejaVuSans-70" transform="translate(397.546875 0)"/>
     <use xlink:href="#DejaVuSans-65" transform="translate(461.023438 0)"/>
     <use xlink:href="#DejaVuSans-6b" transform="translate(522.546875 0)"/>
     <use xlink:href="#DejaVuSans-74" transform="translate(580.457031 0)"/>
     <use xlink:href="#DejaVuSans-72" transform="translate(619.666016 0)"/>
     <use xlink:href="#DejaVuSans-75" transform="translate(660.779297 0)"/>
     <use xlink:href="#DejaVuSans-6d" transform="translate(724.158203 0)"/>
     <use xlink:href="#DejaVuSans-20" transform="translate(821.570312 0)"/>
     <use xlink:href="#DejaVuSans-64" transform="translate(853.357422 0)"/>
     <use xlink:href="#DejaVuSans-65" transform="translate(916.833984 0)"/>
     <use xlink:href="#DejaVuSans-73" transform="translate(978.357422 0)"/>
     <use xlink:href="#DejaVuSans-20" transform="translate(1030.457031 0)"/>
     <use xlink:href="#DejaVuSans-45" transform="translate(1062.244141 0)"/>
     <use xlink:href="#DejaVuSans-45" transform="translate(1125.427734 0)"/>
     <use xlink:href="#DejaVuSans-47" transform="translate(1188.611328 0)"/>
     <use xlink:href="#DejaVuSans-20" transform="translate(1266.101562 0)"/>
     <use xlink:href="#DejaVuSans-53" transform="translate(1297.888672 0)"/>
     <use xlink:href="#DejaVuSans-69" transform="translate(1361.365234 0)"/>
     <use xlink:href="#DejaVuSans-67" transform="translate(1389.148438 0)"/>
     <use xlink:href="#DejaVuSans-6e" transform="translate(1452.625 0)"/>
     <use xlink:href="#DejaVuSans-61" transform="translate(1516.003906 0)"/>
     <use xlink:href="#DejaVuSans-6c" transform="translate(1577.283203 0)"/>
     <use xlink:href="#DejaVuSans-73" transform="translate(1605.066406 0)"/>
     <use xlink:href="#DejaVuSans-20" transform="translate(1657.166016 0)"/>
     <use xlink:href="#DejaVuSans-76" transform="translate(1688.953125 0)"/>
     <use xlink:href="#DejaVuSans-6f" transform="translate(1748.132812 0)"/>
     <use xlink:href="#DejaVuSans-6e" transform="translate(1809.314453 0)"/>
     <use xlink:href="#DejaVuSans-20" transform="translate(1872.693359 0)"/>
     <use xlink:href="#DejaVuSans-4b" transform="translate(1904.480469 0)"/>
     <use xlink:href="#DejaVuSans-61" transform="translate(1968.306641 0)"/>
     <use xlink:href="#DejaVuSans-6e" transform="translate(2029.585938 0)"/>
     <use xlink:href="#DejaVuSans-61" transform="translate(2092.964844 0)"/>
     <use xlink:href="#DejaVuSans-6c" transform="translate(2154.244141 0)"/>
     <use xlink:href="#DejaVuSans-20" transform="translate(2182.027344 0)"/>
     <use xlink:href="#DejaVuSans-50" transform="translate(2213.814453 0)"/>
     <use xlink:href="#DejaVuSans-34" transform="translate(2274.117188 0)"/>
     <use xlink:href="#DejaVuSans-2d" transform="translate(2337.740234 0)"/>
     <use xlink:href="#DejaVuSans-4f" transform="translate(2376.574219 0)"/>
     <use xlink:href="#DejaVuSans-32" transform="translate(2455.285156 0)"/>
    </g>
   </g>
  </g>
 </g>
 <defs>
  <clipPath id="pbd9fb0367d">
   <rect x="57.6" y="41.472" width="357.12" height="266.112"/>
  </clipPath>
 </defs>
</svg>
